<svg width="56" height="56" viewBox="0 0 56 56" fill="none" xmlns="http://www.w3.org/2000/svg">
<path d="M27.9999 5.25039C25.687 5.25039 23.8835 6.66514 22.7816 8.52779C20.8975 7.46375 18.6273 7.13906 16.6251 8.29555C14.6229 9.45203 13.7647 11.5777 13.741 13.7414C11.5774 13.7651 9.45167 14.6229 8.29518 16.6254C7.13868 18.6279 7.46337 20.8982 8.52742 22.7819C6.66476 23.8838 5.25 25.6872 5.25 28.0002C5.25 30.3131 6.66476 32.1165 8.52742 33.2185C7.46338 35.1025 7.13869 37.3727 8.29518 39.3749C9.45167 41.3771 11.5774 42.2352 13.741 42.259C13.7647 44.4226 14.6226 46.5483 16.6251 47.7048C18.6276 48.8613 20.8979 48.5366 22.7816 47.4725C23.8835 49.3352 25.687 50.7499 27.9999 50.7499C28.699 50.7499 29.263 50.1836 29.263 49.4869V48.2214H33.2775C33.8036 49.6883 35.2112 50.75 36.8464 50.75C38.9271 50.75 40.6381 49.0367 40.6381 46.9583C40.6381 44.88 38.9271 43.1667 36.8464 43.1667C35.2112 43.1667 33.8036 44.2283 33.2775 45.6952H29.263V41.9036H34.3201C34.6543 41.9036 34.9766 41.7685 35.2136 41.5315C35.4506 41.2945 35.5833 40.9746 35.5833 40.6381C35.5833 40.3039 35.4506 39.9817 35.2136 39.7446C34.9766 39.5076 34.6543 39.375 34.3201 39.375H29.263V34.3202H40.6381V37.1924C39.8868 37.6332 39.375 38.4531 39.375 39.375C39.375 40.7566 40.522 41.9036 41.9036 41.9036C43.2828 41.9036 44.4298 40.7566 44.4298 39.375C44.4298 38.4532 43.9179 37.6332 43.1667 37.1924V33.0548C43.1667 32.3581 42.6004 31.7917 41.9036 31.7917H29.2631V29.2631H43.3894C43.9155 30.73 45.3208 31.7917 46.9583 31.7917C49.0366 31.7917 50.75 30.0783 50.75 28C50.75 25.9217 49.0366 24.2083 46.9583 24.2083C45.3208 24.2083 43.9155 25.27 43.3894 26.7369H29.2631V24.2083H41.9036C42.6003 24.2083 43.1667 23.642 43.1667 22.9452V18.8076C43.918 18.3668 44.4298 17.5469 44.4298 16.625C44.4298 15.2434 43.2829 14.0964 41.9036 14.0964C40.522 14.0964 39.375 15.2434 39.375 16.625C39.375 17.5468 39.8869 18.3668 40.6381 18.8076V21.6798H29.263V16.625H34.3201C34.6543 16.625 34.9766 16.4923 35.2136 16.2554C35.4506 16.0184 35.5833 15.6961 35.5833 15.3619C35.5833 15.0254 35.4506 14.7055 35.2136 14.4685C34.9766 14.2315 34.6543 14.0964 34.3201 14.0964H29.263V10.3048H33.2775C33.8036 11.7717 35.2112 12.8333 36.8464 12.8333C38.9271 12.8333 40.6381 11.12 40.6381 9.04167C40.6381 6.96335 38.9271 5.25 36.8464 5.25C35.2112 5.25 33.8036 6.31167 33.2775 7.77859H29.263V6.51314C29.263 5.81645 28.699 5.25039 27.9999 5.25039ZM19.1534 12.8337C19.4876 12.8337 19.8099 12.9664 20.0469 13.2034C20.2839 13.4404 20.4166 13.7627 20.4166 14.0969C20.4166 16.206 22.0991 17.8885 24.2083 17.8885C24.5424 17.8885 24.8647 18.0236 25.1017 18.2606C25.3387 18.4976 25.4714 18.8175 25.4714 19.154C25.4714 19.4882 25.3387 19.8104 25.1017 20.0475C24.8647 20.2845 24.5424 20.4172 24.2083 20.4172C20.7341 20.4172 17.888 17.5734 17.888 14.0969C17.888 13.4002 18.4544 12.8337 19.1534 12.8337ZM14.0963 22.9457C16.9259 22.9457 19.3359 24.8273 20.1345 27.4033C20.9829 26.9791 21.938 26.7373 22.9451 26.7373C23.2793 26.7373 23.6015 26.87 23.8386 27.107C24.0756 27.344 24.2083 27.6663 24.2083 28.0005C24.2083 28.3346 24.0756 28.6569 23.8386 28.8939C23.6016 29.1309 23.2793 29.2636 22.9451 29.2636C20.836 29.2636 19.1534 30.9461 19.1534 33.0553C19.1534 33.3918 19.0184 33.7117 18.7814 33.9487C18.5444 34.1857 18.2245 34.3208 17.8879 34.3208C17.1912 34.3208 16.6248 33.7544 16.6248 33.0553C16.6248 31.6453 17.0941 30.3348 17.8832 29.2802L17.8879 29.2731V29.2636C17.8879 27.1545 16.2054 25.4719 14.0962 25.4719C13.3995 25.4719 12.8332 24.9079 12.8332 24.2089C12.8332 23.5098 13.3996 22.9457 14.0963 22.9457ZM24.2083 35.5838C24.5424 35.5838 24.8647 35.7165 25.1017 35.9534C25.3387 36.1904 25.4714 36.5127 25.4714 36.8469C25.4714 37.1834 25.3387 37.5033 25.1017 37.7403C24.8647 37.9773 24.5424 38.1124 24.2083 38.1124C22.0991 38.1124 20.4166 39.7949 20.4166 41.904C20.4166 42.2382 20.2839 42.5605 20.0469 42.7975C19.8099 43.0345 19.4876 43.1672 19.1534 43.1672C18.4544 43.1672 17.888 42.6008 17.888 41.9041C17.888 38.4276 20.7341 35.5838 24.2083 35.5838Z" fill="url(#paint0_linear_15_3319)"/>
<defs>
<linearGradient id="paint0_linear_15_3319" x1="9.12234" y1="9.68903" x2="36.4666" y2="51.3876" gradientUnits="userSpaceOnUse">
<stop stop-color="#FF2A2A"/>
<stop offset="1" stop-color="#5A0000"/>
</linearGradient>
</defs>
</svg>
