<svg width="56" height="56" viewBox="0 0 56 56" fill="none" xmlns="http://www.w3.org/2000/svg">
<path fill-rule="evenodd" clip-rule="evenodd" d="M26.2656 34.7396L6.23427 39.6227C5.75659 39.7385 5.26776 39.4826 5.14051 39.0479L3.98428 35.1235C3.85705 34.6908 4.1383 34.246 4.61599 34.1302L48.9352 23.324C49.4106 23.2082 49.8994 23.4641 50.0289 23.8988L51.1829 27.8212C51.3102 28.2559 51.0289 28.7008 50.5512 28.8166L29.2542 34.0105L39.4799 49.5191C39.645 49.7709 39.6495 50.0837 39.491 50.3377C39.3325 50.5916 39.0357 50.75 38.7142 50.75H17.2858C16.9643 50.75 16.6675 50.5916 16.509 50.3377C16.3505 50.0837 16.355 49.771 16.5201 49.5191L26.2656 34.7396ZM47.6426 20.6876H42.2855C41.7922 20.6876 41.3926 20.324 41.3926 19.8751V13.3995H37.8212C37.4596 13.3995 37.136 13.2004 36.9953 12.8978C36.8592 12.5951 36.9328 12.2457 37.1895 12.0142L44.3324 5.48969C44.4998 5.33531 44.7274 5.25 44.9641 5.25C45.2007 5.25 45.4284 5.33531 45.5958 5.48969L52.7386 12.0142C52.9953 12.2457 53.069 12.5951 52.9328 12.8978C52.7922 13.2004 52.4685 13.3995 52.1069 13.3995H48.5355V19.8751C48.5355 20.324 48.1359 20.6876 47.6426 20.6876ZM14.6074 14.1875V20.6631H18.1788C18.5404 20.6631 18.864 20.8622 19.0047 21.1648C19.1408 21.4675 19.0672 21.8169 18.8105 22.0484L11.6676 28.5729C11.5002 28.7273 11.2726 28.8126 11.0359 28.8126C10.7993 28.8126 10.5717 28.7273 10.4042 28.5729L3.26141 22.0484C3.00471 21.8169 2.93106 21.4675 3.06721 21.1648C3.20784 20.8622 3.5315 20.6631 3.8931 20.6631H7.4645V14.1875C7.4645 13.7386 7.86405 13.375 8.35735 13.375H13.7145C14.2078 13.375 14.6074 13.7386 14.6074 14.1875ZM28.0004 7.68542C33.2281 7.68542 37.4689 11.5469 37.4689 16.3039C37.4689 21.0591 33.2279 24.9204 28.0004 24.9204C22.773 24.9204 18.5319 21.059 18.5319 16.3039C18.5319 11.5468 22.773 7.68542 28.0004 7.68542ZM28.0004 17.2587C28.7995 17.2587 29.516 17.667 29.516 18.2702C29.516 18.8776 28.7995 19.2858 28.0004 19.2858C27.2013 19.2858 26.4848 18.8776 26.4848 18.2702C26.4848 17.8234 26.0853 17.4577 25.592 17.4577C25.1009 17.4577 24.6991 17.8234 24.6991 18.2702C24.6991 19.4483 25.6969 20.4965 27.1076 20.8134V21.5588C27.1076 22.0077 27.5071 22.3713 28.0004 22.3713C28.4937 22.3713 28.8933 22.0077 28.8933 21.5588V20.8134C30.304 20.4965 31.3017 19.4483 31.3017 18.2702C31.3017 16.8585 29.862 15.6337 28.0004 15.6337C27.2013 15.6337 26.4848 15.2233 26.4848 14.6201C26.4848 14.0147 27.2013 13.6065 28.0004 13.6065C28.7995 13.6065 29.516 14.0148 29.516 14.6201C29.516 15.069 29.9156 15.4326 30.4089 15.4326C30.8999 15.4326 31.3017 15.069 31.3017 14.6201C31.3017 13.444 30.304 12.3959 28.8933 12.079V11.3315C28.8933 10.8846 28.4937 10.519 28.0004 10.519C27.5071 10.519 27.1076 10.8846 27.1076 11.3315V12.079C25.6968 12.3959 24.6991 13.444 24.6991 14.6201C24.6991 16.0318 26.1388 17.2587 28.0004 17.2587Z" fill="url(#paint0_linear_15_3353)"/>
<defs>
<linearGradient id="paint0_linear_15_3353" x1="7.25532" y1="9.68903" x2="33.4949" y2="53.6605" gradientUnits="userSpaceOnUse">
<stop stop-color="#FF2A2A"/>
<stop offset="1" stop-color="#5A0000"/>
</linearGradient>
</defs>
</svg>
