<svg width="56" height="56" viewBox="0 0 56 56" fill="none" xmlns="http://www.w3.org/2000/svg">
<path fill-rule="evenodd" clip-rule="evenodd" d="M50.2431 40.626L28.8299 50.5601C28.3063 50.8133 27.697 50.8133 27.1734 50.5601L5.7603 40.626C5.44804 40.4833 5.25 40.1729 5.25 39.8303C5.25 39.4876 5.44802 39.1773 5.7603 39.0326L8.99147 37.5419L26.6898 45.7682C27.5219 46.1585 28.4816 46.1585 29.3136 45.7682L47.012 37.5419L50.2241 39.0326C50.5364 39.1716 50.7401 39.4819 50.7439 39.8246C50.7477 40.1653 50.5534 40.4795 50.2431 40.626ZM33.9198 28.8911V26.6732C33.9178 26.0945 33.4552 25.6243 32.8763 25.6109H23.1276C22.5412 25.6128 22.067 26.0868 22.0651 26.6732V28.8911C22.067 30.3818 23.2742 31.5888 24.7651 31.5907H31.2197C32.7087 31.5888 33.9159 30.3818 33.9198 28.8911ZM21.5778 20.6059C19.9023 18.9077 18.9693 16.6155 18.9788 14.2301C18.9902 11.8447 19.9461 9.5601 21.6369 7.87722C23.3276 6.19433 25.6164 5.25 28.0023 5.25C30.3883 5.25 32.6767 6.19428 34.3678 7.87722C36.0588 9.56015 37.0144 11.8447 37.0258 14.2301C37.0353 16.6155 36.1023 18.9077 34.4268 20.6059C33.3967 21.6263 32.814 23.016 32.8083 24.4649H23.1966C23.189 23.0179 22.6063 21.6339 21.5781 20.6154L21.5778 20.6059ZM21.9491 14.7077H21.9472C21.9434 14.9438 22.1072 15.1494 22.3376 15.1951L22.8688 15.2922V15.2941C23.0439 15.3283 23.1867 15.454 23.2401 15.6253C23.3314 15.949 23.4571 16.2631 23.6152 16.5601C23.7027 16.7105 23.7027 16.8971 23.6152 17.0475L23.3029 17.4911C23.1772 17.6833 23.202 17.9365 23.3619 18.1003L24.1026 18.8408C24.2663 19.0008 24.5196 19.0255 24.7119 18.8998L25.1555 18.5876C25.3021 18.4924 25.4868 18.4829 25.643 18.5629C25.9533 18.7304 26.2789 18.8618 26.6178 18.9589C26.7873 19.0122 26.9149 19.1531 26.9491 19.3282L27.0462 19.8593C27.0938 20.0897 27.2995 20.2553 27.5337 20.2496H28.5771C28.8132 20.2553 29.0169 20.0897 29.0645 19.8593L29.1616 19.3282C29.1959 19.1531 29.3235 19.0122 29.4929 18.9589C29.8319 18.8618 30.1594 18.7285 30.4678 18.5629C30.6239 18.4829 30.8086 18.4924 30.9553 18.5876L31.3989 18.8998C31.5645 18.976 31.7588 18.9532 31.9015 18.8408L32.6327 18.1098C32.7926 17.9461 32.8174 17.6928 32.6917 17.5006L32.389 17.057C32.3014 16.9066 32.3014 16.72 32.389 16.5696C32.5546 16.2688 32.686 15.949 32.7831 15.6196C32.8383 15.4502 32.9792 15.3226 33.1544 15.2884L33.6856 15.1913C33.916 15.1437 34.0798 14.9381 34.0759 14.7039V13.6758C34.0798 13.4398 33.916 13.2342 33.6856 13.1885L33.1544 13.0914V13.0895C32.9792 13.0552 32.8383 12.9296 32.7831 12.7582C32.6841 12.4384 32.5508 12.1281 32.389 11.833C32.3014 11.6826 32.3014 11.496 32.389 11.3456L32.7012 10.902C32.8269 10.7098 32.8022 10.4566 32.6422 10.2928L31.9016 9.55227C31.7416 9.39616 31.4979 9.3676 31.3075 9.48374L30.8638 9.79596C30.7172 9.89115 30.5306 9.89876 30.3764 9.82071C30.066 9.65508 29.7385 9.52181 29.4015 9.42472C29.2301 9.37141 29.1045 9.23053 29.0702 9.05539L28.9769 8.53375C28.9293 8.30339 28.7256 8.13967 28.4895 8.14348H27.4803C27.2442 8.13967 27.0405 8.30339 26.9929 8.53375L26.8958 9.06489C26.8615 9.24004 26.7339 9.38092 26.5645 9.43422C26.2256 9.53132 25.8981 9.66268 25.5896 9.83021C25.4335 9.91017 25.2488 9.90065 25.1022 9.80546L24.6966 9.48372C24.5062 9.35807 24.2511 9.38091 24.0873 9.54273L23.3561 10.2738C23.1962 10.4375 23.1715 10.6907 23.299 10.883L23.6113 11.3266H23.6094C23.697 11.477 23.697 11.6617 23.6094 11.814C23.4456 12.1148 23.3124 12.4346 23.2152 12.7639C23.1619 12.9334 23.0191 13.0609 22.8459 13.0952L22.3147 13.1923H22.3128C22.0824 13.2399 21.9186 13.4455 21.9243 13.6797L21.9491 14.7077ZM28.0021 16.9542C29.1179 16.9542 30.1233 16.2822 30.5517 15.2522C30.9782 14.2222 30.7421 13.0343 29.9538 12.2461C29.1636 11.4579 27.9774 11.2218 26.9473 11.6483C25.9153 12.0747 25.2431 13.0799 25.2431 14.1975C25.2412 14.9285 25.5325 15.631 26.0504 16.1489C26.5683 16.6667 27.271 16.9561 28.0021 16.9542ZM26.7054 33.98H29.3045C29.6662 33.9838 29.988 33.7515 30.1022 33.4088L30.3364 32.7311H25.6677L25.9019 33.4088C26.0162 33.7534 26.3418 33.9857 26.7054 33.98ZM5.76075 28.9786L27.1739 38.9107C27.6975 39.1639 28.3068 39.1639 28.8304 38.9107L50.2435 28.9786C50.552 28.8339 50.75 28.5255 50.75 28.1847C50.75 27.8439 50.552 27.5336 50.2435 27.3889L35.87 20.6934C35.6719 20.9371 35.4625 21.1713 35.2416 21.3959C34.3943 22.2222 33.9278 23.3606 33.9488 24.5429V24.7428C34.6361 25.135 35.0607 25.8641 35.0607 26.6542V28.8721C35.0569 30.8654 33.5318 32.5255 31.5458 32.6968L31.1803 33.7592C30.9137 34.5664 30.154 35.107 29.3048 35.0956H26.7057C25.8565 35.1013 25.0987 34.5626 24.8245 33.7592L24.4589 32.6968C22.473 32.5255 20.9479 30.8654 20.9441 28.8721V26.6733C20.9441 25.8832 21.3687 25.154 22.056 24.7637V24.5638C22.077 23.3797 21.6105 22.2412 20.7632 21.415C20.5461 21.1903 20.3367 20.9562 20.1348 20.7125L5.76128 27.3851C5.44902 27.5279 5.25098 27.8401 5.25098 28.1809C5.25098 28.5235 5.44901 28.8358 5.76128 28.9785L5.76075 28.9786ZM50.2453 33.2145L47.0122 31.7181L29.3138 39.9386C28.4837 40.3346 27.5202 40.3346 26.69 39.9386L8.99168 31.7181L5.7605 33.2088C5.45205 33.3535 5.25401 33.6638 5.25401 34.0027C5.25401 34.3435 5.45203 34.6538 5.7605 34.7985L27.1736 44.7345C27.6972 44.9896 28.3065 44.9896 28.8301 44.7345L50.2433 34.7985C50.5517 34.6538 50.7498 34.3435 50.7498 34.0027C50.7498 33.6638 50.5517 33.3535 50.2433 33.2088L50.2453 33.2145Z" fill="url(#paint0_linear_15_3330)"/>
<defs>
<linearGradient id="paint0_linear_15_3330" x1="9.12234" y1="9.68903" x2="36.4666" y2="51.3876" gradientUnits="userSpaceOnUse">
<stop stop-color="#FF2A2A"/>
<stop offset="1" stop-color="#5A0000"/>
</linearGradient>
</defs>
</svg>
