<svg width="56" height="56" viewBox="0 0 56 56" fill="none" xmlns="http://www.w3.org/2000/svg">
<path d="M20.3593 28.6152C20.996 29.3805 21.6933 30.0868 22.4433 30.7324L23.7773 45.8496H32.7245C33.121 45.8496 33.4441 45.5273 33.4443 45.1309V37.9365C33.4443 36.7468 34.4128 35.7774 35.6025 35.7773H38.4804C39.6702 35.7773 40.6386 36.7467 40.6386 37.9365V38.6553H46.3945V37.9365C46.3945 37.539 46.7167 37.2168 47.1142 37.2168C47.5115 37.217 47.8329 37.5392 47.8329 37.9365V38.6553H48.5546C49.7442 38.6554 50.7126 39.6239 50.7128 40.8135V48.0078C50.7128 49.1975 49.7443 50.1669 48.5546 50.167H38.4823C37.2926 50.167 36.3241 49.1976 36.3241 48.0078V40.8135C36.3243 39.6239 37.2927 38.6553 38.4823 38.6553H39.2021V37.9365C39.2021 37.54 38.8789 37.2169 38.4823 37.2168H35.6044C35.2078 37.2168 34.8847 37.5399 34.8847 37.9365V45.1309C34.8845 46.3205 33.9161 47.2891 32.7265 47.2891H23.9052L24.0321 48.7275H26.2509C26.6483 48.7276 26.9706 49.0498 26.9706 49.4473C26.9706 49.8447 26.6483 50.1669 26.2509 50.167H14.7392C14.3419 50.1667 14.0205 49.8446 14.0204 49.4473C14.0204 49.0499 14.3419 48.7278 14.7392 48.7275H16.9579L18.5771 30.377C19.2613 29.7413 19.8551 29.1268 20.3398 28.5918L20.3593 28.6152ZM44.7441 41.7441C44.4636 41.464 44.008 41.4641 43.7275 41.7441L42.288 43.1836C42.0076 43.4641 42.0077 43.9196 42.288 44.2002L43.2177 45.1309L42.288 46.0605C42.0076 46.3411 42.0077 46.7966 42.288 47.0771C42.4291 47.2174 42.6125 47.288 42.7968 47.2881C42.9812 47.2881 43.1663 47.2174 43.3066 47.0771L44.745 45.6387C45.0256 45.3581 45.0246 44.9017 44.7441 44.6211L43.8144 43.6914L44.7441 42.7617C45.0246 42.4811 45.0246 42.0247 44.7441 41.7441ZM17.6161 24.9863C17.6162 26.1455 18.3057 27.1456 19.2958 27.6016L19.2968 27.6006C18.0144 29.0197 16.1154 30.8358 13.8339 32.1533C10.3934 34.1397 7.09241 34.3506 5.84757 34.3506C5.54721 34.3506 5.3662 34.3386 5.33293 34.3359C5.09117 34.318 4.87559 34.1799 4.75773 33.9688C4.63999 33.7575 4.63575 33.501 4.74796 33.2861C4.8253 33.1387 6.69438 29.6305 10.955 27.1709C13.2365 25.8535 15.7592 25.1179 17.6288 24.7168C17.6207 24.8049 17.6161 24.8955 17.6161 24.9863ZM23.3241 24.4727C24.8251 24.7308 26.7644 25.2839 28.7861 26.4512C32.9983 28.8829 36.0548 33.0208 36.1825 33.1953C36.3488 33.4218 36.3677 33.7253 36.2304 33.9707C36.1027 34.1991 35.8615 34.3389 35.6025 34.3389C35.5827 34.3389 35.5636 34.3377 35.5439 34.3359C35.3203 34.3175 30.1273 33.8713 25.9091 31.4355C23.8877 30.2684 22.4397 28.8661 21.4657 27.6953C22.5754 27.296 23.3719 26.2327 23.372 24.9863H23.371C23.371 24.811 23.3547 24.639 23.3241 24.4727ZM20.4941 23.5469C21.2887 23.5469 21.9335 24.1917 21.9335 24.9863C21.9334 25.7809 21.2887 26.4248 20.4941 26.4248C19.6996 26.4247 19.0557 25.7808 19.0556 24.9863C19.0556 24.1917 19.6995 23.547 20.4941 23.5469ZM20.4941 7C20.7315 7 20.9538 7.11735 21.0878 7.3125C21.1831 7.45315 23.372 10.7025 23.372 15.6338C23.3719 18.2695 22.7482 20.8215 22.1601 22.6416C21.6897 22.3062 21.1146 22.1084 20.4941 22.1084C19.8737 22.1085 19.2993 22.3063 18.829 22.6416C18.2418 20.8215 17.6162 18.2686 17.6161 15.6338C17.6161 10.7055 19.8017 7.45592 19.9003 7.3125C20.0352 7.11743 20.2567 7.00009 20.4941 7Z" fill="url(#paint0_linear_1_2183)"/>
<defs>
<linearGradient id="paint0_linear_1_2183" x1="8.58536" y1="11.2114" x2="33.8249" y2="52.2676" gradientUnits="userSpaceOnUse">
<stop stop-color="#FF2A2A"/>
<stop offset="1" stop-color="#5A0000"/>
</linearGradient>
</defs>
</svg>
