<svg width="56" height="56" viewBox="0 0 56 56" fill="none" xmlns="http://www.w3.org/2000/svg">
<path fill-rule="evenodd" clip-rule="evenodd" d="M35.789 28.3018C38.7076 26.3352 41.4466 24.1183 43.9799 21.6648V46.0463H35.789V28.3018ZM19.8937 46.0443V35.9432C17.2155 36.7799 14.4808 37.4289 11.7028 37.8863V46.0442L19.8937 46.0443ZM23.7448 46.0443H31.9357V30.6925C30.9797 31.2379 30.0081 31.7598 29.021 32.2544C27.2948 33.1205 25.5334 33.9005 23.7447 34.5964V46.0462L23.7448 46.0443ZM10.5044 19.618C10.5044 15.1433 14.1542 11.4937 18.6287 11.4937C23.1032 11.4937 26.753 15.1434 26.753 19.618C26.753 24.0925 23.1032 27.7423 18.6287 27.7423C14.1542 27.7423 10.5044 24.0925 10.5044 19.618ZM17.5027 19.618C17.5027 20.0735 17.7724 20.4644 18.1615 20.6424L22.1768 22.9608C22.7144 23.2697 23.3986 23.084 23.7075 22.5484C24.0163 22.0108 23.8306 21.3266 23.295 21.0177L19.7566 18.9748V14.6839C19.7566 14.0622 19.2523 13.5579 18.6306 13.5579C18.009 13.5579 17.5046 14.0622 17.5046 14.6839V19.62L17.5027 19.618ZM49.6216 48.4975H7.50166V36.6198C14.7407 35.918 21.706 33.9103 28.2158 30.6439C34.9054 27.2874 40.8227 22.7503 45.8022 17.1553L46.8695 15.9491L46.7816 16.7526C46.7131 17.3703 47.1608 17.9275 47.7786 17.9939C48.3963 18.0623 48.9515 17.6147 49.0199 16.9969L49.4754 12.8428C49.5126 12.5026 49.3933 12.1644 49.1509 11.924C48.9085 11.6816 48.5723 11.5643 48.2321 11.6014L44.0799 12.055C43.4602 12.1234 43.0145 12.6786 43.0829 13.2963C43.1494 13.9141 43.7066 14.3598 44.3263 14.2933L45.4327 14.1721L44.119 15.6559C34.638 26.31 21.6613 32.9294 7.50203 34.3562V6.37601C7.50203 5.75435 6.99767 5.25 6.37601 5.25C5.75435 5.25 5.25 5.75435 5.25 6.37601V49.624C5.25 50.2456 5.75435 50.75 6.37601 50.75H49.624C50.2456 50.75 50.75 50.2456 50.75 49.624C50.75 49.0023 50.2456 48.498 49.624 48.498L49.6216 48.4975Z" fill="url(#paint0_linear_15_3341)"/>
<defs>
<linearGradient id="paint0_linear_15_3341" x1="9.12234" y1="9.68903" x2="36.4666" y2="51.3876" gradientUnits="userSpaceOnUse">
<stop stop-color="#FF2A2A"/>
<stop offset="1" stop-color="#5A0000"/>
</linearGradient>
</defs>
</svg>
