<svg width="209" height="120" viewBox="0 0 209 120" fill="none" xmlns="http://www.w3.org/2000/svg">
<path d="M198.484 2.62305C200.077 6.53226 201.542 10.9797 202.882 15.9609C204.339 20.9302 205.555 25.8412 206.528 30.6934C207.505 35.566 208 39.8607 208 43.5674C208 49.7985 207.144 55.1162 205.395 59.4893L205.396 59.4902C203.775 63.8428 201.452 67.4243 198.414 70.2021C195.392 72.9653 191.808 74.9688 187.679 76.2168L187.67 76.2197L187.66 76.2227C183.687 77.3371 179.358 77.8896 174.68 77.8896C170.389 77.8896 166.618 77.523 163.379 76.7773L163.37 76.7754C160.251 76.0287 157.535 74.9009 155.241 73.376L155.215 73.3584L155.188 73.3389C153.231 71.8456 151.635 70.0378 150.403 67.9238C149.92 68.567 149.428 69.1802 148.923 69.7598L148.916 69.7676L148.908 69.7764C146.383 72.5473 143.349 74.6265 139.818 76.0098L139.81 76.0137L139.8 76.0166C136.387 77.2774 132.206 77.8896 127.288 77.8896C123.455 77.8896 120.125 77.3969 117.323 76.3809L117.286 76.3672C115.51 75.6424 113.905 74.8068 112.475 73.8604C111.736 78.003 110.634 82.1431 109.165 86.2793C107.184 92.1989 103.97 97.6163 99.5391 102.531L99.54 102.532C95.176 107.631 89.2176 111.639 81.7139 114.584C74.1756 117.542 64.7201 119 53.3857 119C46.3915 119 39.7538 118.021 33.4775 116.057V116.056C27.2039 114.213 21.5923 111.448 16.6533 107.754L16.6436 107.746C11.8112 104.039 7.96518 99.5229 5.11328 94.2051L5.10938 94.1973C2.35974 88.9617 1 82.9415 1 76.165C1.00002 73.2122 1.24685 70.0841 1.7373 66.7822L1.73926 66.7676L1.74219 66.7529C2.35444 63.3333 3.21056 59.7371 4.30859 55.9648L4.31445 55.9453C5.53358 52.0543 6.99507 47.9851 8.69824 43.7383L9.06641 42.8203L9.98828 43.1777L23.0615 48.249L23.9697 48.6006L23.6416 49.5186C22.4379 52.88 21.355 56.0599 20.3926 59.0586C19.5556 62.041 18.898 64.8381 18.4209 67.4512C18.0655 70.0583 17.8897 72.5401 17.8896 74.8975C17.8896 80.862 19.4666 85.8246 22.5723 89.8467L22.8809 90.2256C26.1079 94.1065 30.3288 97.0177 35.5742 98.9512L35.585 98.9551V98.9561C41.1482 101.081 47.2601 102.149 53.9307 102.149C62.0912 102.149 68.8725 101.191 74.3027 99.3076L74.3125 99.3037L74.3213 99.3008C79.7865 97.5233 84.0608 95.1141 87.1934 92.1055L87.207 92.0918C90.3709 89.1699 92.5727 85.9223 93.8438 82.3496L93.8486 82.3369L93.8535 82.3232C95.2631 78.6912 95.9648 75.0103 95.9648 71.2754C95.9648 66.0161 95.5447 61.0651 94.709 56.4209L94.707 56.4092L94.7051 56.3965C93.9856 51.7319 92.9667 47.1882 91.6484 42.7656L91.6436 42.751L91.6396 42.7354C90.4328 38.1613 89.105 33.5261 87.6562 28.8301L87.3516 27.8408L88.3506 27.5703L103.059 23.5859L104.006 23.3291L104.28 24.2725C105.612 28.8608 106.644 32.6134 107.374 35.5264L107.887 37.5137C108.361 39.3846 108.736 40.9599 109.011 42.2373C109.489 43.9084 109.91 45.4035 110.271 46.7227L110.519 47.5361C111.765 51.5146 113.142 54.4216 114.618 56.3252C116.318 58.2408 118.211 59.5069 120.297 60.1699C122.617 60.7453 125.247 61.039 128.195 61.0391C130.536 61.0391 132.544 60.7468 134.235 60.1846L134.253 60.1787C135.908 59.6628 137.499 58.3985 138.992 56.2217L139.002 56.207L139.013 56.1934C140.586 54.0631 142.001 50.5382 143.202 45.5078L143.204 45.4971L143.207 45.4863C144.522 40.4781 145.726 33.5861 146.813 24.791L146.943 23.7383L147.986 23.9297L161.786 26.4648L162.754 26.6436L162.592 27.6133C162.23 29.7809 161.807 32.4329 161.323 35.5693C160.841 38.6975 160.358 41.8259 159.875 44.9541L159.748 46.0537C159.473 48.5651 159.338 50.6926 159.338 52.4414C159.338 53.9647 159.66 55.4345 160.311 56.8594C161.001 58.0168 162.328 59.0348 164.478 59.8271L164.915 59.9707C167.172 60.6674 170.467 61.0391 174.861 61.0391C178.567 61.039 181.707 60.8002 184.29 60.333C186.837 59.7769 188.717 58.5267 190.009 56.5938L190.015 56.584C191.417 54.5394 192.2 51.2238 192.2 46.4648C192.2 43.5475 191.732 40.0658 190.774 36.0088L190.772 36.0029C189.812 31.8131 188.551 27.3773 186.986 22.6953C185.418 18.0037 183.73 13.3718 181.921 8.80078L181.544 7.84961L182.504 7.49512L197.212 2.06152L198.119 1.72656L198.484 2.62305Z" stroke="#44ADC1" stroke-width="2"/>
</svg>
