<svg width="102" height="115" viewBox="0 0 102 115" fill="none" xmlns="http://www.w3.org/2000/svg">
<path d="M48.2139 1C60.3185 1 68.9595 2.04975 74.2471 4.07227L74.2578 4.07617C79.5578 6.03437 83.7974 9.54459 86.9893 14.6504C90.1829 19.759 91.791 25.6124 91.791 32.2412C91.7909 40.6612 89.3552 47.551 84.5381 52.9893C79.7357 58.3589 72.5004 61.8149 62.6953 63.2568L59.8984 63.668L62.332 65.1074C67.2169 67.9958 71.2107 71.1524 74.3301 74.5693L74.335 74.5752C77.5126 78.0006 81.8288 84.1503 87.2939 93.0869L87.2959 93.0898L100.207 114H75.1406L58.876 89.4238C53.0078 80.5017 48.9352 74.8013 46.6973 72.4248C44.4476 69.9838 42.0197 68.2814 39.4072 67.3799C36.8078 66.4318 32.822 65.9922 27.5508 65.9922H21.9072V114H1V1H48.2139ZM21.9072 49.6357H39.8555C45.3611 49.6357 49.8495 49.5178 53.3125 49.2803C56.7438 49.0449 59.2617 48.6869 60.7666 48.1689C63.6974 47.16 66.0196 45.4077 67.6943 42.918C69.3775 40.4157 70.1865 37.3329 70.1865 33.7314C70.1865 29.6876 69.1062 26.3287 66.8574 23.7549H66.8584C64.6642 21.1315 61.5671 19.5192 57.667 18.8604L57.6533 18.8584L57.6406 18.8564L57.2324 18.8066C54.9746 18.5669 49.4572 18.4541 40.7842 18.4541H21.9072V49.6357Z" stroke="#44ADC1" stroke-width="2"/>
</svg>
