<svg width="71" height="121" viewBox="0 0 71 121" fill="none" xmlns="http://www.w3.org/2000/svg">
<path d="M55.4883 2.49512C60.6504 11.3101 64.3349 19.6764 66.5225 27.5928H66.5215C68.8307 35.4615 70 42.4265 70 48.4746C70 57.069 68.5651 64.8754 65.6787 71.8799C62.9433 78.8432 59.2462 84.9994 54.5859 90.3408C50.0806 95.7925 45.0916 100.434 39.6182 104.26L39.6191 104.261C34.3064 108.069 28.9179 111.202 23.4531 113.657L23.4521 113.656C18.1547 116.097 13.3765 117.872 9.12109 118.969L8.25586 119.191L7.9375 118.357L2.06543 102.997L1.6875 102.006L2.69824 101.687C16.2633 97.396 26.5898 92.258 33.7412 86.3086L33.748 86.3018L33.7559 86.2959C41.0925 80.4365 46.0259 74.3647 48.6416 68.0977L48.6445 68.0898L48.6484 68.082C51.4377 61.7174 52.8163 55.6561 52.8164 49.8896C52.8164 46.189 52.4189 42.626 51.627 39.2002C50.8364 35.7806 49.4453 31.8712 47.4395 27.4658C45.4296 23.0517 42.6083 17.5513 38.9707 10.9609L38.4707 10.0537L39.3955 9.58594L54.1738 2.10742L55.0137 1.68359L55.4883 2.49512Z" stroke="#44ADC1" stroke-width="2"/>
</svg>
