<svg width="97" height="121" viewBox="0 0 97 121" fill="none" xmlns="http://www.w3.org/2000/svg">
<path d="M49.2656 118.516C34.9274 118.516 24.074 115.214 16.5576 108.757C9.23516 102.416 4.73012 93.2403 3.12109 81.1143L23.6875 79.1143C25.1203 86.3508 27.8752 91.8355 32.0508 95.4297L32.0557 95.4336C36.4497 99.1685 42.3007 100.984 49.5 100.984C57.0642 100.984 62.9344 99.4013 66.9375 96.0654L66.9385 96.0645C70.9238 92.7342 73 88.7711 73 84.2031C73 81.2797 72.1219 78.7499 70.3359 76.6758H70.335C68.5992 74.5489 65.6424 72.8106 61.6318 71.3857L61.624 71.3828L61.0664 71.1953C58.0746 70.2153 52.0447 68.6008 43.0225 66.3574H43.0215C30.6656 63.2944 22.1662 59.5653 17.3545 55.2549C10.5251 49.1335 7.14062 41.718 7.14062 32.9531C7.14062 27.3197 8.72081 22.0645 11.9004 17.1689C15.1141 12.2489 19.7164 8.491 25.751 5.9043C31.8464 3.31385 39.232 2 47.9375 2C62.1876 2 72.7175 5.12601 79.7031 11.207L79.7051 11.21C86.537 17.1147 90.2427 24.9267 90.7979 34.7324L69.5469 35.665C68.5066 30.2606 66.4451 26.1612 63.2559 23.5215L62.9268 23.2578C59.4437 20.4561 54.311 19.1406 47.7031 19.1406C40.8608 19.1406 35.3662 20.5442 31.334 23.4717C28.6326 25.4265 27.25 28.095 27.25 31.3906C27.25 34.4276 28.5533 37.0149 31.0439 39.1094H31.0449C32.6441 40.4515 35.2827 41.7494 38.8486 43.0342C42.4396 44.328 47.0633 45.6409 52.708 46.9736C63.9348 49.6244 72.1407 52.3608 77.3887 55.1631L77.3984 55.1689C82.6622 57.902 86.7414 61.6595 89.6621 66.4434L89.6689 66.4531C92.6194 71.1539 94.125 77.0262 94.125 84.125C94.125 90.4904 92.3599 96.4508 88.8125 102.025C85.2841 107.57 80.2942 111.712 73.8047 114.451L73.1895 114.7C66.7837 117.231 58.8202 118.516 49.2656 118.516ZM49.2656 118.516V119.516M49.2656 118.516V119.516M49.2656 119.516C34.7865 119.516 23.6667 116.182 15.9062 109.516C8.14583 102.797 3.51042 93.0312 2 80.2188L24.5 78.0312C25.8542 85.5833 28.5885 91.1302 32.7031 94.6719C36.8698 98.2135 42.4688 99.9844 49.5 99.9844C56.9479 99.9844 62.5469 98.4219 66.2969 95.2969C70.099 92.1198 72 88.4219 72 84.2031C72 81.4948 71.1927 79.2031 69.5781 77.3281C68.0156 75.401 65.2552 73.7344 61.2969 72.3281C58.5885 71.3906 52.4167 69.724 42.7812 67.3281C30.3854 64.2552 21.6875 60.4792 16.6875 56C9.65625 49.6979 6.14062 42.0156 6.14062 32.9531C6.14062 27.1198 7.78125 21.6771 11.0625 16.625C14.3958 11.5208 19.1615 7.64062 25.3594 4.98438C31.6094 2.32812 39.1354 1 47.9375 1C62.3125 1 73.1198 4.15104 80.3594 10.4531C87.651 16.7552 91.4792 25.1667 91.8438 35.6875L68.7188 36.7031C67.7292 30.8177 65.5938 26.599 62.3125 24.0469C59.0833 21.4427 54.2135 20.1406 47.7031 20.1406C40.9844 20.1406 35.724 21.5208 31.9219 24.2812C29.474 26.0521 28.25 28.4219 28.25 31.3906C28.25 34.099 29.3958 36.4167 31.6875 38.3438C34.6042 40.7917 41.6875 43.3438 52.9375 46C64.1875 48.6562 72.4948 51.4167 77.8594 54.2812C83.276 57.0938 87.4948 60.974 90.5156 65.9219C93.5885 70.8177 95.125 76.8854 95.125 84.125C95.125 90.6875 93.3021 96.8333 89.6562 102.562C86.0104 108.292 80.8542 112.562 74.1875 115.375C67.5208 118.135 59.2135 119.516 49.2656 119.516Z" stroke="#44ADC1" stroke-width="2"/>
</svg>
