<svg width="102" height="119" viewBox="0 0 102 119" fill="none" xmlns="http://www.w3.org/2000/svg">
<path d="M37.458 102.446C39.5461 102.446 41.3404 103.246 42.7871 104.796L43.0654 105.089C44.4157 106.572 45.1152 108.318 45.1152 110.292C45.1152 112.385 44.3264 114.187 42.793 115.644C41.3451 117.198 39.5491 118 37.458 118C35.2853 118 33.4007 117.206 31.8574 115.65C30.4009 114.182 29.6651 112.377 29.665 110.292C29.665 108.208 30.399 106.37 31.834 104.82L31.8457 104.808L31.8574 104.796C33.4007 103.241 35.2853 102.446 37.458 102.446ZM56.0703 102.446C58.1695 102.446 59.9722 103.254 61.4229 104.82H61.4219C62.9391 106.36 63.7266 108.197 63.7266 110.292C63.7265 112.385 62.9387 114.187 61.4053 115.644C59.9575 117.198 58.1613 118 56.0703 118C53.8976 118 52.0131 117.206 50.4697 115.65C49.0131 114.182 48.2774 112.377 48.2773 110.292C48.2773 108.209 49.0104 106.37 50.4453 104.82L50.457 104.808L50.4697 104.796C52.0131 103.241 53.8976 102.446 56.0703 102.446ZM83.377 1C87.2602 1.00002 90.645 1.55736 93.5049 2.70508L94.501 3.08398C96.7497 3.96758 98.4729 4.84437 99.6123 5.72754L100.241 6.21484L99.9082 6.93652L95.4248 16.6572L95.002 17.5752L94.0879 17.1416C92.5898 16.4312 90.9067 15.7612 89.0361 15.1328C87.2407 14.5297 85.3559 14.2266 83.377 14.2266C80.8925 14.2266 78.3473 14.744 75.7354 15.7969L75.7344 15.7959C73.2016 16.8533 70.8421 18.2638 68.6533 20.0283C66.5596 21.789 64.8714 23.714 63.5771 25.8008C62.2992 27.8613 61.6895 29.8722 61.6895 31.8457C61.6896 33.0167 62.2548 34.1696 63.6338 35.3154C65.1759 36.5209 67.1724 37.6628 69.6445 38.7305C72.1693 39.8209 74.8289 40.9574 77.624 42.1387C80.5582 43.2478 83.3138 44.4971 85.8896 45.8877H85.8887C88.4915 47.2022 90.6233 48.7684 92.2559 50.6006C94.0598 52.5195 94.9736 54.8179 94.9736 57.4463C94.9736 61.0486 93.7663 64.872 91.4434 68.8984C89.0993 72.9613 85.6488 76.7081 81.1289 80.1475L81.1279 80.1465C76.5878 83.6923 71.054 86.5685 64.5439 88.7861L64.543 88.7852C58.0772 91.0184 50.6286 92.125 42.2129 92.125C36.4326 92.125 31.0485 91.4776 26.0654 90.1758L26.0605 90.1748C21.1548 88.8689 16.7862 86.8582 12.9668 84.1357V84.1348C9.21278 81.4855 6.25589 78.0779 4.10156 73.9248L4.09668 73.917C2.01882 69.8242 1 65.0075 1 59.5C1 57.2548 1.18529 54.8781 1.55371 52.3721L1.55664 52.3574L1.55859 52.3438C2.01828 49.7496 2.66087 47.0226 3.48438 44.1641L3.49023 44.1445C4.40437 41.1967 5.50012 38.1147 6.77637 34.8994L7.14355 33.9736L8.07031 34.3369L17.8525 38.1699L18.7529 38.5234L18.4297 39.4355C17.5303 41.9733 16.7209 44.3736 16.002 46.6367C15.3811 48.8723 14.8938 50.9684 14.5391 52.9258L14.4453 53.6592C14.2416 55.3604 14.1396 56.988 14.1396 58.542C14.1397 61.9538 14.8313 64.879 16.1787 67.3496C17.543 69.6944 19.3977 71.6656 21.7578 73.2646L22.2373 73.5801L22.2471 73.5859L22.2568 73.5928C24.8657 75.3454 27.9266 76.6721 31.4531 77.5605C34.9874 78.4509 38.7995 78.8984 42.8926 78.8984C49.342 78.8984 54.9474 78.1761 59.7236 76.75L59.7324 76.748L59.7402 76.7451C64.5567 75.3969 68.5281 73.6556 71.6787 71.5391C74.8677 69.3966 77.1541 67.2043 78.5977 64.9795L78.6055 64.9688L78.6123 64.958C80.1889 62.6631 80.8827 60.7637 80.8828 59.2266C80.8828 58.4206 80.4172 57.5485 79.0264 56.6416C77.5681 55.6907 75.6478 54.762 73.2451 53.8652C70.801 52.953 68.2209 51.9948 65.5049 50.9912L65.4775 50.9814C62.7138 49.8674 60.0858 48.5667 57.5947 47.0791C55.0544 45.5621 52.9626 43.7461 51.3369 41.626L51.3301 41.6182L51.3242 41.6094C49.6477 39.3236 48.8203 36.6476 48.8203 33.625C48.8203 29.7153 49.7679 25.8672 51.6416 22.0908L51.6465 22.083C53.6005 18.2386 56.2031 14.7286 59.4463 11.5537L59.4561 11.543C62.7945 8.36567 66.5094 5.8385 70.5977 3.96582C74.7073 1.99214 78.9703 1 83.377 1Z" stroke="#44ADC1" stroke-width="2"/>
</svg>
