<svg width="48" height="48" viewBox="0 0 48 48" fill="none" xmlns="http://www.w3.org/2000/svg">
<path d="M34.1256 30.6776C33.1153 30.6776 32.2935 29.8482 32.2935 28.8294C32.2935 27.8106 33.1153 26.9818 34.1256 26.9818C35.136 26.9818 35.9578 27.8104 35.9578 28.8294C35.9578 29.8484 35.136 30.6776 34.1256 30.6776ZM13.8744 30.6776C12.8642 30.6776 12.0424 29.8482 12.0424 28.8294C12.0424 27.8106 12.864 26.9818 13.8744 26.9818C14.8847 26.9818 15.7065 27.8104 15.7065 28.8294C15.7065 29.8484 14.8849 30.6776 13.8744 30.6776ZM34.7827 19.5476L38.4444 13.152C38.5452 12.9755 38.5725 12.7659 38.5202 12.5691C38.4679 12.3724 38.3404 12.2046 38.1656 12.1026C37.9906 12.001 37.7827 11.9735 37.5876 12.0262C37.3926 12.0789 37.2262 12.2075 37.125 12.3838L33.4175 18.8602C30.582 17.5555 27.3978 16.8285 24 16.8285C20.6022 16.8285 17.418 17.5555 14.5827 18.8602L10.875 12.3838C10.7738 12.2075 10.6074 12.0789 10.4124 12.0262C10.2173 11.9735 10.0094 12.001 9.83441 12.1026C9.6595 12.2045 9.53188 12.3723 9.4796 12.5691C9.42731 12.7658 9.45463 12.9755 9.55556 13.152L13.2173 19.5476C6.92956 22.9963 2.62913 29.4158 2 37H46C45.3704 29.416 41.0699 22.9963 34.7827 19.5474" fill="#3DDB85"/>
</svg>
