<svg width="48" height="48" viewBox="0 0 48 48" fill="none" xmlns="http://www.w3.org/2000/svg">
<path d="M36 1C38.2091 1 40 2.79086 40 5V43C40 45.2091 38.2091 47 36 47H13C10.7909 47 9 45.2091 9 43V5C9 2.79086 10.7909 1 13 1H36ZM20.252 23.8428C19.2091 23.8428 18.3643 24.7565 18.3643 25.8838V34.0449C18.3644 35.1721 19.2092 36.085 20.252 36.085H20.7246V38.124C20.7248 38.9655 21.3621 39.6543 22.1406 39.6543C22.919 39.6541 23.5555 38.9654 23.5557 38.124V36.085H25.4453V38.124C25.4455 38.9655 26.0828 39.6543 26.8613 39.6543C27.6396 39.654 28.2762 38.9654 28.2764 38.124V36.085H28.7451C29.7879 36.085 30.6327 35.1721 30.6328 34.0449V25.8838C30.6328 24.7565 29.788 23.8428 28.7451 23.8428H20.252ZM16.0059 25.3721C15.2273 25.3721 14.5898 26.0607 14.5898 26.9023V30.9834C14.5902 31.8247 15.2275 32.5137 16.0059 32.5137C16.784 32.5134 17.4205 31.8246 17.4209 30.9834V26.9023C17.4209 26.0608 16.7843 25.3723 16.0059 25.3721ZM32.9941 25.3721C32.2156 25.3721 31.5781 26.0607 31.5781 26.9023V30.9834C31.5785 31.8247 32.2158 32.5137 32.9941 32.5137C33.7723 32.5135 34.4088 31.8246 34.4092 30.9834V26.9023C34.4092 26.0608 33.7726 25.3723 32.9941 25.3721ZM29.0098 15.2578C28.7927 15.0998 28.4999 15.1668 28.3584 15.4014L27.3213 17.082C26.742 16.8332 26.1062 16.7012 25.4424 16.7012H23.5547C22.8895 16.7012 22.2522 16.8341 21.6719 17.084C21.6693 17.085 21.6666 17.0859 21.6641 17.0869L20.6455 15.4014C20.5039 15.1668 20.2112 15.1007 19.9941 15.2588C19.7773 15.4119 19.7161 15.7284 19.8623 15.9629L20.8164 17.5469C19.343 18.5373 18.3643 20.3005 18.3643 22.3125C18.3645 22.5927 18.5767 22.8221 18.8359 22.8223H30.1611C30.4205 22.8223 30.6326 22.5928 30.6328 22.3125C30.6328 20.2978 29.6516 18.5326 28.1748 17.543C28.1736 17.5421 28.1721 17.5409 28.1709 17.54L29.1416 15.9619C29.2878 15.7273 29.2267 15.4109 29.0098 15.2578ZM23.083 19.252C23.3425 19.252 23.5546 19.4812 23.5547 19.7617C23.5545 20.0421 23.3424 20.2715 23.083 20.2715H22.6113C22.3519 20.2715 22.1398 20.0421 22.1396 19.7617C22.1397 19.4812 22.3518 19.252 22.6113 19.252H23.083ZM26.3857 19.252C26.6452 19.252 26.8583 19.4812 26.8584 19.7617C26.8582 20.0421 26.6452 20.2715 26.3857 20.2715H25.9141C25.6548 20.2713 25.4425 20.042 25.4424 19.7617C25.4425 19.4813 25.6547 19.2521 25.9141 19.252H26.3857ZM20.0605 5.38086C19.4557 5.38086 18.9648 5.87168 18.9648 6.47656C18.965 7.08134 19.4557 7.57129 20.0605 7.57129H28.9414C29.546 7.57109 30.036 7.08121 30.0361 6.47656C30.0361 5.8718 29.5461 5.38106 28.9414 5.38086H20.0605Z" fill="#44ADC1"/>
</svg>
