<svg width="48" height="48" viewBox="0 0 48 48" fill="none" xmlns="http://www.w3.org/2000/svg">
<path d="M19.1307 8.31348H9.49863C7.57906 8.31348 6.00228 9.87031 6.00228 11.7994C5.93372 13.6609 7.44195 15.2177 9.32724 15.2854H19.2336L19.1307 8.31348Z" fill="#073042"/>
<path d="M40.9657 39.3159H9.49858C7.54474 39.3159 6.00223 37.759 6.00223 35.8299V11.7666C6.00223 13.6957 7.57901 15.2526 9.49858 15.2864H35.8583C35.8583 15.2864 41 14.8464 41 18.6708V39.3159H40.9657Z" fill="#4285F4"/>
<path d="M26.2947 26.9955C27.7001 25.9463 27.9744 23.9834 26.9117 22.6296C26.329 21.885 25.4378 21.4112 24.478 21.3773H24.5808C24.7522 21.3435 24.9579 21.3435 25.1293 21.3773V19.4482C25.1293 19.2113 25.0265 19.0082 24.8208 18.9067C24.5123 18.7375 24.1352 18.839 23.9638 19.1436C23.8953 19.2452 23.861 19.3467 23.8953 19.4821V21.445C22.1814 21.7158 20.9817 23.3065 21.2559 25.0325V25.0664C21.393 25.8786 21.8386 26.6232 22.5242 27.097L16.7312 39.3487H20.5018L23.1755 33.7305C23.484 33.0536 24.3066 32.749 25.0265 33.0875C25.3007 33.2229 25.5406 33.4598 25.6777 33.7305L28.4543 39.3487H32.2934L26.2947 26.9955ZM24.3409 26.454C23.244 26.454 22.3871 25.574 22.3871 24.491C22.3871 23.408 23.2783 22.5619 24.3752 22.5957C24.8894 22.5957 25.335 22.7988 25.712 23.1373C26.5004 23.8818 26.5004 25.1002 25.7463 25.8786C25.4035 26.2171 24.8894 26.454 24.3409 26.454Z" fill="#3870B2"/>
<path d="M17.0398 10.0059H30.5453V12.4426H17.0398V10.0059Z" fill="white"/>
<path d="M23.3126 22.5616C24.3752 22.5616 25.2664 23.4415 25.2322 24.5245C25.2322 25.5737 24.3409 26.4537 23.244 26.4198C22.1814 26.4198 21.3245 25.5399 21.3245 24.4907C21.3245 23.983 21.5301 23.5092 21.9072 23.1369C22.2843 22.7646 22.7984 22.5616 23.3126 22.5616ZM24.0667 21.4447V19.414C24.0667 19.1771 23.9639 18.9741 23.7582 18.8725C23.4497 18.7033 23.0726 18.8048 22.9013 19.1094C22.8327 19.211 22.7984 19.3125 22.8327 19.4479V21.4109C21.1188 21.6816 19.9191 23.2723 20.1933 24.9984V25.0322C20.3304 25.8445 20.776 26.589 21.4616 27.0629L14.1604 42.5297C13.8862 43.0712 13.9204 43.7481 14.2975 44.2558C14.8459 45.0342 15.9086 45.2372 16.6969 44.6957C16.9712 44.5265 17.1768 44.2558 17.314 43.985L22.1814 33.6963C22.4899 33.0195 23.3126 32.7149 24.0324 33.0533C24.3067 33.1887 24.5466 33.4256 24.6837 33.6963L29.654 43.8835C30.0653 44.7296 31.0937 45.068 31.9506 44.6619C32.8076 44.2558 33.1504 43.2404 32.739 42.3943L25.2322 26.9952C26.6033 25.9122 26.8432 23.9153 25.7463 22.5616C25.335 22.0201 24.7523 21.6478 24.0667 21.4447Z" fill="#073042"/>
<path d="M28.5572 12.1718C28.043 12.1718 27.6317 11.7995 27.6317 11.2919C27.6317 11.0549 27.7345 10.7842 27.9059 10.615C28.2829 10.2765 28.8314 10.2765 29.2084 10.615C29.3798 10.7842 29.4827 11.0211 29.4827 11.258C29.4484 11.7657 29.0713 12.138 28.5572 12.1718ZM18.4109 12.138C17.8967 12.138 17.4854 11.7318 17.4854 11.258C17.4854 11.0211 17.5882 10.7842 17.7596 10.615C18.0681 10.2427 18.6508 10.175 19.0279 10.4796H19.0622C19.4392 10.818 19.4735 11.3934 19.1307 11.7657L19.0279 11.9011C18.8565 12.0703 18.6166 12.1718 18.3766 12.1718M28.8314 6.68903L30.6481 3.57535C30.7509 3.40613 30.6824 3.20307 30.5453 3.06769C30.3739 3 30.2025 3.03384 30.0997 3.16922L28.2144 6.38443C25.1979 5.0645 21.7701 5.0645 18.7879 6.38443L16.9369 3.20307C16.8684 3.10153 16.7313 3 16.5942 3C16.457 3 16.3199 3.06769 16.2514 3.20307C16.1828 3.3046 16.1828 3.47382 16.2514 3.57535L18.1024 6.68903C14.8803 8.41509 12.7893 11.6641 12.4808 15.2516H34.4872C34.213 11.6303 32.0878 8.41509 28.8657 6.68903" fill="#3DDC84"/>
<path d="M37.7436 21.9864H36.3039C36.2353 22.0202 36.1668 22.0879 36.1668 22.1895V44.6959C36.1668 44.7974 36.2353 44.8651 36.3382 44.8651H37.8464C39.5946 44.8651 41 43.4437 41 41.7515V18.8389C41 20.5649 39.5946 21.9525 37.8464 21.9525H37.7436V21.9864Z" fill="#073042"/>
</svg>
