<svg width="48" height="48" viewBox="0 0 48 48" fill="none" xmlns="http://www.w3.org/2000/svg">
<path d="M15.6164 15.6173L13.0958 13.0967L13.1064 31.3168L13.1366 32.1684C13.1491 32.5691 13.2234 33.0212 13.3474 33.4898L33.3201 40.5326L38.3127 38.3206L38.3145 38.3145L15.6164 15.6173Z" fill="#00D2B8"/>
<path d="M13.3475 33.4905L13.3487 33.4917C13.3475 33.4835 13.3432 33.4744 13.3432 33.4658C13.3432 33.4744 13.3444 33.4823 13.3475 33.4905ZM38.3127 38.3213L33.3201 40.5333L13.3487 33.4917C13.7301 34.9554 14.5747 36.6007 15.4836 37.5005L22.0014 43.9811L36.4937 44L38.3145 38.3152L38.3127 38.3213Z" fill="#55DDCA"/>
<path d="M5.33325 24.8219C4.68792 25.5107 5.00845 26.9318 6.04743 27.9787L10.529 32.4975L13.3474 33.4898C13.2234 33.0212 13.149 32.5691 13.1365 32.1684L13.1064 31.3168L13.0957 13.0967L5.33325 24.8219Z" fill="#0081C6"/>
<path d="M33.484 13.3304C33.0154 13.2107 32.566 13.1366 32.1587 13.1239L31.2586 13.0928L13.0958 13.0952L38.3169 38.3143H38.3191L40.5341 33.3168L33.484 13.3304Z" fill="#0079B3"/>
<path d="M33.4612 13.3262C33.471 13.3283 33.4786 13.331 33.485 13.332L33.4841 13.331C33.4786 13.3283 33.471 13.3283 33.4612 13.3262ZM37.4904 15.4708C36.5751 14.548 34.9514 13.7092 33.485 13.332L40.5342 33.3174L38.3191 38.3149H38.317L43.73 36.5861L43.7416 21.7455L37.4904 15.4708Z" fill="#00A4E4"/>
<path d="M32.4966 10.5296L27.979 6.04523C26.9342 5.01022 25.5126 4.68817 24.8255 5.33166L13.0958 13.0956L31.2586 13.0932L32.1587 13.1243C32.566 13.1371 33.0154 13.2111 33.484 13.3308L32.4966 10.5296Z" fill="#00D2B8"/>
</svg>
