<svg width="48" height="48" viewBox="0 0 48 48" fill="none" xmlns="http://www.w3.org/2000/svg">
<path d="M9 36.2856L9.23333 35.947L20.2412 14.2123L20.2645 13.9823L15.4125 4.49637C15.3237 4.32291 15.1847 4.1829 15.0153 4.09617C14.8458 4.00943 14.6544 3.98036 14.4682 4.01306C14.282 4.04576 14.1103 4.13858 13.9776 4.27838C13.8448 4.41818 13.7577 4.5979 13.7284 4.79209L9 36.2856Z" fill="#FFC24A"/>
<path d="M9.13718 36.0291L9.31286 35.6719L20.2068 14.1629L15.3672 4.63985C15.2874 4.47424 15.1582 4.34 14.9989 4.25724C14.8396 4.17449 14.6589 4.14768 14.4837 4.18082C14.3086 4.21396 14.1485 4.30528 14.0274 4.44109C13.9063 4.5769 13.8308 4.74989 13.8121 4.93414L9.13718 36.0291Z" fill="#FFA712"/>
<path d="M23.8015 21.1573L27.414 17.3L23.8001 10.127C23.7206 9.97266 23.6023 9.84362 23.4579 9.75367C23.3135 9.66372 23.1483 9.61621 22.98 9.61621C22.8117 9.61621 22.6466 9.66372 22.5021 9.75367C22.3577 9.84362 22.2394 9.97266 22.1599 10.127L20.2287 13.9585V14.2857L23.8015 21.1573Z" fill="#F4BD62"/>
<path d="M23.737 20.9987L27.2493 17.2558L23.737 10.2842C23.6795 10.1333 23.5813 10.0029 23.4542 9.90882C23.3272 9.81469 23.1766 9.76083 23.0208 9.75373C22.865 9.74664 22.7105 9.7866 22.5761 9.86882C22.4416 9.95103 22.3328 10.072 22.2629 10.2171L20.3221 14.1157L20.2644 14.3143L23.737 20.9987Z" fill="#FFA50E"/>
<path d="M9.00278 36.287L9.10846 36.1756L9.4914 36.0141L23.5738 21.411L23.7522 20.9052L20.2398 13.9365L9.00278 36.287Z" fill="#F6820C"/>
<path d="M24.2518 43.6525L37 36.2538L33.3573 12.9233C33.3311 12.7589 33.262 12.6051 33.1574 12.4788C33.0528 12.3526 32.9168 12.2588 32.7644 12.2077C32.6119 12.1566 32.4489 12.1503 32.2932 12.1893C32.1375 12.2283 31.9951 12.3113 31.8818 12.429L9 36.2867L21.6727 43.6511C22.0667 43.8799 22.5104 44.0001 22.9616 44.0001C23.4127 44.0001 23.8564 43.8799 24.2504 43.6511" fill="#FDE068"/>
<path d="M36.8833 36.1914L33.2707 13.0366C33.2643 12.8793 33.2133 12.7275 33.124 12.6004C33.0347 12.4733 32.9111 12.3767 32.769 12.3227C32.6269 12.2687 32.4726 12.2598 32.3257 12.2971C32.1787 12.3344 32.0457 12.4163 31.9435 12.5323L9.13718 36.2414L21.6699 43.5272C22.0608 43.7542 22.5009 43.8733 22.9485 43.8733C23.396 43.8733 23.8361 43.7542 24.227 43.5272L36.8833 36.1914Z" fill="#FCCA3F"/>
<path d="M24.2518 43.4286C23.8578 43.6574 23.4141 43.7776 22.9629 43.7776C22.5118 43.7776 22.0681 43.6574 21.6741 43.4286L9.10431 36.1742L9 36.2856L21.6727 43.65C22.0667 43.8789 22.5104 43.999 22.9616 43.999C23.4127 43.999 23.8564 43.8789 24.2504 43.65L37 36.2527L36.9684 36.0527L24.2518 43.4286Z" fill="#EEAB37"/>
</svg>
