<svg width="48" height="48" viewBox="0 0 48 48" fill="none" xmlns="http://www.w3.org/2000/svg">
<path d="M33.1625 40.5958C31.2888 42.4427 29.2429 42.1511 27.2735 41.2762C25.1894 40.3819 23.2773 40.343 21.0785 41.2762C18.3251 42.4816 16.872 42.1317 15.2277 40.5958C5.89691 30.8164 7.27358 15.9239 17.8663 15.3795C20.4475 15.5156 22.2448 16.8182 23.7553 16.9349C26.0115 16.4682 28.1721 15.1268 30.5813 15.3017C33.4685 15.535 35.6482 16.7016 37.0822 18.8013C31.1167 22.4369 32.5316 30.4276 38 32.6634C36.9101 35.5797 35.4952 38.4766 33.1434 40.6152L33.1625 40.5958ZM23.5641 15.2628C23.2773 10.9273 26.7381 7.34996 30.7151 7C31.2696 12.016 26.241 15.7489 23.5641 15.2628Z" fill="white"/>
</svg>
