<svg width="48" height="48" viewBox="0 0 48 48" fill="none" xmlns="http://www.w3.org/2000/svg">
<path d="M36 1C38.2091 1 40 2.79086 40 5V43C40 45.2091 38.2091 47 36 47H13C10.7909 47 9 45.2091 9 43V5C9 2.79086 10.7909 1 13 1H36ZM28.6514 19.7441C27.2391 19.6442 25.972 20.4101 24.6494 20.6768C23.764 20.61 22.7102 19.8658 21.1973 19.7881C14.988 20.0993 14.181 28.6091 19.6504 34.1973C20.6143 35.0749 21.4662 35.2747 23.0801 34.5859C24.369 34.0527 25.4903 34.075 26.7119 34.5859C27.8664 35.0859 29.0656 35.2527 30.1641 34.1973L30.1533 34.209C31.5319 32.987 32.3611 31.3314 33 29.665C29.7944 28.3874 28.9649 23.8207 32.4619 21.7432C31.6213 20.5436 30.3436 19.8775 28.6514 19.7441ZM28.7295 15C26.3982 15.2 24.369 17.2442 24.5371 19.7217C26.1063 19.9994 29.0545 17.8663 28.7295 15ZM20.0605 5.38086C19.4557 5.38086 18.9648 5.87168 18.9648 6.47656C18.965 7.08134 19.4557 7.57129 20.0605 7.57129H28.9414C29.546 7.57109 30.036 7.08121 30.0361 6.47656C30.0361 5.8718 29.5461 5.38106 28.9414 5.38086H20.0605Z" fill="#44ADC1"/>
</svg>
