<svg width="48" height="48" viewBox="0 0 48 48" fill="none" xmlns="http://www.w3.org/2000/svg">
<path d="M19.0172 34.3875C19.0172 34.3875 17.5674 35.232 20.0504 35.5169C23.059 35.8609 24.5964 35.8116 27.911 35.1845C27.911 35.1845 28.7842 35.7309 30.0014 36.2046C22.5684 39.392 13.1798 36.0198 19.0172 34.3875ZM18.1084 30.2275C18.1084 30.2275 16.4819 31.4328 18.967 31.6903C22.1809 32.0224 24.7184 32.0495 29.1114 31.2032C29.1114 31.2032 29.7176 31.8197 30.6723 32.1564C21.6873 34.7866 11.6797 32.3634 18.1084 30.2275Z" fill="#0074BD"/>
<path d="M25.7647 23.1691C27.5971 25.2803 25.2841 27.1784 25.2841 27.1784C25.2841 27.1784 29.9342 24.7762 27.7991 21.7666C25.8042 18.9613 24.275 17.568 32.5544 12.7617C32.5544 12.762 19.558 16.0099 25.7647 23.1691Z" fill="#EA2D2E"/>
<path d="M35.5948 37.4651C35.5948 37.4651 36.6681 38.351 34.4123 39.0357C30.1233 40.3362 16.5572 40.7283 12.7895 39.0877C11.4358 38.4978 13.9754 37.6798 14.7744 37.5072C15.6074 37.3266 16.0831 37.3595 16.0831 37.3595C14.5767 36.298 6.34653 39.4448 11.9032 40.3474C27.056 42.806 39.5247 39.2402 35.5948 37.4651ZM19.7152 25.9168C19.7152 25.9168 12.8154 27.5573 17.272 28.1537C19.154 28.4057 22.9041 28.3479 26.3996 28.0544C29.2556 27.8142 32.1215 27.3013 32.1215 27.3013C32.1215 27.3013 31.1154 27.7333 30.3867 28.2307C23.3786 30.0758 9.84357 29.2164 13.7406 27.3302C17.0351 25.7353 19.7152 25.9168 19.7152 25.9168ZM32.0929 32.8415C39.2163 29.1376 35.9224 25.5779 33.6234 26.0574C33.0613 26.1746 32.8092 26.2766 32.8092 26.2766C32.8092 26.2766 33.0184 25.9481 33.4175 25.8069C37.9653 24.2071 41.4624 30.5264 31.9506 33.0294C31.9506 33.0287 32.0598 32.9298 32.0929 32.8415Z" fill="#0074BD"/>
<path d="M27.7991 5C27.7991 5 31.7432 8.95022 24.0572 15.0226C17.8934 19.8952 22.6518 22.6728 24.0551 25.8477C20.4568 22.5985 17.8174 19.7379 19.5878 17.0756C22.1876 13.1687 29.3901 11.2736 27.7991 5Z" fill="#EA2D2E"/>
<path d="M20.4153 42.8808C27.2513 43.3183 37.7515 42.6373 38 39.3994C38 39.3994 37.5222 40.6269 32.3499 41.6007C26.5146 42.7003 19.3161 42.5721 15.0481 41.8668C15.0481 41.8671 15.9225 42.5916 20.4153 42.8808Z" fill="#0074BD"/>
</svg>
