<svg width="48" height="48" viewBox="0 0 48 48" fill="none" xmlns="http://www.w3.org/2000/svg">
<path d="M8.70215 16C10.6074 16.0001 12.0548 16.5452 13.0439 17.6357C13.2323 17.8422 13.4001 18.0613 13.5469 18.293L11.6201 24.2051L10.9307 26.3203C10.3001 26.4998 9.58087 26.5898 8.77344 26.5898H6.1084V32.125H2V16H8.70215ZM27.5459 26.4199L32.0107 16H36.3379L29.8105 32.125H25.541L22.6035 22.7803L19.5225 32.125H15.2637L13.0547 28.3486L15.2305 21.6719L17.6348 26.4199L21.0439 16H24.3701L27.5459 26.4199ZM45.001 32.125H40.5039L39.4619 29.2373H33.6475L34.8896 26.1084H38.4766L36.7744 21.3623L38.9033 16L45.001 32.125ZM6.1084 19.1289V23.4609H7.64844C8.6477 23.4609 9.33355 23.2475 9.70605 22.8213C10.0458 22.4377 10.2158 21.9189 10.2158 21.2646C10.2158 20.6155 10.0229 20.0972 9.63672 19.71C9.25041 19.3227 8.59125 19.129 7.66016 19.1289H6.1084Z" fill="#44ADC1"/>
</svg>
