<svg width="48" height="48" viewBox="0 0 48 48" fill="none" xmlns="http://www.w3.org/2000/svg">
<path fill-rule="evenodd" clip-rule="evenodd" d="M32.5478 19.5663C34.359 20.8406 36.0696 22.2521 37.6646 23.7884C38.8587 22.5839 39.9131 21.2486 40.808 19.8078C42.1396 17.5824 42.5427 15.6167 41.7528 14.25C40.7246 12.4692 37.84 11.933 34.0084 12.5057C33.1925 12.6278 32.3365 12.8004 31.4477 13.0223C31.9813 15.1723 32.3491 17.36 32.5478 19.5663ZM25.1906 15.1957C26.9066 14.4388 28.6722 13.7995 30.4751 13.2824C30.9278 15.1024 31.2561 16.951 31.4577 18.8156C30.4792 18.1584 29.4549 17.5206 28.385 16.9022C27.3167 16.2854 26.2489 15.7178 25.1906 15.198V15.1957ZM17.7819 12.3102C19.9103 12.9231 21.9884 13.6986 23.998 14.6299C26.0072 13.6986 28.085 12.9231 30.2131 12.3102C29.9612 11.4283 29.6819 10.5992 29.3794 9.83111C27.9613 6.22812 26.0543 4 23.998 4C22.4172 4 20.9175 5.33068 19.6588 7.59524C18.8579 9.09137 18.2283 10.673 17.7819 12.3102ZM23.998 34.3701C21.9887 35.3014 19.9109 36.0769 17.7828 36.6898C18.0347 37.5717 18.314 38.4008 18.6165 39.1689C20.0356 42.7719 21.9421 45 23.998 45C25.5792 45 27.0784 43.6693 28.3371 41.4048C29.138 39.9086 29.7676 38.327 30.214 36.6898C28.0857 36.0769 26.0075 35.3014 23.998 34.3701ZM16.5383 30.1858C17.5168 30.8427 18.541 31.4805 19.611 32.0991C20.6793 32.7159 21.7471 33.2836 22.8058 33.8034C21.0897 34.5602 19.3241 35.1994 17.5213 35.7167C17.0683 33.8968 16.7399 32.0481 16.5383 30.1835V30.1858ZM10.3336 25.212C9.13933 26.4171 8.08488 27.753 7.19025 29.1945C5.85638 31.4176 5.45322 33.3833 6.24315 34.75C7.27134 36.5308 10.1555 37.067 13.9876 36.4943C14.804 36.3722 15.6599 36.1996 16.5487 35.9777C16.0149 33.8278 15.647 31.64 15.4481 29.4337C13.6379 28.1591 11.9281 26.7478 10.3336 25.212ZM17.2061 18.5637C16.9105 18.2678 16.5214 18.0837 16.1052 18.0427C15.689 18.0016 15.2715 18.1062 14.9238 18.3385C14.576 18.5709 14.3197 18.9166 14.1983 19.3169C14.077 19.7171 14.0983 20.147 14.2584 20.5333C14.4186 20.9196 14.7078 21.2384 15.0768 21.4354C15.4457 21.6323 15.8715 21.6952 16.2816 21.6133C16.6917 21.5315 17.0608 21.3099 17.3258 20.9864C17.5908 20.6628 17.7354 20.2574 17.735 19.8392C17.7351 19.6023 17.6884 19.3676 17.5976 19.1487C17.5069 18.9299 17.3738 18.731 17.2061 18.5637ZM14.0113 21.9033C14.3619 22.2303 14.7904 22.4621 15.2559 22.5766C15.2477 22.8163 15.2408 23.0614 15.2354 23.3119C15.2253 23.7626 15.2203 24.1592 15.2203 24.5018C15.2203 25.735 15.2622 26.9436 15.342 28.1198C13.8287 27.0123 12.3926 25.8029 11.0438 24.5C11.9371 23.6313 12.9303 22.7598 14.0113 21.9033ZM15.7524 17.0321C15.289 17.0612 14.8399 17.2044 14.4452 17.449C14.0505 17.6936 13.7224 18.032 13.4901 18.4341C13.2579 18.8362 13.1286 19.2895 13.1139 19.7536C13.0992 20.2177 13.1995 20.6783 13.4059 21.0943C12.3363 21.9398 11.3101 22.8388 10.3313 23.788C9.69353 23.1289 9.11649 22.476 8.60019 21.8291C6.19258 18.7951 5.21496 16.0289 6.24315 14.25C7.27134 12.4711 10.155 11.9344 13.9876 12.5075C14.8035 12.6296 15.6599 12.8022 16.5487 13.0241C16.2166 14.3462 15.9513 15.6842 15.7538 17.033L15.7524 17.0321ZM17.9596 17.8944L17.919 17.853C17.5939 17.5273 17.1937 17.2864 16.7537 17.1514C16.9569 15.7848 17.2148 14.4905 17.5204 13.2829C19.3233 13.8001 21.0888 14.4393 22.8049 15.1962C21.7466 15.7155 20.6788 16.2841 19.611 16.9004C19.2672 17.099 18.9255 17.3013 18.586 17.5072C18.3734 17.6363 18.1646 17.7649 17.9596 17.8931V17.8944ZM33.3446 27.8816C33.0491 27.586 32.6602 27.4021 32.2443 27.3611C31.8283 27.3201 31.411 27.4247 31.0635 27.6569C30.716 27.8892 30.4598 28.2348 30.3386 28.6348C30.2174 29.0348 30.2386 29.4644 30.3987 29.8505C30.5588 30.2366 30.8478 30.5552 31.2165 30.7521C31.5852 30.9489 32.0108 31.0118 32.4207 30.93C32.8306 30.8482 33.1994 30.6268 33.4643 30.3035C33.7293 29.9803 33.8739 29.5751 33.8735 29.1571C33.8736 28.9202 33.827 28.6855 33.7362 28.4666C33.6454 28.2478 33.5124 28.0489 33.3446 27.8816ZM30.0364 31.1056L30.0769 31.147C30.4022 31.4725 30.8023 31.7134 31.2422 31.8486C31.039 33.2152 30.7812 34.509 30.4755 35.7171C28.6726 35.2001 26.9071 34.5608 25.1911 33.8038C26.2498 33.2849 27.3172 32.7164 28.385 32.1C28.7288 31.9014 29.0704 31.6991 29.41 31.4932C29.6226 31.3642 29.8314 31.2355 30.0364 31.1074V31.1056ZM31.7365 26.3632C31.3016 26.4149 30.8847 26.5674 30.519 26.8084C30.1533 27.0495 29.8489 27.3725 29.6299 27.7518C29.411 28.1312 29.2835 28.5564 29.2577 28.9936C29.2318 29.4308 29.3083 29.868 29.481 30.2705C29.2842 30.3941 29.0868 30.5156 28.8888 30.635C28.5614 30.8339 28.2274 31.0313 27.8866 31.2272L27.8816 31.2299C26.5796 31.9816 25.2785 32.6604 23.9961 33.2626C22.7133 32.6599 21.4122 31.9811 20.1094 31.2295C18.8065 30.4778 17.5746 29.6933 16.4107 28.8829C16.2913 27.4707 16.2285 26.0042 16.2285 24.5C16.2285 24.0499 16.2321 23.6598 16.2394 23.3297C16.2446 23.1019 16.2513 22.8708 16.2595 22.6363C16.6944 22.5847 17.1112 22.4323 17.4769 22.1913C17.8426 21.9503 18.147 21.6273 18.366 21.248C18.585 20.8687 18.7125 20.4435 18.7383 20.0063C18.7642 19.5691 18.6877 19.1319 18.5149 18.7295C18.7117 18.6059 18.9091 18.4844 19.1071 18.365C19.4345 18.1661 19.7686 17.9687 20.1094 17.7728L20.1144 17.7701C21.4163 17.018 22.7174 16.3396 23.9998 15.7369C25.2826 16.3401 26.5837 17.0184 27.8861 17.7705C29.1886 18.5227 30.4213 19.3067 31.5853 20.1166C31.7046 21.5289 31.7675 22.9958 31.7675 24.5C31.7675 24.9501 31.7638 25.3402 31.7565 25.6703C31.7514 25.8981 31.7447 26.1291 31.7365 26.3632ZM33.9847 27.0967C33.6339 26.7696 33.2053 26.5378 32.7396 26.4234C32.7484 26.1837 32.7554 25.9386 32.7606 25.6881C32.7706 25.2374 32.7756 24.8408 32.7756 24.4982C32.7756 23.265 32.7337 22.0559 32.654 20.8797C34.1673 21.9874 35.6033 23.197 36.9522 24.5C36.0588 25.3687 35.0657 26.2398 33.9847 27.0967ZM32.2435 31.9679C32.707 31.939 33.1562 31.7959 33.5509 31.5513C33.9457 31.3067 34.2739 30.9682 34.5061 30.5661C34.7384 30.1639 34.8675 29.7106 34.8821 29.2464C34.8967 28.7822 34.7962 28.3217 34.5896 27.9057C35.6594 27.0602 36.6857 26.1612 37.6646 25.212C38.3024 25.8711 38.8795 26.524 39.3958 27.1709C41.8075 30.2031 42.7851 32.9688 41.7569 34.75C40.7287 36.5312 37.845 37.0651 34.0125 36.4925C33.1966 36.3704 32.3401 36.1978 31.4513 35.9759C31.7825 34.6541 32.0469 33.3164 32.2435 31.9679Z" fill="#44ADC1"/>
</svg>
