<svg width="48" height="48" viewBox="0 0 48 48" fill="none" xmlns="http://www.w3.org/2000/svg">
<path d="M44.7 24.5042C44.7 21.7519 41.3235 19.1435 36.1468 17.526C37.3415 12.1398 36.8105 7.85466 34.4711 6.48272C33.9318 6.16091 33.3013 6.00847 32.6128 6.00847V7.897C32.9944 7.897 33.3013 7.97322 33.5585 8.11719C34.6867 8.77775 35.1762 11.293 34.7946 14.528C34.7033 15.3241 34.554 16.1625 34.3715 17.0179C32.7455 16.6114 30.9702 16.298 29.1036 16.0948C27.9836 14.528 26.8222 13.1053 25.6524 11.8604C28.3569 9.29435 30.8955 7.88853 32.6211 7.88853V6C30.3397 6 27.3531 7.65988 24.3334 10.5393C21.3137 7.67681 18.3271 6.03388 16.0457 6.03388V7.92241C17.763 7.92241 20.3098 9.31975 23.0143 11.8688C21.8529 13.1138 20.6915 14.528 19.5881 16.0948C17.7132 16.298 15.9379 16.6114 14.3119 17.0263C14.1211 16.1794 13.98 15.358 13.8805 14.5704C13.4906 11.3353 13.9717 8.8201 15.0917 8.15106C15.3406 7.99863 15.6641 7.93088 16.0457 7.93088V6.04234C15.3489 6.04234 14.7184 6.19478 14.1708 6.51659C11.8397 7.88853 11.317 12.1653 12.5199 17.5344C7.35984 19.1604 3.99998 21.7604 3.99998 24.5042C3.99998 27.2566 7.37643 29.865 12.5531 31.4825C11.3585 36.8686 11.8894 41.1538 14.2289 42.5257C14.7681 42.8476 15.3986 43 16.0955 43C18.3769 43 21.3634 41.3401 24.3832 38.4607C27.4029 41.3232 30.3894 42.9661 32.6708 42.9661C33.3677 42.9661 33.9982 42.8137 34.5457 42.4919C36.8769 41.1199 37.3995 36.8432 36.1966 31.474C41.3401 29.8565 44.7 27.2481 44.7 24.5042ZM33.8986 18.8556C33.5917 19.948 33.2101 21.0744 32.7787 22.2007C32.4385 21.5232 32.0818 20.8457 31.6919 20.1682C31.3103 19.4907 30.9038 18.8302 30.4973 18.1865C31.6753 18.3644 32.8119 18.5846 33.8986 18.8556ZM30.0991 27.8748C29.452 29.0181 28.7883 30.1021 28.0998 31.1099C26.8637 31.22 25.611 31.2792 24.35 31.2792C23.0973 31.2792 21.8446 31.22 20.6168 31.1183C19.9282 30.1106 19.2563 29.035 18.6092 27.9002C17.9787 26.7908 17.4063 25.6645 16.8836 24.5296C17.398 23.3948 17.9787 22.26 18.6009 21.1506C19.248 20.0073 19.9116 18.9233 20.6002 17.9155C21.8363 17.8054 23.089 17.7462 24.35 17.7462C25.6027 17.7462 26.8554 17.8054 28.0832 17.9071C28.7717 18.9149 29.4437 19.9904 30.0908 21.1252C30.7213 22.2346 31.2937 23.361 31.8163 24.4958C31.2937 25.6306 30.7213 26.7654 30.0991 27.8748ZM32.7787 26.7739C33.2267 27.9087 33.6083 29.0435 33.9235 30.1444C32.8368 30.4154 31.6919 30.6441 30.5056 30.8219C30.9121 30.1698 31.3186 29.5008 31.7002 28.8148C32.0818 28.1373 32.4385 27.4514 32.7787 26.7739ZM24.3666 35.81C23.595 34.997 22.8235 34.0909 22.0603 33.1C22.8069 33.1339 23.5702 33.1593 24.3417 33.1593C25.1215 33.1593 25.893 33.1424 26.648 33.1C25.9013 34.0909 25.1298 34.997 24.3666 35.81ZM18.1944 30.8219C17.0163 30.6441 15.8798 30.4239 14.793 30.1529C15.1 29.0604 15.4816 27.9341 15.913 26.8077C16.2531 27.4852 16.6098 28.1627 16.9998 28.8402C17.3897 29.5177 17.7879 30.1783 18.1944 30.8219ZM24.3251 13.1984C25.0966 14.0114 25.8681 14.9176 26.6314 15.9084C25.8847 15.8746 25.1215 15.8492 24.35 15.8492C23.5702 15.8492 22.7986 15.8661 22.0437 15.9084C22.7903 14.9176 23.5619 14.0114 24.3251 13.1984ZM18.1861 18.1865C17.7796 18.8386 17.3731 19.5077 16.9915 20.1936C16.6098 20.8711 16.2531 21.5486 15.913 22.2261C15.465 21.0913 15.0834 19.9565 14.7681 18.8556C15.8549 18.593 16.9998 18.3644 18.1861 18.1865ZM10.6782 28.7894C7.74146 27.5106 5.84168 25.8338 5.84168 24.5042C5.84168 23.1746 7.74146 21.4894 10.6782 20.219C11.3917 19.9057 12.1715 19.6262 12.9762 19.3637C13.4491 21.0236 14.0713 22.7512 14.8428 24.5212C14.0796 26.2827 13.4657 28.0018 13.0011 29.6532C12.1798 29.3907 11.4 29.1028 10.6782 28.7894ZM15.1415 40.8913C14.0132 40.2307 13.5237 37.7155 13.9054 34.4804C13.9966 33.6844 14.1459 32.846 14.3285 31.9906C15.9545 32.3971 17.7298 32.7105 19.5964 32.9137C20.7163 34.4804 21.8778 35.9032 23.0475 37.1481C20.343 39.7141 17.8045 41.1199 16.0789 41.1199C15.7056 41.1115 15.3903 41.0352 15.1415 40.8913ZM34.8195 34.4381C35.2094 37.6731 34.7282 40.1884 33.6083 40.8574C33.3594 41.0098 33.0359 41.0776 32.6542 41.0776C30.937 41.0776 28.3901 39.6802 25.6856 37.1312C26.8471 35.8862 28.0085 34.472 29.1119 32.9052C30.9867 32.702 32.7621 32.3886 34.3881 31.9737C34.5789 32.829 34.7282 33.6505 34.8195 34.4381ZM38.0134 28.7894C37.3 29.1028 36.5202 29.3822 35.7154 29.6448C35.2426 27.9849 34.6204 26.2573 33.8489 24.4873C34.6121 22.7258 35.226 21.0066 35.6906 19.3552C36.5119 19.6178 37.2917 19.9057 38.0217 20.219C40.9585 21.4978 42.8583 23.1746 42.8583 24.5042C42.85 25.8338 40.9502 27.5191 38.0134 28.7894Z" fill="#61DAFB"/>
<path d="M24.3416 28.3752C26.4355 28.3752 28.1329 26.6425 28.1329 24.505C28.1329 22.3675 26.4355 20.6348 24.3416 20.6348C22.2478 20.6348 20.5504 22.3675 20.5504 24.505C20.5504 26.6425 22.2478 28.3752 24.3416 28.3752Z" fill="#61DAFB"/>
</svg>
