<svg width="48" height="48" viewBox="0 0 48 48" fill="none" xmlns="http://www.w3.org/2000/svg">
<path d="M34.3364 5.78143H9.07136C7.37597 5.78143 6 7.17077 6 8.8552V36.7405C6 38.4372 7.38825 39.8143 9.07136 39.8143H25.7181C25.5338 31.5274 28.3595 15.4454 34.3425 5.75684L34.3364 5.78143Z" fill="#0F80CC"/>
<path d="M33.415 6.68555H9.07143C8.49358 6.68717 7.93986 6.91762 7.53125 7.32654C7.12265 7.73547 6.89238 8.28962 6.89076 8.86793V34.7184C12.4069 32.5975 20.6812 30.7716 26.4062 30.8577C28.1711 22.6446 30.5092 14.567 33.415 6.68555Z" fill="url(#paint0_linear_616_34469)"/>
<path d="M40.2335 4.87179C38.5012 3.33491 36.4065 3.94966 34.3365 5.78163L33.415 6.67917C29.8768 10.4292 26.6581 17.3882 25.5769 22.7058C25.9621 23.548 26.2665 24.4249 26.4861 25.3247L26.6212 25.9394L26.7563 26.5665C26.7563 26.5665 26.7256 26.4435 26.5966 26.0747L26.5106 25.8288C26.4934 25.7832 26.4749 25.7381 26.4553 25.6935C26.1031 24.9563 25.7198 24.2344 25.3067 23.5296C25.0832 24.1833 24.8722 24.8412 24.674 25.503C25.4848 26.9907 25.9762 29.5358 25.9762 29.5358C25.9762 29.5358 25.9332 29.3698 25.7305 28.798C25.5462 28.2878 24.6494 26.7079 24.4405 26.339C24.072 27.6915 23.9307 28.6013 24.0597 28.8226C24.3054 29.253 24.5511 30.0521 24.7661 30.8144C25.0978 32.1663 25.3684 33.5324 25.5769 34.9087L25.6077 35.2899C25.544 36.8272 25.5747 38.367 25.6998 39.9005C25.8595 41.8247 26.1605 43.4784 26.5413 44.3636L26.7993 44.2222C26.2465 42.4763 26.0131 40.1956 26.1114 37.5583C26.2649 33.5317 27.1863 28.6751 28.9001 23.6157C31.8057 15.9128 35.8107 9.77754 39.484 6.8513C36.1363 9.8759 31.6091 19.6628 30.2577 23.2837C28.7404 27.3411 27.6655 31.1526 27.0143 34.7981C28.1323 31.38 31.7442 29.9046 31.7442 29.9046C31.7442 29.9046 33.5256 27.7161 35.5896 24.587L31.6275 25.6444L30.3498 26.2099C30.3498 26.2099 33.6055 24.2243 36.4127 23.3206C40.2642 17.253 44.4597 8.62794 40.2335 4.86565" fill="#003B57"/>
<defs>
<linearGradient id="paint0_linear_616_34469" x1="22.1923" y1="7.25727" x2="22.1923" y2="33.163" gradientUnits="userSpaceOnUse">
<stop stop-color="#97D9F6"/>
<stop offset="0.92024" stop-color="#0F80CC"/>
<stop offset="1" stop-color="#0F80CC"/>
</linearGradient>
</defs>
</svg>
