<svg width="48" height="48" viewBox="0 0 48 48" fill="none" xmlns="http://www.w3.org/2000/svg">
<path d="M43.9968 13.9378C43.9965 13.054 43.9116 12.1724 43.7433 11.3063C43.5748 10.4197 43.2886 9.56223 42.8928 8.75886C42.4792 7.98073 41.9652 7.266 41.3652 6.63485C40.7464 6.0008 40.0277 5.48348 39.2407 5.1057C38.464 4.69558 37.6333 4.40901 36.776 4.25542C35.9255 4.08402 34.9917 4.08402 34.1412 4H13.1624C12.508 4.01116 11.855 4.06842 11.208 4.1714C10.5658 4.25056 9.93727 4.42248 9.34018 4.68224C9.17009 4.76626 8.91656 4.85364 8.74647 4.93766C8.18156 5.25477 7.64459 5.62365 7.14185 6.03999C6.97176 6.21139 6.80167 6.29541 6.63158 6.46345C6.00612 7.07097 5.48886 7.79019 5.10398 8.58746C4.68367 9.37954 4.39603 10.2412 4.25353 11.1349C4.12706 12.0071 4.04244 12.8854 4 13.7664V34.0622C4.00026 34.946 4.0852 35.8276 4.25353 36.6937C4.42194 37.5803 4.70821 38.4378 5.10398 39.2411C5.51758 40.0193 6.03162 40.734 6.63158 41.3651C7.25037 41.9992 7.96911 42.5165 8.7561 42.8943C9.53275 43.3044 10.3634 43.591 11.2208 43.7446C12.0712 43.916 13.0051 43.916 13.8556 44H34.1444C35.0283 43.9993 35.9102 43.9138 36.7792 43.7446C37.6366 43.591 38.4672 43.3044 39.2439 42.8943C40.0141 42.4862 40.7286 41.9719 41.3684 41.3651C41.9939 40.7576 42.5111 40.0384 42.896 39.2411C43.3163 38.4491 43.604 37.5874 43.7465 36.6937C43.8729 35.8215 43.9576 34.9432 44 34.0622V13.9378H43.9968Z" fill="#F05138"/>
<path d="M30.733 33.528C27.1675 35.4953 22.267 35.6975 17.3344 33.6789C13.4885 32.1184 10.2002 29.4383 7.89603 25.9863C8.96686 26.806 10.1368 27.4875 11.3781 28.0145C16.4711 30.2931 21.561 30.1359 25.1457 28.0145C20.043 24.2726 15.7105 19.4074 12.482 15.4343C11.8449 14.7629 11.2762 14.0297 10.7843 13.2456C14.6868 16.6506 20.8935 20.9478 23.1014 22.1641C19.9489 18.934 17.0519 15.464 14.4365 11.7854C18.7841 16.0103 23.5681 19.7616 28.708 22.976C28.9358 23.098 29.1123 23.2007 29.2535 23.297C29.4042 22.9291 29.5338 22.5531 29.6419 22.1705C30.8325 18.0338 29.4718 13.3323 26.5 9.43945C33.3806 13.4093 37.4724 20.8676 35.7587 27.1128C35.7137 27.2828 35.6656 27.4337 35.6143 27.6102L35.6752 27.6808C39.0738 31.7341 38.1399 36.0248 37.7131 35.2225C35.8678 31.7629 32.4564 32.8316 30.733 33.528Z" fill="#FEFEFE"/>
</svg>
