<svg width="48" height="48" viewBox="0 0 48 48" fill="none" xmlns="http://www.w3.org/2000/svg">
<path fill-rule="evenodd" clip-rule="evenodd" d="M5.00013 13.8686V9.57572C5.00013 8.89228 5.26804 8.23632 5.7445 7.75382C6.221 7.27127 6.8687 7 7.54357 7H41.4565C42.1314 7 42.7774 7.27131 43.2539 7.75382C43.7321 8.23636 44 8.89228 44 9.57572V13.8686H5.00013ZM8.90013 9.91913C8.33886 9.91913 7.88272 10.3811 7.88272 10.9495C7.88272 11.5179 8.33886 11.9798 8.90013 11.9798C9.4614 11.9798 9.91754 11.5179 9.91754 10.9495C9.91754 10.3811 9.4614 9.91913 8.90013 9.91913ZM12.9697 9.91913C12.4084 9.91913 11.9523 10.3811 11.9523 10.9495C11.9523 11.5179 12.4084 11.9798 12.9697 11.9798C13.531 11.9798 13.9871 11.5179 13.9871 10.9495C13.9871 10.3811 13.531 9.91913 12.9697 9.91913ZM17.0392 9.91913C16.478 9.91913 16.0218 10.3811 16.0218 10.9495C16.0218 11.5179 16.478 11.9798 17.0392 11.9798C17.6005 11.9798 18.0566 11.5179 18.0566 10.9495C18.0566 10.3811 17.6005 9.91913 17.0392 9.91913ZM43.9999 14.8989V38.4243C43.9999 39.1077 43.732 39.7637 43.2538 40.2462C42.7773 40.7287 42.1313 41 41.4564 41H7.54344C6.86857 41 6.22082 40.7287 5.74437 40.2462C5.26787 39.7636 5 39.1077 5 38.4243V14.8989H43.9999ZM15.6827 32.0704H33.3175C33.5972 32.0704 33.8262 31.8403 33.8262 31.5552C33.8262 31.2719 33.5972 31.04 33.3175 31.04H15.6827C15.4012 31.04 15.174 31.2719 15.174 31.5552C15.174 31.8403 15.4012 32.0704 15.6827 32.0704ZM29.6073 26.4242L32.9986 22.9899C33.197 22.7889 33.197 22.4627 32.9986 22.2618L29.6073 18.8275C29.4089 18.6265 29.0868 18.6265 28.8884 18.8275C28.6883 19.0284 28.6883 19.3546 28.8884 19.5555L31.9185 22.6258L28.8884 25.6961C28.6883 25.897 28.6883 26.2233 28.8884 26.4242C29.0868 26.6251 29.4089 26.6251 29.6073 26.4242ZM20.1117 25.6961L17.0799 22.6258L20.1117 19.5555C20.3101 19.3546 20.3101 19.0283 20.1117 18.8275C19.9133 18.6266 19.5911 18.6265 19.3928 18.8275L16.0015 22.2618C15.8014 22.4627 15.8014 22.789 16.0015 22.9899L19.3928 26.4242C19.5912 26.6251 19.9133 26.6251 20.1117 26.4242C20.3101 26.2233 20.3101 25.897 20.1117 25.6961ZM33.3175 36.5348H15.6827C15.4012 36.5348 15.174 36.7649 15.174 37.05C15.174 37.3333 15.4012 37.5651 15.6827 37.5651H33.3175C33.5972 37.5651 33.8262 37.3333 33.8262 37.05C33.8262 36.7649 33.5972 36.5348 33.3175 36.5348ZM26.7706 17.5619L21.3445 27.178C21.2055 27.4253 21.2902 27.7395 21.5344 27.8804C21.7769 28.0212 22.0889 27.9353 22.228 27.6898L27.654 18.0736C27.7931 17.8263 27.7083 17.5104 27.4641 17.3695C27.2216 17.2287 26.9097 17.3146 26.7706 17.5619ZM33.3175 33.779H15.6827C15.4012 33.779 15.174 34.0108 15.174 34.2941C15.174 34.5792 15.4012 34.8093 15.6827 34.8093H33.3175C33.5972 34.8093 33.8262 34.5792 33.8262 34.2941C33.8262 34.0108 33.5972 33.779 33.3175 33.779Z" fill="#44ADC1"/>
</svg>
