<svg width="48" height="48" viewBox="0 0 48 48" fill="none" xmlns="http://www.w3.org/2000/svg">
<path d="M10.3792 5.17578H31.9969C36.6265 5.17578 40.3761 8.9254 40.3761 13.555V35.1727C40.3761 39.8023 36.6265 43.5519 31.9969 43.5519H10.3792C5.74961 43.5519 2 39.8023 2 35.1727V13.555C2 8.9254 5.74961 5.17578 10.3792 5.17578Z" fill="url(#paint0_linear_616_34694)"/>
<path d="M31.3465 7.24219H11.0297C7.1653 7.24219 4.02787 10.3796 4.02787 14.244V34.5608C4.02787 38.4252 7.1653 41.5626 11.0297 41.5626H31.3465C35.2109 41.5626 38.3483 38.4252 38.3483 34.5608V14.2058C38.3483 10.3414 35.2109 7.24219 31.3465 7.24219ZM37.7744 34.6373C37.7744 38.1574 34.943 40.9887 31.423 40.9887H10.9532C7.47139 40.9887 4.60179 38.1574 4.60179 34.6373V14.1292C4.60179 10.6092 7.43313 7.77785 10.9532 7.77785H31.4613C34.9431 7.77785 37.8127 10.6092 37.8127 14.1292V34.6373H37.7744Z" fill="white"/>
<path d="M21.2454 8.61816C12.5983 8.61816 5.55824 15.6583 5.55824 24.3053C5.55824 32.9524 12.5983 39.9925 21.2454 39.9925C29.9307 39.9925 36.9326 32.9524 36.9326 24.3053C36.9326 15.6583 29.8925 8.61816 21.2454 8.61816ZM21.2454 39.7629C12.7131 39.7629 5.7878 32.8376 5.7878 24.3053C5.7878 15.773 12.7131 8.84773 21.2454 8.84773C29.7777 8.84773 36.703 15.773 36.703 24.3053C36.703 32.8376 29.7777 39.7629 21.2454 39.7629Z" fill="#69C5F3"/>
<path d="M21.2455 11.833C14.3202 11.833 8.73405 17.4192 8.73405 24.3445C8.73405 31.2698 14.3202 36.8177 21.2455 36.8177C28.1708 36.8177 33.757 31.2315 33.757 24.3062C33.757 17.3809 28.1326 11.833 21.2455 11.833ZM21.2455 36.5498C14.4732 36.5498 9.00188 31.0785 9.00188 24.3062C9.00188 17.5339 14.4732 12.0626 21.2455 12.0626C28.0178 12.0626 33.4891 17.5339 33.4891 24.3062C33.4891 31.0785 27.9795 36.5498 21.2455 36.5498Z" fill="#68C5F4"/>
<path d="M9.26969 27.1768H33.1448C34.1396 27.1768 34.9048 27.9802 34.9048 28.9368C34.9048 29.9316 34.1013 30.6968 33.1448 30.6968H9.26969C8.27489 30.6968 7.50967 29.8933 7.50967 28.9368C7.4714 27.9802 8.27489 27.1768 9.26969 27.1768Z" fill="white"/>
<path d="M9.19312 27.5205H33.1447C33.91 27.5205 34.5604 28.1327 34.5604 28.9362V28.9744C34.5604 29.7397 33.9482 30.3901 33.1447 30.3901H9.19312C8.42789 30.3901 7.77745 29.7779 7.77745 28.9744V28.8979C7.81571 28.1327 8.42789 27.5205 9.19312 27.5205Z" fill="#0A93E9"/>
<path d="M8.6192 30.2369H33.7569L33.9482 30.1221H8.42789L8.6192 30.2369Z" fill="#1694EA"/>
<path d="M8.04546 29.7779H34.2927L34.3693 29.6631H7.96893L8.04546 29.7779Z" fill="#319DEC"/>
<path d="M7.81572 29.0505H34.5604V28.8975H7.81572V29.0505Z" fill="#65B1EE"/>
<path d="M8.08359 28.0947H34.3309L34.3691 28.1713L34.4074 28.2478H8.00706L8.04533 28.1713L8.08359 28.0947Z" fill="#8EC6F3"/>
<path d="M8.65746 27.6357H33.7569L33.8717 27.674L33.9865 27.7505H8.42789L8.54268 27.674L8.65746 27.6357Z" fill="#95CAF3"/>
<path d="M32.4561 27.5205H32.2648C32.2648 27.5205 32.9153 27.9796 32.9153 29.0127C32.9153 29.9692 32.2648 30.3901 32.2648 30.3901H32.4561C32.4561 30.3901 33.1066 30.084 33.1066 29.0127C33.1066 27.8649 32.4561 27.5205 32.4561 27.5205Z" fill="url(#paint1_linear_616_34694)"/>
<path d="M30.6195 27.5205H30.4282C30.4282 27.5205 31.0021 28.0562 31.0021 29.0127C31.0021 29.8545 30.4282 30.3901 30.4282 30.3901H30.6195C30.6195 30.3901 31.1934 29.9692 31.1934 29.0127C31.1551 27.9796 30.6195 27.5205 30.6195 27.5205Z" fill="url(#paint2_linear_616_34694)"/>
<path d="M21.0925 27.5205H21.2838V30.3901H21.0925V27.5205Z" fill="url(#paint3_linear_616_34694)"/>
<path d="M19.2175 27.5205H19.4088C19.4088 27.5205 19.3323 28.2475 19.3323 29.0127C19.3323 29.7014 19.4088 30.3901 19.4088 30.3901H19.2175C19.2175 30.3901 19.141 29.7014 19.141 29.0127C19.141 28.2475 19.2175 27.5205 19.2175 27.5205Z" fill="url(#paint4_linear_616_34694)"/>
<path d="M17.3811 27.5205H17.5724C17.5724 27.5205 17.3811 28.2475 17.3811 29.0127C17.3811 29.7014 17.5724 30.3901 17.5724 30.3901H17.3811C17.3811 30.3901 17.1898 29.7014 17.1898 29.0127C17.1898 28.2475 17.3811 27.5205 17.3811 27.5205Z" fill="url(#paint5_linear_616_34694)"/>
<path d="M15.5062 27.5205H15.6975C15.6975 27.5205 15.4296 28.2475 15.4296 29.0127C15.4296 29.7014 15.6975 30.3901 15.6975 30.3901H15.5062C15.5062 30.3901 15.2383 29.7014 15.2383 29.0127C15.2383 28.2475 15.5062 27.5205 15.5062 27.5205Z" fill="url(#paint6_linear_616_34694)"/>
<path d="M13.6315 27.5205H13.8228C13.8228 27.5205 13.4402 28.1327 13.4402 29.0127C13.4402 29.7779 13.8228 30.3901 13.8228 30.3901H13.6315C13.6315 30.3901 13.2489 29.7779 13.2489 29.0127C13.2489 28.1327 13.6315 27.5205 13.6315 27.5205Z" fill="url(#paint7_linear_616_34694)"/>
<path d="M11.7567 27.5205H11.948C11.948 27.5205 11.3741 28.0562 11.3741 29.0127C11.3741 29.8545 11.948 30.3901 11.948 30.3901H11.7567C11.7567 30.3901 11.1827 29.9692 11.1827 29.0127C11.221 27.9796 11.7567 27.5205 11.7567 27.5205Z" fill="url(#paint8_linear_616_34694)"/>
<path d="M9.92013 27.5205H10.1114C10.1114 27.5205 9.46099 27.9796 9.46099 29.0127C9.46099 29.9692 10.1114 30.3901 10.1114 30.3901H9.92013C9.92013 30.3901 9.26968 30.084 9.26968 29.0127C9.26968 27.8649 9.92013 27.5205 9.92013 27.5205Z" fill="url(#paint9_linear_616_34694)"/>
<path d="M20.4421 12.9427L32.3796 33.6039C32.877 34.4456 32.5709 35.5169 31.7292 36.0143C30.8874 36.5117 29.8161 36.2056 29.3187 35.3639L17.3812 14.7028C16.8838 13.861 17.1899 12.7897 18.0316 12.2923C18.8734 11.7949 19.9447 12.101 20.4421 12.9427Z" fill="white"/>
<path d="M20.1359 13.096L32.1117 33.8336C32.4943 34.4841 32.2647 35.3641 31.6143 35.7467L31.5377 35.7849C30.8873 36.1676 30.0073 35.938 29.6247 35.2875L17.6489 14.5116C17.2663 13.8612 17.4958 12.9812 18.1463 12.5986L18.1845 12.5603C18.8732 12.1777 19.7532 12.4072 20.1359 13.096Z" fill="url(#paint10_linear_616_34694)"/>
<path d="M17.4576 13.9376L30.0073 35.7083L30.0838 35.7465L30.1603 35.7848L30.2369 35.8231L17.4576 13.708V13.9376Z" fill="url(#paint11_linear_616_34694)"/>
<path d="M17.5724 13.2115L30.696 35.9387H30.8491L17.6489 13.0967L17.6106 13.1732L17.5724 13.2115Z" fill="url(#paint12_linear_616_34694)"/>
<path d="M18.108 12.6371L31.4995 35.7852L31.6143 35.7087L18.2228 12.5605L18.108 12.6371Z" fill="url(#paint13_linear_616_34694)"/>
<path d="M19.0646 12.4074L32.1499 35.0964L32.1117 35.1729L32.0734 35.2494L18.8733 12.3691H18.9498L19.0646 12.4074Z" fill="url(#paint14_linear_616_34694)"/>
<path d="M19.7534 12.6372L32.3031 34.3697V34.5993L19.5238 12.5225L19.6004 12.5607L19.6769 12.599L19.7534 12.6372Z" fill="url(#paint15_linear_616_34694)"/>
<path d="M31.7291 33.1448L31.6526 32.9917C31.6526 32.9917 31.5761 33.757 30.7343 34.2926C29.9308 34.79 29.2039 34.4457 29.2039 34.4457L29.2804 34.5987C29.2804 34.5987 29.8926 35.0196 30.8109 34.4457C31.7291 33.91 31.7291 33.1448 31.7291 33.1448ZM30.7726 31.5378L30.6961 31.3848C30.6961 31.3848 30.5048 32.15 29.7013 32.6091C28.9743 33.0683 28.2473 32.8387 28.2473 32.8387L28.3239 32.9917C28.3239 32.9917 28.9743 33.2596 29.8161 32.7622C30.6578 32.2648 30.7726 31.5378 30.7726 31.5378Z" fill="#3C98EA"/>
<path d="M29.8544 29.9304L29.7779 29.7773C29.7779 29.7773 29.4335 30.4278 28.7066 30.8487C28.0561 31.2313 27.3291 31.2313 27.3291 31.2313L27.4057 31.3843C27.4057 31.3843 28.0944 31.3843 28.7831 31.0017C29.51 30.5808 29.8544 29.9304 29.8544 29.9304Z" fill="#4CA4ED"/>
<path d="M28.9361 28.3239L28.8595 28.1709C28.8595 28.1709 28.3621 28.8213 27.7117 29.1657C27.0995 29.51 26.3726 29.6248 26.3726 29.6248L26.4491 29.7779C26.4491 29.7779 27.176 29.6631 27.7882 29.3187C28.4004 28.9744 28.9361 28.3239 28.9361 28.3239Z" fill="#4DA7EE"/>
<path d="M25.1482 21.8193L25.2248 21.9724C25.2248 21.9724 24.5743 22.2785 23.9239 22.6228C23.3117 22.9672 22.776 23.4263 22.776 23.4263L22.6995 23.2733C22.6995 23.2733 23.2734 22.8141 23.8473 22.4698C24.4978 22.1254 25.1482 21.8193 25.1482 21.8193Z" fill="url(#paint16_linear_616_34694)"/>
<path d="M24.2298 20.2129L24.3063 20.3659C24.3063 20.3659 23.5793 20.5955 22.9672 20.9781C22.355 21.3225 21.8576 21.8581 21.8576 21.8581L21.7811 21.7051C21.7811 21.7051 22.2784 21.1694 22.8906 20.8251C23.5028 20.4042 24.2298 20.2129 24.2298 20.2129Z" fill="url(#paint17_linear_616_34694)"/>
<path d="M22.508 18.9487C23.005 18.7958 23.3873 18.7193 23.3873 18.7193L23.3108 18.5664C23.3108 18.5664 22.9667 18.6046 22.5844 18.7576C22.355 18.834 22.3168 19.0252 22.508 18.9487Z" fill="#9DD4F7"/>
<path d="M21.4368 15.3907L21.5133 15.5437C21.5133 15.5437 20.7863 15.3524 19.9446 15.8116C19.2176 16.2707 19.0646 16.9977 19.0646 16.9977L18.9881 16.8446C18.9881 16.8446 19.0646 16.1942 19.8681 15.6968C20.7098 15.1611 21.4368 15.3907 21.4368 15.3907Z" fill="url(#paint18_linear_616_34694)"/>
<path d="M20.5185 13.746L20.6333 13.8991C20.6333 13.8991 19.8681 13.593 18.9881 14.0904C18.1463 14.626 18.1463 15.353 18.1463 15.353L18.0315 15.1999C18.0315 15.1999 17.955 14.5495 18.8733 13.9756C19.8298 13.4017 20.5185 13.746 20.5185 13.746Z" fill="url(#paint19_linear_616_34694)"/>
<path d="M17.9551 27.1756C21.2838 21.4364 25.1099 14.7789 25.1099 14.7789C25.6073 13.9372 25.3012 12.8659 24.4595 12.3685C23.6177 11.8711 22.5464 12.1772 22.049 13.0189C22.049 13.0189 17.3811 21.1303 13.8611 27.1756H17.9551ZM15.8889 30.6957C14.282 33.4505 13.1724 35.4401 13.1724 35.4401C12.675 36.2818 11.6037 36.5879 10.7619 36.0905C9.92017 35.5931 9.61408 34.5218 10.1115 33.68C10.1115 33.68 10.7619 32.4939 11.795 30.7339C13.0959 30.6957 15.4681 30.6957 15.8889 30.6957Z" fill="white"/>
<path d="M17.5342 27.1762C20.9012 21.3604 24.8038 14.5882 24.8038 14.5882C25.1865 13.9377 24.9569 13.0577 24.3064 12.6751L24.2682 12.6368C23.6177 12.2542 22.7377 12.4838 22.3551 13.1342C22.3551 13.1342 17.7638 21.0926 14.2437 27.1762H17.5342ZM15.5063 30.6962C13.9759 33.3745 12.8663 35.2876 12.8663 35.2876C12.4837 35.938 11.6419 36.1676 10.9532 35.785H10.8767C10.2263 35.4023 9.9967 34.5606 10.3793 33.8719C10.3793 33.8719 11.1063 32.6093 12.2159 30.6962H15.5063Z" fill="url(#paint20_linear_616_34694)"/>
<path d="M17.4193 27.1757L25.0333 14.0137V13.7842C25.0333 13.7842 20.8245 21.0921 17.3045 27.1757H17.4193ZM15.3532 30.6957L12.4453 35.7462L12.3305 35.8227L12.2157 35.861C12.2157 35.861 13.5166 33.6036 15.2001 30.6957H15.3532Z" fill="url(#paint21_linear_616_34694)"/>
<path d="M16.8455 27.1747L24.8804 13.2859L24.8421 13.2093L24.8039 13.1328C24.8039 13.1328 20.4038 20.7468 16.7307 27.1365L16.8455 27.1747ZM14.8177 30.6948L11.7568 35.9748H11.6037C11.6037 35.9748 12.9046 33.7174 14.6646 30.6565C14.7411 30.6948 14.8177 30.6948 14.8177 30.6948Z" fill="url(#paint22_linear_616_34694)"/>
<path d="M16.0037 27.176C19.7916 20.6333 24.3447 12.7132 24.3447 12.7132L24.2299 12.6367L15.8124 27.176H16.0037ZM13.9376 30.7343C12.2541 33.6805 10.9915 35.8614 10.9915 35.8614L10.8767 35.7848C10.8767 35.7848 12.1011 33.6422 13.7846 30.7343C13.8611 30.6961 13.8228 30.6961 13.9376 30.7343Z" fill="url(#paint23_linear_616_34694)"/>
<path d="M15.0854 27.175C18.8732 20.6323 23.5794 12.4443 23.5794 12.4443H23.4263C23.4263 12.4443 18.7202 20.594 14.9323 27.175H15.0854ZM12.8662 30.695C11.3357 33.335 10.3027 35.1333 10.3027 35.1333L10.3409 35.2098L10.3792 35.2864C10.3792 35.2864 11.4888 33.3733 13.0575 30.695H12.8662Z" fill="url(#paint24_linear_616_34694)"/>
<path d="M14.5114 27.1762L22.9289 12.5986L22.8524 12.6369L22.7759 12.6752L22.7376 12.7134C22.7376 12.7134 18.0697 20.7866 14.3966 27.1762H14.5114ZM12.4836 30.6963C11.1444 33.0302 10.1879 34.6754 10.1879 34.6754V34.3693C10.1879 34.3693 11.0296 32.9154 12.3305 30.658C12.407 30.6963 12.407 30.6963 12.4836 30.6963Z" fill="url(#paint25_linear_616_34694)"/>
<path d="M21.9724 13.7457L21.8959 13.8987C21.8959 13.8987 22.5846 13.5544 23.5028 14.0518C24.3446 14.5109 24.3828 15.3144 24.3828 15.3144L24.4594 15.1613C24.4594 15.1613 24.5359 14.4344 23.5794 13.8987C22.6228 13.3631 21.9724 13.7457 21.9724 13.7457Z" fill="url(#paint26_linear_616_34694)"/>
<path d="M21.0542 15.3913L20.9777 15.5444C20.9777 15.5444 21.7429 15.3148 22.5464 15.774C23.3116 16.1948 23.4646 16.9218 23.4646 16.9218L23.5412 16.7688C23.5412 16.7688 23.4646 16.08 22.6229 15.6209C21.7429 15.1235 21.0542 15.3913 21.0542 15.3913Z" fill="url(#paint27_linear_616_34694)"/>
<path d="M20.0977 16.998L20.0212 17.1511C20.0212 17.1511 20.7099 17.1128 21.4751 17.572C22.1638 17.9546 22.5082 18.5668 22.5082 18.5668L22.5847 18.4137C22.5847 18.4137 22.2404 17.8015 21.5516 17.4189C20.8247 16.998 20.0977 16.998 20.0977 16.998Z" fill="url(#paint28_linear_616_34694)"/>
<path d="M19.1794 18.6445L19.1029 18.7976C19.1029 18.7976 19.8681 18.9124 20.5185 19.295C21.1307 19.6393 21.5899 20.2132 21.5899 20.2132L21.6664 20.0602C21.6664 20.0602 21.2073 19.4863 20.5951 19.1419C19.9446 18.7593 19.1794 18.6445 19.1794 18.6445Z" fill="url(#paint29_linear_616_34694)"/>
<path d="M18.2229 20.251L18.1464 20.404C18.1464 20.404 18.8734 20.5953 19.5238 20.9779C20.136 21.3223 20.6334 21.8197 20.6334 21.8197L20.7099 21.6666C20.7099 21.6666 20.2125 21.1692 19.6003 20.8249C18.9882 20.4805 18.2229 20.251 18.2229 20.251Z" fill="url(#paint30_linear_616_34694)"/>
<path d="M17.3046 21.8584L17.1898 22.0114C17.1898 22.0114 17.8785 22.2793 18.529 22.6619C19.1411 23.0062 19.6768 23.4271 19.6768 23.4271L19.7533 23.2741C19.7533 23.2741 19.2177 22.8532 18.6055 22.5088C17.9933 22.1645 17.3046 21.8584 17.3046 21.8584Z" fill="url(#paint31_linear_616_34694)"/>
<path d="M16.2716 23.656L16.3481 23.5029L18.8351 24.9186L18.7586 25.0716L16.2716 23.656Z" fill="url(#paint32_linear_616_34694)"/>
<path d="M15.3532 25.3015L15.4297 25.1484C15.4297 25.1484 16.0419 25.6076 16.6923 25.9519C17.3045 26.2963 17.9167 26.5641 17.9167 26.5641L17.8401 26.6789C17.8401 26.6789 17.1897 26.4111 16.5775 26.0667C15.9271 25.7224 15.3532 25.3015 15.3532 25.3015Z" fill="url(#paint33_linear_616_34694)"/>
<path d="M14.7408 27.1764C14.5497 27.0235 14.435 26.9088 14.435 26.9088L14.5114 26.7559C14.5114 26.7559 14.7408 26.947 15.0467 27.1764H14.7408Z" fill="#73B9F1"/>
<path d="M13.2488 30.6953C13.4019 30.8101 13.5549 30.9249 13.7462 31.0397C14.4349 31.4223 15.1236 31.384 15.1236 31.384L15.0471 31.5371C15.0471 31.5371 14.3584 31.5753 13.6697 31.1927C13.4019 31.0397 13.1723 30.8484 13.0193 30.6953H13.2488Z" fill="url(#paint34_linear_616_34694)"/>
<path d="M11.6037 31.7673L11.6802 31.6143C11.6802 31.6143 11.8715 32.3795 12.7133 32.8386C13.4785 33.2595 14.1672 33.0299 14.1672 33.0299L14.0907 33.183C14.0907 33.183 13.4785 33.4508 12.6368 32.9917C11.7568 32.4943 11.6037 31.7673 11.6037 31.7673Z" fill="url(#paint35_linear_616_34694)"/>
<path d="M10.6471 33.4128L10.7236 33.2598C10.7236 33.2598 10.8002 34.0633 11.7184 34.5607C12.5602 35.0198 13.2106 34.6754 13.2106 34.6754L13.0958 34.8285C13.0958 34.8285 12.5219 35.2494 11.6036 34.7137C10.6471 34.178 10.6471 33.4128 10.6471 33.4128Z" fill="url(#paint36_linear_616_34694)"/>
<path d="M23.0437 43.5905L39.4196 9.19352L35.2874 7.24219L18.2228 43.0166C18.2228 43.0166 18.7585 43.2844 19.4472 43.5905H23.0437Z" fill="url(#paint37_linear_616_34694)"/>
<path d="M32.724 5.17578L40.3762 8.81061V19.7916C37.7362 18.529 20.0595 10.1115 20.0595 10.1115C20.0595 10.1115 21.2838 7.54799 22.4317 5.17578H32.724Z" fill="url(#paint38_radial_616_34694)"/>
<path d="M13.7462 42.0592C13.6314 42.2888 13.4401 42.5566 13.4784 42.9775C13.5166 44.5462 16.0801 46.0002 17.5723 46.0002C18.6054 46.0002 18.9497 45.5793 19.3324 44.8141C19.715 44.0488 14.1671 41.141 13.7462 42.0592Z" fill="url(#paint39_radial_616_34694)"/>
<path d="M31.3847 9.49805C31.3847 9.49805 35.3257 10.4546 35.6318 10.7224C35.9378 10.9902 35.1344 12.5207 34.9813 12.7503C33.7187 14.2807 29.7778 22.7365 29.7778 22.7365L26.1429 20.6704C26.1429 20.6704 29.3952 14.6251 30.543 12.4824C31.27 11.0285 31.3847 9.49805 31.3847 9.49805Z" fill="url(#paint40_linear_616_34694)"/>
<path d="M40.4911 7.50849C41.1798 8.00589 42.098 7.89111 42.825 7.77632C43.3224 7.6998 42.5572 8.42677 41.7154 10.1103C40.8737 11.7938 40.9119 11.9086 40.7971 11.7938C40.6824 11.679 36.8945 9.53635 37.0093 9.34504C37.1623 9.15373 37.7745 4.98325 38.0806 5.09803C39.1902 5.36586 39.3815 6.70501 40.4911 7.50849Z" fill="url(#paint41_linear_616_34694)"/>
<path d="M34.5987 12.216C34.8665 11.7951 36.0909 9.19336 38.0422 9.19336C38.9222 9.19336 40.6057 11.4125 40.7588 11.7186C40.8736 11.9864 40.491 13.0578 40.2997 12.5604C40.0701 11.9864 39.1135 10.7621 38.0805 10.7621C37.0474 10.7621 35.6318 11.9482 35.2874 12.3691C34.9431 12.7517 34.3309 12.6369 34.5987 12.216Z" fill="url(#paint42_linear_616_34694)"/>
<path d="M34.5223 12.0632C34.7136 11.7571 35.5936 10.4179 36.0144 9.99705C36.4353 9.57617 37.5066 8.46659 38.4249 8.31355C39.3432 8.1605 40.2997 10.0353 39.9936 10.4179C39.7641 10.6858 39.3814 10.3797 38.9223 9.99705C38.4632 9.6527 38.1571 8.96399 36.7031 10.0736C36.2058 10.4562 35.7084 10.7623 34.5605 12.4075C34.2544 12.8284 34.3309 12.3693 34.5223 12.0632Z" fill="url(#paint43_linear_616_34694)"/>
<path d="M29.7777 23.2347C29.9308 22.9286 30.1221 22.4695 29.7012 22.1252C29.2421 21.7808 27.0994 20.633 26.7168 20.5564C26.3342 20.4799 26.0281 20.5564 25.875 20.8243C25.722 21.0921 13.9758 41.2176 13.7462 41.7915C13.5166 42.3654 13.4784 42.7863 13.8227 42.9011C14.1671 43.0159 18.108 44.8907 18.4906 45.3115C18.8732 45.7324 19.0645 45.2733 19.2176 45.0437C19.9445 44.1254 29.5864 23.5408 29.7777 23.2347Z" fill="url(#paint44_linear_616_34694)"/>
<path d="M34.7901 11.9862C34.9814 11.7184 35.4405 10.9532 36.0144 10.2645C36.397 9.80532 38.4632 8.81052 38.9223 7.20354C39.1901 6.32353 38.7693 5.44352 38.1953 5.06091C36.244 3.87481 32.877 2 27.9413 2C24.6125 2 23.1969 3.10958 23.1969 3.10958H24.8804L30.7344 5.40526L31.4613 8.46617C31.4613 8.46617 31.5379 9.49923 31.1935 10.6853C30.9639 11.6419 30.8874 12.2158 30.5431 13.1723C30.8109 13.2871 31.4231 12.8662 32.1118 13.0575C32.724 13.2106 33.1066 14.0523 33.5274 13.5549C34.2544 12.5984 34.484 12.4071 34.7901 11.9862Z" fill="url(#paint45_linear_616_34694)"/>
<path d="M31.3464 9.61371C31.0403 6.78237 30.3516 4.10407 23.1585 4.14234C23.6176 3.6832 24.7272 3.22406 24.7272 3.22406L23.1585 3.10928C23.1585 3.10928 23.388 2.91797 23.8472 2.87971C28.0559 2.53536 31.8055 3.41537 31.5377 8.88674C31.4994 9.76676 31.4229 10.1494 31.3464 9.61371Z" fill="url(#paint46_linear_616_34694)"/>
<path d="M23.1585 4.14301C23.6559 3.9517 24.3446 3.83691 25.6455 3.91344C27.2524 3.98996 29.2803 4.60214 30.122 5.36737C30.5429 5.74998 30.5047 5.44389 30.0455 4.94649C28.8594 3.56909 27.0611 3.26299 24.7272 3.22473C24.4594 3.18647 23.5793 3.68387 23.1585 4.14301Z" fill="url(#paint47_linear_616_34694)"/>
<path d="M42.9015 7.77734L45.0059 8.84866C45.0059 8.84866 44.2024 9.91998 43.552 11.1443C42.8633 12.4452 42.4041 13.8609 42.4041 13.8609L40.3763 12.6365C40.3763 12.6365 40.8737 11.2591 41.6006 9.91998C42.1746 8.8104 42.9015 7.77734 42.9015 7.77734Z" fill="url(#paint48_linear_616_34694)"/>
<path d="M45.0057 8.84761C45.1588 8.92413 44.6614 10.1102 43.9344 11.4876C43.2074 12.8651 42.5187 13.9364 42.404 13.8598C42.2509 13.7833 42.7483 12.5972 43.4753 11.2198C44.164 9.8424 44.8527 8.77109 45.0057 8.84761Z" fill="#BFC0D0"/>
<defs>
<linearGradient id="paint0_linear_616_34694" x1="21.1869" y1="43.5768" x2="21.1869" y2="5.16966" gradientUnits="userSpaceOnUse">
<stop stop-color="#1578E4"/>
<stop offset="1" stop-color="#00C3F2"/>
</linearGradient>
<linearGradient id="paint1_linear_616_34694" x1="32.6998" y1="30.3771" x2="32.6998" y2="27.5144" gradientUnits="userSpaceOnUse">
<stop stop-color="#1492E7"/>
<stop offset="1" stop-color="#DBEDFB"/>
</linearGradient>
<linearGradient id="paint2_linear_616_34694" x1="30.7886" y1="30.3771" x2="30.7886" y2="27.5144" gradientUnits="userSpaceOnUse">
<stop stop-color="#1492E7"/>
<stop offset="1" stop-color="#DBEDFB"/>
</linearGradient>
<linearGradient id="paint3_linear_616_34694" x1="21.187" y1="30.3771" x2="21.187" y2="27.5144" gradientUnits="userSpaceOnUse">
<stop stop-color="#1492E7"/>
<stop offset="1" stop-color="#DBEDFB"/>
</linearGradient>
<linearGradient id="paint4_linear_616_34694" x1="19.2757" y1="30.3771" x2="19.2757" y2="27.5144" gradientUnits="userSpaceOnUse">
<stop stop-color="#1492E7"/>
<stop offset="1" stop-color="#DBEDFB"/>
</linearGradient>
<linearGradient id="paint5_linear_616_34694" x1="17.365" y1="30.3771" x2="17.365" y2="27.5144" gradientUnits="userSpaceOnUse">
<stop stop-color="#1492E7"/>
<stop offset="1" stop-color="#DBEDFB"/>
</linearGradient>
<linearGradient id="paint6_linear_616_34694" x1="15.4538" y1="30.3771" x2="15.4538" y2="27.5144" gradientUnits="userSpaceOnUse">
<stop stop-color="#1492E7"/>
<stop offset="1" stop-color="#DBEDFB"/>
</linearGradient>
<linearGradient id="paint7_linear_616_34694" x1="13.5427" y1="30.3771" x2="13.5427" y2="27.5144" gradientUnits="userSpaceOnUse">
<stop stop-color="#1492E7"/>
<stop offset="1" stop-color="#DBEDFB"/>
</linearGradient>
<linearGradient id="paint8_linear_616_34694" x1="11.5853" y1="30.3771" x2="11.5853" y2="27.5144" gradientUnits="userSpaceOnUse">
<stop stop-color="#1492E7"/>
<stop offset="1" stop-color="#DBEDFB"/>
</linearGradient>
<linearGradient id="paint9_linear_616_34694" x1="9.67411" y1="30.3771" x2="9.67411" y2="27.5144" gradientUnits="userSpaceOnUse">
<stop stop-color="#1492E7"/>
<stop offset="1" stop-color="#DBEDFB"/>
</linearGradient>
<linearGradient id="paint10_linear_616_34694" x1="24.8726" y1="35.9571" x2="24.8726" y2="12.3851" gradientUnits="userSpaceOnUse">
<stop stop-color="#1285E7"/>
<stop offset="1" stop-color="#00B5EF"/>
</linearGradient>
<linearGradient id="paint11_linear_616_34694" x1="30.1848" y1="35.8529" x2="17.412" y2="13.7294" gradientUnits="userSpaceOnUse">
<stop stop-color="#2B90E7"/>
<stop offset="1" stop-color="#00B6EF"/>
</linearGradient>
<linearGradient id="paint12_linear_616_34694" x1="30.8005" y1="35.9873" x2="17.6041" y2="13.1307" gradientUnits="userSpaceOnUse">
<stop stop-color="#3795EA"/>
<stop offset="1" stop-color="#49C4F2"/>
</linearGradient>
<linearGradient id="paint13_linear_616_34694" x1="31.5477" y1="35.7603" x2="18.1738" y2="12.5961" gradientUnits="userSpaceOnUse">
<stop stop-color="#3696EA"/>
<stop offset="1" stop-color="#90D9F6"/>
</linearGradient>
<linearGradient id="paint14_linear_616_34694" x1="32.1431" y1="35.2234" x2="18.9364" y2="12.3489" gradientUnits="userSpaceOnUse">
<stop stop-color="#3097EA"/>
<stop offset="1" stop-color="#B5E5F9"/>
</linearGradient>
<linearGradient id="paint15_linear_616_34694" x1="32.3349" y1="34.5939" x2="19.5778" y2="12.498" gradientUnits="userSpaceOnUse">
<stop stop-color="#3A98EA"/>
<stop offset="1" stop-color="#BCE7FA"/>
</linearGradient>
<linearGradient id="paint16_linear_616_34694" x1="22.7305" y1="23.3215" x2="25.2083" y2="21.8909" gradientUnits="userSpaceOnUse">
<stop stop-color="#00A4EC"/>
<stop offset="1" stop-color="#B9DFF6"/>
</linearGradient>
<linearGradient id="paint17_linear_616_34694" x1="21.7761" y1="21.6691" x2="24.2535" y2="20.2385" gradientUnits="userSpaceOnUse">
<stop stop-color="#00A4EC"/>
<stop offset="1" stop-color="#B9DFF6"/>
</linearGradient>
<linearGradient id="paint18_linear_616_34694" x1="18.8848" y1="16.6606" x2="21.3465" y2="15.2396" gradientUnits="userSpaceOnUse">
<stop stop-color="#00B4EF"/>
<stop offset="1" stop-color="#C3E9FA"/>
</linearGradient>
<linearGradient id="paint19_linear_616_34694" x1="17.9259" y1="14.9998" x2="20.4037" y2="13.5692" gradientUnits="userSpaceOnUse">
<stop stop-color="#00B4EF"/>
<stop offset="1" stop-color="#C3E9FA"/>
</linearGradient>
<linearGradient id="paint20_linear_616_34694" x1="17.5977" y1="36.0149" x2="17.5977" y2="12.4432" gradientUnits="userSpaceOnUse">
<stop stop-color="#1285E7"/>
<stop offset="1" stop-color="#00B5EF"/>
</linearGradient>
<linearGradient id="paint21_linear_616_34694" x1="12.285" y1="35.9111" x2="25.0578" y2="13.7884" gradientUnits="userSpaceOnUse">
<stop stop-color="#3194E9"/>
<stop offset="1" stop-color="#71CFF4"/>
</linearGradient>
<linearGradient id="paint22_linear_616_34694" x1="11.6661" y1="36.0445" x2="24.8639" y2="13.1849" gradientUnits="userSpaceOnUse">
<stop stop-color="#5AA6EC"/>
<stop offset="1" stop-color="#A2DEF8"/>
</linearGradient>
<linearGradient id="paint23_linear_616_34694" x1="10.9219" y1="35.8174" x2="24.2957" y2="12.6532" gradientUnits="userSpaceOnUse">
<stop stop-color="#66ABEE"/>
<stop offset="1" stop-color="#BEE8FA"/>
</linearGradient>
<linearGradient id="paint24_linear_616_34694" x1="10.3287" y1="35.2795" x2="23.5354" y2="12.4049" gradientUnits="userSpaceOnUse">
<stop stop-color="#7BB6F0"/>
<stop offset="1" stop-color="#B1E3F9"/>
</linearGradient>
<linearGradient id="paint25_linear_616_34694" x1="10.1328" y1="34.6647" x2="22.8964" y2="12.5573" gradientUnits="userSpaceOnUse">
<stop stop-color="#5AA6EC"/>
<stop offset="1" stop-color="#AFE3F9"/>
</linearGradient>
<linearGradient id="paint26_linear_616_34694" x1="22.1109" y1="13.5502" x2="24.5887" y2="14.9807" gradientUnits="userSpaceOnUse">
<stop stop-color="#C1E7FA"/>
<stop offset="1" stop-color="#89D4F5"/>
</linearGradient>
<linearGradient id="paint27_linear_616_34694" x1="21.1521" y1="15.2115" x2="23.6299" y2="16.6417" gradientUnits="userSpaceOnUse">
<stop stop-color="#C1E7FA"/>
<stop offset="1" stop-color="#89D4F5"/>
</linearGradient>
<linearGradient id="paint28_linear_616_34694" x1="20.1639" y1="16.9234" x2="22.6413" y2="18.3536" gradientUnits="userSpaceOnUse">
<stop stop-color="#C1E7FA"/>
<stop offset="1" stop-color="#89D4F5"/>
</linearGradient>
<linearGradient id="paint29_linear_616_34694" x1="19.2027" y1="18.5891" x2="21.6802" y2="20.0196" gradientUnits="userSpaceOnUse">
<stop stop-color="#B0DFF8"/>
<stop offset="1" stop-color="#52BDF2"/>
</linearGradient>
<linearGradient id="paint30_linear_616_34694" x1="18.2421" y1="20.2525" x2="20.7202" y2="21.6831" gradientUnits="userSpaceOnUse">
<stop stop-color="#B4DEF8"/>
<stop offset="1" stop-color="#4EB5F0"/>
</linearGradient>
<linearGradient id="paint31_linear_616_34694" x1="17.2816" y1="21.9169" x2="19.7591" y2="23.3471" gradientUnits="userSpaceOnUse">
<stop stop-color="#B4DEF8"/>
<stop offset="1" stop-color="#4EB5F0"/>
</linearGradient>
<linearGradient id="paint32_linear_616_34694" x1="16.3248" y1="23.5741" x2="18.8018" y2="25.0043" gradientUnits="userSpaceOnUse">
<stop stop-color="#B5DDF8"/>
<stop offset="1" stop-color="#46AEEE"/>
</linearGradient>
<linearGradient id="paint33_linear_616_34694" x1="15.3665" y1="25.2326" x2="17.8444" y2="26.6632" gradientUnits="userSpaceOnUse">
<stop stop-color="#96CEF4"/>
<stop offset="1" stop-color="#46AAEE"/>
</linearGradient>
<linearGradient id="paint34_linear_616_34694" x1="13.0648" y1="30.5557" x2="14.9633" y2="31.6518" gradientUnits="userSpaceOnUse">
<stop stop-color="#8FC1F2"/>
<stop offset="1" stop-color="#3193EA"/>
</linearGradient>
<linearGradient id="paint35_linear_616_34694" x1="11.5019" y1="31.9269" x2="13.9797" y2="33.3574" gradientUnits="userSpaceOnUse">
<stop stop-color="#8FC1F2"/>
<stop offset="1" stop-color="#3193EA"/>
</linearGradient>
<linearGradient id="paint36_linear_616_34694" x1="10.5415" y1="33.59" x2="13.0189" y2="35.0206" gradientUnits="userSpaceOnUse">
<stop stop-color="#8FC1F2"/>
<stop offset="1" stop-color="#3193EA"/>
</linearGradient>
<linearGradient id="paint37_linear_616_34694" x1="26.0748" y1="24.7403" x2="30.841" y2="27.0646" gradientUnits="userSpaceOnUse">
<stop offset="0.001"/>
<stop offset="1" stop-opacity="0"/>
</linearGradient>
<radialGradient id="paint38_radial_616_34694" cx="0" cy="0" r="1" gradientUnits="userSpaceOnUse" gradientTransform="translate(33.1601 9.51081) rotate(116.706) scale(6.1909 10.7125)">
<stop/>
<stop offset="1" stop-opacity="0"/>
</radialGradient>
<radialGradient id="paint39_radial_616_34694" cx="0" cy="0" r="1" gradientUnits="userSpaceOnUse" gradientTransform="translate(16.3124 43.8795) rotate(26.1166) scale(3.02303 1.7208)">
<stop offset="0.417" stop-color="#0C0C12"/>
<stop offset="1" stop-color="#3D4651"/>
</radialGradient>
<linearGradient id="paint40_linear_616_34694" x1="29.1495" y1="14.883" x2="32.8854" y2="16.7865" gradientUnits="userSpaceOnUse">
<stop stop-color="#344351"/>
<stop offset="0.1" stop-color="#9697A0"/>
<stop offset="0.181" stop-color="#8B8C95"/>
<stop offset="0.351" stop-color="#787A83"/>
<stop offset="0.47" stop-color="#71747D"/>
<stop offset="0.591" stop-color="#777982"/>
<stop offset="0.749" stop-color="#87898F"/>
<stop offset="0.8" stop-color="#8E8F94"/>
<stop offset="0.849" stop-color="#3D3B42"/>
<stop offset="0.9" stop-color="#606E84"/>
</linearGradient>
<linearGradient id="paint41_linear_616_34694" x1="41.8241" y1="11.0886" x2="37.6073" y2="5.39035" gradientUnits="userSpaceOnUse">
<stop offset="0.27" stop-color="#262B33"/>
<stop offset="0.45" stop-color="#74747E"/>
<stop offset="0.54" stop-color="#B0B0BC"/>
<stop offset="0.73" stop-color="#74747E"/>
</linearGradient>
<linearGradient id="paint42_linear_616_34694" x1="34.4235" y1="11.5365" x2="40.6497" y2="10.7322" gradientUnits="userSpaceOnUse">
<stop offset="0.14" stop-color="#606E84"/>
<stop offset="0.4" stop-color="#9899A5"/>
<stop offset="0.73" stop-color="#475768"/>
<stop offset="0.92" stop-color="#262B33"/>
</linearGradient>
<linearGradient id="paint43_linear_616_34694" x1="37.326" y1="12.0662" x2="36.7219" y2="8.6403" gradientUnits="userSpaceOnUse">
<stop stop-color="#101215" stop-opacity="0.1"/>
<stop offset="0.46" stop-color="#101215" stop-opacity="0.7"/>
<stop offset="0.7" stop-color="#474951"/>
<stop offset="0.91" stop-color="#7B7D88"/>
</linearGradient>
<linearGradient id="paint44_linear_616_34694" x1="18.9616" y1="31.1629" x2="24.7414" y2="34.0068" gradientUnits="userSpaceOnUse">
<stop offset="0.115" stop-color="#2C3952"/>
<stop offset="0.374" stop-color="#3D414E"/>
<stop offset="0.55" stop-color="#474A54"/>
<stop offset="0.754" stop-color="#4E5057"/>
<stop offset="0.892" stop-color="#323945"/>
<stop offset="1" stop-color="#143052"/>
</linearGradient>
<linearGradient id="paint45_linear_616_34694" x1="27.9061" y1="12.0164" x2="32.3758" y2="2.20929" gradientUnits="userSpaceOnUse">
<stop offset="0.118" stop-color="#6D7078" stop-opacity="0"/>
<stop offset="0.2" stop-color="#6D7078" stop-opacity="0.7"/>
<stop offset="0.34" stop-color="#35363A"/>
<stop offset="0.374" stop-color="#1D1F22"/>
<stop offset="0.4" stop-color="#101215"/>
<stop offset="0.5" stop-color="#16171A"/>
<stop offset="0.56" stop-color="#292A2E"/>
<stop offset="0.688" stop-color="#4B4D51"/>
<stop offset="0.807" stop-color="#63666B"/>
<stop offset="0.915" stop-color="#72757B"/>
<stop offset="1" stop-color="#777A80"/>
</linearGradient>
<linearGradient id="paint46_linear_616_34694" x1="23.1447" y1="6.33739" x2="31.5477" y2="6.33739" gradientUnits="userSpaceOnUse">
<stop stop-color="#4A4D56"/>
<stop offset="1" stop-color="#29292D"/>
</linearGradient>
<linearGradient id="paint47_linear_616_34694" x1="23.1447" y1="4.37143" x2="30.4105" y2="4.37143" gradientUnits="userSpaceOnUse">
<stop stop-color="#767880"/>
<stop offset="0.41" stop-color="#0C0A0B"/>
</linearGradient>
<linearGradient id="paint48_linear_616_34694" x1="41.2303" y1="13.1936" x2="44.0521" y2="8.30612" gradientUnits="userSpaceOnUse">
<stop stop-color="#858997"/>
<stop offset="0.23" stop-color="#244668"/>
<stop offset="0.282" stop-color="#1A3249"/>
<stop offset="0.4" stop-color="#040506"/>
<stop offset="0.464" stop-color="#313236"/>
<stop offset="0.546" stop-color="#65656E"/>
<stop offset="0.607" stop-color="#868691"/>
<stop offset="0.64" stop-color="#92929E"/>
</linearGradient>
</defs>
</svg>
