<svg width="48" height="48" viewBox="0 0 48 48" fill="none" xmlns="http://www.w3.org/2000/svg">
<path d="M21.8564 35.4287V39H26.1426V35.4287H29.7139V39H34.7139C35.8977 39 36.8573 39.9588 36.8574 41.1426V43.2861C36.8572 43.6806 36.5371 44 36.1426 44H11.8564C11.4621 43.9999 11.1428 43.6805 11.1426 43.2861V41.1426C11.1427 39.9588 12.1014 39.0001 13.2852 39H18.2852V35.4287H21.8564ZM41.8574 4C43.0413 4 44 4.95869 44 6.14258V32.5713C44 33.7552 43.0413 34.7139 41.8574 34.7139H6.14258C4.9588 34.7137 4 33.7551 4 32.5713V6.14258C4.00004 4.95879 4.95882 4.00016 6.14258 4H41.8574ZM22.5713 30.4287C22.1769 30.4289 21.8576 30.7482 21.8574 31.1426C21.8574 31.5371 22.1768 31.8572 22.5713 31.8574H25.4287C25.8234 31.8574 26.1436 31.5372 26.1436 31.1426C26.1434 30.7481 25.8232 30.4287 25.4287 30.4287H22.5713ZM6.14258 5.42871C5.7481 5.42887 5.42875 5.74807 5.42871 6.14258V27.5713H42.5723V6.14258C42.5722 5.74797 42.252 5.42871 41.8574 5.42871H6.14258ZM11.8574 21.8564C12.2521 21.8564 12.5723 22.1766 12.5723 22.5713V24.7139H14.7148C15.1093 24.7139 15.4285 25.0333 15.4287 25.4277C15.4287 25.8224 15.1095 26.1425 14.7148 26.1426H11.8574C11.4629 26.1425 11.1436 25.8223 11.1436 25.4277V22.5713C11.1436 22.1767 11.4629 21.8566 11.8574 21.8564ZM36.1426 21.8564C36.5372 21.8564 36.8574 22.1766 36.8574 22.5713V25.4287C36.8572 25.8232 36.5371 26.1426 36.1426 26.1426H33.2861C32.8916 26.1426 32.5715 25.8232 32.5713 25.4287C32.5713 25.0341 32.8915 24.7139 33.2861 24.7139H35.4287V22.5713C35.4287 22.1767 35.7481 21.8566 36.1426 21.8564ZM11.2998 16.3994C17.1856 7.05126 30.8148 7.05136 36.7002 16.3994C36.8751 16.6797 36.875 17.0332 36.7002 17.3135C30.8144 26.6617 17.1851 26.6617 11.2998 17.3135C11.1251 17.0332 11.1249 16.6796 11.2998 16.3994ZM24 12.2139C21.4358 12.214 19.3576 14.2924 19.3574 16.8564C19.3574 19.4206 21.4359 21.4989 24 21.499C26.5642 21.499 28.6426 19.4206 28.6426 16.8564C28.6424 14.2924 26.5641 12.2139 24 12.2139ZM24 12.9287C26.1693 12.9289 27.9285 14.6871 27.9287 16.8564C27.9287 19.026 26.1695 20.7849 24 20.7852C21.8303 20.7852 20.0713 19.0261 20.0713 16.8564C20.0715 14.687 21.8305 12.9287 24 12.9287ZM24 14.3564C22.6197 14.3564 21.5002 15.4763 21.5 16.8564C21.5 18.2368 22.6196 19.3564 24 19.3564C25.3802 19.3562 26.5 18.2367 26.5 16.8564C26.4998 15.4764 25.3801 14.3567 24 14.3564ZM24 15.0713C24.9855 15.0713 25.7859 15.871 25.7861 16.8564C25.7861 17.8421 24.9857 18.6426 24 18.6426C23.0143 18.6426 22.2139 17.8421 22.2139 16.8564C22.2141 15.871 23.0145 15.0713 24 15.0713ZM14.7148 7.57129C15.1094 7.57132 15.4285 7.89068 15.4287 8.28516C15.4287 8.67979 15.1095 8.99997 14.7148 9H12.5723V11.1426C12.5723 11.5372 12.2521 11.8574 11.8574 11.8574C11.4629 11.8573 11.1436 11.5372 11.1436 11.1426V8.28516C11.1437 7.89073 11.463 7.57139 11.8574 7.57129H14.7148ZM36.1426 7.57129C36.5372 7.57129 36.8574 7.89056 36.8574 8.28516V11.1426C36.8573 11.5372 36.5372 11.8564 36.1426 11.8564C35.7481 11.8563 35.4288 11.5371 35.4287 11.1426V9H33.2861C32.8915 9 32.5713 8.6798 32.5713 8.28516C32.5713 7.89056 32.8915 7.57129 33.2861 7.57129H36.1426Z" fill="url(#paint0_linear_1_1294)"/>
<defs>
<linearGradient id="paint0_linear_1_1294" x1="7.40425" y1="7.90244" x2="31.4431" y2="44.5605" gradientUnits="userSpaceOnUse">
<stop stop-color="#FF2A2A"/>
<stop offset="1" stop-color="#5A0000"/>
</linearGradient>
</defs>
</svg>
