<svg width="48" height="48" viewBox="0 0 48 48" fill="none" xmlns="http://www.w3.org/2000/svg">
<path fill-rule="evenodd" clip-rule="evenodd" d="M6.69234 21.3516C6.49579 21.1734 6.47645 20.865 6.64969 20.6628C6.82294 20.4606 7.12282 20.4407 7.31937 20.6189L9.18902 22.3099C9.50957 22.0802 9.89871 21.9458 10.3186 21.9458C10.8652 21.9458 11.3599 22.1738 11.7182 22.5419C11.7886 22.6143 11.8537 22.6925 11.913 22.7753L15.3942 21.2923C15.3797 21.1924 15.3718 21.0897 15.3718 20.9857C15.3718 20.4236 15.5934 19.9148 15.9513 19.5462C16.3097 19.1776 16.8044 18.9501 17.3509 18.9501C17.8975 18.9501 18.3921 19.178 18.7505 19.5462C19.1089 19.9148 19.33 20.4236 19.33 20.9857C19.33 21.0902 19.3226 21.1924 19.3076 21.2923L22.7884 22.7753C22.8477 22.6925 22.9128 22.6147 22.9832 22.5419C23.3415 22.1733 23.8362 21.9458 24.3828 21.9458C24.8194 21.9458 25.223 22.0915 25.5506 22.3379L27.0527 21.0422C27.2536 20.8695 27.5526 20.8966 27.7206 21.1033C27.8886 21.31 27.8622 21.6175 27.6612 21.7903L26.1601 23.0851C26.2893 23.3555 26.3619 23.6599 26.3619 23.9814C26.3619 24.5436 26.1403 25.0524 25.7824 25.4209C25.424 25.7895 24.9293 26.017 24.3828 26.017C23.8362 26.017 23.3415 25.7891 22.9832 25.4209C22.6248 25.0524 22.4036 24.5436 22.4036 23.9814C22.4036 23.877 22.4111 23.7747 22.426 23.6748L18.9453 22.1919C18.8859 22.2746 18.8209 22.3524 18.7505 22.4252C18.3921 22.7938 17.8975 23.0213 17.3509 23.0213C16.8044 23.0213 16.3097 22.7934 15.9513 22.4252C15.881 22.3529 15.8159 22.2746 15.7565 22.1919L12.2753 23.6748C12.2899 23.7747 12.2978 23.8774 12.2978 23.9814C12.2978 24.5436 12.0762 25.0524 11.7182 25.4209C11.3599 25.7895 10.8652 26.017 10.3186 26.017C9.77207 26.017 9.2774 25.7891 8.91903 25.4209C8.56067 25.0524 8.3395 24.5436 8.3395 23.9814C8.3395 23.6431 8.41996 23.3238 8.56199 23.043L6.6919 21.352L6.69234 21.3516ZM22.2506 41.0277V28.6785C22.2506 28.409 22.4617 28.1901 22.7224 28.1901H26.748C27.0087 28.1901 27.2198 28.409 27.2198 28.6785V41.0277H22.2506ZM15.1308 41.0277H20.1V26.1296C20.1 25.8601 19.8889 25.6412 19.6282 25.6412H15.6026C15.3419 25.6412 15.1308 25.8601 15.1308 26.1296V41.0277ZM8.01103 41.0277V28.8151C8.01103 28.5456 8.2221 28.3267 8.48284 28.3267H12.5084C12.7691 28.3267 12.9802 28.5456 12.9802 28.8151V41.0277H8.01103ZM28.2592 7.67274C26.7919 8.94086 25.9631 10.7028 25.8092 12.5263C25.6553 14.3498 26.1768 16.2325 27.4097 17.7412C28.4707 19.0401 29.8875 19.8524 31.3917 20.1549C32.9246 20.4629 34.5471 20.2404 35.9761 19.4621C36.1872 19.3476 36.444 19.4137 36.5803 19.6068L36.8032 19.8795C36.8182 19.8949 36.8323 19.9111 36.8446 19.9279C36.8705 19.9514 36.9044 19.965 36.94 19.9681C36.976 19.9713 37.0117 19.9641 37.0411 19.9455C37.0578 19.9297 37.0754 19.9152 37.0939 19.9021L38.4843 18.7005C38.5168 18.6724 38.5353 18.6308 38.5392 18.5865C38.5432 18.5417 38.5317 18.4974 38.5045 18.4644L38.2341 18.1333C38.0881 17.9547 38.0885 17.6992 38.2226 17.5219L38.2213 17.5205C39.2137 16.2058 39.7066 14.6013 39.6759 12.9967C39.6455 11.4215 39.1108 9.84672 38.0494 8.54695C36.8164 7.03778 35.1033 6.18529 33.3309 6.027C31.5579 5.86871 29.7274 6.40508 28.2606 7.6732L28.2592 7.67274ZM39.3272 22.3126L37.8489 20.5185L38.902 19.6081L40.3807 21.4031L39.3272 22.3126ZM41.3775 21.816L39.5338 23.4071L39.5294 23.4098C39.4956 23.441 39.4758 23.4858 39.4718 23.5332C39.4679 23.5816 39.4811 23.6314 39.5127 23.6698L39.5154 23.6743L42.7587 27.6379C42.8466 27.7455 42.9719 27.8066 43.1034 27.8183C43.2336 27.8301 43.3672 27.7917 43.4732 27.7003L44.8227 26.5357L44.8236 26.5367C44.9278 26.4467 44.9867 26.3182 44.9981 26.1843C45.0091 26.0514 44.9722 25.9148 44.8838 25.8063L44.8847 25.8054L41.6383 21.8377C41.6075 21.7998 41.5618 21.7785 41.513 21.774C41.465 21.7699 41.4167 21.7835 41.3789 21.816H41.3775ZM28.7851 9.03674C27.7615 10.0896 27.1287 11.5436 27.1287 13.1495C27.1287 14.7555 27.7619 16.2099 28.7851 17.2623C29.8083 18.3147 31.2224 18.9659 32.7839 18.9659C34.3453 18.9659 35.7594 18.3147 36.7826 17.2623C37.8062 16.2095 38.439 14.7555 38.439 13.1495C38.439 11.5436 37.8058 10.0891 36.7826 9.03674C35.7594 7.98389 34.3453 7.3331 32.7839 7.3331C31.2224 7.3331 29.8083 7.98435 28.7851 9.03674ZM32.7839 8.30997C34.0832 8.30997 35.2599 8.85177 36.1111 9.72733C36.9629 10.6029 37.4892 11.8131 37.4892 13.1495C37.4892 14.4859 36.9624 15.6962 36.1111 16.5717C35.2599 17.4473 34.0832 17.9891 32.7839 17.9891C31.4845 17.9891 30.3078 17.4473 29.4566 16.5717C28.6048 15.6962 28.0785 14.4859 28.0785 13.1495C28.0785 11.8131 28.6053 10.6029 29.4566 9.72733C30.3078 8.85131 31.4845 8.30997 32.7839 8.30997ZM33.3704 34.8509C33.3704 34.5813 33.5832 34.3624 33.8453 34.3624C34.1074 34.3624 34.3202 34.5813 34.3202 34.8509V37.0456C34.3202 37.3152 34.1074 37.5341 33.8453 37.5341C33.5832 37.5341 33.3704 37.3152 33.3704 37.0456V34.8509ZM33.3704 30.7489C33.3704 30.4794 33.5832 30.2605 33.8453 30.2605C34.1074 30.2605 34.3202 30.4794 34.3202 30.7489V32.9437C34.3202 33.2133 34.1074 33.4321 33.8453 33.4321C33.5832 33.4321 33.3704 33.2133 33.3704 32.9437V30.7489ZM33.3704 26.647C33.3704 26.3775 33.5832 26.1586 33.8453 26.1586C34.1074 26.1586 34.3202 26.3775 34.3202 26.647V28.8418C34.3202 29.1113 34.1074 29.3302 33.8453 29.3302C33.5832 29.3302 33.3704 29.1113 33.3704 28.8418V26.647ZM30.2683 24.7398C30.2683 25.0094 30.0555 25.2283 29.7934 25.2283C29.5313 25.2283 29.3185 25.0094 29.3185 24.7398V22.7495C29.3185 22.4799 29.5313 22.2611 29.7934 22.2611H33.8453C34.1074 22.2611 34.3202 22.4799 34.3202 22.7495V24.7398C34.3202 25.0094 34.1074 25.2283 33.8453 25.2283C33.5832 25.2283 33.3704 25.0094 33.3704 24.7398V23.2379H30.2683V24.7398ZM30.2683 28.8418C30.2683 29.1113 30.0555 29.3302 29.7934 29.3302C29.5313 29.3302 29.3185 29.1113 29.3185 28.8418V26.647C29.3185 26.3775 29.5313 26.1586 29.7934 26.1586C30.0555 26.1586 30.2683 26.3775 30.2683 26.647V28.8418ZM30.2683 32.9437C30.2683 33.2133 30.0555 33.4321 29.7934 33.4321C29.5313 33.4321 29.3185 33.2133 29.3185 32.9437V30.7489C29.3185 30.4794 29.5313 30.2605 29.7934 30.2605C30.0555 30.2605 30.2683 30.4794 30.2683 30.7489V32.9437ZM30.2683 37.0456C30.2683 37.3152 30.0555 37.5341 29.7934 37.5341C29.5313 37.5341 29.3185 37.3152 29.3185 37.0456V34.8509C29.3185 34.5813 29.5313 34.3624 29.7934 34.3624C30.0555 34.3624 30.2683 34.5813 30.2683 34.8509V37.0456ZM33.3955 41.0277V38.9528C33.3955 38.6833 33.6066 38.4644 33.8673 38.4644C34.128 38.4644 34.3391 38.6833 34.3391 38.9528V41.0277H33.3955ZM29.3699 41.0277V38.9528C29.3699 38.6833 29.581 38.4644 29.8418 38.4644C30.1025 38.4644 30.3136 38.6833 30.3136 38.9528V41.0277H29.3699ZM4.47489 43C4.21282 43 4 42.7811 4 42.5116C4 42.242 4.21282 42.0231 4.47489 42.0231H37.4048C37.6668 42.0231 37.8797 42.242 37.8797 42.5116C37.8797 42.7811 37.6668 43 37.4048 43H4.47489Z" fill="url(#paint0_linear_1_1304)"/>
<defs>
<linearGradient id="paint0_linear_1_1304" x1="7.48936" y1="9.60976" x2="28.7421" y2="45.5229" gradientUnits="userSpaceOnUse">
<stop stop-color="#FF2A2A"/>
<stop offset="1" stop-color="#5A0000"/>
</linearGradient>
</defs>
</svg>
