<svg width="48" height="48" viewBox="0 0 48 48" fill="none" xmlns="http://www.w3.org/2000/svg">
<path fill-rule="evenodd" clip-rule="evenodd" d="M28.8636 41.9636C29.2924 42.1433 29.4054 42.6805 29.0448 43.0399L27.2693 44.8099C27.016 45.063 26.6048 45.063 26.3514 44.8118C26.0961 44.5606 26.0961 44.1529 26.3494 43.9017C26.4196 43.8322 26.5015 43.7781 26.4605 43.695C26.441 43.6544 26.4001 43.6312 26.3553 43.637C16.6161 44.7268 8 37.191 8 27.3787C8 22.2252 10.4499 17.2745 14.8095 14.1363C15.0998 13.9276 15.5072 13.9914 15.7177 14.2793C15.9282 14.5672 15.8638 14.9711 15.5734 15.1798C8.03854 20.5999 7.12249 31.4633 13.7512 38.0331C17.0508 41.3045 21.5919 42.8407 26.1193 42.3614C26.2245 42.3498 26.2479 42.2069 26.1504 42.1643L26.0121 42.1025C25.6846 41.9556 25.5385 41.575 25.6866 41.2484C25.8347 40.9238 26.2187 40.7789 26.5481 40.9257L28.8636 41.9636ZM24.4979 31.2584C26.6593 31.2584 28.4134 29.5213 28.4134 27.3764C28.4134 25.2335 26.6613 23.4944 24.4979 23.4944C22.3365 23.4944 20.5824 25.2315 20.5824 27.3764C20.5844 29.5213 22.3365 31.2584 24.4979 31.2584ZM25.1508 32.6014V36.7462C25.1508 38.2476 26.9887 39.0012 28.0587 37.9404C28.4036 37.5983 28.5927 37.1172 28.5537 36.6167C28.5089 36.0312 29.2319 35.6699 29.686 36.1375C29.9764 36.437 30.4403 36.6129 30.8729 36.6129C32.1067 36.6129 32.9115 35.3588 32.4457 34.2651H32.4438C32.3541 34.0545 32.2216 33.8651 32.0579 33.7086C31.6661 33.3337 31.8825 32.6748 32.4301 32.6052C35.0261 32.2729 37.0258 30.0314 37.0258 27.3766C37.0258 24.7216 35.0436 22.4956 32.4223 22.1459C31.8766 22.0725 31.6778 21.4058 32.0578 21.0426C33.1415 20.0068 32.4145 18.1383 30.8709 18.1383C30.409 18.1383 29.9802 18.318 29.6606 18.6368C29.2357 19.06 28.5068 18.7276 28.5516 18.1344H28.5497C28.6725 16.5867 26.7644 15.7016 25.6457 16.8108C25.3378 17.1161 25.1468 17.5393 25.1468 18.005V22.1498C25.1468 22.202 25.1838 22.2445 25.2365 22.2522C27.5245 22.5749 29.3351 24.37 29.6606 26.6385C29.6684 26.6888 29.7113 26.7274 29.7639 26.7274H31.8123C31.861 26.7274 31.9019 26.6965 31.9136 26.6501C32.1748 25.6337 32.9777 24.8222 34.0087 24.5478C34.3557 24.455 34.7123 24.6599 34.8059 25.0057C34.8975 25.3497 34.6929 25.7033 34.344 25.7961C33.2097 26.0975 32.7536 27.4521 33.4631 28.3699C33.6794 28.6501 33.9873 28.8607 34.344 28.9535C34.6909 29.0462 34.8975 29.3998 34.8059 29.7438C34.7123 30.0877 34.3557 30.2926 34.0087 30.2017C32.9777 29.9274 32.1748 29.1158 31.9136 28.0994C31.9019 28.053 31.861 28.0221 31.8123 28.0221H29.7639C29.7113 28.0221 29.6684 28.0588 29.6606 28.111C29.3351 30.3795 27.5246 32.1746 25.2365 32.4973C25.1877 32.507 25.1508 32.5511 25.1508 32.6014ZM23.7573 32.499C21.4692 32.1763 19.6586 30.3812 19.3331 28.1126C19.3253 28.0624 19.2825 28.0237 19.2298 28.0237H17.1815C17.1327 28.0237 17.0918 28.0547 17.0801 28.101C16.819 29.1174 16.016 29.929 14.985 30.2034C14.6381 30.2961 14.2814 30.0913 14.1879 29.7454C14.0943 29.4015 14.3009 29.0478 14.6498 28.9551C15.784 28.6536 16.2401 27.2991 15.5307 26.3813C15.3143 26.1011 15.0064 25.8905 14.6498 25.7977C14.3028 25.705 14.0962 25.3513 14.1879 25.0074C14.2795 24.6634 14.6381 24.4586 14.985 24.5494C16.016 24.8238 16.819 25.6354 17.0801 26.6518C17.0918 26.6981 17.1327 26.7291 17.1815 26.7291H19.2298C19.2825 26.7291 19.3253 26.6923 19.3331 26.6402C19.6586 24.3717 21.4692 22.5766 23.7573 22.2538C23.808 22.2461 23.8469 22.2036 23.8469 22.1514V18.0066C23.8469 16.5052 22.0091 15.7516 20.9391 16.8124C20.5941 17.1545 20.4051 17.6356 20.4441 18.1361C20.4889 18.7216 19.7658 19.0829 19.3117 18.6153C19.0194 18.3158 18.5575 18.1399 18.1248 18.1399C16.8911 18.1399 16.0862 19.394 16.552 20.4877H16.554C16.6436 20.6983 16.7762 20.8877 16.9399 21.0442C17.3316 21.4191 17.1153 22.078 16.5676 22.1476C13.9716 22.4799 11.972 24.7214 11.972 27.3762C11.972 30.0312 13.9541 32.2572 16.5755 32.6069C17.1212 32.6803 17.32 33.347 16.9399 33.7102C15.8563 34.746 16.5833 36.6145 18.1268 36.6145C18.5887 36.6145 19.0175 36.4348 19.3371 36.116C19.762 35.6928 20.4909 36.0252 20.4461 36.6184H20.4481C20.3253 38.1661 22.2314 39.0512 23.352 37.942C23.66 37.6367 23.851 37.2135 23.851 36.7478V32.603C23.8471 32.5508 23.808 32.5067 23.7573 32.499ZM25.8563 5.28417V14.5939C25.8563 14.6847 25.9635 14.7311 26.0317 14.6692L28.0995 12.7775C28.7505 12.1824 29.5515 11.8809 30.4812 11.8809H38.1248C39.53 11.8809 40.678 10.8529 40.678 9.59693V5.28399C40.678 4.02798 39.53 3 38.1248 3L28.4091 3.00193C27.0058 3.00193 25.8563 4.03008 25.8563 5.28417ZM28.8596 9.56812C28.4991 9.56812 28.2087 9.27827 28.2087 8.92272C28.2087 8.56524 28.501 8.27732 28.8596 8.27732H36.0453C36.4059 8.27732 36.6963 8.56717 36.6963 8.92272C36.6963 9.2802 36.4039 9.56812 36.0453 9.56812H28.8596ZM28.8596 6.60781C28.4991 6.60781 28.2087 6.31796 28.2087 5.96241C28.2087 5.60494 28.501 5.31702 28.8596 5.31702H37.6768C38.0374 5.31702 38.3278 5.60686 38.3278 5.96241C38.3278 6.31989 38.0354 6.60781 37.6768 6.60781H28.8596ZM10.9918 11.881H18.6355C19.5671 11.881 20.3681 12.1824 21.0171 12.7776L23.0849 14.6693C23.1512 14.7311 23.2603 14.6828 23.2603 14.594V5.28425C23.2603 4.02823 22.1124 3.00026 20.7072 3.00026L10.9914 3.00219C9.58624 3.00219 8.4383 4.03016 8.4383 5.28618V9.59912C8.4383 10.8532 9.58661 11.881 10.9918 11.881ZM20.9081 8.92069C20.9081 9.27817 20.6158 9.56609 20.2572 9.56609L13.0715 9.56802C12.711 9.56802 12.4206 9.27818 12.4206 8.92263C12.4206 8.56515 12.7129 8.27723 13.0715 8.27723L20.2572 8.2753C20.6177 8.2753 20.9081 8.56514 20.9081 8.92069ZM20.9081 5.96232C20.9081 6.31979 20.6158 6.60771 20.2572 6.60771H11.44C11.0794 6.60771 10.789 6.31787 10.789 5.96232C10.789 5.60484 11.0814 5.31692 11.44 5.31692L20.2572 5.31499C20.6177 5.31499 20.9081 5.60484 20.9081 5.96232ZM35.268 17.0617C35.3615 17.4057 35.1549 17.7593 34.8061 17.8521C34.4591 17.9448 34.1025 17.74 34.0089 17.3941L33.3502 14.9672C33.2274 14.5266 33.5373 14.0899 34.0849 14.144L36.5796 14.3817C36.9363 14.4145 37.1994 14.7295 37.1663 15.0831C37.1331 15.4367 36.8154 15.6976 36.4588 15.6647C36.3204 15.6512 36.2015 15.6145 36.1586 15.7053C36.1391 15.7459 36.1469 15.7923 36.1801 15.8232C42.5939 22.1708 42.6233 32.549 36.1684 38.951C35.0809 40.0292 33.7984 40.9857 32.4614 41.7161C32.1457 41.8881 31.7501 41.7741 31.5786 41.4611C31.4051 41.148 31.5201 40.7558 31.8358 40.5857C36.7141 37.925 39.7 32.8372 39.7 27.3825C39.7 23.572 38.2773 19.8541 35.4318 16.9153C35.3577 16.838 35.2272 16.9114 35.2564 17.0138L35.268 17.0617Z" fill="url(#paint0_linear_1_1309)"/>
<defs>
<linearGradient id="paint0_linear_1_1309" x1="10.8085" y1="7.09756" x2="37.8862" y2="39.5413" gradientUnits="userSpaceOnUse">
<stop stop-color="#FF2A2A"/>
<stop offset="1" stop-color="#5A0000"/>
</linearGradient>
</defs>
</svg>
