<svg width="48" height="48" viewBox="0 0 48 48" fill="none" xmlns="http://www.w3.org/2000/svg">
<path d="M32.8193 31.4199C37.08 31.4199 41.0427 33.8804 43.001 37.7129C41.0161 41.5991 37.1461 44 32.8193 44C28.4926 44 24.6158 41.5992 22.6377 37.7129C24.596 33.8804 28.5591 31.4199 32.8193 31.4199ZM32.8193 33.0938C30.3185 33.0938 28.2812 35.1589 28.2812 37.707C28.2815 40.255 30.3188 42.3252 32.8193 42.3252C35.3264 42.3252 37.364 40.2485 37.3643 37.707C37.3643 35.1653 35.3202 33.0938 32.8193 33.0938ZM32.8184 34.4385C34.598 34.4385 36.041 35.8973 36.041 37.7061C36.041 39.5148 34.5914 40.9805 32.8184 40.9805C31.0455 40.9802 29.6035 39.5079 29.6035 37.7061C29.6035 35.9042 31.0455 34.4387 32.8184 34.4385ZM21.374 37.2891C21.3476 37.3361 21.3275 37.3768 21.3076 37.4238C21.2614 37.5179 21.2354 37.6053 21.2354 37.7061C21.2354 37.8068 21.2614 37.9147 21.3076 38.0088C21.3672 38.1365 21.4336 38.2647 21.4932 38.3857H5.66113C5.29747 38.3855 5 38.0826 5 37.7129C5.00008 37.3364 5.29829 37.041 5.66211 37.041H7.9082V23.7373H13.2139V37.041H15.9092V17.125H21.374V37.2891ZM29.4121 30.5518C27.3943 31.1232 25.5413 32.1991 24.0264 33.6514V21.3467H29.4121V30.5518ZM37.5488 31.0088C36.0671 30.4038 34.4664 30.0743 32.8193 30.0742C32.5614 30.0742 32.3029 30.0804 32.0449 30.1006V14.1523H37.5488V31.0088ZM35.5068 5.00293C35.5597 5.00296 35.6096 5.01977 35.6592 5.0332C35.6921 5.04154 35.7265 5.04527 35.7578 5.05859C35.7925 5.07372 35.8214 5.10217 35.8545 5.12402C35.8925 5.15252 35.9338 5.17473 35.9668 5.20996C35.9717 5.21487 35.9765 5.21669 35.9814 5.22168C36.0062 5.25019 36.0164 5.28523 36.0361 5.31543C36.0609 5.35401 36.087 5.38973 36.1035 5.43164C36.1234 5.48374 36.1282 5.53607 36.1348 5.58984C36.1381 5.6184 36.1514 5.6436 36.1514 5.67383V8.93848C36.1513 9.30984 35.8556 9.6103 35.4902 9.61035C35.1248 9.61035 34.8282 9.30987 34.8281 8.93848L34.8311 8.93652V7.18359L27.1934 14.1816C27.1835 14.19 27.17 14.193 27.1602 14.2012C27.1155 14.2382 27.0669 14.2665 27.0156 14.29C26.9958 14.2984 26.9759 14.3087 26.9561 14.3154C26.8884 14.3389 26.8209 14.3544 26.75 14.3545H26.748C26.6687 14.3545 26.5894 14.3339 26.5117 14.3037C26.4968 14.2987 26.483 14.2958 26.4697 14.2891C26.4599 14.2841 26.4502 14.2823 26.4404 14.2773L18.748 10.1689L9.74707 18.2881C9.6215 18.4021 9.46285 18.4569 9.30762 18.457C9.12569 18.457 8.94316 18.382 8.8125 18.2324C8.57103 17.9551 8.59624 17.5293 8.86914 17.2822L18.2119 8.85449C18.2152 8.85113 18.2203 8.85102 18.2236 8.84766C18.2616 8.81582 18.3057 8.79688 18.3486 8.77344C18.3817 8.75664 18.4119 8.7315 18.4482 8.71973C18.4846 8.70798 18.5226 8.70912 18.5605 8.7041C18.6069 8.69738 18.6519 8.68609 18.6982 8.68945C18.7295 8.69118 18.7607 8.70615 18.792 8.71289C18.8449 8.72466 18.8986 8.73357 18.9482 8.75879C18.9514 8.76017 18.9559 8.76027 18.959 8.76172L26.6484 12.8682L33.7705 6.34473H32.2783C31.9128 6.34473 31.6162 6.04336 31.6162 5.67188C31.6164 5.30054 31.9129 5 32.2783 5H35.4902C35.4968 5.00003 35.5003 5.00293 35.5068 5.00293Z" fill="url(#paint0_linear_1_1291)"/>
<defs>
<linearGradient id="paint0_linear_1_1291" x1="8.23412" y1="8.80488" x2="31.909" y2="43.983" gradientUnits="userSpaceOnUse">
<stop stop-color="#FF2A2A"/>
<stop offset="1" stop-color="#5A0000"/>
</linearGradient>
</defs>
</svg>
