<svg width="48" height="48" viewBox="0 0 48 48" fill="none" xmlns="http://www.w3.org/2000/svg">
<path fill-rule="evenodd" clip-rule="evenodd" d="M38.8501 9.14698C39.6376 9.93458 39.7217 11.1857 39.0449 12.0718C38.3681 12.9578 37.1396 13.2039 36.1716 12.6502L34.1597 14.6622L33.3353 13.8377L35.3492 11.8236H35.3472C34.7914 10.8576 35.0375 9.62695 35.9255 8.95009C36.8115 8.27322 38.0625 8.35734 38.8501 9.14698ZM23.4155 10.2114L23.4135 7.3646C22.3409 7.07335 21.6477 6.03141 21.7954 4.92798C21.9431 3.82451 22.8844 3 23.998 3C25.1096 3 26.0509 3.82451 26.1986 4.92798C26.3462 6.03146 25.6551 7.07335 24.5805 7.3646V10.2135L24 10.2155L23.4155 10.2114ZM37.7859 23.4158H40.6325C40.8539 22.5995 41.5184 21.978 42.349 21.816C43.1796 21.6539 44.0286 21.9759 44.5434 22.6466C45.0561 23.3193 45.1443 24.2238 44.7711 24.9827C44.3958 25.7416 43.6246 26.2216 42.7776 26.2216V26.2195C41.7747 26.2216 40.895 25.5488 40.6324 24.5807H37.7817V23.4157L37.7859 23.4158ZM24.5827 37.7852V40.6321C25.3989 40.8536 26.0203 41.5181 26.1823 42.3488C26.3444 43.1794 26.0224 44.0285 25.3518 44.5434C24.6791 45.0561 23.7747 45.1443 23.0159 44.771C22.257 44.3957 21.7771 43.6245 21.7771 42.7774H21.7792C21.7771 41.7744 22.4498 40.8946 23.4178 40.6321V37.7811H24.0003L24.5827 37.7852ZM14.6645 34.159L12.6506 36.1731H12.6527C13.2044 37.1371 12.9562 38.3636 12.0723 39.0384C11.1883 39.7132 9.94141 39.6291 9.15593 38.8415C8.3684 38.0559 8.28639 36.8089 8.9611 35.9249C9.6379 35.0409 10.8622 34.7948 11.8261 35.3465L13.8401 33.3324L14.6645 34.1569L14.6645 34.159ZM10.2142 24.5829L7.36755 24.5808C7.14606 25.3972 6.48158 26.0186 5.651 26.1807C4.82042 26.3427 3.97136 26.0207 3.45658 25.35C2.94387 24.6773 2.8557 23.7728 3.22894 23.0139C3.60424 22.255 4.37537 21.775 5.22238 21.775V21.7771C6.22528 21.775 7.10505 22.4478 7.36756 23.4159H10.2162L10.2183 23.9984V24.5809L10.2142 24.5829ZM13.84 14.6618L11.8261 12.6477V12.6497C10.8622 13.2015 9.63579 12.9533 8.96109 12.0693C8.28634 11.1853 8.37045 9.93826 9.15797 9.15271C9.94346 8.36511 11.1904 8.2831 12.0743 8.95786C12.9582 9.63473 13.2043 10.8592 12.6527 11.8231L14.6666 13.8372L13.8421 14.6617L13.84 14.6618ZM24.0002 17.0533C20.6881 17.0533 17.8354 19.3935 17.1891 22.6442C16.5431 25.893 18.2802 29.1461 21.3421 30.4157C24.402 31.6832 27.9338 30.6126 29.7734 27.856C31.6151 25.1014 31.2521 21.4302 28.91 19.0879C27.6098 17.7835 25.8419 17.0513 24.0002 17.0533ZM32.694 30.4692L32.1731 29.7801H32.171C32.0275 29.5873 32.0152 29.3248 32.1444 29.1197C32.7186 28.2069 33.137 27.202 33.377 26.1518C33.4262 25.9057 33.6231 25.7191 33.8712 25.6862L36.6214 25.3068V22.6856L33.8774 22.3082H33.8753C33.6333 22.2754 33.4364 22.0969 33.3831 21.859C33.2642 21.3319 33.1001 20.815 32.893 20.3166C32.6879 19.8264 32.4438 19.3547 32.1608 18.9055C32.0152 18.6984 32.0193 18.4194 32.1711 18.2164L33.8507 16.0033L32.9237 15.0763L31.9968 14.1472L29.7818 15.827V15.829C29.589 15.9746 29.3265 15.9849 29.1214 15.8557C28.2088 15.2793 27.206 14.863 26.1539 14.6209C25.9098 14.5717 25.7232 14.3728 25.6904 14.1266L25.313 11.3762H22.6879L22.3106 14.1205V14.1225C22.2778 14.3646 22.0993 14.5615 21.8614 14.6148C21.3344 14.7337 20.8175 14.8978 20.3192 15.105C19.829 15.3101 19.3574 15.5542 18.9082 15.8372C18.7011 15.9828 18.4221 15.9787 18.2212 15.8269L16.0062 14.1471L15.0792 15.0742L14.1502 16.0013L15.8299 18.2164H15.8319C15.9775 18.4092 15.9878 18.6717 15.8586 18.8768C15.2823 19.7895 14.866 20.7925 14.6239 21.8446C14.5747 22.0908 14.3778 22.2774 14.1297 22.3102L11.3795 22.6897V25.3109L14.1235 25.6883H14.1256C14.3676 25.7211 14.5645 25.8995 14.6178 26.1375C14.7367 26.6646 14.9008 27.1815 15.1079 27.6798C15.313 28.17 15.5571 28.6418 15.8401 29.091C15.9857 29.2981 15.9816 29.5771 15.8298 29.7801L14.1502 31.9931L16.0041 33.8473L18.2191 32.1675H18.217C18.4098 32.0218 18.6723 32.0095 18.8774 32.1388C19.3347 32.4279 19.8167 32.6761 20.3171 32.8853C20.8114 33.0904 21.322 33.2525 21.845 33.3714C22.0891 33.4207 22.2757 33.6196 22.3085 33.8657L22.6879 36.6162H25.313L25.6904 33.8719V33.8698C25.7232 33.6278 25.9016 33.4309 26.1395 33.3776C27.1855 33.1397 28.1842 32.7274 29.0927 32.1593C29.2999 32.0137 29.5788 32.0178 29.7798 32.1695L30.4689 32.6905L28.5164 30.7379C26.2646 32.2454 23.4098 32.5285 20.9079 31.4947C18.4038 30.4589 16.5826 28.2438 16.0535 25.5856C15.5223 22.9295 16.355 20.1832 18.2705 18.2673C20.186 16.3516 22.9321 15.5189 25.5882 16.0501C28.2461 16.5793 30.461 18.4006 31.4968 20.9049C32.5304 23.4071 32.2474 26.2621 30.74 28.5141L32.694 30.4692ZM32.5135 32.512C33.0365 31.9952 33.8774 31.9952 34.3982 32.512L39.1829 37.2971C39.7018 37.8201 39.7018 38.6611 39.1829 39.182C38.662 39.6989 37.8211 39.6989 37.2982 39.182L32.5135 34.3969C31.9967 33.876 31.9967 33.035 32.5135 32.512ZM31.9988 31.425C31.888 31.5029 31.7855 31.5911 31.6891 31.6875C31.5927 31.7839 31.5045 31.8865 31.4266 31.9972L29.4434 30.0139C29.5439 29.9237 29.6403 29.8314 29.7367 29.735C29.8331 29.6386 29.9254 29.5401 30.0156 29.4417L31.9988 31.425ZM22.9443 19.2582H25.0546L24.5706 25.8955H23.4283L22.9443 19.2582ZM24.0005 26.5766C24.4373 26.5766 24.8331 26.8391 24.9992 27.2431C25.1674 27.6472 25.0751 28.1127 24.7654 28.4225C24.4557 28.7322 23.9922 28.8245 23.5882 28.6563C23.1821 28.4902 22.9197 28.0943 22.9197 27.6575C22.9197 27.3703 23.0324 27.0955 23.2355 26.8924C23.4385 26.6894 23.7134 26.5766 24.0005 26.5766Z" fill="url(#paint0_linear_1_1299)"/>
<defs>
<linearGradient id="paint0_linear_1_1299" x1="6.57447" y1="7.09756" x2="31.8153" y2="45.5885" gradientUnits="userSpaceOnUse">
<stop stop-color="#FF2A2A"/>
<stop offset="1" stop-color="#5A0000"/>
</linearGradient>
</defs>
</svg>
