<svg width="48" height="48" viewBox="0 0 48 48" fill="none" xmlns="http://www.w3.org/2000/svg">
<path d="M14.3419 13.2817C14.3419 13.5548 14.1186 13.7774 13.8445 13.7774C13.5704 13.7774 13.3471 13.5548 13.3471 13.2817C13.3471 13.0085 13.5704 12.7859 13.8445 12.7859C14.1186 12.7859 14.3419 13.0139 14.3419 13.2817ZM27.2998 14.7833L26.7189 17.6636C27.347 18.1033 27.759 18.827 27.759 19.6465C27.759 19.9342 27.6991 20.2074 27.6066 20.4661L30.1117 22.9122C30.3949 22.7964 30.7017 22.7312 31.023 22.7312C31.3116 22.7312 31.5894 22.7909 31.8453 22.8832L33.6769 20.9473C33.5426 20.647 33.4682 20.3177 33.4682 19.9649C33.4682 18.9699 34.0727 18.1123 34.9368 17.7377V15.1813C34.3232 14.9136 33.8494 14.4033 33.6225 13.7737L28.9535 13.5041C28.6231 14.1428 28.0241 14.6259 27.2998 14.7833ZM31.0212 24.6672C30.747 24.6672 30.5238 24.8898 30.5238 25.1629C30.5238 25.4361 30.7471 25.6587 31.0212 25.6587C31.2953 25.6587 31.5186 25.4361 31.5186 25.1629C31.5186 24.8843 31.2953 24.6672 31.0212 24.6672ZM25.319 19.1509C25.0449 19.1509 24.8216 19.3735 24.8216 19.6467C24.8216 19.9199 25.0449 20.1424 25.319 20.1424C25.5931 20.1424 25.8164 19.9199 25.8164 19.6467C25.8164 19.3735 25.5931 19.1509 25.319 19.1509ZM27.285 12.4064C27.285 12.1332 27.0617 11.9106 26.7876 11.9106C26.5135 11.9106 26.2902 12.1332 26.2902 12.4064C26.2902 12.6796 26.5135 12.9021 26.7876 12.9021C27.0617 12.9021 27.285 12.6796 27.285 12.4064ZM28.8408 6.80673C29.1149 6.80673 29.3382 6.58419 29.3382 6.311C29.3382 6.03782 29.1149 5.81528 28.8408 5.81528C28.5667 5.81528 28.3434 6.03782 28.3434 6.311C28.3488 6.5842 28.5667 6.80673 28.8408 6.80673ZM18.2739 16.6994C17.9998 16.6994 17.7765 16.922 17.7765 17.1952C17.7765 17.4683 17.9998 17.6909 18.2739 17.6909C18.548 17.6909 18.7713 17.4683 18.7713 17.1952C18.7713 16.922 18.548 16.6994 18.2739 16.6994ZM26.7876 9.97986C27.8387 9.97986 28.7264 10.6475 29.064 11.5738L33.2465 11.8198L29.7339 8.56867C29.4543 8.67903 29.153 8.74417 28.8371 8.74417C27.8841 8.74417 27.0708 8.19235 26.666 7.40173L21.2055 7.71292L25.4207 10.4033C25.8164 10.1319 26.2848 9.97986 26.7876 9.97986ZM18.2739 7.47405C18.548 7.47405 18.7713 7.25152 18.7713 6.97833C18.7713 6.70514 18.548 6.48261 18.2739 6.48261C17.9998 6.48261 17.7765 6.70514 17.7765 6.97833C17.7765 7.25152 17.9998 7.47405 18.2739 7.47405ZM35.9008 20.4607C36.1749 20.4607 36.3982 20.2381 36.3982 19.965C36.3982 19.6918 36.1749 19.4692 35.9008 19.4692C35.6267 19.4692 35.4034 19.6918 35.4034 19.965C35.4034 20.2381 35.6267 20.4607 35.9008 20.4607ZM35.9008 13.4535C36.1749 13.4535 36.3982 13.231 36.3982 12.9578C36.3982 12.6846 36.1749 12.462 35.9008 12.462C35.6267 12.462 35.4034 12.6846 35.4034 12.9578C35.4034 13.231 35.6267 13.4535 35.9008 13.4535ZM24.3516 12.406C24.3516 12.2757 24.3697 12.1509 24.3879 12.026L19.6338 8.99193C19.2435 9.25064 18.7788 9.40443 18.2759 9.40443C18.1597 9.40443 18.0526 9.38634 17.9419 9.37187L15.9432 12.0712C16.152 12.4276 16.2827 12.8402 16.2827 13.2798C16.2827 13.5675 16.2228 13.8406 16.1302 14.0994L17.1431 15.0528C17.4826 14.8719 17.8638 14.7616 18.2723 14.7616C18.8532 14.7616 19.3832 14.975 19.8008 15.317L24.3736 12.6773C24.3663 12.5923 24.3516 12.5037 24.3516 12.406ZM24.8163 17.2692L25.3972 14.3979C25.379 14.3834 25.3645 14.3708 25.3464 14.3563L20.6936 17.043C20.6936 17.0756 20.7026 17.1082 20.7026 17.1407L23.5182 18.02C23.8595 17.6491 24.3062 17.3759 24.8163 17.2692ZM18.5207 39.2787H15.598C12.7298 39.2787 10.3973 36.9538 10.3973 34.0954V30.6452C10.3973 30.1133 9.96527 29.6773 9.42614 29.6773H7.10253C6.74491 29.6773 6.41995 29.5108 6.20938 29.2232C6.00062 28.9355 5.94435 28.5755 6.0569 28.2372L7.50734 23.8968C7.96662 22.5218 8.10641 21.0527 7.92123 19.5293C7.84135 18.8707 7.7996 18.205 7.7996 17.5464C7.7996 13.0071 9.60765 8.77366 12.8878 5.62554C16.1681 2.48108 20.487 0.841989 25.045 1.01202C33.5317 1.33225 40.5295 8.20031 40.9761 16.6493C41.1159 19.3071 40.6421 21.8743 39.5674 24.2772C38.137 27.4777 37.2348 30.8536 36.8898 34.3093L35.8315 45H21.7644V42.5123C21.7644 40.7302 20.3085 39.2792 18.5204 39.2792L18.5207 39.2787ZM19.9657 18.9375L22.9029 19.8548C23.0136 21.0959 24.0465 22.0729 25.3191 22.0729C25.6585 22.0729 25.9835 22.0042 26.2757 21.8739L28.7482 24.2874C28.6411 24.5551 28.5812 24.8482 28.5812 25.1576C28.5812 26.4964 29.674 27.5838 31.0156 27.5838C32.3589 27.5838 33.4499 26.4946 33.4499 25.1576C33.4499 24.8193 33.3809 24.4954 33.2538 24.2042L35.0982 22.2502C35.3487 22.3388 35.6138 22.3931 35.8933 22.3931C37.2367 22.3931 38.3277 21.3039 38.3277 19.9669C38.3277 18.9718 37.7232 18.1143 36.8591 17.7397V15.1833C37.7195 14.8088 38.3277 13.9512 38.3277 12.9561C38.3277 11.6173 37.2348 10.53 35.8933 10.53C35.5502 10.53 35.2199 10.6041 34.9222 10.7344L31.0973 7.19556C31.2044 6.92237 31.2697 6.62564 31.2697 6.31629C31.2697 4.97747 30.1769 3.8901 28.8354 3.8901C27.7897 3.8901 26.9075 4.55229 26.559 5.475L20.3921 5.82237C19.9782 5.07154 19.1831 4.55771 18.2682 4.55771C16.9249 4.55771 15.8338 5.64688 15.8338 6.98389C15.8338 7.49773 15.9972 7.97534 16.275 8.36796L14.3834 10.9244C14.2073 10.8828 14.0294 10.8593 13.8388 10.8593C12.4955 10.8593 11.4044 11.9484 11.4044 13.2854C11.4044 14.6243 12.4973 15.7116 13.8388 15.7116C14.1783 15.7116 14.5032 15.6429 14.7955 15.5126L15.921 16.5692C15.8647 16.7682 15.8284 16.9763 15.8284 17.1952C15.8284 18.534 16.9212 19.6214 18.2628 19.6214C18.9344 19.6268 19.5282 19.3627 19.9657 18.9375Z" fill="white"/>
</svg>
