<svg width="48" height="48" viewBox="0 0 48 48" fill="none" xmlns="http://www.w3.org/2000/svg">
<path fill-rule="evenodd" clip-rule="evenodd" d="M40.8741 27.326L43 27.8927L40.8741 35.7866V27.326ZM25.6813 6.41334V7.69732C25.6813 8.07486 25.3735 8.38016 24.9948 8.38016C24.6153 8.38016 24.3084 8.074 24.3084 7.69732V6.41334C22.5006 6.50966 20.7939 6.98266 19.2663 7.7558L19.913 8.8695C20.1014 9.19544 19.9882 9.61082 19.6605 9.7983C19.3329 9.98578 18.9153 9.87312 18.7268 9.54718L18.0827 8.43692C17.347 8.91508 16.664 9.4672 16.0441 10.083C15.4251 10.6987 14.87 11.3773 14.3902 12.1091L15.5081 12.7515C15.8357 12.9399 15.9473 13.357 15.7571 13.6829C15.5677 14.0089 15.1484 14.1198 14.8208 13.9315L13.7029 13.2899C12.9256 14.8104 12.4501 16.5089 12.3542 18.3071H13.645C14.0228 18.3071 14.3288 18.6116 14.3288 18.9874C14.3288 19.0717 14.3133 19.1525 14.2856 19.2265L8.96599 17.8238C9.56427 9.53772 16.5118 3 24.9948 3C33.8712 3 41.066 10.1578 41.066 18.9865C41.066 21.453 40.504 23.7879 39.502 25.8734L34.1608 24.4656C34.1764 24.4054 34.1997 24.3469 34.2326 24.291C34.4219 23.9651 34.8412 23.8541 35.1689 24.0425L36.2867 24.684C37.064 23.1636 37.5395 21.4651 37.6354 19.6668H36.3447C35.9669 19.6668 35.6608 19.3624 35.6608 18.9865C35.6608 18.6107 35.9669 18.3063 36.3447 18.3063H37.6354C37.5395 16.5072 37.0631 14.8087 36.2859 13.2873L35.1663 13.9306C34.8386 14.1181 34.421 14.0054 34.2326 13.6795C34.0441 13.3535 34.1574 12.9382 34.485 12.7507L35.6012 12.11C35.1205 11.3781 34.5654 10.6987 33.9464 10.0821C33.3274 9.46634 32.6444 8.91422 31.9078 8.43606L31.2637 9.54632C31.0752 9.87226 30.6576 9.98406 30.33 9.79744C30.0023 9.60996 29.8899 9.19458 30.0775 8.86864L30.7242 7.75494C29.1957 6.98266 27.4891 6.50966 25.6813 6.41334ZM24.9948 16.7626C24.8331 16.7626 24.6758 16.7798 24.5236 16.8125L22.8412 13.9134C22.6519 13.5875 22.2326 13.4765 21.9049 13.6657C21.5772 13.8541 21.4657 14.2712 21.655 14.5971L23.3366 17.4944C22.9769 17.8892 22.7582 18.4129 22.7582 18.9874C22.7582 20.2155 23.7594 21.2114 24.9939 21.2114C26.2285 21.2114 27.2297 20.2155 27.2297 18.9874C27.2297 18.8266 27.2124 18.6692 27.1795 18.5178L32.5104 15.4562C32.838 15.2688 32.9504 14.8534 32.7628 14.5274C32.5744 14.2015 32.1568 14.0897 31.8291 14.2763L26.4957 17.3396C26.0997 16.981 25.5723 16.7626 24.9948 16.7626ZM9.43112 43.7881H34.7375C35.0634 43.1009 35.513 42.48 36.0585 41.952C36.6014 41.4274 37.2395 40.9948 37.945 40.6826V32.0749C37.2386 31.7627 36.6006 31.3301 36.0585 30.8055C35.513 30.2783 35.0634 29.6574 34.7375 28.9694H9.43112C9.10519 29.6574 8.65562 30.2783 8.11009 30.8055C7.56715 31.3301 6.92911 31.7627 6.22363 32.0749V40.6826C6.92997 40.9948 7.56801 41.4274 8.11009 41.952C8.65562 42.48 9.10519 43.1009 9.43112 43.7881ZM4 26.7584H40.1695V46H4V26.7584ZM23.1844 39.7143V40.3034C23.1844 40.5476 22.9856 40.7454 22.7401 40.7454C22.4945 40.7454 22.2957 40.5476 22.2957 40.3034V39.7143C21.9429 39.6308 21.6274 39.4511 21.3793 39.2051C21.0308 38.8586 20.8156 38.3804 20.8156 37.8515C20.8156 37.6073 21.0144 37.4095 21.2599 37.4095C21.5055 37.4095 21.7043 37.6073 21.7043 37.8515C21.7043 38.1362 21.8202 38.3933 22.0078 38.5799C22.1954 38.7665 22.4539 38.8818 22.7401 38.8818C23.0262 38.8818 23.2847 38.7665 23.4723 38.5799C23.6599 38.3933 23.7758 38.1362 23.7758 37.8515C23.7758 37.0792 23.2069 36.9442 22.638 36.8092C21.7268 36.5933 20.8156 36.3775 20.8156 34.9069C20.8156 34.378 21.0308 33.8998 21.3793 33.5532C21.6274 33.3064 21.9429 33.1267 22.2957 33.0441V32.455C22.2957 32.2108 22.4945 32.013 22.7401 32.013C22.9856 32.013 23.1844 32.2108 23.1844 32.455V33.0441C23.5372 33.1275 23.8527 33.3064 24.1009 33.5532C24.4493 33.8998 24.6646 34.3788 24.6646 34.9069C24.6646 35.1511 24.4657 35.3489 24.2202 35.3489C23.9746 35.3489 23.7758 35.1511 23.7758 34.9069C23.7758 34.6222 23.6599 34.3651 23.4723 34.1784C23.2847 33.9918 23.0262 33.8766 22.7401 33.8766C22.4539 33.8766 22.1954 33.9918 22.0078 34.1784C21.8202 34.3651 21.7043 34.6222 21.7043 34.9069C21.7043 35.6791 22.2732 35.8142 22.8421 35.9492C23.7533 36.165 24.6646 36.3809 24.6646 37.8515C24.6646 38.3804 24.4493 38.8586 24.1009 39.2051C23.8527 39.452 23.5372 39.6317 23.1844 39.7143ZM22.7401 30.2267C26.1481 30.2267 28.9112 32.9753 28.9112 36.3654C28.9112 39.7555 26.1481 42.5041 22.7401 42.5041C19.332 42.5041 16.5689 39.7555 16.5689 36.3654C16.568 32.9753 19.3311 30.2267 22.7401 30.2267ZM27.955 26.079H36.5461L7.81873 18.4215L5.75591 26.0781H8.05821L8.583 24.1293C9.3464 24.0098 10.0752 23.7561 10.7357 23.3889C11.3997 23.0199 11.9954 22.5358 12.4899 21.9553L27.955 26.079Z" fill="white"/>
</svg>
