<svg width="48" height="48" viewBox="0 0 48 48" fill="none" xmlns="http://www.w3.org/2000/svg">
<path fill-rule="evenodd" clip-rule="evenodd" d="M26.8096 41.6037H5.39943C4.07668 41.6037 3 40.527 3 39.2043V32.4366C3 25.985 8.28102 20.702 14.7349 20.702H26.0635C29.4452 20.702 32.5011 22.1519 34.642 24.4549C33.6597 24.5861 32.8989 25.1111 32.3 25.956C31.9165 26.4974 31.3075 26.7497 30.6573 26.6389C29.4659 26.44 28.4322 26.6964 27.5648 27.5638C26.6993 28.4292 26.4409 29.469 26.6399 30.6563C26.7506 31.3064 26.4984 31.9155 25.9569 32.299C24.9746 32.9962 24.4188 33.9109 24.4188 35.1393C24.4188 36.3615 24.9705 37.2803 25.9569 37.9796C26.4983 38.3631 26.7506 38.9722 26.6399 39.6222C26.5209 40.3421 26.5681 41.0044 26.8101 41.6033L26.8096 41.6037ZM20.3988 19.0332C24.8142 19.0332 28.4156 15.4321 28.4156 11.0166C28.4156 6.60134 24.8144 3 20.3988 3C15.9832 3 12.382 6.60113 12.382 11.0166C12.382 15.4319 15.9832 19.0332 20.3988 19.0332ZM45 35.14C45 36.0895 44.5796 36.7457 43.8249 37.2809C43.0168 37.8593 42.6272 38.7883 42.7954 39.7644C42.9472 40.677 42.7851 41.4399 42.1125 42.1105C41.4398 42.7831 40.6789 42.9451 39.7663 42.7934C38.784 42.6253 37.855 43.0149 37.2828 43.8229C36.7476 44.5796 36.0913 45 35.1397 45C34.1902 45 33.534 44.5796 32.9987 43.8249C32.4204 43.0169 31.4914 42.6273 30.5152 42.7955C29.6026 42.9472 28.8397 42.7852 28.169 42.1125C27.4964 41.4399 27.3344 40.6791 27.4861 39.7665C27.6543 38.7842 27.2646 37.8552 26.4566 37.283C25.6999 36.7478 25.2815 36.0915 25.2815 35.142C25.2815 34.1925 25.7019 33.5363 26.4566 33.0011C27.2647 32.4227 27.6543 31.4938 27.4861 30.5176C27.3344 29.605 27.4964 28.8421 28.169 28.1715C28.8417 27.4989 29.6026 27.3369 30.5152 27.4886C31.4975 27.6568 32.4265 27.2671 32.9987 26.4591C33.534 25.7024 34.1902 25.2841 35.1397 25.2841C36.0893 25.2841 36.7455 25.7045 37.2808 26.4591C37.8591 27.2672 38.7881 27.6567 39.7643 27.4886C40.6769 27.3368 41.4398 27.4988 42.1104 28.1715C42.7831 28.8441 42.9451 29.605 42.7934 30.5176C42.6252 31.4999 43.0148 32.4289 43.8228 33.0011C44.5796 33.5342 45 34.1905 45 35.14ZM42.0653 35.14C42.0653 31.3174 38.9624 28.2148 35.14 28.2148C31.3175 28.2148 28.2147 31.3176 28.2147 35.14C28.2147 38.9623 31.3175 42.0651 35.14 42.0651C38.9624 42.0651 42.0653 38.9623 42.0653 35.14ZM41.2102 35.14C41.2102 38.4786 38.4846 41.2084 35.1416 41.2084C31.8029 41.2084 29.0731 38.4829 29.0731 35.14C29.0731 31.8013 31.7986 29.0716 35.1416 29.0716C38.4844 29.0778 41.2102 31.8011 41.2102 35.14ZM38.6057 33.8132L36.2431 33.6142L35.3244 31.4302C35.2567 31.2682 35.0209 31.2682 34.9511 31.4302L34.0324 33.6142L31.6698 33.8132C31.4914 33.8296 31.4176 34.049 31.555 34.17L33.3515 35.7183L32.8101 38.0233C32.7691 38.1956 32.9578 38.3391 33.1136 38.2448L35.1399 37.0164L37.1661 38.2448C37.3178 38.3391 37.5065 38.2038 37.4696 38.0233L36.9282 35.7183L38.7247 34.17C38.858 34.049 38.7841 33.8275 38.6057 33.8132Z" fill="white"/>
</svg>
