<svg width="48" height="48" viewBox="0 0 48 48" fill="none" xmlns="http://www.w3.org/2000/svg">
<path d="M42.6357 8C44.4857 8.00022 45.9999 9.50742 46 11.3545V35.5146C45.9999 37.3617 44.4857 38.8689 42.6357 38.8691H5.36523C3.51507 38.8691 2.00008 37.3619 2 35.5146V11.3545C2.0001 9.50728 3.51508 8 5.36523 8H42.6357ZM24.9961 29.8438C24.9479 29.8441 24.9006 29.8582 24.8604 29.8848C24.8202 29.9113 24.7887 29.9491 24.7695 29.9932L24.2061 31.3027L22.7832 31.4375C22.7349 31.4419 22.6884 31.4601 22.6504 31.4902C22.6124 31.5205 22.5834 31.5613 22.5684 31.6074C22.5533 31.6535 22.5526 31.7033 22.5654 31.75C22.5783 31.7967 22.6051 31.8382 22.6416 31.8701L23.7168 32.8086L23.4043 34.1992C23.3939 34.2464 23.3968 34.2957 23.4141 34.3408C23.4313 34.3859 23.4618 34.4249 23.501 34.4531C23.5403 34.4814 23.5873 34.4978 23.6357 34.5C23.6842 34.5021 23.7327 34.4896 23.7744 34.4648L25.0039 33.7363L26.2334 34.4619C26.2753 34.4869 26.3233 34.4992 26.3721 34.4971C26.4209 34.4949 26.4683 34.4789 26.5078 34.4502C26.5473 34.4215 26.5777 34.3816 26.5947 34.3359C26.6116 34.2904 26.6146 34.2407 26.6035 34.1934L26.2861 32.8037L27.3594 31.8633C27.3957 31.8314 27.4217 31.7896 27.4346 31.7432C27.4474 31.6965 27.4467 31.6466 27.4316 31.6006C27.4166 31.5545 27.3876 31.5136 27.3496 31.4834C27.3117 31.4534 27.266 31.4351 27.2178 31.4307L25.793 31.3018L25.2266 29.9941C25.2073 29.9494 25.1747 29.9105 25.1338 29.8838C25.093 29.8573 25.0448 29.8435 24.9961 29.8438ZM18.6963 27.1104C18.6477 27.1104 18.6001 27.1248 18.5596 27.1514C18.519 27.178 18.487 27.2162 18.4678 27.2607L17.8994 28.5684L16.4756 28.6973C16.4272 28.7017 16.3808 28.7198 16.3428 28.75C16.3047 28.7802 16.2758 28.8211 16.2607 28.8672C16.2457 28.9132 16.245 28.9631 16.2578 29.0098C16.2707 29.0564 16.2975 29.098 16.334 29.1299L17.4072 30.0703L17.0908 31.46C17.08 31.507 17.0828 31.5563 17.0996 31.6016C17.1166 31.647 17.1473 31.6872 17.1865 31.7158C17.2255 31.7442 17.2721 31.7602 17.3203 31.7627C17.3688 31.7651 17.4171 31.7531 17.459 31.7285L18.6904 31.0029L19.9189 31.7314C19.9606 31.7561 20.0083 31.7687 20.0566 31.7666C20.1051 31.7645 20.1521 31.748 20.1914 31.7197C20.2307 31.6915 20.261 31.6525 20.2783 31.6074C20.2956 31.5624 20.2994 31.5129 20.2891 31.4658L19.9756 30.0752L21.0518 29.1357C21.0881 29.1039 21.114 29.062 21.127 29.0156C21.1399 28.969 21.1389 28.9191 21.124 28.873C21.1091 28.8271 21.0807 28.7861 21.043 28.7559C21.0052 28.7257 20.9593 28.7078 20.9111 28.7031L19.4883 28.5693L18.9248 27.2607C18.9056 27.2163 18.8735 27.178 18.833 27.1514C18.7925 27.1248 18.7448 27.1104 18.6963 27.1104ZM31.3037 27.1104C31.2552 27.1104 31.2075 27.1248 31.167 27.1514C31.1265 27.178 31.0944 27.2164 31.0752 27.2607L30.5117 28.5693L29.0889 28.7021C29.0407 28.7068 28.9948 28.7257 28.957 28.7559C28.9192 28.7861 28.8909 28.8271 28.876 28.873C28.8611 28.9191 28.8601 28.969 28.873 29.0156C28.886 29.0622 28.9128 29.1039 28.9492 29.1357L30.0244 30.0752L29.7119 31.4658C29.7016 31.513 29.7044 31.5623 29.7217 31.6074C29.739 31.6525 29.7694 31.6915 29.8086 31.7197C29.8479 31.748 29.8949 31.7644 29.9434 31.7666C29.9918 31.7688 30.0403 31.7562 30.082 31.7314L31.3096 31.0029L32.541 31.7285C32.5829 31.7531 32.6311 31.7651 32.6797 31.7627C32.7282 31.7602 32.7753 31.7444 32.8145 31.7158C32.8536 31.6872 32.8834 31.6469 32.9004 31.6016C32.9172 31.5563 32.92 31.5071 32.9092 31.46L32.5928 30.0703L33.667 29.1299C33.7034 29.0979 33.7294 29.0555 33.7422 29.0088C33.7549 28.962 33.7535 28.9123 33.7383 28.8662C33.723 28.8202 33.6944 28.7801 33.6562 28.75C33.618 28.7199 33.572 28.7014 33.5234 28.6973L32.1006 28.5684L31.5322 27.2607C31.5131 27.2164 31.4818 27.178 31.4414 27.1514C31.4008 27.1247 31.3523 27.1104 31.3037 27.1104ZM16.4404 21.4238C16.392 21.4238 16.3442 21.4374 16.3037 21.4639C16.2632 21.4905 16.2311 21.5288 16.2119 21.5732L15.6484 22.8828L14.2246 23.0156C14.1764 23.0203 14.1305 23.0391 14.0928 23.0693C14.0549 23.0997 14.0266 23.1405 14.0117 23.1865C13.9969 23.2324 13.996 23.2817 14.0088 23.3281C14.0217 23.3748 14.0484 23.4173 14.085 23.4492L15.1602 24.3877L14.8477 25.7783C14.8372 25.8255 14.8411 25.8748 14.8584 25.9199C14.8757 25.965 14.9051 26.0049 14.9443 26.0332C14.9836 26.0615 15.0307 26.0769 15.0791 26.0791C15.1276 26.0813 15.1761 26.0696 15.2178 26.0449L16.4453 25.3164L17.6768 26.042C17.7187 26.0666 17.7669 26.0786 17.8154 26.0762C17.864 26.0737 17.911 26.0569 17.9502 26.0283C17.9893 25.9997 18.0192 25.9604 18.0361 25.915C18.053 25.8698 18.0567 25.8205 18.0459 25.7734L17.7285 24.3838L18.8027 23.4434C18.8393 23.4113 18.8651 23.3691 18.8779 23.3223C18.8907 23.2754 18.8902 23.2258 18.875 23.1797C18.8598 23.1336 18.8312 23.0926 18.793 23.0625C18.7547 23.0324 18.7078 23.0139 18.6592 23.0098L17.2363 22.8799L16.6689 21.5723C16.6496 21.5282 16.6176 21.4903 16.5771 21.4639C16.5366 21.4375 16.4888 21.4238 16.4404 21.4238ZM33.5547 21.4238C33.5063 21.4238 33.4585 21.4374 33.418 21.4639C33.3774 21.4905 33.3454 21.5288 33.3262 21.5732L32.7627 22.8828L31.3389 23.0156C31.2905 23.0201 31.245 23.0392 31.207 23.0693C31.1691 23.0995 31.1401 23.1396 31.125 23.1855C31.1099 23.2316 31.1092 23.2814 31.1221 23.3281C31.1349 23.3749 31.1607 23.4172 31.1973 23.4492L32.2734 24.3877L31.9619 25.7783C31.9515 25.8255 31.9554 25.8748 31.9727 25.9199C31.9899 25.965 32.0193 26.0049 32.0586 26.0332C32.0979 26.0615 32.145 26.0769 32.1934 26.0791C32.2418 26.0813 32.2903 26.0696 32.332 26.0449L33.5596 25.3164L34.7891 26.042C34.831 26.067 34.8799 26.0794 34.9287 26.0771C34.9775 26.0749 35.025 26.058 35.0645 26.0293C35.1036 26.0007 35.1334 25.9614 35.1504 25.916C35.1673 25.8705 35.1712 25.8207 35.1602 25.7734L34.8428 24.3838L35.915 23.4434C35.9516 23.4114 35.9783 23.369 35.9912 23.3223C36.004 23.2757 36.0023 23.2266 35.9873 23.1807C35.9722 23.1346 35.9443 23.0937 35.9062 23.0635C35.8682 23.0332 35.8219 23.0142 35.7734 23.0098L34.3506 22.8799L33.7832 21.5732C33.764 21.5287 33.732 21.4905 33.6914 21.4639C33.6509 21.4373 33.6032 21.4239 33.5547 21.4238ZM18.5273 15.1279C18.4788 15.128 18.4311 15.1424 18.3906 15.1689C18.3501 15.1956 18.318 15.2338 18.2988 15.2783L17.7314 16.5859L16.3086 16.7148C16.26 16.719 16.213 16.7374 16.1748 16.7676C16.1367 16.7977 16.1089 16.8387 16.0938 16.8848C16.0785 16.9309 16.077 16.9805 16.0898 17.0273C16.1027 17.0741 16.1285 17.1164 16.165 17.1484L17.2393 18.0889L16.9229 19.4775C16.912 19.5248 16.9147 19.5747 16.9316 19.6201C16.9486 19.6654 16.9785 19.7048 17.0176 19.7334C17.0568 19.762 17.1038 19.7788 17.1523 19.7812C17.2008 19.7837 17.2492 19.7716 17.291 19.7471L18.5225 19.0205L19.75 19.75C19.7917 19.7747 19.8402 19.7863 19.8887 19.7842C19.9371 19.782 19.9842 19.7656 20.0234 19.7373C20.0626 19.709 20.0931 19.67 20.1104 19.625C20.1276 19.5799 20.1305 19.5306 20.1201 19.4834L19.8076 18.0928L20.8828 17.1533C20.9188 17.1213 20.9454 17.0796 20.958 17.0332C20.9705 16.987 20.9689 16.9382 20.9541 16.8926C20.9392 16.8468 20.9116 16.8056 20.874 16.7754C20.8366 16.7453 20.791 16.7266 20.7432 16.7217L19.3203 16.5879L18.7559 15.2783C18.7367 15.2339 18.7055 15.1956 18.665 15.1689C18.6244 15.1423 18.576 15.1279 18.5273 15.1279ZM31.4727 15.1279C31.4242 15.1279 31.3765 15.1424 31.3359 15.1689C31.2953 15.1956 31.2634 15.2338 31.2441 15.2783L30.6807 16.5879L29.2568 16.7217C29.209 16.7266 29.1634 16.7453 29.126 16.7754C29.0884 16.8056 29.0608 16.8468 29.0459 16.8926C29.0311 16.9381 29.0295 16.987 29.042 17.0332C29.0546 17.0796 29.0812 17.1213 29.1172 17.1533L30.1924 18.0928L29.8799 19.4834C29.8695 19.5306 29.8733 19.5798 29.8906 19.625C29.9079 19.6699 29.9375 19.709 29.9766 19.7373C30.0158 19.7656 30.063 19.782 30.1113 19.7842C30.1598 19.7863 30.2083 19.7747 30.25 19.75L31.4775 19.0205L32.709 19.7471C32.7509 19.7716 32.7991 19.7837 32.8477 19.7812C32.8962 19.7788 32.9432 19.762 32.9824 19.7334C33.0215 19.7048 33.0514 19.6654 33.0684 19.6201C33.0853 19.5747 33.089 19.5248 33.0781 19.4775L32.7607 18.0889L33.835 17.1484C33.8715 17.1164 33.8973 17.0741 33.9102 17.0273C33.9229 16.9806 33.9224 16.9308 33.9072 16.8848C33.892 16.8387 33.8633 16.7977 33.8252 16.7676C33.787 16.7374 33.74 16.719 33.6914 16.7148L32.2686 16.5859L31.7012 15.2783C31.682 15.2338 31.65 15.1956 31.6094 15.1689C31.5688 15.1423 31.5212 15.128 31.4727 15.1279ZM24.9961 12.5C24.9479 12.5004 24.9006 12.5145 24.8604 12.541C24.82 12.5677 24.7886 12.6061 24.7695 12.6504L24.2061 13.959L22.7832 14.0928C22.7348 14.0972 22.6884 14.1153 22.6504 14.1455C22.6124 14.1757 22.5834 14.2166 22.5684 14.2627C22.5534 14.3087 22.5526 14.3586 22.5654 14.4053C22.5783 14.4518 22.6052 14.4935 22.6416 14.5254L23.7168 15.4648L23.4043 16.8535C23.3935 16.9008 23.3969 16.9507 23.4141 16.9961C23.4312 17.0413 23.4608 17.0809 23.5 17.1094C23.5394 17.1379 23.5871 17.1541 23.6357 17.1562C23.6842 17.1583 23.7327 17.1459 23.7744 17.1211L25.0039 16.3926L26.2334 17.1191C26.2752 17.144 26.3235 17.1555 26.3721 17.1533C26.4209 17.1511 26.4683 17.1352 26.5078 17.1064C26.5473 17.0777 26.5777 17.0378 26.5947 16.9922C26.6116 16.9466 26.6146 16.8969 26.6035 16.8496L26.2861 15.46L27.3594 14.5195C27.396 14.4878 27.4224 14.446 27.4355 14.3994C27.4487 14.3524 27.4477 14.3022 27.4326 14.2559C27.4175 14.2095 27.3889 14.168 27.3506 14.1377C27.3124 14.1077 27.2662 14.0891 27.2178 14.085L25.793 13.9561L25.2266 12.6484C25.207 12.604 25.1746 12.5664 25.1338 12.54C25.0929 12.5136 25.0448 12.4996 24.9961 12.5Z" fill="white"/>
</svg>
