<svg width="48" height="48" viewBox="0 0 48 48" fill="none" xmlns="http://www.w3.org/2000/svg">
<path d="M38.7781 18.1638H24.3799V13.9315C26.7112 13.518 28.4887 11.467 28.4887 9.0046C28.4887 6.24523 26.2574 4 23.5152 4C20.7729 4 18.5416 6.24523 18.5416 9.0046C18.5416 11.467 20.3191 13.518 22.6504 13.9315V18.1638H9.22082C6.34217 18.1638 4 20.5218 4 23.4173V39.7465C4 42.6437 6.34217 45 9.22082 45H38.7786C41.6578 45 44 42.6432 44 39.7465V23.4179C43.9995 20.5218 41.6573 18.1638 38.7781 18.1638ZM14.4183 26.7209C17.0822 26.7209 19.2494 28.9021 19.2494 31.5827C19.2494 34.2634 17.0822 36.4446 14.4183 36.4446C11.7543 36.4446 9.58717 34.2634 9.58717 31.5827C9.58717 28.9021 11.7543 26.7209 14.4183 26.7209ZM32.6718 36.444C30.0079 36.444 27.8407 34.2628 27.8407 31.5822C27.8407 28.9016 30.0079 26.7204 32.6718 26.7204C35.3358 26.7204 37.5029 28.9016 37.5029 31.5822C37.5029 34.2628 35.3358 36.444 32.6718 36.444Z" fill="#44ADC1"/>
</svg>
