<svg width="56" height="56" viewBox="0 0 56 56" fill="none" xmlns="http://www.w3.org/2000/svg">
<path fill-rule="evenodd" clip-rule="evenodd" d="M30.542 40.0608H6.12686C4.47995 40.0544 3.14536 38.722 3.14111 37.075V35.9211H29.7704V36.3716C29.7661 37.6424 30.0298 38.8983 30.542 40.0608ZM38.8062 44.4129C36.6768 44.4129 34.6346 43.5671 33.1299 42.0626C31.6232 40.558 30.7774 38.5158 30.7753 36.3863C30.7753 34.2569 31.619 32.2147 33.1235 30.7078C34.6281 29.2032 36.6703 28.3553 38.7998 28.3532C40.9271 28.3511 42.9714 29.1948 44.4783 30.6993C45.985 32.2017 46.8329 34.2439 46.8371 36.3713C46.8371 38.5027 45.9914 40.5449 44.4868 42.0514C42.9801 43.558 40.9358 44.4038 38.8067 44.4017L38.8062 44.4129ZM34.1607 41.051C36.3793 43.2738 39.8605 43.6182 42.4718 41.8734C45.0831 40.1287 46.1014 36.7817 44.8986 33.8812C43.6979 30.9784 40.6123 29.3293 37.5331 29.9434C34.4517 30.5555 32.2331 33.2586 32.2352 36.3993C32.2331 38.144 32.926 39.8185 34.1607 41.051ZM42.7356 40.3285H42.7335C44.6057 38.4521 44.8904 35.5152 43.4156 33.3134C41.9408 31.1116 39.1166 30.2596 36.6709 31.2754C34.2228 32.2912 32.8351 34.8965 33.3557 37.4936C33.8742 40.0925 36.1565 41.9626 38.8068 41.9605C40.2859 41.9541 41.699 41.3548 42.734 40.3008L42.7356 40.3285ZM52.3795 47.4922L48.4693 43.5799C48.2759 43.3972 47.9742 43.3972 47.7829 43.5799L46.0149 45.348C45.8321 45.5414 45.8321 45.8431 46.0149 46.0344L49.9271 49.9466C50.6093 50.5948 51.6846 50.5821 52.3497 49.9169C53.017 49.2496 53.0297 48.1743 52.3795 47.4922ZM47.9572 40.0609C49.6062 40.0587 50.9408 38.7221 50.9429 37.0751V35.9212H47.8488V36.3717C47.8446 37.6446 47.5747 38.9005 47.054 40.0608L47.9572 40.0609ZM45.8725 42.0308C45.456 42.5472 44.9821 43.0169 44.4636 43.4334L45.4751 44.4449L46.8777 43.036L45.8725 42.0308ZM31.0816 41.083H20.6261L19.4935 45.2949H34.59L34.301 44.2069C32.9856 43.4483 31.8807 42.3751 31.0816 41.083ZM29.8789 34.8991H3.14133V8.24212C3.14346 6.59308 4.47799 5.25424 6.12708 5.25H47.9574C49.6086 5.25212 50.9431 6.5909 50.9431 8.24212V34.8991H47.7407C47.3411 32.4914 45.9874 30.3472 43.9857 28.953V19.66C43.9857 18.8334 43.3162 18.164 42.4896 18.164H39.7695C38.945 18.1661 38.2798 18.8355 38.2798 19.66V27.3421C36.9962 27.4165 35.7446 27.765 34.6077 28.3643V26.8513C34.6034 26.0289 33.9361 25.3616 33.1116 25.3616H30.3915C29.567 25.3616 28.8976 26.0289 28.8954 26.8513V33.8811H30.1259C30.0154 34.2126 29.9384 34.5549 29.8789 34.8991ZM11.0993 20.0577C11.0716 20.5698 11.2565 21.0693 11.6072 21.4412C11.9599 21.813 12.4508 22.0234 12.963 22.0234C13.4751 22.0234 13.9639 21.813 14.3167 21.4412C14.6694 21.0693 14.8543 20.5698 14.8267 20.0577C14.8246 19.8856 14.8012 19.7134 14.7544 19.5456L21.0912 15.629H21.0933C21.4737 15.9776 21.9816 16.1539 22.498 16.1136C23.0122 16.0753 23.4882 15.8245 23.8134 15.4229L29.9015 18.007H29.8994C29.8952 18.0835 29.8952 18.1622 29.8994 18.2408C29.9547 19.2311 30.7728 20.0067 31.7631 20.0067C32.7555 20.0067 33.5737 19.2311 33.6268 18.2408C33.6141 18.0028 33.5546 17.769 33.4526 17.5544L39.9808 12.5392C40.6736 13.0556 41.632 13.0279 42.295 12.4733C42.958 11.9187 43.1514 10.9794 42.7647 10.2058C42.3758 9.43228 41.5066 9.0285 40.6651 9.22827C39.8235 9.4259 39.2307 10.1782 39.2307 11.0431C39.2285 11.2789 39.2732 11.5106 39.3603 11.7295L32.832 16.7447C32.5175 16.5088 32.1372 16.3792 31.744 16.3749C31.1787 16.3749 30.6454 16.6299 30.2926 17.0719L24.2044 14.4814C24.2108 14.4049 24.2108 14.3284 24.2044 14.2519C24.2044 13.2213 23.3692 12.3861 22.3386 12.3861C21.3079 12.3861 20.4728 13.2213 20.4728 14.2519C20.4749 14.4262 20.4983 14.5983 20.5429 14.7641L14.2061 18.6806C13.66 18.1833 12.8737 18.0537 12.1979 18.3512C11.5222 18.6487 11.0865 19.3181 11.0886 20.0576L11.0993 20.0577ZM15.8212 28.675C15.8212 27.8484 15.1518 27.1789 14.3251 27.1789H11.605C10.7805 27.1811 10.1154 27.8505 10.1154 28.675V33.8814H15.821L15.8212 28.675ZM25.2056 22.8649C25.2056 22.0425 24.5383 21.373 23.7159 21.373H20.9958C20.1713 21.373 19.504 22.0425 19.504 22.8649V33.8813H25.2162L25.2056 22.8649ZM37.5266 46.317H16.5562C15.7317 46.317 15.0644 46.9843 15.0644 47.8089V49.2561V49.2539C15.0644 50.0785 15.7317 50.7479 16.5562 50.75H37.5266C38.3532 50.7479 39.0205 50.0806 39.0226 49.2539V47.8089C39.0205 46.9844 38.3511 46.317 37.5266 46.317Z" fill="url(#paint0_linear_1_352)"/>
<defs>
<linearGradient id="paint0_linear_1_352" x1="7.3724" y1="9.68903" x2="33.6823" y2="53.5294" gradientUnits="userSpaceOnUse">
<stop stop-color="#FF2A2A"/>
<stop offset="1" stop-color="#5A0000"/>
</linearGradient>
</defs>
</svg>
