<svg width="56" height="56" viewBox="0 0 56 56" fill="none" xmlns="http://www.w3.org/2000/svg">
<path d="M28.1816 5.25C30.3313 5.25026 32.0742 6.99383 32.0742 9.14355C32.0741 10.6824 31.1758 11.9956 29.8838 12.6299V18.8047H42.8789C44.7606 18.8047 46.2852 20.3314 46.2852 22.2109L46.2871 41.3896C46.2869 43.2711 44.7624 44.7949 42.8809 44.7949H34.3877L29.4365 50.1973C28.7617 50.9337 27.6015 50.9337 26.9268 50.1973L21.9766 44.7949H13.4834C11.6019 44.7949 10.0774 43.2711 10.0771 41.3896V22.2109C10.0771 20.3293 11.6017 18.8047 13.4834 18.8047H26.4785V12.6299C25.1866 11.9956 24.2882 10.6802 24.2881 9.14355C24.2881 6.99367 26.0318 5.25 28.1816 5.25ZM24.3408 31.8506C23.8661 31.0379 22.8256 30.7613 22.0127 31.2314C21.1996 31.7061 20.9201 32.7474 21.3926 33.5605C22.7932 35.9786 25.3953 37.4795 28.1816 37.4795C30.9678 37.4793 33.5692 35.9764 34.9697 33.5605C35.4401 32.7475 35.1653 31.7062 34.3545 31.2314C33.5436 30.7632 32.498 31.0377 32.0254 31.8506C31.2187 33.2405 29.7842 34.0712 28.1836 34.0713C26.5829 34.0713 25.1455 33.2406 24.3408 31.8506ZM6.67383 37.4346H6.04395C5.10746 37.4346 4.34104 36.6689 4.34082 35.7324V27.8643C4.34091 26.9277 5.10739 26.1611 6.04395 26.1611H6.67383V37.4346ZM50.3184 26.1611C51.2549 26.1611 52.0214 26.9277 52.0215 27.8643V35.7324C52.0213 36.6689 51.2548 37.4346 50.3184 37.4346H49.6885V26.1611H50.3184Z" fill="url(#paint0_linear_146_861)"/>
<defs>
<linearGradient id="paint0_linear_146_861" x1="8.39875" y1="9.68899" x2="35.2127" y2="52.539" gradientUnits="userSpaceOnUse">
<stop stop-color="#FF2A2A"/>
<stop offset="1" stop-color="#5A0000"/>
</linearGradient>
</defs>
</svg>
