<svg width="48" height="48" viewBox="0 0 48 48" fill="none" xmlns="http://www.w3.org/2000/svg">
<path d="M21.959 16.876C23.3282 16.6446 24.7294 16.6446 26.0986 16.876C26.6046 16.9619 26.9764 17.4045 26.9766 17.9248H26.9746V20.8691C27.3076 20.9848 27.6311 21.1208 27.9463 21.2764L30.0029 19.1934C30.3674 18.8244 30.9388 18.7769 31.3564 19.0801C32.4873 19.8979 33.4764 20.8991 34.2842 22.0439C34.5816 22.4668 34.5344 23.047 34.1719 23.4141L32.1152 25.4941C32.2688 25.8151 32.4024 26.1425 32.5166 26.4795H35.4248C35.9389 26.4795 36.3761 26.8547 36.4609 27.3691C36.6895 28.7552 36.6894 30.1735 36.4609 31.5596C36.3762 32.0742 35.939 32.4492 35.4248 32.4492H32.5166C32.4024 32.7862 32.2688 33.1136 32.1152 33.4346L34.1719 35.5156C34.5342 35.8846 34.5816 36.463 34.2842 36.8857C33.4764 38.0306 32.4873 39.0318 31.3564 39.8496C30.9388 40.1527 30.3654 40.1043 30.0029 39.7354C29.9757 39.7077 27.9463 37.6533 27.9482 37.6533C27.631 37.8089 27.3076 37.9449 26.9746 38.0605V41.0039C26.9746 41.5245 26.602 41.9679 26.0957 42.0537C24.7267 42.285 23.3261 42.285 21.957 42.0537C21.4487 41.9679 21.0781 41.5245 21.0781 41.0039V38.0605C20.7452 37.9449 20.4217 37.8089 20.1045 37.6533L18.0479 39.7354C17.6853 40.1044 17.112 40.1528 16.6943 39.8496C15.5635 39.0318 14.5744 38.0306 13.7666 36.8857C13.4672 36.463 13.5147 35.8827 13.8789 35.5156L15.9365 33.4346C15.7829 33.1135 15.6484 32.7863 15.5342 32.4492H12.626C12.1119 32.4491 11.6746 32.0741 11.5898 31.5596C11.3614 30.1735 11.3613 28.7552 11.5898 27.3691C11.6747 26.8547 12.1119 26.4796 12.626 26.4795H15.5342C15.6504 26.1425 15.7848 25.8152 15.9385 25.4941L13.8809 23.4141C13.5166 23.0451 13.4693 22.4667 13.7686 22.0439C14.5763 20.8991 15.5655 19.8978 16.6963 19.0801C17.1139 18.777 17.6873 18.8246 18.0498 19.1934L20.1064 21.2764C20.4236 21.1208 20.7471 20.9848 21.0801 20.8691V17.9248C21.0802 17.4043 21.4508 16.9617 21.959 16.876ZM24.0254 24.6572C21.4032 24.6573 19.2735 26.8131 19.2734 29.4678C19.2734 32.1225 21.4032 34.2792 24.0254 34.2793C26.6477 34.2793 28.7773 32.1226 28.7773 29.4678C28.7773 26.8131 26.6476 24.6572 24.0254 24.6572ZM19.7979 5C23.7046 5.00008 27.1619 6.96695 29.252 9.97266C29.7582 9.85102 30.2865 9.78714 30.8301 9.78711C34.2422 9.78711 37.0735 12.326 37.5801 15.6367H37.6455C39.5959 15.6367 41.4678 16.4212 42.8467 17.8174C44.2256 19.2136 45 21.1087 45 23.083C44.9999 25.0573 44.2235 26.9518 42.8467 28.3477C41.7178 29.4886 40.2615 30.2228 38.7012 30.4502C38.776 29.3053 38.7204 28.1545 38.5332 27.0176C38.3165 25.6954 37.3143 24.6765 36.0596 24.415C36.7648 23.332 36.7604 21.8957 35.9902 20.8027C35.0485 19.4684 33.8942 18.2991 32.5762 17.3438C31.4985 16.5659 30.0776 16.5603 29.0078 17.2764C28.7497 16.0058 27.7428 14.9899 26.4365 14.7705C24.837 14.5013 23.2039 14.5013 21.6064 14.7705C20.3002 14.9899 19.2933 16.0059 19.0352 17.2764C17.9654 16.5623 16.5445 16.5659 15.4668 17.3438C14.1488 18.2992 12.9945 19.4684 12.0508 20.8027C11.2825 21.8937 11.2761 23.332 11.9834 24.415C10.7286 24.6765 9.72544 25.6953 9.50879 27.0176C9.32164 28.1564 9.26695 29.3093 9.3418 30.4561L9.34766 30.4609C7.76771 30.2415 6.29397 29.5053 5.15332 28.3506C3.77422 26.9544 3.00003 25.0593 3 23.085C3 21.1106 3.77426 19.2153 5.15332 17.8193C6.02809 16.9337 7.10028 16.2954 8.26465 15.9443C8.65088 9.83901 13.6709 5 19.7979 5Z" fill="#44ADC1"/>
</svg>
