<svg width="56" height="56" viewBox="0 0 56 56" fill="none" xmlns="http://www.w3.org/2000/svg">
<path d="M47.8535 40.6551V38.3793L45.3707 37.8275C45.1638 37.0689 44.8879 36.3793 44.5431 35.7586L45.8535 33.5517L44.2672 31.9655L42.0603 33.3448C41.4397 32.931 40.75 32.6551 39.9914 32.5172L39.4397 30.0344H37.1638L36.6121 32.5172C35.8535 32.7241 35.1638 32.9999 34.5431 33.3448L32.3362 31.9655L30.75 33.5517L32.1293 35.7586C31.7155 36.3793 31.4397 37.0689 31.3017 37.8275L28.819 38.3793V40.6551L31.3017 41.2068C31.5086 41.9655 31.7845 42.6551 32.1983 43.2758L30.819 45.4827L32.4052 47.0689L34.6121 45.6896C35.2328 46.1034 35.9224 46.3792 36.681 46.5172L37.3017 48.9999H39.5776L40.1293 46.5172C40.8879 46.3103 41.5776 46.0344 42.1983 45.6896L44.4052 47.0689L45.9914 45.4827L44.6121 43.2758C45.0259 42.6551 45.3017 41.9655 45.4397 41.2068L47.8535 40.6551ZM38.3362 42.4482C36.75 42.4482 35.4397 41.1379 35.4397 39.5517C35.4397 37.9655 36.75 36.6551 38.3362 36.6551C39.9224 36.6551 41.2328 37.9655 41.2328 39.5517C41.2328 41.1379 39.9224 42.4482 38.3362 42.4482Z" fill="url(#paint0_linear_146_846)"/>
<path d="M23.3707 22.7241C31.2328 22.7241 37.9224 19.1379 37.9224 14.8621C37.9224 10.5862 31.2328 7 23.3707 7C15.5086 7 8.81897 10.5862 8.81897 14.8621C8.81897 19.1379 15.4397 22.7241 23.3707 22.7241Z" fill="url(#paint1_linear_146_846)"/>
<path d="M23.3707 24.1035C18.6121 24.1035 11.7845 22.7242 8.81897 18.4484V23.4139C8.81897 27.6897 15.5086 31.276 23.3707 31.276C31.2328 31.276 37.9224 27.6897 37.9224 23.4139V18.4484C34.9569 22.6553 28.1293 24.1035 23.3707 24.1035ZM28.3362 27.8277C28.0603 28.1035 27.7155 28.1035 27.5086 27.8277C27.2328 27.4828 27.3017 26.8622 27.7155 26.7242C27.9914 26.5863 28.1983 26.7242 28.3362 26.8622C28.6121 27.138 28.6121 27.5518 28.3362 27.8277ZM30.9569 27.276C30.6121 27.4139 30.2672 27.207 30.1983 26.9311C30.1293 26.7242 30.1293 26.3794 30.3362 26.1725C30.6121 25.8966 31.1638 25.8966 31.3707 26.5173C31.3017 26.8622 31.1638 27.138 30.9569 27.276ZM33.2328 26.2415C32.6121 26.2415 32.4052 25.207 33.0259 24.9311C33.3707 24.7242 33.8535 25.0691 33.8535 25.5518C33.8535 25.9656 33.5776 26.2415 33.2328 26.2415Z" fill="url(#paint2_linear_146_846)"/>
<path d="M30.2672 35.8276C30.1983 35.7586 30.1293 35.6207 30.1293 35.4828L29.0259 33.7586L31.3707 31.4138C30.2672 31.7586 29.1638 32.0345 28.1293 32.2414C28.1293 32.2414 28.1293 32.2414 28.0603 32.2414C22.1983 33.2759 12.4741 32.3103 8.75 27V31.9655C8.75 36.2414 15.4397 39.8276 23.3017 39.8276C24.681 39.8276 26.0603 39.6897 27.3707 39.4828V37.6207L30.1293 37C30.1983 36.7241 30.3362 36.4483 30.4741 36.1724L30.4052 35.8966C30.3362 35.8966 30.3362 35.8276 30.2672 35.8276ZM28.3362 36.5172C28.1293 36.7931 27.7155 36.7931 27.5086 36.5172C27.3017 36.2414 27.3017 35.8276 27.5086 35.5517C27.7155 35.2759 28.1293 35.2759 28.3362 35.5517C28.6121 35.8276 28.6121 36.2414 28.3362 36.5172Z" fill="url(#paint3_linear_146_846)"/>
<path d="M30.1293 44.2413C30.0603 43.9654 30.0603 43.6896 30.2672 43.4827C30.3362 43.4137 30.4052 43.3447 30.4741 43.3447C30.4052 43.1378 30.2672 42.9309 30.1983 42.724L27.4397 42.1034V40.862C25.9914 41.0689 24.6121 41.2068 23.3707 41.2068C18.681 41.2068 11.7845 39.8275 8.81897 35.5516V40.5172C8.81897 44.793 15.5086 48.3792 23.3707 48.3792C25.9224 48.3792 28.2672 48.0344 30.4052 47.3447L29.0259 46.0344L30.1293 44.2413ZM28.3362 45.2068C28.1293 45.4827 27.7845 45.4827 27.5086 45.2068C27.3017 44.9309 27.3017 44.5172 27.5086 44.2413C27.7155 43.9654 28.1293 43.9654 28.3362 44.2413C28.6121 44.5172 28.6121 44.9309 28.3362 45.2068Z" fill="url(#paint4_linear_146_846)"/>
<defs>
<linearGradient id="paint0_linear_146_846" x1="30.4389" y1="31.8847" x2="41.8201" y2="49.3036" gradientUnits="userSpaceOnUse">
<stop stop-color="#FF2A2A"/>
<stop offset="1" stop-color="#5A0000"/>
</linearGradient>
<linearGradient id="paint1_linear_146_846" x1="11.2959" y1="8.53406" x2="17.7827" y2="26.843" gradientUnits="userSpaceOnUse">
<stop stop-color="#FF2A2A"/>
<stop offset="1" stop-color="#5A0000"/>
</linearGradient>
<linearGradient id="paint2_linear_146_846" x1="11.2959" y1="19.6998" x2="15.7802" y2="35.2149" gradientUnits="userSpaceOnUse">
<stop stop-color="#FF2A2A"/>
<stop offset="1" stop-color="#5A0000"/>
</linearGradient>
<linearGradient id="paint3_linear_146_846" x1="10.6752" y1="28.2515" x2="16.1672" y2="43.0203" gradientUnits="userSpaceOnUse">
<stop stop-color="#FF2A2A"/>
<stop offset="1" stop-color="#5A0000"/>
</linearGradient>
<linearGradient id="paint4_linear_146_846" x1="10.662" y1="36.8031" x2="16.336" y2="51.4102" gradientUnits="userSpaceOnUse">
<stop stop-color="#FF2A2A"/>
<stop offset="1" stop-color="#5A0000"/>
</linearGradient>
</defs>
</svg>
