<svg width="48" height="48" viewBox="0 0 48 48" fill="none" xmlns="http://www.w3.org/2000/svg">
<path fill-rule="evenodd" clip-rule="evenodd" d="M4.41633 38C2.52789 38 2.52789 35.0791 4.41633 35.0791H44.5837C46.4721 35.0791 46.4721 38 44.5837 38H4.41633ZM39.4934 10H9.5061C7.92585 10 6.63701 11.3121 6.63701 12.9209V32.8864H42.3644L42.3626 12.9209C42.3626 11.3121 41.0737 10 39.4934 10ZM17.3756 25.7399C16.0979 27.0406 14.159 25.0648 15.4367 23.766L21.1094 17.9908C21.6454 17.4451 22.514 17.4451 23.0482 17.9908L26.9223 21.9349L31.6256 17.1465C32.9033 15.8458 34.8422 17.8216 33.5645 19.1204L27.8918 24.8976C27.3558 25.4433 26.4872 25.4433 25.953 24.8976L22.0789 20.9535L17.3756 25.7399Z" fill="#44ADC1"/>
</svg>
