<svg width="48" height="48" viewBox="0 0 48 48" fill="none" xmlns="http://www.w3.org/2000/svg">
<path fill-rule="evenodd" clip-rule="evenodd" d="M34.5138 15.7245C32.9913 14.1934 31.1284 13.0106 29.0493 12.2985C30.3938 13.7648 31.3684 15.7245 32.0251 17.7195C32.9289 17.1491 33.7638 16.4787 34.5138 15.7245ZM16.9735 17.7192C17.6302 15.7228 18.6032 13.7648 19.9494 12.2982C17.8705 13.0086 16.0075 14.1933 14.4849 15.7243C15.2349 16.4784 16.0697 17.1488 16.9735 17.7192ZM25.2442 19.8802V11.6228C27.9453 12.1897 29.7943 15.5686 30.7016 18.4611C29.0253 19.2853 27.1849 19.7787 25.2442 19.8802ZM42.9455 26.6921H33.2609C32.9205 31.3064 29.1117 34.9141 24.4992 34.9141C19.8867 34.9141 16.0781 31.306 15.7375 26.6921H6.05112V28.4069L10.2919 29.6474C10.5425 29.7104 10.7551 29.9064 10.8276 30.1776C11.0972 31.161 11.6122 32.4821 12.1237 33.3553C12.2637 33.5792 12.281 33.8714 12.1462 34.1199L9.99811 38.0587L12.9065 41.0035L16.7966 38.8285C17.0143 38.7078 17.2891 38.7008 17.5206 38.8338C18.5074 39.399 19.5978 39.8574 20.6883 40.1636C20.9285 40.2319 21.129 40.4191 21.2033 40.6798L22.4355 45H26.5519L27.7771 40.7078C27.8393 40.4541 28.0329 40.2389 28.3007 40.1654C29.2737 39.8924 30.5767 39.3728 31.439 38.8531C31.6602 38.7113 31.9488 38.6938 32.1942 38.8303L36.0842 41.0053L38.9926 38.0604L36.8446 34.1217C36.7253 33.9012 36.7184 33.623 36.8498 33.3885C37.4079 32.3911 37.8607 31.2853 38.1632 30.1811C38.2305 29.9379 38.4155 29.735 38.6729 29.6597L42.9397 28.4121L42.9466 26.6921L42.9455 26.6921ZM33.2592 25.1838C33.2056 23.0595 32.9239 21.042 32.4608 19.2154C33.5719 18.5522 34.5984 17.7508 35.5126 16.8392C37.3669 19.1366 38.5334 22.0273 38.6941 25.1839L33.2592 25.1838ZM25.2442 25.1838H31.7678C31.7177 23.3185 31.4861 21.5477 31.1042 19.9361C29.3035 20.783 27.3214 21.2922 25.2442 21.3902V25.1838ZM17.231 25.1838H23.7546V21.392C21.6774 21.294 19.6953 20.7848 17.8946 19.938C17.5127 21.5478 17.2794 23.3185 17.231 25.1838ZM10.3048 25.1838C10.4655 22.0254 11.632 19.1365 13.4863 16.839C14.4022 17.7524 15.4269 18.5521 16.5381 19.2152C16.075 21.0403 15.7933 23.0595 15.7397 25.1836L10.3048 25.1838ZM23.7546 11.8171V19.8783C21.8157 19.7768 19.9718 19.2834 18.2972 18.461C19.2045 15.5686 21.0518 12.188 23.7546 11.6227C23.7546 11.7189 23.7667 11.6822 23.6993 11.7784L23.7546 11.8171ZM45 12.6483C45 11.6807 44.2258 10.8968 43.2701 10.8968C42.3145 10.8968 41.5403 11.6807 41.5403 12.6483C41.5403 13.3745 41.9775 13.9991 42.6013 14.2634C42.5927 14.3071 42.5875 14.3526 42.5875 14.3998V18.9071L38.5298 18.9018C38.7545 19.3515 38.9601 19.8117 39.1416 20.2806L43.2701 20.2859C43.6468 20.2859 43.951 19.9779 43.951 19.5964H43.9544L43.9527 14.4012C43.9527 14.3539 43.9475 14.3085 43.9389 14.2647C44.5627 13.9987 45 13.3762 45 12.6483ZM18.7776 11.2257V10.0691H14.8548C14.8081 10.0691 14.7632 10.0639 14.72 10.0551C14.459 10.685 13.8421 11.1295 13.1249 11.1295C12.1692 11.1295 11.395 10.3456 11.395 9.37794C11.395 8.41029 12.1692 7.62639 13.1249 7.62639C13.8421 7.62639 14.459 8.06908 14.72 8.70074C14.7632 8.69199 14.8081 8.68674 14.8548 8.68674H19.4619C19.8387 8.68674 20.1446 8.99645 20.1446 9.37791V10.7638C19.6831 10.8967 19.2269 11.0508 18.7776 11.2257ZM29.0909 10.8565V9.33423C29.0909 9.02277 29.2913 8.84781 29.2913 8.84427L29.3034 8.83202C29.3069 8.82852 29.3121 8.82502 29.3155 8.82152C29.319 8.81802 29.3242 8.81452 29.3276 8.81102C29.3311 8.80752 29.3363 8.80402 29.3397 8.80052L29.5557 8.67804L29.6369 8.65529C29.6421 8.65354 29.6473 8.65354 29.6542 8.65179C29.6594 8.65004 29.6646 8.65004 29.6715 8.64829C29.6767 8.64654 29.6836 8.64654 29.6888 8.64654C29.694 8.64479 29.7009 8.64479 29.7061 8.64479C29.7113 8.64479 29.7182 8.64304 29.7234 8.64304C29.7285 8.64304 29.7354 8.64129 29.7406 8.64129H29.7579H29.7752H34.2408C34.2874 8.64129 34.3341 8.64654 34.379 8.65529C34.6382 8.0516 35.231 7.6299 35.9223 7.6299C36.852 7.6299 37.6054 8.3928 37.6054 9.3342C37.6054 10.2756 36.852 11.0385 35.9223 11.0385C35.231 11.0385 34.6383 10.6168 34.379 10.0131C34.3341 10.0218 34.2874 10.0271 34.2408 10.0271H30.4596V11.3534C30.0103 11.1662 29.554 11 29.0909 10.8565ZM5.04555 14.4016V19.5986C5.04555 19.9801 5.35143 20.2898 5.72817 20.2898L9.78064 20.2828C9.96209 19.8139 10.166 19.3537 10.3924 18.9022L6.41252 18.9075V14.4016C6.41252 14.3544 6.40733 14.3089 6.39869 14.2651C7.02256 14.0009 7.45974 13.3763 7.45974 12.6501C7.45974 11.6824 6.68554 10.8985 5.72987 10.8985C4.7742 10.8985 4 11.6824 4 12.6501C4 13.3763 4.43721 14.0009 5.06105 14.2651C5.05068 14.3089 5.04555 14.3543 5.04555 14.4016ZM23.8166 10.1706V6.50309C23.8166 6.45585 23.8218 6.41036 23.8304 6.36661C23.2083 6.10239 22.7693 5.47771 22.7693 4.75155C22.7693 3.7839 23.5435 3 24.4992 3C25.4549 3 26.2291 3.7839 26.2291 4.75155C26.2291 5.47771 25.7919 6.10237 25.168 6.36661C25.1767 6.41035 25.1819 6.45585 25.1819 6.50309V10.1741L23.8166 10.1706Z" fill="#44ADC1"/>
</svg>
