<svg width="56" height="56" viewBox="0 0 56 56" fill="none" xmlns="http://www.w3.org/2000/svg">
<path d="M45.1875 7.875C47.7764 7.875 49.875 9.99946 49.875 12.6201V34.7646C49.8749 37.3853 47.7763 39.5098 45.1875 39.5098H34.3555C34.527 40.7952 34.9062 42.0474 35.4824 43.2139L36.7783 45.8369H37.375C38.2379 45.8369 38.9373 46.5445 38.9375 47.418C38.9375 48.2916 38.238 49 37.375 49H18.625C17.7621 49 17.0625 48.2915 17.0625 47.418C17.0627 46.5445 17.7622 45.8369 18.625 45.8369H19.2217L20.5176 43.2139C21.0938 42.0474 21.4739 40.7952 21.6455 39.5098H10.8125C8.22375 39.5098 6.12512 37.3853 6.125 34.7646V12.6201C6.12504 9.99947 8.2237 7.87501 10.8125 7.875H45.1875ZM10.8125 11.0381C9.94959 11.0381 9.25004 11.7466 9.25 12.6201V34.7646C9.25012 35.6381 9.94964 36.3457 10.8125 36.3457H45.1875C46.0504 36.3457 46.7499 35.6381 46.75 34.7646V12.6201C46.75 11.7466 46.0504 11.0381 45.1875 11.0381H10.8125ZM43.625 12.6201C44.488 12.6201 45.1875 13.3286 45.1875 14.2021V33.1826C45.1875 34.0562 44.488 34.7646 43.625 34.7646H12.375C11.5121 34.7646 10.8125 34.0562 10.8125 33.1826V14.2021C10.8125 13.3286 11.5121 12.6201 12.375 12.6201H43.625ZM31.043 17.5322C30.2711 17.1416 29.3322 17.4589 28.9463 18.2402L24.2588 27.7305C23.873 28.5118 24.1862 29.4619 24.958 29.8525C25.7298 30.2428 26.6679 29.9257 27.0537 29.1445L31.7412 19.6543C32.127 18.8731 31.8146 17.923 31.043 17.5322ZM23.2451 19.0146C22.635 18.3974 21.6462 18.3974 21.0361 19.0146L17.5205 22.5742C16.9103 23.1919 16.9103 24.1929 17.5205 24.8105L21.0361 28.3701C21.6462 28.9873 22.6351 28.9872 23.2451 28.3701C23.8553 27.7525 23.8553 26.7505 23.2451 26.1328L20.835 23.6924L23.2451 21.252C23.8553 20.6343 23.8553 19.6323 23.2451 19.0146ZM34.9639 19.0146C34.3538 18.3974 33.3649 18.3974 32.7549 19.0146C32.1447 19.6323 32.1447 20.6343 32.7549 21.252L35.165 23.6924L32.7549 26.1328C32.1447 26.7505 32.1447 27.7525 32.7549 28.3701C33.3649 28.9873 34.3538 28.9872 34.9639 28.3701L38.4795 24.8105C39.0896 24.1929 39.0896 23.1919 38.4795 22.5742L34.9639 19.0146Z" fill="url(#paint0_linear_146_856)"/>
<defs>
<linearGradient id="paint0_linear_146_856" x1="9.8484" y1="11.8872" x2="33.9232" y2="50.9433" gradientUnits="userSpaceOnUse">
<stop stop-color="#FF2A2A"/>
<stop offset="1" stop-color="#5A0000"/>
</linearGradient>
</defs>
</svg>
