<svg width="48" height="48" viewBox="0 0 48 48" fill="none" xmlns="http://www.w3.org/2000/svg">
<path d="M28.418 32.4033C29.0064 31.7611 29.9603 31.7612 30.5488 32.4033C31.1375 33.0455 31.1375 34.0873 30.5488 34.7295L27.2207 38.3604L30.5498 41.9922C31.1383 42.6343 31.1381 43.6762 30.5498 44.3184C29.9612 44.9605 29.0065 44.9605 28.418 44.3184L24.0234 39.5234C23.4351 38.8813 23.4351 37.8404 24.0234 37.1982L28.418 32.4033ZM34.6328 32.4033C35.2213 31.7614 36.1751 31.7614 36.7637 32.4033L41.1582 37.1982C41.7466 37.8405 41.7466 38.8813 41.1582 39.5234L36.7637 44.3184C36.1751 44.9605 35.2213 44.9604 34.6328 44.3184C34.0441 43.6762 34.0441 42.6345 34.6328 41.9922L37.9609 38.3604L34.6328 34.7295C34.0441 34.0873 34.0441 33.0456 34.6328 32.4033ZM31.3047 3.2002C33.8788 3.20034 35.9648 5.34719 35.9648 7.99512V27.1729C35.9648 28.0554 35.27 28.7712 34.4121 28.7715H27.9307C27.5187 28.7715 27.1235 28.9397 26.832 29.2393L20.0039 36.2637C19.5312 36.7501 19.4139 37.4931 19.7129 38.1084L21.8184 42.4404C22.0592 42.9359 22.034 43.5249 21.751 43.9961C21.4677 44.4672 20.9671 44.7539 20.4287 44.7539H12.6611C10.087 44.7539 8 42.6071 8 39.959V7.99512C8 5.34709 10.087 3.2002 12.6611 3.2002H31.3047ZM17.3213 6.39648C16.4634 6.39675 15.7686 7.11262 15.7686 7.99512C15.7688 8.87741 16.4636 9.5925 17.3213 9.59277H26.6436C27.5015 9.59277 28.197 8.87757 28.1973 7.99512C28.1973 7.11245 27.5016 6.39649 26.6436 6.39648H17.3213Z" fill="#44ADC1"/>
</svg>
