<svg width="48" height="48" viewBox="0 0 48 48" fill="none" xmlns="http://www.w3.org/2000/svg">
<path d="M22.5811 17C23.1602 17.0003 23.6367 17.4772 23.6367 18.0566V25.5918C23.6367 25.6064 23.6371 25.6289 23.6299 25.6436V25.6875C23.6299 28.6224 21.2531 30.9998 18.3193 31C15.3855 31 13.0088 28.6225 13.0088 25.6875C13.0089 22.7526 15.3855 20.375 18.3193 20.375C19.5221 20.3751 20.6297 20.7787 21.5244 21.4463V18.0566C21.5238 17.9177 21.5506 17.7798 21.6035 17.6514C21.6563 17.5232 21.7341 17.4067 21.832 17.3086C21.9302 17.2104 22.0474 17.132 22.1758 17.0791C22.3041 17.0263 22.4423 16.9994 22.5811 17ZM29.4316 20.375C32.3641 20.3753 34.7421 22.7539 34.7422 25.6875C34.7421 28.6212 32.3641 30.9997 29.4316 31C26.4989 31 24.1212 28.6214 24.1211 25.6875C24.1212 22.7537 26.4989 20.375 29.4316 20.375ZM40.6904 20.375C43.6229 20.3754 46.0009 22.7539 46.001 25.6875C46.0009 28.6212 43.6229 30.9996 40.6904 31C37.7577 31 35.3799 28.6214 35.3799 25.6875C35.38 22.7537 37.7577 20.375 40.6904 20.375ZM7.31055 20.3604C10.243 20.3607 12.621 22.7392 12.6211 25.6729C12.621 28.6065 10.243 30.985 7.31055 30.9854C4.3778 30.9854 1.99911 28.6067 1.99902 25.6729C1.99914 22.739 4.37782 20.3604 7.31055 20.3604ZM7.25977 22.5615C5.53013 22.5615 4.12805 23.965 4.12793 25.6953C4.12819 27.4255 5.53022 28.8281 7.25977 28.8281C8.98889 28.8276 10.3913 27.4252 10.3916 25.6953C10.3915 23.9653 8.98898 22.562 7.25977 22.5615ZM18.3193 22.5547C16.5897 22.5547 15.1876 23.9572 15.1875 25.6875C15.1875 27.4179 16.5896 28.8203 18.3193 28.8203C20.0488 28.82 21.4512 27.4177 21.4512 25.6875C21.4511 23.9574 20.0487 22.555 18.3193 22.5547ZM29.4326 22.5537C27.7017 22.5537 26.3009 23.9559 26.3008 25.6875C26.301 27.419 27.7017 28.8203 29.4326 28.8203C31.1631 28.8198 32.5643 27.4187 32.5645 25.6875C32.5644 23.9562 31.1631 22.5542 29.4326 22.5537ZM40.6904 22.5537C38.9595 22.5537 37.5587 23.9559 37.5586 25.6875C37.5588 27.419 38.9596 28.8203 40.6904 28.8203C42.4209 28.8198 43.8221 27.4187 43.8223 25.6875C43.8222 23.9562 42.4209 22.5542 40.6904 22.5537Z" fill="#44ADC1"/>
</svg>
