<svg width="48" height="48" viewBox="0 0 48 48" fill="none" xmlns="http://www.w3.org/2000/svg">
<path d="M5 13.4451V39.4779C5 39.4779 5.01245 40.3878 5.45626 41.2755C5.90007 42.1631 6.75341 43.0002 8.52089 43.0002H39.4777C41.2522 43.0002 42.0986 42.1631 42.5424 41.2755C42.9862 40.3878 43 39.4779 43 39.4779V13.4451H5ZM12.6671 15.5546C12.6911 15.554 12.7144 15.5546 12.7385 15.5546C14.043 15.5546 15.1509 16.4572 15.4651 17.6682H21.2741C21.5883 16.4572 22.6948 15.5546 23.9993 15.5546C25.3038 15.5546 26.4117 16.4572 26.7259 17.6682H32.5335C32.8466 16.4572 33.9501 15.5546 35.2546 15.5546C36.8007 15.5546 38.0705 16.823 38.0705 18.3691C38.0705 19.9152 36.8007 21.185 35.2546 21.185C33.9521 21.185 32.8499 20.2838 32.5349 19.0755H29.0772C31.8051 20.7186 33.6242 23.6253 33.8281 26.9006C35.0487 27.208 35.9624 28.3185 35.9624 29.6299C35.9624 31.1759 34.6925 32.4458 33.1465 32.4458C31.6004 32.4458 30.3306 31.1759 30.3306 29.6299C30.3306 28.3332 31.2236 27.232 32.4236 26.9102C32.1787 23.4711 29.8636 20.5302 26.5843 19.4795C26.1507 20.4792 25.152 21.185 23.9993 21.185C22.8466 21.185 21.8493 20.4792 21.4157 19.4795C18.1365 20.53 15.8215 23.4711 15.5764 26.9102C16.7758 27.2324 17.668 28.3337 17.668 29.6299C17.668 31.1759 16.3996 32.4458 14.8535 32.4458C13.3075 32.4458 12.0376 31.1759 12.0376 29.6299C12.0376 28.321 12.9478 27.2118 14.165 26.9019C14.369 23.6256 16.1926 20.7183 18.9228 19.0755H15.4637C15.1476 20.2838 14.0411 21.185 12.7385 21.185C11.1925 21.185 9.92951 19.9152 9.92951 18.3691C9.92951 16.8472 11.1541 15.5934 12.6671 15.5546ZM12.7385 16.9618C11.953 16.9618 11.3368 17.5835 11.3368 18.3691C11.3368 19.1546 11.953 19.7763 12.7385 19.7763C13.5241 19.7763 14.1458 19.1546 14.1458 18.3691C14.1458 17.5835 13.5241 16.9618 12.7385 16.9618ZM23.9993 16.9618C23.2138 16.9618 22.5921 17.5835 22.5921 18.3691C22.5921 19.1546 23.2138 19.7763 23.9993 19.7763C24.7849 19.7763 25.4079 19.1546 25.4079 18.3691C25.4079 17.5835 24.7849 16.9618 23.9993 16.9618ZM35.2546 16.9618C34.4691 16.9618 33.8473 17.5835 33.8473 18.3691C33.8473 19.1546 34.4691 19.7763 35.2546 19.7763C36.0401 19.7763 36.6632 19.1546 36.6632 18.3691C36.6632 17.5835 36.0401 16.9618 35.2546 16.9618ZM23.9993 26.109C24.0987 26.1095 24.1969 26.1311 24.2874 26.1723C24.3779 26.2135 24.4586 26.2734 24.5243 26.3481L30.1547 32.6794C30.234 32.7693 30.2889 32.878 30.3144 32.9951C30.3399 33.1122 30.3351 33.2339 30.3004 33.3486L28.1908 40.3877C28.1466 40.532 28.0571 40.6583 27.9356 40.7479C27.8141 40.8374 27.667 40.8856 27.5161 40.8852H20.4839C20.3327 40.8859 20.1853 40.8379 20.0636 40.7483C19.9418 40.6587 19.8521 40.5322 19.8078 40.3877L17.6942 33.3486C17.6601 33.2335 17.6562 33.1115 17.6826 32.9943C17.7091 32.8772 17.7651 32.7688 17.8453 32.6794L23.4757 26.3481C23.5412 26.2736 23.6217 26.2138 23.7119 26.1726C23.8022 26.1314 23.9001 26.1097 23.9993 26.109ZM14.8535 28.2226C14.068 28.2226 13.4449 28.8443 13.4449 29.6299C13.4449 30.4154 14.068 31.0385 14.8535 31.0385C15.6391 31.0385 16.2608 30.4154 16.2608 29.6299C16.2608 28.8443 15.6391 28.2226 14.8535 28.2226ZM33.1465 28.2226C32.3609 28.2226 31.7392 28.8443 31.7392 29.6299C31.7392 30.4154 32.3609 31.0385 33.1465 31.0385C33.932 31.0385 34.5537 30.4154 34.5537 29.6299C34.5537 28.8443 33.932 28.2226 33.1465 28.2226ZM24.7002 28.6624V32.4458H23.2929V28.6693L19.1591 33.3184L21.002 39.4779H26.9911L28.8409 33.3184L24.7002 28.6624Z" fill="#44ADC1"/>
<path d="M8.52089 5C6.75115 5 5.90007 5.8371 5.45626 6.72471C5.01245 7.61233 5 8.52088 5 8.52088V12.0376H43V8.52088C43 6.74439 42.1629 5.90007 41.2753 5.45626C40.3877 5.01245 39.4777 5 39.4777 5H8.52089ZM9.16817 6.40725C9.18615 6.40679 9.20368 6.40725 9.22176 6.40725C10.3792 6.40725 11.3368 7.36341 11.3368 8.52088C11.3368 9.67836 10.3792 10.6304 9.22176 10.6304C8.06429 10.6304 7.11363 9.67836 7.11363 8.52088C7.11363 7.3815 8.0353 6.4365 9.16817 6.40725ZM14.0922 6.40725C14.1102 6.40679 14.1277 6.40725 14.1458 6.40725C15.3033 6.40725 16.2608 7.36341 16.2608 8.52088C16.2608 9.67836 15.3033 10.6304 14.1458 10.6304C12.9883 10.6304 12.0376 9.67836 12.0376 8.52088C12.0376 7.3815 12.9593 6.4365 14.0922 6.40725ZM19.0217 6.40725C19.0397 6.40679 19.0572 6.40725 19.0753 6.40725C20.2328 6.40725 21.1848 7.36341 21.1848 8.52088C21.1848 9.67836 20.2328 10.6304 19.0753 10.6304C17.9178 10.6304 16.9617 9.67836 16.9617 8.52088C16.9617 7.3815 17.8887 6.4365 19.0217 6.40725ZM9.22176 7.81451C8.82483 7.81451 8.52089 8.12395 8.52089 8.52088C8.52089 8.91782 8.82483 9.22176 9.22176 9.22176C9.6187 9.22176 9.92951 8.91782 9.92951 8.52088C9.92951 8.12395 9.6187 7.81451 9.22176 7.81451ZM14.1458 7.81451C13.7488 7.81451 13.4449 8.12395 13.4449 8.52088C13.4449 8.91782 13.7488 9.22176 14.1458 9.22176C14.5427 9.22176 14.8535 8.91782 14.8535 8.52088C14.8535 8.12395 14.5427 7.81451 14.1458 7.81451ZM19.0753 7.81451C18.6784 7.81451 18.3689 8.12395 18.3689 8.52088C18.3689 8.91782 18.6784 9.22176 19.0753 9.22176C19.4722 9.22176 19.7762 8.91782 19.7762 8.52088C19.7762 8.12395 19.4722 7.81451 19.0753 7.81451Z" fill="#44ADC1"/>
</svg>
