<svg width="48" height="48" viewBox="0 0 48 48" fill="none" xmlns="http://www.w3.org/2000/svg">
<path fill-rule="evenodd" clip-rule="evenodd" d="M3.00014 13.4747V8.80299C3.00014 8.05925 3.28179 7.34541 3.78268 6.82033C4.28361 6.29521 4.96453 6 5.67401 6H41.3261C42.0356 6 42.7147 6.29525 43.2156 6.82033C43.7183 7.34545 44 8.05925 44 8.80299V13.4747H3.00014ZM7.10014 9.17671C6.51008 9.17671 6.03055 9.67939 6.03055 10.2979C6.03055 10.9165 6.51008 11.4192 7.10014 11.4192C7.69019 11.4192 8.16972 10.9165 8.16972 10.2979C8.16972 9.67939 7.69019 9.17671 7.10014 9.17671ZM11.3784 9.17671C10.7883 9.17671 10.3088 9.67939 10.3088 10.2979C10.3088 10.9165 10.7883 11.4192 11.3784 11.4192C11.9684 11.4192 12.448 10.9165 12.448 10.2979C12.448 9.67939 11.9684 9.17671 11.3784 9.17671ZM15.6566 9.17671C15.0666 9.17671 14.587 9.67939 14.587 10.2979C14.587 10.9165 15.0666 11.4192 15.6566 11.4192C16.2467 11.4192 16.7262 10.9165 16.7262 10.2979C16.7262 9.67939 16.2467 9.17671 15.6566 9.17671ZM43.9999 14.5958V40.197C43.9999 40.9408 43.7182 41.6546 43.2155 42.1797C42.7146 42.7048 42.0354 43 41.3259 43H5.67387C4.96439 43 4.28343 42.7047 3.78254 42.1797C3.28161 41.6545 3 40.9408 3 40.197V14.5958H43.9999ZM14.2306 33.2824H32.7696C33.0638 33.2824 33.3044 33.032 33.3044 32.7218C33.3044 32.4135 33.0638 32.1612 32.7696 32.1612H14.2306C13.9346 32.1612 13.6958 32.4135 13.6958 32.7218C13.6958 33.032 13.9346 33.2824 14.2306 33.2824ZM28.8692 27.1381L32.4344 23.4007C32.643 23.1821 32.643 22.827 32.4344 22.6084L28.8692 18.8711C28.6607 18.6524 28.322 18.6524 28.1134 18.8711C27.9031 19.0897 27.9031 19.4447 28.1134 19.6634L31.299 23.0046L28.1134 26.3458C27.9031 26.5644 27.9031 26.9195 28.1134 27.1381C28.322 27.3567 28.6607 27.3567 28.8692 27.1381ZM18.8867 26.3458L15.6993 23.0046L18.8867 19.6634C19.0952 19.4447 19.0952 19.0897 18.8867 18.8711C18.6781 18.6524 18.3394 18.6524 18.1309 18.8711L14.5656 22.6084C14.3553 22.8271 14.3553 23.1821 14.5656 23.4007L18.1309 27.1381C18.3394 27.3567 18.6781 27.3567 18.8867 27.1381C19.0952 26.9195 19.0952 26.5644 18.8867 26.3458ZM32.7696 38.1408H14.2306C13.9346 38.1408 13.6958 38.3912 13.6958 38.7014C13.6958 39.0098 13.9346 39.2621 14.2306 39.2621H32.7696C33.0638 39.2621 33.3044 39.0098 33.3044 38.7014C33.3044 38.3912 33.0638 38.1408 32.7696 38.1408ZM25.887 17.4938L20.1827 27.9584C20.0365 28.2275 20.1256 28.5695 20.3823 28.7227C20.6372 28.876 20.9652 28.7825 21.1114 28.5153L26.8158 18.0507C26.9619 17.7816 26.8728 17.4378 26.6161 17.2845C26.3612 17.1313 26.0332 17.2247 25.887 17.4938ZM32.7696 35.1418H14.2306C13.9346 35.1418 13.6958 35.3941 13.6958 35.7024C13.6958 36.0127 13.9346 36.2631 14.2306 36.2631H32.7696C33.0638 36.2631 33.3044 36.0127 33.3044 35.7024C33.3044 35.3941 33.0638 35.1418 32.7696 35.1418Z" fill="#44ADC1"/>
</svg>
