<svg width="48" height="48" viewBox="0 0 48 48" fill="none" xmlns="http://www.w3.org/2000/svg">
<path d="M7.45898 27.4053C8.26491 27.4053 8.91873 28.0584 8.91895 28.8643V34.3135C8.91895 35.4273 8.91976 36.1752 8.9668 36.751C9.01248 37.3094 9.09382 37.5767 9.18359 37.7529C9.41674 38.2106 9.78939 38.5823 10.2471 38.8154C10.4233 38.9052 10.6904 38.9865 11.249 39.0322C11.8248 39.0793 12.5726 39.0811 13.6865 39.0811H19.1348C19.9407 39.0811 20.5946 39.7341 20.5947 40.54C20.5947 41.3461 19.9408 42 19.1348 42H13.627C12.5878 42 11.7204 42.0003 11.0117 41.9424C10.2726 41.882 9.57814 41.7513 8.92188 41.417C7.91497 40.904 7.09606 40.085 6.58301 39.0781C6.24865 38.4218 6.11799 37.7275 6.05762 36.9883C5.99968 36.2795 6 35.4115 6 34.3721V28.8643C6.00022 28.0585 6.65328 27.4055 7.45898 27.4053ZM40.541 27.4053C41.3468 27.4054 41.9998 28.0585 42 28.8643V34.3721C42 35.4115 42.0003 36.2795 41.9424 36.9883C41.882 37.7275 41.7514 38.4218 41.417 39.0781C40.9039 40.085 40.085 40.904 39.0781 41.417C38.422 41.7512 37.7282 41.882 36.9893 41.9424C36.2805 42.0003 35.4125 42 34.373 42H28.8652C28.0592 42 27.4053 41.3461 27.4053 40.54C27.4054 39.7341 28.0593 39.0811 28.8652 39.0811H34.3135C35.4273 39.0811 36.1752 39.0793 36.751 39.0322C37.3096 38.9866 37.5767 38.9052 37.7529 38.8154C38.2106 38.5823 38.5832 38.2106 38.8164 37.7529C38.9062 37.5767 38.9875 37.3095 39.0332 36.751C39.0802 36.1752 39.0811 35.4273 39.0811 34.3135V28.8643C39.0813 28.0584 39.7351 27.4053 40.541 27.4053ZM22.7725 16.585C23.1942 15.4452 24.8067 15.4452 25.2285 16.585C26.2893 19.4515 28.5495 21.7118 31.416 22.7725C32.5555 23.1943 32.5555 24.8057 31.416 25.2275C28.5494 26.2882 26.2893 28.5485 25.2285 31.415C24.8067 32.5548 23.1942 32.5548 22.7725 31.415C21.7117 28.5485 19.4515 26.2882 16.585 25.2275C15.4453 24.8057 15.4453 23.1943 16.585 22.7725C19.4515 21.7118 21.7117 19.4515 22.7725 16.585ZM19.1348 6C19.9407 6 20.5945 6.65314 20.5947 7.45898C20.5947 8.26504 19.9408 8.91895 19.1348 8.91895H13.6865C12.5726 8.91895 11.8248 8.91975 11.249 8.9668C10.6905 9.01246 10.4233 9.09383 10.2471 9.18359C9.78934 9.41677 9.41677 9.78934 9.18359 10.2471C9.09383 10.4233 9.01246 10.6905 8.9668 11.249C8.91975 11.8248 8.91895 12.5726 8.91895 13.6865V19.1348C8.91895 19.9408 8.26504 20.5947 7.45898 20.5947C6.65314 20.5945 6 19.9407 6 19.1348V13.627C6 12.5878 5.99971 11.7204 6.05762 11.0117C6.11799 10.2725 6.24868 9.57817 6.58301 8.92188C7.09606 7.91495 7.91495 7.09606 8.92188 6.58301C9.57817 6.24868 10.2725 6.11799 11.0117 6.05762C11.7204 5.99971 12.5878 6 13.627 6H19.1348ZM34.373 6C35.4125 6 36.2805 5.99968 36.9893 6.05762C37.7282 6.118 38.422 6.24882 39.0781 6.58301C40.0851 7.09605 40.9039 7.91495 41.417 8.92188C41.7514 9.57819 41.882 10.2725 41.9424 11.0117C42.0003 11.7204 42 12.5878 42 13.627V19.1348C42 19.9407 41.347 20.5946 40.541 20.5947C39.735 20.5947 39.0811 19.9408 39.0811 19.1348V13.6865C39.0811 12.5726 39.0802 11.8248 39.0332 11.249C38.9875 10.6905 38.9062 10.4233 38.8164 10.2471C38.5832 9.78934 38.2106 9.41677 37.7529 9.18359C37.5767 9.09387 37.3093 9.01244 36.751 8.9668C36.1752 8.91977 35.4273 8.91895 34.3135 8.91895H28.8652C28.0592 8.91895 27.4053 8.26504 27.4053 7.45898C27.4055 6.65314 28.0593 6 28.8652 6H34.373Z" fill="#44ADC1"/>
</svg>
