<svg width="48" height="48" viewBox="0 0 48 48" fill="none" xmlns="http://www.w3.org/2000/svg">
<path d="M17.4786 4.32527H29.9066L17.005 42.574C16.939 42.7694 16.843 42.9532 16.7204 43.119C16.5981 43.2849 16.4505 43.4304 16.2831 43.5506C16.1156 43.6708 15.9308 43.7643 15.7344 43.8273C15.538 43.8903 15.3333 43.9228 15.1275 43.9228H5.45527C5.1413 43.9228 4.83153 43.8483 4.55221 43.7044C4.2726 43.561 4.03123 43.3529 3.84814 43.0975C3.66494 42.8421 3.54508 42.5468 3.49847 42.2359C3.45174 41.9251 3.48009 41.6074 3.58038 41.3097L15.6005 5.67303C15.6661 5.47772 15.7622 5.29396 15.8851 5.12805C16.0074 4.96214 16.1555 4.8167 16.3224 4.69647C16.4899 4.57624 16.6747 4.48278 16.8711 4.41978C17.0675 4.35677 17.2722 4.32422 17.478 4.32422V4.32474L17.4786 4.32527Z" fill="url(#paint0_linear_599_17967)"/>
<path d="M40.3891 43.9228H29.2295C29.105 43.9228 28.9806 43.9112 28.8577 43.8876C28.7354 43.8645 28.6152 43.8298 28.4991 43.7841C28.3831 43.7385 28.2718 43.6818 28.1663 43.6156C28.0609 43.549 27.9619 43.4727 27.8707 43.3877L15.2068 31.5608C15.0729 31.4357 14.9796 31.2733 14.9391 31.0946C14.8986 30.9159 14.9128 30.7291 14.98 30.5585C15.0471 30.388 15.164 30.2416 15.3155 30.1385C15.4673 30.0356 15.6463 29.9805 15.8295 29.9805H35.5372L40.388 43.9233L40.3891 43.9228Z" fill="#0078D4"/>
<path d="M29.9512 4.32522L21.2514 29.9831L35.4661 29.98L40.3421 43.9228H29.2245C29.1096 43.9217 28.9946 43.9112 28.8812 43.8908C28.7678 43.8703 28.6564 43.8404 28.5483 43.8005C28.3314 43.7214 28.1297 43.6058 27.9519 43.4587L19.4032 35.4802L17.0101 42.5377C16.9482 42.7142 16.8631 42.8816 16.7571 43.0355C16.5445 43.345 16.2537 43.5926 15.9144 43.7532C15.7454 43.8331 15.5666 43.8902 15.3825 43.9228H5.46095C5.14383 43.9238 4.83091 43.8482 4.54897 43.7023C4.26698 43.5564 4.02425 43.3449 3.8413 43.0854C3.65834 42.826 3.54054 42.5263 3.49785 42.2117C3.45531 41.897 3.48898 41.5767 3.59603 41.2777L15.5967 5.69976C15.6592 5.50077 15.7532 5.31333 15.875 5.14427C15.9963 4.97521 16.1444 4.8261 16.3124 4.70324C16.4804 4.58039 16.6673 4.48483 16.8652 4.42078C17.0632 4.35672 17.2706 4.32417 17.479 4.32522H29.9517H29.9512Z" fill="url(#paint1_linear_599_17967)"/>
<path d="M45.3724 41.3097C45.4727 41.6075 45.5009 41.9249 45.4548 42.2358C45.4081 42.5466 45.2885 42.8418 45.1056 43.0974C44.9225 43.3527 44.6812 43.5607 44.4018 43.7042C44.1223 43.8477 43.8127 43.9226 43.4985 43.9228H29.6471C29.961 43.9228 30.2708 43.8477 30.5506 43.7043C30.83 43.561 31.0715 43.3526 31.2547 43.0974C31.4379 42.8422 31.5577 42.5466 31.6044 42.2358C31.6511 41.925 31.6228 41.6074 31.5225 41.3097L19.5018 5.67191C19.3695 5.27933 19.1174 4.93815 18.7809 4.69639C18.614 4.57616 18.4292 4.48323 18.2333 4.42023C18.0375 4.35722 17.8327 4.3252 17.6274 4.3252H31.4784C31.6842 4.3252 31.8884 4.35722 32.0848 4.42023C32.2806 4.48323 32.4654 4.57669 32.6329 4.69639C32.7999 4.81663 32.9474 4.96206 33.0698 5.12745C33.1921 5.29283 33.2876 5.4766 33.3538 5.67191L45.3745 41.3097H45.3724Z" fill="url(#paint2_linear_599_17967)"/>
<defs>
<linearGradient id="paint0_linear_599_17967" x1="22.0143" y1="7.26021" x2="9.09849" y2="45.4145" gradientUnits="userSpaceOnUse">
<stop stop-color="#114A8B"/>
<stop offset="1" stop-color="#0669BC"/>
</linearGradient>
<linearGradient id="paint1_linear_599_17967" x1="26.0412" y1="25.0378" x2="23.0538" y2="26.0511" gradientUnits="userSpaceOnUse">
<stop stop-opacity="0.3"/>
<stop offset="0.1" stop-opacity="0.2"/>
<stop offset="0.3" stop-opacity="0.1"/>
<stop offset="0.6" stop-opacity="0.1"/>
<stop offset="1" stop-opacity="0"/>
</linearGradient>
<linearGradient id="paint2_linear_599_17967" x1="24.3925" y1="6.14706" x2="38.5684" y2="43.9128" gradientUnits="userSpaceOnUse">
<stop stop-color="#3CCBF4"/>
<stop offset="1" stop-color="#2892DF"/>
</linearGradient>
</defs>
</svg>
