<svg width="48" height="48" viewBox="0 0 48 48" fill="none" xmlns="http://www.w3.org/2000/svg">
<path d="M39.4087 21.7144H37.9616V19.5903C37.9616 16.5364 35.562 14.0536 32.6105 14.0536H25.8462V11.6718C27.0341 11.1321 27.8654 9.90636 27.8654 8.48216C27.8654 6.56348 26.3543 5 24.5 5C22.6457 5 21.1346 6.56348 21.1346 8.48216C21.1346 9.90636 21.9659 11.1321 23.1539 11.6718V14.0536H16.3895C13.438 14.0536 11.0385 16.5364 11.0385 19.5903V21.7144H9.59134C8.16105 21.7144 7 22.9157 7 24.3957V28.7832C7 30.2631 8.16105 31.4645 9.59134 31.4645H11.0385V43.3036C11.0385 43.5647 11.1798 43.8015 11.4019 43.9199C11.4995 43.9721 11.6072 44 11.7115 44C11.8462 44 11.9808 43.9582 12.0986 43.8746L18.6544 39.1251H32.6105C35.562 39.1251 37.9615 36.6423 37.9615 33.5884V31.4643H39.4087C40.8389 31.4643 42 30.263 42 28.783V24.3955C42 22.9156 40.839 21.7144 39.4087 21.7144ZM16.7597 23.4555C16.7597 21.9198 17.9679 20.6697 19.452 20.6697C20.9361 20.6697 22.1443 21.9198 22.1443 23.4555C22.1443 24.9911 20.9361 26.2412 19.452 26.2412C17.9679 26.2412 16.7597 24.9911 16.7597 23.4555ZM27.8654 32.5089H21.1346C20.5759 32.5089 20.1249 32.0422 20.1249 31.4642C20.1249 30.8861 20.5759 30.4195 21.1346 30.4195H27.8654C28.424 30.4195 28.875 30.8861 28.875 31.4642C28.875 32.0422 28.424 32.5089 27.8654 32.5089ZM29.548 26.2412C28.0639 26.2412 26.8557 24.9911 26.8557 23.4555C26.8557 21.9198 28.0639 20.6697 29.548 20.6697C31.0322 20.6697 32.2403 21.9198 32.2403 23.4555C32.2403 24.9911 31.0322 26.2412 29.548 26.2412Z" fill="#44ADC1"/>
</svg>
