<svg width="48" height="48" viewBox="0 0 48 48" fill="none" xmlns="http://www.w3.org/2000/svg">
<path d="M16.2656 15.0068H7.78613C7.25357 15.0068 6.84375 15.4205 6.84375 15.958V31.8359C6.84381 32.3734 7.25361 32.7871 7.78613 32.7871H28.8018V33.2832C28.8018 34.2755 29.4572 35.1439 30.3994 35.3506C29.9079 36.1362 29.99 37.1288 30.6045 37.873H24.7461L25.2783 41.1396H27.2041C27.6956 41.1397 28.1055 41.5533 28.1055 42.0908C28.1052 42.5868 27.6955 42.9999 27.2041 43H16.7168C16.2253 43 15.8157 42.5868 15.8154 42.0908C15.8154 41.5533 16.2252 41.1396 16.7168 41.1396H18.6006L19.1338 37.873H7.78613C6.22956 37.873 5.00026 36.5912 5 35.0615V15.958C5 14.4281 6.27036 13.1465 7.78613 13.1465H16.2656V15.0068ZM37.7314 25.5508C38.0591 25.5509 38.3457 25.7992 38.3867 26.1299L38.5508 27.4121C38.9193 27.5774 39.0425 27.6188 39.4111 27.7842L40.4346 27.04C40.7212 26.8747 41.0901 26.8743 41.3359 27.1221L42.3604 28.1562C42.6061 28.4043 42.6471 28.776 42.4424 29.0654L41.7051 30.0996C41.8689 30.4716 41.9095 30.5958 42.0732 30.9678L43.3438 31.1328C43.6714 31.2155 43.917 31.4639 43.999 31.8359V33.2832C43.999 33.614 43.7535 33.9039 43.4258 33.9453L42.1553 34.1104C41.9915 34.4823 41.9509 34.6066 41.7871 34.9785L42.5244 36.0127C42.6881 36.3021 42.688 36.6739 42.4424 36.9219L41.418 37.9561C41.1722 38.2039 40.8033 38.2448 40.5166 38.0381L39.4932 37.2939C39.1246 37.4593 39.0012 37.5008 38.6328 37.666L38.4688 38.9482C38.4278 39.2789 38.1411 39.5272 37.8135 39.5273H36.3789C36.0514 39.5271 35.7646 39.2789 35.7236 38.9482L35.5596 37.666C35.1912 37.5008 35.0678 37.4593 34.6992 37.2939L33.6758 38.0381C33.3891 38.2034 33.0202 38.2039 32.7744 37.9561L31.75 36.9219C31.5044 36.6739 31.4634 36.302 31.668 36.0127L32.4053 34.9785C32.2415 34.6066 32.2009 34.4823 32.0371 34.1104L30.7666 33.9453C30.439 33.9039 30.1934 33.6139 30.1934 33.2832V31.8359C30.1934 31.464 30.439 31.2155 30.7666 31.1328L32.0371 30.9678C32.2009 30.5958 32.2415 30.4715 32.4053 30.0996L31.627 29.0654C31.4224 28.7761 31.4634 28.4043 31.709 28.1562L32.7334 27.1221C32.9792 26.8741 33.3481 26.8333 33.6348 27.04L34.6592 27.7842C35.0275 27.619 35.1504 27.5773 35.5186 27.4121L35.6826 26.1299C35.7236 25.7993 36.0104 25.551 36.3379 25.5508H37.7314ZM37.0762 29.9336C35.6423 29.9336 34.4951 31.0918 34.4951 32.5391C34.4951 33.9863 35.6423 35.1445 37.0762 35.1445C38.4689 35.1443 39.6153 33.9861 39.6562 32.5391C39.6562 31.092 38.5098 29.9338 37.0762 29.9336ZM21.9609 18.3145C26.0985 18.3145 29.6623 21.1267 31.4238 22.7393C32.0793 23.3595 32.0793 24.3934 31.4238 25.0137C29.6622 26.6676 26.0573 29.4374 21.9199 29.4375C17.7823 29.4375 14.2176 26.6263 12.4561 25.0137C11.8007 24.3935 11.8009 23.3595 12.4561 22.7393C14.2176 21.1266 17.8233 18.3145 21.9609 18.3145ZM21.9609 20.0928C19.8718 20.0928 18.1916 21.7879 18.1914 23.8965C18.1914 26.0053 19.8716 27.7012 21.9609 27.7012C24.0501 27.7011 25.7295 26.0052 25.7295 23.8965C25.7293 21.7879 24.05 20.0929 21.9609 20.0928ZM21.96 21.498C23.2709 21.498 24.3359 22.5733 24.3359 23.8965C24.3359 25.2196 23.2709 26.2949 21.96 26.2949C20.6491 26.2949 19.584 25.2196 19.584 23.8965C19.584 23.7311 19.584 23.6068 19.625 23.4414C19.8708 23.6068 20.1166 23.6895 20.4033 23.6895C21.1407 23.6895 21.7548 23.0694 21.7549 22.3252C21.7549 22.0358 21.6327 21.7458 21.5098 21.5391C21.6326 21.4979 21.7963 21.498 21.96 21.498ZM36.0938 13.1465C37.6503 13.1467 38.8789 14.4282 38.8789 15.958V24.5586C38.5513 24.3519 38.1829 24.2276 37.7734 24.2275H37.0352V15.958C37.0352 15.4206 36.6261 15.007 36.0938 15.0068H27.6133V13.1465H36.0938ZM15.5684 6.77832C16.6332 6.77853 17.534 7.64655 17.5342 8.7627C17.5342 9.09349 17.452 9.38341 17.3291 9.67285L19.0088 11.5752C19.0906 11.6992 19.1728 11.8641 19.1729 12.0293V17.2393C18.6813 17.3633 18.1898 17.529 17.7393 17.6943V12.3193L16.2236 10.624C16.0189 10.7067 15.773 10.748 15.5273 10.748C14.4212 10.748 13.6016 9.83777 13.6016 8.7627C13.6017 7.68775 14.4624 6.77832 15.5684 6.77832ZM28.3945 6.77832C29.4594 6.77857 30.3602 7.6879 30.3604 8.7627C30.3604 9.83763 29.5004 10.7478 28.3945 10.748C28.1487 10.748 27.9021 10.7067 27.6973 10.624L26.1816 12.3193H26.1406V17.6943C25.6901 17.529 25.2395 17.3633 24.748 17.2393V12.0293C24.7481 11.8641 24.7894 11.6992 24.9121 11.5752L26.6328 9.67285C26.5099 9.38341 26.4277 9.09349 26.4277 8.7627C26.4279 7.68775 27.2885 6.77832 28.3945 6.77832ZM21.9609 5C23.0258 5.00021 23.9266 5.86827 23.9268 6.98438C23.9268 7.85265 23.3946 8.55623 22.6572 8.8457V16.9082C22.4115 16.8669 22.1656 16.8672 21.9199 16.8672C21.6741 16.8672 21.4685 16.9082 21.2227 16.9082V8.8457C20.4854 8.55618 19.9941 7.85257 19.9941 6.98438C19.9943 5.90946 20.855 5 21.9609 5Z" fill="#44ADC1"/>
</svg>
