<svg width="48" height="48" viewBox="0 0 48 48" fill="none" xmlns="http://www.w3.org/2000/svg">
<path d="M42.7003 28.3568C42.4292 28.0345 42.0492 27.8205 41.6308 27.7542C41.2124 27.6879 40.7839 27.774 40.4246 27.9964L24.4946 39.5735V40.069C24.7245 40.0421 24.9575 40.0636 25.1783 40.1323C25.3991 40.2009 25.6027 40.315 25.7757 40.4672C25.9487 40.6193 26.0872 40.806 26.182 41.015C26.2769 41.224 26.3259 41.4504 26.3259 41.6795C26.3259 41.9086 26.2769 42.135 26.182 42.344C26.0872 42.5529 25.9487 42.7396 25.7757 42.8918C25.6027 43.0439 25.3991 43.1581 25.1783 43.2267C24.9575 43.2953 24.7245 43.3169 24.4946 43.2899C24.8642 43.2916 25.224 43.1729 25.5187 42.9521L42.3817 30.6317C42.7103 30.359 42.9248 29.9753 42.9837 29.5549C43.0426 29.1346 42.9416 28.7076 42.7003 28.3568Z" fill="#669DF6"/>
<path d="M24.4951 43.2883C24.0967 43.2416 23.7294 43.0518 23.463 42.755C23.1965 42.4582 23.0493 42.0749 23.0493 41.6778C23.0493 41.2808 23.1965 40.8975 23.463 40.6007C23.7294 40.3039 24.0967 40.1141 24.4951 40.0674V39.5719L8.56507 27.9948C8.2073 27.7675 7.7775 27.6787 7.35773 27.7451C6.93797 27.8116 6.55764 28.0288 6.28936 28.3551C6.04942 28.706 5.95352 29.1342 6.02116 29.5526C6.08879 29.971 6.31489 30.3482 6.65347 30.6075L23.5165 42.9279C23.8042 43.1455 24.1558 43.2641 24.5178 43.2658L24.4951 43.2883Z" fill="#AECBFA"/>
<path d="M24.4937 38.3779C23.8321 38.3779 23.1853 38.5721 22.6352 38.9359C22.0851 39.2997 21.6563 39.8168 21.4031 40.4218C21.1499 41.0268 21.0836 41.6926 21.2127 42.3348C21.3418 42.9771 21.6604 43.5671 22.1283 44.0301C22.5961 44.4932 23.1922 44.8085 23.8411 44.9362C24.49 45.064 25.1627 44.9984 25.7739 44.7478C26.3852 44.4972 26.9077 44.0729 27.2753 43.5284C27.6428 42.9839 27.839 42.3437 27.839 41.6889C27.839 40.8108 27.4866 39.9686 26.8592 39.3477C26.2319 38.7268 25.381 38.3779 24.4937 38.3779ZM24.4937 43.2881C24.1687 43.288 23.851 43.1923 23.5811 43.0131C23.3112 42.8339 23.1012 42.5793 22.9779 42.2817C22.8546 41.984 22.8235 41.6568 22.8886 41.3416C22.9537 41.0264 23.112 40.7375 23.3434 40.5117C23.5749 40.2858 23.8689 40.1331 24.1883 40.0731C24.5076 40.0131 24.8377 40.0485 25.1367 40.1747C25.4357 40.3009 25.69 40.5122 25.8672 40.7819C26.0445 41.0515 26.1368 41.3672 26.1323 41.6889C26.1323 41.9008 26.0897 42.1106 26.0071 42.3061C25.9245 42.5016 25.8034 42.6789 25.651 42.8277C25.4985 42.9765 25.3177 43.0938 25.1191 43.1729C24.9204 43.2519 24.7078 43.2911 24.4937 43.2881Z" fill="#4285F4"/>
<path d="M10.8383 10.8315C10.3874 10.8257 9.95673 10.6458 9.63792 10.3303C9.3191 10.0148 9.13739 9.58847 9.1315 9.14226V4.90783C9.10357 4.66808 9.12718 4.42519 9.20078 4.19511C9.27439 3.96503 9.39631 3.75295 9.55856 3.57279C9.72081 3.39263 9.91971 3.24846 10.1422 3.14975C10.3647 3.05103 10.6058 3 10.8497 3C11.0935 3 11.3346 3.05103 11.5571 3.14975C11.7796 3.24846 11.9785 3.39263 12.1408 3.57279C12.303 3.75295 12.4249 3.96503 12.4985 4.19511C12.5721 4.42519 12.5957 4.66808 12.5678 4.90783V9.14226C12.5618 9.59234 12.377 10.022 12.0533 10.3381C11.7296 10.6543 11.2931 10.8316 10.8383 10.8315Z" fill="#AECBFA"/>
<path d="M10.795 25.8113C11.7502 25.8113 12.5245 25.0449 12.5245 24.0995C12.5245 23.1541 11.7502 22.3877 10.795 22.3877C9.83977 22.3877 9.06543 23.1541 9.06543 24.0995C9.06543 25.0449 9.83977 25.8113 10.795 25.8113Z" fill="#AECBFA"/>
<path d="M10.795 20.8328C11.7502 20.8328 12.5245 20.0664 12.5245 19.121C12.5245 18.1756 11.7502 17.4092 10.795 17.4092C9.83977 17.4092 9.06543 18.1756 9.06543 19.121C9.06543 20.0664 9.83977 20.8328 10.795 20.8328Z" fill="#AECBFA"/>
<path d="M10.795 15.8318C11.7502 15.8318 12.5245 15.0654 12.5245 14.12C12.5245 13.1746 11.7502 12.4082 10.795 12.4082C9.83977 12.4082 9.06543 13.1746 9.06543 14.12C9.06543 15.0654 9.83977 15.8318 10.795 15.8318Z" fill="#AECBFA"/>
<path d="M38.1492 15.7869C37.6944 15.7809 37.2603 15.598 36.9409 15.2776C36.6214 14.9572 36.4423 14.5252 36.4424 14.0751V9.84064C36.4424 9.39261 36.6222 8.96294 36.9423 8.64614C37.2624 8.32934 37.6965 8.15137 38.1492 8.15137C38.6018 8.15137 39.036 8.32934 39.3561 8.64614C39.6761 8.96294 39.856 9.39261 39.856 9.84064V14.0751C39.859 14.2988 39.817 14.5209 39.7326 14.7284C39.6482 14.936 39.523 15.1249 39.3642 15.2842C39.2054 15.4434 39.0162 15.5699 38.8076 15.6562C38.5991 15.7425 38.3752 15.7869 38.1492 15.7869Z" fill="#4285F4"/>
<path d="M38.1944 25.8318C39.1496 25.8318 39.9239 25.0654 39.9239 24.12C39.9239 23.1746 39.1496 22.4082 38.1944 22.4082C37.2392 22.4082 36.4648 23.1746 36.4648 24.12C36.4648 25.0654 37.2392 25.8318 38.1944 25.8318Z" fill="#4285F4"/>
<path d="M38.1944 20.7654C39.1496 20.7654 39.9239 19.999 39.9239 19.0536C39.9239 18.1082 39.1496 17.3418 38.1944 17.3418C37.2392 17.3418 36.4648 18.1082 36.4648 19.0536C36.4648 19.999 37.2392 20.7654 38.1944 20.7654Z" fill="#4285F4"/>
<path d="M38.1944 6.61988C39.1496 6.61988 39.9239 5.85348 39.9239 4.90808C39.9239 3.96269 39.1496 3.19629 38.1944 3.19629C37.2392 3.19629 36.4648 3.96269 36.4648 4.90808C36.4648 5.85348 37.2392 6.61988 38.1944 6.61988Z" fill="#4285F4"/>
<path d="M24.4944 30.8557C24.0435 30.8498 23.6128 30.67 23.294 30.3544C22.9752 30.0389 22.7935 29.6126 22.7876 29.1664V24.8644C22.8362 24.4471 23.0381 24.0621 23.3549 23.7826C23.6718 23.5031 24.0814 23.3486 24.5058 23.3486C24.9302 23.3486 25.3398 23.5031 25.6566 23.7826C25.9734 24.0621 26.1753 24.4471 26.2239 24.8644V29.1214C26.2269 29.348 26.1844 29.5731 26.0989 29.7833C26.0133 29.9936 25.8864 30.185 25.7255 30.3464C25.5646 30.5077 25.3729 30.6358 25.1616 30.7232C24.9502 30.8107 24.7234 30.8557 24.4944 30.8557Z" fill="#669DF6"/>
<path d="M24.4952 35.8337C25.4504 35.8337 26.2247 35.0673 26.2247 34.122C26.2247 33.1766 25.4504 32.4102 24.4952 32.4102C23.54 32.4102 22.7656 33.1766 22.7656 34.122C22.7656 35.0673 23.54 35.8337 24.4952 35.8337Z" fill="#669DF6"/>
<path d="M24.4952 21.6209C25.4504 21.6209 26.2247 20.8545 26.2247 19.9091C26.2247 18.9637 25.4504 18.1973 24.4952 18.1973C23.54 18.1973 22.7656 18.9637 22.7656 19.9091C22.7656 20.8545 23.54 21.6209 24.4952 21.6209Z" fill="#669DF6"/>
<path d="M24.4952 16.6209C25.4504 16.6209 26.2247 15.8545 26.2247 14.9091C26.2247 13.9637 25.4504 13.1973 24.4952 13.1973C23.54 13.1973 22.7656 13.9637 22.7656 14.9091C22.7656 15.8545 23.54 16.6209 24.4952 16.6209Z" fill="#669DF6"/>
<path d="M31.3197 20.8091C30.8689 20.8032 30.4382 20.6234 30.1194 20.3078C29.8005 19.9923 29.6188 19.566 29.6129 19.1198V14.8854C29.585 14.6456 29.6086 14.4027 29.6822 14.1726C29.7558 13.9426 29.8778 13.7305 30.04 13.5503C30.2023 13.3702 30.4012 13.226 30.6237 13.1273C30.8462 13.0286 31.0873 12.9775 31.3311 12.9775C31.5749 12.9775 31.816 13.0286 32.0385 13.1273C32.2611 13.226 32.46 13.3702 32.6222 13.5503C32.7845 13.7305 32.9064 13.9426 32.98 14.1726C33.0536 14.4027 33.0772 14.6456 33.0493 14.8854V19.1198C33.0433 19.5699 32.8584 19.9995 32.5347 20.3157C32.211 20.6319 31.7745 20.8091 31.3197 20.8091Z" fill="#4285F4"/>
<path d="M31.3448 11.5974C32.3 11.5974 33.0743 10.831 33.0743 9.88562C33.0743 8.94022 32.3 8.17383 31.3448 8.17383C30.3896 8.17383 29.6152 8.94022 29.6152 9.88562C29.6152 10.831 30.3896 11.5974 31.3448 11.5974Z" fill="#4285F4"/>
<path d="M31.3448 30.7419C32.3 30.7419 33.0743 29.9755 33.0743 29.0302C33.0743 28.0848 32.3 27.3184 31.3448 27.3184C30.3896 27.3184 29.6152 28.0848 29.6152 29.0302C29.6152 29.9755 30.3896 30.7419 31.3448 30.7419Z" fill="#4285F4"/>
<path d="M31.3448 25.7429C32.3 25.7429 33.0743 24.9765 33.0743 24.0311C33.0743 23.0857 32.3 22.3193 31.3448 22.3193C30.3896 22.3193 29.6152 23.0857 29.6152 24.0311C29.6152 24.9765 30.3896 25.7429 31.3448 25.7429Z" fill="#4285F4"/>
<path d="M17.6456 30.7419C18.6008 30.7419 19.3751 29.9755 19.3751 29.0302C19.3751 28.0848 18.6008 27.3184 17.6456 27.3184C16.6904 27.3184 15.916 28.0848 15.916 29.0302C15.916 29.9755 16.6904 30.7419 17.6456 30.7419Z" fill="#AECBFA"/>
<path d="M17.6456 16.6209C18.6008 16.6209 19.3751 15.8545 19.3751 14.9091C19.3751 13.9637 18.6008 13.1973 17.6456 13.1973C16.6904 13.1973 15.916 13.9637 15.916 14.9091C15.916 15.8545 16.6904 16.6209 17.6456 16.6209Z" fill="#AECBFA"/>
<path d="M17.6456 11.5974C18.6008 11.5974 19.3751 10.831 19.3751 9.88562C19.3751 8.94022 18.6008 8.17383 17.6456 8.17383C16.6904 8.17383 15.916 8.94022 15.916 9.88562C15.916 10.831 16.6904 11.5974 17.6456 11.5974Z" fill="#AECBFA"/>
<path d="M17.6675 25.7419C17.2204 25.7422 16.7905 25.5712 16.4681 25.2646C16.1456 24.9581 15.9556 24.5398 15.938 24.0977V19.8182C15.938 19.3702 16.1178 18.9405 16.4379 18.6237C16.758 18.3069 17.1921 18.1289 17.6448 18.1289C18.0974 18.1289 18.5316 18.3069 18.8517 18.6237C19.1717 18.9405 19.3516 19.3702 19.3516 19.8182V24.0977C19.3398 24.534 19.158 24.9488 18.844 25.2553C18.5301 25.5619 18.1085 25.7362 17.6675 25.7419Z" fill="#AECBFA"/>
</svg>
