<svg width="48" height="48" viewBox="0 0 48 48" fill="none" xmlns="http://www.w3.org/2000/svg">
<path d="M7.47184 24.9612V24.9313V20.3626H8.47811V25.3126C8.52486 25.7115 8.49045 26.1158 8.37691 26.5012C8.26338 26.8866 8.07305 27.2453 7.81728 27.5558C7.34192 27.9641 6.73284 28.1849 6.10513 28.1765L6 27.4287C6.40489 27.4289 6.7955 27.2798 7.09637 27.01C7.36671 26.6959 7.47184 26.2697 7.47184 24.9612ZM14.9763 24.3714C14.9763 24.9322 14.9763 25.4332 15.0213 25.8669H14.1277L14.0676 24.977C13.8807 25.2919 13.6134 25.5518 13.2929 25.7304C12.9724 25.909 12.6101 26 12.2428 25.994C11.3717 25.994 10.3355 25.5229 10.3355 23.6012V20.4083H11.3417V23.3993C11.3417 24.4387 11.6646 25.1341 12.5733 25.1341C12.7602 25.1361 12.9457 25.1009 13.1188 25.0306C13.2919 24.9603 13.4491 24.8562 13.5813 24.7246C13.7135 24.593 13.818 24.4364 13.8886 24.264C13.9592 24.0917 13.9945 23.907 13.9925 23.7208V20.371H14.9988V24.3415L14.9763 24.3714ZM16.8837 22.1873C16.8837 21.4919 16.8837 20.9236 16.8386 20.4077H17.7398L17.7848 21.3424C17.9856 21.0047 18.2746 20.7276 18.6211 20.5406C18.9676 20.3536 19.3585 20.2637 19.7523 20.2806C21.089 20.2806 22.0952 21.3947 22.0952 23.0547C22.0952 25.0138 20.8862 25.9858 19.5796 25.9858C19.2451 26.0007 18.9125 25.9294 18.6139 25.7787C18.3152 25.6281 18.0607 25.4032 17.8749 25.1259V28.1169H16.8837V22.2097V22.1873ZM17.8749 23.6454C17.8777 23.7811 17.8927 23.9162 17.92 24.0492C18.0052 24.3812 18.1991 24.6754 18.4712 24.8854C18.7432 25.0953 19.0777 25.2089 19.4219 25.2082C20.4807 25.2082 21.104 24.3483 21.104 23.0996C21.104 22.0079 20.5182 21.0732 19.4594 21.0732C19.0404 21.1073 18.6483 21.2925 18.3566 21.594C18.0649 21.8955 17.8936 22.2925 17.8749 22.7107V23.6454ZM23.8881 20.4027L25.0971 23.6255C25.2247 23.9844 25.3599 24.4181 25.45 24.7396C25.5552 24.4106 25.6678 23.9919 25.803 23.603L26.8993 20.4027H27.9582L26.4563 24.291C25.7054 26.1603 25.2473 27.1249 24.5564 27.7081C24.2084 28.0246 23.7842 28.2461 23.3249 28.3512L23.0771 27.5137C23.3982 27.4087 23.6964 27.2437 23.9557 27.0277C24.322 26.7304 24.6127 26.3513 24.8042 25.921C24.8452 25.8465 24.8731 25.7656 24.8868 25.6818C24.8783 25.5915 24.8555 25.5032 24.8192 25.4201L22.7767 20.3878H23.873L23.8881 20.4027ZM30.6295 18.834V20.4042H32.0713V21.152H30.6295V24.0981C30.6295 24.771 30.8248 25.1599 31.3805 25.1599C31.5778 25.1631 31.7748 25.1405 31.9662 25.0926L32.0113 25.8403C31.7242 25.9393 31.4213 25.985 31.1176 25.9749C30.9165 25.9874 30.7151 25.9565 30.5272 25.8842C30.3392 25.8119 30.1692 25.7 30.0288 25.5562C29.7229 25.1488 29.5834 24.6412 29.6383 24.1355V21.1445H28.7822V20.3968H29.6533V19.0658L30.6295 18.834ZM33.925 23.3097C33.9046 23.5633 33.9398 23.8182 34.028 24.057C34.1163 24.2957 34.2556 24.5125 34.4363 24.6924C34.6169 24.8723 34.8346 25.011 35.0744 25.0989C35.3141 25.1868 35.5702 25.2218 35.8249 25.2015C36.34 25.213 36.8518 25.1161 37.3268 24.9173L37.4995 25.6651C36.9166 25.9042 36.2898 26.0188 35.6597 26.0016C35.2923 26.0266 34.9239 25.9722 34.5796 25.8422C34.2353 25.7121 33.9234 25.5094 33.6651 25.248C33.4069 24.9866 33.2085 24.6727 33.0836 24.3278C32.9586 23.9829 32.9101 23.6152 32.9413 23.2499C32.9413 21.6048 33.925 20.3038 35.532 20.3038C37.3343 20.3038 37.7848 21.874 37.7848 22.876C37.7945 23.0304 37.7945 23.1852 37.7848 23.3396H33.9025L33.925 23.3097ZM36.8687 22.562C36.8977 22.362 36.8833 22.1583 36.8265 21.9644C36.7697 21.7705 36.6718 21.5909 36.5395 21.4379C36.4071 21.2848 36.2433 21.1618 36.0592 21.0771C35.875 20.9924 35.6748 20.948 35.4719 20.9468C35.0593 20.9766 34.6728 21.1587 34.388 21.4574C34.1032 21.7562 33.9408 22.1501 33.9325 22.562H36.8687ZM39.3116 22.103C39.3116 21.46 39.3116 20.9066 39.2666 20.3982H40.1677V21.4674H40.2128C40.3073 21.1374 40.5028 20.8449 40.7719 20.6305C41.041 20.4161 41.3705 20.2905 41.7146 20.2711C41.8094 20.2587 41.9053 20.2587 42 20.2711V21.2057C41.8852 21.1925 41.7693 21.1925 41.6546 21.2057C41.3137 21.2189 40.9893 21.3551 40.7419 21.5891C40.4945 21.823 40.3411 22.1386 40.3104 22.4769C40.2823 22.6299 40.2672 22.785 40.2653 22.9405V25.8492H39.2741V22.1105L39.3116 22.103Z" fill="#4E4E4E"/>
<path d="M38.8713 5.3816C38.9021 5.88394 38.7821 6.38404 38.5265 6.81821C38.2709 7.25239 37.8913 7.60096 37.436 7.81955C36.9807 8.03813 36.4704 8.11681 35.9701 8.04559C35.4697 7.97436 35.002 7.75645 34.6265 7.4196C34.251 7.08276 33.9846 6.64222 33.8615 6.15413C33.7383 5.66603 33.7638 5.15246 33.9347 4.67886C34.1057 4.20525 34.4144 3.79303 34.8214 3.49472C35.2285 3.19641 35.7155 3.02551 36.2205 3.00378C36.5516 2.98564 36.883 3.03285 37.1956 3.14269C37.5083 3.25253 37.7961 3.42284 38.0425 3.64382C38.2888 3.8648 38.4889 4.13209 38.6311 4.43032C38.7734 4.72855 38.855 5.05185 38.8713 5.3816Z" fill="#767677"/>
<path d="M24.0217 34.6675C17.2633 34.6675 11.3233 32.2523 8.25195 28.6855C9.44365 31.8942 11.5939 34.6624 14.4133 36.6174C17.2327 38.5724 20.5861 39.6204 24.0217 39.6204C27.4574 39.6204 30.8106 38.5724 33.6301 36.6174C36.4495 34.6624 38.5998 31.8942 39.7915 28.6855C36.7277 32.2523 30.8102 34.6675 24.0217 34.6675Z" fill="#F37726"/>
<path d="M24.0217 11.4745C30.7802 11.4745 36.7202 13.8897 39.7915 17.4564C38.5998 14.2477 36.4495 11.4796 33.6301 9.52454C30.8106 7.56953 27.4574 6.52148 24.0217 6.52148C20.5861 6.52148 17.2327 7.56953 14.4133 9.52454C11.5939 11.4796 9.44365 14.2477 8.25195 17.4564C11.3233 13.8822 17.2333 11.4745 24.0217 11.4745Z" fill="#F37726"/>
<path d="M14.7174 41.6088C14.757 42.2415 14.6066 42.8716 14.2853 43.4189C13.9639 43.9662 13.4863 44.4059 12.9131 44.6819C12.3399 44.9579 11.6972 45.0578 11.0669 44.9688C10.4365 44.8798 9.847 44.6059 9.3735 44.1821C8.9 43.7583 8.56392 43.2037 8.40808 42.5891C8.25225 41.9744 8.28371 41.3274 8.49845 40.7306C8.7132 40.1338 9.10151 39.6142 9.61392 39.2379C10.1263 38.8616 10.7396 38.6458 11.3757 38.6178C11.7923 38.5956 12.2093 38.6554 12.6028 38.7937C12.9963 38.932 13.3585 39.1462 13.6688 39.4239C13.9791 39.7017 14.2315 40.0376 14.4114 40.4125C14.5913 40.7873 14.6953 41.1939 14.7174 41.6088Z" fill="#9E9E9E"/>
<path d="M9.0204 10.6616C8.65623 10.6716 8.29721 10.5742 7.9885 10.3816C7.67979 10.1889 7.43517 9.90973 7.2854 9.57906C7.13563 9.24837 7.0874 8.88098 7.14677 8.52307C7.20614 8.16517 7.37046 7.83272 7.61907 7.56757C7.86768 7.30241 8.18949 7.11636 8.54401 7.03283C8.89852 6.9493 9.26992 6.97201 9.61152 7.0981C9.95311 7.2242 10.2496 7.44805 10.4638 7.7415C10.678 8.03496 10.8002 8.38492 10.8151 8.74737C10.8294 9.23746 10.6489 9.71337 10.3129 10.0718C9.97685 10.4301 9.51241 10.6421 9.0204 10.6616Z" fill="#616262"/>
</svg>
