<svg width="48" height="48" viewBox="0 0 48 48" fill="none" xmlns="http://www.w3.org/2000/svg">
<path d="M45 44.9984C45 44.9992 44.9992 45 44.9984 45H3.00161C3.0008 45 3 44.9992 3 44.9984V3.00161C3 3.0008 3.0008 3 3.00161 3H44.9988C44.9996 3 45.0004 3.0008 45.0004 3.00161V44.9984H45Z" fill="#D00000"/>
<path d="M14.4662 35.4115C14.4662 35.4433 14.4847 35.4875 14.5069 35.5096L15.2258 36.2285C15.2483 36.2511 15.2925 36.2692 15.3239 36.2692H17.784C17.8158 36.2692 17.86 36.2507 17.8821 36.2285L18.6011 35.5096C18.6236 35.4871 18.6417 35.4429 18.6417 35.4115V27.6057C18.6417 27.5739 18.6606 27.53 18.6835 27.5083L21.809 24.5233C21.8319 24.5015 21.8653 24.5047 21.883 24.5313L29.7797 36.2221C29.7974 36.2483 29.8381 36.27 29.8694 36.27H33.3546C33.3863 36.27 33.4242 36.247 33.4386 36.2189L34.0711 34.9935C34.0855 34.9653 34.0827 34.9211 34.0646 34.8949L24.8278 21.5064C24.8097 21.4803 24.8134 21.4408 24.8359 21.4183L33.3316 12.9624C33.3542 12.9399 33.3723 12.896 33.3723 12.8642V12.7081C33.3723 12.6764 33.3618 12.6269 33.3493 12.5975L32.8593 11.4707C32.8469 11.4417 32.8102 11.418 32.7789 11.418H29.334C29.3022 11.418 29.2579 11.4365 29.2358 11.4586L18.6831 22.0511C18.6606 22.0737 18.6425 22.066 18.6425 22.0342V12.3167C18.6425 12.2849 18.6248 12.2403 18.6031 12.2169L17.8978 11.4606C17.8761 11.4373 17.8327 11.4184 17.8009 11.4184H15.3239C15.2921 11.4184 15.2487 11.4373 15.227 11.4606L14.5048 12.2403C14.4831 12.2636 14.4658 12.3083 14.4658 12.34V35.4115H14.4662Z" fill="white"/>
</svg>
