<svg width="48" height="48" viewBox="0 0 48 48" fill="none" xmlns="http://www.w3.org/2000/svg">
<path fill-rule="evenodd" clip-rule="evenodd" d="M33.9393 44H42.489C43.3215 43.9967 43.9967 43.3215 44 42.489V37.4839C43.9967 36.6497 43.3215 35.9762 42.489 35.9729H38.2643L35.9781 33.3836V33.3852C35.811 33.1967 35.5471 33.1312 35.3112 33.2197C35.0768 33.3082 34.9211 33.5327 34.9211 33.7835V35.9729H33.9395C33.1053 35.9762 32.4301 36.6498 32.4285 37.4839V42.489C32.4301 43.3215 33.1051 43.9967 33.9393 44ZM37.2415 30.3978H37.2398C37.1399 30.1405 37.2661 29.8504 37.5234 29.7488C37.7806 29.6488 38.0707 29.775 38.1723 30.0323L38.6295 31.2073C40.5617 27.2709 40.8288 22.7231 39.3703 18.5885C37.9117 14.4522 34.8506 11.078 30.8764 9.22616C26.9022 7.37265 22.3497 7.19569 18.2445 8.73778C18.1184 8.79841 17.9709 8.80333 17.8414 8.75089C17.7103 8.69845 17.6087 8.59356 17.5595 8.46246C17.5104 8.33135 17.5185 8.1855 17.5825 8.05931C17.6464 7.93476 17.7611 7.84299 17.8955 7.80529C22.2549 6.15828 27.0942 6.34019 31.319 8.3084C35.5437 10.275 38.7951 13.8639 40.3407 18.2611C41.8844 22.6578 41.5894 27.4925 39.5229 31.6699L40.7815 31.1749C41.0388 31.075 41.3272 31.2028 41.4272 31.4601C41.5272 31.7174 41.3994 32.0058 41.1421 32.1058L38.8018 33.0202C38.6773 33.0678 38.5396 33.0645 38.4184 33.0121C38.2987 32.958 38.2037 32.858 38.1545 32.7351L37.24 30.3981L37.2415 30.3978ZM10.7599 17.6019L9.84548 15.265C9.79632 15.1421 9.70126 15.0421 9.58163 14.988C9.46036 14.9356 9.3227 14.9323 9.19815 14.9798L6.86121 15.8943C6.73174 15.9369 6.62522 16.0303 6.56622 16.1548C6.50722 16.2778 6.50231 16.4203 6.55147 16.5465C6.60063 16.6744 6.69896 16.7776 6.82515 16.83C6.95134 16.8825 7.09391 16.8808 7.21846 16.8251L8.47707 16.3302C6.41052 20.5075 6.11555 25.3418 7.65931 29.739C9.20472 34.1357 12.4563 37.7249 16.681 39.6916C20.9057 41.6599 25.7451 41.8418 30.1045 40.1948C30.2389 40.1571 30.3536 40.0653 30.4175 39.9407C30.4814 39.8146 30.4896 39.6687 30.4404 39.5376C30.3913 39.4065 30.2897 39.3016 30.1586 39.2492C30.0291 39.1967 29.8816 39.2016 29.7554 39.2623C25.6502 40.806 21.0958 40.6323 17.1203 38.7805C13.1445 36.927 10.0834 33.551 8.62465 29.4147C7.16609 25.2784 7.43489 20.7291 9.37029 16.7926L9.8275 17.9676C9.92911 18.2249 10.2192 18.3511 10.4765 18.2511C10.5994 18.202 10.6994 18.1069 10.7518 17.9856C10.8059 17.8627 10.8075 17.7248 10.7599 17.6019ZM26.668 15.0093C27.2923 15.1961 27.8954 15.4469 28.4674 15.7566C28.7624 15.9237 29.1278 15.9041 29.4032 15.7058L30.2422 15.1224C30.5979 14.8733 31.0797 14.9175 31.3845 15.2273L32.7726 16.6153C33.0823 16.9202 33.1266 17.402 32.8775 17.7576L32.2941 18.5967C32.0958 18.872 32.0761 19.2374 32.2433 19.5325C32.553 20.1044 32.8037 20.7075 32.9905 21.3319C33.0823 21.658 33.3527 21.9006 33.687 21.9563L34.69 22.1366C35.1161 22.2136 35.4258 22.5856 35.4242 23.0183V24.9816C35.4258 25.4142 35.1161 25.7862 34.69 25.8633L33.687 26.0435C33.3527 26.0992 33.0823 26.3418 32.9905 26.6679C32.8037 27.2923 32.553 27.8954 32.2433 28.4674C32.0794 28.764 32.099 29.1278 32.2941 29.4031L32.8775 30.2422C33.1266 30.5978 33.0823 31.0796 32.7726 31.3845L31.3845 32.7725C31.0797 33.0823 30.5979 33.1265 30.2422 32.8774L29.4032 32.294C29.1278 32.0957 28.7624 32.0761 28.4674 32.2432C27.8954 32.553 27.2923 32.8037 26.668 32.9905C26.3418 33.0823 26.0993 33.3527 26.0436 33.687L25.8633 34.69C25.7863 35.116 25.4143 35.4258 24.9816 35.4241H23.0183C22.5857 35.4258 22.2136 35.116 22.1366 34.69L21.9563 33.687C21.9006 33.3527 21.6581 33.0823 21.3319 32.9905C20.7075 32.8037 20.1044 32.5529 19.5325 32.2432C19.2359 32.0793 18.8721 32.099 18.5967 32.294L17.7576 32.8774C17.402 33.1265 16.9202 33.0823 16.6154 32.7725L15.2273 31.3845C14.9176 31.0797 14.8733 30.5978 15.1224 30.2422L15.7058 29.4031C15.9041 29.1278 15.9238 28.7624 15.7566 28.4674C15.4469 27.8954 15.1962 27.2923 15.0093 26.6679C14.9176 26.3418 14.6472 26.0992 14.3128 26.0435L13.3099 25.8633C12.8838 25.7862 12.5741 25.4142 12.5757 24.9816V23.0183C12.5741 22.5856 12.8838 22.2136 13.3099 22.1366L14.3128 21.9563C14.6471 21.9006 14.9175 21.658 15.0093 21.3319C15.1962 20.7075 15.4469 20.1044 15.7566 19.5325C15.9205 19.2358 15.9008 18.872 15.7058 18.5967L15.1224 17.7576C14.8733 17.402 14.9176 16.9202 15.2273 16.6153L16.6154 15.2273C16.9202 14.9175 17.402 14.8733 17.7576 15.1224L18.5967 15.7058C18.872 15.9041 19.2375 15.9237 19.5325 15.7566C20.1044 15.4468 20.7075 15.1961 21.3319 15.0093C21.658 14.9175 21.9006 14.6471 21.9563 14.3128L22.1366 13.3098C22.2136 12.8838 22.5856 12.574 23.0183 12.5757H24.9816C25.4142 12.574 25.7863 12.8838 25.8633 13.3098L26.0436 14.3128C26.0993 14.6471 26.3418 14.9175 26.668 15.0093ZM24 18.6213C21.8253 18.6213 19.8636 19.9323 19.031 21.9415C18.1984 23.9507 18.659 26.2648 20.1961 27.8037C21.735 29.3409 24.049 29.8014 26.0583 28.9689C28.0677 28.1363 29.3786 26.1747 29.3786 23.9999C29.3786 22.5741 28.8115 21.2057 27.8037 20.1962C26.7942 19.1883 25.4257 18.6213 24 18.6213ZM6.55145 7.47419C6.29252 7.45124 6.09424 7.23328 6.09424 6.97271C6.09424 6.71214 6.29254 6.49583 6.55145 6.47124H13.0199C13.1608 6.45813 13.3017 6.50566 13.4066 6.60071C13.5099 6.6974 13.5705 6.83178 13.5705 6.97272C13.5705 7.11529 13.5099 7.24968 13.4066 7.34473C13.3017 7.43978 13.1608 7.4873 13.0199 7.47419L6.55145 7.47419ZM6.55145 9.57187C6.29252 9.54892 6.09424 9.33096 6.09424 9.07039C6.09424 8.80982 6.29254 8.59351 6.55145 8.56892H11.322C11.5809 8.59351 11.7792 8.80983 11.7792 9.07039C11.7792 9.33096 11.5809 9.54892 11.322 9.57187H6.55145ZM34.9801 39.4475C34.8391 39.4606 34.6982 39.413 34.5933 39.318C34.4901 39.2229 34.4294 39.0869 34.4294 38.946C34.4294 38.805 34.4901 38.669 34.5933 38.574C34.6982 38.4789 34.8391 38.4314 34.9801 38.4445H41.4485C41.7074 38.4691 41.9057 38.6854 41.9057 38.946C41.9057 39.2065 41.7074 39.4229 41.4485 39.4474L34.9801 39.4475ZM34.9801 41.5451C34.8391 41.5582 34.6982 41.5107 34.5933 41.4157C34.4901 41.3206 34.4294 41.1846 34.4294 41.0437C34.4294 40.9027 34.4901 40.7667 34.5933 40.6716C34.6982 40.5766 34.8391 40.5291 34.9801 40.5422H39.7456C39.8865 40.5291 40.0258 40.5766 40.1307 40.6716C40.2356 40.7667 40.2946 40.9027 40.2946 41.0437C40.2946 41.1846 40.2356 41.3206 40.1307 41.4157C40.0258 41.5107 39.8865 41.5582 39.7456 41.5451H34.9801ZM14.0607 4.00001H5.511C4.67847 4.00328 4.00327 4.67848 4 5.51101V10.5161C4.00328 11.3502 4.67847 12.0238 5.511 12.0271H9.73573L12.0219 14.6164V14.6148C12.1857 14.8131 12.4578 14.8868 12.6987 14.7967C12.9396 14.7065 13.0986 14.4738 13.092 14.2165V12.0271H14.0606C14.8947 12.0238 15.5699 11.3502 15.5716 10.5161V5.511C15.5699 4.67847 14.8949 4.00328 14.0607 4.00001Z" fill="#44ADC1"/>
</svg>
