<svg width="48" height="48" viewBox="0 0 48 48" fill="none" xmlns="http://www.w3.org/2000/svg">
<path d="M40.0855 24.2891C43.042 26.027 45.0289 29.2382 45.0351 32.9151C45.0456 38.4498 40.5639 42.9448 35.0268 42.9537C29.4898 42.9642 24.9926 38.4844 24.9824 32.9497C24.9759 29.2728 26.9513 26.0554 29.9025 24.3055L32.7835 29.1727C32.8554 29.2945 32.8144 29.4516 32.6975 29.5317C31.6073 30.2727 30.8928 31.5229 30.8955 32.9395C30.8994 35.2103 32.7451 37.0488 35.0163 37.0435C37.2882 37.0396 39.126 35.1958 39.1221 32.9253C39.1198 31.5091 38.4014 30.2609 37.3086 29.5238C37.192 29.4441 37.1497 29.287 37.2213 29.1648L40.0855 24.2891Z" fill="#128DFF"/>
<path d="M17.9563 24.2297C16.4602 23.3921 14.7749 22.9536 13.0615 22.9561C7.52313 22.9561 3.03516 27.4435 3.03516 32.9782C3.03516 38.5126 7.52313 43.0004 13.0615 43.0004C18.6258 43.0004 23.2241 38.2785 23.0842 32.7207H17.4405C17.2917 32.7207 17.1752 32.8468 17.1738 32.9947C17.1597 35.2089 15.3114 37.0898 13.0615 37.0898C10.7886 37.0898 8.94819 35.2488 8.94819 32.9779C8.94819 30.7073 10.7886 28.8663 13.0615 28.8663C13.6555 28.8663 14.2213 28.9924 14.7315 29.22C14.8573 29.2753 15.006 29.2332 15.0753 29.1159L17.9563 24.2297Z" fill="#8BDA67"/>
<path d="M18.7662 22.6571C15.8137 20.9138 13.832 17.699 13.832 14.0221C13.832 8.48741 18.3213 4 23.8584 4C29.3955 4 33.8847 8.48741 33.8847 14.0221C33.8847 17.699 31.9031 20.9138 28.9505 22.6571L26.0771 17.7866C26.0052 17.6648 26.0462 17.5077 26.1644 17.4276C27.2546 16.6879 27.9714 15.4387 27.9714 14.0221C27.9714 11.7516 26.1296 9.91053 23.8581 9.91053C21.5865 9.91053 19.7447 11.7516 19.7447 14.0225C19.7447 15.4387 20.4615 16.6879 21.552 17.428C21.6702 17.5077 21.7109 17.6644 21.639 17.787L18.7662 22.6571Z" fill="#FF2A44"/>
</svg>
