<svg width="48" height="48" viewBox="0 0 48 48" fill="none" xmlns="http://www.w3.org/2000/svg">
<path fill-rule="evenodd" clip-rule="evenodd" d="M32.6147 18.8741V34.7483L34.9109 34.7244L37.2071 34.7006L37.2296 18.8503L37.2522 3H32.6147V18.8741ZM18.1689 10.2675V15.0382H22.8058V5.49682H18.1689V10.2675ZM10.7676 29.1274V45H15.4045V13.2548H10.7676V29.1274ZM25.3918 18.0685V22.8854H30.0302L30.0072 18.0924L29.9841 13.2994L27.688 13.2756L25.3918 13.2517V18.0685ZM18.1689 29.8408V34.6561H22.8058V25.0255H18.1689V29.8408ZM25.3918 37.6879V42.5032H30.0287V32.8726H25.3918V37.6879Z" fill="#0C0454"/>
<path fill-rule="evenodd" clip-rule="evenodd" d="M18.1689 20.0766V22.3505H22.8059V17.8027H18.1689V20.0766ZM25.3919 27.9238V30.1976H30.0288V25.6499H25.3919V27.9238Z" fill="#F36848"/>
</svg>
