<svg width="48" height="48" viewBox="0 0 48 48" fill="none" xmlns="http://www.w3.org/2000/svg">
<path fill-rule="evenodd" clip-rule="evenodd" d="M28.4498 28.8085H30.13V24.5932H28.4498V28.8085ZM23.6598 28.8085H25.34V20.8038H23.6598V28.8085ZM18.8245 28.8085H20.5047V23.4851H18.8227V28.8085H18.8245ZM16.4106 30.1398C16.0573 30.1306 15.776 29.8356 15.776 29.4741C15.776 29.1146 16.0573 28.8177 16.4106 28.8085H17.5211L17.5229 22.819C17.5229 22.4502 17.8132 22.1533 18.1737 22.1533H21.1555C21.5161 22.1533 21.8063 22.4501 21.8063 22.819V28.8085H22.3562L22.358 20.1381C22.358 19.7693 22.6482 19.4724 23.0088 19.4724H25.9906C26.3511 19.4724 26.6414 19.7693 26.6414 20.1381V28.8085H27.1462L27.148 23.9274C27.148 23.5604 27.4382 23.2617 27.7988 23.2617H30.7806C31.1411 23.2617 31.4314 23.5604 31.4314 23.9274V28.8085H32.5437C32.8971 28.8177 33.1765 29.1146 33.1765 29.4741C33.1765 29.8356 32.8971 30.1306 32.5437 30.1398H16.4106ZM25.1507 7.8884C25.1561 8.06911 25.0894 8.24244 24.9668 8.3715C24.8442 8.50056 24.6766 8.5725 24.4999 8.5725C24.325 8.5725 24.1556 8.50058 24.033 8.3715C23.9104 8.24242 23.8437 8.06909 23.8491 7.8884V3.68226C23.8437 3.50339 23.9104 3.33006 24.033 3.20099C24.1556 3.07193 24.3251 3 24.4999 3C24.6766 3 24.8442 3.07191 24.9668 3.20099C25.0894 3.33007 25.1561 3.5034 25.1507 3.68226V7.8884ZM13.1657 12.4559C13.4199 12.7178 13.4199 13.1401 13.1639 13.4001C12.9097 13.6601 12.4969 13.6582 12.2427 13.3982L9.30598 10.3944C9.18339 10.269 9.11489 10.0993 9.11489 9.92231C9.11489 9.74529 9.18339 9.57564 9.30598 9.45025C9.56197 9.19025 9.9748 9.19209 10.229 9.45209L13.1657 12.4559ZM7.82421 24.3259C8.00088 24.3203 8.17034 24.3886 8.29652 24.514C8.42271 24.6394 8.49302 24.8108 8.49302 24.9915C8.49302 25.1704 8.42271 25.3437 8.29652 25.4691C8.17032 25.5945 8.00087 25.6627 7.82421 25.6572H3.66701C3.49214 25.6627 3.32268 25.5945 3.1965 25.4691C3.07031 25.3437 3 25.1704 3 24.9915C3 24.8108 3.07031 24.6393 3.1965 24.514C3.3227 24.3886 3.49216 24.3203 3.66701 24.3259H7.82421ZM36.7554 13.3986C36.4994 13.655 36.0902 13.655 35.8378 13.395C35.5836 13.1368 35.5836 12.7182 35.8342 12.4564L38.7709 9.45251C39.0251 9.19251 39.4379 9.19067 39.6939 9.45067C39.9481 9.71067 39.9481 10.1329 39.6939 10.3948L36.7572 13.3986L36.7554 13.3986ZM41.1758 25.6576C40.9991 25.6631 40.8297 25.5949 40.7035 25.4695C40.5773 25.3441 40.507 25.1707 40.507 24.9919C40.507 24.8112 40.5773 24.6397 40.7035 24.5143C40.8297 24.3889 40.9991 24.3207 41.1758 24.3262H45.333C45.5079 24.3207 45.6773 24.3889 45.8035 24.5143C45.9297 24.6397 46 24.8112 46 24.9919C46 25.1707 45.9297 25.3441 45.8035 25.4695C45.6773 25.5949 45.5078 25.6631 45.333 25.6576H41.1758ZM18.1778 36.7198L15.3132 42.9174C21.1162 45.6871 27.8192 45.6945 33.6278 42.9377L30.7776 36.7217C26.8511 38.9197 22.1026 38.9197 18.1779 36.7217L18.1778 36.7198ZM36.2759 24.9679C36.2759 28.7204 34.5705 32.2588 31.659 34.5417C28.7493 36.8264 24.9671 37.5954 21.4245 36.6254C17.8803 35.6536 14.9814 33.0518 13.577 29.5851C12.1744 26.1203 12.4268 22.1832 14.2603 18.9345C16.0955 15.6854 19.3027 13.4931 22.939 13.0045C26.5752 12.514 30.2276 13.7827 32.8199 16.4362C35.0373 18.6969 36.2795 21.7668 36.2759 24.9679Z" fill="#44ADC1"/>
</svg>
