<svg width="48" height="48" viewBox="0 0 48 48" fill="none" xmlns="http://www.w3.org/2000/svg">
<path d="M36.8845 15.3404L33.8285 18.3929C38.9223 23.4714 38.9223 31.7519 33.8285 36.8304C28.7299 41.9168 20.4332 41.9168 15.333 36.8304C10.2424 31.7535 10.2424 23.4714 15.333 18.3929L23.4876 10.2604L24.5089 9.09861V3L12.1302 15.3404C10.5047 16.9465 9.21446 18.8579 8.33392 20.9641C7.45337 23.0703 7 25.3297 7 27.6117C7 29.8936 7.45337 32.153 8.33392 34.2592C9.21446 36.3654 10.5047 38.2768 12.1302 39.8829C13.7407 41.5042 15.6573 42.7912 17.7694 43.6695C19.8815 44.5478 22.1472 45 24.4355 45C26.7239 45 28.9896 44.5478 31.1016 43.6695C33.2137 42.7912 35.1304 41.5042 36.7409 39.8829C43.7289 33.057 43.7289 22.0231 36.8845 15.3404Z" fill="#EE4C2C"/>
<path d="M33.0994 12.1427C33.0835 12.7487 32.8309 13.3245 32.3956 13.7474C31.9602 14.1704 31.3765 14.4071 30.7687 14.4071C30.1609 14.4071 29.5771 14.1704 29.1418 13.7474C28.7064 13.3245 28.4539 12.7487 28.438 12.1427C28.438 11.5263 28.6835 10.9351 29.1206 10.4992C29.5577 10.0632 30.1505 9.81836 30.7687 9.81836C31.3868 9.81836 31.9796 10.0632 32.4167 10.4992C32.8538 10.9351 33.0994 11.5263 33.0994 12.1427Z" fill="#EE4C2C"/>
</svg>
