<svg width="48" height="48" viewBox="0 0 48 48" fill="none" xmlns="http://www.w3.org/2000/svg">
<path d="M13.084 24.9561C13.3247 30.4961 17.9077 34.9336 23.5049 34.9336L23.5029 34.9355C29.1053 34.9354 33.6872 30.5032 33.9229 24.958H43.0039V27.7539C43.0038 27.9633 42.8337 28.1309 42.626 28.1309H39.9414C39.3736 28.1309 38.8813 28.5036 38.7168 29.0576C38.4052 30.0859 37.9898 31.0865 37.4844 32.0352C37.2057 32.5459 37.2939 33.1572 37.6973 33.5605L39.5898 35.458C39.735 35.6051 39.7349 35.8487 39.5898 35.9941L34.998 40.5859C34.9272 40.6618 34.8428 40.6873 34.7461 40.6787C34.6042 40.6649 34.4395 40.5735 34.2803 40.4092L32.5557 38.6904C32.1558 38.2871 31.5445 38.2014 31.0391 38.4766C30.0851 38.9856 29.084 39.403 28.0557 39.7129C27.507 39.874 27.1299 40.3663 27.1299 40.9375V43.6221C27.1299 43.8316 26.9597 44 26.752 44H20.25C20.0405 44 19.8721 43.8298 19.8721 43.6221V40.9375C19.8721 40.3697 19.5002 39.8774 18.9463 39.7129C17.9179 39.4013 16.9165 38.986 15.9678 38.4805C15.7688 38.3698 15.5556 38.3164 15.3428 38.3164C15.0141 38.3165 14.6873 38.4495 14.4434 38.6934L12.5459 40.5859C12.404 40.7313 12.1508 40.7313 12.0088 40.5859L7.41797 35.9941C7.16879 35.7466 7.48913 35.3834 7.59473 35.2812L9.31348 33.5566C9.71672 33.1567 9.8016 32.5455 9.52637 32.04C9.01744 31.0862 8.59991 30.0858 8.29004 29.0576C8.12904 28.5089 7.63767 28.1309 7.06641 28.1309H4.38086C4.17152 28.1308 4.00402 27.9615 4.00391 27.7539V24.958L13.084 24.9561ZM33.002 24.9561C32.7661 29.9906 28.6007 34.0244 23.5039 34.0244L23.5049 34.0264C18.408 34.0264 14.2425 29.9975 14.0068 24.958L33.002 24.9561ZM41.1865 24.0459H40.2832V15.8467C40.4337 15.864 40.5811 15.8809 40.7402 15.8809L40.7344 15.8789C40.8884 15.8789 41.0411 15.8672 41.1865 15.8447V24.0459ZM6.71973 24.0449H5.81641V15.8447C5.96501 15.8618 6.10538 15.8799 6.2627 15.8799C6.42184 15.8799 6.57439 15.8672 6.71973 15.8447V24.0449ZM31.2109 15.8848C31.8011 15.8849 32.3548 16.1062 32.7754 16.5146C33.1527 16.8643 33.397 17.3437 33.4629 17.8525V17.8564C33.4715 17.9551 33.4805 18.0574 33.4805 18.1543C33.4804 19.4092 32.4607 20.4236 31.2109 20.4238C29.961 20.4238 28.9405 19.4076 28.9404 18.1543C28.9404 17.6436 29.1051 17.1652 29.415 16.7705C29.7336 16.3585 30.1859 16.0662 30.6914 15.9502C30.8558 15.9069 31.0344 15.8848 31.2109 15.8848ZM15.7988 15.8809C15.9717 15.8809 16.1498 15.9066 16.3262 15.9463C16.8231 16.0623 17.2752 16.3555 17.5938 16.7676C17.9035 17.1622 18.0683 17.6415 18.0684 18.1504C18.0684 19.4054 17.0521 20.4197 15.7988 20.4199C14.5437 20.4199 13.5283 19.4038 13.5283 18.1504C13.5283 18.0536 13.5373 17.9517 13.5459 17.8584C13.6117 17.339 13.8564 16.8642 14.2373 16.5059C14.658 16.1026 15.2084 15.8809 15.7969 15.8809H15.7988ZM13.2197 16.3018C13.0415 16.5493 12.9049 16.8211 12.8027 17.1084L12.7988 17.1113L8.69922 14.7402C8.89302 14.5066 9.05731 14.2483 9.17676 13.9697L13.2197 16.3018ZM37.8291 13.9668C37.9479 14.244 38.1095 14.5041 38.3037 14.7334L34.2041 17.1055C34.102 16.8181 33.9627 16.5429 33.7861 16.2988L37.8291 13.9668ZM21.2842 9.52539C21.5023 9.73831 21.7417 9.92054 22.0117 10.0625L17.9033 15.7783L17.9014 15.7842C17.6711 15.5799 17.4148 15.4152 17.1396 15.2871L21.2842 9.52539ZM29.8701 15.2822C29.5913 15.4121 29.3342 15.574 29.1074 15.7783L29.1064 15.7734L24.998 10.0566C25.2644 9.91478 25.5084 9.73324 25.7246 9.52051L29.8701 15.2822ZM40.7354 10.4482C41.9852 10.4483 42.9999 11.4645 43 12.7178C43 13.6752 42.3972 14.5345 41.4883 14.8496C41.0105 15.0261 40.4767 15.0307 39.9678 14.8438C39.7464 14.7693 39.5303 14.6497 39.3262 14.4854C38.9193 14.1616 38.6352 13.7044 38.5244 13.2041C38.4847 13.0363 38.4707 12.8772 38.4707 12.7129C38.4707 11.4578 39.4869 10.4435 40.7402 10.4434L40.7354 10.4482ZM6.26562 10.4375C7.52079 10.4375 8.53516 11.4546 8.53516 12.708C8.53512 12.8723 8.51604 13.0314 8.48145 13.1992C8.37066 13.6995 8.08912 14.1567 7.68066 14.4805C7.47807 14.6449 7.25596 14.7641 7.02051 14.8438C6.54093 15.0203 6.00047 15.0203 5.50879 14.8438L5.50781 14.8389C4.60425 14.5256 4.00116 13.6704 4.00098 12.708C4.00098 11.4529 5.01228 10.4376 6.26562 10.4375ZM23.501 5C24.7546 5.0018 25.7676 6.01578 25.7676 7.26465C25.7676 7.72686 25.6341 8.15973 25.3779 8.53711C25.0888 8.96291 24.6561 9.28166 24.168 9.4375C23.7386 9.56561 23.2586 9.56561 22.8379 9.4375C22.3462 9.28689 21.9166 8.96299 21.624 8.53711C21.3679 8.15973 21.2344 7.7251 21.2344 7.26465C21.2344 6.01586 22.2492 5.00192 23.501 5Z" fill="#44ADC1"/>
</svg>
