<svg width="48" height="48" viewBox="0 0 48 48" fill="none" xmlns="http://www.w3.org/2000/svg">
<path fill-rule="evenodd" clip-rule="evenodd" d="M3.2151 33.2847H4.3937C4.3937 33.3464 4.3937 33.4705 4.51783 33.4705C4.64171 33.5327 4.76584 33.5327 4.95216 33.5327H5.75863C5.94495 33.5327 6.06883 33.5327 6.13076 33.4705C6.1927 33.4705 6.1927 33.4088 6.1927 33.3466C6.1927 33.2228 6.1927 33.1603 6.13076 33.1603C6.06883 33.0986 5.9447 33.0986 5.75863 33.0986L4.7039 33.0364C4.14544 33.0364 3.7733 32.9742 3.52504 32.8501C3.33897 32.7262 3.21484 32.4777 3.21484 32.1058C3.21484 31.7956 3.33897 31.5476 3.58698 31.3615C3.7733 31.2377 4.14544 31.1135 4.7039 31.1135H5.9447C6.37877 31.1135 6.62703 31.2374 6.87529 31.3615C7.06136 31.4854 7.1233 31.7334 7.1233 32.0441H6.06857C6.00638 31.982 5.9447 31.9198 5.8825 31.9198C5.75837 31.8581 5.63424 31.8581 5.51037 31.8581H4.7039C4.58003 31.8581 4.45564 31.8581 4.3937 31.9198C4.33176 31.9198 4.33176 31.982 4.33176 32.0441C4.33176 32.1058 4.33176 32.1675 4.3937 32.23C4.45564 32.23 4.64171 32.2922 4.82777 32.2922H6.1927C6.56509 32.2922 6.87529 32.3538 7.06136 32.5402C7.24743 32.664 7.30962 32.9126 7.30962 33.285C7.30962 33.6568 7.24743 33.9049 6.99917 34.029C6.8131 34.2153 6.44096 34.2775 5.9447 34.2775H4.82777C4.20738 34.2775 3.77305 34.2153 3.52504 34.0912C3.33923 33.9046 3.2151 33.6566 3.2151 33.2847ZM10.5355 32.974C10.5974 33.0362 10.6596 33.0984 10.6596 33.2225C10.6596 33.3466 10.5974 33.4088 10.5355 33.4705C10.4733 33.5327 10.2872 33.5327 10.1012 33.5327H9.41882C9.23249 33.5327 9.04643 33.5327 8.98449 33.4705C8.92255 33.4088 8.86036 33.3466 8.86036 33.2225C8.86036 33.0984 8.92255 33.0362 8.98449 32.974C9.10862 32.974 9.23249 32.9123 9.41882 32.9123H10.1012C10.3494 32.9123 10.4735 32.974 10.5355 32.974ZM11.7763 32.1675C11.7763 31.7956 11.6524 31.5476 11.4661 31.3613C11.28 31.2374 10.9696 31.1133 10.5355 31.1133H9.48076C8.92255 31.1133 8.48822 31.2372 8.23996 31.3613C8.05389 31.4852 7.93002 31.7332 7.93002 32.0439V32.1056H9.04643C9.04643 31.9817 9.04643 31.9192 9.10862 31.9192C9.17081 31.8576 9.23249 31.8576 9.35688 31.8576H10.2253C10.3494 31.8576 10.4735 31.8576 10.5357 31.9192C10.6599 31.9814 10.6599 32.1056 10.6599 32.1673V32.5397C10.5357 32.4158 10.3497 32.3533 10.1633 32.2916C9.91534 32.2916 9.66708 32.2294 9.29469 32.2294C8.73648 32.2294 8.30241 32.3533 8.11609 32.4775C7.86808 32.6018 7.74395 32.8499 7.74395 33.2847C7.74395 33.6566 7.86808 33.9046 8.05415 34.0909C8.30241 34.2148 8.67455 34.2773 9.23275 34.2773C9.60489 34.2773 9.91534 34.2773 10.1633 34.1534C10.4116 34.0912 10.5357 34.029 10.6599 33.8432V34.2151H11.7765L11.7763 32.1675ZM13.6992 33.0986C13.5753 33.0364 13.5133 32.9123 13.5133 32.7262V32.416C13.5133 32.2297 13.5753 32.1058 13.6992 32.0441C13.7613 31.9198 13.9474 31.9198 14.1957 31.9198H14.6919C14.9399 31.9198 15.126 31.982 15.1882 32.0441C15.3121 32.1058 15.3743 32.23 15.3743 32.416V32.7262C15.3743 32.9126 15.3121 33.0364 15.1882 33.0986C15.1263 33.2225 14.9399 33.2225 14.6919 33.2225H14.1957C13.9477 33.2225 13.7616 33.1603 13.6992 33.0986ZM15.3743 33.719V33.9049C15.3743 34.1534 15.3121 34.2773 15.2504 34.4014C15.1263 34.5253 14.9399 34.5877 14.7539 34.5877H14.1335C13.8855 34.5877 13.7613 34.5255 13.6375 34.5255C13.5753 34.4638 13.5133 34.4016 13.5133 34.3392H12.4586V34.4014C12.4586 34.7116 12.5208 34.9601 12.7069 35.0835C12.9551 35.2079 13.3273 35.2698 13.9477 35.2698H15.0024C15.4367 35.2698 15.8089 35.2081 16.0571 35.0218C16.3671 34.8355 16.4912 34.5877 16.4912 34.2151V31.1752H15.3745V31.6717C15.3123 31.4854 15.1265 31.3615 14.9402 31.2377C14.6922 31.1755 14.382 31.1138 14.0099 31.1138C13.4514 31.1138 13.0793 31.2377 12.831 31.3618C12.5827 31.5481 12.4586 31.7959 12.4586 32.168V33.037C12.4586 33.4094 12.5827 33.6574 12.831 33.7812C13.0171 33.9051 13.5136 34.0292 14.1959 34.0292C14.5681 34.0292 14.8785 33.9676 15.0024 33.9676C15.1882 33.9046 15.3123 33.8429 15.3743 33.719ZM18.2902 32.2919C18.2902 32.1675 18.3524 32.0439 18.4143 31.9817C18.5385 31.9195 18.7245 31.9195 18.9106 31.9195H19.4069C19.5932 31.9195 19.7793 31.9195 19.8412 31.9817C19.9653 32.0439 20.0273 32.1675 20.0273 32.2919H18.2902ZM19.9031 33.4705C19.7793 33.5327 19.6551 33.5327 19.4069 33.5327H18.9728C18.7245 33.5327 18.5385 33.5327 18.4143 33.4088C18.3524 33.3466 18.2902 33.2225 18.2902 33.0364V32.9742H21.082V32.2922C21.082 31.9198 20.9579 31.6718 20.7098 31.4237C20.4618 31.2374 20.0895 31.1135 19.6551 31.1135H18.6004C18.1663 31.1135 17.7939 31.2374 17.5457 31.4237C17.2977 31.6718 17.1733 31.9198 17.1733 32.2922V33.1606C17.1733 33.533 17.2974 33.781 17.5457 33.9673C17.7939 34.2153 18.1661 34.2775 18.6004 34.2775H19.6551C20.1514 34.2775 20.5235 34.2153 20.7098 34.029C20.9579 33.9051 21.082 33.6571 21.082 33.285V33.2228H20.0273C20.0273 33.3464 19.9653 33.4088 19.9031 33.4705Z" fill="white"/>
<path fill-rule="evenodd" clip-rule="evenodd" d="M22.323 34.2152H21.8887V31.1754H22.323V31.5478C22.4471 31.4239 22.571 31.2993 22.7573 31.2376C22.9437 31.1754 23.2536 31.1137 23.6879 31.1137C24.1842 31.1137 24.4947 31.1754 24.6802 31.2376C24.8665 31.3615 25.0526 31.4856 25.1148 31.7336C25.2387 31.4856 25.3628 31.3617 25.6108 31.2995C25.8593 31.1756 26.1073 31.1137 26.4797 31.1137C27.0996 31.1137 27.5344 31.2376 27.7822 31.3617C28.0307 31.548 28.1546 31.8582 28.1546 32.2301V34.2155H27.7205V32.3543C27.7205 32.1679 27.7205 32.0446 27.6583 31.9824C27.6583 31.9202 27.5961 31.8585 27.5344 31.796C27.3946 31.7228 27.2493 31.6605 27.0999 31.6097H26.48C26.1076 31.6097 25.7974 31.6719 25.5494 31.796C25.3631 31.8582 25.2392 32.0446 25.2392 32.3543V34.2155H24.7424V32.3543C24.7424 32.0446 24.6802 31.796 24.5566 31.7339C24.4322 31.61 24.122 31.61 23.6877 31.61C23.1914 31.61 22.8812 31.6722 22.6329 31.7963C22.4469 31.9202 22.3227 32.1065 22.3227 32.3545L22.323 34.2152ZM32.0006 33.7195C31.8767 33.7811 31.5665 33.8433 31.1944 33.8433H30.4496C30.0158 33.8433 29.7056 33.7811 29.6434 33.7195C29.5195 33.6573 29.4571 33.4709 29.4571 33.2854C29.4571 33.0369 29.5193 32.913 29.6434 32.8508C29.7673 32.7891 30.0158 32.7269 30.4496 32.7269H31.1944C31.5663 32.7269 31.8148 32.7891 32.0006 32.8508C32.125 32.913 32.1869 33.0371 32.1869 33.161V33.4095C32.1867 33.5948 32.125 33.657 32.0006 33.7195ZM30.4496 31.1137C29.9536 31.1137 29.6434 31.2376 29.3949 31.3617C29.2091 31.4856 29.1469 31.7336 29.1469 32.0443V32.106H29.6434V32.0443C29.6434 31.858 29.7056 31.7336 29.7673 31.6719C29.8911 31.6097 30.1396 31.6097 30.5115 31.6097H31.2563C31.6282 31.6097 31.8762 31.6719 32.0003 31.7336C32.1247 31.858 32.1867 32.0443 32.1867 32.2923V32.7264C32.125 32.6025 32.0003 32.4779 31.8148 32.4162C31.6284 32.354 31.4424 32.354 31.1944 32.354H30.326C29.7673 32.354 29.4571 32.4162 29.2091 32.5403C29.0227 32.6642 28.8989 32.9127 28.8989 33.2851C28.8989 33.657 29.0227 33.905 29.2091 34.0913C29.4571 34.2152 29.8295 34.2777 30.326 34.2777H31.1322C31.4424 34.2777 31.6909 34.2777 31.8765 34.1538C32.0003 34.0916 32.125 34.0294 32.1867 33.8436V34.2155H32.6832V32.2301C32.6832 31.8582 32.5593 31.6097 32.373 31.4239C32.125 31.2376 31.7526 31.1137 31.3183 31.1137H30.4496ZM34.172 29.9346V32.2923H34.4822L36.1573 31.1754H36.9638L34.9165 32.5403L37.3359 34.2152H36.5914L34.4822 32.7889H34.172V34.2152H33.676V29.9346H34.172ZM38.0802 31.7958C38.2665 31.6719 38.5148 31.6095 38.8869 31.6095H39.6936C40.0655 31.6095 40.3762 31.6095 40.4998 31.7333C40.6242 31.8577 40.6861 32.0441 40.6861 32.2921V32.3537H37.8949C37.8944 32.106 37.9563 31.858 38.0802 31.7958ZM38.8869 31.1137C38.3904 31.1137 37.9563 31.2376 37.7083 31.4239C37.522 31.6719 37.3981 31.9821 37.3981 32.4781V32.9747C37.3981 33.4093 37.522 33.7814 37.7083 33.9675C37.9563 34.1538 38.3904 34.2777 38.8869 34.2777H39.8175C40.2516 34.2777 40.6242 34.2155 40.8722 34.0292C41.1202 33.9053 41.2446 33.6573 41.2446 33.4093V33.2854H40.6859V33.3471C40.6859 33.5334 40.6242 33.6573 40.4379 33.7195C40.314 33.8433 40.0655 33.8433 39.6936 33.8433H38.9493C38.5153 33.8433 38.2668 33.7811 38.0804 33.657C37.9566 33.5331 37.8946 33.2851 37.8946 32.9744V32.7886H41.1824C41.1824 32.7886 41.2446 32.7886 41.2446 32.7264V32.6025C41.2446 32.0443 41.1202 31.6719 40.8722 31.4856C40.6242 31.2376 40.2518 31.1137 39.6936 31.1137H38.8869ZM42.0506 34.2152V31.2376H42.4846V31.6717C42.5968 31.4976 42.745 31.3496 42.9192 31.2376C43.1055 31.1754 43.4157 31.1137 43.7876 31.1137C44.2841 31.1137 44.656 31.2376 44.8424 31.3617C45.0904 31.548 45.2147 31.7958 45.2147 32.1679V32.5403H44.7182V32.2923C44.7182 31.9821 44.656 31.7958 44.5319 31.7336C44.408 31.6097 44.0978 31.6097 43.6635 31.6097C43.2911 31.6097 42.9809 31.6719 42.7951 31.796C42.6088 31.8582 42.5466 32.1063 42.5466 32.3543V34.2155H42.0506V34.2152Z" fill="#4B62CA"/>
<path fill-rule="evenodd" clip-rule="evenodd" d="M27.2244 13.3084C28.5268 12.5638 29.2714 12.1295 28.5268 12.3778C27.7209 13.0601 14.3204 19.7605 24.805 19.7605C40.5 19.8224 22.1373 28.88 18.5391 29.5004C19.0973 29.5004 20.2761 29.0663 21.7649 28.4456C22.5714 28.6936 23.44 28.8797 24.3085 28.8797C28.7132 28.8797 32.3734 25.2195 32.3734 20.8149C32.3734 17.4027 30.202 14.4873 27.2244 13.3084Z" fill="white"/>
<path fill-rule="evenodd" clip-rule="evenodd" d="M24.6189 20.5048C16.0578 21.3116 15.3132 18.3956 25.2393 13.5565C25.7359 13.3704 26.1699 13.1843 26.5418 13.0602C25.7975 12.8741 25.053 12.75 24.2466 12.75C19.7799 12.75 16.1816 16.3481 16.1816 20.815C16.1816 23.979 18.0428 26.7084 20.7105 28.0114C24.8053 25.4061 32.0635 20.1946 24.6189 20.5048Z" fill="#4B62CA"/>
</svg>
