<svg width="48" height="48" viewBox="0 0 48 48" fill="none" xmlns="http://www.w3.org/2000/svg">
<path d="M35.2143 32.5443C40.3437 27.336 41.1962 19.7576 37.1183 15.6171C33.041 11.477 25.578 12.3425 20.4488 17.5505C15.3197 22.7586 16.8034 32.7088 18.5451 34.4777C19.9525 35.9068 30.0854 37.7522 35.2143 32.5443Z" fill="#F89939"/>
<path d="M14.1681 25.0185C11.1924 21.9969 6.86188 21.4938 4.49547 23.8966C2.12968 26.299 2.62431 30.697 5.6006 33.7181C8.57689 36.7406 14.2628 35.8663 15.2726 34.84C16.0899 34.0115 17.1447 28.0403 14.1681 25.0185Z" fill="#3499CD"/>
<path d="M24.4368 31.2677C23.9111 31.7591 23.4499 32.1217 23.0536 32.3547C22.6572 32.5884 22.2792 32.7052 21.9195 32.7052C21.5058 32.7052 21.172 32.5423 20.9189 32.2164C20.6654 31.8903 20.5391 31.4529 20.5391 30.9026C20.5391 30.0782 20.715 29.0884 21.067 27.9344C21.4184 26.7795 21.8462 25.7153 22.3487 24.7417L23.8222 24.1877C23.8684 24.1721 23.9035 24.1641 23.9268 24.1641C24.0386 24.1641 24.131 24.2477 24.2019 24.4143C24.2735 24.5816 24.3096 24.8064 24.3096 25.0891C24.3096 25.8902 24.128 26.6657 23.764 27.4157C23.4002 28.166 22.832 28.9668 22.0587 29.8189C22.0277 30.2274 22.0122 30.5079 22.0122 30.6612C22.0122 31.0031 22.074 31.2736 22.1977 31.474C22.3216 31.6746 22.4858 31.7743 22.6909 31.7743C22.9 31.7743 23.1222 31.6983 23.3581 31.5452C23.5937 31.3917 23.9533 31.074 24.4366 30.5906V31.2677H24.4368ZM22.2153 28.9651C22.7063 28.4107 23.1051 27.7889 23.4104 27.1011C23.7157 26.4129 23.8682 25.8209 23.8682 25.325C23.8682 25.1804 23.8472 25.0629 23.8049 24.9747C23.7624 24.8862 23.7078 24.8418 23.6423 24.8418C23.4998 24.8418 23.2915 25.2035 23.0187 25.9271C22.746 26.6505 22.4782 27.6633 22.2153 28.9651Z" fill="white"/>
<path d="M28.7759 31.2682C28.2849 31.7596 27.8442 32.1222 27.4534 32.3552C27.0627 32.5889 26.632 32.7056 26.1599 32.7056C25.6339 32.7056 25.2096 32.5348 24.8862 32.1935C24.5635 31.8514 24.4023 31.4022 24.4023 30.8444C24.4023 30.0121 24.6863 29.259 25.2555 28.5856C25.8234 27.9118 26.454 27.5752 27.1462 27.5752C27.5059 27.5752 27.7936 27.6698 28.0105 27.8582C28.2271 28.0469 28.3353 28.294 28.3353 28.6003C28.3353 29.4134 27.4846 30.0727 25.7831 30.5794C25.9376 31.3448 26.3417 31.728 26.9953 31.728C27.2507 31.728 27.494 31.6584 27.7259 31.5193C27.9584 31.3797 28.3081 31.07 28.7761 30.5912L28.7759 31.2682ZM25.7363 30.1788C26.726 29.8958 27.2213 29.3739 27.2213 28.612C27.2213 28.2351 27.0857 28.0467 26.8154 28.0467C26.5601 28.0467 26.3167 28.2437 26.0848 28.6388C25.8522 29.0332 25.7363 29.5463 25.7363 30.1788Z" fill="white"/>
<path d="M34.9717 31.2672C34.3529 31.864 33.9101 32.2532 33.6435 32.4341C33.3767 32.6146 33.1215 32.7048 32.8777 32.7048C32.2666 32.7048 31.9786 32.1571 32.0133 31.0614C31.6267 31.6227 31.2697 32.037 30.9429 32.3046C30.6164 32.5716 30.2791 32.7048 29.9306 32.7048C29.5907 32.7048 29.3018 32.5431 29.0635 32.2191C28.8253 31.8951 28.707 31.4977 28.707 31.026C28.707 30.4373 28.8662 29.8757 29.185 29.3413C29.5044 28.8072 29.9133 28.3757 30.4121 28.0458C30.9108 27.7159 31.3521 27.5508 31.7345 27.5508C32.2181 27.5508 32.5566 27.7767 32.75 28.2281L33.9355 27.5628H34.2608L33.7488 29.2884C33.4859 30.1565 33.354 30.7515 33.354 31.0734C33.354 31.411 33.4716 31.5798 33.7078 31.5798C33.858 31.5798 34.0243 31.4985 34.2062 31.3353C34.3881 31.1721 34.6428 30.9238 34.9714 30.59V31.2672H34.9717ZM30.7256 31.5915C31.1122 31.5915 31.4766 31.2569 31.8195 30.5874C32.1618 29.9177 32.3327 29.2998 32.3327 28.7345C32.3327 28.5149 32.284 28.3428 32.1878 28.2193C32.0907 28.0952 31.9612 28.0337 31.7992 28.0337C31.4122 28.0337 31.0454 28.3674 30.7 29.0351C30.3539 29.7029 30.1805 30.3174 30.1805 30.8784C30.1805 31.0908 30.232 31.2625 30.3344 31.3942C30.4367 31.5258 30.5667 31.5915 30.7256 31.5915Z" fill="white"/>
<path d="M39.3043 31.267C38.3335 32.233 37.585 32.7163 37.0592 32.7163C36.8231 32.7163 36.6238 32.6151 36.4617 32.4135C36.2997 32.2111 36.2181 31.9606 36.2181 31.662C36.2181 31.1083 36.5104 30.3665 37.0942 29.4356C36.8078 29.5849 36.4949 29.6886 36.1544 29.7476C35.903 30.2188 35.5084 30.7256 34.971 31.2669H34.8379V30.7374C35.1393 30.4194 35.412 30.0775 35.6557 29.7123C35.3227 29.5629 35.1567 29.341 35.1567 29.047C35.1567 28.7442 35.2579 28.4214 35.4614 28.0774C35.6644 27.7341 35.9436 27.5625 36.2997 27.5625C36.6014 27.5625 36.7519 27.7191 36.7519 28.0334C36.7519 28.2808 36.665 28.6341 36.4907 29.0937C37.1325 29.0228 37.6933 28.5246 38.1731 27.5976L38.7008 27.5739L38.1613 29.0817C37.9372 29.718 37.7921 30.1513 37.7265 30.3808C37.6609 30.6102 37.6277 30.8138 37.6277 30.9902C37.6277 31.1554 37.6656 31.2873 37.7407 31.3848C37.8161 31.4837 37.9179 31.5323 38.0454 31.5323C38.1845 31.5323 38.3182 31.484 38.4457 31.3884C38.5732 31.2913 38.8595 31.0256 39.3044 30.5898V31.267H39.3043Z" fill="white"/>
<path d="M45.001 31.268C44.1078 32.2267 43.3416 32.7056 42.7038 32.7056C42.4447 32.7056 42.2359 32.6133 42.0773 32.4286C41.9184 32.2442 41.8392 31.9969 41.8392 31.6867C41.8392 31.2666 42.0096 30.6244 42.3501 29.7609C42.5316 29.2974 42.6228 29.0024 42.6228 28.8772C42.6228 28.7514 42.5741 28.6885 42.4779 28.6885C42.4238 28.6885 42.3519 28.7162 42.2631 28.7708C42.1815 28.8257 42.0868 28.9029 41.9786 29.0009C41.8821 29.091 41.7735 29.201 41.6537 29.3301C41.549 29.441 41.4368 29.5665 41.3176 29.7074L40.9923 30.0906C40.8495 30.2672 40.7604 30.4534 40.7258 30.6499C40.6675 30.9836 40.629 31.2903 40.6094 31.5694C40.5976 31.777 40.592 32.0575 40.592 32.4117L39.31 32.7174C39.2678 32.1873 39.2461 31.7926 39.2461 31.5337C39.2461 30.9015 39.3186 30.3025 39.4639 29.7372C39.6088 29.1713 39.8416 28.5355 40.1628 27.8284L41.578 27.5518C41.2804 28.3648 41.0852 29.0046 40.9923 29.4716C41.6266 28.7531 42.1294 28.2558 42.5021 27.9785C42.8742 27.7015 43.2056 27.5638 43.4952 27.5638C43.6919 27.5638 43.8564 27.6391 43.9874 27.79C44.119 27.941 44.1844 28.1306 44.1844 28.3573C44.1844 28.7339 44.0181 29.3544 43.686 30.2187C43.4576 30.8114 43.3434 31.196 43.3434 31.3736C43.3434 31.61 43.4384 31.7281 43.6283 31.7281C43.9111 31.7281 44.369 31.349 45.001 30.5912V31.268Z" fill="white"/>
<path d="M33.31 22.9082H33.6206V23.4264H33.9125V23.6811H33.6206V24.8926C33.6206 24.9573 33.6422 25.0006 33.6855 25.0225C33.7094 25.0352 33.7492 25.0416 33.8049 25.0416C33.8197 25.0416 33.8356 25.0416 33.8527 25.0416C33.8698 25.0404 33.8897 25.0387 33.9125 25.0364V25.2825C33.8772 25.2929 33.8402 25.3004 33.8015 25.305C33.764 25.3096 33.723 25.312 33.6786 25.312C33.5353 25.312 33.438 25.275 33.3868 25.201C33.3356 25.1259 33.31 25.0289 33.31 24.9099V23.6811H33.0625V23.4264H33.31V22.9082Z" fill="white"/>
<path d="M32.4688 23.4347H32.7811V25.2822H32.4688V23.4347ZM32.4688 22.7363H32.7811V23.0899H32.4688V22.7363Z" fill="white"/>
<path d="M30.7148 22.7363H31.0101V24.2146L31.7986 23.4261H32.1912L31.4914 24.121L32.2304 25.2822H31.8379L31.2678 24.3463L31.0101 24.5855V25.2822H30.7148V22.7363Z" fill="white"/>
<path d="M29.9453 23.4347H30.2576V25.2822H29.9453V23.4347ZM29.9453 22.7363H30.2576V23.0899H29.9453V22.7363Z" fill="white"/>
<path d="M28.9017 23.3721C29.1077 23.3721 29.2749 23.4229 29.4035 23.5246C29.5332 23.6263 29.6112 23.8013 29.6373 24.0497H29.3387C29.3205 23.9353 29.2789 23.8406 29.2141 23.7655C29.1492 23.6892 29.0451 23.6511 28.9017 23.6511C28.706 23.6511 28.5661 23.7481 28.4819 23.9422C28.4273 24.0682 28.4 24.2236 28.4 24.4084C28.4 24.5945 28.4386 24.751 28.516 24.8781C28.5934 25.0052 28.7151 25.0687 28.8813 25.0687C29.0087 25.0687 29.1094 25.0294 29.1833 24.9509C29.2584 24.8712 29.3102 24.7626 29.3387 24.6251H29.6373C29.6032 24.8712 29.5179 25.0514 29.3813 25.1658C29.2448 25.279 29.0701 25.3356 28.8574 25.3356C28.6184 25.3356 28.4278 25.2472 28.2856 25.0705C28.1434 24.8925 28.0723 24.6707 28.0723 24.405C28.0723 24.0792 28.1502 23.8256 28.3061 23.6442C28.462 23.4628 28.6605 23.3721 28.9017 23.3721Z" fill="white"/>
<path d="M26.6312 24.6993C26.6403 24.8033 26.6659 24.883 26.708 24.9384C26.7854 25.039 26.9196 25.0892 27.1108 25.0892C27.2246 25.0892 27.3247 25.0644 27.4112 25.0147C27.4977 24.9639 27.5409 24.8859 27.5409 24.7807C27.5409 24.701 27.5062 24.6404 27.4368 24.5988C27.3924 24.5733 27.3048 24.5439 27.1739 24.5104L26.9299 24.448C26.774 24.4087 26.6591 24.3648 26.5851 24.3163C26.4531 24.2319 26.3871 24.1152 26.3871 23.9662C26.3871 23.7906 26.4492 23.6485 26.5732 23.5399C26.6983 23.4313 26.8662 23.377 27.0767 23.377C27.352 23.377 27.5506 23.459 27.6723 23.623C27.7485 23.727 27.7855 23.8391 27.7832 23.9593H27.4931C27.4874 23.8888 27.4629 23.8247 27.4197 23.7669C27.3492 23.6849 27.2269 23.6438 27.0528 23.6438C26.9367 23.6438 26.8485 23.6664 26.7882 23.7114C26.7291 23.7565 26.6995 23.816 26.6995 23.8899C26.6995 23.9708 26.7387 24.0355 26.8172 24.084C26.8627 24.1129 26.9299 24.1383 27.0186 24.1603L27.2217 24.2106C27.4425 24.2649 27.5904 24.3174 27.6655 24.3683C27.785 24.448 27.8447 24.5733 27.8447 24.7443C27.8447 24.9096 27.7827 25.0522 27.6587 25.1724C27.5358 25.2926 27.348 25.3526 27.0954 25.3526C26.8235 25.3526 26.6306 25.2902 26.5169 25.1655C26.4042 25.0395 26.3439 24.8841 26.3359 24.6993H26.6312Z" fill="white"/>
</svg>
