<svg width="48" height="48" viewBox="0 0 48 48" fill="none" xmlns="http://www.w3.org/2000/svg">
<path d="M8.25175 23.1227C7.28925 23.0089 7.2175 21.7174 5.982 21.8312C5.3835 21.8312 4.827 22.0814 4.827 22.6309C4.827 23.4587 6.1045 23.5357 6.8745 23.7439C8.187 24.1429 9.4575 24.4142 9.4575 25.8422C9.4575 27.6534 8.03825 28.2817 6.1605 28.2817C4.59075 28.2817 3 27.7252 3 26.2832C3 25.8842 3.385 25.5709 3.756 25.5709C4.22675 25.5709 4.39125 25.7704 4.55575 26.0977C4.91975 26.7399 5.32575 27.0829 6.339 27.0829C6.98125 27.0829 7.6375 26.8397 7.6375 26.2832C7.6375 25.4922 6.8325 25.3207 5.99775 25.1282C4.52075 24.7134 3.25025 24.4999 3.09975 22.8584C2.94225 20.0619 8.77325 19.9552 9.1075 22.4087C9.1005 22.8514 8.6875 23.1227 8.25175 23.1227ZM15.187 20.6674C17.2362 20.6674 18.3982 22.3807 18.3982 24.4929C18.3982 26.6122 17.2713 28.3167 15.187 28.3167C14.032 28.3167 13.311 27.8249 12.7895 27.0689V29.8654C12.7895 30.7072 12.5183 31.1149 11.9058 31.1149C11.1568 31.1149 11.0203 30.6372 11.0203 29.8654V21.7314C11.0203 21.0682 11.2985 20.6604 11.9058 20.6604C12.4763 20.6604 12.7895 21.1102 12.7895 21.7314V21.9589C13.3687 21.2309 14.032 20.6674 15.187 20.6674ZM14.7022 26.8624C15.901 26.8624 16.4365 25.7564 16.4365 24.4649C16.4365 23.2014 15.894 22.0674 14.7022 22.0674C13.4527 22.0674 12.8752 23.0947 12.8752 24.4649C12.8752 25.7984 13.4615 26.8624 14.7022 26.8624ZM19.7895 22.6659C19.7895 21.1959 21.4818 20.6674 23.1215 20.6674C25.4263 20.6674 26.3765 21.3394 26.3765 23.5654V25.7057C26.3765 26.2132 26.6897 27.2264 26.6897 27.5327C26.6897 27.9964 26.2627 28.2887 25.806 28.2887C25.2985 28.2887 24.9205 27.6902 24.6493 27.2614C23.9003 27.8599 23.1075 28.2887 21.8948 28.2887C20.5543 28.2887 19.4972 27.4959 19.4972 26.1904C19.4972 25.0354 20.325 24.3722 21.3242 24.1429C21.3242 24.1499 24.5355 23.3869 24.5355 23.3799C24.5355 22.3947 24.1855 21.9589 23.1513 21.9589C22.2378 21.9589 21.774 22.2092 21.417 22.7587C21.1318 23.1734 21.1667 23.4219 20.6173 23.4219C20.1745 23.4149 19.7895 23.1157 19.7895 22.6659ZM22.53 27.0829C23.9352 27.0829 24.5285 26.3409 24.5285 24.8639V24.5489C24.1505 24.6784 22.6228 25.0564 22.2098 25.1212C21.767 25.2069 21.3242 25.5342 21.3242 26.0557C21.3382 26.6262 21.9228 27.0829 22.53 27.0829ZM32.855 17.8779C34.8395 17.8779 36.9867 19.0627 36.9867 20.9457C36.9905 21.0593 36.9716 21.1725 36.9311 21.2788C36.8907 21.3851 36.8295 21.4822 36.7512 21.5646C36.6729 21.647 36.579 21.713 36.4749 21.7588C36.3708 21.8045 36.2587 21.8292 36.145 21.8312C35.4958 21.8312 35.403 21.4812 35.1178 20.9894C34.64 20.1109 34.0747 19.5264 32.848 19.5264C30.9492 19.5124 30.1005 21.1382 30.1005 23.1647C30.1005 25.2069 30.8075 26.6769 32.7692 26.6769C34.0747 26.6769 34.7958 25.9192 35.1668 24.9427C35.3172 24.4929 35.5885 24.0572 36.152 24.0572C36.5947 24.0572 37.0375 24.5069 37.0375 24.9917C37.0375 26.9902 34.9952 28.3744 32.8987 28.3744C30.601 28.3744 29.3025 27.4032 28.5885 25.7914C28.1989 24.9565 28.0038 24.044 28.018 23.1227C28.0022 20.0252 29.8082 17.8779 32.855 17.8779ZM44.2002 20.6674C44.7077 20.6674 45 20.9964 45 21.5092C45 21.7174 44.8355 22.1304 44.7725 22.3527L42.3312 28.7664C41.7887 30.1577 41.3828 31.1219 39.5348 31.1219C38.6562 31.1219 37.8932 31.0432 37.8932 30.2802C37.8932 29.8374 38.2275 29.6152 38.693 29.6152C38.777 29.6152 38.9205 29.6589 39.0063 29.6589C39.141 29.6589 39.2337 29.7009 39.3195 29.7009C40.247 29.7009 40.3765 28.7524 40.7038 28.0962L38.35 22.2669C38.2135 21.9519 38.1208 21.7384 38.1208 21.5529C38.1208 21.0384 38.5215 20.6674 39.0553 20.6674C39.6555 20.6674 39.8918 21.1382 40.0405 21.6527L41.5963 26.2762L43.152 22.0027C43.3865 21.3394 43.4092 20.6674 44.2002 20.6674Z" fill="white"/>
</svg>
