<svg width="48" height="48" viewBox="0 0 48 48" fill="none" xmlns="http://www.w3.org/2000/svg">
<path d="M27.285 9.46094V15.9222L38.4283 22.3835V15.9222L27.285 9.46094ZM5 15.9222V22.3835L10.5717 25.6141V19.1529L5 15.9222ZM21.7133 19.1529L16.1417 22.3835V41.7673L21.7133 44.9997V32.0771L27.285 35.3077V28.8465L21.7133 25.6158V19.1529Z" fill="#E55B2D"/>
<path d="M27.2846 9.46094L10.5713 19.1529V25.6141L21.7146 19.1529V25.6141L27.2863 22.3835V9.46094H27.2846ZM43.9979 12.6916L38.4263 15.9222V22.3835L43.9979 19.1529V12.6916ZM32.8563 25.6158L27.2846 28.8465V35.3077L32.8563 32.0771V25.6158ZM27.2846 35.3077L21.7129 32.0771V44.9997L27.2846 41.769V35.3077Z" fill="#ED8E24"/>
<path d="M27.285 3L5 15.9226L10.5717 19.1532L27.285 9.46128L38.4283 15.9226L44 12.6919L27.285 3ZM27.285 22.3838L21.7133 25.6145L27.285 28.8451L32.8567 25.6145L27.285 22.3838Z" fill="#F8BF3C"/>
</svg>
