<svg width="48" height="48" viewBox="0 0 48 48" fill="none" xmlns="http://www.w3.org/2000/svg">
<path d="M42.6719 6.14805C41.8924 5.40594 40.8823 5 39.8285 5H8.17772C5.87686 5 4 6.90919 4 9.25605V30.2636C4 32.6168 5.87686 34.526 8.17772 34.526H8.42087C9.38114 34.526 10.1606 35.3125 10.1606 36.2829V41.1479C10.1606 41.909 10.5846 42.556 11.2767 42.8541C11.5074 42.9556 11.7506 43 11.9938 43C12.4552 43 12.9104 42.8161 13.2658 42.4609L20.5612 35.0461C20.8916 34.7099 21.3281 34.526 21.7895 34.526H39.8285C42.1294 34.526 44 32.6168 44 30.2636V9.25605C44 8.08262 43.5199 6.94725 42.6719 6.14805ZM32.3959 21.225C31.9969 24.9609 29.5464 28.0753 26.1481 29.1599C25.1567 29.477 24.1465 29.6356 23.1551 29.6356C21.1785 29.6356 19.2642 29.014 17.6492 27.8025C15.2674 26.0265 13.8457 23.1723 13.8457 20.1784C13.8457 15.3452 17.3936 11.2984 22.1076 10.7656C22.4318 10.7276 22.756 10.8354 23.0055 11.0574C23.2486 11.2794 23.3858 11.5966 23.3858 11.9264V19.1319C23.3858 19.5695 23.7412 19.9311 24.1715 19.9311H31.2611C31.5854 19.9311 31.8971 20.077 32.1091 20.318C32.3274 20.5653 32.4334 20.8952 32.3959 21.225ZM33.8987 18.2946C33.7054 18.5039 33.4435 18.6244 33.1567 18.6244H25.6742C25.1193 18.6244 24.6703 18.1677 24.6703 17.6032V9.99182C24.6703 9.70005 24.7825 9.43365 24.9945 9.23702C25.2066 9.04039 25.4934 8.9389 25.7927 8.97062C30.2136 9.39559 33.7303 12.9793 34.1606 17.4827C34.1855 17.7808 34.092 18.0726 33.8987 18.2946Z" fill="url(#paint0_linear_1_1638)"/>
<defs>
<linearGradient id="paint0_linear_1_1638" x1="7.40425" y1="8.70732" x2="29.7546" y2="44.5844" gradientUnits="userSpaceOnUse">
<stop stop-color="#FF2A2A"/>
<stop offset="1" stop-color="#5A0000"/>
</linearGradient>
</defs>
</svg>
