<svg width="48" height="48" viewBox="0 0 48 48" fill="none" xmlns="http://www.w3.org/2000/svg">
<path fill-rule="evenodd" clip-rule="evenodd" d="M17.7047 9.73319C17.6806 9.73452 17.656 9.73497 17.6314 9.73497C16.8349 9.73497 16.1886 9.0898 16.1886 8.29461C16.1886 7.49987 16.8349 6.8547 17.6314 6.8547C18.4275 6.8547 19.0737 7.49987 19.0737 8.29461C19.0737 8.58304 18.9888 8.85182 18.8421 9.0773L21.0201 12.8434H19.5035L17.7047 9.73319ZM28.6289 9.73319L26.8302 12.8434H25.3136L27.4916 9.0773C27.3449 8.85182 27.2599 8.58304 27.2599 8.29461C27.2599 7.49987 27.9062 6.8547 28.7027 6.8547C29.4988 6.8547 30.1451 7.49987 30.1451 8.29461C30.1451 9.0898 29.4988 9.73497 28.7027 9.73497C28.6781 9.73497 28.6535 9.73452 28.6289 9.73319ZM26.9491 31.3212H32.0803C32.0337 31.335 31.9872 31.3511 31.9412 31.3694C31.4076 31.5837 31.0404 32.0713 30.9742 32.6321H26.9491C26.7559 32.8732 26.4589 33.0276 26.1262 33.0276H24.2196C23.6387 33.0276 23.1668 32.5566 23.1668 31.9766C23.1668 31.3966 23.6387 30.9256 24.2196 30.9256H26.1262C26.4589 30.9256 26.7559 31.0801 26.9491 31.3212ZM36.1175 24.7342V31.9766C36.1175 32.3387 35.8236 32.6321 35.4609 32.6321H34.5114L33.6483 31.7351C33.4569 31.5359 33.2207 31.3962 32.9667 31.3212H34.8039V24.8373H34.5177V19.2947H35.795C36.1014 19.2947 36.35 19.5429 36.35 19.8487V24.2828C36.35 24.469 36.2583 24.6333 36.1175 24.7342ZM11.8164 19.2947V24.8373H10.5391C10.2323 24.8373 9.98366 24.5891 9.98366 24.2828V19.8487C9.98366 19.5429 10.2323 19.2947 10.5391 19.2947H11.8164ZM18.5563 29.2245L17.9503 26.9662C17.7508 26.2237 17.2146 25.6843 16.4704 25.4798C15.7262 25.2749 14.9909 25.4637 14.4354 26.0044L14.4346 26.0053C14.0204 26.4094 13.5902 26.8501 13.1411 27.297C13.1335 27.2247 13.13 27.1515 13.13 27.0769V16.3054C13.13 15.1209 14.0978 14.1547 15.2839 14.1547H31.0498C32.2363 14.1547 33.2042 15.1209 33.2042 16.3054V27.0769C33.2042 28.2614 32.2363 29.2245 31.0498 29.2245H18.5563ZM26.2036 23.5019H19.864C19.932 25.2003 21.3309 26.542 23.0336 26.542C24.7362 26.542 26.1351 25.2003 26.2036 23.5019ZM19.7473 17.6453C18.8913 17.6453 18.1963 18.3392 18.1963 19.1933C18.1963 20.0479 18.8913 20.7417 19.7473 20.7417C20.6028 20.7417 21.2978 20.0479 21.2978 19.1933C21.2978 18.3392 20.6028 17.6453 19.7473 17.6453ZM26.9599 17.6453C26.1038 17.6453 25.4093 18.3392 25.4093 19.1933C25.4093 20.0479 26.1038 20.7417 26.9599 20.7417C27.8159 20.7417 28.5109 20.0479 28.5109 19.1933C28.5109 18.3392 27.8159 17.6453 26.9599 17.6453ZM44 11.5124C44 12.1089 43.5121 12.5943 42.9141 12.5943H38.0102L36.3107 14.3606C36.2413 14.4329 36.1345 14.4561 36.0414 14.4186C35.948 14.3811 35.8867 14.2909 35.8867 14.1904V12.5943H34.969C34.371 12.5943 33.8831 12.1089 33.8831 11.5124V6.08362C33.8831 5.48711 34.371 5 34.969 5H42.9141C43.5121 5 44 5.48711 44 6.08362V11.5124ZM38.9418 5.91262C37.901 5.91262 37.058 6.75424 37.058 7.79276C37.058 8.15486 37.3523 8.44865 37.7145 8.44865C38.0773 8.44865 38.3715 8.15486 38.3715 7.79276C38.3715 7.47844 38.6265 7.22394 38.9418 7.22394C39.2566 7.22394 39.5115 7.47844 39.5115 7.79276C39.5115 7.88117 39.4382 7.92983 39.3796 7.98966C39.2629 8.10932 39.1278 8.22183 39.0035 8.34462C38.6779 8.6643 38.4234 9.03845 38.393 9.55682C38.3715 9.91803 38.6479 10.2288 39.0097 10.2498C39.372 10.2712 39.6828 9.99483 39.7043 9.63362C39.7119 9.50012 39.796 9.41216 39.8769 9.32733C39.9941 9.20455 40.1265 9.09427 40.245 8.97952C40.5854 8.65091 40.8251 8.28345 40.8251 7.79276C40.8251 6.75424 39.982 5.91262 38.9418 5.91262ZM39.0406 11.7437C39.3805 11.7437 39.6569 11.4678 39.6569 11.1285C39.6569 10.7887 39.3805 10.5127 39.0406 10.5127C38.7002 10.5127 38.4243 10.7887 38.4243 11.1285C38.4243 11.4678 38.7002 11.7437 39.0406 11.7437ZM42.042 36.1615V42.6954C42.042 43.4138 41.4552 44 40.7356 44H31.1724C30.4528 44 29.8655 43.4138 29.8655 42.6954V36.1615C29.8655 35.4436 30.4528 34.8591 31.1724 34.8591H32.2775V32.8138C32.2775 32.7138 32.3383 32.6236 32.4318 32.5861C32.5248 32.5486 32.6317 32.5713 32.701 32.6437L34.833 34.8591H40.7356C41.4552 34.8591 42.042 35.4436 42.042 36.1615ZM32.4117 42.1315H39.3814C39.7441 42.1315 40.0384 41.8377 40.0384 41.476C40.0384 41.1139 39.7441 40.8201 39.3814 40.8201H32.4117C32.0494 40.8201 31.7551 41.1139 31.7551 41.476C31.7551 41.8377 32.0494 42.1315 32.4117 42.1315ZM32.4117 40.0616H39.3814C39.7441 40.0616 40.0384 39.7678 40.0384 39.4061C40.0384 39.044 39.7441 38.7502 39.3814 38.7502H32.4117C32.0494 38.7502 31.7551 39.044 31.7551 39.4061C31.7551 39.7678 32.0494 40.0616 32.4117 40.0616ZM32.4117 37.9934H39.3814C39.7441 37.9934 40.0384 37.6996 40.0384 37.338C40.0384 36.9759 39.7441 36.6821 39.3814 36.6821H32.4117C32.0494 36.6821 31.7551 36.9759 31.7551 37.338C31.7551 37.6996 32.0494 37.9934 32.4117 37.9934ZM19.6095 33.1482L18.8425 30.2916C19.5026 30.3188 20.0975 30.768 20.2772 31.4386C20.4575 32.1097 20.1677 32.7955 19.6095 33.1482ZM9.62945 38.3377L11.5119 37.834L12.4913 41.4827L12.0029 41.6135C11.2355 41.8189 10.4407 41.3608 10.235 40.5947L9.62945 38.3377ZM10.8133 30.9618C11.7802 30.3411 12.6698 29.5643 13.4958 28.7744L15.6895 36.9478C14.5902 36.6875 13.4605 36.5084 12.3012 36.5062L10.8133 30.9618ZM19.1999 36.6879C19.2772 36.9768 19.1967 37.2625 18.9807 37.4688C18.7647 37.6746 18.4771 37.743 18.1909 37.6541C17.8479 37.5483 17.5026 37.4407 17.1542 37.338L14.5719 27.7171C14.8384 27.4501 15.1005 27.1912 15.3527 26.9429C15.5625 26.7385 15.8402 26.6666 16.1215 26.7438C16.4028 26.8211 16.6059 27.0246 16.6815 27.3055L19.1999 36.6879ZM10.9725 36.6209L8.30652 37.334C6.91025 37.7077 5.46299 36.8719 5.0891 35.4797C4.71566 34.088 5.55065 32.6414 6.94692 32.2682L9.6129 31.5547L10.9725 36.6209Z" fill="url(#paint0_linear_1_1643)"/>
<defs>
<linearGradient id="paint0_linear_1_1643" x1="8.31915" y1="8.80488" x2="31.7571" y2="44.5465" gradientUnits="userSpaceOnUse">
<stop stop-color="#FF2A2A"/>
<stop offset="1" stop-color="#5A0000"/>
</linearGradient>
</defs>
</svg>
