<svg width="48" height="48" viewBox="0 0 48 48" fill="none" xmlns="http://www.w3.org/2000/svg">
<path fill-rule="evenodd" clip-rule="evenodd" d="M42.1863 21.1519H39.5552V11.6505L39.3667 11.4572L39.3662 11.4568L32.4505 4.36826L32.0907 4H11.3378C9.74296 4 8.44569 5.32967 8.44569 6.96429V21.1519H5.81467C4.81401 21.1519 4 21.9862 4 23.0119V36.3406C4 37.3658 4.81401 38.2011 5.81467 38.2011H8.44522V42.0357C8.44522 43.6703 9.74249 45 11.3373 45H36.6622C38.257 45 39.5543 43.6703 39.5543 42.0357V38.2011H42.1853C43.1855 38.2011 44 37.3668 44 36.3406V23.0114C44.0005 21.9862 43.1865 21.1519 42.1863 21.1519ZM21.1671 30.5228L22.5308 27.3063L23.8945 30.5228H21.1671ZM23.3953 26.1809L26.2785 32.7726C26.3342 32.8748 26.3562 32.9769 26.3562 33.068C26.3562 33.4425 26.0792 33.7384 25.7129 33.7384C25.3911 33.7384 25.1693 33.5451 25.0477 33.2502L24.4152 31.7614H20.645L19.991 33.2958C19.8797 33.5801 19.6476 33.7393 19.3585 33.7393C19.0039 33.7393 18.727 33.4555 18.727 33.0915C18.727 32.9889 18.7607 32.8868 18.8159 32.7731L21.6986 26.1809C21.8539 25.828 22.1313 25.6122 22.5196 25.6122H22.586C22.9743 25.6122 23.24 25.8285 23.3953 26.1809ZM29.273 26.3626V33.046C29.273 33.4324 28.9736 33.7388 28.597 33.7388C28.2087 33.7388 27.9098 33.432 27.9098 33.046V26.3626C27.9098 25.9762 28.2092 25.6698 28.597 25.6698C28.9732 25.6698 29.273 25.9766 29.273 26.3626ZM13.5566 11.3978C13.5566 11.0324 13.8453 10.7366 14.2017 10.7366H26.7342C27.0907 10.7366 27.3793 11.0324 27.3793 11.3978C27.3793 11.7632 27.0907 12.059 26.7342 12.059H14.2017C13.8453 12.0595 13.5566 11.7627 13.5566 11.3978ZM34.4438 16.6057C34.4438 16.9711 34.1552 17.2669 33.7987 17.2669H14.2017C13.8453 17.2669 13.5566 16.9711 13.5566 16.6057C13.5566 16.2403 13.8453 15.9444 14.2017 15.9444H33.7987C34.1547 15.9444 34.4438 16.2403 34.4438 16.6057ZM38.2645 42.0343C38.2645 42.9396 37.5464 43.6766 36.6632 43.6766H11.3378C10.4545 43.6766 9.73547 42.9401 9.73547 42.0343V38.1997H38.2641L38.2645 42.0343ZM9.73547 6.96429C9.73547 6.05899 10.4545 5.32295 11.3378 5.32295H31.1785V9.62171C31.1785 11.2563 32.4757 12.586 34.0705 12.586H38.2645V21.1528H9.73547V6.96429Z" fill="url(#paint0_linear_1_1648)"/>
<defs>
<linearGradient id="paint0_linear_1_1648" x1="7.40425" y1="8" x2="32.2814" y2="45.0111" gradientUnits="userSpaceOnUse">
<stop stop-color="#FF2A2A"/>
<stop offset="1" stop-color="#5A0000"/>
</linearGradient>
</defs>
</svg>
