<svg width="80" height="80" viewBox="0 0 80 80" fill="none" xmlns="http://www.w3.org/2000/svg">
<rect width="80" height="80" rx="16" fill="white"/>
<path d="M35.0013 64.0532C32.6807 63.23 30.5729 61.8962 28.8325 60.1494L34.0832 54.8796C35.0544 55.8543 36.1367 56.6928 37.4316 57.1521C38.7266 57.6115 40.1075 57.7743 41.4732 57.6285C42.839 57.4828 44.1549 57.0323 45.3247 56.31C46.4944 55.5876 47.4883 54.6118 48.2336 53.454C48.9789 52.2962 49.4566 50.9857 49.6318 49.6185C49.807 48.2513 49.6752 46.8622 49.2461 45.5527C48.817 44.2433 48.1015 43.0469 47.1519 42.051C46.2023 41.0551 43.5289 39.7274 42.2443 39.2396L46.3392 32.9514L52.421 23.5996C53.1834 25.7478 53.8834 31.1016 50.5834 35.3318C51.2345 35.8364 51.849 36.3906 52.421 36.9904C54.1227 38.7751 55.405 40.9194 56.174 43.266C56.943 45.6126 57.1791 48.1021 56.8652 50.5522C56.5512 53.0022 55.6951 55.3508 54.3595 57.4257C53.0239 59.5007 51.2427 61.2495 49.1464 62.5439C47.0501 63.8384 44.6917 64.6458 42.2442 64.907C39.7967 65.1681 37.3219 64.8764 35.0013 64.0532Z" fill="#3AAEAB" stroke="#4DB6B3" stroke-width="0.2"/>
<path d="M25.256 42.1023C26.5049 39.0764 28.1616 36.9192 30.875 35.0995C21.7083 27.2798 34.4501 7.40754 48.7502 18.0795L40.5001 31.8795L36.8926 37.9139C35.6356 40.0164 33.8656 41.7858 32.6801 43.9294C32.5041 44.2478 32.3395 44.5925 32.1793 44.9805C31.4977 46.6321 31.3193 48.4496 31.6668 50.203C32.0143 51.9564 32.8721 53.567 34.1317 54.8311L28.8328 60.1492C26.5252 57.8333 24.9537 54.8826 24.3171 51.6702C23.6804 48.4579 24.0071 45.1283 25.256 42.1023Z" fill="#11253D" stroke="#0B0F23" stroke-width="0.2"/>
<ellipse cx="40.5002" cy="49.3597" rx="3.66669" ry="3.68" fill="#FBDB28" stroke="#FBDD34" stroke-width="0.2"/>
</svg>
