<svg width="70" height="70" viewBox="0 0 70 70" fill="none" xmlns="http://www.w3.org/2000/svg">
<rect width="70" height="70" rx="14" fill="#CB7F4C"/>
<path d="M44.9495 58.4289L36.9126 39.0453C36.7753 38.7002 36.4474 38.4766 36.0774 38.4766C35.7074 38.4766 35.3785 38.6991 35.2431 39.0389L27.5221 58.1881L27.3296 58.6687C27.2504 58.8655 27.2694 59.0934 27.3797 59.2719C27.49 59.4514 27.6776 59.5589 27.8771 59.5589H28.582C28.8387 59.5589 29.0663 59.3837 29.1465 59.1224L36.0764 41.8794L43.0674 58.6762L43.1315 58.8816C43.2127 59.1428 43.4394 59.3181 43.6971 59.3181H44.402C44.6025 59.3181 44.789 59.2106 44.8993 59.031C45.0096 58.8525 45.0287 58.6246 44.9495 58.4279" fill="white"/>
<path d="M23.0547 36.8574C23.0547 36.8574 23.2121 43.5114 29.0951 44.7586C29.0951 44.7586 30.0517 39.8399 23.0547 36.8574Z" fill="white"/>
<path d="M14.0039 36.8513C14.0039 36.8513 16.995 41.9744 22.129 40.037C22.129 40.037 20.7593 35.7192 14.0039 36.8513Z" fill="white"/>
<path d="M56.0057 40.0443C56.0057 40.0443 50.7344 38.0284 47.8516 42.9321C47.8516 42.9321 51.3982 45.3888 56.0057 40.0443Z" fill="white"/>
<path d="M49.8188 36.2246C49.8188 36.2246 42.7536 36.5719 41.5664 43.7839C41.5664 43.7839 46.8127 44.8397 49.8188 36.2246Z" fill="white"/>
<path d="M24.5188 29.4746C24.5188 29.4746 24.1267 35.3158 29.1775 36.9457C29.1775 36.9457 30.4088 32.7269 24.5188 29.4746Z" fill="white"/>
<path d="M46.4148 27.4121C46.4148 27.4121 40.7514 27.5626 39.6875 33.3189C39.6875 33.3189 43.8729 34.2586 46.4148 27.4121Z" fill="white"/>
<path d="M48.5099 20.9961C48.5099 20.9961 43.8422 21.0068 43.0781 26.2331C43.0781 26.2331 46.5465 27.1835 48.5099 20.9961Z" fill="white"/>
<path d="M30.4711 23.0176C30.4711 23.0176 27.1571 28.3739 31.1629 32.8551C31.1629 32.8551 34.4629 29.5372 30.4711 23.0176Z" fill="white"/>
<path d="M26.1005 15.4376C26.1005 15.4376 25.542 20.6542 30.0101 22.3228C30.0101 22.3228 31.2645 18.5942 26.1005 15.4376Z" fill="white"/>
<path d="M41.3188 15.5801C41.3188 15.5801 38.6787 19.8451 41.8693 23.4146C41.8693 23.4146 44.4975 20.773 41.3188 15.5801Z" fill="white"/>
<path d="M33.2484 14.7344C33.2484 14.7344 29.9344 20.0907 33.9403 24.5719C33.9403 24.5719 37.2392 21.2551 33.2484 14.7344Z" fill="white"/>
<path d="M37.328 28.6445C37.328 28.6445 32.174 30.9399 33.0995 36.6339C33.0995 36.6339 37.2568 35.9049 37.328 28.6445Z" fill="white"/>
<path d="M36.2467 10.001C36.2467 10.001 33.773 14.8832 37.5392 18.415C37.5392 18.415 40.1463 15.2907 36.2467 10.001Z" fill="white"/>
<path d="M50.5741 27.3379C50.5741 27.3379 45.4201 29.6333 46.3456 35.3272C46.3456 35.3272 50.5029 34.5994 50.5741 27.3379Z" fill="white"/>
<path d="M37.3523 20.7031C37.3523 20.7031 35.793 26.4487 40.5129 29.2419C40.5129 29.2419 42.5875 25.3112 37.3523 20.7031Z" fill="white"/>
<path d="M21.1289 21.1826C21.1289 21.1826 22.1226 27.0722 27.5082 27.3141C27.5082 27.3141 27.7298 22.805 21.1289 21.1826Z" fill="white"/>
<path d="M18.5477 27.9453C18.5477 27.9453 18.0072 33.9016 23.1291 35.7078C23.1291 35.7078 24.4878 31.4341 18.5477 27.9453Z" fill="white"/>
<path d="M44.8118 34.9834C44.8118 34.9834 41.2231 32.8912 38.625 36.0747C38.625 36.0747 40.9222 38.2766 44.8118 34.9834Z" fill="white"/>
</svg>
