<svg width="80" height="80" viewBox="0 0 80 80" fill="none" xmlns="http://www.w3.org/2000/svg">
<rect width="79.9999" height="80" rx="14" fill="#C5D271"/>
<path d="M51.3709 66.7759L42.186 44.6231C42.029 44.2287 41.6543 43.9731 41.2314 43.9731C40.8086 43.9731 40.4327 44.2275 40.278 44.6158L31.454 66.5006L31.234 67.0499C31.1435 67.2747 31.1652 67.5352 31.2913 67.7392C31.4173 67.9444 31.6316 68.0673 31.8597 68.0673H32.6653C32.9587 68.0673 33.2188 67.867 33.3105 67.5684L41.2303 47.8621L49.22 67.0585L49.2933 67.2932C49.3861 67.5917 49.6451 67.792 49.9396 67.792H50.7453C50.9744 67.792 51.1876 67.6692 51.3137 67.464C51.4397 67.26 51.4615 66.9995 51.3709 66.7746" fill="white"/>
<path d="M26.3486 42.1228C26.3486 42.1228 26.5286 49.7274 33.252 51.1527C33.252 51.1527 34.3452 45.5313 26.3486 42.1228Z" fill="white"/>
<path d="M16.0049 42.1158C16.0049 42.1158 19.4233 47.9707 25.2907 45.7565C25.2907 45.7565 23.7253 40.8219 16.0049 42.1158Z" fill="white"/>
<path d="M64.0065 45.7649C64.0065 45.7649 57.9822 43.4611 54.6875 49.0653C54.6875 49.0653 58.7408 51.873 64.0065 45.7649Z" fill="white"/>
<path d="M56.9362 41.3995C56.9362 41.3995 48.8617 41.7964 47.5049 50.0387C47.5049 50.0387 53.5006 51.2453 56.9362 41.3995Z" fill="white"/>
<path d="M28.0218 33.6853C28.0218 33.6853 27.5737 40.361 33.3459 42.2237C33.3459 42.2237 34.7532 37.4022 28.0218 33.6853Z" fill="white"/>
<path d="M53.0457 31.3281C53.0457 31.3281 46.5733 31.5001 45.3574 38.0788C45.3574 38.0788 50.1407 39.1527 53.0457 31.3281Z" fill="white"/>
<path d="M55.4401 23.9955C55.4401 23.9955 50.1057 24.0078 49.2324 29.9806C49.2324 29.9806 53.1963 31.0668 55.4401 23.9955Z" fill="white"/>
<path d="M34.8249 26.3059C34.8249 26.3059 31.0375 32.4274 35.6156 37.5488C35.6156 37.5488 39.387 33.7569 34.8249 26.3059Z" fill="white"/>
<path d="M29.8292 17.6431C29.8292 17.6431 29.1909 23.6049 34.2974 25.5118C34.2974 25.5118 35.731 21.2506 29.8292 17.6431Z" fill="white"/>
<path d="M47.2222 17.8058C47.2222 17.8058 44.2049 22.6801 47.8513 26.7595C47.8513 26.7595 50.8549 23.7405 47.2222 17.8058Z" fill="white"/>
<path d="M37.9987 16.8392C37.9987 16.8392 34.2113 22.9608 38.7894 28.0821C38.7894 28.0821 42.5597 24.2915 37.9987 16.8392Z" fill="white"/>
<path d="M42.6609 32.7366C42.6609 32.7366 36.7706 35.3599 37.8283 41.8672C37.8283 41.8672 42.5795 41.0342 42.6609 32.7366Z" fill="white"/>
<path d="M41.4251 11.4297C41.4251 11.4297 38.5979 17.0093 42.9022 21.0457C42.9022 21.0457 45.8817 17.475 41.4251 11.4297Z" fill="white"/>
<path d="M57.7995 31.2433C57.7995 31.2433 51.9092 33.8666 52.967 40.374C52.967 40.374 57.7182 39.5421 57.7995 31.2433Z" fill="white"/>
<path d="M42.6883 23.6606C42.6883 23.6606 40.9063 30.227 46.3004 33.4192C46.3004 33.4192 48.6714 28.927 42.6883 23.6606Z" fill="white"/>
<path d="M24.1475 24.2087C24.1475 24.2087 25.2831 30.9397 31.4381 31.2162C31.4381 31.2162 31.6914 26.0629 24.1475 24.2087Z" fill="white"/>
<path d="M21.1975 31.9375C21.1975 31.9375 20.5798 38.7447 26.4334 40.8089C26.4334 40.8089 27.9862 35.9247 21.1975 31.9375Z" fill="white"/>
<path d="M51.2142 39.9811C51.2142 39.9811 47.1128 37.59 44.1436 41.2282C44.1436 41.2282 46.769 43.7447 51.2142 39.9811Z" fill="white"/>
</svg>
