<svg width="80" height="80" viewBox="0 0 80 80" fill="none" xmlns="http://www.w3.org/2000/svg">
<rect x="6" y="18.4971" width="53" height="1.99668" fill="black"/>
<rect x="66" y="18.4971" width="9" height="1.99668" fill="black"/>
<rect x="56" y="52.4414" width="18" height="1.99668" fill="black"/>
<rect x="6" y="20.4941" width="2" height="28.9518" fill="black"/>
<rect x="73" y="20.4941" width="2" height="33.9435" fill="black"/>
<path d="M60 21.9917V17L62.5 19.4958L60 21.9917Z" fill="black"/>
<path d="M55 55.9351V50.9434L52.5 53.4392L55 55.9351Z" fill="black"/>
<path d="M37 23.9883C35 25.5856 30.8333 25.985 29 25.985C31.8 26.7836 32.5 28.98 32.5 29.9783V43.4559C32.5 52.4409 47 50.4442 47 43.4559C40.6 49.0466 37 44.4542 37 42.4575V23.9883Z" fill="#FEBC00"/>
<path d="M51.0002 23.9883C49.0002 25.5856 44.8336 25.985 43.0002 25.985C45.8002 26.7836 46.5002 28.98 46.5002 29.9783V53.4393C46.6668 57.2662 44.4 63.6223 34 58.431C37 64.421 51.0002 66.4177 51.0002 52.4409V23.9883Z" fill="#FEBC00"/>
<path d="M57.5 25.4856C55 25.9848 54.3333 30.9765 54.5 33.4723L52 24.4873H58H69L56.5 48.4474H63C66 48.4474 66.3333 43.2893 67 40.9599L69.5 49.4458H52L64.5 25.4856H57.5Z" fill="black"/>
<path d="M39.6631 51.4424V53.4236H39.5245C39.4796 53.0434 39.3984 52.7406 39.281 52.5153C39.1661 52.2901 39.0013 52.1112 38.7865 51.9789C38.5717 51.8465 38.3495 51.7803 38.1197 51.7803C37.86 51.7803 37.6452 51.8704 37.4754 52.0507C37.3055 52.2281 37.2206 52.4309 37.2206 52.659C37.2206 52.8336 37.2743 52.9927 37.3817 53.1363C37.5366 53.3475 37.9049 53.6292 38.4868 53.9812C38.9613 54.2684 39.2848 54.4895 39.4571 54.6444C39.6319 54.7965 39.7655 54.9767 39.8579 55.1851C39.9528 55.3935 40.0003 55.6117 40.0003 55.8399C40.0003 56.2736 39.8504 56.6481 39.5507 56.9635C39.2535 57.2761 38.8702 57.4324 38.4007 57.4324C38.2533 57.4324 38.1147 57.4197 37.9848 57.3944C37.9074 57.3803 37.7463 57.3296 37.5016 57.2423C37.2593 57.1522 37.1058 57.1071 37.0408 57.1071C36.9784 57.1071 36.9284 57.1283 36.891 57.1705C36.856 57.2127 36.8298 57.3001 36.8123 57.4324H36.6737V55.4681H36.8123C36.8772 55.8793 36.9646 56.1877 37.0745 56.3932C37.1844 56.596 37.3517 56.765 37.5765 56.9002C37.8038 57.0353 38.0523 57.1029 38.322 57.1029C38.6342 57.1029 38.8802 57.01 39.06 56.8241C39.2423 56.6382 39.3335 56.4186 39.3335 56.1651C39.3335 56.0243 39.2985 55.8821 39.2286 55.7385C39.1611 55.5949 39.055 55.4611 38.9101 55.3372C38.8127 55.2527 38.5468 55.0739 38.1122 54.8007C37.6777 54.5247 37.368 54.305 37.1832 54.1417C37.0009 53.9784 36.8623 53.7981 36.7674 53.601C36.6725 53.4039 36.625 53.187 36.625 52.9505C36.625 52.5393 36.7649 52.1859 37.0446 51.8902C37.3243 51.5916 37.6802 51.4424 38.1122 51.4424C38.3819 51.4424 38.6679 51.517 38.9701 51.6663C39.1099 51.7367 39.2086 51.7719 39.266 51.7719C39.331 51.7719 39.3834 51.7508 39.4234 51.7085C39.4658 51.6635 39.4995 51.5747 39.5245 51.4424H39.6631Z" fill="black"/>
<path d="M35.8528 55.7173L35.9764 55.7468L35.5418 57.3014H31.6084V57.1451H31.7995C32.0142 57.1451 32.1678 57.0662 32.2602 56.9085C32.3127 56.8184 32.3389 56.61 32.3389 56.2833V52.5871C32.3389 52.2294 32.3039 52.0055 32.234 51.9154C32.1366 51.7915 31.9918 51.7295 31.7995 51.7295H31.6084V51.5732H33.9085V51.7295C33.6388 51.7267 33.449 51.7549 33.3391 51.814C33.2317 51.8732 33.158 51.9478 33.1181 52.0379C33.0781 52.128 33.0582 52.3435 33.0582 52.6842V56.2833C33.0582 56.5171 33.0781 56.6776 33.1181 56.7649C33.1481 56.824 33.1943 56.8677 33.2567 56.8958C33.3191 56.924 33.5139 56.9381 33.8411 56.9381H34.212C34.6016 56.9381 34.875 56.9057 35.0324 56.8409C35.1897 56.7761 35.3333 56.6621 35.4632 56.4988C35.593 56.3326 35.7229 56.0721 35.8528 55.7173Z" fill="black"/>
<path d="M29.4209 55.3836H27.4542L27.1095 56.2876C27.0246 56.5101 26.9822 56.6763 26.9822 56.7861C26.9822 56.8734 27.0184 56.9508 27.0908 57.0184C27.1657 57.0832 27.3256 57.1254 27.5703 57.1452V57.3015H25.9707V57.1452C26.183 57.1029 26.3203 57.048 26.3828 56.9804C26.5101 56.8452 26.6513 56.5707 26.8061 56.1567L28.593 51.4424H28.7241L30.4923 56.2074C30.6346 56.5904 30.7633 56.8396 30.8781 56.9551C30.9955 57.0677 31.1578 57.1311 31.3651 57.1452V57.3015H29.361V57.1452C29.5632 57.1339 29.6994 57.0959 29.7693 57.0311C29.8417 56.9663 29.8779 56.8875 29.8779 56.7945C29.8779 56.6706 29.828 56.4749 29.7281 56.2074L29.4209 55.3836ZM29.316 55.071L28.4544 52.7561L27.5703 55.071H29.316Z" fill="black"/>
<path d="M25.66 51.5732L25.7162 52.9166H25.5739C25.5464 52.68 25.5089 52.511 25.4615 52.4096C25.3841 52.2463 25.2804 52.1266 25.1506 52.0506C25.0232 51.9717 24.8546 51.9323 24.6448 51.9323H23.9293V56.3087C23.9293 56.6607 23.963 56.8803 24.0305 56.9676C24.1254 57.0859 24.2715 57.1451 24.4688 57.1451H24.6448V57.3014H22.4908V57.1451H22.6706C22.8854 57.1451 23.0377 57.0718 23.1276 56.9254C23.1826 56.8353 23.2101 56.6297 23.2101 56.3087V51.9323H22.5994C22.3622 51.9323 22.1936 51.952 22.0937 51.9914C21.9638 52.045 21.8527 52.1477 21.7603 52.2998C21.6679 52.4519 21.613 52.6575 21.5955 52.9166H21.4531L21.5131 51.5732H25.66Z" fill="black"/>
<path d="M15.5752 51.5732H16.9538L20.0593 55.8693V52.5659C20.0593 52.2139 20.0244 51.9943 19.9544 51.907C19.862 51.7887 19.7159 51.7295 19.5161 51.7295H19.3401V51.5732H21.1082V51.7295H20.9284C20.7136 51.7295 20.5613 51.8028 20.4714 51.9492C20.4164 52.0393 20.389 52.2449 20.389 52.5659V57.3943H20.2541L16.9051 52.7814V56.3087C16.9051 56.6607 16.9388 56.8803 17.0062 56.9676C17.1011 57.0859 17.2472 57.1451 17.4445 57.1451H17.6243V57.3014H15.8562V57.1451H16.0322C16.2495 57.1451 16.4031 57.0718 16.493 56.9254C16.5479 56.8353 16.5754 56.6297 16.5754 56.3087V52.3252C16.4281 52.1308 16.3157 52.0027 16.2383 51.9408C16.1633 51.8788 16.0522 51.8211 15.9049 51.7676C15.8324 51.7422 15.7225 51.7295 15.5752 51.7295V51.5732Z" fill="black"/>
<path d="M12.5896 51.8858V54.1501H13.7059C13.9956 54.1501 14.1892 54.1008 14.2866 54.0022C14.4164 53.8727 14.4889 53.6445 14.5038 53.3179H14.6424V55.3117H14.5038C14.4689 55.0329 14.4339 54.8541 14.3989 54.7752C14.354 54.6767 14.2803 54.5992 14.1779 54.5429C14.0755 54.4866 13.9182 54.4584 13.7059 54.4584H12.5896V56.3467C12.5896 56.6001 12.5996 56.755 12.6195 56.8113C12.6395 56.8649 12.6745 56.9085 12.7244 56.9423C12.7744 56.9733 12.8693 56.9888 13.0091 56.9888H13.8707C14.1579 56.9888 14.3665 56.9662 14.4963 56.9212C14.6262 56.8761 14.7511 56.7874 14.871 56.6551C15.0258 56.4804 15.1844 56.2171 15.3467 55.8651H15.4966L15.0583 57.3014H11.1436V57.1451H11.3234C11.4432 57.1451 11.5569 57.1127 11.6643 57.0479C11.7442 57.0029 11.7979 56.9353 11.8254 56.8451C11.8553 56.755 11.8703 56.5706 11.8703 56.2918V52.5702C11.8703 52.2069 11.8378 51.983 11.7729 51.8985C11.683 51.7859 11.5332 51.7295 11.3234 51.7295H11.1436V51.5732H15.0583L15.1145 52.8279H14.9684C14.9159 52.5265 14.8572 52.3195 14.7923 52.2069C14.7299 52.0942 14.6362 52.0083 14.5113 51.9492C14.4114 51.907 14.2354 51.8858 13.9831 51.8858H12.5896Z" fill="black"/>
<path d="M11.0535 57.3014H9.69743L7.97796 54.6232C7.85059 54.6288 7.74695 54.6316 7.66703 54.6316C7.63456 54.6316 7.5996 54.6316 7.56214 54.6316C7.52468 54.6288 7.48597 54.626 7.44601 54.6232V56.2875C7.44601 56.648 7.48097 56.8719 7.5509 56.9592C7.6458 57.0831 7.78815 57.1451 7.97796 57.1451H8.1765V57.3014H6V57.1451H6.19105C6.40583 57.1451 6.55942 57.0662 6.65183 56.9085C6.70427 56.8212 6.7305 56.6142 6.7305 56.2875V52.5871C6.7305 52.2266 6.69553 52.0027 6.6256 51.9154C6.5282 51.7915 6.38335 51.7295 6.19105 51.7295H6V51.5732H7.85059C8.39003 51.5732 8.78712 51.6183 9.04186 51.7084C9.29909 51.7957 9.51637 51.9591 9.69369 52.1984C9.8735 52.435 9.96341 52.718 9.96341 53.0475C9.96341 53.3995 9.86101 53.7051 9.65622 53.9642C9.45393 54.2233 9.13926 54.4063 8.7122 54.5133L9.76112 56.1566C10.0009 56.534 10.2069 56.7846 10.3792 56.9085C10.5515 57.0324 10.7763 57.1113 11.0535 57.1451V57.3014ZM7.44601 54.357C7.49346 54.357 7.53467 54.3585 7.56963 54.3613C7.60459 54.3613 7.63331 54.3613 7.65579 54.3613C8.14029 54.3613 8.50491 54.243 8.74966 54.0064C8.99691 53.7699 9.12053 53.4685 9.12053 53.1024C9.12053 52.7448 9.02063 52.4547 8.82084 52.2322C8.62354 52.0069 8.36131 51.8943 8.03415 51.8943C7.8893 51.8943 7.69325 51.921 7.44601 51.9745V54.357Z" fill="black"/>
<path d="M23 24.4873C18.2 24.4873 15 27.8151 14 29.479C15.1667 28.647 18.2 26.9832 21 26.9832C25.8 26.9832 27 30.6437 27 32.474V49.4458H34C31.6 49.4458 31 46.7835 31 45.4524V34.0007C31 32.3255 30.8306 30.6197 30.0114 29.1586C28.7603 26.9273 26.4737 24.4873 23 24.4873Z" fill="black"/>
<path d="M13.073 40.2905C14.273 32.7032 23.2397 32.4702 27.573 33.3022C19.973 33.3022 17.7397 38.6267 17.573 41.2889C18.073 49.7748 24.573 47.1125 27.573 44.2839C21.573 54.6666 12.073 46.6134 13.073 40.2905Z" fill="black"/>
</svg>
