<svg width="80" height="80" viewBox="0 0 80 80" fill="none" xmlns="http://www.w3.org/2000/svg">
<rect width="80" height="80" rx="12.9502" fill="#421708"/>
<path d="M55.6668 51.5743L54.8939 52.8557C54.8613 52.7473 54.8193 52.6252 54.7677 52.4896C54.7162 52.354 54.6525 52.2279 54.5765 52.1113C54.5006 51.9919 54.4097 51.8929 54.304 51.8143C54.1982 51.7329 54.0762 51.6922 53.9378 51.6922C53.8104 51.6922 53.6992 51.7248 53.6042 51.7899C53.512 51.855 53.4334 51.9404 53.3683 52.0462C53.3032 52.1492 53.249 52.2672 53.2056 52.4001C53.1649 52.5303 53.1323 52.6632 53.1079 52.7988C53.0862 52.9317 53.0713 53.0605 53.0632 53.1853C53.055 53.3073 53.051 53.4131 53.051 53.5026V55.858H51.6719V51.1593H52.2007L52.7581 52.2537C52.834 52.0774 52.9208 51.916 53.0184 51.7695C53.1161 51.6204 53.2286 51.4929 53.3561 51.3871C53.4836 51.2787 53.6273 51.1946 53.7873 51.1349C53.95 51.0752 54.1331 51.0454 54.3365 51.0454C54.4423 51.0454 54.5603 51.0549 54.6904 51.0739C54.8206 51.0902 54.9481 51.12 55.0729 51.1634C55.1976 51.2041 55.3129 51.2583 55.4186 51.3261C55.5244 51.3939 55.6071 51.4766 55.6668 51.5743Z" fill="white"/>
<path d="M47.424 53.6287C47.5922 53.6667 47.7603 53.6965 47.9285 53.7182C48.0966 53.7399 48.2661 53.7507 48.437 53.7507C48.616 53.7507 48.7814 53.7345 48.9333 53.7019C49.0879 53.6667 49.2208 53.6097 49.332 53.5311C49.4459 53.4497 49.5354 53.3426 49.6005 53.2097C49.6656 53.0768 49.6981 52.9113 49.6981 52.7134C49.6981 52.5533 49.6764 52.4069 49.633 52.274C49.5896 52.1411 49.5245 52.0272 49.4378 51.9323C49.3537 51.8373 49.2493 51.7641 49.1245 51.7126C48.9998 51.6583 48.8547 51.6312 48.6892 51.6312C48.5346 51.6312 48.395 51.6597 48.2702 51.7167C48.1482 51.7736 48.0397 51.8509 47.9447 51.9485C47.8525 52.0435 47.7725 52.1547 47.7047 52.2821C47.6396 52.4096 47.5854 52.5425 47.542 52.6808C47.4986 52.8191 47.4674 52.9588 47.4484 53.0998C47.4294 53.2409 47.42 53.3737 47.42 53.4985C47.42 53.5202 47.42 53.5419 47.42 53.5636C47.42 53.5853 47.4213 53.607 47.424 53.6287ZM50.8128 52.7011C50.8128 52.8937 50.7816 53.0659 50.7192 53.2178C50.6568 53.367 50.5714 53.4985 50.4629 53.6124C50.3572 53.7263 50.2338 53.8226 50.0927 53.9013C49.9517 53.9799 49.8012 54.045 49.6412 54.0965C49.4811 54.1453 49.3157 54.1806 49.1448 54.2023C48.9767 54.224 48.8126 54.2348 48.6526 54.2348C48.4492 54.2348 48.2485 54.2213 48.0505 54.1942C47.8525 54.1643 47.6573 54.1182 47.4647 54.0558C47.4945 54.2348 47.542 54.4057 47.6071 54.5684C47.6722 54.7284 47.759 54.8695 47.8674 54.9915C47.9759 55.1109 48.1088 55.2058 48.2661 55.2763C48.4261 55.3468 48.6146 55.3821 48.8316 55.3821C48.9753 55.3821 49.1123 55.3604 49.2425 55.317C49.3727 55.2736 49.492 55.2126 49.6005 55.1339C49.709 55.0553 49.8039 54.9617 49.8853 54.8532C49.9693 54.7447 50.0371 54.624 50.0887 54.4911L50.6826 54.7108C50.5931 54.9251 50.4697 55.1109 50.3124 55.2682C50.1578 55.4227 49.9815 55.5516 49.7835 55.6546C49.5883 55.755 49.3794 55.8296 49.1571 55.8784C48.9374 55.9272 48.719 55.9516 48.5021 55.9516C48.1441 55.9516 47.8132 55.8919 47.5095 55.7726C47.2057 55.6506 46.944 55.4811 46.7243 55.2641C46.5046 55.0471 46.3324 54.7881 46.2076 54.4871C46.0829 54.186 46.0205 53.8565 46.0205 53.4985C46.0205 53.1405 46.0829 52.811 46.2076 52.5099C46.3324 52.2089 46.5046 51.9499 46.7243 51.7329C46.944 51.516 47.2057 51.3478 47.5095 51.2285C47.8132 51.1064 48.1441 51.0454 48.5021 51.0454C48.6757 51.0454 48.8533 51.0576 49.035 51.082C49.2167 51.1064 49.393 51.1458 49.5639 51.2C49.7347 51.2515 49.8961 51.3193 50.048 51.4034C50.1999 51.4875 50.3314 51.5919 50.4426 51.7167C50.5565 51.8387 50.646 51.9811 50.7111 52.1438C50.7789 52.3065 50.8128 52.4923 50.8128 52.7011Z" fill="white"/>
<path d="M45.1422 55.2926C45.1422 55.6668 45.0866 56.0194 44.9754 56.3503C44.8642 56.6812 44.7028 56.97 44.4913 57.2168C44.2797 57.4663 44.0194 57.6629 43.7102 57.8067C43.4037 57.9531 43.0539 58.0264 42.6606 58.0264C42.4436 58.0264 42.224 58.002 42.0016 57.9531C41.7819 57.9043 41.573 57.8284 41.3751 57.7253C41.1798 57.625 41.0035 57.4961 40.8462 57.3388C40.6916 57.1843 40.5696 57.0012 40.4801 56.7896L41.074 56.5659C41.1256 56.6988 41.192 56.8208 41.2734 56.932C41.3574 57.0432 41.4537 57.1381 41.5622 57.2168C41.6707 57.2982 41.79 57.3605 41.9202 57.4039C42.0504 57.45 42.1873 57.4731 42.3311 57.4731C42.6023 57.4731 42.8288 57.4175 43.0105 57.3063C43.1949 57.1951 43.3427 57.05 43.4539 56.871C43.5651 56.692 43.6451 56.4886 43.6939 56.2608C43.7427 56.0357 43.7671 55.8065 43.7671 55.5733V55.2966C43.6044 55.519 43.4078 55.6845 43.1773 55.7929C42.9494 55.8987 42.6986 55.9516 42.4246 55.9516C42.0667 55.9516 41.7466 55.8879 41.4646 55.7604C41.1825 55.6329 40.9438 55.4594 40.7486 55.2397C40.5533 55.0173 40.4041 54.7569 40.3011 54.4586C40.198 54.1603 40.1465 53.8402 40.1465 53.4985C40.1465 53.1568 40.198 52.8368 40.3011 52.5384C40.4041 52.2401 40.5533 51.9811 40.7486 51.7614C40.9438 51.539 41.1825 51.3641 41.4646 51.2366C41.7466 51.1091 42.0667 51.0454 42.4246 51.0454C42.6064 51.0454 42.7786 51.0725 42.9413 51.1268C43.1067 51.181 43.2573 51.2583 43.3929 51.3587C43.5312 51.4563 43.6519 51.5756 43.7549 51.7167C43.8607 51.855 43.9434 52.0096 44.0031 52.1804L44.6133 51.1593H45.1422V55.2926ZM43.759 53.4985C43.759 53.3765 43.7522 53.2476 43.7387 53.112C43.7278 52.9764 43.7075 52.8422 43.6776 52.7093C43.6478 52.5764 43.6058 52.4503 43.5515 52.3309C43.5 52.2089 43.4322 52.1018 43.3481 52.0096C43.2668 51.9146 43.1678 51.8401 43.0511 51.7858C42.9345 51.7316 42.7989 51.7045 42.6443 51.7045C42.4897 51.7045 42.3555 51.7329 42.2416 51.7899C42.1277 51.8441 42.03 51.9187 41.9487 52.0136C41.8673 52.1058 41.7995 52.213 41.7453 52.335C41.6937 52.4571 41.6531 52.5845 41.6232 52.7174C41.5934 52.8503 41.5717 52.9846 41.5581 53.1202C41.5473 53.2531 41.5419 53.3792 41.5419 53.4985C41.5419 53.6178 41.5473 53.7453 41.5581 53.8809C41.5717 54.0165 41.5934 54.1508 41.6232 54.2837C41.6531 54.4166 41.6937 54.544 41.7453 54.6661C41.7995 54.7881 41.8673 54.8966 41.9487 54.9915C42.03 55.0837 42.1277 55.1583 42.2416 55.2153C42.3555 55.2695 42.4897 55.2966 42.6443 55.2966C42.7854 55.2966 42.9101 55.2682 43.0186 55.2112C43.1298 55.1515 43.2261 55.0729 43.3074 54.9752C43.3915 54.8776 43.462 54.7664 43.519 54.6417C43.5759 54.5169 43.622 54.3881 43.6573 54.2552C43.6926 54.1223 43.7183 53.9908 43.7346 53.8606C43.7509 53.7277 43.759 53.607 43.759 53.4985Z" fill="white"/>
<path d="M39.9393 51.5743L39.1663 52.8557C39.1338 52.7473 39.0917 52.6252 39.0402 52.4896C38.9887 52.354 38.9249 52.2279 38.849 52.1113C38.7731 51.9919 38.6822 51.8929 38.5764 51.8143C38.4707 51.7329 38.3486 51.6922 38.2103 51.6922C38.0828 51.6922 37.9716 51.7248 37.8767 51.7899C37.7845 51.855 37.7058 51.9404 37.6408 52.0462C37.5757 52.1492 37.5214 52.2672 37.478 52.4001C37.4373 52.5303 37.4048 52.6632 37.3804 52.7988C37.3587 52.9317 37.3438 53.0605 37.3356 53.1853C37.3275 53.3073 37.3234 53.4131 37.3234 53.5026V55.858H35.9443V51.1593H36.4732L37.0305 52.2537C37.1065 52.0774 37.1933 51.916 37.2909 51.7695C37.3885 51.6204 37.5011 51.4929 37.6286 51.3871C37.756 51.2787 37.8998 51.1946 38.0598 51.1349C38.2225 51.0752 38.4056 51.0454 38.609 51.0454C38.7147 51.0454 38.8327 51.0549 38.9629 51.0739C39.0931 51.0902 39.2206 51.12 39.3453 51.1634C39.4701 51.2041 39.5853 51.2583 39.6911 51.3261C39.7969 51.3939 39.8796 51.4766 39.9393 51.5743Z" fill="white"/>
<path d="M29.9922 53.8487C29.9922 53.6345 30.0098 53.4121 30.0451 53.1815C30.083 52.951 30.1359 52.7205 30.2037 52.49C30.2742 52.2594 30.3583 52.0316 30.456 51.8065C30.5536 51.5814 30.6634 51.3658 30.7855 51.1597H31.7903C31.7225 51.3631 31.6615 51.576 31.6072 51.7984C31.5557 52.018 31.511 52.2391 31.473 52.4615C31.4377 52.6812 31.4093 52.8968 31.3876 53.1083C31.3686 53.3199 31.3591 53.5165 31.3591 53.6982C31.3591 53.804 31.3632 53.9179 31.3713 54.0399C31.3821 54.1593 31.3998 54.2799 31.4242 54.402C31.4486 54.5213 31.4825 54.6366 31.5259 54.7478C31.572 54.859 31.6303 54.958 31.7008 55.0448C31.7713 55.1288 31.8568 55.1966 31.9571 55.2482C32.0602 55.297 32.1809 55.3214 32.3192 55.3214C32.4548 55.3214 32.5755 55.2916 32.6812 55.2319C32.7897 55.1695 32.8846 55.0895 32.966 54.9919C33.0474 54.8915 33.1165 54.7776 33.1735 54.6501C33.2304 54.5227 33.2765 54.3925 33.3118 54.2596C33.3498 54.124 33.3769 53.9925 33.3932 53.865C33.4121 53.7348 33.4216 53.6182 33.4216 53.5151V51.1597H34.7967V55.8584H34.2678L33.6373 54.7641C33.5586 54.9458 33.4623 55.1112 33.3484 55.2604C33.2372 55.4068 33.1097 55.5329 32.966 55.6387C32.8223 55.7445 32.6623 55.8258 32.486 55.8828C32.3124 55.9397 32.1239 55.9682 31.9205 55.9682C31.595 55.9682 31.3116 55.9153 31.0702 55.8096C30.8289 55.7038 30.6282 55.5573 30.4682 55.3702C30.3081 55.1831 30.1888 54.9607 30.1102 54.703C30.0315 54.4427 29.9922 54.1579 29.9922 53.8487Z" fill="white"/>
<path d="M29.3944 54.2675C29.3944 54.4329 29.3672 54.5875 29.313 54.7313C29.2588 54.875 29.1842 55.0065 29.0893 55.1259C28.9943 55.2425 28.8831 55.3469 28.7557 55.4391C28.6309 55.5313 28.4953 55.6086 28.3489 55.671C28.2051 55.7334 28.0559 55.7808 27.9014 55.8134C27.7468 55.8432 27.5949 55.8581 27.4457 55.8581H24V50H27.1488C27.2871 50 27.4322 50.0108 27.584 50.0325C27.7359 50.0515 27.8837 50.0827 28.0275 50.1261C28.1739 50.1695 28.3122 50.2265 28.4424 50.297C28.5753 50.3675 28.6906 50.4543 28.7882 50.5573C28.8886 50.6577 28.9672 50.7743 29.0242 50.9072C29.0838 51.0401 29.1137 51.192 29.1137 51.3628C29.1137 51.5256 29.0811 51.6734 29.016 51.8063C28.9509 51.9392 28.8628 52.0585 28.7516 52.1643C28.6431 52.2673 28.517 52.3595 28.3733 52.4409C28.2322 52.5195 28.0831 52.5887 27.9258 52.6484C28.1238 52.7026 28.3109 52.7745 28.4872 52.864C28.6662 52.9535 28.8221 53.0633 28.955 53.1935C29.0906 53.3237 29.1977 53.4783 29.2764 53.6573C29.355 53.8336 29.3944 54.037 29.3944 54.2675ZM27.4742 51.5052C27.4742 51.1743 27.3861 50.933 27.2098 50.7811C27.0362 50.6292 26.788 50.5533 26.4653 50.5533H25.6151V52.4531H26.327C26.4734 52.4531 26.6158 52.4355 26.7541 52.4002C26.8925 52.3622 27.0145 52.3053 27.1203 52.2293C27.2288 52.1507 27.3142 52.0517 27.3766 51.9324C27.4417 51.813 27.4742 51.6707 27.4742 51.5052ZM27.759 54.1658C27.759 54.0058 27.7386 53.8566 27.698 53.7183C27.6573 53.5773 27.5949 53.4566 27.5108 53.3562C27.4267 53.2532 27.321 53.1732 27.1935 53.1162C27.0687 53.0565 26.9209 53.0267 26.7501 53.0267H25.6151V55.2886H26.6077C26.7731 55.2886 26.9264 55.2615 27.0674 55.2072C27.2084 55.153 27.3305 55.0771 27.4335 54.9794C27.5366 54.8818 27.6166 54.7638 27.6735 54.6255C27.7305 54.4872 27.759 54.3339 27.759 54.1658Z" fill="white"/>
<path d="M50.2716 64.4214H46.293V63.8762L48.7542 60.2678H46.293V59.7227H50.2716V60.2678L47.8104 63.8762H50.2716V64.4214Z" fill="white"/>
<path d="M45.6662 64.4214H41.6875V63.8762L44.1487 60.2678H41.6875V59.7227H45.6662V60.2678L43.2049 63.8762H45.6662V64.4214Z" fill="white"/>
<path d="M35.9922 62.4117C35.9922 62.1974 36.0098 61.9751 36.0451 61.7445C36.083 61.514 36.1359 61.2835 36.2037 61.0529C36.2742 60.8224 36.3583 60.5946 36.456 60.3695C36.5536 60.1444 36.6634 59.9288 36.7855 59.7227H37.7903C37.7225 59.9261 37.6615 60.139 37.6072 60.3614C37.5557 60.581 37.511 60.8021 37.473 61.0245C37.4377 61.2441 37.4093 61.4598 37.3876 61.6713C37.3686 61.8828 37.3591 62.0795 37.3591 62.2612C37.3591 62.367 37.3632 62.4809 37.3713 62.6029C37.3821 62.7222 37.3998 62.8429 37.4242 62.965C37.4486 63.0843 37.4825 63.1996 37.5259 63.3108C37.572 63.422 37.6303 63.521 37.7008 63.6077C37.7713 63.6918 37.8568 63.7596 37.9571 63.8111C38.0602 63.86 38.1809 63.8844 38.3192 63.8844C38.4548 63.8844 38.5755 63.8545 38.6812 63.7949C38.7897 63.7325 38.8846 63.6525 38.966 63.5549C39.0474 63.4545 39.1165 63.3406 39.1735 63.2131C39.2304 63.0857 39.2765 62.9555 39.3118 62.8226C39.3498 62.687 39.3769 62.5554 39.3932 62.428C39.4121 62.2978 39.4216 62.1812 39.4216 62.0781V59.7227H40.7967V64.4214H40.2678L39.6373 63.327C39.5586 63.5087 39.4623 63.6742 39.3484 63.8234C39.2372 63.9698 39.1097 64.0959 38.966 64.2017C38.8223 64.3075 38.6623 64.3888 38.486 64.4458C38.3124 64.5027 38.1239 64.5312 37.9205 64.5312C37.595 64.5312 37.3116 64.4783 37.0702 64.3726C36.8289 64.2668 36.6282 64.1203 36.4682 63.9332C36.3081 63.7461 36.1888 63.5237 36.1102 63.266C36.0315 63.0057 35.9922 62.7209 35.9922 62.4117Z" fill="white"/>
<path d="M35.3944 62.8305C35.3944 62.9959 35.3672 63.1505 35.313 63.2943C35.2588 63.438 35.1842 63.5695 35.0893 63.6889C34.9943 63.8055 34.8831 63.9099 34.7557 64.0021C34.6309 64.0943 34.4953 64.1716 34.3489 64.234C34.2051 64.2964 34.0559 64.3438 33.9014 64.3764C33.7468 64.4062 33.5949 64.4211 33.4457 64.4211H30V58.563H33.1488C33.2871 58.563 33.4322 58.5738 33.584 58.5955C33.7359 58.6145 33.8837 58.6457 34.0275 58.6891C34.1739 58.7325 34.3122 58.7894 34.4424 58.86C34.5753 58.9305 34.6906 59.0173 34.7882 59.1203C34.8886 59.2207 34.9672 59.3373 35.0242 59.4702C35.0838 59.6031 35.1137 59.755 35.1137 59.9258C35.1137 60.0885 35.0811 60.2364 35.016 60.3692C34.9509 60.5021 34.8628 60.6215 34.7516 60.7272C34.6431 60.8303 34.517 60.9225 34.3733 61.0039C34.2322 61.0825 34.0831 61.1517 33.9258 61.2114C34.1238 61.2656 34.3109 61.3375 34.4872 61.427C34.6662 61.5165 34.8221 61.6263 34.955 61.7565C35.0906 61.8867 35.1977 62.0413 35.2764 62.2203C35.355 62.3965 35.3944 62.6 35.3944 62.8305ZM33.4742 60.0682C33.4742 59.7373 33.3861 59.496 33.2098 59.3441C33.0362 59.1922 32.788 59.1163 32.4653 59.1163H31.6151V61.0161H32.327C32.4734 61.0161 32.6158 60.9985 32.7541 60.9632C32.8925 60.9252 33.0145 60.8683 33.1203 60.7923C33.2288 60.7137 33.3142 60.6147 33.3766 60.4954C33.4417 60.376 33.4742 60.2336 33.4742 60.0682ZM33.759 62.7288C33.759 62.5688 33.7386 62.4196 33.698 62.2813C33.6573 62.1403 33.5949 62.0196 33.5108 61.9192C33.4267 61.8162 33.321 61.7361 33.1935 61.6792C33.0687 61.6195 32.9209 61.5897 32.7501 61.5897H31.6151V63.8516H32.6077C32.7731 63.8516 32.9264 63.8245 33.0674 63.7702C33.2084 63.716 33.3305 63.64 33.4335 63.5424C33.5366 63.4448 33.6166 63.3268 33.6735 63.1885C33.7305 63.0502 33.759 62.8969 33.759 62.7288Z" fill="white"/>
<path d="M43.4971 15C50.9394 15.0002 57.2471 20.5626 58.1651 27.9395C58.2985 29.0221 57.6674 29.9977 56.7208 30.3848V32.4248C56.8169 32.3793 56.9154 32.3366 57.0147 32.2969C57.709 32.0193 58.4625 31.8819 59.046 31.875H59.0567C59.4802 31.8752 59.8278 32.2155 59.8331 32.6416C59.8383 33.073 59.4959 33.4237 59.0645 33.4316C58.3767 33.4395 57.3221 33.7321 56.8174 34.1924C56.7861 34.2237 56.7521 34.2503 56.7208 34.2764V36.7842H57.5001L57.7383 36.7959C58.9135 36.9157 59.833 37.9129 59.8331 39.1191C59.8331 40.2985 58.9672 41.2431 57.8819 41.4209C58.0649 41.902 58.0782 42.4251 57.9083 42.9219C56.9458 45.7669 54.2784 47.6758 51.2764 47.6758H28.5567L28.2764 47.6699C25.3898 47.5553 22.8597 45.6776 21.9249 42.9238C21.755 42.4245 21.7683 41.9019 21.9512 41.4209C20.845 41.2378 20.0001 40.275 20.0001 39.1191C20.0001 37.8299 21.0439 36.7842 22.3331 36.7842H23.1124V34.2109C23.1045 34.2031 23.0961 34.1973 23.0909 34.1895C22.6286 33.7709 21.7443 33.4943 21.0645 33.4404L20.7872 33.4316H20.7764C20.3529 33.4314 20.0053 33.0882 20.0001 32.6621C19.9954 32.2604 20.296 31.9257 20.6866 31.8809C20.7128 31.8778 20.7397 31.8753 20.7667 31.875L21.0313 31.8799C21.5785 31.9067 22.2202 32.0378 22.8174 32.2676C22.9171 32.3059 23.0158 32.3468 23.1124 32.3906V30.3848C22.1605 29.9951 21.5356 29.0169 21.669 27.9395C22.587 20.5625 28.8945 15 36.337 15H43.4971ZM24.1583 41.4521C23.6483 41.4521 23.238 41.9462 23.3975 42.4248C24.1247 44.5655 26.0934 46.0262 28.3389 46.1152L28.5567 46.1201H51.2764C53.6117 46.1201 55.686 44.6342 56.4366 42.4219C56.5859 41.9782 56.2362 41.5142 55.7696 41.458C55.7386 41.4543 55.7068 41.4521 55.6749 41.4521H24.1583ZM22.3331 38.3398C21.9042 38.3398 21.5558 38.6877 21.5557 39.1191C21.5557 39.5211 21.8616 39.8516 22.253 39.8916L22.3331 39.8955H57.5001C57.9289 39.8955 58.2774 39.548 58.2774 39.1191C58.2774 38.6903 57.9289 38.3398 57.5001 38.3398H22.3331ZM49.0577 33.4414C48.5111 33.4969 47.9711 33.7473 47.4825 34.1924C46.6808 34.9242 45.75 35.3126 44.8116 35.3584C44.6863 35.3645 44.5609 35.3645 44.4356 35.3584C43.4973 35.3126 42.5672 34.924 41.7657 34.1924C41.2772 33.7474 40.737 33.4971 40.1905 33.4414C40.0344 33.4255 39.8778 33.4255 39.7217 33.4414C39.1751 33.497 38.6351 33.7473 38.1465 34.1924C37.3448 34.9242 36.4141 35.3127 35.4756 35.3584C35.3504 35.3645 35.225 35.3645 35.0997 35.3584C34.1614 35.3125 33.2313 34.924 32.4297 34.1924C31.9412 33.7474 31.401 33.4971 30.8545 33.4414C30.6985 33.4255 30.5419 33.4255 30.3858 33.4414C29.8392 33.497 29.2992 33.7473 28.8106 34.1924C28.0115 34.9229 27.0811 35.3133 26.1407 35.3594C26.0779 35.3624 26.015 35.3643 25.9522 35.3643C25.8445 35.3643 25.7365 35.3597 25.629 35.3506C25.3057 35.3233 24.9839 35.2544 24.668 35.1465V36.7842H55.1651V35.1709C55.079 35.1985 54.9922 35.2226 54.9053 35.2441C54.6441 35.3089 54.3799 35.3469 54.1153 35.3574C53.9387 35.3644 53.762 35.3588 53.586 35.3418C52.707 35.2567 51.8452 34.8721 51.1016 34.1924C50.6132 33.7474 50.0729 33.4971 49.5264 33.4414C49.3703 33.4255 49.2137 33.4256 49.0577 33.4414ZM24.668 33.4365C25.0475 33.664 25.4442 33.7872 25.8419 33.8066C25.9744 33.8131 26.1071 33.8085 26.2393 33.792C26.7679 33.726 27.2884 33.4755 27.7618 33.0439C28.5635 32.3134 29.4942 31.9254 30.4327 31.8799C30.5576 31.8738 30.6827 31.8738 30.8077 31.8799C31.7461 31.9255 32.6769 32.3134 33.4786 33.0439C33.9672 33.4891 34.5071 33.7403 35.0538 33.7959C35.2098 33.8118 35.3665 33.8118 35.5225 33.7959C36.069 33.7403 36.6092 33.489 37.0977 33.0439C37.8992 32.3137 38.8295 31.9256 39.7676 31.8799C39.8929 31.8738 40.0183 31.8738 40.1436 31.8799C41.082 31.9255 42.0128 32.3134 42.8145 33.0439C43.3032 33.4891 43.843 33.7404 44.3897 33.7959C44.5457 33.8117 44.7024 33.8118 44.8585 33.7959C45.4049 33.7402 45.9452 33.489 46.4336 33.0439C47.2352 32.3137 48.1654 31.9256 49.1036 31.8799C49.2288 31.8738 49.3543 31.8738 49.4795 31.8799C50.418 31.9256 51.3488 32.3134 52.1504 33.0439C52.6666 33.5145 53.242 33.7695 53.8233 33.8037C53.9528 33.8113 54.0825 33.8083 54.212 33.7939C54.5347 33.7583 54.8556 33.6545 55.1651 33.4814V30.5596H24.668V33.4365ZM36.337 16.5566C29.6763 16.5566 24.0351 21.533 23.2139 28.1309C23.1601 28.5721 23.4924 28.9531 23.9112 28.999L23.9961 29.0039H55.837C55.8499 29.0039 55.8631 29.0035 55.876 29.001H55.8926C56.3238 28.9719 56.6766 28.5804 56.6192 28.1309C55.8237 21.7393 50.5053 16.8686 44.1182 16.5703C43.9123 16.5607 43.7052 16.5566 43.4971 16.5566H36.337ZM30.0284 23.0078C30.3343 22.7045 30.8266 22.7045 31.1299 23.0078C31.4328 23.3111 31.433 23.8052 31.1299 24.1084L29.5733 25.6641C29.2699 25.9674 28.7787 25.9674 28.4727 25.6641C28.1694 25.3607 28.1694 24.8668 28.4727 24.5635L30.0284 23.0078ZM40.0655 22.7939C40.2121 22.8224 40.3523 22.8933 40.4659 23.0068C40.7718 23.3102 40.7718 23.805 40.4659 24.1084L38.9102 25.6641C38.7964 25.7779 38.6557 25.8485 38.5088 25.877C38.4108 25.8959 38.31 25.896 38.212 25.877C38.0653 25.8484 37.9252 25.7777 37.8116 25.6641C37.5057 25.3608 37.5058 24.8668 37.8116 24.5635L39.3672 23.0068C39.481 22.893 39.6217 22.8224 39.7686 22.7939C39.8666 22.775 39.9675 22.7749 40.0655 22.7939ZM49.4004 22.7939C49.5471 22.8224 49.6872 22.8933 49.8008 23.0068C50.1068 23.3102 50.1068 23.805 49.8008 24.1084L48.2452 25.6641C48.1314 25.7778 47.9907 25.8485 47.8438 25.877C47.7458 25.8959 47.6449 25.896 47.5469 25.877C47.4003 25.8485 47.2602 25.7777 47.1465 25.6641C46.8432 25.3608 46.8433 24.8668 47.1465 24.5635L48.7022 23.0068C48.816 22.893 48.9566 22.8224 49.1036 22.7939C49.2016 22.775 49.3025 22.7749 49.4004 22.7939ZM35.4756 19.8955C35.7789 19.5922 36.2729 19.5924 36.5762 19.8955C36.8796 20.1989 36.8796 20.6927 36.5762 20.9961L35.0206 22.5527C34.7173 22.8558 34.2233 22.8558 33.92 22.5527C33.6166 22.2494 33.6166 21.7545 33.92 21.4512L35.4756 19.8955ZM44.8116 19.8955C45.1148 19.5922 45.6088 19.5924 45.9122 19.8955C46.2155 20.1989 46.2155 20.6927 45.9122 20.9961L44.3565 22.5527C44.0532 22.8558 43.5592 22.8558 43.2559 22.5527C42.9526 22.2494 42.9526 21.7545 43.2559 21.4512L44.8116 19.8955Z" fill="white"/>
</svg>
