<svg width="80" height="80" viewBox="0 0 80 80" fill="none" xmlns="http://www.w3.org/2000/svg">
<rect width="80" height="80" rx="14" fill="#14463A"/>
<path d="M28.8408 40.9082C29.2231 40.9082 29.6186 40.946 30.0264 41.0225C30.4467 41.0862 30.8542 41.1948 31.249 41.3477C31.6566 41.5005 32.0456 41.7042 32.415 41.959C32.7845 42.2138 33.1161 42.5261 33.4092 42.8955L31.1152 44.7686C30.8223 44.412 30.4593 44.1383 30.0264 43.9473C29.6059 43.7562 29.1153 43.6602 28.5547 43.6602C27.994 43.6602 27.4715 43.7687 26.9873 43.9854C26.516 44.2019 26.1018 44.5075 25.7451 44.9023C25.4012 45.2845 25.1267 45.7433 24.9229 46.2783C24.7317 46.8135 24.6367 47.3942 24.6367 48.0186C24.6368 48.6554 24.7318 49.2414 24.9229 49.7764C25.1267 50.2988 25.4011 50.7573 25.7451 51.1523C26.0892 51.5346 26.4905 51.8342 26.9492 52.0508C27.4207 52.2674 27.9238 52.376 28.459 52.376C29.0706 52.376 29.6125 52.249 30.084 51.9941C30.5554 51.7393 30.9432 51.3815 31.249 50.9229L33.7344 52.7773C33.1611 53.58 32.4347 54.1724 31.5557 54.5547C30.6765 54.937 29.771 55.1279 28.8408 55.1279C27.7834 55.1279 26.8088 54.9621 25.917 54.6309C25.0251 54.2996 24.2543 53.8284 23.6045 53.2168C22.9547 52.5925 22.4447 51.841 22.0752 50.9619C21.7185 50.0828 21.5401 49.1015 21.54 48.0186C21.54 46.9355 21.7184 45.9534 22.0752 45.0742C22.4447 44.1952 22.9548 43.4504 23.6045 42.8389C24.2543 42.2145 25.0251 41.7366 25.917 41.4053C26.8088 41.074 27.7834 40.9082 28.8408 40.9082ZM47.3086 45.2666C47.9711 45.2666 48.5703 45.381 49.1055 45.6104C49.6534 45.8397 50.1119 46.1713 50.4814 46.6045C50.8637 47.0249 51.1575 47.534 51.3613 48.1328C51.5652 48.7316 51.667 49.4007 51.667 50.1396V51.0381H45.0156C45.1303 51.586 45.3785 52.0261 45.7607 52.3574C46.1429 52.6759 46.6144 52.8349 47.1748 52.835C47.6463 52.835 48.0418 52.7332 48.3604 52.5293C48.6916 52.3127 48.9786 52.0383 49.2207 51.707L51.2275 53.1787C50.7689 53.7648 50.189 54.2176 49.4883 54.5361C48.7875 54.8547 48.0604 55.0137 47.3086 55.0137C46.5953 55.0136 45.9201 54.8992 45.2832 54.6699C44.659 54.4406 44.111 54.1157 43.6396 53.6953C43.1809 53.2621 42.8174 52.7454 42.5498 52.1465C42.2823 51.5477 42.1484 50.8785 42.1484 50.1396C42.1485 49.4007 42.2823 48.7316 42.5498 48.1328C42.8174 47.534 43.181 47.0249 43.6396 46.6045C44.1111 46.1713 44.6588 45.8397 45.2832 45.6104C45.9202 45.3811 46.5952 45.2666 47.3086 45.2666ZM57.252 51.3252H57.29L58.877 45.4961H62.0117L63.7314 51.3252H63.7695L65.5088 45.4961H68.4141L65.1074 54.7852H62.2793L60.3486 48.6113H60.3105L58.5898 54.7852H55.7041L52.3018 45.4961H55.3604L57.252 51.3252ZM40.5684 45.2656C40.734 45.2656 40.8998 45.2724 41.0654 45.2852C41.231 45.2979 41.3843 45.3231 41.5244 45.3613V47.9805C41.3205 47.9168 41.116 47.8722 40.9121 47.8467C40.721 47.8085 40.5173 47.7891 40.3008 47.7891C39.7529 47.7891 39.3195 47.8656 39.001 48.0186C38.6826 48.1714 38.4342 48.3878 38.2559 48.668C38.0903 48.9355 37.9816 49.2604 37.9307 49.6426C37.8797 50.0248 37.8545 50.4456 37.8545 50.9043V54.7842H34.9873V45.4951H37.8545V46.9863H37.8926C38.1984 46.413 38.561 45.9854 38.9814 45.7051C39.4019 45.412 39.9312 45.2656 40.5684 45.2656ZM47.041 47.3301C46.7226 47.3301 46.4422 47.3815 46.2002 47.4834C45.9582 47.5853 45.7477 47.7192 45.5693 47.8848C45.4039 48.0376 45.2698 48.2221 45.168 48.4385C45.0788 48.6424 45.0284 48.8595 45.0156 49.0889H48.7998C48.8125 48.6048 48.6534 48.1907 48.3223 47.8467C47.991 47.5026 47.5634 47.3301 47.041 47.3301ZM42.7852 28.3584C43.473 28.3584 44.0977 28.4787 44.6582 28.7207C45.2188 28.95 45.6968 29.2817 46.0918 29.7148C46.4994 30.1352 46.8117 30.6387 47.0283 31.2246C47.2449 31.8107 47.3535 32.4545 47.3535 33.1553C47.3535 33.805 47.2517 34.4295 47.0479 35.0283C46.8567 35.6144 46.5765 36.137 46.207 36.5957C45.8503 37.0544 45.4101 37.4238 44.8877 37.7041C44.3653 37.9717 43.7729 38.1055 43.1104 38.1055C42.5115 38.1055 41.9511 38.0162 41.4287 37.8379C40.9191 37.6468 40.4983 37.3287 40.167 36.8828H40.1289V42.2344H37.2617V28.5869H39.8994V29.8105H39.9375C40.0522 29.6449 40.1986 29.4791 40.377 29.3135C40.5681 29.1351 40.7852 28.9761 41.0273 28.8359C41.282 28.6959 41.5558 28.5813 41.8486 28.4922C42.1416 28.403 42.454 28.3584 42.7852 28.3584ZM19.873 24C20.2551 24 20.6501 24.0378 21.0576 24.1143C21.4781 24.178 21.8862 24.2865 22.2812 24.4395C22.6887 24.5923 23.077 24.7962 23.4463 25.0508C23.8157 25.3055 24.1474 25.618 24.4404 25.9873L22.1475 27.8613C21.8544 27.5046 21.4908 27.2302 21.0576 27.0391C20.6371 26.8479 20.1466 26.752 19.5859 26.752C19.0253 26.752 18.5028 26.8605 18.0186 27.0771C17.5471 27.2938 17.1331 27.6001 16.7764 27.9951C16.4324 28.3774 16.1579 28.836 15.9541 29.3711C15.763 29.9062 15.668 30.4861 15.668 31.1104C15.668 31.7472 15.7631 32.3332 15.9541 32.8682C16.158 33.3906 16.4323 33.8501 16.7764 34.2451C17.1203 34.6272 17.5219 34.926 17.9805 35.1426C18.4519 35.3592 18.9551 35.4678 19.4902 35.4678C20.1019 35.4678 20.6438 35.3408 21.1152 35.0859C21.5866 34.8311 21.9755 34.4743 22.2812 34.0156L24.7656 35.8691C24.1923 36.6718 23.466 37.2642 22.5869 37.6465C21.7079 38.0287 20.8031 38.2206 19.873 38.2207C18.8155 38.2207 17.8402 38.0549 16.9482 37.7236C16.0563 37.3923 15.2856 36.9202 14.6357 36.3086C13.9859 35.6843 13.476 34.9329 13.1064 34.0537C12.7497 33.1746 12.5713 32.1934 12.5713 31.1104C12.5713 30.0274 12.7497 29.0461 13.1064 28.167C13.476 27.2878 13.9859 26.5423 14.6357 25.9307C15.2856 25.3063 16.0563 24.8284 16.9482 24.4971C17.8402 24.1658 18.8154 24 19.873 24ZM28.8857 33.1367C28.8857 33.4042 28.8916 33.6846 28.9043 33.9775C28.9298 34.2577 28.9871 34.5188 29.0762 34.7607C29.1781 35.0028 29.3255 35.2006 29.5166 35.3535C29.7204 35.5062 30.0068 35.583 30.376 35.583C30.7454 35.583 31.0451 35.519 31.2744 35.3916C31.5038 35.2514 31.6763 35.0731 31.791 34.8564C31.9184 34.6271 32.0008 34.372 32.0391 34.0918C32.0773 33.8116 32.0967 33.5186 32.0967 33.2129V28.5869H34.9639V37.876H32.2109V36.6152H32.1729C32.0709 36.7935 31.9371 36.9721 31.7715 37.1504C31.6186 37.3287 31.4275 37.4878 31.1982 37.6279C30.9689 37.7681 30.7071 37.8825 30.4141 37.9717C30.1211 38.0608 29.8028 38.1055 29.459 38.1055C28.7329 38.1055 28.1403 37.9977 27.6816 37.7812C27.2357 37.5519 26.8847 37.2396 26.6299 36.8447C26.3878 36.4498 26.222 35.9843 26.1328 35.4492C26.0564 34.9141 26.0186 34.3342 26.0186 33.71V28.5869H28.8857V33.1367ZM42.1934 30.8809C41.4671 30.8809 40.8999 31.098 40.4922 31.5312C40.0973 31.9644 39.8995 32.5309 39.8994 33.2314C39.8994 33.9322 40.0972 34.4994 40.4922 34.9326C40.8999 35.3659 41.4671 35.583 42.1934 35.583C42.9195 35.5829 43.4801 35.3658 43.875 34.9326C44.2826 34.4994 44.4863 33.9322 44.4863 33.2314C44.4862 32.531 44.2825 31.9644 43.875 31.5312C43.4801 31.0981 42.9195 30.8809 42.1934 30.8809Z" fill="#FBC789"/>
<path d="M28.9112 25.8201C28.9112 26.6321 28.253 27.2904 27.441 27.2904C26.629 27.2904 25.9707 26.6321 25.9707 25.8201C25.9707 25.0081 26.629 24.3499 27.441 24.3499C28.253 24.3499 28.9112 25.0081 28.9112 25.8201Z" fill="white"/>
<path d="M34.9395 25.8204C34.9395 26.6324 34.2813 27.2906 33.4693 27.2906C32.6573 27.2906 31.999 26.6324 31.999 25.8204C31.999 25.0084 32.6573 24.3501 33.4693 24.3501C34.2813 24.3501 34.9395 25.0084 34.9395 25.8204Z" fill="white"/>
</svg>
