<svg width="119" height="55" viewBox="0 0 119 55" fill="none" xmlns="http://www.w3.org/2000/svg">
<g clip-path="url(#clip0_70_2058)">
<path d="M42.4102 30.6957C42.4102 32.472 43.9387 33.6946 46.2885 33.6946C49.7372 33.6946 51.7335 31.9183 51.7335 27.4556V26.4688C50.3246 26.8251 49.1116 26.9841 48.0128 27.1815C44.1345 27.7736 42.4102 28.7604 42.4102 30.6957Z" fill="#ABDBFF"/>
<path d="M22.9098 19.0459C20.598 19.0459 17.7422 20.3507 17.4268 24.1007H28.1589C28.0392 20.9044 25.771 19.0459 22.9098 19.0459Z" fill="#ABDBFF"/>
<path d="M94.5436 19.0459C92.2318 19.0459 89.376 20.3507 89.0605 24.1007H99.7927C99.673 20.9044 97.4047 19.0459 94.5436 19.0459Z" fill="#ABDBFF"/>
<path d="M112.363 6.23815L7.46718 0.0100785C2.91431 -0.258562 -0.692076 3.83683 0.11297 8.35986L7.36927 49.1493C8.01657 52.7952 11.3347 55.3281 14.99 54.9662L112.629 45.4048C116.241 45.0485 118.999 41.9892 118.999 38.3324V13.3324C118.999 9.57148 116.089 6.45745 112.363 6.23815ZM32.8969 27.5375H17.4269C17.5466 31.3642 20.2881 33.2996 23.1438 33.2996C25.6134 33.2996 27.4519 32.3511 28.2733 30.3006L32.5433 31.1669C31.3303 34.5605 28.2352 37.2085 23.1819 37.2085C16.2901 37.2085 12.6837 32.1153 12.6837 26.1175C12.6837 20.1197 16.7959 15.3774 22.9045 15.3774C29.4863 15.3774 33.2831 20.4322 32.8914 27.5375H32.8969ZM52.5552 36.6932C52.3975 35.7831 52.2397 35.1142 52.1636 33.6559C50.869 36.0243 48.3668 37.2085 45.2717 37.2085C40.6917 37.2085 37.4769 34.6044 37.4769 30.8105C37.4769 26.589 41.1975 24.8895 46.8002 24.1384L49.2698 23.782C51.1899 23.464 51.6577 22.7952 51.6577 21.611C51.6577 19.6756 50.015 18.6888 47.4258 18.6888C44.6843 18.6888 42.9219 19.9498 42.8022 22.5156L38.2602 22.0441C38.8096 17.9761 42.3344 15.2129 47.3496 15.2129C52.3648 15.2129 56.439 17.3072 56.3193 24.0945C56.3193 25.1581 56.2432 27.4881 56.2432 29.4235C56.2432 32.1099 56.4771 34.9114 56.8687 36.6877H52.5606L52.5552 36.6932ZM70.8483 37.2085C65.7188 37.2085 62.3082 34.407 61.563 30.6131L65.9092 29.7031C66.377 32.2689 68.0252 33.6504 71.0006 33.6504C73.5843 33.6504 75.3086 32.6252 75.3086 31.0079C75.3086 29.3906 73.7802 28.6395 71.5499 28.168L68.3787 27.4991C64.7343 26.748 61.9927 25.2074 61.9927 21.3807C61.9927 17.5539 65.9092 15.3829 70.6089 15.3829C74.645 15.3829 78.3276 17.4333 79.3828 21.1833L75.1509 22.0496C74.6831 20.0759 72.9207 18.9684 70.2934 18.9684C68.1775 18.9684 66.377 19.7963 66.377 21.1395C66.377 22.4827 67.3942 23.2338 69.434 23.6669L72.2952 24.259C76.5271 25.1252 79.8561 26.43 79.8561 30.4596C79.8561 34.8017 75.7438 37.2085 70.8483 37.2085ZM104.53 27.5375H89.0597C89.1794 31.3642 91.9209 33.2996 94.7766 33.2996C97.2462 33.2996 99.0847 32.3511 99.9061 30.3006L104.176 31.1669C102.963 34.5605 99.868 37.2085 94.8147 37.2085C87.9229 37.2085 84.3165 32.1153 84.3165 26.1175C84.3165 20.1197 88.4287 15.3774 94.5373 15.3774C101.119 15.3774 104.916 20.4322 104.524 27.5375H104.53ZM112.373 36.6932H108.968V33.2612H112.373V36.6932Z" fill="#ABDBFF"/>
<path d="M22.9093 15.3779C16.8007 15.3779 12.6885 19.8406 12.6885 26.1181C12.6885 32.3955 16.2894 37.2091 23.1867 37.2091C28.24 37.2091 31.3351 34.561 32.5481 31.1674L28.2781 30.3012C27.4567 32.3516 25.6127 33.3001 23.1486 33.3001C20.2875 33.3001 17.546 31.3648 17.4317 27.538H32.9017C33.2933 20.4328 29.4965 15.3779 22.9147 15.3779H22.9093ZM17.4263 24.1005C17.7418 20.3505 20.5975 19.0457 22.9093 19.0457C25.7705 19.0457 28.0387 20.8988 28.1584 24.1005H17.4263Z" fill="white"/>
<path d="M56.3141 24.1008C56.4338 17.3135 52.5935 15.2192 47.3444 15.2192C42.0953 15.2192 38.8044 17.9824 38.255 22.0504L42.797 22.5219C42.9166 19.9561 44.679 18.6951 47.4205 18.6951C50.0043 18.6951 51.6525 19.682 51.6525 21.6173C51.6525 22.8015 51.1847 23.4703 49.2645 23.7883L46.795 24.1447C41.1923 24.8958 37.4717 26.5899 37.4717 30.8168C37.4717 34.6052 40.681 37.2149 45.2665 37.2149C48.3616 37.2149 50.8692 36.0306 52.1583 33.6622C52.2345 35.126 52.3922 35.7949 52.55 36.6995H56.8581C56.4664 34.9232 56.2325 32.1217 56.2325 29.4352C56.2325 27.4999 56.3087 25.1699 56.3087 24.1063L56.3141 24.1008ZM51.7341 27.4561C51.7341 31.9188 49.7378 33.6951 46.2891 33.6951C43.9392 33.6951 42.4107 32.4725 42.4107 30.6962C42.4107 28.7609 44.1351 27.7741 48.0134 27.182C49.1122 26.9846 50.3252 26.8256 51.7341 26.4692V27.4561Z" fill="white"/>
<path d="M72.2956 24.2601L69.4344 23.668C67.4001 23.2349 66.3774 22.4454 66.3774 21.1406C66.3774 19.8358 68.1779 18.9696 70.2939 18.9696C72.9157 18.9696 74.6781 20.077 75.1514 22.0507L79.3833 21.1845C78.328 17.4345 74.6455 15.384 70.6094 15.384C65.9096 15.384 61.9932 17.7141 61.9932 21.3818C61.9932 25.0496 64.7347 26.7492 68.3792 27.5003L71.5504 28.1691C73.7806 28.6406 75.3091 29.3917 75.3091 31.009C75.3091 32.6264 73.5848 33.6516 71.001 33.6516C68.0256 33.6516 66.3774 32.27 65.9096 29.7042L61.5635 30.6143C62.3087 34.4027 65.7138 37.2097 70.8487 37.2097C75.9836 37.2097 79.8565 34.8029 79.8565 30.4608C79.8565 26.4367 76.5275 25.1318 72.2956 24.2601Z" fill="white"/>
<path d="M94.5421 15.3779C88.4335 15.3779 84.3213 19.8407 84.3213 26.1181C84.3213 32.3955 87.9222 37.2091 94.8195 37.2091C99.8728 37.2091 102.968 34.561 104.181 31.1674L99.9109 30.3012C99.0895 32.3516 97.2455 33.3001 94.7814 33.3001C91.9203 33.3001 89.1788 31.3648 89.0645 27.538H104.534C104.926 20.4328 101.129 15.3779 94.5476 15.3779H94.5421ZM89.0537 24.1005C89.3691 20.3505 92.2249 19.0457 94.5367 19.0457C97.3979 19.0457 99.6661 20.8988 99.7858 24.1005H89.0537Z" fill="white"/>
<path d="M112.374 33.2627H108.968V36.6947H112.374V33.2627Z" fill="white"/>
</g>
<defs>
<clipPath id="clip0_70_2058">
<rect width="119" height="55" fill="white"/>
</clipPath>
</defs>
</svg>
