<svg width="80" height="80" viewBox="0 0 80 80" fill="none" xmlns="http://www.w3.org/2000/svg">
<rect width="80" height="80" rx="14" fill="#35A853"/>
<path d="M75 57.5L79.3449 10C79.5778 10.4712 79.8787 12.5033 80 13.4604V66C80 73.732 73.732 80 66 80H15V79.2758L58.5 76C72.1114 74.233 74.0538 64.3473 75 57.5Z" fill="#319C4D"/>
<path d="M62.2698 65C61.1836 65 60.576 64.4796 60.576 63.3566V61.2292H59.9961V60.1153H60.576V59.1201H62.2238V60.1153H63.172V61.2292H62.2238V63.2013C62.2238 63.5483 62.3987 63.7035 62.7117 63.7035C62.8958 63.7035 63.0339 63.6761 63.1812 63.6213V64.863C62.9695 64.9178 62.6565 65 62.2698 65Z" fill="white"/>
<path d="M56.3276 64.89V60.1149H57.9754V61.0644C58.2792 60.3523 58.7855 60.0418 59.5311 60.051V61.5757C58.5277 61.5483 57.9754 61.8588 57.9754 62.6257V64.89H56.3276Z" fill="white"/>
<path d="M52.3589 64.9998C51.4935 64.9998 50.7295 64.5798 50.7295 63.5664C50.7295 62.4433 51.6869 62.0051 53.2886 62.0051H53.7489V61.8955C53.7489 61.439 53.6384 61.1377 53.1137 61.1377C52.6626 61.1377 52.4969 61.4025 52.4601 61.7038H50.9136C50.9872 60.5534 51.8986 59.9873 53.215 59.9873C54.5406 59.9873 55.3875 60.526 55.3875 61.7951V64.8903H53.7857V64.3333C53.5556 64.6803 53.1321 64.9998 52.3589 64.9998ZM52.9296 63.8951C53.3991 63.8951 53.7489 63.6303 53.7489 63.2194V62.9272H53.3162C52.6534 62.9272 52.3589 63.0551 52.3589 63.4477C52.3589 63.7216 52.543 63.8951 52.9296 63.8951Z" fill="white"/>
<path d="M47.2164 64.9998C44.915 64.9998 43.7827 63.6668 43.7827 61.6673V61.5943C43.7827 59.5856 45.2188 58.2617 47.1427 58.2617C48.8549 58.2617 50.0424 59.0469 50.1989 60.7725H48.2566C48.1829 60.106 47.8147 59.7408 47.1519 59.7408C46.305 59.7408 45.7711 60.3982 45.7711 61.5851V61.6582C45.7711 62.836 46.2774 63.5025 47.1795 63.5025C47.8423 63.5025 48.3118 63.1555 48.4039 62.4342H50.2818C50.1529 64.1233 48.9194 64.9998 47.2164 64.9998Z" fill="white"/>
<path d="M36.4155 64.8907V58.0156H38.0633V60.8825C38.3211 60.3895 38.8458 59.9878 39.6467 59.9878C40.5764 59.9878 41.2208 60.563 41.2208 61.7864V64.8907H39.573V62.1151C39.573 61.5764 39.3613 61.3116 38.8826 61.3116C38.3947 61.3116 38.0633 61.6038 38.0633 62.2155V64.8907H36.4155Z" fill="white"/>
<path d="M33.5648 64.9998C32.1932 64.9998 31.3923 64.4337 31.3555 63.3746H32.8744C32.9296 63.7216 33.0861 63.9133 33.5556 63.9133C33.9606 63.9133 34.1447 63.7581 34.1447 63.5207C34.1447 63.2925 33.9146 63.1829 33.2518 63.0916C31.963 62.9272 31.4199 62.5529 31.4199 61.5577C31.4199 60.4986 32.3681 59.9873 33.4819 59.9873C34.6694 59.9873 35.4979 60.389 35.6084 61.5303H34.1171C34.0527 61.2108 33.8778 61.0555 33.5003 61.0555C33.1413 61.0555 32.9572 61.2108 32.9572 61.4299C32.9572 61.6581 33.1782 61.7494 33.7673 61.8225C35.1021 61.9868 35.7465 62.3338 35.7465 63.3564C35.7465 64.4885 34.8996 64.9998 33.5648 64.9998Z" fill="white"/>
<path d="M28.4879 64.9998C26.9782 64.9998 25.8735 64.1233 25.8735 62.562V62.489C25.8735 60.9551 27.0242 59.9873 28.4787 59.9873C29.7951 59.9873 30.9273 60.736 30.9273 62.4525V62.8816H27.5397C27.5858 63.5116 27.954 63.8768 28.5431 63.8768C29.0862 63.8768 29.3164 63.6303 29.3808 63.3107H30.9273C30.7801 64.3881 29.9424 64.9998 28.4879 64.9998ZM27.5581 61.9594H29.3256C29.298 61.3842 29.0126 61.0647 28.4787 61.0647C27.9816 61.0647 27.641 61.3842 27.5581 61.9594Z" fill="white"/>
<path d="M22.2388 64.89V60.1149H23.8866V61.0644C24.1903 60.3523 24.6966 60.0418 25.4423 60.051V61.5757C24.4389 61.5483 23.8866 61.8588 23.8866 62.6257V64.89H22.2388Z" fill="white"/>
<path d="M17.1899 64.8904V58.3623H21.6362V59.814H19.0863V61.2018H21.1207V62.5805H19.0863V64.8904H17.1899Z" fill="white"/>
<path d="M50.4085 46.5137C49.8591 46.5137 49.3221 46.6749 48.8653 46.9768C48.4086 47.2788 48.0525 47.708 47.8423 48.2102C47.6321 48.7124 47.5771 49.265 47.6842 49.7981C47.7914 50.3312 48.056 50.8209 48.4444 51.2053C48.8329 51.5896 49.3278 51.8514 49.8666 51.9574C50.4054 52.0635 50.9639 52.009 51.4715 51.801C51.979 51.593 52.4128 51.2408 52.7181 50.7888C53.0233 50.3369 53.1862 49.8055 53.1862 49.2619C53.1862 48.5331 52.8935 47.834 52.3726 47.3186C51.8517 46.8032 51.1452 46.5137 50.4085 46.5137Z" fill="#FFCB44"/>
<path d="M41.1497 46.5137C40.6004 46.5137 40.0633 46.6749 39.6065 46.9768C39.1498 47.2788 38.7937 47.708 38.5835 48.2102C38.3733 48.7124 38.3183 49.265 38.4254 49.7981C38.5326 50.3312 38.7972 50.8209 39.1856 51.2053C39.5741 51.5896 40.069 51.8514 40.6078 51.9574C41.1466 52.0635 41.7051 52.009 42.2127 51.801C42.7202 51.593 43.1541 51.2408 43.4593 50.7888C43.7645 50.3369 43.9274 49.8055 43.9274 49.2619C43.9274 48.5331 43.6347 47.834 43.1138 47.3186C42.5929 46.8032 41.8864 46.5137 41.1497 46.5137Z" fill="#FFCB44"/>
<path d="M20.2646 20.4012H16.613C16.1609 20.4012 15.8647 19.933 16.0623 19.5307L18.1202 15.341C18.2227 15.1324 18.4365 15 18.6709 15H23.4029C23.9611 15 24.475 15.3006 24.744 15.7846L24.8691 16.0096L37.0536 40.365C37.3094 40.8762 37.8338 41.2019 38.4103 41.2075L58.286 41.4003L55.4705 44.2295C55.1828 44.5186 54.7899 44.6814 54.3799 44.6814H34.8304C34.2584 44.6814 33.7342 44.3658 33.4712 43.8632L21.6238 21.2194C21.3609 20.7168 20.8366 20.4012 20.2646 20.4012Z" fill="#FFCB44"/>
<path d="M31.6123 18.8976L33.3076 22.1283C33.4831 22.4627 33.8323 22.6726 34.2132 22.6726H59.8166L64.0001 17.4229H32.5178C31.7525 17.4229 31.2596 18.2256 31.6123 18.8976Z" fill="white"/>
<path d="M34.4716 26.7088L36.3476 29.9394C36.5296 30.2528 36.867 30.4461 37.2323 30.4461H55.5423L58.2351 25.1963H35.3564C34.5718 25.1963 34.0808 26.0358 34.4716 26.7088Z" fill="white"/>
<path d="M37.5553 34.491L39.4705 37.7217C39.6537 38.0307 39.9886 38.2205 40.3506 38.2205H51.7044L55.2247 32.9707H38.4355C37.6469 32.9707 37.1564 33.818 37.5553 34.491Z" fill="white"/>
</svg>
