<svg width="80" height="80" viewBox="0 0 80 80" fill="none" xmlns="http://www.w3.org/2000/svg">
<rect width="80" height="80" rx="14" fill="#F6EDE3"/>
<g clip-path="url(#clip0_194_20761)">
<path fill-rule="evenodd" clip-rule="evenodd" d="M31.0146 35.8157C32.5878 35.7987 34.0618 36.0927 35.3212 37.0797C36.4087 37.9315 36.9714 39.0736 37.1165 40.4521C37.3911 43.0555 36.1629 45.0331 34.4653 46.7914C33.5836 47.7045 32.5975 48.5171 31.658 49.3741C31.4958 49.5218 31.3278 49.6629 31.0154 49.9363H37.4252V53.2222H25.377C25.3881 52.4658 25.377 51.71 25.3836 50.9136L31.6387 44.7613C32.2354 44.1459 32.6715 43.3037 32.9706 42.4874C33.6184 40.7255 32.687 38.8667 30.0699 39.0418C28.8262 39.1246 27.7534 39.6646 26.6711 40.407C26.3061 39.4939 25.9374 38.6296 25.6361 37.7416C25.6361 37.7416 27.0701 35.9479 31.0131 35.8149L31.0146 35.8157Z" fill="black"/>
<path d="M42.5459 53.2703V27.4286H50.1573L55.5588 46.8209L60.9166 27.4286H68.5717V53.2703H63.3405V38.6311L59.4715 53.2703H51.6047L47.8193 38.6739V53.2703H42.5459Z" fill="black"/>
<path d="M23.2929 27.4286H27.0242L20.4219 53.2703H16.2441L23.2929 27.4286Z" fill="black"/>
<path d="M13.4698 44.5182H17.2019V27.4286H13.917L11.4287 28.6697V31.7887L13.438 30.9613L13.4698 44.5182Z" fill="black"/>
</g>
<defs>
<clipPath id="clip0_194_20761">
<rect width="57.1429" height="25.8417" fill="white" transform="translate(11.4287 27.4286)"/>
</clipPath>
</defs>
</svg>
