<svg width="80" height="81" viewBox="0 0 80 81" fill="none" xmlns="http://www.w3.org/2000/svg">
<rect x="0.00390625" y="0.40918" width="79.9926" height="79.9926" rx="14" fill="#17A99D"/>
<path fill-rule="evenodd" clip-rule="evenodd" d="M49.8806 21.4076C56.436 21.4076 61.7494 26.7738 61.7494 33.3956C61.7494 35.518 61.2994 37.8253 60.5153 39.9717C60.4992 40.0173 60.4534 40.0461 60.3995 40.0461H47.5877C47.1782 40.0461 46.8333 40.2886 46.7201 40.6223H46.7175L44.3841 47.5751C44.3491 47.6784 44.1874 47.6784 44.1524 47.5751L38.5022 30.737C38.2463 29.9711 37.0177 29.9687 36.7617 30.7466L33.6658 39.9712C33.6496 40.0168 33.6038 40.048 33.5499 40.048H21.5032C21.4493 40.048 21.4035 40.0192 21.3873 39.9736C20.6006 37.7719 20.1559 35.5558 20.1559 33.4C20.1559 26.7785 25.4693 21.412 32.0248 21.412C35.5328 21.412 38.6826 22.9486 40.8572 25.3928C40.9057 25.448 40.9973 25.448 41.0458 25.3928C43.2202 22.9438 46.3722 21.4076 49.8806 21.4076ZM65.212 43.268C65.2605 43.268 65.3036 43.292 65.3225 43.3328C65.6997 44.1011 66.5592 44.6365 67.5588 44.6365C68.906 44.6365 70 43.6618 70 42.4613C70 41.2607 68.9061 40.286 67.5588 40.286C66.5592 40.286 65.697 40.8238 65.3225 41.5897C65.3036 41.6305 65.2605 41.6545 65.212 41.6545H48.3555C48.3016 41.6545 48.2558 41.6857 48.2396 41.7313L45.1411 50.9651C44.8851 51.731 43.6565 51.7334 43.4005 50.9555L37.753 34.1248C37.718 34.0215 37.5564 34.0215 37.5213 34.1248L35.188 41.0776C35.064 41.4473 34.6707 41.6778 34.2584 41.6538H34.2503L11.9053 41.6562C11.4069 41.6562 11 42.0164 11 42.4629C11 42.9071 11.4042 43.2697 11.9053 43.2697H22.7505C22.8017 43.2697 22.8421 43.2961 22.861 43.3369C23.8876 45.5433 23.5049 44.5494 23.769 44.9983C27.4064 51.181 33.256 56.7411 38.8252 59.8364C40.1886 60.5927 41.7109 60.5927 43.0743 59.8364C49.611 56.2037 55.8405 49.6419 59.0307 43.332C59.0496 43.2936 59.0927 43.2696 59.1412 43.2696L65.212 43.268Z" fill="white"/>
</svg>
