<svg width="80" height="80" viewBox="0 0 80 80" fill="none" xmlns="http://www.w3.org/2000/svg">
<rect width="80" height="80" rx="14" fill="#1C1C1C"/>
<path d="M47.2925 20.8003C57.9817 20.8004 66.647 29.7547 66.647 40.8003C66.6469 51.8458 57.9817 60.8002 47.2925 60.8003C36.6032 60.8003 27.938 51.8459 27.938 40.8003C27.938 29.7547 36.6032 20.8003 47.2925 20.8003ZM47.2925 27.2515C40.1664 27.2516 34.3892 33.3169 34.3892 40.7993C34.3892 48.2818 40.1663 54.348 47.2925 54.3481C54.4187 54.3481 60.1958 48.2818 60.1958 40.7993C60.1957 33.3168 54.4187 27.2515 47.2925 27.2515Z" fill="white"/>
<rect x="3.19971" y="38.4575" width="41.2033" height="5.88619" rx="2" fill="url(#paint0_linear_1197_14179)"/>
<defs>
<linearGradient id="paint0_linear_1197_14179" x1="27.723" y1="40.1977" x2="10.8824" y2="40.1977" gradientUnits="userSpaceOnUse">
<stop stop-color="#DC6910"/>
<stop offset="1" stop-color="#DC6910" stop-opacity="0.01"/>
</linearGradient>
</defs>
</svg>
