<svg width="80" height="80" viewBox="0 0 80 80" fill="none" xmlns="http://www.w3.org/2000/svg">
<rect width="80" height="80" rx="12.9502" fill="#0C3553"/>
<path d="M64.6826 56.5002H59.6797L40.1387 37.0265L20.8008 56.4328H16L28.3057 43.8556V37.9738H31.7549V40.4748L40.1387 32.0236L64.6826 56.5002ZM39.7998 51.9728H37.3652V49.5392H39.7998V51.9728ZM43.1797 51.9728H40.7451V49.5392H43.1797V51.9728ZM18.5693 50.0744C15.919 30.4383 31.7534 23.366 40.4766 24.0441C57.7176 24.5182 64.2767 40.1377 61.9785 50.3468L58.7334 47.0324C58.9355 40.6788 54.7429 28.9814 40.6797 27.6291C26.0742 27.8996 21.3869 41.0147 21.6123 47.0324L18.5693 50.0744ZM39.7998 48.589H37.3652V46.1545H39.7998V48.589ZM43.1797 48.589H40.7451V46.1545H43.1797V48.589Z" fill="white"/>
</svg>
