<svg width="171" height="55" viewBox="0 0 171 55" fill="none" xmlns="http://www.w3.org/2000/svg">
<path d="M53.7873 36.5224C52.436 36.5224 51.141 36.3432 49.9023 35.9847C48.6636 35.6099 47.6662 35.1292 46.9102 34.5426L48.2373 31.5606C48.9612 32.0821 49.8138 32.5139 50.7951 32.8561C51.7925 33.182 52.798 33.3449 53.8114 33.3449C54.5836 33.3449 55.203 33.2716 55.6695 33.1249C56.1521 32.962 56.506 32.742 56.7312 32.465C56.9564 32.188 57.0691 31.8702 57.0691 31.5118C57.0691 31.0555 56.8921 30.697 56.5382 30.4363C56.1843 30.1593 55.7177 29.9393 55.1386 29.7763C54.5595 29.5971 53.916 29.4342 53.2082 29.2875C52.5165 29.1245 51.8167 28.929 51.1088 28.7009C50.4171 28.4728 49.7817 28.1794 49.2025 27.821C48.6234 27.4625 48.1488 26.9899 47.7789 26.4033C47.4249 25.8167 47.248 25.0671 47.248 24.1546C47.248 23.1769 47.5054 22.2888 48.0202 21.4904C48.551 20.6756 49.3393 20.032 50.3849 19.5594C51.4467 19.0706 52.7738 18.8262 54.3664 18.8262C55.4282 18.8262 56.4738 18.9565 57.5034 19.2172C58.533 19.4617 59.4419 19.8365 60.2301 20.3416L59.0236 23.348C58.2354 22.8917 57.4471 22.5577 56.6588 22.3459C55.8706 22.1177 55.0984 22.0037 54.3423 22.0037C53.5862 22.0037 52.9669 22.0933 52.4843 22.2725C52.0017 22.4518 51.6558 22.6881 51.4467 22.9814C51.2375 23.2584 51.133 23.5843 51.133 23.9591C51.133 24.399 51.3099 24.7575 51.6638 25.0345C52.0178 25.2952 52.4843 25.5071 53.0634 25.67C53.6425 25.833 54.278 25.9959 54.9697 26.1589C55.6775 26.3218 56.3773 26.5092 57.0691 26.7211C57.7769 26.9329 58.4204 27.218 58.9995 27.5765C59.5786 27.935 60.0451 28.4076 60.399 28.9942C60.769 29.5808 60.954 30.3222 60.954 31.2184C60.954 32.1798 60.6886 33.0598 60.1577 33.8582C59.6269 34.6567 58.8306 35.3003 57.7688 35.7892C56.7232 36.278 55.396 36.5224 53.7873 36.5224Z" fill="white"/>
<path d="M69.6336 36.4247C68.2341 36.4247 66.9873 36.1395 65.8934 35.5692C64.7995 34.9826 63.9389 34.176 63.3115 33.1494C62.7002 32.1228 62.3945 30.9577 62.3945 29.6541C62.3945 28.3342 62.7002 27.1692 63.3115 26.1589C63.9389 25.1323 64.7995 24.3338 65.8934 23.7635C66.9873 23.1769 68.2341 22.8836 69.6336 22.8836C71.001 22.8836 72.1915 23.1769 73.2049 23.7635C74.2184 24.3338 74.9664 25.1567 75.4491 26.2322L72.5293 27.821C72.1915 27.2018 71.7652 26.7455 71.2504 26.4522C70.7517 26.1589 70.2047 26.0122 69.6095 26.0122C68.966 26.0122 68.3869 26.1589 67.8721 26.4522C67.3573 26.7455 66.9471 27.161 66.6415 27.6987C66.3519 28.2365 66.2071 28.8883 66.2071 29.6541C66.2071 30.42 66.3519 31.0718 66.6415 31.6095C66.9471 32.1473 67.3573 32.5628 67.8721 32.8561C68.3869 33.1494 68.966 33.296 69.6095 33.296C70.2047 33.296 70.7517 33.1575 71.2504 32.8805C71.7652 32.5872 72.1915 32.1228 72.5293 31.4873L75.4491 33.1005C74.9664 34.1597 74.2184 34.9826 73.2049 35.5692C72.1915 36.1395 71.001 36.4247 69.6336 36.4247Z" fill="white"/>
<path d="M77.6165 36.2291V23.0791H81.2119V26.7944L80.7051 25.7189C81.0912 24.7901 81.7106 24.0894 82.5632 23.6169C83.4158 23.128 84.4534 22.8836 85.676 22.8836V26.4033C85.5151 26.387 85.3704 26.3789 85.2417 26.3789C85.113 26.3626 84.9762 26.3544 84.8314 26.3544C83.8019 26.3544 82.9654 26.6559 82.3219 27.2588C81.6945 27.8454 81.3808 28.7661 81.3808 30.0208V36.2291H77.6165Z" fill="white"/>
<path d="M94.2393 36.4247C92.7593 36.4247 91.4562 36.1314 90.3302 35.5447C89.2202 34.9581 88.3595 34.1597 87.7482 33.1494C87.1369 32.1228 86.8312 30.9577 86.8312 29.6541C86.8312 28.3342 87.1289 27.1692 87.7241 26.1589C88.3354 25.1323 89.1639 24.3338 90.2095 23.7635C91.2552 23.1769 92.4375 22.8836 93.7567 22.8836C95.0275 22.8836 96.1697 23.1606 97.1832 23.7146C98.2127 24.2524 99.0251 25.0345 99.6204 26.0611C100.216 27.0714 100.513 28.2854 100.513 29.703C100.513 29.8497 100.505 30.0208 100.489 30.2163C100.473 30.3956 100.457 30.5666 100.441 30.7296H89.8958V28.5053H98.4621L97.0143 29.1653C97.0143 28.4809 96.8775 27.8861 96.6041 27.381C96.3306 26.8759 95.9525 26.4848 95.4699 26.2078C94.9873 25.9145 94.4243 25.7678 93.7808 25.7678C93.1373 25.7678 92.5662 25.9145 92.0675 26.2078C91.5849 26.4848 91.2069 26.884 90.9334 27.4054C90.6599 27.9106 90.5232 28.5135 90.5232 29.2142V29.8008C90.5232 30.5178 90.676 31.1533 90.9817 31.7073C91.3034 32.245 91.7458 32.6605 92.3088 32.9539C92.888 33.2309 93.5636 33.3694 94.3358 33.3694C95.0275 33.3694 95.6308 33.2635 96.1456 33.0516C96.6764 32.8398 97.159 32.522 97.5934 32.0984L99.5962 34.2982C99.001 34.9826 98.253 35.5122 97.3521 35.8869C96.4512 36.2454 95.4136 36.4247 94.2393 36.4247Z" fill="white"/>
<path d="M109.462 36.4247C107.982 36.4247 106.679 36.1314 105.553 35.5447C104.443 34.9581 103.582 34.1597 102.971 33.1494C102.36 32.1228 102.054 30.9577 102.054 29.6541C102.054 28.3342 102.352 27.1692 102.947 26.1589C103.558 25.1323 104.387 24.3338 105.432 23.7635C106.478 23.1769 107.66 22.8836 108.98 22.8836C110.25 22.8836 111.393 23.1606 112.406 23.7146C113.436 24.2524 114.248 25.0345 114.843 26.0611C115.438 27.0714 115.736 28.2854 115.736 29.703C115.736 29.8497 115.728 30.0208 115.712 30.2163C115.696 30.3956 115.68 30.5666 115.664 30.7296H105.119V28.5053H113.685L112.237 29.1653C112.237 28.4809 112.1 27.8861 111.827 27.381C111.553 26.8759 111.175 26.4848 110.693 26.2078C110.21 25.9145 109.647 25.7678 109.004 25.7678C108.36 25.7678 107.789 25.9145 107.29 26.2078C106.808 26.4848 106.43 26.884 106.156 27.4054C105.883 27.9106 105.746 28.5135 105.746 29.2142V29.8008C105.746 30.5178 105.899 31.1533 106.205 31.7073C106.526 32.245 106.969 32.6605 107.532 32.9539C108.111 33.2309 108.787 33.3694 109.559 33.3694C110.25 33.3694 110.854 33.2635 111.368 33.0516C111.899 32.8398 112.382 32.522 112.816 32.0984L114.819 34.2982C114.224 34.9826 113.476 35.5122 112.575 35.8869C111.674 36.2454 110.637 36.4247 109.462 36.4247Z" fill="white"/>
<path d="M126.133 22.8836C127.162 22.8836 128.079 23.0954 128.884 23.5191C129.704 23.9265 130.348 24.562 130.814 25.4256C131.281 26.2729 131.514 27.3647 131.514 28.7009V36.2291H127.75V29.2875C127.75 28.2283 127.516 27.4462 127.05 26.941C126.599 26.4359 125.956 26.1833 125.119 26.1833C124.524 26.1833 123.985 26.3137 123.503 26.5744C123.036 26.8188 122.666 27.2017 122.393 27.7232C122.135 28.2446 122.007 28.9127 122.007 29.7275V36.2291H118.242V23.0791H121.838V26.7211L121.162 25.6211C121.629 24.7412 122.296 24.065 123.165 23.5924C124.034 23.1199 125.023 22.8836 126.133 22.8836Z" fill="white"/>
<path d="M135.192 36.2291V19.1195H138.425L145.616 31.194H143.903L150.973 19.1195H154.182L154.23 36.2291H150.563L150.538 24.8145H151.214L145.568 34.4204H143.806L138.039 24.8145H138.859V36.2291H135.192Z" fill="white"/>
<path d="M164.415 36.4247C162.935 36.4247 161.632 36.1314 160.506 35.5447C159.396 34.9581 158.536 34.1597 157.924 33.1494C157.313 32.1228 157.007 30.9577 157.007 29.6541C157.007 28.3342 157.305 27.1692 157.9 26.1589C158.511 25.1323 159.34 24.3338 160.386 23.7635C161.431 23.1769 162.614 22.8836 163.933 22.8836C165.204 22.8836 166.346 23.1606 167.359 23.7146C168.389 24.2524 169.201 25.0345 169.796 26.0611C170.392 27.0714 170.689 28.2854 170.689 29.703C170.689 29.8497 170.681 30.0208 170.665 30.2163C170.649 30.3956 170.633 30.5666 170.617 30.7296H160.072V28.5053H168.638L167.19 29.1653C167.19 28.4809 167.054 27.8861 166.78 27.381C166.507 26.8759 166.129 26.4848 165.646 26.2078C165.163 25.9145 164.6 25.7678 163.957 25.7678C163.313 25.7678 162.742 25.9145 162.244 26.2078C161.761 26.4848 161.383 26.884 161.109 27.4054C160.836 27.9106 160.699 28.5135 160.699 29.2142V29.8008C160.699 30.5178 160.852 31.1533 161.158 31.7073C161.479 32.245 161.922 32.6605 162.485 32.9539C163.064 33.2309 163.74 33.3694 164.512 33.3694C165.204 33.3694 165.807 33.2635 166.322 33.0516C166.853 32.8398 167.335 32.522 167.769 32.0984L169.772 34.2982C169.177 34.9826 168.429 35.5122 167.528 35.8869C166.627 36.2454 165.59 36.4247 164.415 36.4247Z" fill="white"/>
<path fill-rule="evenodd" clip-rule="evenodd" d="M33.6204 22.6535L33.6278 22.6198C29.3036 19.823 24.5256 20.1792 22.6866 20.7316L23.7481 23.3928C23.7813 23.4762 23.7921 23.5671 23.7794 23.6561C23.7667 23.7452 23.731 23.8292 23.6758 23.8997C23.6206 23.9702 23.5479 24.0246 23.4652 24.0575C23.3825 24.0903 23.2926 24.1003 23.2049 24.0865L12.7381 22.4358C12.6508 22.422 12.5687 22.3851 12.5 22.329C12.4313 22.2728 12.3784 22.1993 12.3466 22.1158C12.3149 22.0323 12.3054 21.9419 12.3191 21.8535C12.3328 21.7652 12.3693 21.682 12.4248 21.6125L18.9674 13.426C19.0224 13.357 19.0943 13.3038 19.1759 13.2715C19.2575 13.2393 19.3459 13.2292 19.4326 13.2423C19.5192 13.2553 19.6009 13.2911 19.6697 13.346C19.7385 13.4009 19.7919 13.473 19.8247 13.5553L21.0865 16.7187C27.4719 15.3354 32.2748 17.0996 33.9131 18.1674C33.9378 18.4489 33.9553 18.7186 33.9656 18.9765C33.8891 16.4253 33.1654 13.937 31.8643 11.7512C30.5631 9.56549 28.7284 7.75584 26.5366 6.49656C24.3449 5.23727 21.87 4.57075 19.3502 4.56118C16.8304 4.55161 14.3507 5.19931 12.1497 6.44191C9.94865 7.68451 8.10053 9.48016 6.78325 11.656C5.46597 13.8318 4.72388 16.3145 4.62845 18.865C4.53302 21.4156 5.08746 23.948 6.23838 26.2186C7.3893 28.4892 9.09793 30.4214 11.1998 31.8292C11.2195 31.8356 11.2387 31.8439 11.257 31.8537C15.2629 34.5144 20.112 34.2783 22.2421 33.8046C22.7402 32.7167 23.5914 31.8347 24.6537 31.3055C25.7161 30.7764 26.9254 30.6321 28.0801 30.8967C29.2348 31.1614 30.265 31.8189 30.999 32.7598C31.733 33.7007 32.1264 34.868 32.1136 36.0671C32.1009 37.2662 31.6827 38.4246 30.9288 39.3492C30.175 40.2738 29.131 40.9087 27.9709 41.1481C26.8109 41.3874 25.6049 41.2167 24.5541 40.6645C23.5032 40.1123 22.671 39.2118 22.1962 38.1133C16.5481 38.8655 12.2964 37.1902 10.8032 36.1902L10.7955 36.1175C10.9203 38.7021 11.7 41.2107 13.0596 43.4015C14.4191 45.5923 16.3127 47.3916 18.558 48.6261C20.8032 49.8606 23.3244 50.4886 25.8788 50.4497C28.4332 50.4109 30.9347 49.7064 33.1423 48.4042C35.35 47.1019 37.1893 45.2458 38.4833 43.0146C39.7773 40.7834 40.4823 38.2523 40.5304 35.665C40.5784 33.0778 39.968 30.5216 38.7578 28.2426C37.5476 25.9637 35.7785 24.0388 33.6208 22.6534L33.6204 22.6535ZM28.0288 38.4738C28.5172 38.2739 28.9362 37.9318 29.2326 37.4908C29.5291 37.0497 29.6898 36.5295 29.6944 35.9959C29.699 35.4624 29.5473 34.9394 29.2585 34.4932C28.9696 34.0469 28.5566 33.6975 28.0717 33.489C27.5868 33.2805 27.0518 33.2223 26.5343 33.3219C26.0167 33.4214 25.54 33.6741 25.1642 34.0481C24.7885 34.4221 24.5307 34.9006 24.4234 35.423C24.3162 35.9454 24.3642 36.4883 24.5616 36.983C24.6926 37.3115 24.8862 37.6107 25.1314 37.8634C25.3765 38.1161 25.6684 38.3174 25.9904 38.4558C26.3123 38.5942 26.6581 38.6671 27.0078 38.6702C27.3576 38.6732 27.7045 38.6065 28.0288 38.4738Z" fill="url(#paint0_linear_70_1939)"/>
<defs>
<linearGradient id="paint0_linear_70_1939" x1="27.5886" y1="-0.000585606" x2="-3.59958" y2="38.3466" gradientUnits="userSpaceOnUse">
<stop stop-color="white"/>
<stop offset="1" stop-color="white"/>
</linearGradient>
</defs>
</svg>
