<svg width="80" height="80" viewBox="0 0 80 80" fill="none" xmlns="http://www.w3.org/2000/svg">
<rect width="80" height="80" rx="14" fill="white"/>
<path d="M49.572 54.0219C48.5569 54.3197 48.3542 54.9699 48.3542 57.9477V63.3481L40.4089 55.0776V57.7583C40.4089 61.805 40.5574 62.4004 41.7214 62.8335V62.9692C41.1395 62.9286 40.7876 62.9145 40.3005 62.9145C39.8268 62.9145 39.4746 62.9286 38.8249 62.9692V62.8335C39.3121 62.6575 39.5426 62.4543 39.7185 62.0483C40.0026 61.3582 40.0427 60.8299 40.0427 57.7583V56.0522C40.0427 54.7804 40.0158 54.6043 39.7859 54.3608C39.637 54.1984 39.447 54.1032 39.0544 54.0219V53.8862C39.7854 53.9268 40.1651 53.9409 40.5847 53.9409C41.0177 53.9409 41.3289 53.9268 41.7078 53.8862L47.988 60.4243V57.9477C47.988 55.0649 47.7448 54.3333 46.6892 54.0219V53.8862C47.4062 53.9268 47.7987 53.9409 48.2722 53.9409C48.746 53.9409 49.1118 53.9268 49.572 53.8862V54.0219ZM24.7722 53.6294C26.1663 53.6294 27.5467 53.9142 28.8054 54.4555L28.2507 56.0932L28.1287 56.0522C28.0339 55.3486 27.655 54.8752 26.8972 54.4692C26.3288 54.1579 25.5844 53.9819 24.8806 53.9819C23.3376 53.9819 22.3894 54.6856 22.3894 55.8091C22.3895 56.7292 22.999 57.2168 24.4333 57.4604L26.0847 57.7173C27.1946 57.9068 27.6825 58.0556 28.1833 58.394C28.7787 58.8 29.1032 59.4091 29.1033 60.1128C29.1033 61.1821 28.4535 62.1301 27.3572 62.685C26.5993 63.0639 25.8413 63.226 24.7585 63.226C23.1749 63.226 21.4558 62.8745 20.197 62.2925L20.8337 60.3569L20.9548 60.4106C21.036 61.2228 21.4832 61.8324 22.363 62.3061C22.9991 62.6579 23.8246 62.8608 24.6365 62.8608C26.4232 62.8608 27.574 62.0482 27.574 60.7759C27.5739 60.3158 27.3977 59.923 27.073 59.7065C26.7617 59.4766 26.3825 59.3682 25.53 59.2329L23.946 58.9897C22.9582 58.8273 22.3217 58.6102 21.8074 58.2583C21.2121 57.8522 20.8601 57.162 20.8601 56.4448C20.8602 55.5381 21.4017 54.6857 22.3083 54.1714C22.9851 53.7924 23.7164 53.6294 24.7722 53.6294ZM38.2439 55.9311L38.1091 55.9712C37.2699 54.7665 36.0241 54.2798 33.7908 54.2798H31.8826V58.0288H33.7234C35.6046 58.0288 36.2951 57.7579 36.7283 56.851H36.863V59.6391H36.7283C36.3493 58.6647 35.6989 58.394 33.6687 58.394H31.8826V59.436C31.8826 59.7609 31.9367 61.0881 31.9773 61.643C32.0315 62.4142 32.3563 62.5903 33.6824 62.5903C36.2811 62.5903 37.2969 62.2386 38.8669 60.7768L38.988 60.8305L38.2439 62.9419H34.1023L32.0447 62.9282C31.6251 62.9147 31.3407 62.9145 31.1648 62.9145C30.7046 62.9145 30.0821 62.9286 29.0808 62.9692V62.8335C29.7844 62.6846 30.0416 62.4137 30.1228 61.7641C30.2175 61.0467 30.2585 59.7199 30.2585 57.7846V56.0659C30.2585 54.8343 30.2314 54.6173 30.0554 54.3872C29.9201 54.2248 29.7708 54.144 29.446 54.0493V53.9135H37.6755L38.2439 55.9311ZM54.6326 53.9135C56.3109 53.9136 57.2449 54.1849 58.2195 54.9428C59.3021 55.782 59.8434 56.9052 59.8435 58.2856C59.8435 59.6797 59.2619 60.9796 58.2468 61.8188C57.2182 62.658 56.1079 62.9692 54.0642 62.9692C53.7259 62.9692 53.4956 62.9689 53.0085 62.9419C51.858 62.9013 50.5173 62.9015 49.3533 62.9692V62.8335C50.0571 62.6846 50.315 62.4138 50.3962 61.7641C50.4909 61.0467 50.531 59.7199 50.531 57.7846V56.0659C50.531 54.8343 50.5038 54.6308 50.3279 54.3872C50.2062 54.2251 50.0573 54.1439 49.7195 54.0493V53.9135H54.6326ZM52.155 57.812C52.155 61.047 52.2094 61.8189 52.4665 62.2114C52.6425 62.482 53.13 62.604 54.1042 62.604C56.7842 62.604 58.0436 61.2367 58.0437 58.3403C58.0437 56.8921 57.7321 55.9173 57.0554 55.227C56.3516 54.5096 55.5526 54.2798 53.8201 54.2798H52.155V57.812ZM57.3601 47.2651L54.1931 48.1596V47.4087L57.2117 46.4077L57.3601 47.2651ZM24.3738 38.0532C24.5843 40.0643 25.3215 44.0771 26.5847 44.0415H42.3435C42.7947 44.0414 43.4586 43.7908 43.2585 40.5923L43.824 40.2593H44.1609V43.3071C44.2374 43.5874 44.5866 44.1268 45.3708 44.0415H50.2595C50.5317 44.0113 51.0759 43.8222 51.0759 43.3071V41.0307L52.0154 40.5923V43.3071C52.1097 43.9018 52.8336 44.2915 53.7097 44.2915C54.5856 44.2912 55.3708 43.8402 55.3708 43.3071V41.0307L56.3425 40.5923V43.3071C56.4369 43.8649 56.9087 44.4022 58.2253 44.2915C58.5825 44.2911 59.5564 43.7843 59.1892 42.561L58.7341 39.8901L59.7058 39.521L60.4402 41.0307L60.0749 41.3999C60.2349 42.7985 60.3865 45.4974 57.9626 45.5591C57.5096 45.5467 56.4659 45.3209 55.9158 44.5171C55.518 44.9203 54.9151 45.3909 53.7097 45.3911C52.5039 45.3911 51.7652 44.5173 51.6257 44.0415C51.5369 44.4352 51.0636 45.2974 49.8826 45.4321H45.3708C44.9374 45.4048 44.0208 45.0554 43.824 44.0415C43.6312 44.4913 42.9571 45.3908 41.8025 45.3911H26.3796C25.9817 45.3909 25.1139 44.8682 25.0056 44.0415C24.5476 44.6349 23.3292 45.8017 22.1218 45.7231C20.9938 45.8089 19.1047 44.5778 19.7312 42.3764H20.2888C20.2001 43.0683 20.4935 44.4141 22.3767 44.2632C24.2597 44.1121 24.4926 42.9425 24.3738 42.3764L23.2419 38.4428L24.3738 38.0532ZM43.5124 38.1675L42.4539 39.2016L41.3835 38.1675L42.4539 37.1753L43.5124 38.1675ZM47.1697 27.0298C47.4074 27.0299 47.6003 27.2227 47.6003 27.4604V32.0776C47.6003 33.1259 46.7504 33.9758 45.7019 33.976H43.823C43.7075 33.976 43.6141 33.8825 43.614 33.7671V27.2387C43.6142 27.1234 43.7076 27.0298 43.823 27.0298H47.1697ZM42.7283 27.0259C42.8434 27.0262 42.9371 27.1197 42.9373 27.2348V33.7632C42.9371 33.8783 42.8434 33.9718 42.7283 33.9721H34.3113C33.2625 33.9721 32.412 33.1221 32.4119 32.0737V27.4565C32.4119 27.2188 32.6048 27.026 32.8425 27.0259H42.7283ZM42.7078 23.5288C42.823 23.5291 42.9167 23.6225 42.9167 23.7378V26.1196C42.9167 26.2349 42.823 26.3283 42.7078 26.3286H32.4578V25.0991C32.4578 24.2318 33.1605 23.5289 34.0281 23.5288H42.7078ZM45.7302 23.4829C46.7788 23.483 47.6294 24.3331 47.6296 25.3813V26.2798H43.8025C43.687 26.2798 43.5936 26.1862 43.5935 26.0708V23.6928C43.5935 23.5774 43.687 23.4829 43.8025 23.4829H45.7302ZM45.7097 16.062H45.7136V16.0659C45.8268 18.186 44.8925 19.7476 43.6433 20.7612C42.3942 21.7747 40.8298 22.241 39.6843 22.1714C37.991 21.9723 36.8844 21.0575 36.2224 20.0132C35.5606 18.969 35.3423 17.7943 35.4265 17.0737L35.4275 17.0708H35.4304C36.5176 17.0462 37.4542 17.5139 38.1824 18.1089C38.9067 18.7008 39.4263 19.4193 39.6843 19.9028C41.0176 16.7445 44.2333 16.0261 45.6931 16.061L45.7097 16.062Z" fill="#FFAE00"/>
</svg>
