<svg width="80" height="80" viewBox="0 0 80 80" fill="none" xmlns="http://www.w3.org/2000/svg">
<rect width="80" height="80" rx="14" fill="#0F73EE"/>
<path d="M0 13.9962C0 8.39814 4 4.33288 6 3L77 73.9756C76 76.1415 72.2 80.3734 65 79.9735H14C6.26801 79.9735 0 73.7055 0 65.9735V13.9962Z" fill="url(#paint0_linear_1317_6923)"/>
<path d="M29.1855 46.3843C27.5974 48.5024 25.9756 53.6302 32.1931 57.1963C29.91 55.817 26.112 51.7236 29.1855 46.3843Z" fill="white"/>
<path d="M40.9505 63.0665L39.288 58.8243L38.6001 56.7031L40.9505 63.0665Z" fill="white"/>
<path d="M36.2498 63.4103L34.5873 59.1681L34.186 57.7349L36.2498 63.4103Z" fill="white"/>
<path d="M26.7942 44.9169L46.0352 47.367L43.6316 63.4176L23.7743 63.4676L26.7942 44.9169Z" fill="#FFAE5A"/>
<mask id="path-7-inside-1_1317_6923" fill="white">
<path d="M35.6865 58.5356C35.117 59.3125 34.8002 60.7239 34.0083 62.8951C35.3131 59.6858 35.6136 58.6351 35.6865 58.5356Z"/>
</mask>
<path d="M34.0083 62.8951L33.0688 62.5524L34.9346 63.2717L34.0083 62.8951ZM35.6865 58.5356L34.8801 57.9443C34.4953 58.4692 34.2328 59.151 33.9857 59.8657C33.7199 60.6346 33.4642 61.4684 33.0688 62.5524L34.0083 62.8951L34.9477 63.2378C35.3443 62.1506 35.6429 61.1931 35.8759 60.5192C36.1276 59.7912 36.3082 59.3789 36.493 59.1269L35.6865 58.5356ZM34.0083 62.8951L34.9346 63.2717C35.5915 61.656 35.9971 60.58 36.2485 59.8927C36.3724 59.5541 36.4621 59.3004 36.5174 59.1475C36.5469 59.0659 36.5648 59.018 36.5759 58.9902C36.6054 58.9162 36.5735 59.0171 36.493 59.1269L35.6865 58.5356L34.8801 57.9443C34.7813 58.0791 34.7241 58.2345 34.7181 58.2496C34.6937 58.3108 34.6659 58.3863 34.6366 58.4674C34.5743 58.6398 34.4937 58.868 34.3702 59.2057C34.1269 59.8709 33.7298 60.9248 33.0819 62.5184L34.0083 62.8951Z" fill="white" mask="url(#path-7-inside-1_1317_6923)"/>
<mask id="path-9-inside-2_1317_6923" fill="white">
<path d="M28.7056 62.4678C28.7267 61.5048 29.3833 60.1518 30.183 57.9496C29.1252 61.2868 28.7083 62.3445 28.7056 62.4678Z"/>
</mask>
<path d="M30.183 57.9496L29.2431 57.6083L31.1363 58.2518L30.183 57.9496ZM28.7056 62.4678L27.7058 62.4458C27.7204 61.7818 27.9468 61.0628 28.2125 60.3318C28.3502 59.9531 28.5124 59.5357 28.6849 59.089C28.8589 58.6384 29.0468 58.1488 29.2431 57.6083L30.183 57.9496L31.123 58.2909C30.9194 58.8515 30.7254 59.3568 30.5507 59.8094C30.3744 60.2658 30.2213 60.6598 30.0922 61.015C29.8244 61.7517 29.7119 62.1908 29.7053 62.4897L28.7056 62.4678ZM30.183 57.9496L31.1363 58.2518C30.6049 59.9281 30.234 61.0334 29.9955 61.7356C29.8748 62.0909 29.7924 62.3298 29.7379 62.4942C29.7105 62.5767 29.6949 62.6262 29.6867 62.6542C29.6643 62.7315 29.7022 62.6301 29.7053 62.4897L28.7056 62.4678L27.7058 62.4458C27.7096 62.2747 27.7612 62.1133 27.7662 62.0961C27.7855 62.0296 27.8112 61.9501 27.8398 61.864C27.8972 61.6911 27.9857 61.434 28.1018 61.0922C28.3368 60.4005 28.7033 59.3084 29.2298 57.6474L30.183 57.9496Z" fill="white" mask="url(#path-9-inside-2_1317_6923)"/>
<rect x="21" y="27.7129" width="6.47285" height="9.55516" fill="#FFAE5A"/>
<rect x="45.0527" y="16.9248" width="5.68602" height="12.8806" rx="2.84301" transform="rotate(25.5667 45.0527 16.9248)" fill="#FFAE5A"/>
<path d="M55.7637 16C58.8006 16.0003 60.7291 19.2516 59.2734 21.917L55.3936 29.0205L49.792 26.3115L50.5703 24.9619C50.8955 24.1909 50.1062 23.4356 49.666 23.1514C49.7928 22.7996 49.9249 22.4783 50.1279 22.2754C50.5272 21.8769 51.2267 21.7532 51.4893 21.2539C51.799 20.6646 51.5531 19.9357 50.9502 19.6533L49.1523 18.8115C48.5527 18.5309 47.8402 18.8071 47.585 19.418L47.4355 19.7744C47.3093 20.077 47.4082 20.4453 47.5684 20.7314C47.7055 20.9766 47.4193 21.6096 47.2383 21.9375L47.1699 21.9043C46.0735 21.3785 45.2827 21.9588 45.0244 22.3145L42.0039 28.7021C40.2128 32.3641 43.1261 34.9503 44.8076 35.7861C45.4452 36.0202 45.5974 35.626 45.5938 35.3994C43.9358 33.7947 44.0418 31.8706 44.3018 31.1094C46.5869 31.1049 47.5768 30.2303 47.7861 29.793L48.333 28.8438L54.0166 31.542L50.499 37.9844C49.842 39.1874 49.8469 40.6431 50.5117 41.8418L59.2109 57.5273C60.6896 60.1934 58.7616 63.4678 55.7129 63.4678H35.2139L36.667 59.3662C39.0883 59.0214 44.1545 57.0575 45.0469 51.959C45.4285 50.2726 45.3192 46.1458 41.8311 43.1309L38.7207 51.2324C38.4268 51.993 37.3007 53.4081 35.1475 52.9854C34.2804 52.856 32.6537 51.9905 33.083 49.5635L36.1865 41.0488C34.1495 40.7736 29.5563 41.5463 27.4805 46.8369C26.9736 48.1289 26.0308 51.6516 29.2549 56.9541L27.0928 63.4434L27.123 63.4678H25C22.7909 63.4678 21.0001 61.6768 21 59.4678V34.3916L26.5693 33.7178L26.6348 34.2549L28.0605 34.083L28.083 33.2217L28.1777 29.7959L28.2881 29.7822L29.1045 36.5293L31.1533 36.2812L30.3135 29.3379L30.2812 29.3408L30.0654 27.5527L26.2236 28.0176L26.2002 28.8789L26.0889 32.9668L21 33.583V20C21 17.7909 22.7909 16 25 16H55.7637Z" fill="white"/>
<path d="M30.6673 44.2332C30.8035 44.1097 30.9378 43.9983 31.0679 43.8993C30.9291 44.0102 30.7956 44.1215 30.6673 44.2332C28.7598 45.9616 26.4738 50.0453 30.183 55.0427C28.3107 53.1489 25.877 48.4034 30.6673 44.2332Z" fill="white"/>
<path d="M42.5352 45.4884C42.4287 45.3316 42.3212 45.1873 42.2149 45.0566C42.327 45.2013 42.4337 45.3453 42.5352 45.4884C44.0261 47.6837 45.3238 52.3308 40.393 56.4361C42.7291 54.9938 46.3208 50.8309 42.5352 45.4884Z" fill="white"/>
<defs>
<linearGradient id="paint0_linear_1317_6923" x1="9.5" y1="8.99794" x2="68.4764" y2="78.4941" gradientUnits="userSpaceOnUse">
<stop stop-color="#1176F2"/>
<stop offset="1" stop-color="#177EFD"/>
</linearGradient>
</defs>
</svg>
