<svg width="80" height="80" viewBox="0 0 80 80" fill="none" xmlns="http://www.w3.org/2000/svg">
<rect width="80" height="80" rx="14" fill="#FF91C5"/>
<path d="M32.333 37.9598C33.0723 35.9883 33.7699 36.3167 34.1807 36.7274C34.4271 37.2203 34.1811 37.3437 33.873 37.9598C32.3329 41.3484 32.9645 44.0302 34.4893 43.8123C36.6457 43.5041 39.7259 40.8342 41.5742 39.1912C41.6441 39.1494 41.706 39.117 41.7588 39.0897C41.8942 38.9242 42.0383 38.7525 42.1904 38.575C43.669 36.8506 45.3739 36.8297 46.1953 37.035C47.3375 37.3208 47.1187 38.575 46.5029 39.1912L46.1953 45.0448L53.5889 38.8836C54.5127 36.4202 55.0258 36.5221 55.4365 36.7274C55.9291 37.22 55.437 38.0615 55.1289 38.575C53.5895 41.346 54.1723 41.3805 54.2051 41.3485C56.6694 38.8842 59.1339 37.0351 59.75 37.6512C60.1856 38.087 60.2956 40.437 60.0576 42.5799C59.7496 45.3525 62.8305 41.6557 65.9111 39.1912C67.5654 37.868 67.2455 38.8838 66.835 39.4998C65.9103 40.7324 60.8378 45.1528 59.75 44.4286C58.8259 43.8125 59.7495 38.884 59.1338 38.575C58.7437 38.3807 55.7449 40.4248 52.9727 44.1209C52.3566 44.7369 51.8636 44.305 52.3564 42.5799L52.9727 40.1161L45.8867 46.5848C45.5755 49.0491 44.3196 53.3621 43.7305 55.2108C40.5268 62.6038 38.8017 61.3721 38.1855 59.8319C37.2616 54.5949 42.499 48.5357 45.2715 45.9686L45.5791 40.1161C43.7307 43.1965 41.1119 44.7364 40.3418 43.1961C40.0712 42.6546 40.0378 42.1131 40.2432 41.493C39.3129 42.8468 36.5685 45.0446 34.4893 45.0448C31.0867 45.0447 31.4089 40.4244 32.333 37.9598ZM44.6543 47.5096C38.8016 53.3623 38.1851 59.8306 39.417 60.1395C40.9575 60.7546 44.9622 52.1303 44.6543 47.5096ZM22.7822 20.4002C26.7254 18.4286 29.3543 18.962 30.1758 19.4754C33.3795 20.7077 33.5639 25.3287 33.2559 27.4852C33.2559 29.2097 32.4353 29.6411 32.0244 29.6414C31.2851 29.6414 31.5104 28.204 31.7158 27.4852C32.7016 24.2814 31.7157 22.0429 31.0996 21.3241C28.3888 18.6134 24.0145 20.8103 22.166 22.2479C18.7158 24.9588 20.3176 29.1281 21.5498 30.8739C22.782 32.9276 26.1817 37.9025 28.0195 42.2723C29.9288 46.8122 29.4062 50.615 28.7793 51.869C26.0068 57.4141 20.0092 58.4147 16.3125 55.827C13.232 53.6706 12 50.5897 12 47.8172C12 45.0447 13.54 42.5799 13.54 42.5799C13.5569 42.5593 16.3145 39.1947 16.9287 40.1161C17.3393 40.7322 15.6966 42.272 14.7725 43.1961C12.8009 45.1677 13.1293 49.1526 13.54 50.8983C15.2177 55.3171 19.0523 56.3376 20.626 56.2362C24.993 55.9547 26.7868 53.0542 27.7109 51.2059C29.8673 46.585 24.0146 37.6508 20.626 31.7977C16.683 25.6366 20.4204 21.6325 22.7822 20.4002ZM45.2705 38.2674C43.7633 38.2678 40.6403 40.6996 41.3936 42.8299C42.1904 43.1964 45.5785 39.4996 45.2705 38.2674ZM33.5645 32.4149C33.5644 32.1068 34.4889 30.5658 35.4131 30.8739C36.14 31.1162 36.132 31.9015 36.0293 32.4149C35.7827 33.647 34.827 34.6887 34.2109 34.3807C33.2571 34.2624 33.5642 32.724 33.5645 32.4149Z" fill="#2E272E"/>
</svg>
