<svg width="48" height="48" viewBox="0 0 48 48" fill="none" xmlns="http://www.w3.org/2000/svg">
<path d="M34.1352 14.5574H21.421C19.9602 14.5574 18.752 15.78 18.752 17.258V29.2641V39.2996C18.752 40.7775 19.9602 42 21.421 42H34.1352C35.5959 42 36.7861 40.7775 36.7861 39.2996V29.2641V17.258C36.7861 15.7801 35.5959 14.5574 34.1352 14.5574ZM26.164 36.453C26.164 35.559 26.8854 34.8292 27.7691 34.8292C28.6708 34.8292 29.3922 35.559 29.3922 36.453C29.3922 37.3472 28.6708 38.077 27.7691 38.077C26.8854 38.077 26.164 37.3472 26.164 36.453ZM29.0495 19.3745H26.5066C26.0017 19.3745 25.6048 18.9731 25.6048 18.4621C25.6048 17.9695 26.0016 17.5498 26.5066 17.5498H29.0495C29.5544 17.5498 29.9512 17.9695 29.9512 18.4621C29.9512 18.9731 29.5544 19.3745 29.0495 19.3745Z" fill="url(#paint0_linear_1_1826)"/>
<path d="M41.2948 6H6.70516C5.22638 6 4 7.24071 4 8.73697V27.4395C4 28.9538 5.22629 30.1765 6.70516 30.1765H16.0469C16.5519 30.1765 16.9487 29.7751 16.9487 29.2641C16.9487 28.7715 16.552 28.3518 16.0469 28.3518H6.70516C6.21821 28.3518 5.80341 27.9503 5.80341 27.4394V8.73697C5.80341 8.2443 6.21813 7.82462 6.70516 7.82462H41.2948C41.7998 7.82462 42.1966 8.24421 42.1966 8.73697V27.4395C42.1966 27.9503 41.7999 28.3519 41.2948 28.3519H39.4914C39.0045 28.3519 38.5897 28.7715 38.5897 29.2642C38.5897 29.7751 39.0044 30.1766 39.4914 30.1766H41.2948C42.7917 30.1766 44 28.954 44 27.4396V8.73697C44 7.2408 42.7917 6 41.2948 6Z" fill="url(#paint1_linear_1_1826)"/>
<defs>
<linearGradient id="paint0_linear_1_1826" x1="20.2868" y1="17.2348" x2="38.2691" y2="35.2555" gradientUnits="userSpaceOnUse">
<stop stop-color="#FF2A2A"/>
<stop offset="1" stop-color="#5A0000"/>
</linearGradient>
<linearGradient id="paint1_linear_1_1826" x1="7.40425" y1="8.35869" x2="18.2575" y2="35.7415" gradientUnits="userSpaceOnUse">
<stop stop-color="#FF2A2A"/>
<stop offset="1" stop-color="#5A0000"/>
</linearGradient>
</defs>
</svg>
