<svg width="48" height="48" viewBox="0 0 48 48" fill="none" xmlns="http://www.w3.org/2000/svg">
<path d="M44.3887 21.1621H43.5262C42.833 21.1621 42.2307 20.7017 42.0633 20.0449C41.6339 18.3455 40.9643 16.7279 40.06 15.2229C39.7161 14.6461 39.8125 13.9092 40.2984 13.4252L40.9224 12.7956C41.1608 12.5573 41.1608 12.1716 40.9224 11.9332L37.0651 8.07579C36.8267 7.83743 36.441 7.83743 36.2026 8.07579L35.573 8.69987C35.0927 9.18388 34.3521 9.28212 33.7753 8.93823C32.276 8.03937 30.6584 7.36434 28.9533 6.93491C28.2965 6.76751 27.8361 6.16709 27.8361 5.47202V4.60955C27.8361 4.26929 27.5669 4 27.2266 4H21.7716C21.4314 4 21.1621 4.26929 21.1621 4.60955V5.47202C21.1621 6.16527 20.7017 6.76751 20.0449 6.93491C18.3455 7.36433 16.7279 8.03392 15.2229 8.93823C14.6461 9.28212 13.9092 9.18568 13.4252 8.69987L12.7956 8.07579C12.5573 7.83743 12.1716 7.83743 11.9332 8.07579L8.07579 11.9332C7.83743 12.1715 7.83743 12.5573 8.07579 12.7956L8.69987 13.4252C9.18388 13.9056 9.28212 14.6461 8.93823 15.2229C8.03937 16.7223 7.36434 18.3398 6.93491 20.0449C6.76751 20.7018 6.16709 21.1621 5.47202 21.1621H4.60955C4.26929 21.1621 4 21.4314 4 21.7716V27.2266C4 27.5669 4.26929 27.8362 4.60955 27.8362H6.29626C6.52006 27.8362 6.71475 27.9944 6.76206 28.2183C7.17145 30.1888 7.90834 32.0557 8.93823 33.7752C9.28212 34.352 9.18568 35.0889 8.69987 35.573L8.07579 36.2025C7.83743 36.4409 7.83743 36.8266 8.07579 37.065L11.9332 40.9224C12.1715 41.1607 12.5573 41.1607 12.7956 40.9224L13.4252 40.2983C13.7145 40.009 14.0966 39.8562 14.4787 39.8562C14.7353 39.8562 14.9955 39.9217 15.2248 40.0618C16.7241 40.9606 18.3416 41.6357 20.0467 42.0651C20.7036 42.2325 21.1639 42.8329 21.1639 43.528V44.3905C21.1639 44.7307 21.4332 45 21.7734 45H27.2284C27.5687 45 27.838 44.7307 27.838 44.3905V43.528C27.838 42.8347 28.2983 42.2325 28.9551 42.0651C30.6546 41.6357 32.2722 40.9661 33.7771 40.0618C34.3539 39.7179 35.0908 39.8143 35.5748 40.3001L36.2044 40.9242C36.4427 41.1626 36.8285 41.1626 37.0669 40.9242L40.9243 37.0668C41.1626 36.8285 41.1626 36.4427 40.9243 36.2044L40.3002 35.5748C39.8162 35.0944 39.7179 34.3539 40.0618 33.7771C40.9607 32.2777 41.6357 30.6602 42.0651 28.9551C42.2325 28.2982 42.833 27.8379 43.528 27.8379H44.3905C44.7307 27.8379 45 27.5686 45 27.2284V21.7734C45 21.4331 44.7308 21.1639 44.3905 21.1639L44.3887 21.1621ZM24.5032 38.7968C16.6209 38.7968 10.2036 32.3827 10.2036 24.4972C10.2036 16.6117 16.6177 10.1976 24.5032 10.1976C32.3887 10.1976 38.8028 16.6117 38.8028 24.4972C38.8028 32.3827 32.3887 38.7968 24.5032 38.7968Z" fill="url(#paint0_linear_1_1841)"/>
<path d="M30.9364 19.7321C28.4163 19.7321 26.6878 21.4933 25.0249 23.1928L24.8393 23.3784C24.6628 23.5604 24.3408 23.564 24.1643 23.3784L23.9168 23.1273C22.3557 21.5388 20.5962 19.7321 18.351 19.7321C15.6544 19.7321 13.5439 21.8227 13.5439 24.4972C13.5439 27.3065 15.4071 29.2623 18.071 29.2623C20.591 29.2623 22.3196 27.501 23.9824 25.8016L24.168 25.616C24.2517 25.5232 24.3773 25.4722 24.5083 25.4722C24.6393 25.4722 24.7594 25.5195 24.8485 25.616L25.0905 25.8634C26.6517 27.4574 28.4112 29.2641 30.662 29.2641C33.3585 29.2641 35.469 27.1735 35.469 24.499C35.469 21.6897 33.6058 19.7339 30.942 19.7339L30.9364 19.7321ZM22.8687 24.8233L22.7705 24.9343C21.555 26.2243 20.0503 27.8364 18.1069 27.8364C16.3183 27.8364 14.9718 26.4026 14.9718 24.5012C14.9718 22.6016 16.4202 21.166 18.2051 21.166C19.9883 21.166 21.1437 22.4233 22.2336 23.5423C22.4428 23.757 22.6484 23.9663 22.8522 24.1609C23.0432 24.3429 23.0487 24.6358 22.8704 24.8269L22.8687 24.8233ZM30.8055 27.8364C29.1006 27.8364 27.867 26.5737 26.7716 25.4601C26.566 25.2454 26.3622 25.0362 26.1566 24.8415C25.9655 24.6595 25.9601 24.3611 26.1384 24.1701L26.2458 24.0591C27.4576 22.769 28.9605 21.1624 30.9038 21.1624C32.6923 21.1624 34.0388 22.5961 34.0388 24.4976C34.0388 26.3972 32.5905 27.8328 30.8055 27.8328L30.8055 27.8364Z" fill="url(#paint1_linear_1_1841)"/>
<defs>
<linearGradient id="paint0_linear_1_1841" x1="7.48936" y1="8" x2="32.1292" y2="45.5745" gradientUnits="userSpaceOnUse">
<stop stop-color="#FF2A2A"/>
<stop offset="1" stop-color="#5A0000"/>
</linearGradient>
<linearGradient id="paint1_linear_1_1841" x1="15.4099" y1="20.662" x2="18.7037" y2="32.2152" gradientUnits="userSpaceOnUse">
<stop stop-color="#FF2A2A"/>
<stop offset="1" stop-color="#5A0000"/>
</linearGradient>
</defs>
</svg>
