<svg width="48" height="48" viewBox="0 0 48 48" fill="none" xmlns="http://www.w3.org/2000/svg">
<path fill-rule="evenodd" clip-rule="evenodd" d="M33.0131 44C32.7634 42.9514 31.8819 42.0972 30.7646 42.0972H17.2323C16.115 42.0972 15.2352 42.9514 14.9839 44H33.0131ZM5 33.6008V35.8144C5 35.9203 5.08903 36.0106 5.19726 36.0106H42.8024C42.9089 36.0106 42.9997 35.9221 42.9997 35.8144V33.6008H5ZM27.4667 37.3022H20.526C20.4142 38.5418 20.1192 39.7206 19.5868 40.8092H28.4076C27.8751 39.7241 27.5801 38.547 27.4684 37.3022H27.4667ZM28.5612 15.4586C28.3063 15.2051 28.3063 14.7971 28.5612 14.5471C28.8161 14.2937 29.2263 14.2937 29.4777 14.5471L33.1907 18.2399C33.4456 18.4933 33.4456 18.9013 33.1907 19.1513L29.4777 22.8441C29.2228 23.0975 28.8126 23.0975 28.5612 22.8441C28.3063 22.5906 28.3063 22.1826 28.5612 21.9326L31.8186 18.693L28.5612 15.4534V15.4586ZM18.515 14.5471C18.7699 14.2937 19.1801 14.2937 19.4315 14.5471C19.6812 14.8006 19.6864 15.2086 19.4315 15.4586L16.1741 18.6982L19.4315 21.9378C19.6864 22.1913 19.6864 22.5993 19.4315 22.8493C19.1767 23.1028 18.7664 23.1028 18.515 22.8493L14.802 19.1566C14.5471 18.9031 14.5471 18.4951 14.802 18.2451L18.515 14.5524V14.5471ZM24.7751 13.3249C24.8694 12.9829 25.222 12.778 25.5659 12.8666C25.9098 12.9603 26.1158 13.311 26.0267 13.653L23.2197 24.0713C23.1254 24.4133 22.7728 24.6182 22.4289 24.5296C22.085 24.4359 21.879 24.0852 21.9681 23.7432L24.7751 13.3249ZM12.1383 6.78666C11.7805 6.78666 11.4907 6.49847 11.4907 6.14257C11.4907 5.78667 11.7805 5.49848 12.1383 5.49848H12.3216C12.6795 5.49848 12.9693 5.78668 12.9693 6.14257C12.9693 6.49848 12.6795 6.78666 12.3216 6.78666H12.1383ZM14.7917 6.78666C14.4339 6.78666 14.1441 6.49847 14.1441 6.14257C14.1441 5.78667 14.4339 5.49848 14.7917 5.49848H14.975C15.3329 5.49848 15.6227 5.78668 15.6227 6.14257C15.6227 6.49848 15.3329 6.78666 14.975 6.78666H14.7917ZM17.4521 6.78666C17.0943 6.78666 16.8045 6.49847 16.8045 6.14257C16.8045 5.78667 17.0943 5.49848 17.4521 5.49848H17.6354C17.9933 5.49848 18.2831 5.78668 18.2831 6.14257C18.2831 6.49848 17.9933 6.78666 17.6354 6.78666H17.4521ZM38.9835 6.79534V27.035C38.9835 28.1773 38.0443 29.1114 36.8956 29.1114H11.1014C9.95274 29.1114 9.01355 28.1773 9.01355 27.035V6.79534H5.19748C5.091 6.79534 5.00022 6.88389 5.00022 6.99153V32.3112H43V6.99153C43 6.88562 42.911 6.79534 42.8027 6.79534H38.9835ZM10.3108 9.57313V27.035C10.3108 27.4655 10.6687 27.8214 11.1016 27.8214H36.8958C37.3287 27.8214 37.6866 27.4655 37.6866 27.035V9.57313H10.3108ZM37.6866 4.78645C37.6866 4.35589 37.3287 4 36.8958 4H11.1016C10.6686 4 10.3108 4.3559 10.3108 4.78645V8.28473H37.6884V4.78645H37.6866Z" fill="url(#paint0_linear_1_1831)"/>
<defs>
<linearGradient id="paint0_linear_1_1831" x1="8.23404" y1="7.90244" x2="32.7419" y2="43.4071" gradientUnits="userSpaceOnUse">
<stop stop-color="#FF2A2A"/>
<stop offset="1" stop-color="#5A0000"/>
</linearGradient>
</defs>
</svg>
