<svg width="48" height="48" viewBox="0 0 48 48" fill="none" xmlns="http://www.w3.org/2000/svg">
<path fill-rule="evenodd" clip-rule="evenodd" d="M23.4858 27.7096C23.5974 27.8292 23.6565 27.9842 23.6511 28.1433C23.6457 28.3024 23.5761 28.4536 23.4566 28.5662C23.3371 28.6788 23.1766 28.7444 23.0077 28.7496C22.8387 28.7548 22.674 28.6992 22.5469 28.5942L19.7552 25.9654C19.6309 25.8479 19.5611 25.6888 19.5611 25.523C19.5611 25.3572 19.6309 25.1982 19.7552 25.0807L22.5469 22.4518C22.607 22.3875 22.6805 22.3354 22.7628 22.2988C22.8451 22.2622 22.9345 22.2419 23.0255 22.2392C23.1165 22.2364 23.2071 22.2513 23.2917 22.2828C23.3764 22.3143 23.4532 22.3619 23.5176 22.4225C23.5819 22.4831 23.6324 22.5555 23.6658 22.6353C23.6992 22.715 23.715 22.8003 23.712 22.886C23.709 22.9716 23.6874 23.0558 23.6485 23.1333C23.6096 23.2108 23.5542 23.2799 23.4858 23.3365L21.1638 25.523L23.4858 27.7096ZM29.4537 28.6846C29.3266 28.7896 29.1619 28.8451 28.9929 28.8399C28.824 28.8347 28.6634 28.7692 28.5439 28.6566C28.4244 28.544 28.3549 28.3928 28.3495 28.2337C28.3441 28.0746 28.4032 27.9195 28.5148 27.7999L30.8368 25.6134L28.5148 23.4268C28.4041 23.3071 28.3458 23.1523 28.3516 22.9937C28.3574 22.8351 28.427 22.6845 28.5461 22.5723C28.6653 22.46 28.8253 22.3946 28.9937 22.3891C29.1621 22.3836 29.3265 22.4385 29.4537 22.5427L32.2454 25.1711C32.3697 25.2885 32.4395 25.4476 32.4395 25.6134C32.4395 25.7792 32.3697 25.9382 32.2454 26.0557L29.4537 28.6846ZM47.6338 12.7902C48.004 13.4161 48.098 14.1539 47.8953 14.8445C47.6927 15.535 47.2097 16.1227 46.5507 16.4808L46.508 16.5022C45.9436 16.7982 45.2903 16.9081 44.652 16.8144C44.0136 16.7207 43.4268 16.4289 42.9848 15.9852L39.0501 18.1263C38.9748 18.167 38.8917 18.1934 38.8055 18.2039C38.7194 18.2144 38.6319 18.2088 38.5481 18.1875C38.4643 18.1661 38.3857 18.1295 38.3169 18.0795C38.2481 18.0296 38.1905 17.9674 38.1472 17.8965C38.104 17.8256 38.076 17.7473 38.0648 17.6662C38.0536 17.5851 38.0596 17.5028 38.0822 17.4238C38.1049 17.3449 38.1438 17.2709 38.1969 17.2061C38.2499 17.1414 38.3159 17.0871 38.3912 17.0463L42.3243 14.9083C42.1379 14.3298 42.1611 13.7093 42.3902 13.1446C42.6193 12.5798 43.0413 12.1028 43.5898 11.7886C43.6281 11.7623 43.6691 11.7399 43.7124 11.7217C44.3764 11.3799 45.1561 11.2963 45.8847 11.4888C46.6133 11.6814 47.233 12.1348 47.6111 12.7521C47.6194 12.7651 47.6266 12.7787 47.6338 12.7923V12.7902ZM47.6111 36.25C47.4211 36.5611 47.1679 36.8338 46.8658 37.0525C46.5637 37.2713 46.2188 37.4317 45.8507 37.5247C45.4827 37.6177 45.0988 37.6414 44.721 37.5945C44.3432 37.5475 43.979 37.4308 43.6492 37.2511C43.6353 37.2433 43.622 37.2354 43.6092 37.2271C43.0542 36.915 42.626 36.4369 42.3931 35.869C42.1602 35.3011 42.136 34.6761 42.3243 34.0937L38.3912 31.9558C38.3159 31.915 38.2499 31.8607 38.1969 31.796C38.1438 31.7312 38.1049 31.6572 38.0822 31.5783C38.0596 31.4993 38.0536 31.4169 38.0648 31.3358C38.076 31.2547 38.104 31.1765 38.1472 31.1056C38.1905 31.0347 38.2481 30.9725 38.3169 30.9226C38.3857 30.8726 38.4643 30.836 38.5481 30.8146C38.6319 30.7933 38.7194 30.7877 38.8055 30.7982C38.8917 30.8087 38.9748 30.8351 39.0501 30.8758L42.9848 33.0169C43.4321 32.5678 44.0277 32.2743 44.6747 32.1843C45.3216 32.0944 45.9818 32.2131 46.548 32.5213C46.878 32.7002 47.1674 32.9386 47.3995 33.2229C47.6316 33.5072 47.8019 33.8318 47.9006 34.1781C47.9994 34.5244 48.0246 34.8857 47.9749 35.2412C47.9253 35.5967 47.8016 35.9395 47.6111 36.25ZM26.0003 48C25.2888 47.9997 24.6023 47.7533 24.0711 47.3077C23.5399 46.862 23.201 46.2481 23.1189 45.5827C23.0368 44.9172 23.2171 44.2465 23.6256 43.698C24.0341 43.1495 24.6424 42.7615 25.3348 42.6075V38.3311C25.3348 38.1649 25.4049 38.0055 25.5297 37.8879C25.6545 37.7704 25.8238 37.7044 26.0003 37.7044C26.1768 37.7044 26.3461 37.7704 26.4709 37.8879C26.5957 38.0055 26.6658 38.1649 26.6658 38.3311V42.6075C27.3582 42.7615 27.9665 43.1495 28.375 43.698C28.7835 44.2465 28.9638 44.9172 28.8817 45.5827C28.7996 46.2481 28.4607 46.862 27.9295 47.3077C27.3983 47.7533 26.7117 47.9997 26.0003 48ZM4.36676 36.2098C3.9961 35.584 3.90193 34.846 4.10462 34.1554C4.3073 33.4647 4.79056 32.877 5.44986 32.5192L5.49256 32.4978C6.05698 32.2018 6.71027 32.0919 7.34862 32.1856C7.98698 32.2793 8.57378 32.5711 9.01579 33.0148L12.9533 30.8737C13.1054 30.7915 13.2859 30.7694 13.4553 30.8125C13.6246 30.8556 13.7688 30.9603 13.8561 31.1035C13.9435 31.2467 13.9669 31.4167 13.9211 31.5762C13.8754 31.7356 13.7642 31.8714 13.6121 31.9537L9.67907 34.0917C9.86545 34.6702 9.84227 35.2907 9.61317 35.8554C9.38406 36.4202 8.96204 36.8972 8.41352 37.2114C8.3752 37.2379 8.33391 37.2603 8.2904 37.2783C7.6265 37.6211 6.84641 37.7054 6.11726 37.5132C5.38812 37.321 4.76791 36.8676 4.3895 36.25C4.38118 36.2369 4.37397 36.2234 4.36676 36.2098ZM4.3895 12.7526C4.57945 12.4415 4.83272 12.1688 5.13479 11.9501C5.43686 11.7313 5.7818 11.5709 6.14984 11.4779C6.51788 11.3849 6.90179 11.3612 7.27958 11.4081C7.65736 11.4551 8.0216 11.5718 8.35141 11.7515C8.36527 11.7593 8.37858 11.7672 8.39134 11.7755C8.94643 12.0876 9.37456 12.5657 9.60745 13.1336C9.84034 13.7015 9.86458 14.3265 9.67629 14.9089L13.6094 17.0468C13.6847 17.0876 13.7507 17.1419 13.8037 17.2067C13.8567 17.2714 13.8957 17.3454 13.9184 17.4243C13.941 17.5033 13.9469 17.5857 13.9358 17.6668C13.9246 17.7479 13.8966 17.8261 13.8534 17.897C13.8101 17.9679 13.7524 18.0301 13.6837 18.08C13.6149 18.13 13.5363 18.1667 13.4525 18.188C13.3686 18.2093 13.2812 18.2149 13.195 18.2044C13.1089 18.1939 13.0258 18.1675 12.9505 18.1268L9.01302 15.9857C8.56567 16.4349 7.97009 16.7283 7.32316 16.8183C6.67623 16.9082 6.01601 16.7895 5.44986 16.4813C5.12 16.3023 4.83087 16.0638 4.59901 15.7795C4.36715 15.4952 4.1971 15.1706 4.09862 14.8243C4.00013 14.478 3.97512 14.1168 4.02504 13.7614C4.07495 13.406 4.1988 13.0634 4.3895 12.7531V12.7526ZM26.0003 1C26.7117 1.0003 27.3983 1.24668 27.9295 1.69234C28.4607 2.13799 28.7996 2.75186 28.8817 3.41733C28.9638 4.0828 28.7835 4.75348 28.375 5.30197C27.9665 5.85047 27.3582 6.23854 26.6658 6.39247V10.6689C26.6658 10.8351 26.5957 10.9945 26.4709 11.1121C26.3461 11.2296 26.1768 11.2956 26.0003 11.2956C25.8238 11.2956 25.6545 11.2296 25.5297 11.1121C25.4049 10.9945 25.3348 10.8351 25.3348 10.6689V6.39247C24.6424 6.23854 24.0341 5.85047 23.6256 5.30197C23.2171 4.75348 23.0368 4.0828 23.1189 3.41733C23.201 2.75186 23.5399 2.13799 24.0711 1.69234C24.6023 1.24668 25.2888 1.0003 26.0003 1ZM25.4801 29.8094C25.4637 29.8947 25.4288 29.9758 25.3774 30.0477C25.3261 30.1195 25.2595 30.1806 25.1818 30.227C25.1041 30.2734 25.0171 30.3042 24.9262 30.3173C24.8353 30.3304 24.7424 30.3257 24.6536 30.3033C24.5647 30.281 24.4817 30.2416 24.4098 30.1875C24.338 30.1334 24.2788 30.0659 24.236 29.9892C24.1933 29.9125 24.1679 29.8283 24.1614 29.7419C24.1549 29.6555 24.1675 29.5688 24.1985 29.4872L26.5205 21.327C26.537 21.2418 26.5721 21.1608 26.6235 21.0891C26.6749 21.0174 26.7415 20.9564 26.8192 20.9101C26.8968 20.8638 26.9838 20.8332 27.0747 20.8201C27.1655 20.807 27.2583 20.8118 27.3471 20.8342C27.4359 20.8566 27.5188 20.896 27.5906 20.95C27.6624 21.004 27.7215 21.0715 27.7643 21.1481C27.807 21.2247 27.8325 21.3088 27.839 21.3952C27.8455 21.4815 27.8329 21.5682 27.8021 21.6497L25.4801 29.8094ZM34.1787 18.5712H30.3166C30.1401 18.5712 29.9708 18.5052 29.846 18.3877C29.7212 18.2701 29.6511 18.1107 29.6511 17.9445V14.3078L17.7099 14.207V34.7961H34.289L34.1787 18.5712ZM30.981 15.2003L33.2325 17.3205H30.981V15.2003Z" fill="url(#paint0_linear_1_1836)"/>
<defs>
<linearGradient id="paint0_linear_1_1836" x1="7.74468" y1="5.58537" x2="36.6889" y2="46.9064" gradientUnits="userSpaceOnUse">
<stop stop-color="#FF2A2A"/>
<stop offset="1" stop-color="#5A0000"/>
</linearGradient>
</defs>
</svg>
