<svg width="48" height="48" viewBox="0 0 48 48" fill="none" xmlns="http://www.w3.org/2000/svg">
<path d="M16.096 45.3605C16.0235 45.3605 15.9453 45.3422 15.891 45.2687L13.5644 42.2091V45.33H13.0339V41.487C13.0339 41.334 13.1605 41.2117 13.3053 41.2117C13.3896 41.2117 13.4619 41.236 13.5161 41.3095L15.8367 44.3629V41.2545H16.367V45.0911C16.367 45.2502 16.2404 45.3604 16.0959 45.3604M20.4841 45.3972C19.9539 45.3972 19.3992 45.2869 18.8808 45.0912L19.0075 44.6505C19.4836 44.8036 20.0019 44.9138 20.4841 44.9138C21.1532 44.9138 21.5028 44.675 21.5028 44.3386C21.5028 44.0326 21.2314 43.8796 20.2973 43.439C19.363 42.9984 18.9955 42.7171 18.9955 42.1663C18.9955 41.4749 19.5258 41.1934 20.5263 41.1934C20.9422 41.1934 21.5811 41.279 21.9489 41.3893L21.8645 41.842C21.4604 41.7442 20.9544 41.6769 20.5383 41.6769C19.8333 41.6769 19.544 41.8114 19.544 42.148C19.544 42.4784 19.7547 42.619 20.7433 43.0781C21.7861 43.5614 22.0512 43.8062 22.0512 44.3079C22.0512 45.0362 21.364 45.3972 20.4841 45.3972ZM24.5648 41.2546H25.1132V45.3297H24.5648V41.2546ZM29.7787 43.4819H28.4163V44.8649H29.7787C30.2427 44.8649 30.526 44.5712 30.526 44.161C30.526 43.7756 30.2308 43.4819 29.7787 43.4819ZM29.5133 41.7196H28.4163V43.0231H29.5133C29.9534 43.0231 30.2728 42.7415 30.2728 42.3499C30.2728 41.9645 29.9955 41.7196 29.5133 41.7196ZM29.7847 45.3298H28.1453C28.109 45.3304 28.0728 45.3236 28.0391 45.31C28.0053 45.2964 27.9746 45.2761 27.9488 45.2505C27.923 45.2249 27.9025 45.1943 27.8886 45.1607C27.8747 45.127 27.8677 45.091 27.8679 45.0546V41.5298C27.8679 41.3829 27.9885 41.2545 28.1453 41.2545H29.5014C30.3332 41.2545 30.8274 41.6644 30.8274 42.3069C30.8274 42.6557 30.6224 42.9801 30.3089 43.1697C30.7733 43.3105 31.0865 43.6959 31.0865 44.161C31.0865 44.8095 30.5501 45.3297 29.7847 45.3297M33.7205 45.3298C33.5701 45.3298 33.4495 45.2014 33.4495 45.0546V41.2546H33.9978V44.8343H36.1797V45.3298H33.7205ZM39.9186 45.3972C38.7975 45.3972 38.1225 44.9811 38.1225 44.1428C38.1225 43.7451 38.3456 43.3656 38.7796 43.1882C38.4299 42.9679 38.2491 42.6558 38.2491 42.3132C38.2491 41.5544 38.8339 41.1934 39.9308 41.1934C40.2985 41.1934 40.8167 41.2362 41.2508 41.3341L41.1905 41.7869C40.7325 41.7134 40.3044 41.6707 39.8885 41.6707C39.1773 41.6707 38.7975 41.8665 38.7975 42.3377C38.7975 42.7111 39.1472 43.0047 39.6113 43.0047H40.5515C40.6841 43.0047 40.7866 43.1087 40.7866 43.2372C40.7866 43.3718 40.6841 43.4758 40.5515 43.4758H39.5391C39.0086 43.4758 38.6712 43.7388 38.6712 44.1428C38.6712 44.7363 39.2196 44.9136 39.9067 44.9136C40.2805 44.9136 40.7866 44.8649 41.1964 44.767L41.2749 45.2135C40.8831 45.3238 40.3707 45.3972 39.9186 45.3972ZM8.95243 42.0189L9.91305 44.4257L8.46235 43.2654L8.95243 42.0189ZM10.6589 44.9801L9.18141 41.3703C9.13939 41.2662 9.05494 41.211 8.95243 41.211C8.90161 41.2101 8.85175 41.2249 8.80967 41.2534C8.7676 41.2819 8.73537 41.3227 8.71743 41.3703L7.0957 45.3298H7.65029L8.29239 43.6974L10.208 45.2685C10.2851 45.3318 10.3406 45.3604 10.413 45.3604C10.5576 45.3604 10.6843 45.2503 10.6843 45.0914C10.6843 45.0654 10.6752 45.0244 10.6589 44.9803V44.9801Z" fill="white"/>
<path d="M41.3041 20.4684C41.3041 29.8972 33.6611 37.5401 24.232 37.5401C14.8039 37.5401 7.16016 29.8972 7.16016 20.4684C7.16016 11.0402 14.8039 3.39648 24.232 3.39648C33.661 3.39648 41.3041 11.0402 41.3041 20.4684Z" fill="white"/>
<path d="M24.5196 13.8248L28.9374 24.7286L22.2643 19.4721L24.5196 13.825V13.8248ZM32.3678 27.2404L25.5723 10.8864C25.3782 10.4148 24.9904 10.165 24.5196 10.165C24.0479 10.165 23.6318 10.4148 23.4377 10.8864L15.9792 28.8247H18.5307L21.4832 21.4287L30.2944 28.547C30.6487 28.8335 30.9044 28.9632 31.2367 28.9632C31.9023 28.9632 32.4842 28.464 32.4842 27.7439C32.4842 27.6266 32.4427 27.4405 32.3678 27.2404Z" fill="#1B1B1B"/>
</svg>
