<svg width="48" height="48" viewBox="0 0 48 48" fill="none" xmlns="http://www.w3.org/2000/svg">
<path d="M15.0879 20.1216C15.0879 20.6384 15.1438 21.0575 15.2416 21.3648C15.3533 21.6721 15.493 22.0074 15.6886 22.3706C15.7584 22.4823 15.7864 22.5941 15.7864 22.6919C15.7864 22.8315 15.7026 22.9712 15.521 23.1109L14.6409 23.6976C14.5152 23.7814 14.3895 23.8233 14.2777 23.8233C14.1381 23.8233 13.9984 23.7535 13.8587 23.6278C13.6631 23.4182 13.4955 23.1947 13.3558 22.9712C13.2161 22.7338 13.0764 22.4684 12.9228 22.1471C11.8332 23.4322 10.4643 24.0748 8.81596 24.0748C7.64259 24.0748 6.70668 23.7395 6.02221 23.069C5.33774 22.3985 4.98853 21.5045 4.98853 20.387C4.98853 19.1997 5.40759 18.2358 6.25968 17.5094C7.11178 16.7831 8.24325 16.4199 9.68203 16.4199C10.157 16.4199 10.6459 16.4618 11.1627 16.5316C11.6796 16.6015 12.2104 16.7132 12.7691 16.8389V15.8192C12.7691 14.7576 12.5456 14.0173 12.1126 13.5842C11.6656 13.1512 10.9113 12.9417 9.83568 12.9417C9.34678 12.9417 8.8439 12.9975 8.32706 13.1233C7.81021 13.249 7.30734 13.4026 6.81843 13.5982C6.59493 13.696 6.42731 13.7518 6.32953 13.7798C6.23174 13.8077 6.1619 13.8217 6.10603 13.8217C5.91046 13.8217 5.81268 13.682 5.81268 13.3887V12.7042C5.81268 12.4807 5.84062 12.3131 5.91046 12.2153C5.98031 12.1175 6.10603 12.0197 6.30159 11.9219C6.79049 11.6705 7.37718 11.461 8.06165 11.2933C8.74612 11.1118 9.4725 11.0279 10.2408 11.0279C11.9031 11.0279 13.1183 11.4051 13.9006 12.1594C14.6689 12.9137 15.06 14.0592 15.06 15.5957V20.1216H15.0879ZM9.41662 22.2449C9.87759 22.2449 10.3525 22.161 10.8554 21.9934C11.3583 21.8258 11.8053 21.5185 12.1824 21.0994C12.4059 20.834 12.5736 20.5407 12.6574 20.2054C12.7412 19.8702 12.7971 19.4651 12.7971 18.9901V18.4034C12.392 18.3057 11.9589 18.2218 11.5119 18.166C11.0649 18.1101 10.6319 18.0822 10.1989 18.0822C9.26297 18.0822 8.5785 18.2638 8.11753 18.6409C7.65656 19.0181 7.43306 19.5489 7.43306 20.2473C7.43306 20.9039 7.60068 21.3928 7.9499 21.728C8.28515 22.0772 8.77406 22.2449 9.41662 22.2449ZM20.6335 23.7535C20.3821 23.7535 20.2145 23.7116 20.1027 23.6138C19.991 23.53 19.8932 23.3344 19.8094 23.069L16.5267 12.2712C16.4429 11.9918 16.401 11.8102 16.401 11.7124C16.401 11.4889 16.5127 11.3632 16.7362 11.3632H18.1052C18.3706 11.3632 18.5522 11.4051 18.65 11.5029C18.7617 11.5867 18.8455 11.7823 18.9293 12.0477L21.2761 21.295L23.4552 12.0477C23.5251 11.7683 23.6089 11.5867 23.7206 11.5029C23.8324 11.4191 24.0279 11.3632 24.2794 11.3632H25.3969C25.6623 11.3632 25.8439 11.4051 25.9556 11.5029C26.0674 11.5867 26.1652 11.7823 26.221 12.0477L28.4281 21.4067L30.8447 12.0477C30.9285 11.7683 31.0263 11.5867 31.1241 11.5029C31.2358 11.4191 31.4174 11.3632 31.6688 11.3632H32.9679C33.1914 11.3632 33.3172 11.4749 33.3172 11.7124C33.3172 11.7823 33.3032 11.8521 33.2892 11.9359C33.2753 12.0197 33.2473 12.1315 33.1914 12.2851L29.825 23.083C29.7412 23.3624 29.6434 23.5439 29.5316 23.6278C29.4199 23.7116 29.2383 23.7674 29.0008 23.7674H27.7995C27.5341 23.7674 27.3525 23.7255 27.2408 23.6278C27.129 23.53 27.0312 23.3484 26.9753 23.069L24.8102 14.0592L22.659 23.055C22.5892 23.3344 22.5053 23.516 22.3936 23.6138C22.2818 23.7116 22.0863 23.7535 21.8348 23.7535H20.6335ZM38.5834 24.1306C37.857 24.1306 37.1306 24.0468 36.4322 23.8792C35.7338 23.7116 35.189 23.53 34.8258 23.3204C34.6023 23.1947 34.4486 23.055 34.3928 22.9293C34.3369 22.8036 34.3089 22.6639 34.3089 22.5382V21.8258C34.3089 21.5324 34.4207 21.3928 34.6302 21.3928C34.714 21.3928 34.7979 21.4067 34.8817 21.4347C34.9655 21.4626 35.0912 21.5185 35.2309 21.5744C35.7058 21.7839 36.2227 21.9515 36.7674 22.0633C37.3262 22.175 37.871 22.2309 38.4297 22.2309C39.3098 22.2309 39.9942 22.0772 40.4692 21.7699C40.9441 21.4626 41.1955 21.0156 41.1955 20.4429C41.1955 20.0518 41.0698 19.7305 40.8184 19.4651C40.5669 19.1997 40.092 18.9622 39.4075 18.7387L37.3821 18.1101C36.3624 17.7888 35.608 17.3139 35.1471 16.6853C34.6861 16.0707 34.4486 15.3862 34.4486 14.6598C34.4486 14.0731 34.5744 13.5563 34.8258 13.1093C35.0772 12.6623 35.4125 12.2712 35.8315 11.9638C36.2506 11.6426 36.7255 11.4051 37.2843 11.2375C37.843 11.0698 38.4297 11 39.0444 11C39.3517 11 39.6729 11.014 39.9803 11.0559C40.3015 11.0978 40.5949 11.1537 40.8882 11.2095C41.1676 11.2794 41.433 11.3492 41.6844 11.433C41.9359 11.5168 42.1315 11.6007 42.2711 11.6845C42.4667 11.7962 42.6064 11.908 42.6902 12.0337C42.774 12.1454 42.8159 12.2991 42.8159 12.4947V13.1512C42.8159 13.4445 42.7042 13.5982 42.4946 13.5982C42.3829 13.5982 42.2013 13.5423 41.9638 13.4306C41.1676 13.0674 40.2736 12.8858 39.2818 12.8858C38.4856 12.8858 37.857 13.0115 37.424 13.2769C36.9909 13.5423 36.7674 13.9474 36.7674 14.5201C36.7674 14.9113 36.9071 15.2465 37.1865 15.5119C37.4659 15.7773 37.9827 16.0427 38.7231 16.2802L40.7066 16.9088C41.7124 17.2301 42.4388 17.6771 42.8718 18.2498C43.3048 18.8225 43.5144 19.479 43.5144 20.2054C43.5144 20.8061 43.3886 21.3509 43.1512 21.8258C42.8997 22.3007 42.5645 22.7198 42.1315 23.055C41.6984 23.4043 41.1816 23.6557 40.5809 23.8373C39.9523 24.0329 39.2958 24.1306 38.5834 24.1306Z" fill="#252F3E"/>
<path fill-rule="evenodd" clip-rule="evenodd" d="M41.2235 30.9186C36.6278 34.313 29.9507 36.115 24.2096 36.115C16.1636 36.115 8.91377 33.1396 3.43802 28.1947C3.00499 27.8036 3.39611 27.2728 3.91296 27.5801C9.83571 31.0164 17.1414 33.0977 24.6985 33.0977C29.7971 33.0977 35.3985 32.0361 40.553 29.857C41.3213 29.5078 41.9778 30.3598 41.2235 30.9186Z" fill="#FF9900"/>
<path fill-rule="evenodd" clip-rule="evenodd" d="M43.1371 28.7397C42.5504 27.9853 39.2538 28.3765 37.7592 28.5581C37.3122 28.6139 37.2423 28.2228 37.6474 27.9295C40.2735 26.0856 44.5899 26.6164 45.0928 27.231C45.5956 27.8596 44.9531 32.176 42.4946 34.2433C42.1174 34.5646 41.7542 34.397 41.9218 33.9779C42.4806 32.595 43.7238 29.48 43.1371 28.7397Z" fill="#FF9900"/>
</svg>
