<svg width="48" height="48" viewBox="0 0 48 48" fill="none" xmlns="http://www.w3.org/2000/svg">
<path d="M35.6482 20.553L36.5998 17.2607L36.7311 17.2771L36.8295 20.7332L38.6014 17.8013L38.7654 17.8832L37.9287 21.2082L40.4389 18.8332L40.5701 18.9478L38.8803 21.9616L41.9318 20.3401L42.0303 20.4547L39.6022 22.9444L42.9818 22.1745L43.0475 22.3056L40.0615 24.0582L43.5232 24.1892V24.3366L40.1764 25.2538L43.5068 26.2366V26.384L40.0451 26.4332L42.9818 28.2676L42.8998 28.4151L39.5529 27.5797L41.9154 30.0694L41.8334 30.2168L38.8475 28.4969L40.4389 31.5271L40.2912 31.6418L37.8303 29.234L38.6506 32.559L38.4865 32.6573L36.7311 29.6763L36.6818 33.0995L36.5014 33.1487L35.5498 29.8401L34.5654 33.1487L34.385 33.0995V29.6763L34.2865 29.6435L32.3834 32.5099L33.2037 29.1849L30.6936 31.5435L30.5459 31.4288L32.2686 28.4478L29.1842 30.0366L29.0857 29.9219L31.5139 27.4814L28.1342 28.2185L28.085 28.0875L31.0873 26.3349L27.6584 26.2038L27.5928 26.0564L30.9232 25.1228L27.642 24.1564L27.6584 23.9926L31.1037 23.9435L28.1834 22.1745L28.1998 22.0107L31.5795 22.8625L29.1842 20.3401L29.3154 20.209L32.3342 21.8633L30.6936 18.8659L30.792 18.7513L33.3186 21.1754L32.4982 17.8013L32.4654 17.7521L34.467 20.7332L34.4998 17.2607H34.6967L35.6482 20.553Z" fill="url(#paint0_radial_599_14453)"/>
<path d="M45 31.6905C45 28.3983 42.3258 25.7121 39.0117 25.7121C37.6828 25.7121 36.4523 26.1543 35.4516 26.8914C35.5828 26.269 35.6484 25.6138 35.6484 24.9586C35.6484 19.4552 31.1859 15 25.6734 15C21.293 15 17.5688 17.8336 16.2234 21.7483C15.4688 21.1914 14.55 20.8474 13.5328 20.8474C11.0555 20.8474 9.05391 22.8457 9.05391 25.319C9.05391 25.6957 9.10313 26.0724 9.18516 26.4328C5.75625 26.5474 3 29.3647 3 32.8207C3 33.2302 3.03281 33.6233 3.11484 34H44.5406C44.8359 33.2793 45 32.5095 45 31.6905Z" fill="#F68B1F"/>
<path d="M34.4674 24.958C34.4674 29.8063 30.5135 32.8692 25.6572 32.8692C20.801 32.8692 16.8799 29.8063 16.8799 24.958C16.8799 20.1097 20.8174 16.1787 25.6736 16.1787C30.5299 16.1787 34.4674 20.1097 34.4674 24.958Z" fill="url(#paint1_linear_599_14453)"/>
<path d="M33.1213 25.0082C33.1213 27.9728 29.758 30.3806 25.6236 30.3806C21.4729 30.3806 18.126 27.9728 18.126 25.0082C18.126 22.0435 21.4893 19.6357 25.6236 19.6357C29.7744 19.6521 33.1213 22.0435 33.1213 25.0082Z" fill="#F68B1F"/>
<path d="M13.5658 28.6764C15.4052 28.6764 16.8963 27.1877 16.8963 25.3514C16.8963 23.515 15.4052 22.0264 13.5658 22.0264C11.7265 22.0264 10.2354 23.515 10.2354 25.3514C10.2354 27.1877 11.7265 28.6764 13.5658 28.6764Z" fill="url(#paint2_linear_599_14453)"/>
<path d="M16.2562 24.0901C16.8141 25.0565 16.1086 26.5306 14.6812 27.3496C13.2539 28.1685 11.6297 28.0539 11.0719 27.0875C10.5141 26.1211 11.2195 24.647 12.6469 23.828C14.0906 22.9927 15.6984 23.1237 16.2562 24.0901Z" fill="#F68B1F"/>
<path d="M14.6156 32.8051C14.6156 29.9223 12.2695 27.5801 9.38203 27.5801C6.49453 27.5801 4.14844 29.9223 4.14844 32.8051V32.8378H14.6156V32.8051Z" fill="url(#paint3_linear_599_14453)"/>
<path d="M43.8346 31.6414C43.8346 29.0043 41.7018 26.875 39.0604 26.875C36.4189 26.875 34.2861 29.0043 34.2861 31.6414C34.2861 32.0181 34.3354 32.3784 34.4174 32.7224H43.7197C43.8018 32.3621 43.8346 32.0017 43.8346 31.6414Z" fill="url(#paint4_linear_599_14453)"/>
<path d="M44.049 32.8862L43.8686 32.5258L43.6717 32.1983L43.3928 31.7724L43.1139 31.4121L42.7857 31.0026L42.4412 30.6422L42.0475 30.2655L41.6865 29.9543L41.26 29.6595L40.8498 29.4138L40.3904 29.1517L40.0131 28.9552L39.6193 28.7914L39.2584 28.6931L38.8975 28.6276L38.5529 28.5621L38.1264 28.5293L11.0725 28.5784L10.6459 28.5948L10.2029 28.6276L9.72715 28.6767L9.3334 28.7586L8.82481 28.8733L8.48027 28.9879L8.10293 29.1353L7.72559 29.2664L7.2498 29.5121L6.90527 29.6758L6.4459 29.9707L6.03574 30.2983L5.59277 30.6422L5.21543 31.019L4.92012 31.3793L4.6084 31.7888L4.37871 32.1983L4.19824 32.5586L4.0998 32.8862L4.03418 33.1646H44.1639L44.049 32.8862Z" fill="url(#paint5_linear_599_14453)"/>
<path d="M36.2389 26.1055L39.8646 30.8391L39.7334 30.9374L35.5006 27.1374L19.242 30.0857L19.2256 29.9383L34.3357 26.4659L26.0178 23.6486L26.1162 23.5176L36.2389 26.1055Z" fill="url(#paint6_radial_599_14453)"/>
<defs>
<radialGradient id="paint0_radial_599_14453" cx="0" cy="0" r="1" gradientUnits="userSpaceOnUse" gradientTransform="translate(899.005 855.683) scale(796.189 794.063)">
<stop stop-color="white"/>
<stop offset="0.1902" stop-color="#FCE800"/>
<stop offset="0.8593" stop-color="#EC8F27"/>
</radialGradient>
<linearGradient id="paint1_linear_599_14453" x1="896.835" y1="686.837" x2="896.835" y2="-92.8104" gradientUnits="userSpaceOnUse">
<stop stop-color="#F68B1F"/>
<stop offset="1" stop-color="white"/>
</linearGradient>
<linearGradient id="paint2_linear_599_14453" x1="164.19" y1="40.8858" x2="337.316" y2="345.953" gradientUnits="userSpaceOnUse">
<stop stop-color="white"/>
<stop offset="0.04821" stop-color="#FEF6ED"/>
<stop offset="0.2569" stop-color="#FBD0A5"/>
<stop offset="0.4442" stop-color="#F9B26B"/>
<stop offset="0.6034" stop-color="#F79D42"/>
<stop offset="0.7282" stop-color="#F69028"/>
<stop offset="0.8033" stop-color="#F68B1F"/>
</linearGradient>
<linearGradient id="paint3_linear_599_14453" x1="-63.2708" y1="-432.227" x2="192.137" y2="1123.78" gradientUnits="userSpaceOnUse">
<stop stop-color="white"/>
<stop offset="0.04821" stop-color="#FEF6ED"/>
<stop offset="0.2569" stop-color="#FBD0A5"/>
<stop offset="0.4442" stop-color="#F9B26B"/>
<stop offset="0.6034" stop-color="#F79D42"/>
<stop offset="0.7282" stop-color="#F69028"/>
<stop offset="0.8033" stop-color="#F68B1F"/>
</linearGradient>
<linearGradient id="paint4_linear_599_14453" x1="682.224" y1="1.28087" x2="626.722" y2="434.353" gradientUnits="userSpaceOnUse">
<stop stop-color="white"/>
<stop offset="0.04821" stop-color="#FEF6ED"/>
<stop offset="0.2569" stop-color="#FBD0A5"/>
<stop offset="0.4442" stop-color="#F9B26B"/>
<stop offset="0.6034" stop-color="#F79D42"/>
<stop offset="0.7282" stop-color="#F69028"/>
<stop offset="0.8033" stop-color="#F68B1F"/>
</linearGradient>
<linearGradient id="paint5_linear_599_14453" x1="2010.24" y1="30.1702" x2="2010.24" y2="491.012" gradientUnits="userSpaceOnUse">
<stop stop-color="#F68B1F"/>
<stop offset="0.5308" stop-color="#CB672F"/>
<stop offset="1" stop-color="#A1453F"/>
</linearGradient>
<radialGradient id="paint6_radial_599_14453" cx="0" cy="0" r="1" gradientUnits="userSpaceOnUse" gradientTransform="translate(1058.9 472.944) scale(1065.68 383.115)">
<stop stop-color="white"/>
<stop offset="0.1334" stop-color="#FCE800"/>
<stop offset="0.8593" stop-color="#EC8F27"/>
</radialGradient>
</defs>
</svg>
