<svg width="48" height="48" viewBox="0 0 48 48" fill="none" xmlns="http://www.w3.org/2000/svg">
<path d="M22.6035 17.8467C23.8747 17.6355 25.1752 17.6355 26.4463 17.8467C26.9163 17.925 27.2625 18.3295 27.2627 18.8047H27.2607V21.4941C27.5699 21.5998 27.8704 21.7231 28.1631 21.8652L30.0723 19.9639C30.4106 19.627 30.9413 19.5828 31.3291 19.8594C32.3791 20.6062 33.2978 21.5209 34.0479 22.5664C34.3241 22.9526 34.28 23.4832 33.9434 23.8184L32.0342 25.7178C32.1769 26.0111 32.3011 26.3103 32.4072 26.6182H35.1074C35.5848 26.6183 35.9907 26.9607 36.0693 27.4307C36.2815 28.6966 36.2815 29.9918 36.0693 31.2578C35.9906 31.7277 35.5848 32.0702 35.1074 32.0703H32.4072C32.3012 32.378 32.1768 32.6766 32.0342 32.9697L33.9434 34.8701C34.2799 35.2071 34.324 35.7349 34.0479 36.1211C33.2978 37.1667 32.3792 38.0812 31.3291 38.8281C30.9413 39.1049 30.4089 39.0616 30.0723 38.7246C30.0528 38.7053 28.1979 36.8578 28.165 36.8232C27.8705 36.9653 27.5699 37.0887 27.2607 37.1943V39.8828C27.2607 40.3581 26.9152 40.7623 26.4453 40.8408C25.1739 41.0521 23.8729 41.0521 22.6016 40.8408C22.1296 40.7625 21.7852 40.3582 21.7852 39.8828V37.1943C21.4762 37.0887 21.1762 36.9652 20.8818 36.8232L18.9717 38.7246C18.6351 39.0615 18.1026 39.105 17.7148 38.8281C16.6648 38.0813 15.7461 37.1666 14.9961 36.1211C14.7184 35.735 14.7624 35.2052 15.1006 34.8701L17.0107 32.9697C16.8681 32.6766 16.7438 32.378 16.6377 32.0703H13.9375C13.4601 32.0703 13.0533 31.7278 12.9746 31.2578C12.7624 29.9919 12.7624 28.6966 12.9746 27.4307C13.0533 26.9607 13.46 26.6182 13.9375 26.6182H16.6377C16.7456 26.3103 16.87 26.0111 17.0127 25.7178L15.1025 23.8184C14.7641 23.4814 14.72 22.9526 14.998 22.5664C15.7481 21.5209 16.6668 20.6062 17.7168 19.8594C18.1046 19.5827 18.6371 19.6269 18.9736 19.9639L20.8838 21.8652C21.1782 21.7232 21.4781 21.5997 21.7871 21.4941V18.8047C21.7873 18.3295 22.1317 17.925 22.6035 17.8467ZM24.5225 24.9531C22.0876 24.9531 20.1096 26.9223 20.1094 29.3467C20.1094 31.7712 22.0875 33.7412 24.5225 33.7412C26.9573 33.7411 28.9346 31.7711 28.9346 29.3467C28.9344 26.9224 26.9572 24.9533 24.5225 24.9531ZM20.5977 7C24.2253 7.00004 27.4362 8.79596 29.377 11.541C29.8469 11.43 30.3371 11.3721 30.8418 11.3721C34.0103 11.3721 36.6401 13.691 37.1104 16.7148H37.1699C38.9811 16.7148 40.7196 17.431 42 18.7061C43.2804 19.9812 43.999 21.7116 43.999 23.5146C43.999 25.3179 43.2786 27.0484 42 28.3232C40.9517 29.3652 39.5993 30.0355 38.1504 30.2432C38.2199 29.1976 38.1689 28.1467 37.9951 27.1084C37.7939 25.9007 36.8626 24.9701 35.6973 24.7314C36.3521 23.7425 36.3487 22.4308 35.6338 21.4326C34.7593 20.2139 33.6868 19.146 32.4629 18.2734C31.4622 17.5631 30.1428 17.5579 29.1494 18.2119C28.9098 17.0516 27.9755 16.1243 26.7627 15.9238C25.2772 15.6779 23.76 15.6779 22.2764 15.9238C21.0637 16.1243 20.1293 17.0517 19.8896 18.2119C18.8963 17.5598 17.5769 17.563 16.5762 18.2734C15.3523 19.146 14.2806 20.214 13.4043 21.4326C12.691 22.429 12.6851 23.7424 13.3418 24.7314C12.1765 24.9701 11.2451 25.9007 11.0439 27.1084C10.8702 28.1485 10.8192 29.2016 10.8887 30.249L10.8945 30.2529C9.4274 30.0526 8.05921 29.3798 7 28.3252C5.7194 27.0501 5.00001 25.3198 5 23.5166C5 21.7134 5.71944 19.9829 7 18.708C7.81225 17.8992 8.80753 17.3157 9.88867 16.9951C10.2474 11.4193 14.9085 7 20.5977 7Z" fill="#44ADC1"/>
</svg>
