<svg width="48" height="48" viewBox="0 0 48 48" fill="none" xmlns="http://www.w3.org/2000/svg">
<path d="M26.6602 4C26.9921 4.00002 27.2549 4.26278 27.2549 4.59473V5.43555C27.2549 6.11366 27.7039 6.69996 28.3447 6.86328C30.0081 7.2822 31.5862 7.94054 33.0488 8.81738C33.6115 9.15287 34.3341 9.05712 34.8027 8.58496L35.417 7.97656C35.6496 7.74402 36.0262 7.74402 36.2588 7.97656L40.0215 11.7393C40.254 11.9718 40.254 12.3485 40.0215 12.5811L39.4131 13.1953C38.9392 13.6675 38.8452 14.3865 39.1807 14.9492C40.0628 16.4174 40.7158 17.9955 41.1348 19.6533C41.2981 20.2941 41.8862 20.7432 42.5625 20.7432H43.4033L43.4053 20.7451C43.7372 20.7451 44 21.0079 44 21.3398V26.6621C43.9998 26.9939 43.7371 27.2568 43.4053 27.2568H42.5635C41.8856 27.257 41.3 27.706 41.1367 28.3467C40.7178 30.01 40.0595 31.5882 39.1826 33.0508C38.8471 33.6135 38.9428 34.3361 39.415 34.8047L40.0234 35.4189C40.256 35.6515 40.2559 36.0272 40.0234 36.2598L36.2607 40.0234C36.0282 40.256 35.6515 40.256 35.4189 40.0234L34.8047 39.415C34.3325 38.9411 33.6135 38.8462 33.0508 39.1816C31.5826 40.0639 30.0046 40.7178 28.3467 41.1367C27.7059 41.3 27.257 41.8872 27.2568 42.5635V43.4053C27.2568 43.7371 26.9939 43.9999 26.6621 44H21.3398C21.008 43.9999 20.7452 43.7371 20.7451 43.4053V42.5635C20.745 41.8855 20.296 41.3 19.6553 41.1367C17.9918 40.7178 16.4139 40.0586 14.9512 39.1816C14.7277 39.0451 14.4738 38.9815 14.2236 38.9814C13.8509 38.9814 13.4776 39.1308 13.1953 39.4131L12.5811 40.0215C12.3485 40.254 11.9718 40.254 11.7393 40.0215L7.97656 36.2588C7.74402 36.0262 7.74402 35.6495 7.97656 35.417L8.58496 34.8027C9.05893 34.3305 9.15289 33.6116 8.81738 33.0488C7.81268 31.3712 7.09373 29.5494 6.69434 27.627C6.648 27.4089 6.45841 27.2549 6.24023 27.2549H4.59473C4.26284 27.2549 4.00011 26.992 4 26.6602V21.3379C4.00006 21.006 4.26281 20.7432 4.59473 20.7432H5.43652C6.11447 20.743 6.7 20.294 6.86328 19.6533C7.2822 17.9899 7.94055 16.4119 8.81738 14.9492C9.15289 14.3865 9.05717 13.6639 8.58496 13.1953L7.97656 12.5811C7.74402 12.3485 7.74402 11.9718 7.97656 11.7393L11.7393 7.97656C11.9718 7.74402 12.3485 7.74402 12.5811 7.97656L13.1953 8.58496C13.6675 9.05893 14.3865 9.15289 14.9492 8.81738C16.4174 7.93521 17.9955 7.28221 19.6533 6.86328C20.2941 6.69996 20.7432 6.11189 20.7432 5.43555V4.59473C20.7432 4.26286 21.0061 4.00015 21.3379 4H26.6602ZM24.0029 10.0459C16.3098 10.046 10.0528 16.304 10.0527 23.9971C10.0527 31.6902 16.313 37.9481 24.0029 37.9482C31.6961 37.9482 37.9541 31.6903 37.9541 23.9971C37.9541 16.3039 31.6961 10.0459 24.0029 10.0459ZM30.2832 19.3506C32.882 19.3506 34.7002 21.2582 34.7002 23.999C34.7002 26.6083 32.6406 28.6484 30.0098 28.6484C27.814 28.6483 26.0973 26.8851 24.5742 25.3301L24.3389 25.0889C24.252 24.9949 24.1345 24.9483 24.0068 24.9482C23.8791 24.9482 23.7565 24.9984 23.6748 25.0889L23.4932 25.2695C21.871 26.9275 20.1849 28.6463 17.7266 28.6465C15.1277 28.6465 13.3096 26.7379 13.3096 23.9971C13.3097 21.388 15.3685 19.3488 17.999 19.3486C20.1895 19.3486 21.9066 21.1114 23.4297 22.6611L23.6709 22.9062C23.843 23.0869 24.1569 23.0833 24.3291 22.9062L24.5107 22.7246C26.1329 21.0667 27.8191 19.3488 30.2773 19.3486L30.2832 19.3506ZM17.8574 20.7471C16.1161 20.7471 14.7023 22.1478 14.7021 24.001C14.7021 25.8559 16.016 27.2546 17.7607 27.2549C19.6568 27.2549 21.1257 25.6824 22.3115 24.4238L22.4072 24.3154L22.4082 24.3193C22.5822 24.1329 22.577 23.8465 22.3906 23.6689C22.1919 23.4791 21.9912 23.2748 21.7871 23.0654C20.7239 21.9738 19.5967 20.7473 17.8574 20.7471ZM30.2461 20.7441C28.3502 20.7441 26.8834 22.3117 25.7012 23.5703L25.5967 23.6777C25.4228 23.8641 25.4281 24.1555 25.6143 24.333C25.8148 24.5229 26.0142 24.7271 26.2148 24.9365C27.2835 26.0229 28.4871 27.2549 30.1504 27.2549V27.252C31.8916 27.2518 33.3045 25.851 33.3047 23.998C33.3047 22.143 31.991 20.7442 30.2461 20.7441Z" fill="#44ADC1"/>
</svg>
