<svg width="48" height="48" viewBox="0 0 48 48" fill="none" xmlns="http://www.w3.org/2000/svg">
<path d="M44.591 20.3449C44.4741 20.2479 43.4222 19.4528 41.1626 19.4528C40.5782 19.4528 39.9743 19.5111 39.39 19.608C38.9615 16.641 36.4876 15.206 36.3902 15.1284L35.7863 14.7793L35.3967 15.3417C34.9097 16.098 34.5396 16.9513 34.3254 17.8239C33.9163 19.5111 34.1695 21.1012 35.0266 22.4586C33.9942 23.0404 32.319 23.1762 31.9684 23.1955H4.30764C3.58693 23.1955 3.00254 23.7773 3.00254 24.4948C2.96363 26.8995 3.37265 29.3041 4.2103 31.5729C5.16474 34.0552 6.58678 35.8974 8.41785 37.0222C10.4826 38.2827 13.8525 39.0002 17.651 39.0002C19.3652 39.0002 21.0793 38.8451 22.7741 38.5348C25.131 38.1081 27.3907 37.2936 29.475 36.1107C31.1831 35.125 32.7223 33.8677 34.0331 32.3875C36.2343 29.9246 37.5394 27.171 38.4939 24.7275H38.8834C41.2794 24.7275 42.7598 23.7773 43.578 22.9628C44.1234 22.4586 44.5324 21.8381 44.8246 21.14L45 20.6358L44.591 20.3449Z" fill="#0091E2"/>
<path d="M6.87997 22.3999H10.581C10.7564 22.3999 10.9122 22.2643 10.9122 22.0704V18.7737C10.9122 18.5991 10.7758 18.444 10.581 18.444H6.87997C6.70467 18.444 6.54883 18.5797 6.54883 18.7737V22.0704C6.56828 22.2643 6.70467 22.4 6.87997 22.4V22.3999ZM11.9835 22.3999H15.6846C15.8599 22.3999 16.0158 22.2643 16.0158 22.0704V18.7737C16.0158 18.5991 15.8794 18.444 15.6846 18.444H11.9835C11.8082 18.444 11.6523 18.5797 11.6523 18.7737V22.0704C11.6718 22.2643 11.8082 22.4 11.9835 22.4M17.1844 22.4H20.8855C21.0608 22.4 21.2167 22.2643 21.2167 22.0704V18.7737C21.2167 18.5991 21.0803 18.444 20.8855 18.444H17.1844C17.0091 18.444 16.8533 18.5797 16.8533 18.7737V22.0704C16.8533 22.2643 16.9897 22.4 17.1844 22.4ZM22.3075 22.4H26.0086C26.1839 22.4 26.3398 22.2643 26.3398 22.0704V18.7737C26.3398 18.5991 26.2034 18.444 26.0086 18.444H22.3075C22.1322 18.444 21.9764 18.5797 21.9764 18.7737V22.0704C21.9764 22.2643 22.1322 22.4 22.3075 22.4ZM11.9835 17.6877H15.6846C15.8599 17.6877 16.0157 17.5326 16.0157 17.3581V14.0614C16.0157 13.8868 15.8793 13.7317 15.6846 13.7317H11.9835C11.8082 13.7317 11.6523 13.8674 11.6523 14.0614V17.3581C11.6718 17.5326 11.8083 17.6877 11.9835 17.6877ZM17.1844 17.6877H20.8855C21.0608 17.6877 21.2167 17.5326 21.2167 17.3581V14.0614C21.2167 13.8868 21.0803 13.7317 20.8855 13.7317H17.1844C17.0091 13.7317 16.8533 13.8674 16.8533 14.0614V17.3581C16.8533 17.5326 16.9897 17.6877 17.1844 17.6877ZM22.3075 17.6877H26.0086C26.1839 17.6877 26.3398 17.5326 26.3398 17.3581V14.0614C26.3398 13.8868 26.1838 13.7317 26.0086 13.7317H22.3075C22.1322 13.7317 21.9764 13.8674 21.9764 14.0614V17.3581C21.9764 17.5326 22.1322 17.6877 22.3075 17.6877ZM22.3075 12.956H26.0086C26.1839 12.956 26.3398 12.8203 26.3398 12.6264V9.32972C26.3398 9.15516 26.1838 9 26.0086 9H22.3075C22.1322 9 21.9764 9.13575 21.9764 9.32972V12.6264C21.9764 12.8009 22.1322 12.956 22.3075 12.956ZM27.4695 22.4H31.1706C31.3459 22.4 31.5017 22.2643 31.5017 22.0704V18.7737C31.5017 18.5991 31.3654 18.444 31.1706 18.444H27.4696C27.2942 18.444 27.1384 18.5797 27.1384 18.7737V22.0704C27.1579 22.2643 27.2943 22.4 27.4696 22.4" fill="#0091E2"/>
</svg>
