<svg width="48" height="48" viewBox="0 0 48 48" fill="none" xmlns="http://www.w3.org/2000/svg">
<path d="M44.9861 23.1285C45.0343 24.2587 44.8985 25.3845 44.583 26.4714C44.2718 27.5583 43.781 28.5845 43.1325 29.5155C42.4882 30.4471 41.6949 31.269 40.7837 31.9491L40.7617 31.9664L32.0018 38.453L27.6942 41.6789L25.0692 43.6362C24.9159 43.7531 24.745 43.8397 24.5653 43.9003C24.3856 43.9609 24.1928 43.9912 24 43.9912C23.8116 43.9912 23.6188 43.9609 23.4391 43.9003C23.2594 43.8397 23.0885 43.7531 22.9351 43.6362L20.3102 41.6789L16.0026 38.453L7.29523 32.0054L7.24264 31.9707L7.22511 31.9534C6.30924 31.2736 5.51607 30.4508 4.86751 29.5198C4.21895 28.5889 3.72815 27.5583 3.41264 26.4714C3.09712 25.3845 2.96127 24.2544 3.00948 23.1242C3.06206 21.994 3.29432 20.8812 3.70186 19.8246L3.75883 19.673L9.4863 4.92884C9.51552 4.85667 9.55057 4.78739 9.59147 4.72099C9.62945 4.6546 9.67474 4.59253 9.72732 4.5348C9.77699 4.47417 9.83103 4.41788 9.88946 4.36592C9.94789 4.31684 10.0092 4.27066 10.0735 4.22735C10.2094 4.14508 10.3496 4.08446 10.503 4.04982C10.652 4.01085 10.8097 3.99353 10.9631 4.00219C11.1208 4.01085 11.2742 4.04116 11.4188 4.09745C11.5634 4.14941 11.7037 4.22735 11.8264 4.32262C11.8848 4.37169 11.9418 4.42365 11.9973 4.4785C12.0499 4.53624 12.0966 4.5983 12.1375 4.6647C12.1813 4.72821 12.2193 4.79605 12.2514 4.86822C12.2836 4.9375 12.3099 5.00967 12.3303 5.08473L16.191 16.7632H31.8178L35.6784 5.08473C35.6989 5.00967 35.7266 4.9375 35.7617 4.86822C35.7938 4.79894 35.8318 4.7311 35.8756 4.6647C35.9165 4.60119 35.9633 4.54057 36.0159 4.48283C36.0685 4.4251 36.1254 4.37169 36.1868 4.32262C36.3095 4.22735 36.4453 4.15374 36.5899 4.09745C36.7389 4.04549 36.8923 4.01518 37.0457 4.00652C37.2034 3.99786 37.3568 4.01085 37.5102 4.04982C37.6592 4.08879 37.8038 4.14941 37.9353 4.23168C38.0024 4.2721 38.0653 4.31829 38.1237 4.37025C38.1821 4.41932 38.2362 4.47417 38.2858 4.5348C38.3355 4.59542 38.3808 4.65893 38.4217 4.72532C38.4596 4.79172 38.4932 4.861 38.5225 4.93317L44.2412 19.6817L44.2981 19.8333C44.7057 20.8855 44.9379 21.9983 44.9861 23.1285Z" fill="#E24329"/>
<path d="M44.9905 23.1328C45.0387 24.2586 44.9029 25.3888 44.5874 26.4757C44.2718 27.5625 43.781 28.5931 43.1325 29.5241C42.4839 30.4551 41.6908 31.2778 40.7793 31.9577L40.7574 31.975L31.9974 38.4616C31.9974 38.4616 28.277 35.6859 24 32.4859L36.5549 23.0981C37.1202 22.6781 37.7118 22.2927 38.3209 21.9377C38.93 21.5783 39.561 21.2578 40.2052 20.972C40.8538 20.6862 41.5155 20.4308 42.1859 20.2186C42.8608 20.0021 43.5444 19.8245 44.2412 19.6816L44.2981 19.8332C44.7057 20.8898 44.9379 22.0026 44.9905 23.1328Z" fill="#FC6D26"/>
<path d="M24.0004 32.4863C28.2773 35.6777 32.0022 38.462 32.0022 38.462L27.6945 41.6879L25.0696 43.6452C24.9162 43.7621 24.7453 43.8487 24.5657 43.9093C24.386 43.9699 24.1932 44.0002 24.0004 44.0002C23.8119 44.0002 23.6191 43.9699 23.4394 43.9093C23.2598 43.8487 23.0889 43.7621 22.9355 43.6452L20.3106 41.6879L16.0029 38.462C16.0029 38.462 19.7234 35.6777 24.0004 32.4863Z" fill="#FCA326"/>
<path d="M24 32.4771C19.7186 35.6771 16.0026 38.4528 16.0026 38.4528L7.29523 32.0052L7.24264 31.9705L7.22511 31.9532C6.30924 31.2734 5.51607 30.4506 4.86751 29.5196C4.21895 28.5887 3.72815 27.5581 3.41264 26.4712C3.09712 25.3843 2.96127 24.2542 3.00948 23.124C3.06206 21.9938 3.29432 20.881 3.70186 19.8244L3.75883 19.6729C4.45559 19.8157 5.13921 19.9933 5.81406 20.2098C6.48453 20.4263 7.14623 20.6774 7.79479 20.9676C8.43897 21.2534 9.07 21.5781 9.67912 21.9332C10.2882 22.2883 10.8754 22.678 11.4451 23.098L24 32.4771Z" fill="#FC6D26"/>
</svg>
