<svg width="48" height="48" viewBox="0 0 48 48" fill="none" xmlns="http://www.w3.org/2000/svg">
<path d="M30.9308 16.3868L34.5817 12.7103L34.8242 11.1629C28.1723 5.07024 17.5975 5.76191 11.5992 12.604C9.93298 14.5038 8.69814 16.8734 8.03906 19.3213L9.34611 19.1348L16.6478 17.923L17.2106 17.3432C20.4578 13.7506 25.9507 13.2677 29.6997 16.3234L30.9308 16.3868Z" fill="#EA4335"/>
<path d="M39.7851 19.2114C38.9465 16.0998 37.2229 13.3014 34.8273 11.1611L29.7028 16.3216C31.867 18.1021 33.0981 20.783 33.0463 23.5963V24.5117C35.5641 24.5117 37.6061 26.568 37.6061 29.1035C37.6061 31.639 35.5641 33.6451 33.0463 33.6451H23.9136L23.0176 34.6257V40.1348L23.9136 40.9999H33.0463C39.5963 41.0521 44.9485 35.7965 45.0004 29.2005C45.0318 25.2015 43.0731 21.4523 39.7851 19.2114Z" fill="#4285F4"/>
<path d="M14.7918 40.9993H23.9134V33.6464H14.7918C14.1457 33.6464 13.5089 33.5047 12.922 33.2344L11.6279 33.6333L7.95114 37.3098L7.63086 38.5608C9.69325 40.1287 12.2092 41.0105 14.7918 40.9993Z" fill="#34A853"/>
<path d="M14.7914 17.1466C8.2395 17.1857 2.96134 22.5662 3.00021 29.1641C3.02243 32.848 4.73121 36.3157 7.63041 38.5622L12.9215 33.2339C10.6259 32.1899 9.60578 29.4698 10.6425 27.1581C11.6793 24.8463 14.3804 23.819 16.676 24.8631C17.6869 25.3236 18.4978 26.1383 18.955 27.1581L24.2461 21.8298C21.9949 18.8655 18.4959 17.1335 14.7914 17.1466Z" fill="#FBBC05"/>
</svg>
