<svg width="48" height="48" viewBox="0 0 48 48" fill="none" xmlns="http://www.w3.org/2000/svg">
<path d="M43.9376 21.7431C43.8675 21.0309 43.7507 20.2136 43.5172 19.3029C43.2837 18.4039 42.9335 17.4115 42.4198 16.3841C41.906 15.3566 41.2405 14.2942 40.3765 13.2551C40.038 12.8464 39.6643 12.4495 39.2674 12.0642C39.8628 9.69406 38.5435 7.63918 38.5435 7.63918C36.2668 7.49908 34.819 8.35138 34.282 8.73667C34.1886 8.70165 34.1068 8.65494 34.0134 8.61992C33.6282 8.46814 33.2312 8.31636 32.8109 8.18793C32.4022 8.0595 31.9819 7.94274 31.5499 7.83766C31.1179 7.73258 30.6859 7.65086 30.2423 7.5808C30.1605 7.56913 30.0905 7.55745 30.0088 7.54578C29.0164 4.37006 26.1676 3.03906 26.1676 3.03906C22.9802 5.05891 22.3847 7.88437 22.3847 7.88437C22.3847 7.88437 22.373 7.94274 22.3497 8.04782C22.1746 8.09452 21.9994 8.1529 21.8243 8.1996C21.5791 8.26965 21.3339 8.36306 21.1004 8.45646C20.8552 8.54987 20.6217 8.64327 20.3765 8.74835C19.8978 8.95851 19.4192 9.19201 18.9521 9.44887C18.4968 9.70573 18.0531 9.98594 17.6211 10.2778L17.5044 10.2311C13.0911 8.54987 9.1798 10.5697 9.1798 10.5697C8.81787 15.2632 10.9428 18.2171 11.3631 18.7542C11.258 19.0461 11.1646 19.338 11.0712 19.6298C10.7443 20.6923 10.4991 21.7781 10.3473 22.9106C10.324 23.0741 10.3006 23.2376 10.289 23.401C6.20257 25.4209 5 29.5423 5 29.5423C8.39755 33.4536 12.3672 33.6987 12.3672 33.6987L12.3789 33.6871C12.8809 34.5861 13.4647 35.4384 14.1185 36.244C14.3987 36.5826 14.6789 36.8978 14.9825 37.213C13.7449 40.7624 15.1576 43.7046 15.1576 43.7046C18.9405 43.8447 21.4273 42.0467 21.9527 41.638C22.3263 41.7665 22.7116 41.8832 23.0969 41.9766C24.2645 42.2802 25.4554 42.4553 26.6462 42.502C26.9381 42.5137 27.2417 42.5254 27.5336 42.5137H27.9539L28.1407 42.502V42.5137C29.927 45.0589 33.0561 45.4209 33.0561 45.4209C35.2861 43.0741 35.4145 40.739 35.4145 40.237V40.202V40.1319V40.0268C35.8815 39.6999 36.3252 39.3496 36.7455 38.9644C37.6328 38.1588 38.4151 37.2364 39.0689 36.244L39.244 35.9638C41.7659 36.1039 43.5523 34.3993 43.5523 34.3993C43.132 31.7723 41.6375 30.488 41.3223 30.2428C41.007 29.9976 41.3106 30.2311 41.2872 30.2195C41.2639 30.2078 41.2639 30.1961 41.2639 30.1961C41.2522 30.1844 41.2289 30.1728 41.2055 30.1611C41.2172 29.9976 41.2289 29.8458 41.2405 29.6824C41.2639 29.4022 41.2639 29.1103 41.2639 28.8301V28.4565V28.3864L41.2522 28.2113L41.2405 27.9778C41.2405 27.8961 41.2289 27.826 41.2172 27.7559C41.2055 27.6859 41.2055 27.6042 41.1938 27.5341L41.1705 27.3123L41.1355 27.0904C41.0887 26.7986 41.042 26.5184 40.972 26.2265C40.7035 25.0939 40.2598 24.0198 39.6877 23.0507C39.1039 22.0817 38.3801 21.2294 37.5511 20.5055C36.7338 19.7816 35.8115 19.1979 34.8541 18.7659C33.885 18.3339 32.8809 18.0537 31.8768 17.9252C31.3748 17.8552 30.8727 17.8318 30.3707 17.8435H29.9971L29.8103 17.8552C29.7402 17.8552 29.6702 17.8669 29.6118 17.8669C29.3549 17.8902 29.0981 17.9252 28.8529 17.9719C27.8488 18.1587 26.9031 18.5207 26.0741 19.0227C25.2452 19.5248 24.5213 20.1436 23.9375 20.8441C23.3538 21.5446 22.8984 22.3269 22.5832 23.1325C22.268 23.9381 22.0928 24.7787 22.0461 25.5843C22.0345 25.7828 22.0345 25.993 22.0345 26.1914V26.3432L22.0461 26.5067C22.0578 26.6001 22.0578 26.7052 22.0695 26.7986C22.1045 27.2072 22.1862 27.6042 22.2913 27.9778C22.5131 28.7367 22.8634 29.4255 23.2954 30.0093C23.7274 30.5931 24.2528 31.0718 24.8015 31.4571C25.3503 31.8307 25.9457 32.0992 26.5295 32.2743C27.1133 32.4495 27.697 32.5195 28.2458 32.5195H28.5493C28.5844 32.5195 28.6194 32.5195 28.6544 32.5078C28.7128 32.5078 28.7712 32.4962 28.8295 32.4962C28.8412 32.4962 28.8646 32.4962 28.8763 32.4845L28.9346 32.4728C28.9697 32.4728 29.0047 32.4611 29.0397 32.4611C29.1098 32.4495 29.1681 32.4378 29.2382 32.4261C29.3082 32.4144 29.3666 32.4028 29.425 32.3794C29.5534 32.3561 29.6702 32.3094 29.7869 32.2743C30.0204 32.1926 30.254 32.0992 30.4524 31.9941C30.6626 31.889 30.8494 31.7606 31.0362 31.6439C31.0829 31.6088 31.1413 31.5738 31.188 31.5271C31.3748 31.3753 31.4098 31.0951 31.258 30.9083C31.1296 30.7449 30.8961 30.6982 30.7093 30.8032L30.5692 30.8733C30.4057 30.955 30.2423 31.0251 30.0671 31.0834C29.892 31.1418 29.7052 31.1885 29.5184 31.2235C29.425 31.2352 29.3316 31.2469 29.2265 31.2586C29.1798 31.2586 29.1331 31.2703 29.0747 31.2703H28.7945C28.7361 31.2703 28.6778 31.2703 28.6194 31.2586H28.5493C28.526 31.2586 28.491 31.2586 28.4676 31.2469C28.4092 31.2352 28.3625 31.2352 28.3042 31.2235C27.8722 31.1652 27.4402 31.0367 27.0315 30.8499C26.6112 30.6631 26.2143 30.4063 25.8523 30.0794C25.4904 29.7524 25.1751 29.3672 24.93 28.9235C24.6848 28.4798 24.5096 27.9895 24.4279 27.4757C24.3929 27.2189 24.3695 26.9503 24.3812 26.6935C24.3812 26.6234 24.3929 26.5534 24.3929 26.4833V26.3899C24.3929 26.3549 24.4046 26.3199 24.4046 26.2848C24.4162 26.1447 24.4396 26.0046 24.4629 25.8645C24.6614 24.7437 25.2218 23.6462 26.0858 22.8172C26.3077 22.6071 26.5412 22.4203 26.7864 22.2451C27.0315 22.07 27.3001 21.9182 27.5803 21.7898C27.8605 21.6614 28.1407 21.5563 28.4443 21.4746C28.7361 21.3928 29.0397 21.3461 29.3549 21.3111C29.5067 21.2994 29.6585 21.2878 29.822 21.2878H30.1839L30.3123 21.2994C30.6509 21.3228 30.9778 21.3695 31.3047 21.4512C31.9586 21.5913 32.6007 21.8365 33.1962 22.1634C34.3871 22.8289 35.4028 23.8564 36.0216 25.0939C36.3369 25.7127 36.5587 26.3782 36.6638 27.0671C36.6871 27.2422 36.7105 27.4174 36.7221 27.5925L36.7338 27.7209L36.7455 27.8493V28.3514C36.7455 28.4331 36.7338 28.5732 36.7338 28.655C36.7221 28.8418 36.6988 29.0402 36.6754 29.2271C36.6521 29.4139 36.6171 29.6007 36.582 29.7875C36.547 29.9743 36.5003 30.1611 36.4536 30.3362C36.3602 30.6982 36.2434 31.0601 36.1033 31.422C35.8231 32.1226 35.4495 32.7997 35.0059 33.4185C34.1068 34.6561 32.8809 35.6602 31.4799 36.3024C30.7793 36.6176 30.0438 36.8511 29.2849 36.9679C28.9113 37.0379 28.526 37.0729 28.1407 37.0846H27.5569C27.3468 37.0846 27.1483 37.0729 26.9381 37.0496C26.1208 36.9912 25.3152 36.8394 24.5213 36.6176C23.7391 36.3958 22.9802 36.0805 22.2563 35.7069C20.8202 34.9363 19.5242 33.8855 18.5201 32.6129C18.0181 31.9825 17.5744 31.2936 17.2125 30.5814C16.8506 29.8692 16.5587 29.1103 16.3485 28.3514C16.1384 27.5808 16.0099 26.7986 15.9516 26.0046L15.9399 25.8528V25.1874V25.1056V24.8137C15.9516 24.4284 15.9866 24.0198 16.0333 23.6228C16.08 23.2259 16.15 22.8172 16.2318 22.4203C16.3135 22.0233 16.4069 21.6263 16.5236 21.2294C16.7455 20.4471 17.0257 19.6882 17.3526 18.976C18.0181 17.5516 18.8821 16.279 19.9212 15.2632C20.1781 15.0064 20.4466 14.7729 20.7268 14.5394C21.007 14.3175 21.2989 14.1074 21.6025 13.9089C21.8943 13.7104 22.2096 13.5353 22.5248 13.3718C22.6766 13.2901 22.8401 13.2084 23.0035 13.1383L23.2487 13.0332L23.4939 12.9282C23.8208 12.788 24.1594 12.6713 24.5096 12.5662C24.5914 12.5429 24.6848 12.5195 24.7665 12.4845C24.8482 12.4611 24.9416 12.4378 25.0234 12.4144C25.1985 12.3677 25.3736 12.321 25.5488 12.286C25.6305 12.2627 25.7239 12.251 25.8173 12.2276C25.9107 12.2043 25.9924 12.1926 26.0858 12.1692C26.1792 12.1576 26.261 12.1342 26.3544 12.1225L26.4828 12.0992L26.6229 12.0758C26.7163 12.0642 26.798 12.0525 26.8914 12.0408C26.9965 12.0291 27.0899 12.0175 27.195 12.0058C27.2767 11.9941 27.4168 11.9824 27.4986 11.9708C27.5569 11.9591 27.627 11.9591 27.6854 11.9474L27.8138 11.9357L27.8722 11.9241H27.9422C28.0473 11.9124 28.1407 11.9124 28.2458 11.9007L28.3976 11.889H28.5143C28.596 11.889 28.6894 11.8774 28.7712 11.8774C29.1098 11.8657 29.46 11.8657 29.7986 11.8774C30.4758 11.9007 31.1413 11.9824 31.7834 12.0992C33.0794 12.3444 34.2936 12.753 35.4028 13.3018C36.512 13.8388 37.4927 14.5043 38.3567 15.2282C38.4151 15.2749 38.4618 15.3216 38.5202 15.3683C38.5669 15.415 38.6252 15.4617 38.6719 15.5084C38.777 15.6018 38.8704 15.6952 38.9755 15.7886C39.0806 15.882 39.174 15.9754 39.2674 16.0688C39.3608 16.1622 39.4542 16.2556 39.5476 16.3607C39.9095 16.746 40.2481 17.1313 40.5517 17.5283C41.1588 18.3105 41.6492 19.1045 42.0345 19.8517L42.1045 19.9918L42.1746 20.1319C42.2213 20.2253 42.268 20.3187 42.303 20.4121C42.3497 20.5055 42.3847 20.5872 42.4314 20.6806C42.4664 20.774 42.5132 20.8558 42.5482 20.9492C42.6883 21.2994 42.8284 21.638 42.9335 21.9533C43.1086 22.467 43.237 22.9223 43.3421 23.3193C43.3771 23.4827 43.5289 23.5878 43.6924 23.5645C43.8675 23.5528 43.9959 23.4127 43.9959 23.2376C44.0076 22.8172 43.9959 22.3152 43.9376 21.7431Z" fill="url(#paint0_linear_599_14449)"/>
<defs>
<linearGradient id="paint0_linear_599_14449" x1="24.498" y1="15.6369" x2="24.498" y2="44.8803" gradientUnits="userSpaceOnUse">
<stop stop-color="#F05A28"/>
<stop offset="1" stop-color="#FBCA0A"/>
</linearGradient>
</defs>
</svg>
