<svg width="48" height="48" viewBox="0 0 48 48" fill="none" xmlns="http://www.w3.org/2000/svg">
<path d="M15.6047 21.4098C15.7168 21.1342 15.8485 20.8673 15.998 20.609C16.1546 20.3404 16.329 20.0822 16.5212 19.836C17.6085 18.4425 19.1799 17.5274 20.9222 17.2518C21.8885 15.3523 23.8781 14.1269 26.1148 14.1269C26.5028 14.1269 26.8872 14.1632 27.2627 14.2378C27.7859 13.5081 28.4479 12.8824 29.2185 12.3902C29.3342 12.3156 29.4552 12.2446 29.5762 12.177C29.8752 12.0089 30.1848 11.8615 30.5051 11.7385C29.4516 10.8632 28.0991 10.3571 26.6826 10.3519C26.4619 7.36559 23.8957 5 20.7742 5C18.4838 5 16.4301 6.27564 15.448 8.23937C14.8963 8.01059 14.302 7.89273 13.6951 7.89273C11.7215 7.89273 10.0042 9.14409 9.42047 10.9345C6.41293 11.0402 4 13.4563 4 16.4116C4 19.4343 6.5235 21.8921 9.62731 21.8921H15.4323C15.4839 21.731 15.5426 21.5715 15.6085 21.4138L15.6047 21.4098ZM23.8639 11.7402C23.8247 11.7472 23.7874 11.7506 23.75 11.7506C23.4368 11.7506 23.1609 11.5322 23.104 11.222C22.9047 10.1266 22.0683 9.28947 20.9702 9.09362C20.011 8.9203 19.301 9.07802 18.7351 9.58759C18.4681 9.82677 18.0535 9.81118 17.8079 9.55119C17.5623 9.29121 17.5783 8.88737 17.8453 8.64817C18.7173 7.86478 19.8491 7.59266 21.2087 7.83705C22.8495 8.13342 24.1024 9.37438 24.396 11.0019C24.4583 11.3485 24.2198 11.6813 23.8639 11.742L23.8639 11.7402ZM8.78697 19.1097C8.65706 19.257 8.47376 19.3332 8.29048 19.3332C8.13922 19.3332 7.98617 19.283 7.8616 19.179C7.00383 18.4597 6.51268 17.4267 6.51268 16.3435C6.51268 15.3469 6.91842 14.4075 7.65162 13.6969C7.90788 13.4473 8.32433 13.449 8.57881 13.6986C8.83508 13.9482 8.8333 14.3538 8.57703 14.6016C8.09121 15.0713 7.82428 15.6901 7.82428 16.3435C7.82428 17.0559 8.14995 17.7353 8.71585 18.2102C8.98991 18.4407 9.02194 18.8445 8.78525 19.1114L8.78697 19.1097ZM45 23.6301C45 20.4566 42.3573 17.8739 39.1025 17.8602C38.8819 14.8739 36.3157 12.5096 33.1941 12.5096C32.5997 12.5096 32.0214 12.5963 31.4715 12.7575C31.0355 12.8857 30.6208 13.0625 30.2311 13.2809C29.2221 13.8476 28.391 14.7004 27.8678 15.749C27.3161 15.5219 26.7217 15.4023 26.1149 15.4023C24.1413 15.4023 22.4239 16.6537 21.8385 18.4441C20.0963 18.5048 18.5551 19.3419 17.5639 20.6089C17.2613 20.9971 17.0086 21.427 16.82 21.8863C16.5602 22.5154 16.4178 23.2017 16.4178 23.9193C16.4178 26.942 18.9413 29.3999 22.0433 29.3999H23.152V24.5383C23.152 23.481 24.0347 22.6213 25.1202 22.6213C26.2058 22.6213 27.0885 23.481 27.0885 24.5383V26.8451H27.2273V24.6959C27.2273 23.6387 28.11 22.779 29.1955 22.779C30.2811 22.779 31.1638 23.6387 31.1638 24.6959V26.8451H31.3008V24.5383C31.3008 23.481 32.1835 22.6213 33.269 22.6213C34.3546 22.6213 35.2373 23.481 35.2373 24.5383V29.3999H39.0741C42.3397 29.3999 44.9984 26.8122 44.9984 23.63L45 23.6301ZM21.0038 21.2088C21.2582 21.4584 21.2582 21.864 21.0002 22.1118C20.5162 22.5815 20.2475 23.2003 20.2475 23.8537C20.2475 24.5661 20.5713 25.2455 21.139 25.7203C21.4131 25.9509 21.4451 26.353 21.2084 26.6216C21.1817 26.6528 21.1533 26.6788 21.123 26.703C21.0038 26.7966 20.8578 26.8452 20.7119 26.8452C20.5607 26.8452 20.4094 26.7949 20.283 26.6909C19.427 25.9716 18.9359 24.9386 18.9359 23.8554C18.9359 22.8588 19.3399 21.9194 20.0748 21.207C20.324 20.9661 20.7208 20.9609 20.9771 21.188C20.986 21.1949 20.9949 21.2018 21.002 21.2105L21.0038 21.2088ZM33.3932 16.6036C32.4358 16.4303 31.7257 16.588 31.1581 17.0976C30.8911 17.3368 30.4765 17.3212 30.2309 17.0612C30.2095 17.0369 30.1882 17.0127 30.1704 16.9867C29.9906 16.7302 30.0262 16.3766 30.2682 16.1582C30.7185 15.7544 31.2363 15.4857 31.8183 15.354C31.8503 15.3401 31.8823 15.3263 31.9144 15.3124L32.0389 15.2708L32.0603 15.2569C32.4233 15.1287 32.8024 15.0628 33.1903 15.0628C34.5767 15.0628 35.7654 15.8982 36.2531 17.0803C36.5271 17.5049 36.7211 17.9868 36.8154 18.5102C36.8581 18.7476 36.7603 18.9782 36.5788 19.1203C36.4951 19.1861 36.3955 19.2312 36.2833 19.2503C36.2442 19.2572 36.2068 19.2607 36.1677 19.2607C35.8544 19.2607 35.5786 19.0423 35.5216 18.732C35.3241 17.6366 34.4859 16.7995 33.3879 16.6037L33.3932 16.6036ZM43.6847 34.9183C43.6847 35.9617 42.8127 36.8126 41.7414 36.8126C40.7698 36.8126 39.9636 36.1142 39.8194 35.2077L39.8177 35.1921C39.8141 35.1661 39.8105 35.1401 39.807 35.1124C39.8052 35.0864 39.8016 35.0604 39.8016 35.0326V35.0257V35.0136C39.7999 34.9824 39.7999 34.9512 39.7999 34.92C39.7999 34.8888 39.7999 34.8593 39.8016 34.8298V34.8125C39.8016 34.7969 39.8034 34.7813 39.8052 34.764C39.807 34.7328 39.8105 34.6998 39.8159 34.6686C39.8177 34.6478 39.8212 34.6288 39.8248 34.608C39.8301 34.5768 39.8354 34.5473 39.8426 34.5161C39.8426 34.5127 39.8443 34.5075 39.8443 34.5057C39.8497 34.4815 39.855 34.4555 39.8639 34.4312C39.8639 34.4295 39.8639 34.426 39.8657 34.4225C40.0882 33.6183 40.8462 33.0239 41.7414 33.0239C42.8128 33.0239 43.6847 33.8731 43.6847 34.9165L43.6847 34.9183ZM38.5987 34.0915C38.5257 34.355 38.4866 34.6323 38.4866 34.9183C38.4866 35.0708 38.4972 35.2233 38.5186 35.3689H33.2721C32.9091 35.3689 32.6155 35.0829 32.6155 34.7293V24.5362C32.6155 24.1826 32.9091 23.8966 33.2721 23.8966C33.6352 23.8966 33.9288 24.1826 33.9288 24.5362V34.0913L38.5987 34.0915ZM25.7801 24.5364V34.7295C25.7801 35.0831 25.4864 35.3691 25.1234 35.3691H19.8769C19.8823 35.3275 19.8876 35.2842 19.893 35.2426V35.2408C19.8965 35.2027 19.9001 35.1663 19.9036 35.1282C19.9054 35.097 19.9072 35.0658 19.909 35.0346C19.9108 34.9965 19.9108 34.9583 19.9108 34.9202C19.9108 34.8578 19.909 34.7937 19.9036 34.7226L19.9001 34.6619C19.8983 34.6325 19.8947 34.6013 19.8912 34.5718C19.8876 34.5424 19.8841 34.5129 19.8805 34.4834C19.8716 34.4245 19.8627 34.3656 19.8502 34.3084C19.8431 34.2772 19.836 34.2442 19.8289 34.2131C19.8236 34.1888 19.8182 34.1645 19.8111 34.1403C19.8075 34.1247 19.804 34.1091 19.8004 34.0935H24.4701V24.5384C24.4701 24.1848 24.7637 23.8988 25.1268 23.8988C25.4898 23.8988 25.7834 24.1848 25.7834 24.5384L25.7801 24.5364ZM18.5956 34.7952C18.5974 34.8368 18.5991 34.8767 18.5991 34.9165C18.5991 34.9547 18.5991 34.9928 18.5956 35.0292C18.5938 35.0569 18.592 35.0829 18.5885 35.1089C18.5849 35.1401 18.5813 35.1713 18.576 35.2043C18.4319 36.1107 17.6239 36.8092 16.654 36.8092C15.5827 36.8092 14.7107 35.9599 14.7107 34.9148C14.7107 33.8714 15.5827 33.0222 16.654 33.0222C17.5438 33.0222 18.2966 33.6063 18.5262 34.4036C18.5333 34.4295 18.5404 34.4555 18.5475 34.4833C18.5511 34.4989 18.5546 34.5145 18.5582 34.5301C18.5635 34.5526 18.5671 34.5769 18.5724 34.5994C18.5813 34.6514 18.5884 34.7069 18.5938 34.7606C18.5938 34.771 18.5956 34.7814 18.5956 34.7935L18.5956 34.7952ZM29.1983 34.9356C28.974 34.9356 28.7534 34.9581 28.5416 34.9997V24.6926C28.5416 24.339 28.8352 24.053 29.1983 24.053C29.5595 24.053 29.8549 24.339 29.8549 24.6926V34.9997C29.6432 34.9581 29.4243 34.9356 29.1983 34.9356ZM31.1416 38.1073C31.1416 39.1508 30.2696 40 29.1983 40C28.1269 40 27.2532 39.1507 27.2532 38.1073C27.2532 37.194 27.9205 36.4296 28.805 36.2528C28.9313 36.2286 29.063 36.2147 29.1965 36.2147C29.3317 36.2147 29.4616 36.2286 29.588 36.2528C30.4724 36.4296 31.1398 37.1957 31.1398 38.1073H31.1416Z" fill="#44ADC1"/>
</svg>
