<svg width="48" height="48" viewBox="0 0 48 48" fill="none" xmlns="http://www.w3.org/2000/svg">
<path fill-rule="evenodd" clip-rule="evenodd" d="M36.6649 27.7241H11.3339C11.0292 27.7241 10.7715 27.4566 10.7715 27.1403V21.0106C10.7715 20.6944 11.0292 20.4512 11.3339 20.4512H36.6649C36.9695 20.4512 37.2038 20.6944 37.2038 21.0106V27.1403C37.2038 27.4566 36.9695 27.7241 36.6649 27.7241ZM15.6455 26.3376C14.4505 26.3376 13.4663 25.316 13.4663 24.0755C13.4663 22.835 14.4505 21.8377 15.6455 21.8377C16.8406 21.8377 17.8014 22.835 17.8014 24.0755C17.8014 25.316 16.8406 26.3376 15.6455 26.3376ZM15.6455 22.9566C15.0363 22.9566 14.5676 23.4674 14.5676 24.0755C14.5676 24.7079 15.0363 25.1944 15.6455 25.1944C16.2314 25.1944 16.7234 24.7079 16.7234 24.0755C16.7234 23.4674 16.2314 22.9566 15.6455 22.9566ZM33.9466 24.6593H30.4317C30.1271 24.6593 29.8927 24.3917 29.8927 24.0755C29.8927 23.7593 30.1271 23.516 30.4317 23.516H33.9466C34.2513 23.516 34.4856 23.7593 34.4856 24.0755C34.4856 24.3917 34.2513 24.6593 33.9466 24.6593ZM27.7838 24.6593H24.2688C23.9642 24.6593 23.7299 24.3917 23.7299 24.0755C23.7299 23.7593 23.9642 23.516 24.2688 23.516H27.7838C28.0884 23.516 28.3227 23.7593 28.3227 24.0755C28.3227 24.3917 28.0884 24.6593 27.7838 24.6593Z" fill="#44ADC1"/>
<path fill-rule="evenodd" clip-rule="evenodd" d="M36.6649 36.7485H11.3339C11.0292 36.7485 10.7715 36.481 10.7715 36.1648V30.035C10.7715 29.7188 11.0292 29.4756 11.3339 29.4756H36.6649C36.9695 29.4756 37.2038 29.7188 37.2038 30.035V36.1648C37.2038 36.481 36.9695 36.7485 36.6649 36.7485ZM15.6455 35.3621C14.4505 35.3621 13.4663 34.3404 13.4663 33.0999C13.4663 31.8594 14.4505 30.8621 15.6455 30.8621C16.8406 30.8621 17.8014 31.8594 17.8014 33.0999C17.8014 34.3404 16.8406 35.3621 15.6455 35.3621ZM15.6455 32.0053C15.0363 32.0053 14.5676 32.4918 14.5676 33.0999C14.5676 33.7323 15.0363 34.2188 15.6455 34.2188C16.2314 34.2188 16.7234 33.7323 16.7234 33.0999C16.7234 32.4918 16.2314 32.0053 15.6455 32.0053ZM33.9466 33.6837H30.4317C30.1271 33.6837 29.8927 33.4161 29.8927 33.0999C29.8927 32.808 30.1271 32.5404 30.4317 32.5404H33.9466C34.2513 32.5404 34.4856 32.808 34.4856 33.0999C34.4856 33.4161 34.2513 33.6837 33.9466 33.6837ZM27.7838 33.6837H24.2688C23.9642 33.6837 23.7299 33.4161 23.7299 33.0999C23.7299 32.808 23.9642 32.5404 24.2688 32.5404H27.7838C28.0884 32.5404 28.3227 32.808 28.3227 33.0999C28.3227 33.4161 28.0884 33.6837 27.7838 33.6837Z" fill="#44ADC1"/>
<path fill-rule="evenodd" clip-rule="evenodd" d="M23.9882 30.6189C23.6835 30.6189 23.4492 30.3513 23.4492 30.0351V27.1405C23.4492 26.8243 23.6835 26.5811 23.9882 26.5811C24.2928 26.5811 24.5506 26.8243 24.5506 27.1405V30.0351C24.5506 30.3513 24.2928 30.6189 23.9882 30.6189Z" fill="#44ADC1"/>
<path fill-rule="evenodd" clip-rule="evenodd" d="M23.9882 39.6433C23.6835 39.6433 23.4492 39.3757 23.4492 39.0838V36.1649C23.4492 35.873 23.6835 35.6055 23.9882 35.6055C24.2928 35.6055 24.5506 35.873 24.5506 36.1649V39.0838C24.5506 39.3757 24.2928 39.6433 23.9882 39.6433Z" fill="#44ADC1"/>
<path fill-rule="evenodd" clip-rule="evenodd" d="M23.9879 43C22.7928 43 21.832 42.0027 21.832 40.7622C21.832 39.5216 22.7928 38.5 23.9879 38.5C25.1829 38.5 26.1671 39.5216 26.1671 40.7622C26.1671 42.0027 25.1829 43 23.9879 43Z" fill="#44ADC1"/>
<path fill-rule="evenodd" clip-rule="evenodd" d="M28.4173 41.321H25.6288C25.3242 41.321 25.0664 41.0777 25.0664 40.7615C25.0664 40.4453 25.3242 40.1777 25.6288 40.1777H28.4173C28.7219 40.1777 28.9563 40.4453 28.9563 40.7615C28.9563 41.0777 28.7219 41.321 28.4173 41.321Z" fill="#44ADC1"/>
<path fill-rule="evenodd" clip-rule="evenodd" d="M22.3704 41.321H19.5819C19.2773 41.321 19.043 41.0777 19.043 40.7615C19.043 40.4453 19.2773 40.1777 19.5819 40.1777H22.3704C22.6751 40.1777 22.9094 40.4453 22.9094 40.7615C22.9094 41.0777 22.6751 41.321 22.3704 41.321Z" fill="#44ADC1"/>
<path fill-rule="evenodd" clip-rule="evenodd" d="M9.6942 32.8567C8.31166 32.3216 7.04628 31.4216 6.08553 30.2297C4.74985 28.6 4 26.5081 4 24.3675C4 20.6946 6.15583 17.3865 9.38957 16C9.41301 11.0378 13.3263 7 18.1066 7C21.7153 7 24.9022 9.28648 26.2144 12.7162C26.8705 12.5216 27.5501 12.4486 28.2531 12.4486C30.5964 12.4486 32.7991 13.4946 34.2988 15.3676C34.6268 15.3432 34.9549 15.3189 35.283 15.3189C40.0867 15.3189 44 19.3811 44 24.3675C44 26.5081 43.2501 28.6 41.9145 30.2297C40.9303 31.4216 39.6883 32.3216 38.3058 32.8567V30.0351C38.3058 29.427 38.0012 28.8918 37.5325 28.6C38.0012 28.2837 38.3058 27.7486 38.3058 27.1405V21.0108C38.3058 20.0865 37.5794 19.3081 36.6655 19.3081H11.3345C10.4206 19.3081 9.6942 20.0865 9.6942 21.0108V27.1405C9.6942 27.7486 9.99883 28.2837 10.4675 28.6C9.99883 28.8918 9.6942 29.427 9.6942 30.0351V32.8567Z" fill="#44ADC1"/>
</svg>
