<svg width="48" height="48" viewBox="0 0 48 48" fill="none" xmlns="http://www.w3.org/2000/svg">
<g clip-path="url(#clip0_599_14434)">
<path d="M38.2766 23.0129C38.2766 31.3315 31.6812 38.0814 23.5408 38.0814C15.4005 38.0814 8.80518 31.3315 8.80518 23.0129C8.80518 14.6943 15.4006 7.94434 23.5408 7.94434C31.6813 7.94434 38.2767 14.6943 38.2767 23.0129" fill="#D33833"/>
<path d="M9.41116 26.7438C9.41116 26.7438 8.34165 11.0338 22.8278 10.582L21.8177 8.89453L13.9626 11.5327L11.7166 14.1115L9.75584 17.8667L8.63867 22.24L8.9715 25.1634" fill="#EF3D3A"/>
<path d="M13.4516 12.7332C10.8729 15.3832 9.26852 19.0316 9.26852 23.072C9.26852 27.1124 10.8729 30.7607 13.4516 33.4107C16.0422 36.0608 19.5955 37.6889 23.5408 37.6889C27.4862 37.6889 31.0394 36.0608 33.6301 33.4109C36.2088 30.7607 37.8131 27.1124 37.8131 23.072C37.8131 19.0315 36.2088 15.3832 33.6301 12.7332C31.0395 10.095 27.4862 8.45516 23.5408 8.45516C19.6074 8.45516 16.0423 10.0831 13.4516 12.7332ZM12.798 34.0406C10.053 31.236 8.35352 27.3501 8.35352 23.072C8.35352 18.7939 10.053 14.9079 12.798 12.0915C15.5431 9.28693 19.3459 7.54004 23.5409 7.54004C27.7358 7.54004 31.5386 9.28693 34.2837 12.0915C37.0288 14.896 38.7282 18.7819 38.7282 23.072C38.7282 27.35 37.0288 31.236 34.2837 34.0406C31.5386 36.857 27.7358 38.592 23.5408 38.592C19.3459 38.592 15.5431 36.857 12.798 34.0406Z" fill="#231F20"/>
<path d="M29.7442 23.0961L27.4981 23.4289L24.4678 23.7735L22.507 23.8211L20.5937 23.7617L19.132 23.3102L17.8366 21.9077L16.8265 19.0438L16.6008 18.4258L15.258 17.9743L14.4735 16.679L13.915 14.8251L14.533 13.1971L15.9948 12.686L17.1712 13.2446L17.7297 14.4806L18.4071 14.3735L18.6328 14.0884L18.4071 12.793L18.3477 11.1649L18.6804 8.91895L18.6685 7.63555L19.6905 5.99561L21.4849 4.70023L24.6223 3.35742L28.1042 3.86834L31.1345 6.05501L32.5368 8.30097L33.4399 9.92905L33.6657 13.9694L32.9884 17.4514L31.7524 20.5412L30.5879 22.193" fill="#F0D6B7"/>
<path d="M27.8427 32.805L19.8212 33.1377V34.4805L20.4986 39.1984L20.1657 39.5905L14.5567 37.6773L14.1645 36.9999L13.606 30.654L12.2869 26.8512L12.0017 25.9481L16.4937 22.8584L17.8961 22.2998L19.1319 23.8208L20.2014 24.7716L21.4374 25.1637L21.9959 25.3302L22.6733 28.2536L23.1843 28.8716L24.4796 28.4199L23.5764 30.1667L28.4487 32.4722L27.8427 32.8049" fill="#335061"/>
<path d="M14.5331 13.2202L15.9949 12.7093L17.1713 13.2678L17.7298 14.5037L18.4072 14.3968L18.5736 13.7194L18.2408 12.424L18.5735 9.33433L18.2884 7.64684L19.2985 6.47038L21.485 4.73535L20.867 3.8916L17.7773 5.41262L16.4821 6.42284L15.7571 7.9914L14.6401 9.51254L14.3074 11.307L14.5331 13.2202Z" fill="#6D6B6D"/>
<path d="M16.8386 7.94357C16.8386 7.94357 17.6822 5.86397 21.0454 4.85387C24.4084 3.84377 21.2118 4.12893 21.2118 4.12893L17.5633 5.53126L16.1612 6.93347L15.5432 8.05052L16.8386 7.94357ZM15.1511 12.8278C15.1511 12.8278 13.9745 8.89427 18.4666 8.3358L18.3002 7.65841L15.2105 8.38335L14.3074 11.3068L14.5331 13.2199L15.1511 12.8278Z" fill="#DCD9D8"/>
<path d="M16.9455 18.0448L17.6822 17.3317C17.6822 17.3317 18.015 17.3674 18.0744 17.7595C18.1338 18.1518 18.3002 21.6931 20.7126 23.5945C20.9384 23.7727 18.9182 23.3092 18.9182 23.3092L17.1236 20.5047M27.2724 16.9752C27.2724 16.9752 27.4031 15.2759 27.8665 15.4066C28.33 15.5373 28.33 16.0007 28.33 16.0007C28.33 16.0007 27.213 16.7138 27.2724 16.9752ZM31.9308 10.7483C31.9308 10.7483 31.0038 10.9383 30.9207 11.7584C30.8374 12.5783 31.9308 11.9247 32.0971 11.8653M25.1452 10.8077C25.1452 10.8077 23.9093 10.974 23.9093 11.7584C23.9093 12.5426 25.3116 12.4832 25.7037 12.1505M17.5158 14.4559C17.5158 14.4559 15.3888 13.1606 15.1631 14.3965C14.9373 15.6324 14.4381 16.5236 15.4958 17.8189L14.7708 17.5932L14.0936 15.8582L13.8677 14.1707L15.1631 12.8279L16.6247 12.9348L17.4684 13.6122L17.516 14.4559M18.5261 10.9146C18.5261 10.9146 19.4766 5.97094 24.3015 5.02025C28.2705 4.2359 30.3621 5.18672 31.1464 6.08975C31.1464 6.08975 27.6051 1.883 24.242 3.1664C20.879 4.46178 18.4071 6.81469 18.4665 8.32397C18.5616 10.9145 18.5259 10.9145 18.5259 10.9145M31.5385 6.64833C31.5385 6.64833 29.9106 6.58893 29.851 8.05054C29.851 8.05054 29.851 8.27642 29.9581 8.50218C29.9581 8.50218 31.2534 7.04044 32.0377 7.82479" fill="#F7E4CD"/>
<path d="M24.4203 8.65722C24.4203 8.65722 24.1352 6.42312 22.2338 7.71838C20.9978 8.56213 21.1166 9.73858 21.3306 9.96446C21.5564 10.1902 21.497 10.6417 21.6633 10.3329C21.8297 10.0239 21.7821 9.01376 22.4001 8.72848C23.0061 8.44332 24.0282 8.13445 24.4203 8.65722Z" fill="#F7E4CD"/>
<path d="M19.1439 23.8208L13.8673 26.1735C13.8673 26.1735 16.0539 34.8724 14.9368 37.57L14.1526 37.2849L14.0931 33.9693L12.6314 27.6948L12.0134 25.9596L17.5156 22.252L19.1436 23.8206M19.6785 28.6335L20.4272 29.5486V32.9116H19.536C19.536 32.9116 19.429 30.5587 19.429 30.2736C19.429 29.9883 19.536 28.9782 19.536 28.9782M19.7023 33.4227L17.1711 33.5296L17.8961 34.0407L19.6904 34.326" fill="#49728B"/>
<path d="M28.3419 32.8641L30.4214 32.8047L30.9324 37.9621L28.8053 38.2474L28.3418 32.864" fill="#335061"/>
<path d="M28.9004 32.8641L32.0376 32.6977C32.0376 32.6977 33.333 29.4416 33.333 29.2753C33.333 29.1088 34.4501 24.5575 34.4501 24.5575L31.9188 21.9193L31.4078 21.4678L30.065 22.8106V28.0275L28.9004 32.8641Z" fill="#335061"/>
<path d="M30.3026 32.4718L28.3418 32.864L28.6271 34.4327C29.3519 34.7654 30.5879 33.8741 30.5879 33.8741M30.362 22.6441L34.2956 25.5674L34.4025 24.2245L31.4316 21.4795L30.3621 22.6441" fill="#49728B"/>
<path d="M21.6513 43.9162L20.4867 39.1984L19.9044 35.7165L19.8093 33.1377L25.0737 32.8525H28.3418L28.0447 38.7468L28.5557 43.2982L28.4962 44.142L24.23 44.4748L21.6513 43.9162Z" fill="white"/>
<path d="M27.617 32.8045C27.617 32.8045 27.3318 38.6395 28.1755 42.7987C28.1755 42.7987 26.4881 43.8682 24.0281 44.1415L28.746 43.9751L29.3044 43.6424L28.6272 34.4445L28.4488 32.4717" fill="#DCD9D8"/>
<path d="M31.0157 37.5221L33.2022 36.9041L37.3497 36.6784L37.9677 34.7651L36.8505 31.4496L35.5552 31.2832L33.7608 31.8418L32.0495 32.6855L31.1345 32.5191L30.4214 32.8043" fill="white"/>
<path d="M30.98 36.3934C30.98 36.3934 32.4417 35.716 32.6675 35.7754L32.0495 32.6857L32.7744 32.4004C32.7744 32.4004 33.2855 35.3239 33.2855 35.6566C33.2855 35.6566 36.4227 35.8229 36.7079 35.8229C36.7079 35.8229 37.3853 34.5275 37.2189 33.1847L37.8369 34.9792L37.8963 35.9893L36.9931 37.3321L35.983 37.558L34.2956 37.4986L33.737 36.7736L31.7762 37.0588L31.1582 37.2847" fill="#DCD9D8"/>
<path d="M28.7698 32.4122L27.5338 29.2749L26.2385 27.4209C26.2385 27.4209 26.5238 26.6367 26.9159 26.6367H28.2113L29.4473 27.0882L29.3402 29.168L28.7698 32.4122Z" fill="white"/>
<path d="M29.0192 31.3434C29.0192 31.3434 27.4505 28.3131 27.4505 27.8615C27.4505 27.8615 27.7358 27.1841 28.1279 27.3506C28.5202 27.5169 29.3639 27.9686 29.3639 27.9686V26.8989L27.4505 26.5068L26.1553 26.6732L28.3418 31.8545L28.7933 31.9139" fill="#DCD9D8"/>
<path d="M22.1505 23.9393L20.5938 23.7728L19.1321 23.3213V23.8323L19.845 24.6167L22.0911 25.6268" fill="white"/>
<path d="M19.643 24.1055C19.643 24.1055 21.3779 24.8304 21.9485 24.6641L22.0078 25.3414L20.4392 25.0086L19.4885 24.3312L19.643 24.1055Z" fill="#DCD9D8"/>
<path d="M31.0157 26.8272C30.065 26.8034 29.1974 26.6846 28.4488 26.4707C28.4963 26.1617 28.4012 25.8647 28.4845 25.6388C28.6984 25.4843 29.0429 25.4843 29.3638 25.4487C29.0905 25.3179 28.6984 25.2585 28.3894 25.3418C28.3774 25.1279 28.2824 24.9971 28.2229 24.8307C28.7578 24.6405 30.0175 23.3928 30.7304 23.7968C31.0751 23.9988 31.2177 25.1159 31.2415 25.6745C31.2652 26.126 31.1939 26.5776 31.0157 26.8272Z" fill="#D33833"/>
<path d="M31.0157 26.8272C30.065 26.8034 29.1974 26.6846 28.4488 26.4707C28.4963 26.1617 28.4012 25.8647 28.4845 25.6388C28.6984 25.4843 29.0429 25.4843 29.3638 25.4487C29.0905 25.3179 28.6984 25.2585 28.3894 25.3418C28.3774 25.1279 28.2824 24.9971 28.2229 24.8307C28.7578 24.6405 30.0175 23.3928 30.7304 23.7968C31.0751 23.9988 31.2177 25.1159 31.2415 25.6745C31.2652 26.126 31.1939 26.5776 31.0157 26.8272Z" fill="black" stroke="#D33833" stroke-width="11.9904"/>
<path d="M26.4642 25.2704C26.4642 25.3418 26.4642 25.4129 26.4522 25.4843C26.1552 25.6745 25.6797 25.6745 25.347 25.8408C25.8225 25.8645 26.2028 25.9833 26.5355 26.1378C26.5235 26.3162 26.5235 26.5064 26.5117 26.6846C25.965 27.053 25.466 27.6116 24.8243 27.968C24.5153 28.1344 23.4576 28.5622 23.1368 28.479C22.9584 28.4315 22.9347 28.2057 22.8635 27.9918C22.709 27.5403 22.3524 26.8034 22.3167 26.1141C22.281 25.2467 22.1861 23.7849 23.1248 23.9631C23.8853 24.1058 24.7647 24.4505 25.347 24.7713C25.7154 24.9852 25.9175 25.2228 26.4642 25.2704Z" fill="#D33833"/>
<path d="M26.4642 25.2704C26.4642 25.3418 26.4642 25.4129 26.4522 25.4843C26.1552 25.6745 25.6797 25.6745 25.347 25.8408C25.8225 25.8645 26.2028 25.9833 26.5355 26.1378C26.5235 26.3162 26.5235 26.5064 26.5117 26.6846C25.965 27.053 25.466 27.6116 24.8243 27.968C24.5153 28.1344 23.4576 28.5622 23.1368 28.479C22.9584 28.4315 22.9347 28.2057 22.8635 27.9918C22.709 27.5403 22.3524 26.8034 22.3167 26.1141C22.281 25.2467 22.1861 23.7849 23.1248 23.9631C23.8853 24.1058 24.7647 24.4505 25.347 24.7713C25.7154 24.9852 25.9175 25.2228 26.4642 25.2704Z" fill="black" stroke="#D33833" stroke-width="11.9904"/>
<path d="M26.999 26.3039C26.9158 25.8284 26.8207 25.6979 26.8563 25.2818C28.1279 24.4381 28.3538 26.7317 26.999 26.3039Z" fill="#D33833"/>
<path d="M26.999 26.3039C26.9158 25.8284 26.8207 25.6979 26.8563 25.2818C28.1279 24.4381 28.3538 26.7317 26.999 26.3039Z" fill="black" stroke="#D33833" stroke-width="11.9904"/>
<path d="M28.8291 26.6846C28.8291 26.6846 28.437 26.126 28.7222 25.9596C29.0074 25.7933 29.2807 25.9596 29.4471 25.6745C29.6136 25.3892 29.4471 25.2229 29.5065 24.8901C29.5659 24.5574 29.8392 24.498 30.1245 24.4386C30.4096 24.3791 31.194 24.2721 31.3009 24.5455L30.9682 23.5353L30.2908 23.3096L28.1637 24.5455L28.0567 25.1635V26.3994M22.9349 28.5384C22.8636 27.659 22.7923 26.7915 22.721 25.9121C22.6022 24.605 23.03 24.8306 24.1707 24.8306C24.3491 24.8306 25.2402 25.0328 25.2997 25.1635C25.6087 25.7933 24.7887 25.6506 25.6562 26.126C26.3811 26.5182 27.6765 25.8884 27.3793 24.9971C27.2129 24.795 26.5237 24.9377 26.2742 24.8069L24.9551 24.1296C24.3966 23.8443 23.1131 23.4165 22.5189 23.8206C21.0096 24.8426 22.614 27.4095 23.1488 28.479" fill="#EF3D3A"/>
<path d="M24.4202 8.65684C22.8872 8.3003 22.1267 9.29854 21.6632 10.3324C21.2473 10.2374 21.4136 9.66694 21.5207 9.38178C21.7939 8.63312 22.8992 7.6229 23.8022 7.76555C24.1825 7.81309 24.7054 8.16963 24.4202 8.65684ZM31.8713 10.3918H31.9425C32.2872 11.1048 32.5842 11.8655 33.024 12.5072C32.727 13.1964 30.8136 13.7906 30.8373 12.5784C31.2533 12.4002 31.9664 12.5427 32.3348 12.3051C32.1209 11.7228 31.8237 11.2235 31.8713 10.3918ZM25.1927 10.4157C25.5254 11.0217 25.6322 11.6516 26.0957 12.1032C26.3097 12.3051 26.7137 12.5547 26.5118 13.125C26.4642 13.2558 26.1196 13.553 25.9175 13.6124C25.1927 13.8263 23.4932 13.6599 24.0637 12.7448C24.6697 12.7686 25.4779 13.137 25.9295 12.6972C25.5848 12.1506 24.9668 11.0573 25.1927 10.4157ZM31.598 16.5237C30.5046 17.225 29.2805 17.9974 27.4743 17.8191C27.0941 17.4864 26.9396 16.7376 27.3198 16.2505C27.5099 16.5833 27.3911 17.2012 27.9378 17.2962C28.9598 17.4745 30.1481 16.6664 30.8849 16.3932C31.3364 15.6207 30.8493 15.3474 30.4334 14.8482C29.5896 13.8381 28.4726 12.5784 28.5081 11.0693C28.8528 10.8197 28.8765 11.4495 28.9241 11.5565C29.3638 12.5784 30.4691 13.8975 31.2651 14.777C31.4672 14.9909 31.788 15.2048 31.8237 15.3474C31.9307 15.7514 31.5504 16.2503 31.598 16.5237ZM17.1235 15.7871C16.779 15.585 16.6958 14.7294 16.2917 14.7056C15.7095 14.67 15.8164 15.8227 15.8164 16.5C15.4243 16.1436 15.3529 15.0264 15.6382 14.4561C15.3055 14.2896 15.1627 14.6343 14.9727 14.7531C15.2222 13.0301 17.5038 13.9569 17.1235 15.7871ZM32.2872 17.2487C31.7762 18.2232 31.0512 19.2927 29.5539 19.3284C29.5182 19.0194 29.4945 18.5322 29.5539 18.342C30.7067 18.2232 31.4196 17.6409 32.2872 17.2487ZM25.1095 17.8785C26.0602 18.3777 27.8189 18.4371 29.1261 18.4014C29.1974 18.6867 29.1974 19.0431 29.1974 19.3878C27.5219 19.4591 25.5491 19.0431 25.1095 17.8785ZM24.9312 18.8055C25.5967 20.4691 27.8664 20.2791 29.7797 20.2315C29.6966 20.4454 29.5182 20.7069 29.2806 20.79C28.6626 21.0396 26.9752 21.2298 26.1196 20.7781C25.5848 20.493 25.2283 19.8393 24.9312 19.459C24.8005 19.2808 24.0875 18.8173 24.9312 18.8055Z" fill="#231F20"/>
<path d="M31.5149 27.968C30.7424 29.2989 29.9939 30.6656 29.0789 31.8302C29.459 30.7013 29.6253 28.7999 29.6849 27.3501C30.4929 26.9697 31.1822 27.4331 31.5149 27.968Z" fill="#81B0C4"/>
<path d="M35.6859 32.7451C34.8184 32.9233 34.2123 33.7671 33.3567 33.7077C33.832 33.054 34.6401 32.7688 35.6859 32.7451ZM36.0661 34.0998C35.3532 34.1712 34.5213 34.29 33.8083 34.2306C34.1529 33.7077 35.4601 33.8977 36.0661 34.0998ZM36.3157 35.2764C35.5195 35.2882 34.5331 35.2764 33.7726 35.2168C34.2241 34.7296 35.8047 35.0386 36.3157 35.2764Z" fill="#231F20"/>
<path d="M30.0174 38.4847C30.1362 39.4829 30.5284 40.4931 30.4808 41.5864C30.0411 41.7289 29.7916 41.8597 29.1973 41.8597C29.1618 40.9327 29.031 39.5067 29.0667 38.6155C29.3518 38.6392 29.7796 38.4134 30.0174 38.4847Z" fill="#DCD9D8"/>
<path d="M28.734 23.7491C28.3299 24.0105 27.9972 24.3313 27.6049 24.6166C26.7493 24.6641 26.2858 24.5572 25.668 24.07C25.6798 24.0343 25.7392 24.0462 25.7392 23.9986C26.6542 24.4027 27.8188 23.8324 28.734 23.7491Z" fill="#F0D6B7"/>
<path d="M23.9568 29.9647C24.2064 28.8832 25.1928 28.3129 26.0839 27.7188C26.9989 28.8833 27.5575 30.3806 28.1755 31.8304C26.7138 31.3907 25.2283 30.6896 23.9568 29.9647Z" fill="#81B0C4"/>
<path d="M29.0668 38.6277C29.0311 39.519 29.15 40.9331 29.1975 41.8719C29.7918 41.8719 30.0412 41.7412 30.481 41.5986C30.5286 40.5052 30.1363 39.4951 30.0175 38.4969C29.7798 38.4138 29.352 38.6395 29.0668 38.6277ZM19.8926 33.589C20.2848 37.1659 20.8433 40.1605 21.8771 43.3336C24.1707 44.0347 26.9277 44.0941 28.9599 43.4643C28.5915 41.6818 28.746 39.5071 28.5321 37.5937C28.3656 36.1558 28.4489 34.7179 28.2231 33.2562C25.7631 32.7453 22.2932 33.1374 19.8926 33.589ZM28.8054 33.28C28.7816 34.813 28.8766 36.334 28.9956 37.867C29.5896 37.7839 29.9818 37.7245 30.5286 37.5937C30.3502 36.1201 30.3741 34.4446 30.0057 33.1374C29.5897 33.1494 29.2212 33.1375 28.8054 33.28ZM31.7881 33.0304C31.503 32.971 31.1821 33.0304 30.9207 33.0304C31.0513 34.2783 31.3485 35.6568 31.4554 36.9759C31.8714 36.9877 32.0971 36.7857 32.4418 36.7263C32.4655 35.5735 32.3467 33.9811 31.7881 33.0304ZM36.3159 37.1659C37.1953 36.952 37.7419 35.8825 37.4923 34.7773C37.326 34.0405 37.0408 32.6383 36.7198 32.1629C36.4941 31.8183 35.8642 31.3548 35.3533 31.6757C34.5333 32.1985 33.0954 32.353 32.5012 32.9829C32.7982 33.9811 32.8933 35.3359 33.0121 36.5955C34.0342 36.655 35.2819 36.3104 36.1376 36.6787C35.5434 36.8689 34.7829 36.8689 34.2718 37.1541C34.6996 37.3561 35.6742 37.3204 36.3159 37.1659ZM28.1637 31.8301C27.5457 30.3804 26.9872 28.8831 26.0721 27.7185C25.1808 28.3125 24.2064 28.8831 23.945 29.9644C25.2284 30.6894 26.7139 31.3905 28.1637 31.8301ZM29.6847 27.3501C29.6253 28.7999 29.4589 30.7012 29.0787 31.8301C29.9937 30.6537 30.7425 29.2989 31.5148 27.968C31.1821 27.4332 30.4929 26.9697 29.6848 27.35L29.6847 27.3501ZM27.9616 26.7441C27.617 26.7083 27.3199 27.1481 26.8683 26.9579C26.7614 27.0767 26.6663 27.1956 26.5593 27.3144C27.5576 28.5264 28.021 30.2379 28.7935 31.6519C29.2095 30.2854 29.1619 28.7999 29.257 27.3144C28.6866 27.3381 28.3657 26.7798 27.9616 26.7441ZM26.8565 25.2822C26.8208 25.6982 26.9159 25.829 26.999 26.3043C28.3538 26.7321 28.128 24.4385 26.8565 25.2822ZM25.3472 24.7832C24.7649 24.4622 23.8856 24.1176 23.1249 23.9751C22.1862 23.7968 22.2812 25.2585 22.3169 26.1261C22.3526 26.8152 22.7091 27.5402 22.8636 28.0037C22.9349 28.2176 22.9586 28.4433 23.1369 28.4909C23.4578 28.5622 24.5273 28.1463 24.8244 27.9798C25.4661 27.6353 25.9652 27.0768 26.5119 26.6964C26.5237 26.5182 26.5237 26.328 26.5356 26.1498C26.2029 25.9833 25.8345 25.8765 25.3472 25.8528C25.6681 25.6863 26.1553 25.6863 26.4524 25.4963C26.4524 25.4249 26.4524 25.3536 26.4643 25.2822C25.9176 25.2228 25.7156 24.9852 25.3472 24.7832ZM19.7619 23.7731C19.2747 24.2721 21.1284 24.9377 21.7109 24.9734C21.7109 24.6644 21.8891 24.3673 21.8534 24.1415C21.1523 24.0227 20.2373 24.1058 19.7619 23.7731ZM25.7514 23.9988C25.7514 24.0464 25.6919 24.0345 25.68 24.0702C26.3098 24.5574 26.7732 24.6642 27.617 24.6168C27.9973 24.3435 28.3419 24.0108 28.746 23.7492C27.819 23.8325 26.6545 24.4029 25.7514 23.9988ZM31.2415 25.6626C31.2178 25.1159 31.0751 23.987 30.7305 23.7849C30.0175 23.369 28.7578 24.6287 28.2231 24.8189C28.2825 24.9852 28.3776 25.1159 28.3894 25.3298C28.7104 25.2467 29.0906 25.3061 29.3639 25.4367C29.043 25.4724 28.6984 25.4724 28.4845 25.6269C28.4132 25.8527 28.5083 26.1498 28.4489 26.4588C29.1975 26.6727 30.0651 26.7797 31.0158 26.8152C31.194 26.5776 31.2652 26.126 31.2415 25.6626ZM18.9419 24.2484C18.7874 24.1415 17.7536 22.7985 17.6109 22.8579C15.7452 23.5949 13.9984 24.8664 12.4415 26.0784C13.927 29.2752 14.5331 33.1849 14.6401 36.952C16.3395 37.7482 17.8367 38.901 20.154 39.0198C19.8807 37.1304 19.6431 35.4309 19.4886 33.6483C18.9063 33.3988 18.0744 33.6603 17.5278 33.577C17.5278 32.9235 18.3596 33.2919 18.4309 32.8522C18.4785 32.5194 17.9674 32.4957 18.1338 31.9728C18.5616 32.1273 18.7874 32.4719 19.239 32.6026C19.655 31.6995 19.239 30.0952 19.2984 29.3346C19.3104 29.1921 19.3697 28.5503 19.6905 28.6572C19.9758 28.7523 19.6787 30.3804 19.7025 31.0934C19.7262 31.7589 19.6193 32.3887 19.8926 32.8047C22.1268 32.4957 24.3966 32.3055 26.8208 32.2342C26.286 32.0085 25.6562 31.7946 24.9669 31.4023C24.5867 31.1884 23.4102 30.7488 23.3033 30.3923C23.1249 29.8218 23.7548 29.5248 23.8617 29.0375C22.7328 29.6555 22.5189 28.4434 22.2456 27.5996C22.0079 26.8271 21.8654 26.2449 21.806 25.8051C20.8196 25.3061 19.7738 24.8426 18.9419 24.2484ZM30.2551 23.0124C31.812 22.2639 32.0971 25.829 31.4791 26.9817C31.5742 27.3263 31.8951 27.457 32.0259 27.7659C31.1583 29.3227 30.1959 30.7725 29.3045 32.3055C29.9581 31.8896 30.9088 32.2342 31.6812 31.9252C31.9665 31.8183 32.1685 31.1647 32.3824 30.6418C32.9764 29.2158 33.5944 27.4094 33.8679 26.0548C33.9273 25.7458 34.1055 25.0683 34.0579 24.795C33.9867 24.296 33.3211 23.9276 32.9764 23.6304C32.3467 23.06 31.9545 22.5729 31.289 22.038C31.0395 22.4303 30.469 22.6916 30.2551 23.0126V23.0124ZM15.3887 9.2155C14.6519 10.0355 14.8064 11.5567 14.8896 12.6499C16.2324 11.8063 18.0032 12.7213 17.9912 14.1473C18.6329 14.1353 18.2289 13.3511 18.1101 12.8401C17.7298 11.1883 18.7518 9.40569 18.1576 7.89653C17.0049 7.99151 16.0661 8.45488 15.3887 9.2155ZM20.6888 4.474C19.0133 4.94935 16.8623 6.17335 16.173 7.68251C16.7078 7.59939 17.0762 7.33795 17.5991 7.30226C17.8011 7.2904 18.0626 7.38549 18.2883 7.32609C18.7399 7.20728 19.1321 6.18521 19.4766 5.80495C19.8095 5.43656 20.2134 5.2702 20.4869 4.93749C20.6651 4.85426 20.9264 4.85426 20.9384 4.59281C20.8671 4.50957 20.7839 4.45029 20.6888 4.474ZM29.4233 4.92552C27.6765 3.93925 24.7293 3.20246 22.8755 4.12932C21.378 4.87797 19.358 6.11383 18.6686 7.67077C19.3103 9.17981 18.4785 10.5583 18.419 12.0913C18.3953 12.9113 18.7994 13.6126 18.8349 14.5039C18.6092 14.8722 17.9437 14.9078 17.4803 14.8841C17.3258 14.0996 17.0525 13.2203 16.2443 13.1252C15.1035 12.9946 14.2598 13.9453 14.2123 14.9317C14.1528 16.0962 15.1035 18.0214 16.4582 17.8907C16.9811 17.8431 17.1119 17.3202 17.6822 17.3202C17.9912 17.9382 17.207 18.1283 17.1237 18.568C17.0999 18.6869 17.1831 19.1265 17.2425 19.3404C17.4921 20.3505 18.0387 21.6696 18.5735 22.4421C19.2627 23.4284 20.6057 23.571 22.0554 23.6661C22.3169 23.1075 23.2676 23.1551 23.8854 23.2977C23.1369 23.0007 22.4477 22.2876 21.8772 21.6578C21.2235 20.9328 20.5581 20.1605 20.5224 19.2098C21.7703 20.9328 22.7922 22.4421 25.0502 23.2028C26.7614 23.7731 28.7578 22.9412 30.0769 22.0143C30.6235 21.6339 30.9444 21.0161 31.3366 20.4694C32.7864 18.3779 33.4638 15.4069 33.3211 12.5192C33.2617 11.3309 33.2617 10.1425 32.8576 9.34629C32.4418 8.5144 31.0276 7.75389 30.1957 8.5144C30.0412 7.69449 30.885 7.19531 31.8713 7.49244C31.1703 6.57744 30.4335 5.49596 29.4233 4.92552ZM32.6794 31.7946C34.0461 31.1172 36.5892 29.9763 37.4329 31.7946C37.7539 32.4719 38.1222 33.6009 38.2767 34.302C38.5024 35.2765 38.0271 37.3443 37.017 37.665C36.1257 37.9503 35.0919 37.9384 34.0224 37.7245C33.8916 37.6176 33.7609 37.4392 33.654 37.249C32.8935 37.2253 32.1685 37.2849 31.5742 37.6057C31.6336 38.176 31.2534 38.2593 30.885 38.3782C30.6235 39.4357 31.4197 40.8142 31.2297 41.7649C31.0989 42.4542 30.2551 42.5611 29.6373 42.6799C29.6134 43.0603 29.661 43.3811 29.7085 43.702C29.566 44.2249 28.9361 44.5219 28.33 44.5933C26.3455 44.8309 23.339 44.9378 21.4376 44.2486C20.9027 42.9415 20.4869 41.3609 20.0471 39.8755C18.1932 40.0774 16.6841 39.0792 15.2699 38.4138C14.7827 38.188 14.1053 38.0572 13.9151 37.6651C13.7369 37.2849 13.8082 36.5599 13.7606 35.8825C13.6537 34.1356 13.5467 32.4481 13.0952 30.6656C12.8932 29.8575 12.5248 29.1564 12.2752 28.384C12.0376 27.6709 11.6335 26.7797 11.5265 26.0666C11.372 25.009 12.3703 24.9495 13.0001 24.486C13.9865 23.7731 14.7589 23.3808 15.8284 22.7391C16.1493 22.5491 17.0999 22.0737 17.2069 21.8478C17.4209 21.4083 16.8386 20.7903 16.6841 20.4456C16.4345 19.899 16.3037 19.4355 16.2681 18.9007C15.3768 18.7581 14.6876 18.2234 14.2836 17.6292C13.6061 16.631 13.1308 14.789 13.725 13.3987C13.7726 13.2917 13.9984 13.0658 14.034 12.8995C14.1053 12.5668 13.9033 12.127 13.8914 11.7706C13.832 9.9523 14.2004 8.38362 15.4244 7.83701C15.9235 5.8525 17.7059 5.19894 19.3817 4.21256C20.0115 3.84416 20.7008 3.60655 21.4137 3.34498C23.9687 2.40626 27.9022 2.58447 30.0294 4.18872C30.9325 4.86612 32.3704 6.30401 32.8815 7.3498C34.248 10.0949 34.1412 14.6939 33.1905 18.0452C33.0597 18.4967 32.8815 19.1503 32.62 19.697C32.4418 20.0772 31.8832 20.8259 31.9426 21.1586C32.014 21.5033 33.2262 22.4183 33.4876 22.6679C33.9511 23.1194 34.8423 23.7137 34.9135 24.2841C34.9968 24.8901 34.6522 25.722 34.474 26.3043C33.9034 28.2532 33.3331 30.0477 32.6794 31.7946Z" fill="#231F20"/>
<path d="M23.5884 18.2943C23.6597 18.1992 24.0636 18.0449 24.6341 18.3182C24.6341 18.3182 23.9567 18.4251 24.0161 19.5542L23.7309 19.4946C23.7429 19.5066 23.4458 18.4845 23.5884 18.2943Z" fill="#F7E4CD"/>
<path d="M28.5081 27.9438C28.5081 28.1101 28.3656 28.2528 28.1991 28.2528C28.0328 28.2528 27.8901 28.1101 27.8901 27.9438C27.8901 27.7773 28.0328 27.6348 28.1991 27.6348C28.3775 27.6348 28.5081 27.7773 28.5081 27.9438ZM28.8171 29.3817C28.8171 29.5481 28.6746 29.6907 28.5081 29.6907C28.3418 29.6907 28.1991 29.5481 28.1991 29.3817C28.1991 29.2152 28.3418 29.0727 28.5081 29.0727C28.6865 29.0727 28.8171 29.2034 28.8171 29.3817Z" fill="#1D1919"/>
</g>
<defs>
<clipPath id="clip0_599_14434">
<rect width="48" height="48" fill="white"/>
</clipPath>
</defs>
</svg>
