<svg width="48" height="48" viewBox="0 0 48 48" fill="none" xmlns="http://www.w3.org/2000/svg">
<path d="M16.4095 43.3631C15.4318 43.3631 14.5086 42.9382 13.8839 42.1679L4.37919 30.6142C3.75453 29.8439 3.51019 28.8613 3.75453 27.9049L7.14913 13.4827C7.36634 12.5265 8.01813 11.7562 8.91442 11.3313L22.6558 4.90354C23.0903 4.69126 23.5792 4.58496 24.068 4.58496C24.5569 4.58496 25.0456 4.6911 25.4801 4.9037L39.2216 11.3048C40.1178 11.7297 40.7696 12.5 40.9868 13.4562L44.3814 27.8784C44.5987 28.8346 44.3814 29.8173 43.7569 30.5876L34.2518 42.1414C33.6272 42.885 32.7039 43.3366 31.7262 43.3366L16.4098 43.3631H16.4095Z" fill="#326DE6"/>
<path d="M24.0407 5.24841C24.421 5.24841 24.8011 5.32801 25.1542 5.48738L38.8957 11.8885C39.6017 12.2337 40.1448 12.8712 40.3078 13.615L43.7024 28.0372C43.8925 28.8075 43.7024 29.6043 43.1864 30.2151L33.6815 41.769C33.1927 42.3798 32.4322 42.7251 31.6448 42.7251H16.4096C15.622 42.7251 14.8617 42.3798 14.3728 41.769L4.86795 30.2151C4.37911 29.6043 4.18887 28.8075 4.35198 28.0372L7.74658 13.615C7.93666 12.8447 8.45263 12.2072 9.15868 11.8885L22.9004 5.461C23.2534 5.32817 23.6607 5.24857 24.0408 5.24857L24.0407 5.24841ZM24.0407 4C23.4704 4 22.9002 4.13283 22.3569 4.3718L8.61558 10.7996C7.52921 11.3042 6.76889 12.2337 6.49726 13.3758L3.10266 27.7982C2.83119 28.9403 3.10266 30.109 3.86314 31.0386L13.368 42.5924C14.1014 43.4954 15.2147 44 16.3825 44H31.6175C32.7852 44 33.8987 43.4954 34.6319 42.5924L44.137 31.0385C44.8973 30.1355 45.1689 28.9403 44.8973 27.798L41.5027 13.3758C41.2312 12.2337 40.4707 11.3042 39.3845 10.7996L25.6973 4.37164C25.1813 4.13283 24.6111 4 24.0407 4Z" fill="white"/>
<path d="M37.8091 26.8952C37.782 26.8952 37.782 26.8952 37.8091 26.8952H37.782C37.7549 26.8952 37.7278 26.8952 37.7278 26.8687C37.6735 26.8687 37.6192 26.8422 37.5648 26.8422C37.3747 26.8156 37.2118 26.7891 37.0488 26.7891C36.9673 26.7891 36.8859 26.7891 36.7772 26.7624H36.7501C36.1798 26.7093 35.7181 26.6563 35.2835 26.5234C35.0935 26.4437 35.0392 26.3375 34.9848 26.2312C34.9848 26.2047 34.9576 26.2047 34.9576 26.1782L34.6046 26.072C34.7714 24.8226 34.707 23.554 34.4145 22.3268C34.118 21.0894 33.6034 19.9121 32.8938 18.8474L33.1654 18.6084V18.5554C33.1654 18.4225 33.1925 18.2897 33.301 18.1569C33.6269 17.8647 34.0344 17.6257 34.5232 17.3335C34.6046 17.2804 34.686 17.2539 34.7676 17.2007C34.9305 17.1211 35.0663 17.0415 35.2293 16.9352C35.2564 16.9086 35.3107 16.8821 35.3651 16.829C35.3922 16.8023 35.4194 16.8023 35.4194 16.7758C35.7995 16.4571 35.8811 15.9259 35.6094 15.5805C35.4736 15.3946 35.2293 15.2884 34.9848 15.2884C34.7677 15.2884 34.5775 15.368 34.3874 15.5009L34.3331 15.5539C34.2789 15.5805 34.2516 15.6337 34.1973 15.6602C34.0615 15.7931 33.9528 15.8992 33.8443 16.032C33.79 16.0851 33.7358 16.1649 33.6542 16.2179C33.2739 16.6164 32.9209 16.9352 32.5679 17.1741C32.4865 17.2272 32.4051 17.2539 32.3235 17.2539C32.2693 17.2539 32.2148 17.2539 32.1606 17.2272H32.1063L31.7803 17.4398C31.4272 17.068 31.0471 16.7493 30.6669 16.4305C29.0299 15.1791 27.0599 14.4139 24.9911 14.2259L24.9639 13.8806L24.9097 13.8276C24.8281 13.7478 24.7196 13.6682 24.6923 13.4823C24.6652 13.0573 24.7196 12.5792 24.7738 12.048V12.0215C24.7738 11.9417 24.801 11.8356 24.8281 11.7558C24.8552 11.5966 24.8824 11.4371 24.9097 11.2512V11.0122C24.9097 10.5341 24.5293 10.1357 24.0678 10.1357C23.8504 10.1357 23.6332 10.2419 23.4703 10.4012C23.3075 10.5606 23.2259 10.7731 23.2259 11.0122V11.2246C23.2259 11.4105 23.2531 11.5699 23.3073 11.7293C23.3345 11.809 23.3344 11.8886 23.3616 11.9949V12.0215C23.4158 12.5526 23.4974 13.0307 23.4431 13.4558C23.416 13.6417 23.3073 13.7213 23.2259 13.801L23.1717 13.8541L23.1444 14.1994C22.6555 14.2524 22.1667 14.3055 21.6778 14.4118C19.5868 14.8634 17.7401 15.8994 16.3009 17.3866L16.0293 17.2007H15.975C15.9208 17.2007 15.8663 17.2272 15.8121 17.2272C15.7305 17.2272 15.6491 17.2007 15.5676 17.1476C15.2145 16.9086 14.8615 16.5632 14.4814 16.1649C14.4271 16.1118 14.3728 16.032 14.2913 15.979C14.1826 15.8461 14.0739 15.7398 13.9381 15.6072C13.911 15.5805 13.8567 15.5541 13.8024 15.5009C13.7753 15.4743 13.7482 15.4743 13.7482 15.4478C13.5799 15.3118 13.3689 15.2367 13.1506 15.2352C12.9061 15.2352 12.6618 15.3415 12.526 15.5274C12.2544 15.8727 12.3359 16.4038 12.7161 16.7226C12.7432 16.7226 12.7432 16.7493 12.7703 16.7493C12.8246 16.7758 12.8519 16.8289 12.9061 16.8554C13.0691 16.9615 13.2049 17.0413 13.3679 17.1211C13.4494 17.1476 13.5308 17.2007 13.6124 17.2539C14.101 17.5459 14.5085 17.7851 14.8344 18.0773C14.9702 18.2099 14.9702 18.3428 14.9702 18.4756V18.5287L15.2417 18.7678C15.1874 18.8474 15.1331 18.9006 15.1059 18.9802C13.748 21.0786 13.232 23.5487 13.5851 25.9923L13.232 26.0984C13.232 26.1251 13.2049 26.1251 13.2049 26.1515C13.1507 26.2578 13.0691 26.3641 12.9061 26.4437C12.4989 26.5765 12.01 26.6297 11.4398 26.6828H11.4125C11.3311 26.6828 11.2224 26.6828 11.141 26.7093C10.9781 26.7093 10.8151 26.7359 10.625 26.7624C10.5708 26.7624 10.5165 26.7891 10.4621 26.7891C10.435 26.7891 10.4078 26.7891 10.3805 26.8156C9.8917 26.9218 9.59294 27.3733 9.67449 27.7982C9.75605 28.1702 10.1091 28.4093 10.5435 28.4093C10.625 28.4093 10.6793 28.4093 10.7609 28.3826C10.788 28.3826 10.8151 28.3826 10.8151 28.3561C10.8694 28.3561 10.9236 28.3295 10.9779 28.3295C11.1682 28.2765 11.304 28.2234 11.4669 28.1436C11.5483 28.1171 11.6297 28.0639 11.7113 28.0375H11.7384C12.2544 27.8514 12.7161 27.6921 13.1506 27.639H13.2049C13.3679 27.639 13.4765 27.7186 13.5579 27.7718C13.5851 27.7718 13.5851 27.7984 13.6122 27.7984L13.9925 27.7453C14.6443 29.7106 15.8935 31.4637 17.5501 32.7386C17.9302 33.0307 18.3104 33.2698 18.7178 33.5089L18.5549 33.854C18.5549 33.8807 18.582 33.8807 18.582 33.9071C18.6363 34.0134 18.6905 34.1462 18.6363 34.3321C18.4735 34.7306 18.229 35.129 17.9302 35.5805V35.6071C17.876 35.6868 17.8217 35.7399 17.7674 35.8195C17.6588 35.9523 17.5772 36.0852 17.4685 36.2445C17.4414 36.2711 17.4142 36.3241 17.3871 36.3774C17.3871 36.4039 17.36 36.4304 17.36 36.4304C17.1428 36.882 17.3057 37.3867 17.713 37.5726C17.8215 37.6256 17.9302 37.6523 18.0389 37.6523C18.3648 37.6523 18.6907 37.4397 18.8536 37.1475C18.8536 37.121 18.8808 37.0944 18.8808 37.0944C18.9079 37.0414 18.935 36.9883 18.9622 36.9616C19.0437 36.7757 19.0709 36.6429 19.1251 36.4835L19.2067 36.2445C19.3967 35.7134 19.5326 35.2883 19.7769 34.9165C19.8854 34.7572 20.0214 34.7306 20.1299 34.6774C20.1571 34.6774 20.1571 34.6774 20.1842 34.6509L20.3744 34.3056C21.5693 34.7572 22.8729 34.9961 24.1763 34.9961C24.9639 34.9961 25.7787 34.9165 26.5391 34.7306C27.0177 34.626 27.4893 34.4929 27.9512 34.3321L28.114 34.6243C28.1413 34.6243 28.1413 34.6243 28.1684 34.6509C28.3043 34.6774 28.4128 34.7306 28.5215 34.89C28.7387 35.2618 28.9016 35.7134 29.0917 36.218V36.2445L29.1733 36.4835C29.2275 36.6429 29.2547 36.8022 29.336 36.9616C29.3633 37.0147 29.3905 37.0414 29.4176 37.0944C29.4176 37.121 29.4449 37.1475 29.4449 37.1475C29.6077 37.4663 29.9336 37.6523 30.2595 37.6523C30.3682 37.6523 30.4768 37.6256 30.5854 37.5726C30.7754 37.4664 30.9384 37.3069 30.9928 37.0944C31.0471 36.882 31.0471 36.6429 30.9386 36.4304C30.9386 36.4039 30.9113 36.4039 30.9113 36.3774C30.8841 36.3243 30.857 36.2712 30.8299 36.2445C30.7483 36.0852 30.6398 35.9523 30.5311 35.8195C30.4768 35.7399 30.4226 35.6868 30.3683 35.6072V35.5805C30.0694 35.129 29.7978 34.7306 29.6621 34.3321C29.6078 34.1462 29.6621 34.0401 29.6892 33.9073C29.6892 33.8807 29.7164 33.8807 29.7164 33.8542L29.5805 33.5354C31.0199 32.7121 32.242 31.5433 33.1654 30.1091C33.6542 29.3654 34.0344 28.542 34.3059 27.7186L34.6318 27.7717C34.659 27.7717 34.659 27.7451 34.686 27.7451C34.7947 27.6921 34.8763 27.6125 35.0392 27.6125H35.0935C35.528 27.6655 35.9896 27.8247 36.5057 28.0108H36.5329C36.6142 28.0373 36.6956 28.0904 36.7772 28.117C36.9401 28.1967 37.076 28.2498 37.266 28.303C37.3203 28.303 37.3746 28.3295 37.429 28.3295C37.4561 28.3295 37.4832 28.3295 37.5104 28.3561C37.5919 28.3826 37.6462 28.3826 37.7278 28.3826C38.135 28.3826 38.4881 28.1171 38.5967 27.7718C38.5967 27.4531 38.298 27.0281 37.8091 26.8954V26.8952ZM25.2354 25.5938L24.0405 26.1516L22.8456 25.5938L22.547 24.3455L23.3616 23.3362H24.6923L25.507 24.3455L25.2356 25.5938H25.2354ZM32.3235 22.8316C32.5342 23.7099 32.5984 24.6157 32.5136 25.514L28.3585 24.3455C27.9784 24.2394 27.7612 23.8674 27.8426 23.4956C27.8697 23.3893 27.9241 23.283 28.0055 23.2034L31.2916 20.3083C31.7531 21.052 32.1061 21.9021 32.3235 22.8316ZM29.988 18.7147L26.4305 21.1849C26.1317 21.3708 25.7242 21.3175 25.4799 21.0255C25.3985 20.9457 25.3714 20.8394 25.3441 20.7333L25.0997 16.4038C26.9492 16.6121 28.6722 17.4266 29.988 18.7147ZM22.1124 16.5365C22.4112 16.4834 22.6827 16.4304 22.9814 16.3773L22.7371 20.6268C22.71 20.9986 22.4112 21.3174 22.0037 21.3174C21.8952 21.3174 21.7594 21.2908 21.6778 21.2378L18.066 18.7147C19.1795 17.6257 20.5645 16.8818 22.1124 16.5365ZM16.7625 20.3081L19.9941 23.1235C20.2929 23.3626 20.32 23.814 20.0757 24.1062C19.9941 24.2124 19.8856 24.2921 19.7498 24.3188L15.5404 25.514C15.3775 23.7079 15.7848 21.8752 16.7625 20.3081ZM16.0291 27.506L20.3473 26.7888C20.7003 26.7622 21.0262 27.0014 21.1076 27.3466C21.1347 27.5059 21.1347 27.6388 21.0805 27.7717L19.4239 31.6759C17.9031 30.7197 16.6809 29.2589 16.0291 27.506ZM25.9416 32.7915C25.3169 32.9244 24.6923 33.004 24.0405 33.004C23.0901 33.004 22.1667 32.8448 21.2979 32.5791L23.4431 28.781C23.6603 28.5418 24.0134 28.4357 24.3121 28.5951C24.4389 28.671 24.5496 28.7702 24.638 28.8871L26.729 32.5791C26.4847 32.6587 26.2131 32.7119 25.9414 32.7915H25.9416ZM31.2372 29.0997C30.5582 30.162 29.6619 31.0119 28.6302 31.6759L26.9193 27.6652C26.8377 27.3466 26.9736 27.0014 27.2994 26.8418C27.408 26.7888 27.5438 26.7622 27.6796 26.7622L32.0248 27.4795C31.8618 28.0637 31.5902 28.5951 31.2372 29.0997Z" fill="white"/>
</svg>
