<svg width="48" height="48" viewBox="0 0 48 48" fill="none" xmlns="http://www.w3.org/2000/svg">
<path d="M27.9375 25.7916C26.8875 25.7916 25.9688 26.4549 25.4438 27.384H9.95625C7.33125 27.384 5.23125 25.1281 5.23125 22.474C5.23125 19.82 7.33125 17.564 9.95625 17.564H12.1875C12.1875 17.0332 12.45 16.5024 12.5813 15.9716C12.7125 15.8389 12.7125 15.5735 12.8438 15.4408C13.8938 13.4503 15.9937 12.1232 18.3562 12.1232C20.4562 12.1232 22.2938 13.1849 23.475 14.7773C24.1313 14.5119 24.7875 14.2465 25.575 14.1138C24.1313 11.5924 21.5063 10 18.3562 10C14.8125 10 11.7937 12.2559 10.4812 15.4408H9.95625C6.15 15.4408 3 18.6256 3 22.6067C3 26.5878 6.15 29.6399 9.95625 29.6399H25.575C25.9688 30.5688 26.8875 31.2324 28.0688 31.2324C29.5127 31.2324 30.6938 30.038 30.6938 28.4456C30.6938 26.8532 29.5125 25.7916 27.9375 25.7916ZM36.6 20.3506C35.025 17.1658 31.7437 14.9098 28.0688 14.9098C23.475 14.9098 19.6688 18.2274 18.75 22.6065C16.5188 22.8719 14.55 24.0663 13.3688 25.7914H24.7875C25.575 24.7298 26.7564 24.199 28.0688 24.199C30.4312 24.199 32.2687 26.1895 32.2687 28.5781C32.2687 30.9668 30.3 32.9573 28.0688 32.9573C26.7563 32.9573 25.575 32.2938 24.7875 31.3649H12.0563C12.5813 35.0806 15.7312 38 19.4062 38H36.4688C41.1937 38 45 34.1516 45 29.2417C45 24.3317 41.1938 20.4833 36.6 20.3506Z" fill="#008CDB"/>
</svg>
