<svg width="48" height="48" viewBox="0 0 48 48" fill="none" xmlns="http://www.w3.org/2000/svg">
<path d="M38.854 30.4541C39.0522 29.6852 39.152 28.8957 39.1509 28.1034C39.1509 25.4603 38.0655 22.9255 36.1333 21.0566C34.2011 19.1876 31.5805 18.1377 28.848 18.1377C26.1155 18.1377 23.4949 19.1876 21.5628 21.0566C19.6306 22.9255 18.5451 25.4603 18.5451 28.1034C18.5451 28.244 18.5512 28.3847 18.5572 28.5372C17.1073 29.0818 15.8999 30.0995 15.1437 31.4142C14.3876 32.729 14.1304 34.258 14.4166 35.7368C14.7028 37.2156 15.5144 38.5511 16.711 39.5122C17.9076 40.4733 19.4139 40.9997 20.9693 41.0001H38.5449C39.9649 40.9998 41.3288 40.464 42.3469 39.5065C43.365 38.549 43.957 37.2453 43.9973 35.8724C44.0375 34.4994 43.5228 33.1654 42.5624 32.1536C41.602 31.1419 40.2717 30.5322 38.854 30.4541Z" fill="#44ADC1"/>
<path d="M10.6666 29.8624H14.7453C15.4445 28.9972 16.3295 28.2892 17.3392 27.7872C17.4283 24.8906 18.6793 22.1413 20.8275 20.1215C22.9757 18.1016 25.8523 16.9698 28.8482 16.9657C28.8482 14.3226 27.7627 11.7878 25.8306 9.91887C23.8984 8.04995 21.2778 7 18.5453 7C15.8128 7 13.1922 8.04995 11.26 9.91887C9.32786 11.7878 8.24238 14.3226 8.24238 16.9657C8.24238 17.1064 8.24844 17.247 8.2545 17.3995C6.8046 17.9441 5.59713 18.9618 4.84101 20.2765C4.08488 21.5913 3.82767 23.1203 4.11388 24.5991C4.40009 26.0779 5.2117 27.4134 6.4083 28.3745C7.6049 29.3356 9.11121 29.862 10.6666 29.8624Z" fill="#44ADC1"/>
<path d="M32.0543 15.6211C32.1104 15.6763 32.1772 15.7203 32.251 15.7504C32.3247 15.7805 32.4039 15.7962 32.4839 15.7965C32.564 15.7969 32.6433 15.7819 32.7173 15.7524C32.7913 15.723 32.8586 15.6796 32.9152 15.6249C32.9718 15.5701 33.0166 15.5051 33.0471 15.4335C33.0775 15.3619 33.093 15.2852 33.0927 15.2077C33.0923 15.1303 33.0761 15.0537 33.0449 14.9824C33.0138 14.9111 32.9684 14.8464 32.9113 14.7922L32.1277 14.0342H35.5131C36.3165 14.0351 37.0867 14.3442 37.6547 14.8937C38.2228 15.4432 38.5424 16.1882 38.5433 16.9653V18.7239C38.5433 18.8794 38.6072 19.0285 38.7208 19.1384C38.8345 19.2484 38.9887 19.3101 39.1494 19.3101C39.3101 19.3101 39.4643 19.2484 39.5779 19.1384C39.6916 19.0285 39.7554 18.8794 39.7554 18.7239V16.9653C39.7542 15.8773 39.3068 14.8343 38.5115 14.065C37.7162 13.2957 36.6378 12.863 35.5131 12.8618H32.1277L32.9113 12.1038C32.9682 12.0495 33.0133 11.9849 33.0443 11.9136C33.0752 11.8423 33.0912 11.7659 33.0915 11.6886C33.0917 11.6113 33.0762 11.5347 33.0457 11.4633C33.0153 11.3918 32.9705 11.3269 32.914 11.2723C32.8575 11.2176 32.7904 11.1743 32.7165 11.1448C32.6426 11.1154 32.5635 11.1003 32.4836 11.1006C32.4037 11.1008 32.3246 11.1164 32.251 11.1463C32.1773 11.1762 32.1105 11.2199 32.0543 11.2749L30.2362 13.0335C30.1799 13.088 30.1352 13.1526 30.1047 13.2237C30.0743 13.2948 30.0586 13.371 30.0586 13.448C30.0586 13.525 30.0743 13.6012 30.1047 13.6723C30.1352 13.7434 30.1799 13.8081 30.2362 13.8625L32.0543 15.6211Z" fill="#44ADC1"/>
<path d="M11.0951 34.1373C10.9811 34.029 10.8275 33.9687 10.6677 33.9694C10.508 33.9701 10.3549 34.0318 10.242 34.141C10.129 34.2503 10.0652 34.3983 10.0645 34.5528C10.0638 34.7074 10.1262 34.8559 10.2381 34.9662L11.0217 35.7242H8.24238C7.43899 35.7233 6.66878 35.4142 6.10069 34.8647C5.53261 34.3152 5.21305 33.5702 5.21211 32.7931V31.0345C5.21211 30.879 5.14826 30.7299 5.0346 30.6199C4.92094 30.51 4.76679 30.4482 4.60605 30.4482C4.44532 30.4482 4.29117 30.51 4.17751 30.6199C4.06385 30.7299 4 30.879 4 31.0345V32.7931C4.00126 33.881 4.44863 34.9241 5.24396 35.6934C6.03928 36.4627 7.11762 36.8954 8.24238 36.8966H11.0217L10.2381 37.6546C10.1812 37.7089 10.136 37.7735 10.1051 37.8448C10.0742 37.9161 10.0581 37.9925 10.0579 38.0698C10.0576 38.1471 10.0732 38.2237 10.1037 38.2951C10.1341 38.3666 10.1789 38.4315 10.2354 38.4861C10.2919 38.5408 10.359 38.5841 10.4329 38.6135C10.5067 38.643 10.5859 38.658 10.6658 38.6578C10.7457 38.6575 10.8248 38.642 10.8984 38.6121C10.9721 38.5822 11.0389 38.5385 11.0951 38.4835L12.9132 36.7248C12.9695 36.6704 13.0142 36.6058 13.0446 36.5347C13.0751 36.4636 13.0908 36.3874 13.0908 36.3104C13.0908 36.2334 13.0751 36.1572 13.0446 36.0861C13.0142 36.0149 12.9695 35.9503 12.9132 35.8959L11.0951 34.1373Z" fill="#44ADC1"/>
</svg>
