<svg width="48" height="48" viewBox="0 0 48 48" fill="none" xmlns="http://www.w3.org/2000/svg">
<path d="M24.0002 2.62402C12.4026 2.62402 3 12.0256 3 23.6239C3 35.2217 12.4026 44.624 24.0002 44.624C35.5977 44.624 45 35.2217 45 23.6239C45 12.0255 35.5974 2.62402 24.0002 2.62402ZM24.0002 41.9276C20.7005 41.9276 18.0252 39.7234 18.0252 37.005H29.9752C29.9752 39.7229 27.3 41.9276 24.0002 41.9276ZM33.869 35.3748H14.1303V31.7954H33.8693V35.3747H33.869V35.3748ZM33.7981 29.9533H14.1866C14.1213 29.8781 14.0547 29.804 13.9917 29.7277C11.9713 27.2742 11.4953 25.9935 11.0333 24.6882C11.0254 24.6453 13.4833 25.1903 15.2261 25.5824C15.2261 25.5824 16.1229 25.7899 17.4341 26.029C16.1752 24.5534 15.4276 22.6774 15.4276 20.7598C15.4276 16.5503 18.6563 12.8717 17.4915 9.89853C18.6251 9.99074 19.8376 12.2911 19.9196 15.8878C21.1248 14.2222 21.6291 11.1807 21.6291 9.31594C21.6291 7.38505 22.9014 5.1421 24.1741 5.06549C23.0396 6.93518 24.4677 8.53794 25.7376 12.5141C26.2137 14.0076 26.153 16.521 26.5205 18.1149C26.6426 14.8044 27.2117 9.974 29.3119 8.30644C28.3854 10.4065 29.449 13.0345 30.1765 14.2978C31.3502 16.3361 32.0615 17.8803 32.0615 20.801C32.0615 22.7593 31.3385 24.6029 30.119 26.0442C31.5057 25.784 32.4633 25.5494 32.4633 25.5494L36.9668 24.6708C36.9672 24.6705 36.3127 27.3617 33.7981 29.9533Z" fill="#DA4E31"/>
</svg>
