<svg width="48" height="48" viewBox="0 0 48 48" fill="none" xmlns="http://www.w3.org/2000/svg">
<path d="M24.0026 20.8755C26.9029 20.8755 29.2534 23.2253 29.2536 26.1255V27.8764C30.7027 27.8766 31.8786 29.0523 31.8786 30.5014V38.3764C31.8786 39.8256 30.7027 41.0012 29.2536 41.0014H18.7526C17.3034 41.0014 16.1276 39.8257 16.1276 38.3764V30.5014C16.1276 29.0522 17.3034 27.8765 18.7526 27.8764V26.1255C18.7529 23.2254 21.1025 20.8756 24.0026 20.8755ZM27.0309 32.2143C26.6883 31.8735 26.1335 31.8735 25.7927 32.2143L23.2028 34.8052L22.2165 33.8188C21.8738 33.4779 21.3191 33.4779 20.9782 33.8188C20.6373 34.1615 20.6373 34.7162 20.9782 35.0571L22.5827 36.6606C22.7468 36.8247 22.9694 36.9184 23.2009 36.9184C23.4323 36.9184 23.655 36.8246 23.819 36.6606L27.027 33.4526H27.0309C27.3718 33.1099 27.3718 32.5552 27.0309 32.2143ZM17.2936 6.11863C20.4091 5.61365 23.2787 6.75977 25.1765 8.8159C25.4261 9.08563 25.7981 9.18035 26.1462 9.06199C26.9847 8.77764 27.8819 8.62453 28.8151 8.62449C33.0409 8.62449 36.5197 11.7803 37.0485 15.8618C37.0959 16.2318 37.3964 16.533 37.7663 16.5805H37.7643C42.0664 17.1364 45.3406 20.9745 44.9724 25.5083C44.6185 29.865 40.7921 33.1264 36.4206 33.1264H33.6257V30.5014C33.6257 28.7094 32.5448 27.167 31.0007 26.4907V26.1255C31.0005 22.2664 27.8597 19.1256 24.0007 19.1255C20.1415 19.1255 16.9999 22.2664 16.9997 26.1255V26.4907C15.4558 27.1672 14.3747 28.7114 14.3747 30.5014V33.1264H11.6003C7.06828 33.1264 3.15224 29.6205 3.00458 25.0903C2.87158 21.0324 5.64998 17.6086 9.40888 16.728C9.83544 16.6278 10.1151 16.2213 10.0622 15.7856C9.93095 14.6919 9.99996 13.5363 10.3444 12.3442C11.2726 9.13573 13.996 6.65105 17.2936 6.11863ZM24.0026 22.6255C22.0705 22.6256 20.5029 24.1934 20.5026 26.1255V27.8764H27.5036V26.1255C27.5034 24.1933 25.9349 22.6255 24.0026 22.6255Z" fill="#44ADC1"/>
</svg>
