<svg width="48" height="48" viewBox="0 0 48 48" fill="none" xmlns="http://www.w3.org/2000/svg">
<path fill-rule="evenodd" clip-rule="evenodd" d="M23.4905 33.8151H30.6585C30.2495 32.9001 30.015 31.9174 29.9186 30.8808H24.2272C24.1291 31.9156 23.8996 32.9036 23.4872 33.8151H23.4905ZM30.7049 12.1343C30.4621 11.8808 30.4621 11.4727 30.7049 11.2227C30.9476 10.9744 31.3384 10.9692 31.5778 11.2227L34.5873 14.3654C34.8301 14.6189 34.8301 15.0269 34.5873 15.2769L31.5778 18.4196C31.3351 18.6731 30.9443 18.6731 30.7049 18.4196C30.4671 18.1661 30.4621 17.7581 30.7049 17.5081L33.2754 14.8237L30.7049 12.1394V12.1343ZM22.574 11.2175C22.8168 10.964 23.2075 10.964 23.447 11.2175C23.6897 11.471 23.6897 11.879 23.447 12.1291L20.8764 14.8134L23.447 17.4977C23.6897 17.7512 23.6897 18.1592 23.447 18.4093C23.2042 18.6628 22.8135 18.6628 22.574 18.4093L19.5645 15.2666C19.3218 15.0131 19.3218 14.6051 19.5645 14.355L22.574 11.2124V11.2175ZM27.6138 10.2226C27.7036 9.88056 28.0394 9.67566 28.367 9.76425C28.6945 9.85801 28.8907 10.2087 28.8059 10.5508L26.533 19.4059C26.4432 19.7479 26.1073 19.9528 25.7798 19.8643C25.4523 19.7705 25.256 19.4198 25.3409 19.0777L27.6138 10.2226ZM11.2061 21.7082C13.9562 21.4808 16.8758 21.8367 18.996 22.7482C20.6304 23.4497 21.6813 24.4602 21.8226 25.6287H42.9473V4.09723C42.9473 4.04341 42.9041 4 42.8542 4H11.2942C11.2426 4 11.201 4.04514 11.201 4.09723V21.7084L11.2061 21.7082ZM12.8273 22.9358C15.0669 22.9358 17.0788 23.323 18.5272 23.9411C19.8091 24.4915 20.6006 25.1895 20.6006 25.8961C20.6006 26.6792 19.6478 27.3719 18.5272 27.8512C15.408 29.1933 10.2521 29.1933 7.12776 27.8512C4.36931 26.6635 4.36931 25.1217 7.12776 23.9393C8.79215 23.2239 10.9154 22.934 12.8277 22.934L12.8273 22.9358ZM21.8392 35.1054V36.6299H34.5458C34.3163 35.7808 33.6213 35.1054 32.7534 35.1054H21.8392ZM21.8392 30.8828V33.8171H22.1036C22.6057 32.9334 22.8817 31.9333 22.9931 30.8828H21.8392ZM21.8392 26.9223V29.5892H42.8541C42.9057 29.5892 42.9472 29.5441 42.9472 29.492V26.9188H21.8391L21.8392 26.9223ZM5.05397 38.203V41.0384C5.05397 41.7502 5.84543 42.443 7.12738 42.9934C10.2466 44.3355 15.4025 44.3355 18.5268 42.9934C19.8087 42.443 20.6002 41.745 20.6002 41.0384V38.203C17.2199 40.9238 8.43928 40.9238 5.05534 38.203H5.05397ZM5.05397 33.154C8.43426 35.8748 17.2183 35.8748 20.5988 33.154V35.9894C20.5988 36.7013 19.8074 37.3941 18.5254 37.9444C15.4062 39.2866 10.2503 39.2866 7.12601 37.9444C5.84407 37.394 5.05261 36.696 5.05261 35.9894V33.154H5.05397ZM5.05397 28.1082V30.9436C5.05397 31.6554 5.84543 32.3482 7.12738 32.8986C10.2466 34.2407 15.4025 34.2407 18.5268 32.8986C19.8087 32.3482 20.6002 31.6502 20.6002 30.9436V28.1082C17.2199 30.829 8.43588 30.829 5.05534 28.1082H5.05397ZM6.9661 41.0348C6.9661 40.6789 7.24211 40.3907 7.58295 40.3907C7.92381 40.3907 8.19981 40.6789 8.19981 41.0348V41.6304C8.19981 41.9863 7.9238 42.2745 7.58295 42.2745C7.2421 42.2745 6.9661 41.9863 6.9661 41.6304V41.0348ZM6.9661 35.989V36.5845C6.9661 36.9405 7.24211 37.2287 7.58295 37.2287C7.92381 37.2287 8.19981 36.9405 8.19981 36.5845V35.989C8.19981 35.6331 7.9238 35.3448 7.58295 35.3448C7.2421 35.3448 6.9661 35.6331 6.9661 35.989ZM6.9661 30.94C6.9661 30.5841 7.24211 30.2959 7.58295 30.2959C7.92381 30.2959 8.19981 30.5841 8.19981 30.94V31.5356C8.19981 31.8915 7.9238 32.1797 7.58295 32.1797C7.2421 32.1797 6.9661 31.8915 6.9661 31.5356V30.94ZM10.1153 41.71C10.1153 41.3541 10.3913 41.0659 10.7321 41.0659C11.073 41.0659 11.349 41.3541 11.349 41.71V42.3055C11.349 42.6615 11.073 42.9497 10.7321 42.9497C10.3913 42.9497 10.1153 42.6615 10.1153 42.3055V41.71ZM10.1153 36.6642V37.2597C10.1153 37.6156 10.3913 37.9039 10.7321 37.9039C11.073 37.9039 11.349 37.6156 11.349 37.2597V36.6642C11.349 36.3082 11.073 36.02 10.7321 36.02C10.3913 36.02 10.1153 36.3083 10.1153 36.6642ZM10.1153 31.6201C10.1153 31.2642 10.3913 30.976 10.7321 30.976C11.073 30.976 11.349 31.2642 11.349 31.6201V32.2156C11.349 32.5716 11.073 32.8598 10.7321 32.8598C10.3913 32.8598 10.1153 32.5716 10.1153 32.2156V31.6201Z" fill="#44ADC1"/>
</svg>
