<svg width="48" height="48" viewBox="0 0 48 48" fill="none" xmlns="http://www.w3.org/2000/svg">
<path fill-rule="evenodd" clip-rule="evenodd" d="M6.03812 15.4573V36.144H40.4154V23.1712C40.2478 23.2236 40.0772 23.2717 39.9057 23.3155L39.681 23.9986C39.6076 24.224 39.4609 24.4209 39.2623 24.5606C39.0637 24.7003 38.8237 24.7754 38.5774 24.775H37.2315C36.9855 24.7756 36.7458 24.7009 36.5473 24.5618C36.3487 24.4226 36.2018 24.2263 36.1279 24.0015L35.8997 23.3145C35.1409 23.1309 34.4142 22.8419 33.7427 22.4569L33.0795 22.7881C32.8612 22.898 32.6119 22.9379 32.3681 22.9021C32.1244 22.8663 31.899 22.7566 31.7251 22.5891L30.772 21.6756C30.5975 21.5096 30.4829 21.2944 30.445 21.0615C30.4071 20.8286 30.4479 20.5901 30.5613 20.381L30.908 19.7392C30.5076 19.0961 30.2071 18.4006 30.0161 17.6744L29.3032 17.4591C29.068 17.3888 28.8624 17.2483 28.7165 17.058C28.5706 16.8676 28.4922 16.6376 28.4926 16.4014V15.1087C28.4919 14.873 28.5699 14.6432 28.7151 14.453C28.8603 14.2627 29.0651 14.1219 29.2997 14.0511L30.0171 13.8324C30.0585 13.6747 30.1053 13.5184 30.1575 13.3636H8.22423C7.64478 13.3639 7.08912 13.5845 6.67924 13.977C6.26937 14.3696 6.03879 14.9019 6.03812 15.4573ZM22.9676 21.9016C23.0246 21.7427 23.145 21.612 23.3025 21.5383C23.46 21.4646 23.6416 21.4538 23.8074 21.5083C23.9731 21.5629 24.1095 21.6784 24.1865 21.8293C24.2634 21.9802 24.2746 22.1542 24.2177 22.3131L20.8463 31.7001C20.8192 31.7801 20.7757 31.8542 20.7184 31.918C20.6611 31.9818 20.5911 32.034 20.5125 32.0716C20.4339 32.1092 20.3483 32.1314 20.2607 32.1369C20.173 32.1424 20.0851 32.1312 20.0021 32.1037C19.9191 32.0763 19.8425 32.0334 19.777 31.9773C19.7115 31.9213 19.6583 31.8532 19.6205 31.7773C19.5827 31.7013 19.5611 31.6188 19.5569 31.5348C19.5528 31.4507 19.5661 31.3667 19.5962 31.2876L22.9676 21.9016ZM25.5014 23.4217C25.6331 23.3111 25.8053 23.255 25.9801 23.2658C26.1549 23.2766 26.3181 23.3534 26.4339 23.4794L29.0308 26.3158C29.142 26.4373 29.2004 26.595 29.1942 26.7565C29.1879 26.918 29.1175 27.0711 28.9972 27.1845L26.2187 29.8045C26.0938 29.9223 25.9251 29.9877 25.7499 29.9864C25.5746 29.985 25.4071 29.917 25.2842 29.7973C25.1612 29.6776 25.093 29.5159 25.0944 29.348C25.0958 29.18 25.1668 29.0195 25.2917 28.9017L27.6253 26.7013L25.4407 24.3125C25.3258 24.1865 25.2678 24.022 25.2791 23.8551C25.2905 23.6882 25.3704 23.5323 25.5014 23.4217ZM14.7815 26.3177L17.3785 23.4813C17.4944 23.3565 17.6572 23.2807 17.8312 23.2705C18.0052 23.2602 18.1764 23.3162 18.3075 23.4264C18.4386 23.5366 18.5189 23.692 18.5309 23.8587C18.5429 24.0254 18.4857 24.1899 18.3717 24.3164L16.1871 26.7052L18.5212 28.9055C18.6461 29.0233 18.7171 29.1839 18.7185 29.3518C18.7199 29.5198 18.6516 29.6814 18.5287 29.8011C18.4058 29.9209 18.2383 29.9889 18.063 29.9902C17.8877 29.9916 17.7191 29.9262 17.5942 29.8083L14.8167 27.1864C14.6963 27.0731 14.6258 26.92 14.6194 26.7585C14.6131 26.597 14.6715 26.4393 14.7825 26.3177H14.7815ZM43.9217 37.4108H2.48809C2.35868 37.4109 2.23461 37.4602 2.1431 37.5479C2.0516 37.6356 2.00013 37.7545 2 37.8786V39.0083C2 39.9049 2.7695 41 3.66742 41H42.7444C43.6433 41 44.4128 39.9054 44.4128 39.0088V37.879C44.4126 37.7549 44.3609 37.6359 44.2692 37.5482C44.1775 37.4605 44.0533 37.4113 43.9238 37.4113L43.9217 37.4108ZM11.0705 39.2237C11.0729 39.3083 11.0576 39.3926 11.0255 39.4714C10.9934 39.5503 10.9451 39.6222 10.8835 39.6829C10.8219 39.7436 10.7482 39.7919 10.6668 39.8248C10.5854 39.8578 10.4979 39.8747 10.4096 39.8747C10.3212 39.8747 10.2338 39.8578 10.1524 39.8248C10.071 39.7919 9.99729 39.7436 9.93568 39.6829C9.87407 39.6222 9.82578 39.5503 9.79366 39.4714C9.76154 39.3926 9.74625 39.3083 9.74868 39.2237V39.1866C9.74868 39.0186 9.81834 38.8574 9.94233 38.7386C10.0663 38.6198 10.2345 38.553 10.4098 38.553C10.5852 38.553 10.7533 38.6198 10.8773 38.7386C11.0013 38.8574 11.071 39.0186 11.071 39.1866L11.0705 39.2237ZM8.08628 39.2237C8.08628 39.3916 8.01668 39.5526 7.89278 39.6714C7.76889 39.7901 7.60085 39.8568 7.42563 39.8568C7.25042 39.8568 7.08238 39.7901 6.95849 39.6714C6.83459 39.5526 6.76499 39.3916 6.76499 39.2237V39.1866C6.76973 39.0217 6.84144 38.865 6.96486 38.7499C7.08829 38.6349 7.25369 38.5705 7.42588 38.5705C7.59808 38.5705 7.76348 38.6349 7.8869 38.7499C8.01033 38.865 8.08204 39.0217 8.08678 39.1866V39.2237H8.08628ZM5.10158 39.2237C5.10401 39.3083 5.08872 39.3926 5.0566 39.4714C5.02448 39.5503 4.97619 39.6222 4.91458 39.6829C4.85297 39.7436 4.77929 39.7919 4.69789 39.8248C4.6165 39.8578 4.52904 39.8747 4.44068 39.8747C4.35233 39.8747 4.26487 39.8578 4.18347 39.8248C4.10208 39.7919 4.0284 39.7436 3.96679 39.6829C3.90517 39.6222 3.85688 39.5503 3.82476 39.4714C3.79265 39.3926 3.77735 39.3083 3.77978 39.2237V39.1866C3.78453 39.0217 3.85624 38.865 3.97966 38.7499C4.10309 38.6349 4.26849 38.5705 4.44068 38.5705C4.61288 38.5705 4.77828 38.6349 4.9017 38.7499C5.02513 38.865 5.09684 39.0217 5.10158 39.1866V39.2237ZM21.1221 39.2054C21.1221 39.1222 21.1391 39.0399 21.1723 38.963C21.2055 38.8862 21.2541 38.8164 21.3155 38.7576C21.3769 38.6988 21.4497 38.6521 21.5299 38.6203C21.6101 38.5885 21.696 38.5722 21.7828 38.5723H24.628C24.8002 38.5768 24.9637 38.6455 25.0837 38.7638C25.2038 38.8821 25.271 39.0406 25.271 39.2056C25.271 39.3707 25.2038 39.5292 25.0837 39.6475C24.9637 39.7657 24.8002 39.8345 24.628 39.839H21.7828C21.696 39.839 21.61 39.8226 21.5299 39.7908C21.4497 39.7589 21.3768 39.7122 21.3155 39.6534C21.2541 39.5946 21.2055 39.5247 21.1723 39.4478C21.1391 39.371 21.1221 39.2886 21.1221 39.2054ZM33.6539 15.7539C33.6539 14.9482 33.9032 14.1607 34.3702 13.4909C34.8372 12.821 35.501 12.2989 36.2777 11.9906C37.0543 11.6823 37.9089 11.6017 38.7334 11.7588C39.5579 11.916 40.3152 12.3039 40.9096 12.8736C41.504 13.4433 41.9088 14.1691 42.0728 14.9592C42.2368 15.7494 42.1527 16.5684 41.831 17.3127C41.5093 18.057 40.9645 18.6931 40.2655 19.1407C39.5666 19.5883 38.7448 19.8272 37.9042 19.8272C36.7773 19.8259 35.697 19.3964 34.9002 18.6327C34.1034 17.8691 33.6552 16.8338 33.6539 15.7539ZM37.9042 21.0939C36.8021 21.0939 35.7248 20.7808 34.8085 20.194C33.8922 19.6072 33.178 18.7732 32.7562 17.7974C32.3345 16.8217 32.2241 15.748 32.4391 14.7121C32.6541 13.6762 33.1848 12.7247 33.9641 11.9779C34.7434 11.2311 35.7362 10.7225 36.8171 10.5164C37.898 10.3104 39.0184 10.4161 40.0365 10.8203C41.0547 11.2245 41.925 11.9089 42.5372 12.7871C43.1495 13.6653 43.4763 14.6977 43.4763 15.7539C43.4747 17.1697 42.8871 18.5271 41.8425 19.5282C40.7979 20.5293 39.3815 21.0924 37.9042 21.0939ZM34.142 21.1978C34.0436 21.1348 33.9294 21.0984 33.8113 21.0923C33.6932 21.0862 33.5756 21.1107 33.4708 21.1632L32.5779 21.6093L31.7963 20.8603L32.2603 19.9988C32.3145 19.8984 32.3396 19.7859 32.3331 19.6731C32.3266 19.5602 32.2886 19.4511 32.2232 19.357C31.7374 18.6573 31.3987 17.8735 31.226 17.0495C31.203 16.9381 31.1492 16.8347 31.0703 16.7501C30.9913 16.6656 30.89 16.6029 30.777 16.5687L29.8169 16.2803V15.2227L30.7795 14.9289C30.8918 14.8947 30.9925 14.8324 31.0712 14.7484C31.1498 14.6644 31.2036 14.5617 31.227 14.4511C31.4 13.6281 31.7384 12.8451 32.2232 12.1459C32.2887 12.0517 32.3264 11.9424 32.3326 11.8294C32.3388 11.7164 32.3131 11.6039 32.2583 11.5036L31.7928 10.647L32.5744 9.89749L33.4733 10.3427C33.5779 10.3945 33.6951 10.4186 33.8127 10.4126C33.9303 10.4066 34.0442 10.3707 34.1425 10.3085C34.8727 9.84329 35.6906 9.51899 36.5503 9.35377C36.6667 9.33142 36.7747 9.27946 36.863 9.20333C36.9513 9.12721 37.0165 9.02972 37.0519 8.9211L37.3529 8H38.4565L38.7645 8.92495C38.8007 9.03275 38.8663 9.12934 38.9545 9.20472C39.0426 9.28011 39.1502 9.33156 39.2661 9.35377C40.1261 9.51914 40.944 9.84396 41.6739 10.31C41.7725 10.3726 41.8868 10.4089 42.0049 10.4149C42.123 10.421 42.2406 10.3967 42.3456 10.3446L43.2385 9.89749L44.0201 10.6465L43.5556 11.508C43.5016 11.6083 43.4764 11.7206 43.4828 11.8333C43.4891 11.946 43.5267 12.0551 43.5917 12.1493C44.0776 12.8489 44.4162 13.6328 44.5884 14.4568C44.6114 14.5685 44.6655 14.6722 44.745 14.7568C44.8245 14.8415 44.9264 14.9039 45.0399 14.9376L46 15.226V16.2837L45.0359 16.5779C44.9238 16.6121 44.8233 16.6744 44.7448 16.7583C44.6663 16.8422 44.6127 16.9448 44.5894 17.0552C44.4162 17.8793 44.0769 18.6631 43.5907 19.3628C43.5254 19.4573 43.4878 19.5668 43.4817 19.6799C43.4756 19.793 43.5013 19.9056 43.5561 20.006L44.0216 20.8622L43.24 21.6112L42.3406 21.1661C42.236 21.1143 42.119 21.0904 42.0015 21.0966C41.884 21.1029 41.7704 21.1391 41.6724 21.2016C40.942 21.6664 40.1242 21.9906 39.2646 22.1559C39.148 22.1778 39.0397 22.2296 38.9514 22.3058C38.8631 22.382 38.798 22.4797 38.763 22.5886L38.462 23.5087H37.3584L37.0519 22.5857C37.0162 22.4781 36.9512 22.3816 36.8635 22.3062C36.7759 22.2308 36.6688 22.1793 36.5533 22.1569C35.6912 21.991 34.8712 21.6652 34.1395 21.1978H34.142Z" fill="#44ADC1"/>
</svg>
