<svg width="48" height="48" viewBox="0 0 48 48" fill="none" xmlns="http://www.w3.org/2000/svg">
<path d="M43.0335 3L39.6596 40.7956L24.4941 45L9.37027 40.8015L6 3H43.0335Z" fill="#264DE4"/>
<path d="M36.7712 38.3889L39.6544 6.09082H24.5167V41.7863L36.7712 38.3889Z" fill="#2965F1"/>
<path d="M13.7266 20.1104L14.1421 24.7465H24.517V20.1104H13.7266Z" fill="#EBEBEB"/>
<path d="M24.517 10.7266H24.501H12.8916L13.3131 15.3628H24.517V10.7266Z" fill="#EBEBEB"/>
<path d="M24.5163 36.9754V32.1518L24.496 32.1572L19.3326 30.763L19.0025 27.0654H16.4935H14.3485L14.998 34.3449L24.495 36.9813L24.5163 36.9754Z" fill="#EBEBEB"/>
<path d="M30.2109 24.7465L29.6728 30.7593L24.502 32.155V36.9784L34.0064 34.3442L34.0762 33.5609L35.1656 21.3553L35.2787 20.1104L36.1157 10.7266H24.502V15.3628H31.0348L30.613 20.1104H24.502V24.7465H30.2109Z" fill="white"/>
</svg>
