<svg width="48" height="48" viewBox="0 0 48 48" fill="none" xmlns="http://www.w3.org/2000/svg">
<path d="M35.5869 27.6133L35.915 28.8838C36.4065 28.9657 36.8981 29.0881 37.3486 29.252L38.25 28.3096L39.6426 29.1699L39.2744 30.3994C39.643 30.6861 39.9712 31.0542 40.2988 31.4229L41.5273 31.0547L42.3057 32.3652L41.3633 33.2666C41.5271 33.7171 41.6505 34.2087 41.7324 34.7002L43.002 35.0283V36.585L41.7324 36.9541C41.6505 37.4456 41.5271 37.9371 41.3633 38.3877L42.3057 39.2891L41.5273 40.6406L40.2988 40.2725C40.0121 40.6411 39.643 40.9683 39.2744 41.2959L39.6426 42.5254L38.291 43.3037L37.3896 42.3613C36.9391 42.5252 36.4476 42.6485 35.9561 42.7305L35.6279 44H34.0713L33.7441 42.7305C33.2525 42.6485 32.7602 42.5252 32.3096 42.3613L31.4092 43.3037L30.0566 42.5254L30.3438 41.2549C29.9751 40.9682 29.647 40.6001 29.3193 40.2314L28.0908 40.5996L27.3125 39.248L28.3359 38.3467C28.1721 37.8962 28.0497 37.4046 27.9678 36.9131L26.6973 36.585V35.0283L27.9678 34.7002C28.0497 34.2087 28.1721 33.7171 28.3359 33.2666L27.3936 32.3652L28.1729 31.0137L29.4014 31.3828C29.6881 31.0141 30.0571 30.6861 30.4258 30.3584L30.0566 29.1289L31.3682 28.3096L32.2686 29.252C32.7192 29.0881 33.2115 28.9657 33.7031 28.8838L34.0303 27.6133H35.5869ZM34.8086 30.3994C31.8182 30.3996 29.3604 32.8163 29.3604 35.8477C29.3604 38.8381 31.7772 41.2957 34.8086 41.2959C37.8401 41.2959 40.2988 38.8382 40.2578 35.8477C40.2578 32.8571 37.8401 30.3994 34.8086 30.3994ZM25.1816 34.21C25.0998 34.7424 25.0586 35.2752 25.0586 35.8076C25.0587 37.1594 25.3453 38.4292 25.7959 39.5762C24.444 39.9039 23.01 40.1084 21.5352 40.1084H21.3711C21.1253 38.1421 20.9207 36.2164 20.7568 34.332H21.7402C22.8463 34.332 24.0346 34.2919 25.1816 34.21ZM12.8066 33.5537C14.8139 33.9224 16.9442 34.1681 19.2383 34.291C19.3612 36.1754 19.5667 38.06 19.8125 40.0264C17.9281 39.8215 16.1249 39.3302 14.4453 38.5928C13.7899 36.9951 13.2573 35.3152 12.8066 33.5537ZM34.8047 33.4717C36.0942 33.4717 37.1394 34.5172 37.1396 35.8066C37.1396 37.0963 36.0943 38.1426 34.8047 38.1426C33.5152 38.1425 32.4697 37.0962 32.4697 35.8066C32.4699 34.5172 33.5153 33.4718 34.8047 33.4717ZM6.74414 31.9561C8.09604 32.4477 9.53013 32.8578 11.0459 33.1855C11.3736 34.6191 11.8239 36.0527 12.3154 37.4863C10.0624 36.0935 8.17792 34.2091 6.74414 31.9561ZM29.6846 23.6406C29.6846 24.9515 29.6444 26.2624 29.5215 27.5732C27.719 28.7613 26.3253 30.523 25.5879 32.5713C23.9493 32.7351 22.2694 32.7763 20.6309 32.6943C20.426 29.8267 20.3447 27.0406 20.3447 24.2139H21.4912C24.1949 24.2139 26.9399 24.0093 29.6846 23.6406ZM11.498 23.3535C13.874 23.8041 16.3322 24.091 18.8311 24.2139C18.7901 26.9994 18.8714 29.8259 19.0762 32.6934C16.7414 32.5705 14.4885 32.2836 12.3994 31.874C11.8259 29.1294 11.4981 26.221 11.498 23.3535ZM4.04102 21.2637C5.92545 22.0011 7.89208 22.5748 9.89941 23.0254C9.85847 25.8109 10.1043 28.6374 10.6777 31.4639C8.83424 31.0132 7.15439 30.4397 5.59766 29.8252C4.57358 27.6131 4 25.155 4 22.5332C4 22.1237 4.00007 21.6732 4.04102 21.2637ZM39.0703 21.5908C39.1113 21.9185 39.1113 22.2056 39.1113 22.5332C39.1113 24.008 38.9068 25.4421 38.5791 26.7939C37.4321 26.3434 36.1623 26.0567 34.8105 26.0566C33.5406 26.0566 32.3112 26.3023 31.2051 26.7529C31.287 25.6469 31.3281 24.5406 31.2871 23.4346C33.9089 22.984 36.4895 22.3691 39.0703 21.5908ZM28.418 13.2744C29.1963 16.1421 29.6065 19.1335 29.6885 22.124C26.575 22.5747 23.4612 22.7792 20.3887 22.6973C20.4296 19.7887 20.5931 16.7981 20.8799 13.7666C23.4198 13.7666 25.96 13.6021 28.418 13.2744ZM12.9316 13.3154C14.898 13.5612 17.0692 13.7256 19.3223 13.7666C19.0355 16.7981 18.872 19.7477 18.8311 22.6562C16.3322 22.5334 13.8741 22.2055 11.498 21.7549C11.621 18.8873 12.0714 16.0602 12.9316 13.3154ZM35.46 11.8408C37.2624 14.1758 38.4917 17.0028 38.9424 20.0342C36.4026 20.8125 33.863 21.4273 31.2822 21.8779C31.2413 21.3454 31.2001 20.7718 31.1592 20.2393C30.9543 17.7403 30.5442 15.3234 29.9297 13.0703C31.896 12.7426 33.7804 12.3324 35.46 11.8408ZM7.44141 12.1279C8.09687 12.3328 8.83491 12.5374 9.61328 12.7422C10.1866 12.865 10.8008 12.9885 11.415 13.1113C10.7187 15.3644 10.2273 17.7814 10.0225 20.2393C9.98149 20.608 9.98145 21.0181 9.98145 21.4688C7.97408 21.0181 6.08959 20.4035 4.24609 19.707C4.69672 16.9213 5.80277 14.2991 7.44141 12.1279ZM20.4287 5.04004C20.019 7.49804 19.7321 9.87486 19.4863 12.21C17.3561 12.169 15.3073 12.0456 13.4229 11.7998C14.2421 9.66971 15.3074 7.58063 16.6592 5.69629C17.8882 5.32759 19.1178 5.12197 20.4287 5.04004ZM21.9854 5C23.0504 5 24.0745 5.12332 25.0576 5.32812C26.2866 7.33544 27.2704 9.46569 27.9668 11.7598C25.7136 12.0465 23.3371 12.169 21.043 12.21C21.2888 9.87491 21.6167 7.45794 21.9854 5ZM14.2021 6.59766C13.301 8.15418 12.5226 9.83343 11.9082 11.5947C11.2118 11.4718 10.5969 11.3495 9.98242 11.2266C9.44992 11.1037 8.9584 10.9393 8.50781 10.8164C10.0645 9.055 12.0311 7.62176 14.2021 6.59766ZM27.1855 5.90039C29.9713 6.84262 32.3881 8.44099 34.3545 10.5303C32.8389 10.9399 31.1999 11.2669 29.4795 11.5127C28.865 9.5055 28.0867 7.57989 27.1855 5.90039Z" fill="#44ADC1"/>
</svg>
