<svg width="48" height="48" viewBox="0 0 48 48" fill="none" xmlns="http://www.w3.org/2000/svg">
<path d="M4 17.9596V36.2187C4 38.8586 5.9896 41 8.44444 41H39.5556C42.0104 41 44 38.8603 44 36.2187V17.9596H4ZM18.9582 32.6439C19.3089 32.9842 19.3141 33.5411 18.9721 33.8882C18.7985 34.0635 18.5676 34.1529 18.3367 34.1529C18.1127 34.1529 17.887 34.0687 17.7152 33.902L13.1525 29.478C12.9824 29.313 12.8852 29.0861 12.8852 28.8489C12.8852 28.6118 12.9824 28.3849 13.1525 28.2199L17.7152 23.7959C18.0659 23.4556 18.6284 23.4608 18.9721 23.8097C19.3159 24.1568 19.3089 24.7137 18.9582 25.054L15.045 28.8488L18.9582 32.6439ZM27.3262 23.3097L22.2809 35.0739C22.1368 35.4091 21.8087 35.6102 21.4614 35.6102C21.3451 35.6102 21.2288 35.5878 21.1142 35.5397C20.6628 35.3506 20.451 34.8333 20.6437 34.3865L25.689 22.6223C25.88 22.1755 26.4026 21.9658 26.854 22.1565C27.3054 22.3456 27.5172 22.8629 27.3245 23.3098L27.3262 23.3097ZM34.8471 29.4783L30.2844 33.9023C30.1108 34.0707 29.8869 34.1532 29.6629 34.1532C29.432 34.1532 29.2011 34.0655 29.0275 33.8885C28.6838 33.5413 28.6907 32.9845 29.0414 32.6442L32.9546 28.8494L29.0414 25.0546C28.6907 24.7143 28.6855 24.1574 29.0275 23.8102C29.3713 23.4631 29.9338 23.4579 30.2844 23.7965L34.8471 28.2205C35.0172 28.3855 35.1145 28.6123 35.1145 28.8495C35.1145 29.0867 35.0172 29.3133 34.8471 29.4783ZM44 16.1997V12.7813C44 10.1414 42.0104 8 39.5556 8L8.44444 8.00172C5.9896 8.00172 4 10.1415 4 12.783V16.2014H44V16.1997ZM16.408 11.4409C17.0208 11.4409 17.5191 11.9341 17.5191 12.5408C17.5191 13.1475 17.0208 13.6408 16.408 13.6408C15.7952 13.6408 15.2969 13.1475 15.2969 12.5408C15.2969 11.9341 15.7952 11.4409 16.408 11.4409ZM12.8524 11.4409C13.4653 11.4409 13.9636 11.9341 13.9636 12.5408C13.9636 13.1475 13.4653 13.6408 12.8524 13.6408C12.2396 13.6408 11.7413 13.1475 11.7413 12.5408C11.7413 11.9341 12.2396 11.4409 12.8524 11.4409ZM9.29689 11.4409C9.90973 11.4409 10.408 11.9341 10.408 12.5408C10.408 13.1475 9.90973 13.6408 9.29689 13.6408C8.68404 13.6408 8.18578 13.1475 8.18578 12.5408C8.18578 11.9341 8.68404 11.4409 9.29689 11.4409Z" fill="#44ADC1"/>
</svg>
