<svg width="48" height="48" viewBox="0 0 48 48" fill="none" xmlns="http://www.w3.org/2000/svg">
<path fill-rule="evenodd" clip-rule="evenodd" d="M5.98773 33.3709L24.1021 44.8849C24.3436 45.0384 24.6564 45.0384 24.8979 44.8849C24.8979 44.8849 38.0525 36.5238 43.0123 33.3709C43.6283 32.9792 44 32.3117 44 31.5955C44 30.8799 43.6283 30.2117 43.0123 29.82L40.2236 28.0481L43.0123 26.2755C43.6283 25.8837 44 25.2163 44 24.5C44 23.7837 43.6283 23.1163 43.0123 22.7245L40.2236 20.9519L43.0123 19.18C43.6283 18.7883 44 18.1201 44 17.4045C44 16.6883 43.6283 16.0208 43.0123 15.6291C38.0525 12.4762 24.8979 4.11508 24.8979 4.11508C24.6564 3.96164 24.3436 3.96164 24.1021 4.11508C24.1021 4.11508 10.9475 12.4762 5.98773 15.6291C5.37167 16.0208 5 16.6883 5 17.4045C5 18.1201 5.37167 18.7883 5.98773 19.18L8.77635 20.9519L5.98773 22.7245C5.37167 23.1163 5 23.7837 5 24.5C5 25.2163 5.37167 25.8837 5.98773 26.2755L8.77635 28.0481L5.98773 29.82C5.37167 30.2117 5 30.8799 5 31.5955C5 32.3117 5.37167 32.9792 5.98773 33.3709ZM24.5 36.3527L42.2158 25.0918C42.4217 24.961 42.5453 24.739 42.5453 24.5C42.5453 24.261 42.4217 24.039 42.2158 23.9082L38.8948 21.7969L24.8979 30.694C24.6564 30.8474 24.3436 30.8474 24.1021 30.694L10.1052 21.7969L6.78417 23.9082C6.57833 24.039 6.45468 24.261 6.45468 24.5C6.45468 24.739 6.57833 24.961 6.78417 25.0918L24.5 36.3527Z" fill="#44ADC1"/>
</svg>
