<svg width="48" height="48" viewBox="0 0 48 48" fill="none" xmlns="http://www.w3.org/2000/svg">
<g clip-path="url(#clip0_599_11220)">
<path d="M0 0H48V48H0V0Z" fill="#F7DF1E"/>
<path d="M12.621 40.1119L16.2942 37.8889C17.0029 39.1453 17.6475 40.2084 19.1938 40.2084C20.676 40.2084 21.6107 39.6287 21.6107 37.3734V22.0363H26.1214V37.4372C26.1214 42.1091 23.3828 44.2358 19.3872 44.2358C15.7787 44.2358 13.6842 42.3669 12.6208 40.1115M28.5715 39.6285L32.2442 37.5021C33.2112 39.081 34.4678 40.2409 36.6908 40.2409C38.56 40.2409 39.7517 39.3064 39.7517 38.0175C39.7517 36.471 38.5274 35.9231 36.4652 35.0213L35.3378 34.5375C32.0834 33.1524 29.9247 31.4124 29.9247 27.7393C29.9247 24.3561 32.5022 21.7783 36.5299 21.7783C39.3975 21.7783 41.4597 22.7773 42.9417 25.3871L39.4294 27.6428C38.656 26.2573 37.8186 25.7096 36.5297 25.7096C35.2086 25.7096 34.3709 26.5474 34.3709 27.6428C34.3709 28.9959 35.2086 29.544 37.1417 30.3818L38.2693 30.8649C42.1037 32.5084 44.2624 34.1837 44.2624 37.9532C44.2624 42.0133 41.0727 44.2363 36.7873 44.2363C32.5988 44.2363 29.8922 42.2387 28.5713 39.6287" fill="black"/>
</g>
<defs>
<clipPath id="clip0_599_11220">
<rect width="48" height="48" fill="white"/>
</clipPath>
</defs>
</svg>
