<svg width="48" height="48" viewBox="0 0 48 48" fill="none" xmlns="http://www.w3.org/2000/svg">
<path d="M44.9769 12.4449C44.9921 12.5012 44.9999 12.5592 45 12.6175V21.6772C45 21.7935 44.9693 21.9077 44.911 22.0084C44.8527 22.109 44.7689 22.1924 44.6681 22.2503L37.0641 26.6282V35.3056C37.0641 35.5418 36.9386 35.7598 36.7338 35.8787L20.8611 45.016C20.8247 45.0367 20.7851 45.0499 20.7455 45.0639C20.7306 45.0689 20.7166 45.078 20.7009 45.0821C20.5899 45.1113 20.4733 45.1113 20.3623 45.0821C20.3442 45.0771 20.3277 45.0672 20.3103 45.0606C20.274 45.0474 20.236 45.0359 20.2013 45.016L4.33194 35.8787C4.23112 35.8208 4.14736 35.7373 4.08908 35.6367C4.03081 35.5361 4.00008 35.4219 4 35.3056V8.12645C4 8.067 4.00826 8.0092 4.02312 7.95305C4.02807 7.93406 4.03963 7.91672 4.04624 7.89773C4.05863 7.86305 4.07019 7.82754 4.08835 7.79534C4.10074 7.77387 4.1189 7.75653 4.13377 7.73671C4.15276 7.71029 4.1701 7.68304 4.19239 7.65992C4.21138 7.64093 4.23615 7.62689 4.25762 7.61038C4.28157 7.59056 4.30304 7.56909 4.33029 7.5534L12.2662 2.98473C12.3667 2.92691 12.4806 2.89648 12.5965 2.89648C12.7124 2.89648 12.8263 2.92691 12.9268 2.98473L20.8619 7.5534H20.8636C20.89 7.56992 20.9123 7.59056 20.9362 7.60955C20.9577 7.62607 20.9816 7.64093 21.0006 7.6591C21.0237 7.68304 21.0403 7.71029 21.0601 7.73671C21.0741 7.75653 21.0931 7.77387 21.1047 7.79534C21.1237 7.82837 21.1344 7.86305 21.1476 7.89773C21.1542 7.91672 21.1658 7.93406 21.1707 7.95388C21.1859 8.01015 21.1937 8.06816 21.1938 8.12645V25.1023L27.8062 21.2949V12.6167C27.8062 12.5589 27.8144 12.5003 27.8293 12.4449C27.8351 12.4251 27.8458 12.4078 27.8524 12.3888C27.8656 12.3541 27.8772 12.3186 27.8953 12.2864C27.9077 12.2649 27.9259 12.2476 27.9399 12.2278C27.9597 12.2013 27.9763 12.1741 27.9994 12.151C28.0184 12.132 28.0423 12.118 28.0638 12.1014C28.0886 12.0816 28.11 12.0602 28.1364 12.0445L36.0732 7.47579C36.1737 7.41789 36.2876 7.38742 36.4035 7.38742C36.5194 7.38742 36.6333 7.41789 36.7338 7.47579L44.6689 12.0445C44.697 12.061 44.7184 12.0816 44.7432 12.1006C44.7638 12.1171 44.7878 12.132 44.8068 12.1502C44.8299 12.1741 44.8464 12.2013 44.8662 12.2278C44.8811 12.2476 44.8993 12.2649 44.9108 12.2864C44.9298 12.3186 44.9405 12.3541 44.9538 12.3888C44.9612 12.4078 44.9719 12.4251 44.9769 12.4449ZM43.6772 21.2949V13.7611L40.9003 15.3597L37.0641 17.5685V25.1023L43.678 21.2949H43.6772ZM35.7421 34.9233V27.3846L31.9686 29.5397L21.193 35.6896V43.2994L35.7421 34.9233ZM5.32279 9.27006V34.9233L19.8702 43.2986V35.6904L12.2704 31.3893L12.2679 31.3876L12.2646 31.386C12.239 31.3711 12.2175 31.3497 12.1936 31.3315C12.1729 31.315 12.149 31.3018 12.1308 31.2836L12.1292 31.2811C12.1077 31.2605 12.0928 31.2349 12.0747 31.2118C12.0581 31.1895 12.0383 31.1705 12.0251 31.1474L12.0243 31.1449C12.0094 31.1201 12.0003 31.0904 11.9896 31.0623C11.9789 31.0375 11.9648 31.0144 11.9582 30.988C11.95 30.9566 11.9483 30.9228 11.945 30.8906C11.9417 30.8658 11.9351 30.841 11.9351 30.8162V13.0774L8.09967 10.8678L5.32279 9.27006ZM12.5973 4.32073L5.98584 8.12645L12.5957 11.9322L19.2063 8.12562L12.5957 4.32073H12.5973ZM16.0356 28.0716L19.871 25.8636V9.27006L17.0942 10.8686L13.2579 13.0774V29.671L16.0356 28.0716ZM36.4035 8.81179L29.7928 12.6175L36.4035 16.4232L43.0133 12.6167L36.4035 8.81179ZM35.7421 17.5685L31.9058 15.3597L29.129 13.7611V21.2949L32.9644 23.5029L35.7421 25.1023V17.5685ZM20.5308 34.546L30.2272 29.0104L35.0741 26.2443L28.4684 22.441L20.8627 26.8198L13.9309 30.8105L20.5308 34.546Z" fill="#FF2D20"/>
</svg>
