<svg width="48" height="48" viewBox="0 0 48 48" fill="none" xmlns="http://www.w3.org/2000/svg">
<path d="M24.3673 3.11426L25.4961 5.21935C25.7499 5.60783 26.0249 5.95168 26.3487 6.2719C27.2982 7.20283 28.1832 8.19639 28.9977 9.24581C30.9104 11.7394 32.2005 14.5086 33.1218 17.5035C33.6743 19.3329 33.9744 21.2097 33.9968 23.1074C34.0894 28.7809 32.1304 33.6526 28.1808 37.7014C27.5383 38.3434 26.8443 38.9324 26.1055 39.4626C25.7142 39.4626 25.5292 39.1647 25.3679 38.8904C25.0743 38.3818 24.8788 37.8232 24.7916 37.2433C24.6528 36.5569 24.5616 35.8706 24.6066 35.1619V34.8416C24.5748 34.7734 24.2298 3.27568 24.3673 3.11426Z" fill="#599636"/>
<path d="M24.3679 3.04515C24.3216 2.95328 24.2754 3.02284 24.2291 3.06746C24.2516 3.5268 24.0903 3.93627 23.8379 4.32737C23.5603 4.71584 23.1928 5.01376 22.824 5.33398C20.7752 7.09523 19.1625 9.22264 17.8711 11.602C16.1527 14.8043 15.2671 18.2362 15.016 21.8493C14.901 23.1525 15.431 27.7512 15.8448 29.078C16.9736 32.6005 19.0013 35.5521 21.6278 38.1139C22.2728 38.7307 22.9628 39.3029 23.6766 39.8528C23.8841 39.8528 23.9066 39.6691 23.9542 39.5326C24.0452 39.2406 24.1145 38.9423 24.1617 38.6402L24.6243 35.2095L24.3679 3.04515Z" fill="#6CAC48"/>
<path d="M25.4973 40.8564C25.5435 40.3315 25.7973 39.8957 26.0736 39.4613C25.796 39.3472 25.5898 39.1201 25.4285 38.8668C25.2895 38.627 25.1744 38.3743 25.0849 38.1122C24.7623 37.1515 24.6936 36.1436 24.6011 35.1619V34.5674C24.4861 34.6593 24.4623 35.4362 24.4623 35.5517C24.395 36.5892 24.2564 37.621 24.0472 38.6398C23.9785 39.0519 23.9322 39.4627 23.6771 39.8288C23.6771 39.8747 23.6771 39.9207 23.6996 39.9889C24.1146 41.2016 24.2283 42.4366 24.2984 43.6952V44.1545C24.2984 44.7031 24.2759 44.5876 24.7346 44.7713C24.9196 44.8396 25.1259 44.8632 25.3109 44.9997C25.4497 44.9997 25.4722 44.8855 25.4722 44.7936L25.4034 44.039V41.9339C25.381 41.5664 25.4497 41.2016 25.496 40.8577L25.4973 40.8564Z" fill="#C2BFBF"/>
</svg>
