<svg width="48" height="48" viewBox="0 0 48 48" fill="none" xmlns="http://www.w3.org/2000/svg">
<path d="M24.5 45C23.9371 45.0002 23.3841 44.8512 22.8966 44.568L17.7944 41.5274C17.033 41.0984 17.404 40.9469 17.6558 40.8584C18.4657 40.6066 19.2411 40.2538 19.964 39.8084C20.0246 39.7802 20.0912 39.7681 20.1577 39.7731C20.2242 39.778 20.2883 39.8 20.344 39.8369L24.2646 42.1815C24.3376 42.2203 24.4189 42.2407 24.5015 42.2407C24.5841 42.2407 24.6654 42.2203 24.7384 42.1815L40.0272 33.2983C40.0987 33.2552 40.1579 33.1941 40.1989 33.121C40.2399 33.0479 40.2614 32.9653 40.2611 32.8813V15.1121C40.2612 15.0268 40.2394 14.9429 40.1979 14.8686C40.1564 14.7942 40.0966 14.7319 40.0242 14.6876L24.7354 5.81196C24.6634 5.77108 24.582 5.74961 24.4993 5.74961C24.4165 5.74961 24.3352 5.77108 24.2631 5.81196L8.98326 14.6906C8.91037 14.734 8.84985 14.7956 8.80756 14.8694C8.76527 14.9433 8.74264 15.0268 8.74185 15.1121V32.8738C8.74206 32.9576 8.76439 33.0398 8.80655 33.112C8.8487 33.1842 8.90917 33.2439 8.98177 33.2848L13.175 35.7209C15.4474 36.8639 16.8392 35.5169 16.8392 34.1638V16.6271C16.8392 16.568 16.8508 16.5095 16.8733 16.4549C16.8957 16.4003 16.9287 16.3507 16.9702 16.3089C17.0117 16.2671 17.061 16.234 17.1152 16.2114C17.1694 16.1887 17.2276 16.1771 17.2863 16.1771H19.2234C19.342 16.1771 19.4557 16.2245 19.5395 16.3089C19.6234 16.3933 19.6705 16.5078 19.6705 16.6271V34.1653C19.6705 37.2179 18.0194 38.9654 15.1435 38.9654C13.9027 38.9872 12.6815 38.6532 11.6223 38.0024L7.60339 35.6819C7.11551 35.3959 6.71068 34.986 6.42933 34.4933C6.14798 34.0006 5.99995 33.4422 6.00001 32.8738V15.1121C5.99856 14.5429 6.14597 13.9833 6.42742 13.4896C6.70887 12.9959 7.11444 12.5855 7.60339 12.2995L22.8936 3.41342C23.3862 3.14217 23.9386 3 24.5 3C25.0614 3 25.6138 3.14217 26.1064 3.41342L41.3951 12.2995C41.883 12.585 42.2879 12.9942 42.5695 13.4864C42.8511 13.9786 42.9995 14.5366 43 15.1046V32.8738C42.9992 33.4422 42.8506 34.0004 42.569 34.493C42.2875 34.9856 41.8828 35.3955 41.3951 35.6819L26.1064 44.568C25.618 44.8517 25.0639 45.0007 24.5 45Z" fill="#00D486"/>
<path d="M21.6006 26.9293C21.6006 26.81 21.6477 26.6955 21.7315 26.6111C21.8154 26.5267 21.9291 26.4793 22.0476 26.4793H24.025C24.1307 26.4797 24.2328 26.5177 24.3133 26.5866C24.3937 26.6555 24.4474 26.7509 24.4646 26.8558C24.7626 28.8824 25.6567 29.9039 29.6995 29.9039C32.9196 29.9039 34.292 29.1704 34.292 27.4499C34.292 26.4583 33.9031 25.7218 28.8978 25.2283C24.7135 24.8113 22.1266 23.8783 22.1266 20.5123C22.1266 17.4072 24.7269 15.5547 29.0855 15.5547C33.9836 15.5547 36.408 17.2662 36.715 20.9383C36.7197 20.9996 36.7118 21.0612 36.692 21.1193C36.6721 21.1775 36.6406 21.2309 36.5994 21.2763C36.5582 21.3217 36.5082 21.3581 36.4525 21.3833C36.3967 21.4085 36.3365 21.4219 36.2754 21.4228H34.2846C34.1847 21.4214 34.0882 21.3863 34.0104 21.3232C33.9326 21.2602 33.8781 21.1727 33.8554 21.0748C33.3801 18.9432 32.2163 18.2622 29.087 18.2622C25.5703 18.2622 25.162 19.4952 25.162 20.4193C25.162 21.5383 25.6448 21.8653 30.3924 22.4968C35.0908 23.1223 37.323 24.0073 37.323 27.3314C37.323 30.6854 34.5454 32.6054 29.7009 32.6054C23.0028 32.6144 21.6006 29.5229 21.6006 26.9293Z" fill="#00D486"/>
</svg>
