<svg width="48" height="48" viewBox="0 0 48 48" fill="none" xmlns="http://www.w3.org/2000/svg">
<path d="M6.32357 18.3874H12.5524C14.3806 18.4028 15.7053 18.9299 16.5267 19.9679C17.3481 21.0058 17.6191 22.4236 17.3402 24.2211C17.2318 25.0425 16.9915 25.848 16.6197 26.6382C16.2583 27.4357 15.7541 28.1603 15.1322 28.7765C14.3573 29.582 13.5285 30.0934 12.6453 30.3104C11.7621 30.5275 10.8478 30.6358 9.9028 30.6358H7.11379L6.2306 35.0518H3L6.32357 18.3874ZM9.04286 21.037L7.64835 28.0095C7.74132 28.0249 7.83429 28.0327 7.92725 28.0327H8.25264C9.74011 28.0481 10.9798 27.9012 11.9713 27.5912C12.9628 27.2658 13.6294 26.1348 13.9701 24.1979C14.249 22.5709 13.9701 21.6334 13.1334 21.3856C12.312 21.1378 11.282 21.0216 10.0423 21.037C9.85632 21.0523 9.67828 21.0602 9.50769 21.0602H9.01961L9.04286 21.037ZM21.0203 13.9482H24.2276L23.3212 18.3874H26.2032C27.7836 18.4186 28.961 18.7439 29.7359 19.3636C30.5261 19.9832 30.7585 21.1611 30.4332 22.8963L28.876 30.6358H25.6221L27.1096 23.2449C27.2644 22.4701 27.2179 21.9202 26.9701 21.5948C26.7224 21.2694 26.1878 21.1067 25.3665 21.1067L22.7866 21.0835L20.8808 30.6358H17.6734L21.0203 13.9482ZM33.8773 18.3874H40.1061C41.9343 18.4028 43.2591 18.9299 44.0805 19.9679C44.9018 21.0058 45.1728 22.4236 44.8939 24.2211C44.7856 25.0425 44.5453 25.848 44.1734 26.6382C43.812 27.4357 43.3079 28.1603 42.686 28.7765C41.9111 29.582 41.0823 30.0934 40.1991 30.3104C39.3159 30.5275 38.4016 30.6358 37.4566 30.6358H34.6675L33.7844 35.0518H30.5538L33.8773 18.3874ZM36.5966 21.037L35.2021 28.0095C35.2951 28.0249 35.388 28.0327 35.481 28.0327H35.8064C37.2939 28.0481 38.5336 27.9012 39.5251 27.5912C40.5166 27.2658 41.1831 26.1348 41.5239 24.1979C41.8028 22.5709 41.5239 21.6334 40.6872 21.3856C39.8658 21.1378 38.8357 21.0216 37.596 21.037C37.4101 21.0523 37.232 21.0602 37.0614 21.0602H36.5734L36.5966 21.037Z" fill="white"/>
</svg>
