<svg width="48" height="48" viewBox="0 0 48 48" fill="none" xmlns="http://www.w3.org/2000/svg">
<path d="M46 24.5045C46 21.6033 42.3498 18.854 36.7534 17.149C38.0448 11.4717 37.4709 6.95491 34.9417 5.50881C34.3587 5.1696 33.6771 5.00893 32.9327 5.00893V6.99954C33.3453 6.99954 33.6771 7.07988 33.9552 7.23163C35.1749 7.9279 35.704 10.5791 35.2915 13.989C35.1928 14.8281 35.0314 15.7118 34.8341 16.6134C33.0762 16.1849 31.1569 15.8547 29.139 15.6404C27.9282 13.989 26.6726 12.4894 25.4081 11.1772C28.3318 8.47242 31.0762 6.99062 32.9417 6.99062V5C30.4753 5 27.2466 6.7496 23.9821 9.78462C20.7175 6.76745 17.4888 5.03571 15.0224 5.03571V7.02632C16.8789 7.02632 19.6323 8.4992 22.5561 11.1861C21.3004 12.4983 20.0448 13.989 18.852 15.6404C16.8251 15.8547 14.9058 16.1849 13.148 16.6223C12.9417 15.7297 12.7892 14.8638 12.6816 14.0336C12.2601 10.6237 12.7803 7.97253 13.991 7.26734C14.2601 7.10666 14.6099 7.03525 15.0224 7.03525V5.04463C14.2691 5.04463 13.5874 5.20531 12.9955 5.54452C10.4753 6.99062 9.91031 11.4985 11.2108 17.1579C5.63229 18.8718 2 21.6123 2 24.5045C2 27.4056 5.65022 30.155 11.2466 31.8599C9.95516 37.5372 10.5291 42.054 13.0583 43.5001C13.6413 43.8393 14.3229 44 15.0762 44C17.5426 44 20.7713 42.2504 24.0359 39.2154C27.3004 42.2325 30.5291 43.9643 32.9955 43.9643C33.7489 43.9643 34.4305 43.8036 35.0224 43.4644C37.5426 42.0183 38.1076 37.5104 36.8072 31.851C42.3677 30.146 46 27.3967 46 24.5045ZM34.3229 18.5505C33.991 19.702 33.5785 20.8892 33.1121 22.0764C32.7444 21.3623 32.3587 20.6482 31.9372 19.9341C31.5247 19.22 31.0852 18.5237 30.6457 17.8453C31.9193 18.0327 33.148 18.2648 34.3229 18.5505ZM30.2152 28.0572C29.5157 29.2623 28.7982 30.4049 28.0538 31.4672C26.7175 31.5832 25.3632 31.6457 24 31.6457C22.6457 31.6457 21.2915 31.5832 19.9641 31.4761C19.2197 30.4138 18.4933 29.2802 17.7937 28.084C17.1121 26.9146 16.4933 25.7274 15.9283 24.5312C16.4843 23.3351 17.1121 22.1389 17.7848 20.9696C18.4843 19.7645 19.2018 18.6219 19.9462 17.5596C21.2825 17.4436 22.6368 17.3811 24 17.3811C25.3543 17.3811 26.7085 17.4436 28.0359 17.5507C28.7803 18.613 29.5067 19.7466 30.2063 20.9428C30.8879 22.1122 31.5067 23.2994 32.0717 24.4955C31.5067 25.6917 30.8879 26.8878 30.2152 28.0572ZM33.1121 26.8968C33.5964 28.0929 34.009 29.2891 34.3498 30.4495C33.1749 30.7352 31.9372 30.9762 30.6547 31.1637C31.0942 30.4763 31.5336 29.7711 31.9462 29.0481C32.3587 28.3339 32.7444 27.6109 33.1121 26.8968ZM24.0179 36.4214C23.1839 35.5644 22.3498 34.6093 21.5247 33.5649C22.3318 33.6006 23.157 33.6274 23.991 33.6274C24.8341 33.6274 25.6682 33.6095 26.4843 33.5649C25.6771 34.6093 24.8431 35.5644 24.0179 36.4214ZM17.3453 31.1637C16.0717 30.9762 14.843 30.7441 13.6682 30.4585C14 29.3069 14.4126 28.1197 14.8789 26.9325C15.2466 27.6466 15.6323 28.3607 16.0538 29.0748C16.4753 29.789 16.9058 30.4852 17.3453 31.1637ZM23.9731 12.5875C24.8072 13.4445 25.6413 14.3996 26.4664 15.444C25.6592 15.4083 24.8341 15.3816 24 15.3816C23.157 15.3816 22.3229 15.3994 21.5067 15.444C22.3139 14.3996 23.148 13.4445 23.9731 12.5875ZM17.3363 17.8453C16.8969 18.5326 16.4574 19.2378 16.0448 19.9609C15.6323 20.675 15.2466 21.3891 14.8789 22.1032C14.3946 20.9071 13.9821 19.7109 13.6413 18.5505C14.8161 18.2737 16.0538 18.0327 17.3363 17.8453ZM9.21973 29.0213C6.04484 27.6734 3.99103 25.9059 3.99103 24.5045C3.99103 23.103 6.04484 21.3266 9.21973 19.9876C9.99103 19.6574 10.8341 19.3628 11.704 19.0861C12.2152 20.8357 12.8879 22.6567 13.722 24.5223C12.8969 26.379 12.2332 28.1911 11.7309 29.9318C10.8431 29.6551 10 29.3516 9.21973 29.0213ZM14.0448 41.7773C12.8251 41.081 12.296 38.4298 12.7085 35.0199C12.8072 34.1808 12.9686 33.2971 13.1659 32.3955C14.9238 32.824 16.8431 33.1543 18.861 33.3685C20.0718 35.0199 21.3274 36.5196 22.5919 37.8318C19.6682 40.5365 16.9238 42.0183 15.0583 42.0183C14.6547 42.0094 14.3139 41.929 14.0448 41.7773ZM35.3184 34.9753C35.7399 38.3852 35.2197 41.0364 34.009 41.7416C33.7399 41.9023 33.3901 41.9737 32.9776 41.9737C31.1211 41.9737 28.3677 40.5008 25.4439 37.8139C26.6996 36.5017 27.9552 35.011 29.148 33.3596C31.1749 33.1453 33.0942 32.8151 34.852 32.3777C35.0583 33.2792 35.2197 34.1451 35.3184 34.9753ZM38.7713 29.0213C38 29.3516 37.157 29.6461 36.287 29.9229C35.7758 28.1733 35.1031 26.3523 34.2691 24.4866C35.0942 22.6299 35.7579 20.8178 36.2601 19.0771C37.148 19.3539 37.991 19.6574 38.7803 19.9876C41.9552 21.3355 44.009 23.103 44.009 24.5045C44 25.9059 41.9462 27.6823 38.7713 29.0213Z" fill="#61DAFB"/>
<path d="M23.9909 28.5837C26.2545 28.5837 28.0895 26.7572 28.0895 24.5042C28.0895 22.2512 26.2545 20.4248 23.9909 20.4248C21.7272 20.4248 19.8922 22.2512 19.8922 24.5042C19.8922 26.7572 21.7272 28.5837 23.9909 28.5837Z" fill="#61DAFB"/>
</svg>
