<svg width="48" height="48" viewBox="0 0 48 48" fill="none" xmlns="http://www.w3.org/2000/svg">
<path d="M39.7143 4H8.28571C7.14907 4 6.05898 4.45153 5.25526 5.25526C4.45153 6.05898 4 7.14907 4 8.28571V15.4286H44V8.28571C44 7.14907 43.5485 6.05898 42.7447 5.25526C41.941 4.45153 40.8509 4 39.7143 4ZM11.1429 11.1429H9.71429C9.33541 11.1429 8.97204 10.9923 8.70413 10.7244C8.43622 10.4565 8.28571 10.0932 8.28571 9.71429C8.28571 9.33541 8.43622 8.97204 8.70413 8.70413C8.97204 8.43622 9.33541 8.28571 9.71429 8.28571H11.1429C11.5217 8.28571 11.8851 8.43622 12.153 8.70413C12.4209 8.97204 12.5714 9.33541 12.5714 9.71429C12.5714 10.0932 12.4209 10.4565 12.153 10.7244C11.8851 10.9923 11.5217 11.1429 11.1429 11.1429ZM18.2857 11.1429H16.8571C16.4783 11.1429 16.1149 10.9923 15.847 10.7244C15.5791 10.4565 15.4286 10.0932 15.4286 9.71429C15.4286 9.33541 15.5791 8.97204 15.847 8.70413C16.1149 8.43622 16.4783 8.28571 16.8571 8.28571H18.2857C18.6646 8.28571 19.028 8.43622 19.2959 8.70413C19.5638 8.97204 19.7143 9.33541 19.7143 9.71429C19.7143 10.0932 19.5638 10.4565 19.2959 10.7244C19.028 10.9923 18.6646 11.1429 18.2857 11.1429Z" fill="#44ADC1"/>
<path d="M19.7161 25.4287H12.5732V36.8573H19.7161V25.4287Z" fill="#44ADC1"/>
<path d="M4 39.7137C4 40.8504 4.45153 41.9405 5.25526 42.7442C6.05898 43.5479 7.14907 43.9994 8.28571 43.9994H39.7143C40.8509 43.9994 41.941 43.5479 42.7447 42.7442C43.5485 41.9405 44 40.8504 44 39.7137V18.2852H4V39.7137ZM26.8571 23.9994H36.8571C37.236 23.9994 37.5994 24.15 37.8673 24.4179C38.1352 24.6858 38.2857 25.0491 38.2857 25.428C38.2857 25.8069 38.1352 26.1703 37.8673 26.4382C37.5994 26.7061 37.236 26.8566 36.8571 26.8566H26.8571C26.4783 26.8566 26.1149 26.7061 25.847 26.4382C25.5791 26.1703 25.4286 25.8069 25.4286 25.428C25.4286 25.0491 25.5791 24.6858 25.847 24.4179C26.1149 24.15 26.4783 23.9994 26.8571 23.9994ZM26.8571 29.7137H36.8571C37.236 29.7137 37.5994 29.8642 37.8673 30.1321C38.1352 30.4001 38.2857 30.7634 38.2857 31.1423C38.2857 31.5212 38.1352 31.8845 37.8673 32.1525C37.5994 32.4204 37.236 32.5709 36.8571 32.5709H26.8571C26.4783 32.5709 26.1149 32.4204 25.847 32.1525C25.5791 31.8845 25.4286 31.5212 25.4286 31.1423C25.4286 30.7634 25.5791 30.4001 25.847 30.1321C26.1149 29.8642 26.4783 29.7137 26.8571 29.7137ZM26.8571 35.428H36.8571C37.236 35.428 37.5994 35.5785 37.8673 35.8464C38.1352 36.1143 38.2857 36.4777 38.2857 36.8566C38.2857 37.2355 38.1352 37.5988 37.8673 37.8667C37.5994 38.1346 37.236 38.2852 36.8571 38.2852H26.8571C26.4783 38.2852 26.1149 38.1346 25.847 37.8667C25.5791 37.5988 25.4286 37.2355 25.4286 36.8566C25.4286 36.4777 25.5791 36.1143 25.847 35.8464C26.1149 35.5785 26.4783 35.428 26.8571 35.428ZM9.71429 25.428C9.71429 24.6703 10.0153 23.9435 10.5511 23.4077C11.0869 22.8719 11.8137 22.5709 12.5714 22.5709H19.7143C20.472 22.5709 21.1988 22.8719 21.7346 23.4077C22.2704 23.9435 22.5714 24.6703 22.5714 25.428V36.8566C22.5714 37.6143 22.2704 38.3411 21.7346 38.8769C21.1988 39.4127 20.472 39.7137 19.7143 39.7137H12.5714C11.8137 39.7137 11.0869 39.4127 10.5511 38.8769C10.0153 38.3411 9.71429 37.6143 9.71429 36.8566V25.428Z" fill="#44ADC1"/>
</svg>
