<svg width="48" height="48" viewBox="0 0 48 48" fill="none" xmlns="http://www.w3.org/2000/svg">
<path d="M24.0003 45C12.3627 45 2.91283 35.7247 3.00061 24C3.08838 12.2753 11.9255 3 24.0003 3C36.076 3 45 12.45 45 24C45 35.55 35.6379 45 24.0003 45ZM30.2124 41.7622L24.2628 25.7497L18.6626 42.1125C22.7756 43.0756 25.5753 43.3372 30.2124 41.7622ZM15.6882 40.8878L6.76333 16.4753C5.5378 19.1003 5.27612 21.288 5.10058 24C5.18835 31.1745 9.21274 37.737 15.6882 40.8878ZM42.8131 24C42.9 19.3628 40.8009 15.6878 40.6253 15.1628C40.8009 18.7508 40.2751 20.5875 39.6631 22.6005L33.5379 40.188C41.2381 35.55 42.7245 28.6372 42.9 24H42.8131ZM23.3884 23.2125L20.4131 15.075L18.2254 14.9003C17.3509 14.2875 17.8751 13.3253 18.4879 13.3253C22.4253 13.5878 24.6122 13.5878 28.5505 13.3253C29.5135 13.3253 29.7752 14.7255 28.6375 14.9003L26.5375 15.075L33.3616 35.1997L36.5985 24.1747C36.774 19.3628 35.4607 18.8378 33.711 15.3375C32.3108 12.6247 33.7988 9.99973 36.5115 9.91277C34.323 7.81277 29.8614 5.18777 23.9987 5.1C18.136 5.01223 11.9238 7.9875 8.24889 13.5878L14.7243 13.413C15.5118 13.7633 15.1616 14.9003 14.7243 14.988L12.4497 15.1628L19.2746 35.6378L23.3884 23.2125Z" fill="#21759B"/>
</svg>
