<svg width="64" height="64" viewBox="0 0 64 64" fill="none" xmlns="http://www.w3.org/2000/svg">
<path d="M30.7812 18.8016C30.7812 11.7436 24.9976 6 17.8906 6C10.7836 6 5 11.7436 5 18.8016C5 25.8595 10.7836 31.6031 17.8906 31.6031C24.9976 31.6031 30.7812 25.8595 30.7812 18.8016ZM6.86484 18.8016C6.86484 12.7592 11.8148 7.85196 17.8906 7.85196C23.9664 7.85196 28.9164 12.7592 28.9164 18.8016C28.9164 24.8354 23.9664 29.7426 17.8906 29.7426C11.8148 29.7426 6.86484 24.8354 6.86484 18.8016Z" fill="#44ADC1"/>
<path d="M17.8908 33.3699C17.8392 33.3699 17.7791 33.3613 17.7275 33.3613C17.7103 33.7625 17.6931 34.1721 17.6931 34.5903C17.6931 44.8572 26.0892 53.2038 36.4275 53.2038C46.7657 53.2038 55.1704 44.8572 55.1704 34.5903C55.1704 24.332 46.7657 15.9854 36.4275 15.9854C35.0353 15.9854 33.6689 16.1475 32.3454 16.4377C32.4743 17.2058 32.5517 17.9995 32.5517 18.8102C32.5517 26.824 25.9775 33.3699 17.8908 33.3699ZM35.1814 20.5171C35.1814 20.0392 35.5853 19.6381 36.0665 19.6381C36.5564 19.6381 36.9517 20.0392 36.9517 20.5171V33.7113H47.8314C48.3126 33.7113 48.7165 34.1038 48.7165 34.5903C48.7165 35.0768 48.3126 35.4693 47.8314 35.4693H36.0665C35.5853 35.4693 35.1814 35.0768 35.1814 34.5903V20.5171Z" fill="#44ADC1"/>
<path d="M36.4274 11.1719C34.5196 11.1719 32.6204 11.4194 30.7813 11.8717C31.2712 12.7593 31.6665 13.7151 31.9587 14.7136C33.4024 14.3979 34.8977 14.2272 36.4274 14.2272C47.7368 14.2272 56.9493 23.359 56.9493 34.5902C56.9493 45.83 47.7368 54.9703 36.4274 54.9703C25.118 54.9703 15.9142 45.8214 15.9142 34.5817C15.9142 34.1208 15.9313 33.66 15.9571 33.2162C14.9259 33.0796 13.9204 32.8321 12.9579 32.4908C12.8978 33.1991 12.8462 33.8989 12.8462 34.5902C12.8462 47.5027 23.4251 58 36.4188 58C49.4211 58.0085 60 47.5027 60 34.5902C60 21.6862 49.4211 11.1719 36.4274 11.1719Z" fill="#44ADC1"/>
<path d="M27.1375 18.8016C27.1375 13.7322 22.9867 9.61865 17.8907 9.61865C12.7946 9.61865 8.6438 13.7322 8.6438 18.8016C8.6438 23.8625 12.7946 27.9761 17.8907 27.9761C22.9867 27.9761 27.1375 23.8625 27.1375 18.8016ZM17.0055 25.3475V24.3063C16.4383 24.1527 15.9313 23.8711 15.536 23.4529C14.9258 22.8299 14.5907 22.002 14.6079 21.1401C14.6164 20.6536 15.0032 20.2696 15.5102 20.2696C15.9914 20.2781 16.3868 20.6877 16.3782 21.1657C16.3696 21.5668 16.5157 21.9338 16.7993 22.2325C17.0828 22.5226 17.461 22.6848 17.8563 22.6848H17.8649C17.8735 22.6848 17.8735 22.6848 17.8821 22.6848C17.8821 22.6848 17.8821 22.6848 17.8907 22.6848C18.7157 22.6762 19.3688 22.0191 19.3946 21.2169C19.4032 20.8243 19.2485 20.4573 18.9649 20.1671C18.6727 19.877 18.286 19.7148 17.8735 19.7063C17.8649 19.7063 17.8563 19.7063 17.8563 19.7063C16.0516 19.6721 14.5993 18.2042 14.5993 16.4376C14.5993 14.9441 15.6133 13.7066 16.9969 13.3226V12.2558C16.9969 11.7693 17.3922 11.3767 17.8821 11.3767C18.3719 11.3767 18.7672 11.7693 18.7672 12.2558V13.297C20.1508 13.6896 21.1649 14.9356 21.1649 16.412C21.1649 16.8985 20.7696 17.2911 20.2797 17.2911C19.7899 17.2911 19.3946 16.8985 19.3946 16.412C19.3946 15.5927 18.7157 14.9185 17.8821 14.9185C17.0485 14.9185 16.3696 15.5927 16.3696 16.412C16.3696 17.2399 17.0571 17.9141 17.8993 17.9226H17.925C18.8016 17.9482 19.6094 18.3066 20.2196 18.9126C20.8383 19.5356 21.1821 20.3634 21.1649 21.251C21.1305 22.7104 20.1164 23.9223 18.7672 24.3063V25.3475C18.7672 25.834 18.3719 26.2266 17.8821 26.2266C17.3922 26.2266 17.0055 25.834 17.0055 25.3475Z" fill="#44ADC1"/>
</svg>
