<svg width="64" height="64" viewBox="0 0 64 64" fill="none" xmlns="http://www.w3.org/2000/svg">
<path d="M46.6602 21.5665C47.5685 21.5617 48.4427 21.9196 49.0869 22.5587C49.731 23.2003 50.0912 24.0715 50.0938 24.9796V49.586C50.0913 50.4941 49.731 51.3653 49.0869 52.0069C48.4427 52.6461 47.5685 53.0039 46.6602 52.9991H8.43164C7.52315 53.0041 6.65116 52.6462 6.00684 52.0069C5.36279 51.3653 5 50.4941 5 49.586V24.9796C5.00001 24.0715 5.36269 23.2003 6.00684 22.5587C6.65116 21.9195 7.52315 21.5616 8.43164 21.5665H46.6602ZM15.6992 26.1544C15.176 26.1545 14.6729 26.3644 14.3027 26.7345C13.9324 27.1047 13.7246 27.6058 13.7246 28.129C13.7294 29.316 12.7714 30.2833 11.584 30.2882C11.0607 30.2883 10.5568 30.4981 10.1865 30.8683C9.81632 31.2385 9.60938 31.7397 9.60938 32.2628V42.3009C9.60944 42.8239 9.81646 43.3273 10.1865 43.6974C10.5568 44.0675 11.0607 44.2754 11.584 44.2755C12.7714 44.2829 13.7295 45.2505 13.7246 46.4376C13.7247 46.9607 13.9325 47.4611 14.3027 47.8312C14.673 48.2038 15.176 48.4112 15.6992 48.4112H39.3916C39.915 48.4112 40.4188 48.2038 40.7891 47.8312C41.1591 47.4611 41.3671 46.9606 41.3672 46.4376C41.3623 45.2506 42.3195 44.2831 43.5068 44.2755C44.0302 44.2755 44.534 44.0676 44.9043 43.6974C45.2745 43.3272 45.4824 42.824 45.4824 42.3009V32.2628C45.4824 31.7396 45.2746 31.2385 44.9043 30.8683C44.534 30.4981 44.0301 30.2882 43.5068 30.2882C42.3196 30.2831 41.3624 29.3159 41.3672 28.129C41.3672 27.6058 41.1593 27.1047 40.7891 26.7345C40.4188 26.3643 39.915 26.1544 39.3916 26.1544H15.6992ZM37.7422 30.1036C38.352 31.888 39.7523 33.2898 41.5322 33.9093V40.6544C39.7498 41.2739 38.352 42.6786 37.7422 44.463H17.3477C16.7379 42.6787 15.3409 41.2738 13.5586 40.6544V33.9093C15.3384 33.2898 16.7354 31.8879 17.3477 30.1036H37.7422ZM56.2305 12.0001C57.1413 11.9928 58.0178 12.3507 58.6621 12.9923C59.3064 13.634 59.6695 14.5079 59.667 15.4161V40.0177C59.667 40.9259 59.3041 41.7979 58.6572 42.4396C58.0129 43.0811 57.1413 43.4386 56.2305 43.4337H54.0381V24.9728C54.0233 20.9054 50.7226 17.6126 46.6514 17.6075H14.5781V15.4161C14.5757 14.5103 14.9333 13.6389 15.5752 12.9972C16.217 12.3556 17.0883 11.9977 17.9941 12.0001H56.2305ZM29.4551 32.7423C27.6259 31.9896 25.5199 32.4086 24.1201 33.8077C22.718 35.2045 22.2932 37.3076 23.041 39.1388C23.7915 40.9725 25.567 42.1752 27.5469 42.1925C28.8675 42.2171 30.1392 41.7039 31.0723 40.7735C32.0055 39.8406 32.5213 38.569 32.499 37.2511C32.4867 35.2718 31.2867 33.4927 29.4551 32.7423ZM18.9131 35.3087C17.8492 35.3459 17.0049 36.2197 17.0049 37.2833C17.0049 38.3469 17.8492 39.2207 18.9131 39.2579C19.9771 39.2209 20.8213 38.347 20.8213 37.2833C20.8213 36.2196 19.9771 35.3457 18.9131 35.3087ZM36.1768 35.3087C35.1129 35.3459 34.2686 36.2197 34.2686 37.2833C34.2686 38.3469 35.113 39.2207 36.1768 39.2579C37.2408 39.2209 38.0859 38.347 38.0859 37.2833C38.0859 36.2196 37.2408 35.3457 36.1768 35.3087ZM27.5469 36.3204C27.8085 36.3106 28.0648 36.407 28.2549 36.587C28.445 36.7697 28.5518 37.0192 28.5518 37.2833C28.5516 37.5448 28.4449 37.7966 28.2549 37.9767C28.0649 38.1591 27.8108 38.2556 27.5469 38.2433C27.2853 38.2556 27.0309 38.1592 26.8408 37.9767C26.6508 37.7966 26.5421 37.5448 26.542 37.2833C26.542 37.0192 26.6507 36.7697 26.8408 36.587C27.0309 36.4069 27.2852 36.3106 27.5469 36.3204Z" fill="#44ADC1"/>
</svg>
