<svg width="64" height="64" viewBox="0 0 64 64" fill="none" xmlns="http://www.w3.org/2000/svg">
<path fill-rule="evenodd" clip-rule="evenodd" d="M36.9956 7.87193C34.5137 5.37602 30.4901 5.37602 28.0054 7.87193C25.5234 10.3678 25.5234 14.414 28.0054 16.9126C30.4874 19.4086 34.5109 19.4086 36.9956 16.9126C39.4776 14.4167 39.4776 10.3706 36.9956 7.87193ZM56.4308 38.253V35.7916H44.632C44.1928 42.1634 38.9109 47.1626 32.5034 47.1626C26.096 47.1626 20.8141 42.1638 20.3749 35.7916H8.5761V38.253L12.9338 39.2122C13.2381 39.2836 13.4966 39.5136 13.5789 39.8357C14.0296 41.6207 14.7502 43.346 15.6812 44.9286C15.839 45.2001 15.8459 45.5406 15.6629 45.8235L13.2564 49.6053L17.9183 54.2934L21.6607 51.885C21.9238 51.7032 22.2761 51.6848 22.5689 51.8551C23.3604 52.3266 24.1793 52.7384 25.0348 53.0973C25.8606 53.4446 26.7093 53.7276 27.5694 53.9576C27.9034 54.0174 28.1847 54.2704 28.2556 54.6178L29.2095 59H35.8047L36.7586 54.6178C36.8226 54.3118 37.0582 54.0588 37.3785 53.976C39.1536 53.5229 40.8692 52.7982 42.4431 51.862C42.713 51.7033 43.0516 51.6964 43.3329 51.8804L47.0936 54.3004L51.7556 49.6123L49.3605 45.8558C49.1798 45.5912 49.1615 45.237 49.3308 44.9425C49.7998 44.1466 50.2092 43.3231 50.5661 42.4627C50.9115 41.6323 51.1929 40.7789 51.4216 39.914C51.4811 39.5781 51.7327 39.2951 52.0781 39.2238L56.4359 38.2646L56.4308 38.253ZM37.5567 29.8565C40.3497 32.6607 40.3497 37.2107 37.5567 40.022C34.7636 42.8308 30.2436 42.8262 27.4479 40.022C24.6594 37.2133 24.6594 32.6679 27.4479 29.8565C30.2409 27.0524 34.761 27.0524 37.5567 29.8565ZM32.5035 26.0448C36.3694 26.0448 39.7182 28.5545 40.9011 32.141C41.9191 31.9179 42.8272 31.681 43.836 31.3819V30.0569C43.836 25.2997 40.8782 21.088 36.5341 19.4108C34.0452 20.8601 30.9594 20.8601 28.4749 19.4108C24.1286 21.0901 21.173 25.2998 21.173 30.0569V31.3819C22.1795 31.6832 23.0831 31.9179 24.1079 32.141C25.2905 28.5478 28.6395 26.0448 32.5055 26.0448H32.5035ZM20.0892 10.2689C22.1274 12.3186 22.1274 15.6334 20.0892 17.6831C18.051 19.7327 14.7547 19.7327 12.7164 17.6831C10.6782 15.6334 10.6782 12.3186 12.7164 10.2689C14.7546 8.21926 18.0509 8.21926 20.0892 10.2689ZM19.801 20.0269C20.796 20.4157 21.7042 20.9701 22.5071 21.6647C20.5925 23.9605 19.467 26.8935 19.467 30.0494V31.0869C15.2396 31.494 11.1039 31.057 7 29.8446V28.8325C7 24.9034 9.42477 21.4301 12.9955 20.022C15.0977 21.2228 17.6917 21.2228 19.8008 20.022L19.801 20.0269ZM52.2905 10.2689C54.3287 12.3186 54.3287 15.6334 52.2905 17.6831C50.2523 19.7327 46.956 19.7327 44.9177 17.6831C42.8795 15.6334 42.8795 12.3186 44.9177 10.2689C46.9559 8.2192 50.2522 8.21926 52.2905 10.2689ZM52.0046 20.0269C55.5777 21.4347 58 24.9083 58 28.8373V29.8495C53.8939 31.0618 49.7605 31.4989 45.533 31.0917V30.0543C45.533 26.8982 44.403 23.9651 42.4929 21.6696C43.2958 20.9749 44.204 20.4205 45.199 20.0318C47.3012 21.2326 49.8953 21.2326 52.0044 20.0318L52.0046 20.0269ZM34.6466 32.1634C34.9508 31.8046 35.4838 31.7563 35.8407 32.0622C36.1975 32.3681 36.2456 32.9041 35.9413 33.263L32.2058 37.7142C31.8604 38.126 31.2405 38.1099 30.8996 37.7027L29.0673 35.5174C28.763 35.1585 28.8088 34.6226 29.1679 34.3166C29.5248 34.0106 30.0578 34.0566 30.362 34.4178L31.5562 35.844L34.642 32.1635L34.6466 32.1634Z" fill="#44ADC1"/>
</svg>
