<svg width="48" height="48" viewBox="0 0 48 48" fill="none" xmlns="http://www.w3.org/2000/svg">
<path d="M10.926 12.3867H18.5549C20.665 12.5803 21.7345 14.4029 22.0051 15.29C19.1644 16.9836 17.0455 19.0808 16.3234 23.8389C15.7067 27.9033 17.9874 32.0643 19.5295 33.1934V42.0244C19.5293 43.1155 18.6372 44 17.5461 44C16.4643 43.9999 15.5736 43.1353 15.55 42.0537L15.2678 29.1211L14.01 29.0811L13.7277 42.0732C13.7044 43.1437 12.8296 43.9998 11.759 44C10.6716 44 9.78951 43.1186 9.78926 42.0312V17.6289L6.88887 24.3115C6.53153 25.1346 5.53708 25.4636 4.75899 25.0166C4.10704 24.642 3.8318 23.8433 4.11446 23.1465L6.82735 16.46C7.92306 12.7099 9.95201 12.3464 10.926 12.3867ZM27.8078 14.4844C33.6574 14.4844 38.3994 19.1956 38.3996 25.0078C38.3996 26.5156 38.0779 27.9485 37.5031 29.2451L37.507 29.2422L38.5217 30.25C39.0362 30.7612 39.0361 31.5933 38.5217 32.1045L44.0002 37.5889L40.3479 41.2178L34.8693 35.7744C34.3499 36.2903 33.5142 36.2985 32.9846 35.793L31.8693 34.7285C30.6184 35.2451 29.2469 35.5322 27.8078 35.5322C21.9582 35.5321 17.216 30.82 17.216 25.0078C17.2162 19.1957 21.9583 14.4845 27.8078 14.4844ZM27.8078 17.8105C23.8073 17.8107 20.5648 21.0329 20.5647 25.0078C20.5647 28.9829 23.8072 32.2059 27.8078 32.2061C31.8085 32.2061 35.052 28.983 35.052 25.0078C35.0518 21.0328 31.8084 17.8105 27.8078 17.8105ZM27.9709 27.71C28.7103 27.7101 29.3096 28.3054 29.3098 29.04C29.3098 29.7748 28.7104 30.3709 27.9709 30.3711C27.2313 30.3711 26.6311 29.7749 26.6311 29.04C26.6312 28.3053 27.2314 27.71 27.9709 27.71ZM27.9299 26.4199L25.9416 20.0889H29.9592L27.9299 26.4199ZM34.4865 4.66699C35.4704 4.12038 36.6045 3.90151 37.7229 4.04199C38.841 4.18247 39.8845 4.67473 40.7004 5.44727C41.4914 6.1963 42.0278 7.17059 42.2375 8.23438H43.7561L41.6945 11.7822L39.3732 8.23438H40.718C40.5352 7.57953 40.1792 6.98269 39.6809 6.51074C39.0936 5.95461 38.3422 5.60013 37.5373 5.49902C36.7325 5.39794 35.9163 5.55585 35.2082 5.94922C34.5001 6.34264 33.9375 6.95125 33.6027 7.68555C33.268 8.41977 33.1786 9.24102 33.3479 10.0293C33.5172 10.8177 33.9359 11.5319 34.5432 12.0664C35.1505 12.6009 35.9148 12.9281 36.7229 13C37.5307 13.0718 38.3404 12.8844 39.0334 12.4658L39.802 13.7207C38.8389 14.3025 37.7136 14.5627 36.591 14.4629C35.4683 14.363 34.4065 13.9087 33.5627 13.166C32.7189 12.4234 32.1368 11.4313 31.9016 10.3359C31.6664 9.2407 31.7901 8.09923 32.2551 7.0791C32.7202 6.05885 33.5026 5.21363 34.4865 4.66699ZM14.6594 4C16.8109 4.00007 18.5549 5.73327 18.5549 7.87109C18.5549 10.0089 16.8109 11.7421 14.6594 11.7422C12.5078 11.7422 10.7639 10.009 10.7639 7.87109C10.7639 5.73323 12.5078 4 14.6594 4ZM37.6691 10.0488L36.0461 11.0166L35.3967 9.8877L36.3713 9.40332V6.58105H37.6691V10.0488Z" fill="url(#paint0_linear_1_1487)"/>
<defs>
<linearGradient id="paint0_linear_1_1487" x1="7.40785" y1="7.90244" x2="31.4476" y2="44.5585" gradientUnits="userSpaceOnUse">
<stop stop-color="#FF2A2A"/>
<stop offset="1" stop-color="#5A0000"/>
</linearGradient>
</defs>
</svg>
