<svg width="48" height="48" viewBox="0 0 48 48" fill="none" xmlns="http://www.w3.org/2000/svg">
<path fill-rule="evenodd" clip-rule="evenodd" d="M9.25922 28.7179C9.73955 28.539 9.98997 28.0745 9.98251 27.553L9.8928 21.6908C9.88345 21.0608 9.98812 20.4575 10.461 20.052L13.8195 17.1609C13.8438 17.1399 13.8775 17.1342 13.9074 17.1494C13.9373 17.1628 13.9541 17.1913 13.9541 17.2256V24.283C13.9541 25.1034 13.3709 27.711 12.7934 30.1549C12.7878 30.1816 12.7934 30.2063 12.8084 30.2273C12.8252 30.2482 12.8476 30.2596 12.8738 30.2596H17.0921C17.1369 30.2596 17.1743 30.2216 17.1743 30.1759V28.3715C17.1743 27.0106 18.2621 25.9029 19.5984 25.9029H22.0449C22.0692 25.9029 22.0916 25.8934 22.1066 25.8743C22.1234 25.8553 22.129 25.8325 22.1253 25.8077C22.0879 25.5565 22.0673 25.3224 22.0748 25.0559L22.2449 19.3744C22.2524 19.1156 22.2953 18.9462 22.3682 18.8358C22.3907 18.8015 28.4255 17.2884 29.0068 17.1304C29.7843 16.9191 30.2964 16.2796 30.5319 15.4954L31.9954 10.6097C32.0066 10.5697 32.0439 10.5468 32.0832 10.5507L36.2866 11.076C36.3183 11.0798 36.3464 11.0665 36.3632 11.0417C36.3819 11.0151 36.3837 10.9846 36.3688 10.9561C35.5614 9.31537 35.5595 6.79917 36.3651 5.15478C36.38 5.12622 36.3763 5.09387 36.3576 5.06722C36.3389 5.04057 36.309 5.02915 36.2772 5.03486L21.7813 7.5073C21.7421 7.51492 21.7047 7.49208 21.6898 7.45401C21.5589 7.08666 21.4898 6.84494 21.2412 6.51375C20.6039 5.66675 19.6002 5.12048 18.4713 5.12048C16.5463 5.12048 14.9857 6.70977 14.9857 8.67025C14.9857 9.80084 15.5052 10.8096 16.3145 11.4587C16.3407 11.4796 16.35 11.5101 16.3444 11.5424C16.3369 11.5748 16.3145 11.5976 16.2846 11.6052L12.313 12.6102C11.6364 12.7815 11.1879 13.2307 10.7655 13.796L7.00321 18.8245C6.57147 19.4012 6.67053 20.1035 6.77706 20.8211L7.85546 28.0769C7.94704 28.6765 8.70038 28.9272 9.25922 28.7179ZM34.0008 18.4436H38.817C39.473 18.4436 40.0094 18.9898 40.0094 19.6579V42.7836C40.0094 43.4517 39.473 43.998 38.817 43.998L32.8903 43.9999C32.8455 43.9999 32.8081 43.9618 32.8081 43.9161V19.658C32.8081 18.9899 33.3448 18.4436 34.0008 18.4436ZM31.4964 22.7109C31.5412 22.7109 31.5786 22.7489 31.5786 22.7946V43.9162C31.5786 43.9619 31.5412 44 31.4964 44H25.6893C25.6445 44 25.6071 43.9619 25.6071 43.9162L25.6052 23.9255C25.6052 23.2575 26.1416 22.7112 26.7976 22.7112L31.4964 22.7109ZM19.5966 27.1571H24.2934C24.3382 27.1571 24.3756 27.1952 24.3756 27.2408V43.9162C24.3756 43.9619 24.3382 44 24.2934 44H18.4863C18.4415 44 18.4041 43.9619 18.4041 43.9162V28.3718C18.4041 27.7037 18.9406 27.1571 19.5966 27.1571ZM17.0903 31.512H12.3936C11.7375 31.512 11.2011 32.0582 11.2011 32.7263V43.9142C11.2011 43.9599 11.2385 43.998 11.2834 43.998H17.0904C17.1353 43.998 17.1727 43.9599 17.1727 43.9142V31.5959C17.1727 31.5502 17.137 31.512 17.0903 31.512ZM4.79056 35.8706H9.87993C9.92478 35.8706 9.96217 35.9087 9.96217 35.9544V43.9162C9.96217 43.9618 9.92479 43.9999 9.87993 43.9999H4.79056C4.35508 43.9999 4 43.4536 4 42.7856V37.0851C4 36.4152 4.35511 35.8706 4.79056 35.8706ZM21.9854 9.28634L29.3886 10.2113C29.4167 10.2152 29.4372 10.2304 29.4503 10.2551C29.4634 10.2799 29.4634 10.3065 29.4522 10.3313L28.2486 12.9008C27.9364 13.5669 27.3533 13.9857 26.6338 14.0599L23.9163 14.3454C23.2135 14.4196 22.5818 14.216 22.0454 13.7458L20.0288 11.9757C20.0082 11.9567 19.997 11.93 20.0007 11.9015C20.0045 11.8729 20.0194 11.8501 20.0456 11.8368C20.9894 11.3514 21.6866 10.4397 21.894 9.35289C21.9034 9.31101 21.9424 9.28063 21.9854 9.28634ZM42.4711 8.5345C42.131 8.5345 41.8562 8.25471 41.8562 7.90828C41.8562 7.56186 42.131 7.28205 42.4711 7.28205H43.3851C43.7252 7.28205 44 7.56185 44 7.90828C44 8.25469 43.7253 8.5345 43.3851 8.5345H42.4711ZM42.2356 11.4085C41.9217 11.2753 41.774 10.9099 41.9048 10.5901C42.0357 10.2703 42.3945 10.12 42.7085 10.2532L43.5514 10.611C43.8654 10.7443 44.013 11.1097 43.8822 11.4295C43.7514 11.7492 43.3926 11.8996 43.0785 11.7664L42.2356 11.4085ZM42.7066 5.56145C42.3926 5.69468 42.0338 5.54242 41.903 5.22455C41.7721 4.90479 41.9216 4.53937 42.2338 4.40611L43.0767 4.04828C43.3907 3.91504 43.7495 4.06731 43.8803 4.38517C44.0112 4.70494 43.8617 5.07036 43.5495 5.20362L42.7066 5.56145ZM38.6248 4.7316C39.5238 4.7316 40.2527 6.21622 40.2527 8.04914C40.2527 9.88016 39.5238 11.3667 38.6248 11.3667C37.7258 11.3667 36.9969 9.88206 36.9969 8.04914C36.9951 6.21622 37.724 4.7316 38.6248 4.7316Z" fill="url(#paint0_linear_1_1492)"/>
<defs>
<linearGradient id="paint0_linear_1_1492" x1="7.40425" y1="7.90244" x2="31.4431" y2="44.5605" gradientUnits="userSpaceOnUse">
<stop stop-color="#FF2A2A"/>
<stop offset="1" stop-color="#5A0000"/>
</linearGradient>
</defs>
</svg>
