<svg width="48" height="48" viewBox="0 0 48 48" fill="none" xmlns="http://www.w3.org/2000/svg">
<path fill-rule="evenodd" clip-rule="evenodd" d="M0.675786 27.9278H3.97672C4.35014 27.9278 4.6525 28.2291 4.6525 28.6V37.3278C4.6525 37.6992 4.3496 38 3.97672 38H0.675786C0.302368 38 7.05552e-07 37.6987 7.05552e-07 37.3278V28.6C-0.000533512 28.2286 0.302368 27.9278 0.675786 27.9278ZM38.0448 14.5976C43.543 14.5976 48 19.0311 48 24.5003C48 29.9695 43.543 34.4029 38.0448 34.4029C32.5467 34.4029 28.0897 29.9695 28.0897 24.5003C28.0897 19.0311 32.5467 14.5976 38.0448 14.5976ZM37.079 16.8194V23.5395H32.4398C31.9067 23.5395 31.474 23.9694 31.474 24.5003C31.474 25.0306 31.9062 25.461 32.4398 25.461H38.0448C38.578 25.461 39.0107 25.0311 39.0107 24.5003V16.8194C39.0107 16.289 38.5785 15.8586 38.0448 15.8586C37.5117 15.8586 37.079 16.289 37.079 16.8194ZM22.3933 12.2966C22.8939 12.2966 23.3469 12.4986 23.6749 12.8248C24.0029 13.1511 24.2059 13.6017 24.2059 14.0997C24.2059 14.5976 24.0029 15.0482 23.6749 15.3745C23.3469 15.7008 22.8939 15.9027 22.3933 15.9027C22.1748 15.9027 21.966 15.8645 21.772 15.7938L17.3284 20.7305C17.4486 20.9718 17.5165 21.2433 17.5165 21.5308C17.5165 22.0287 17.3135 22.4793 16.9855 22.8056C16.6574 23.1319 16.2044 23.3338 15.7039 23.3338C15.2033 23.3338 14.7503 23.1319 14.4223 22.8056C14.0943 22.4793 13.8913 22.0287 13.8913 21.5308C13.8913 21.1928 13.9848 20.8772 14.1472 20.6067L9.49839 14.5413C9.34454 14.5838 9.18213 14.6061 9.01439 14.6061C8.73553 14.6061 8.47109 14.5434 8.23497 14.4313L4.01999 18.2972C4.09638 18.4965 4.13805 18.7128 4.13805 18.9386C4.13805 19.4365 3.93505 19.8872 3.60704 20.2134C3.27903 20.5397 2.82601 20.7417 2.32545 20.7417C1.82489 20.7417 1.37187 20.5397 1.04386 20.2134C0.715852 19.8872 0.51285 19.4365 0.51285 18.9386C0.51285 18.4407 0.715852 17.9901 1.04386 17.6638C1.37187 17.3375 1.82489 17.1356 2.32545 17.1356C2.60431 17.1356 2.86875 17.1983 3.10487 17.3104L7.31985 13.4444C7.24346 13.2452 7.20179 13.0289 7.20179 12.803C7.20179 12.3051 7.40479 11.8545 7.7328 11.5282C8.06081 11.2019 8.51383 11 9.01439 11C9.51495 11 9.96797 11.2019 10.296 11.5282C10.624 11.8545 10.827 12.3051 10.827 12.803C10.827 13.141 10.7335 13.4572 10.5711 13.7272L15.2199 19.7931C15.3737 19.7506 15.5361 19.7283 15.7039 19.7283C15.9224 19.7283 16.1312 19.7665 16.3252 19.8372L20.7688 14.9005C20.6486 14.6592 20.5807 14.3877 20.5807 14.0997C20.5807 13.6017 20.7837 13.1511 21.1118 12.8248C21.4398 12.4986 21.8933 12.2966 22.3933 12.2966ZM22.7192 13.7755C22.6359 13.6926 22.521 13.6416 22.3939 13.6416C22.2667 13.6416 22.1513 13.6926 22.0685 13.7755C21.9852 13.8584 21.9339 13.9727 21.9339 14.0997C21.9339 14.2261 21.9852 14.3409 22.0685 14.4233C22.1519 14.5057 22.2667 14.5572 22.3939 14.5572C22.521 14.5572 22.6364 14.5062 22.7192 14.4233C22.802 14.3404 22.8538 14.2261 22.8538 14.0997C22.8538 13.9727 22.8026 13.8584 22.7192 13.7755ZM16.0297 21.2072C15.9464 21.1243 15.8315 21.0733 15.7044 21.0733C15.5773 21.0733 15.4619 21.1243 15.3791 21.2072C15.2957 21.2901 15.2444 21.4043 15.2444 21.5308C15.2444 21.6573 15.2957 21.772 15.3791 21.8544C15.4624 21.9373 15.5773 21.9883 15.7044 21.9883C15.8315 21.9883 15.9469 21.9373 16.0297 21.8544C16.1131 21.7715 16.1644 21.6573 16.1644 21.5303C16.1649 21.4043 16.1131 21.2901 16.0297 21.2072ZM2.65186 18.6145C2.56852 18.5316 2.45366 18.4805 2.32652 18.4805C2.19937 18.4805 2.08398 18.5316 2.00118 18.6145C1.91784 18.6974 1.86656 18.8116 1.86656 18.9381C1.86656 19.0646 1.91784 19.1793 2.00118 19.2617C2.08452 19.3446 2.19937 19.3956 2.32652 19.3956C2.45366 19.3956 2.56905 19.3446 2.65186 19.2617C2.7352 19.1788 2.78648 19.0646 2.78648 18.9381C2.78648 18.8121 2.7352 18.6974 2.65186 18.6145ZM9.3408 12.4794C9.25746 12.3965 9.1426 12.3455 9.01546 12.3455C8.88832 12.3455 8.77292 12.3965 8.69012 12.4794C8.60678 12.5623 8.5555 12.6766 8.5555 12.803C8.5555 12.9295 8.60678 13.0443 8.69012 13.1272C8.77346 13.2101 8.88832 13.2611 9.01546 13.2611C9.1426 13.2611 9.25799 13.2101 9.3408 13.1272C9.42414 13.0443 9.47542 12.9301 9.47542 12.8036C9.47596 12.6766 9.42414 12.5623 9.3408 12.4794ZM20.7431 23.0883C20.3697 23.0883 20.0674 23.3896 20.0674 23.7606V37.3272C20.0674 37.6987 20.3703 37.9995 20.7431 37.9995H24.0441C24.4175 37.9995 24.7199 37.6982 24.7199 37.3272V23.7606C24.7199 23.3891 24.417 23.0883 24.0441 23.0883H20.7431ZM14.0537 30.52H17.3546C17.728 30.52 18.0304 30.8213 18.0304 31.1922V37.3278C18.0304 37.6992 17.7275 38 17.3546 38H14.0537C13.6802 38 13.3779 37.6987 13.3779 37.3278V31.1922C13.3779 30.8208 13.6802 30.52 14.0537 30.52ZM7.36473 21.7922C6.99131 21.7922 6.68894 22.0935 6.68894 22.4645V37.3278C6.68894 37.6992 6.99184 38 7.36473 38H10.6657C11.0391 38 11.3414 37.6987 11.3414 37.3278V22.4645C11.3414 22.093 11.0385 21.7922 10.6657 21.7922H7.36473Z" fill="url(#paint0_linear_1_1482)"/>
<defs>
<linearGradient id="paint0_linear_1_1482" x1="4.0851" y1="13.6341" x2="15.5741" y2="44.781" gradientUnits="userSpaceOnUse">
<stop stop-color="#FF2A2A"/>
<stop offset="1" stop-color="#5A0000"/>
</linearGradient>
</defs>
</svg>
