<svg width="48" height="48" viewBox="0 0 48 48" fill="none" xmlns="http://www.w3.org/2000/svg">
<path d="M26.4438 20.9712L29.7403 21.2936C30.2621 21.321 30.7291 21.6199 30.9733 22.083C31.2157 22.5442 31.1981 23.0991 30.9264 23.5446L22.9124 36.2885C22.717 36.5973 22.3418 36.7399 21.99 36.6383C21.6402 36.5387 21.396 36.2201 21.394 35.8548L21.5992 27.6227C21.6012 27.5817 21.5679 27.5465 21.5269 27.5446L18.3202 27.3394V27.3375C17.775 27.3277 17.2767 27.019 17.0266 26.5344C16.7765 26.0478 16.8136 25.4636 17.1243 25.0142L26.6331 11.6805C26.8539 11.3698 27.2604 11.2526 27.614 11.3991C27.9658 11.5437 28.1729 11.913 28.1104 12.2901L26.3751 20.8758C26.3653 20.9207 26.3969 20.9654 26.4438 20.9712ZM9.28459 37.2282L9.58943 40.6828L9.59139 40.6808C9.63633 41.2025 9.99198 41.6422 10.4903 41.8004C10.9866 41.9587 11.5318 41.8004 11.8679 41.4018C12.1122 41.0657 12.2197 40.6495 12.1689 40.2373C12.1962 40.2001 12.2509 40.1904 12.29 40.2177C16.7044 43.4027 22.2245 44.6513 27.5787 43.6763C32.9329 42.7012 37.6578 39.5866 40.6674 35.0516C43.6747 30.5164 44.7045 24.9518 43.5203 19.6405C43.364 18.9449 42.6723 18.5052 41.9747 18.6635C41.2771 18.8198 40.8393 19.5115 40.9957 20.2071C42.0079 24.7423 41.1637 29.4941 38.6546 33.4043C36.1436 37.3141 32.1749 40.0596 27.6316 41.0285C23.0863 41.9977 18.3439 41.1106 14.4569 38.5665C14.3944 38.5235 14.41 38.4297 14.4804 38.4083C15.092 38.2363 15.4867 37.6443 15.4144 37.0131C15.3402 36.382 14.8184 35.8993 14.1834 35.872L10.7051 35.7216C10.3045 35.6903 9.91171 35.8427 9.63617 36.1358C9.36064 36.4269 9.22972 36.8275 9.28248 37.2261L9.28459 37.2282ZM22.3537 6.67611C26.2912 6.29705 30.2387 7.27207 33.5448 9.4429C33.6074 9.48393 33.5917 9.57968 33.5214 9.59726C32.9078 9.76921 32.5092 10.3632 32.5854 10.9944C32.6596 11.6274 33.1833 12.112 33.8204 12.1354L37.2967 12.2859V12.2839C37.6973 12.3152 38.0881 12.1628 38.3637 11.8717C38.6412 11.5805 38.7701 11.1819 38.7193 10.7833L38.4164 7.32671C38.3695 6.80694 38.0139 6.3673 37.5175 6.20904C37.0192 6.05272 36.476 6.20904 36.1379 6.60765C35.8956 6.94373 35.7882 7.35992 35.839 7.77024C35.8116 7.80932 35.7569 7.81909 35.7198 7.79174C31.7842 4.94677 26.9498 3.63176 22.1174 4.089C17.2849 4.54819 12.7847 6.74639 9.453 10.2772C6.12122 13.808 4.18885 18.4311 4.01476 23.2807C3.94832 24.9904 4.1066 26.7001 4.48179 28.3689C4.55605 28.703 4.76122 28.9961 5.05238 29.1798C5.34354 29.3635 5.6953 29.424 6.02942 29.3478C6.36553 29.2736 6.65669 29.0665 6.84038 28.7753C7.02211 28.4861 7.08269 28.1345 7.00648 27.7984C5.91998 22.9232 6.98107 17.8176 9.91615 13.7769C12.8532 9.73609 17.3807 7.14882 22.3537 6.67611Z" fill="url(#paint0_linear_1_1497)"/>
<defs>
<linearGradient id="paint0_linear_1_1497" x1="7.40425" y1="7.90244" x2="31.4431" y2="44.5605" gradientUnits="userSpaceOnUse">
<stop stop-color="#FF2A2A"/>
<stop offset="1" stop-color="#5A0000"/>
</linearGradient>
</defs>
</svg>
