<svg width="48" height="48" viewBox="0 0 48 48" fill="none" xmlns="http://www.w3.org/2000/svg">
<path fill-rule="evenodd" clip-rule="evenodd" d="M31.1272 35.6948C31.1199 35.7294 31.1094 35.763 31.0939 35.7963C29.7117 38.7291 27.436 40.5604 24.923 41.4626C23.9036 41.8284 22.844 42.0404 21.7894 42.11C23.2465 42.429 24.6839 42.5564 26.0479 42.4076C28.9633 42.0891 31.5671 40.4835 33.3418 36.7199L33.3422 36.719L33.3473 36.709L33.3523 36.6994L33.3578 36.6898L33.3632 36.6803L33.3692 36.6707L33.3755 36.6616L33.3819 36.6525L33.3883 36.6434L33.3952 36.6348L33.402 36.6266L33.4089 36.6184L33.4162 36.6102L33.4239 36.6025L33.4312 36.5947L33.439 36.587L33.4472 36.5797L33.4554 36.5729L33.4636 36.5661L33.4718 36.5593L33.4805 36.5529L33.4892 36.5465L33.4983 36.5406L33.507 36.5351L33.5166 36.5297L33.5257 36.5242L33.5348 36.5192L33.5444 36.5142L33.554 36.5097L33.5636 36.5056L33.5736 36.5015L33.5832 36.4974L33.5928 36.4937L33.6023 36.4906L33.6119 36.4874L33.622 36.4842L33.6315 36.4815L33.6416 36.4792L33.6516 36.4769L33.6617 36.4751L33.6717 36.4733L33.6817 36.4719L33.6922 36.471L33.7023 36.4701L33.7123 36.4696H33.7128L33.7228 36.4692H33.7333H33.7433H33.7538L33.7643 36.4696L33.7748 36.4701L33.7849 36.471L33.7954 36.4719L33.8059 36.4737L33.8164 36.4755L33.8269 36.4774L33.8369 36.4801L33.8474 36.4828L33.8574 36.4856L33.8679 36.4887L33.878 36.4924L33.8885 36.496L33.8985 36.5001L33.9085 36.5042L33.9186 36.5088L33.9195 36.5092L35.1598 37.0907L35.2319 33.3034L35.2985 29.8146L32.6477 32.09L29.7669 34.5633L30.9223 35.1047C31.14 35.2062 31.2336 35.4641 31.1318 35.6811C31.1313 35.6862 31.1295 35.6907 31.1272 35.6948ZM14.0342 38.5812C14.0789 37.9215 14.1939 37.461 14.4508 37.0333C14.804 36.4451 15.3794 36.0065 16.3851 35.2471C17.3334 34.531 18.111 33.601 18.6458 32.5291C19.1605 31.4981 19.4498 30.3351 19.4498 29.104C19.4498 26.9769 18.5851 25.0515 17.1874 23.6579C15.7896 22.2643 13.8585 21.4021 11.7251 21.4021C9.59182 21.4021 7.66065 22.2643 6.26247 23.6579C4.86474 25.0515 4 26.9769 4 29.104C4 30.3351 4.28977 31.4985 4.80405 32.5291C5.33886 33.6014 6.11644 34.531 7.06469 35.2471C8.07043 36.0065 8.64586 36.4451 8.99951 37.0333C9.25642 37.4606 9.37096 37.9215 9.41568 38.5812H10.3014V31.5836H8.96802C8.36065 31.5836 7.8085 31.3365 7.40876 30.938C7.00947 30.5394 6.76123 29.9894 6.76123 29.3838C6.76123 28.7782 7.00947 28.2281 7.40876 27.8296C7.8085 27.431 8.36065 27.1835 8.96802 27.1835C9.57494 27.1835 10.1266 27.431 10.5268 27.8296C10.9261 28.2281 11.1744 28.7782 11.1744 29.3838V30.7132H12.2746V29.3838C12.2746 28.7782 12.5228 28.2281 12.9225 27.8296C13.3223 27.431 13.874 27.1835 14.4814 27.1835C15.0883 27.1835 15.6404 27.431 16.0402 27.8296C16.4399 28.2281 16.6882 28.7782 16.6882 29.3838C16.6882 29.9894 16.4399 30.5394 16.0402 30.938C15.6404 31.3365 15.0883 31.5836 14.4814 31.5836H13.1475V38.5812H14.0342ZM10.7212 43.2661C10.7801 43.4531 10.8896 43.6178 11.0347 43.7438C11.2182 43.9035 11.46 44 11.7261 44C11.9916 44 12.233 43.9035 12.4169 43.7438C12.5616 43.6178 12.672 43.4531 12.7304 43.2661H10.7212ZM11.1753 38.5812V31.5836H12.2755V38.5812H11.1753ZM14.0095 39.4516H12.714H12.7122H10.739H10.7367H9.44169V40.488H14.0095V39.4939V39.4516ZM9.44169 41.3588V41.8129C9.44169 41.9726 9.5074 42.1182 9.61327 42.2238C9.71914 42.3293 9.86562 42.3948 10.0253 42.3948H13.425C13.5856 42.3948 13.7312 42.3293 13.837 42.2238C13.9429 42.1182 14.0091 41.9726 14.0091 41.8129V41.3588H9.44169ZM14.4823 28.0539C14.8487 28.0539 15.1818 28.2036 15.4237 28.4447C15.6655 28.6858 15.8157 29.018 15.8157 29.3833C15.8157 29.7487 15.6655 30.0808 15.4237 30.3219C15.1823 30.5631 14.8487 30.7128 14.4823 30.7128H13.1484V29.3833C13.1484 29.018 13.2986 28.6858 13.5404 28.4447C13.7827 28.2036 14.1158 28.0539 14.4823 28.0539ZM8.96894 28.0539C9.33537 28.0539 9.66848 28.2036 9.91034 28.4447C10.1522 28.6858 10.3023 29.018 10.3023 29.3833V30.7128H8.96894C8.60251 30.7128 8.26893 30.5631 8.02754 30.3219C7.78568 30.0808 7.63555 29.7487 7.63555 29.3833C7.63555 29.018 7.78568 28.6858 8.02754 28.4447C8.26893 28.2036 8.60251 28.0539 8.96894 28.0539ZM36.7031 10.3474C37.5573 10.897 38.2733 11.6423 38.7867 12.52C39.342 13.4695 39.6596 14.5728 39.6596 15.7489C39.6596 17.4815 38.9706 19.0544 37.8507 20.21C36.7405 21.3552 35.2068 22.0905 33.5006 22.1642L31.3335 24.7976C31.3837 24.8467 31.4234 24.9086 31.4457 24.9809L31.6698 25.7012L32.2288 27.4965H33.2177H34.2065L34.7655 25.7012L34.9846 24.996C35.0252 24.8458 35.1456 24.7221 35.3081 24.6852C35.8 24.5715 36.2773 24.4177 36.7368 24.2275C37.2037 24.0346 37.6518 23.8044 38.0766 23.54C38.2035 23.4613 38.3682 23.4499 38.5101 23.5245L39.1809 23.8762L40.8502 24.7521L41.5493 24.0551L42.2479 23.358L41.3695 21.6937L41.024 21.0399C40.9465 20.9057 40.9437 20.7337 41.0318 20.5931C41.2965 20.1695 41.5274 19.7227 41.7213 19.2573C41.912 18.7991 42.0663 18.3228 42.1804 17.8327C42.2137 17.6867 42.3232 17.562 42.477 17.5147L43.1993 17.2913L45 16.734V15.748V14.7621L43.1993 14.2047L42.492 13.9859C42.3414 13.9454 42.2173 13.8253 42.1799 13.6633C42.0658 13.1733 41.9116 12.6969 41.7213 12.2388C41.5274 11.7733 41.296 11.327 41.0313 10.903C40.9524 10.7765 40.9414 10.6127 41.0158 10.4712L41.369 9.80236L42.2474 8.13804L41.5488 7.44101L40.8497 6.74398L39.1805 7.61982L38.5243 7.96378C38.3897 8.04113 38.2176 8.04386 38.0762 7.9565C37.6513 7.69216 37.2037 7.46194 36.7364 7.26857C36.2769 7.07885 35.7991 6.92507 35.3076 6.81132C35.1616 6.77765 35.0361 6.66937 34.9891 6.51558L34.7651 5.79535L34.2061 4H33.2172H32.2283L31.6693 5.79535L31.4498 6.50057C31.4092 6.65071 31.2888 6.77447 31.1263 6.81132C30.6348 6.92507 30.1571 7.07885 29.6976 7.26903C29.2307 7.46194 28.7826 7.69262 28.3578 7.9565C28.2314 8.03522 28.0662 8.04659 27.9247 7.97197L27.2539 7.61982L25.5842 6.74398L24.8856 7.44101L24.1865 8.13804L25.0654 9.80236L25.4104 10.4562C25.4884 10.5904 25.4911 10.7624 25.4031 10.903C25.1379 11.3265 24.907 11.7729 24.7131 12.2383C24.5228 12.6969 24.3686 13.1728 24.254 13.6633C24.2207 13.8094 24.1112 13.934 23.9574 13.9813L23.2351 14.2047L21.4349 14.7621V15.748V16.734L23.2351 17.2913L23.9428 17.5102C24.0934 17.5507 24.2171 17.6708 24.2545 17.8327C24.3686 18.3228 24.5228 18.7991 24.7136 19.2573C24.907 19.7227 25.1384 20.1691 25.4035 20.5931C25.4825 20.7196 25.493 20.8834 25.4186 21.0249L25.0658 21.6937L24.187 23.358L24.8861 24.0551L25.5847 24.7521L27.2544 23.8762L27.9101 23.5323C28.0447 23.4549 28.2172 23.4517 28.3582 23.5396C28.5859 23.6811 28.8118 23.8089 29.0359 23.9231C29.144 23.9786 29.2558 24.0323 29.3713 24.0846L30.5869 21.6114C30.0576 21.3748 29.5661 21.0695 29.1244 20.7069C28.6188 20.2915 28.1775 19.801 27.8189 19.2523L26.7246 19.2532C26.4846 19.2532 26.2897 19.0594 26.2897 18.8196C26.2897 18.7427 26.3102 18.6704 26.3454 18.6076L26.3445 18.6071L27.0025 17.4396C26.9354 17.194 26.882 16.946 26.8451 16.6958C26.7985 16.3841 26.7748 16.0674 26.7748 15.7476C26.7748 14.2662 27.279 12.9008 28.126 11.8134C28.9542 10.7496 30.1096 9.9525 31.4403 9.57214L31.7351 9.04891C31.8208 8.89649 31.9847 8.81551 32.1485 8.82824L36.9071 8.84508C37.1471 8.84508 37.3419 9.03936 37.3419 9.27867C37.3419 9.36922 37.3136 9.45339 37.2662 9.523L37.2671 9.52345L36.7031 10.3474ZM34.295 21.1991L38.3746 16.2421C38.4367 16.1671 38.4732 16.0715 38.4732 15.9669C38.4732 15.7271 38.2788 15.5333 38.0387 15.5333L33.1424 15.5387L36.2121 11.0645C36.96 11.5404 37.5861 12.1901 38.0337 12.9554C38.5129 13.7752 38.7871 14.7293 38.7871 15.7489C38.7871 17.2486 38.1916 18.6094 37.2233 19.6081C36.448 20.4084 35.4336 20.9767 34.295 21.1991ZM31.5772 21.5695L32.838 19.0048C32.9434 18.79 32.854 18.5302 32.6381 18.4251C32.5765 18.3951 32.5117 18.381 32.4474 18.381L28.0744 18.3855C28.0648 18.3851 28.0552 18.3851 28.0457 18.3855L27.4702 18.386L32.1024 10.1736C32.1083 10.1641 32.1133 10.1541 32.1188 10.144L32.3707 9.69726L36.0848 9.71045L31.9568 15.728C31.8213 15.9259 31.8719 16.1962 32.0709 16.3313C32.154 16.3882 32.2498 16.4118 32.3429 16.4064L37.1188 16.4009L29.6656 25.4568L29.954 24.8699C29.965 24.8513 29.975 24.8322 29.9832 24.8112L29.9841 24.8085L31.5703 21.5822C31.5726 21.5781 31.5749 21.574 31.5772 21.5695ZM28.8949 19.2518L31.7497 19.2486L30.9712 20.8329C30.503 20.6268 30.0681 20.3583 29.6779 20.0376C29.3914 19.8024 29.129 19.5389 28.8949 19.2518ZM30.7727 10.7578L27.671 16.2562C27.6564 16.0902 27.6482 15.9205 27.6482 15.7489C27.6482 14.4654 28.084 13.2843 28.8155 12.3452C29.3348 11.6782 30.0042 11.1323 30.7727 10.7578ZM12.3179 11.64L12.3207 11.6409C12.364 11.6546 12.4069 11.6614 12.4498 11.6614H12.4603H12.4708L12.4813 11.6609L12.4918 11.66L12.5018 11.6591L12.5123 11.6578L12.5223 11.6564L12.5328 11.6546L12.5447 11.6523L12.5547 11.65L12.5648 11.6473L12.5744 11.6446L12.5844 11.6418L12.594 11.6387L12.6036 11.635L12.6132 11.6314L12.6227 11.6273L12.6323 11.6232L12.6419 11.6186L12.6515 11.6141L12.6611 11.6095L12.6702 11.6045L12.6798 11.5991L12.6885 11.5936L12.6976 11.5882L12.7062 11.5822L12.7149 11.5759L12.7236 11.5695L12.7318 11.5631L12.74 11.5563L12.7482 11.549L12.756 11.5417L12.7637 11.5345L12.771 11.5267L12.7788 11.519L12.7856 11.5113L12.7925 11.5031L12.7998 11.4949L12.8062 11.4862L12.8126 11.4776L12.819 11.4685L12.8249 11.4594L12.8308 11.4498L12.8358 11.4403L12.8413 11.4307L12.8463 11.4212L12.8514 11.4116L12.8559 11.4016L12.8605 11.3916L12.8646 11.3816L12.8687 11.3711L12.8724 11.3607C14.1574 7.40279 16.5376 5.48187 19.3891 4.79985C20.7221 4.48091 22.1627 4.42768 23.6476 4.56054C22.6108 4.76209 21.5877 5.10515 20.6231 5.59607C18.2447 6.80632 16.2195 8.90969 15.2179 11.9935C15.2065 12.0281 15.2001 12.0636 15.1978 12.0982C15.196 12.1027 15.1941 12.1077 15.1928 12.1123C15.1193 12.3402 15.2452 12.5846 15.4739 12.6578L16.6877 13.0495L14.1432 15.8641L11.8023 18.4538L11.4276 14.9878L11.0201 11.2205L12.3179 11.64Z" fill="#44ADC1"/>
</svg>
