<svg width="48" height="48" viewBox="0 0 48 48" fill="none" xmlns="http://www.w3.org/2000/svg">
<path d="M19.6664 21.9629L18.7148 24.5754H20.6403L19.6664 21.9629Z" fill="white"/>
<path d="M36.0613 11.1211H12.9389C12.0154 11.1211 11.2598 11.8763 11.2598 12.7994V35.9091C11.2598 36.8321 12.0154 37.5873 12.9389 37.5873H36.0613C36.9848 37.5873 37.7404 36.8321 37.7404 35.9091V12.7994C37.7404 11.8707 36.9848 11.1211 36.0613 11.1211ZM30.5312 20.3236H31.9529V27.3611H30.5312V20.3236ZM24.0103 20.3236H26.294C27.1616 20.3236 27.7213 20.3571 27.9844 20.4299C28.3874 20.5362 28.7232 20.7655 28.9975 21.118C29.2718 21.4704 29.4061 21.9291 29.4061 22.4885C29.4061 22.9193 29.3278 23.2829 29.171 23.5794C29.0143 23.8759 28.8128 24.1053 28.5721 24.2731C28.3314 24.4409 28.0852 24.5528 27.8333 24.6087C27.4918 24.6759 27.0049 24.7094 26.3556 24.7094H25.4265V27.3611H24.0103V20.3236ZM18.9336 20.3236H20.4393L23.2547 27.3611H21.7099L21.0942 25.7612H18.2787L17.6966 27.3611H16.1854L18.9336 20.3236ZM31.757 35.6126H15.2002C14.1144 35.6126 13.2356 34.7343 13.2356 33.649V17.1461C13.2356 16.8384 13.4875 16.5866 13.7953 16.5866C14.1032 16.5866 14.3551 16.8384 14.3551 17.1461V33.649C14.3551 34.1133 14.7357 34.4937 15.2002 34.4937H31.757C32.0648 34.4937 32.3167 34.7455 32.3167 35.0531C32.3167 35.3608 32.0704 35.6126 31.757 35.6126Z" fill="white"/>
<path d="M27.3347 23.4006C27.525 23.3279 27.6705 23.2104 27.7769 23.0538C27.8832 22.8971 27.9392 22.7125 27.9392 22.5055C27.9392 22.2482 27.8665 22.0356 27.7153 21.8734C27.5642 21.7056 27.3739 21.6049 27.1444 21.5601C26.9765 21.5265 26.6351 21.5098 26.1201 21.5098H25.4316V23.5069H26.2097C26.7694 23.5125 27.1444 23.4733 27.3347 23.4006Z" fill="white"/>
<path d="M31.7567 34.494H15.2C14.7354 34.494 14.3548 34.1136 14.3548 33.6493V17.1463C14.3548 16.8387 14.1029 16.5869 13.7951 16.5869C13.4872 16.5869 13.2354 16.8387 13.2354 17.1463V33.6493C13.2354 34.7345 14.1141 35.6128 15.2 35.6128H31.7567C32.0646 35.6128 32.3164 35.3611 32.3164 35.0534C32.3164 34.7457 32.0702 34.494 31.7567 34.494Z" fill="#06F3FF"/>
<path d="M43.8805 18.2149C44.4962 18.2149 45 17.7114 45 17.0961C45 16.4807 44.4962 15.9772 43.8805 15.9772H39.9792V12.7997C39.9792 10.6403 38.2217 8.88375 36.0612 8.88375H34.5051V5.11884C34.5051 4.50348 34.0014 4 33.3857 4C32.77 4 32.2662 4.50348 32.2662 5.11884V8.88375H29.6635V5.11884C29.6635 4.50348 29.1597 4 28.544 4C27.9283 4 27.4246 4.50348 27.4246 5.11884V8.88375H24.8218V5.11884C24.8218 4.50348 24.3181 4 23.7024 4C23.0867 4 22.5829 4.50348 22.5829 5.11884V8.88375H19.9802V5.11884C19.9802 4.50348 19.4764 4 18.8608 4C18.2451 4 17.7413 4.50348 17.7413 5.11884V8.88375H12.9388C10.7783 8.88375 9.02075 10.6403 9.02075 12.7997V15.9772H5.11945C4.50375 15.9772 4 16.4807 4 17.0961C4 17.7114 4.50375 18.2149 5.11945 18.2149H9.02075V20.8162H5.11945C4.50375 20.8162 4 21.3197 4 21.9351C4 22.5504 4.50375 23.0539 5.11945 23.0539H9.02075V25.6552H5.11945C4.50375 25.6552 4 26.1587 4 26.774C4 27.3894 4.50375 27.8929 5.11945 27.8929H9.02075V30.4942H5.11945C4.50375 30.4942 4 30.9977 4 31.613C4 32.2284 4.50375 32.7319 5.11945 32.7319H9.02075V35.9094C9.02075 38.0688 10.7783 39.8254 12.9388 39.8254H14.6628V43.8812C14.6628 44.4965 15.1666 45 15.7823 45C16.398 45 16.9017 44.4965 16.9017 43.8812V39.8254H19.5044V43.8812C19.5044 44.4965 20.0082 45 20.6239 45C21.2396 45 21.7433 44.4965 21.7433 43.8812V39.8254H24.3461V43.8812C24.3461 44.4965 24.8498 45 25.4655 45C26.0812 45 26.585 44.4965 26.585 43.8812V39.8254H29.1877V43.8812C29.1877 44.4965 29.6915 45 30.3072 45C30.9229 45 31.4266 44.4965 31.4266 43.8812V39.8254H36.0612C38.2217 39.8254 39.9792 38.0688 39.9792 35.9094V32.7319H43.8805C44.4962 32.7319 45 32.2284 45 31.613C45 30.9977 44.4962 30.4942 43.8805 30.4942H39.9792V27.8929H43.8805C44.4962 27.8929 45 27.3894 45 26.774C45 26.1587 44.4962 25.6552 43.8805 25.6552H39.9792V23.0539H43.8805C44.4962 23.0539 45 22.5504 45 21.9351C45 21.3197 44.4962 20.8162 43.8805 20.8162H39.9792V18.2149H43.8805ZM37.7403 35.9038C37.7403 36.8269 36.9847 37.5821 36.0612 37.5821H12.9388C12.0153 37.5821 11.2597 36.8269 11.2597 35.9038V12.7997C11.2597 11.8767 12.0153 11.1214 12.9388 11.1214H36.0612C36.9847 11.1214 37.7403 11.8767 37.7403 12.7997V35.9038Z" fill="#005BFF"/>
<path d="M18.2789 25.7618H21.0944L21.7101 27.3617H23.2549L20.4339 20.3242H18.9282L16.1855 27.3617H17.6968L18.2789 25.7618ZM19.667 21.9633L20.6354 24.5758H18.7155L19.667 21.9633ZM25.4322 24.7101H26.3614C27.0051 24.7101 27.4976 24.6765 27.8391 24.6094C28.0909 24.5534 28.3372 24.4416 28.5779 24.2737C28.8186 24.1059 29.0201 23.8765 29.1768 23.5801C29.3335 23.2836 29.4119 22.9199 29.4119 22.4892C29.4119 21.9298 29.2776 21.471 29.0033 21.1186C28.729 20.7662 28.3932 20.5368 27.9902 20.4305C27.7271 20.3578 27.1618 20.3242 26.2998 20.3242H24.0105V27.3617H25.4322V24.7101ZM25.4322 21.5158H26.1207C26.6356 21.5158 26.9715 21.5326 27.145 21.5661C27.3745 21.6053 27.5648 21.7116 27.7159 21.8794C27.867 22.0472 27.9398 22.2598 27.9398 22.5116C27.9398 22.7185 27.8838 22.9032 27.7775 23.0598C27.6711 23.2164 27.52 23.3339 27.3353 23.4066C27.145 23.4794 26.77 23.5185 26.2103 23.5185H25.4322V21.5158ZM30.5313 20.3242H31.9531V27.3617H30.5313V20.3242Z" fill="#005BFF"/>
</svg>
