<svg width="48" height="48" viewBox="0 0 48 48" fill="none" xmlns="http://www.w3.org/2000/svg">
<path d="M15.0877 20.1216C15.0877 20.6384 15.1436 21.0575 15.2413 21.3648C15.3531 21.6721 15.4928 22.0074 15.6883 22.3706C15.7582 22.4823 15.7861 22.5941 15.7861 22.6919C15.7861 22.8315 15.7023 22.9712 15.5207 23.1109L14.6407 23.6976C14.515 23.7814 14.3893 23.8233 14.2775 23.8233C14.1378 23.8233 13.9981 23.7535 13.8584 23.6278C13.6629 23.4182 13.4953 23.1947 13.3556 22.9712C13.2159 22.7338 13.0762 22.4684 12.9225 22.1471C11.833 23.4322 10.464 24.0748 8.81572 24.0748C7.64234 24.0748 6.70644 23.7395 6.02197 23.069C5.3375 22.3985 4.98828 21.5045 4.98828 20.387C4.98828 19.1997 5.40734 18.2358 6.25944 17.5094C7.11153 16.7831 8.243 16.4199 9.68178 16.4199C10.1567 16.4199 10.6456 16.4618 11.1625 16.5316C11.6793 16.6015 12.2101 16.7132 12.7689 16.8389V15.8192C12.7689 14.7576 12.5454 14.0173 12.1123 13.5842C11.6653 13.1512 10.911 12.9417 9.83544 12.9417C9.34653 12.9417 8.84366 12.9975 8.32681 13.1233C7.80997 13.249 7.30709 13.4026 6.81819 13.5982C6.59469 13.696 6.42706 13.7518 6.32928 13.7798C6.2315 13.8077 6.16166 13.8217 6.10578 13.8217C5.91022 13.8217 5.81244 13.682 5.81244 13.3887V12.7042C5.81244 12.4807 5.84038 12.3131 5.91022 12.2153C5.98006 12.1175 6.10578 12.0197 6.30134 11.9219C6.79025 11.6705 7.37694 11.461 8.06141 11.2933C8.74588 11.1118 9.47225 11.0279 10.2405 11.0279C11.9028 11.0279 13.1181 11.4051 13.9003 12.1594C14.6686 12.9137 15.0598 14.0592 15.0598 15.5957V20.1216H15.0877ZM9.41638 22.2449C9.87735 22.2449 10.3523 22.161 10.8552 21.9934C11.358 21.8258 11.805 21.5185 12.1822 21.0994C12.4057 20.834 12.5733 20.5407 12.6571 20.2054C12.7409 19.8702 12.7968 19.4651 12.7968 18.9901V18.4034C12.3917 18.3057 11.9587 18.2218 11.5117 18.166C11.0647 18.1101 10.6317 18.0822 10.1986 18.0822C9.26272 18.0822 8.57825 18.2638 8.11728 18.6409C7.65631 19.0181 7.43281 19.5489 7.43281 20.2473C7.43281 20.9039 7.60044 21.3928 7.94966 21.728C8.28491 22.0772 8.77381 22.2449 9.41638 22.2449ZM20.6333 23.7535C20.3819 23.7535 20.2142 23.7116 20.1025 23.6138C19.9907 23.53 19.8929 23.3344 19.8091 23.069L16.5265 12.2712C16.4427 11.9918 16.4008 11.8102 16.4008 11.7124C16.4008 11.4889 16.5125 11.3632 16.736 11.3632H18.1049C18.3704 11.3632 18.5519 11.4051 18.6497 11.5029C18.7615 11.5867 18.8453 11.7823 18.9291 12.0477L21.2759 21.295L23.455 12.0477C23.5248 11.7683 23.6086 11.5867 23.7204 11.5029C23.8321 11.4191 24.0277 11.3632 24.2791 11.3632H25.3966C25.662 11.3632 25.8436 11.4051 25.9554 11.5029C26.0671 11.5867 26.1649 11.7823 26.2208 12.0477L28.4279 21.4067L30.8444 12.0477C30.9283 11.7683 31.026 11.5867 31.1238 11.5029C31.2356 11.4191 31.4172 11.3632 31.6686 11.3632H32.9677C33.1912 11.3632 33.3169 11.4749 33.3169 11.7124C33.3169 11.7823 33.3029 11.8521 33.289 11.9359C33.275 12.0197 33.2471 12.1315 33.1912 12.2851L29.8247 23.083C29.7409 23.3624 29.6431 23.5439 29.5314 23.6278C29.4196 23.7116 29.238 23.7674 29.0006 23.7674H27.7993C27.5339 23.7674 27.3523 23.7255 27.2405 23.6278C27.1288 23.53 27.031 23.3484 26.9751 23.069L24.8099 14.0592L22.6588 23.055C22.5889 23.3344 22.5051 23.516 22.3934 23.6138C22.2816 23.7116 22.086 23.7535 21.8346 23.7535H20.6333ZM38.5831 24.1306C37.8568 24.1306 37.1304 24.0468 36.432 23.8792C35.7335 23.7116 35.1887 23.53 34.8255 23.3204C34.602 23.1947 34.4484 23.055 34.3925 22.9293C34.3366 22.8036 34.3087 22.6639 34.3087 22.5382V21.8258C34.3087 21.5324 34.4205 21.3928 34.63 21.3928C34.7138 21.3928 34.7976 21.4067 34.8814 21.4347C34.9652 21.4626 35.091 21.5185 35.2306 21.5744C35.7056 21.7839 36.2224 21.9515 36.7672 22.0633C37.326 22.175 37.8707 22.2309 38.4295 22.2309C39.3095 22.2309 39.994 22.0772 40.4689 21.7699C40.9439 21.4626 41.1953 21.0156 41.1953 20.4429C41.1953 20.0518 41.0696 19.7305 40.8181 19.4651C40.5667 19.1997 40.0918 18.9622 39.4073 18.7387L37.3818 18.1101C36.3621 17.7888 35.6078 17.3139 35.1468 16.6853C34.6859 16.0707 34.4484 15.3862 34.4484 14.6598C34.4484 14.0731 34.5741 13.5563 34.8255 13.1093C35.077 12.6623 35.4122 12.2712 35.8313 11.9638C36.2504 11.6426 36.7253 11.4051 37.284 11.2375C37.8428 11.0698 38.4295 11 39.0441 11C39.3514 11 39.6727 11.014 39.98 11.0559C40.3013 11.0978 40.5946 11.1537 40.888 11.2095C41.1674 11.2794 41.4328 11.3492 41.6842 11.433C41.9356 11.5168 42.1312 11.6007 42.2709 11.6845C42.4665 11.7962 42.6061 11.908 42.69 12.0337C42.7738 12.1454 42.8157 12.2991 42.8157 12.4947V13.1512C42.8157 13.4445 42.7039 13.5982 42.4944 13.5982C42.3826 13.5982 42.201 13.5423 41.9636 13.4306C41.1674 13.0674 40.2734 12.8858 39.2816 12.8858C38.4854 12.8858 37.8568 13.0115 37.4237 13.2769C36.9907 13.5423 36.7672 13.9474 36.7672 14.5201C36.7672 14.9113 36.9069 15.2465 37.1863 15.5119C37.4656 15.7773 37.9825 16.0427 38.7228 16.2802L40.7064 16.9088C41.7121 17.2301 42.4385 17.6771 42.8715 18.2498C43.3046 18.8225 43.5141 19.479 43.5141 20.2054C43.5141 20.8061 43.3884 21.3509 43.1509 21.8258C42.8995 22.3007 42.5642 22.7198 42.1312 23.055C41.6982 23.4043 41.1813 23.6557 40.5807 23.8373C39.9521 24.0329 39.2955 24.1306 38.5831 24.1306Z" fill="#252F3E"/>
<path fill-rule="evenodd" clip-rule="evenodd" d="M41.2235 30.9196C36.6278 34.314 29.9507 36.1159 24.2096 36.1159C16.1636 36.1159 8.91377 33.1406 3.43802 28.1957C3.00499 27.8045 3.39611 27.2737 3.91296 27.581C9.83571 31.0174 17.1414 33.0987 24.6985 33.0987C29.7971 33.0987 35.3985 32.0371 40.553 29.8579C41.3213 29.5087 41.9778 30.3608 41.2235 30.9196Z" fill="#FF9900"/>
<path fill-rule="evenodd" clip-rule="evenodd" d="M43.1369 28.7406C42.5502 27.9863 39.2536 28.3774 37.7589 28.559C37.3119 28.6149 37.2421 28.2238 37.6472 27.9304C40.2733 26.0866 44.5896 26.6174 45.0925 27.232C45.5954 27.8606 44.9528 32.1769 42.4943 34.2443C42.1172 34.5656 41.754 34.398 41.9216 33.9789C42.4803 32.596 43.7236 29.481 43.1369 28.7406Z" fill="#FF9900"/>
</svg>
