<svg width="48" height="48" viewBox="0 0 48 48" fill="none" xmlns="http://www.w3.org/2000/svg">
<path fill-rule="evenodd" clip-rule="evenodd" d="M38.0704 24.6613V22.3379C38.0754 21.732 37.6402 21.2114 37.0426 21.1093L35.9278 20.9034C35.4658 20.8264 35.0892 20.4933 34.9553 20.0463C34.7259 19.2914 34.423 18.5599 34.0513 17.8653C33.8304 17.4568 33.8588 16.9597 34.1233 16.5797L34.7795 15.6373V15.6356C35.1461 15.1368 35.0875 14.4421 34.6422 14.0119L32.9884 12.3581C32.5632 11.9262 31.8903 11.8643 31.3948 12.2124L30.4524 12.8686H30.4507C30.0707 13.1331 29.5736 13.1615 29.1652 12.9406C28.4705 12.569 27.739 12.266 26.9841 12.0366C26.5371 11.9027 26.204 11.5244 26.127 11.0641L25.9211 9.93757C25.8073 9.33666 25.2733 8.90813 24.6623 8.92986H22.3389C21.733 8.92484 21.2124 9.36005 21.1103 9.95763L20.9044 11.0725C20.8274 11.5345 20.4943 11.9111 20.0474 12.045C19.2924 12.2743 18.5609 12.5773 17.8663 12.9489C17.4578 13.1699 16.9607 13.1414 16.5807 12.8769L15.6383 12.2208H15.6366C15.1412 11.8726 14.4682 11.9345 14.043 12.3664L12.3591 14.0119C11.9272 14.437 11.8653 15.1099 12.2134 15.6054L12.8696 16.5478V16.5495C13.1341 16.9295 13.1625 17.4267 12.9416 17.8351C12.5683 18.5298 12.2653 19.2596 12.0377 20.0162C11.9037 20.4631 11.5254 20.7962 11.0651 20.8732L9.93858 21.0791C9.33766 21.1929 8.90914 21.7269 8.93087 22.3379V24.6613C8.92585 25.2673 9.36106 25.7878 9.95863 25.8899L11.0852 26.0958H11.0868C11.5472 26.1728 11.9255 26.506 12.0594 26.9529C12.2887 27.7078 12.5917 28.4393 12.9633 29.134C13.1843 29.5424 13.1558 30.0396 12.8896 30.4195L12.2335 31.3619L12.2352 31.3636C11.8636 31.8591 11.9171 32.5521 12.359 32.9873L14.0129 34.6412C14.4381 35.073 15.111 35.1349 15.6065 34.7868L16.5489 34.1306H16.5505C16.9305 33.8662 17.4277 33.8377 17.8361 34.0587C18.5308 34.4319 19.2606 34.7349 20.0172 34.9626C20.4641 35.0965 20.7972 35.4748 20.8742 35.9351L21.0801 37.0617C21.194 37.6626 21.7279 38.0911 22.3389 38.0694H24.6623C25.2683 38.0744 25.7889 37.6392 25.891 37.0416L26.0969 35.9268C26.1739 35.4648 26.507 35.0881 26.9539 34.9542C27.7088 34.7249 28.4404 34.4219 29.135 34.0503C29.5434 33.8294 30.0406 33.8578 30.4206 34.1223L31.363 34.7784H31.3646C31.8635 35.145 32.5582 35.0864 32.9883 34.6412L34.6422 32.9873C35.0741 32.5622 35.136 31.8893 34.7878 31.3938L34.1317 30.4513V30.4497C33.8672 30.0697 33.8387 29.5725 34.0597 29.1641C34.433 28.4694 34.7359 27.7396 34.9636 26.983C35.0975 26.5361 35.4758 26.203 35.9361 26.126L37.0627 25.9201C37.6636 25.8063 38.0921 25.2723 38.0704 24.6613ZM23.5007 30.7545C21.5773 30.7545 19.731 29.9895 18.37 28.6303C17.0108 27.2694 16.2458 25.4231 16.2458 23.4996C16.2458 21.5762 17.0108 19.73 18.37 18.3689C19.7309 17.0097 21.5772 16.2447 23.5007 16.2447C25.4241 16.2447 27.2703 17.0097 28.6314 18.3689C29.9906 19.7298 30.7555 21.5762 30.7555 23.4996C30.7555 25.4231 29.9905 27.2693 28.6314 28.6303C27.2705 29.9895 25.4241 30.7545 23.5007 30.7545ZM23.5007 17.2428C21.8418 17.2428 20.25 17.9023 19.0766 19.0757C17.9033 20.2491 17.2437 21.841 17.2437 23.4997C17.2437 25.1585 17.9032 26.7505 19.0766 27.9238C20.25 29.0971 21.8419 29.7567 23.5007 29.7567C25.1594 29.7567 26.7514 29.0972 27.9247 27.9238C29.0981 26.7504 29.7576 25.1585 29.7576 23.4997C29.7576 21.841 29.0981 20.249 27.9247 19.0757C26.7514 17.9023 25.1594 17.2428 23.5007 17.2428ZM23.1023 22.9978H23.8991C24.9118 22.971 25.7571 23.7678 25.7839 24.7806C25.8123 25.7949 25.0155 26.6386 24.0029 26.667V27.5241C24.0029 27.8003 23.7769 28.0246 23.5007 28.0246C23.2245 28.0246 22.9985 27.8003 22.9985 27.5241V26.667H21.7866C21.5104 26.667 21.2844 26.4427 21.2844 26.1648C21.2844 25.8887 21.5104 25.6643 21.7866 25.6643H23.9292C24.1602 25.6811 24.3878 25.6007 24.5586 25.4417C24.7277 25.2844 24.8248 25.0617 24.8248 24.8307C24.8248 24.598 24.7277 24.3771 24.5586 24.2181C24.3879 24.0607 24.1602 23.9804 23.9292 23.9971H23.1023C22.0896 24.0256 21.2443 23.2271 21.2175 22.2144C21.189 21.2016 21.9858 20.358 22.9985 20.3296V19.4725C22.9985 19.1946 23.2245 18.9703 23.5007 18.9703C23.7769 18.9703 24.0029 19.1946 24.0029 19.4725V20.3296H25.2148C25.491 20.3296 25.7169 20.5539 25.7169 20.8301C25.7169 21.1079 25.491 21.3323 25.2148 21.3323H23.0722C22.8412 21.3155 22.6135 21.3959 22.4427 21.5532C22.2737 21.7122 22.1766 21.9332 22.1766 22.1659C22.1766 22.3969 22.2737 22.6195 22.4427 22.7769C22.6135 22.9342 22.8411 23.0146 23.0722 22.9978L23.1023 22.9978ZM34.6724 40.0834C34.7443 40.1956 34.7694 40.3311 34.741 40.46C34.7125 40.5889 34.6339 40.7028 34.5217 40.7731C30.583 43.2923 25.9011 44.387 21.2525 43.8782C16.6039 43.3693 12.2703 41.2869 8.9694 37.9761V39.7153C8.98279 39.8559 8.93592 39.9949 8.84051 40.0987C8.74509 40.2041 8.61118 40.2627 8.47057 40.2627C8.32997 40.2627 8.19438 40.2041 8.09896 40.0987C8.00522 39.9949 7.95836 39.8559 7.97174 39.7153V36.7843C7.97007 36.6437 8.02866 36.5098 8.13244 36.4144C8.23622 36.3207 8.37516 36.2738 8.51576 36.2872H11.4166C11.6744 36.3106 11.8719 36.5282 11.8719 36.786C11.8719 37.0455 11.6744 37.2614 11.4166 37.2865H9.68919C12.8328 40.4318 16.9573 42.4087 21.378 42.889C25.7986 43.3711 30.2514 42.3283 33.9992 39.9346C34.2319 39.7856 34.5399 39.8526 34.6889 40.0836L34.6724 40.0834ZM40.2132 38.4982C40.2132 38.6305 40.1596 38.7577 40.0658 38.8514C39.9721 38.9451 39.8449 38.997 39.711 38.9954H36.785C36.6444 38.9954 36.5105 38.9368 36.4151 38.833C36.3213 38.7292 36.2744 38.5903 36.2878 38.4513V35.5672C36.3113 35.3094 36.5289 35.1119 36.7867 35.1119C37.0461 35.1119 37.2621 35.3094 37.2872 35.5672V37.3114C40.4325 34.1678 42.4093 30.0432 42.8897 25.6226C43.3718 21.202 42.3289 16.7492 39.9352 13.0014C39.7863 12.7687 39.8532 12.4607 40.0842 12.3117C40.1964 12.2397 40.332 12.2146 40.4608 12.2431C40.5897 12.2715 40.7036 12.3502 40.7739 12.4607C43.2931 16.4011 44.3895 21.083 43.879 25.7316C43.3701 30.3802 41.2844 34.7138 37.9718 38.0147H39.716C39.9855 38.0164 40.2048 38.2304 40.2132 38.4982ZM7.06614 33.9987C7.21512 34.2314 7.14817 34.5394 6.91716 34.6884C6.80501 34.7604 6.66943 34.7855 6.54053 34.757C6.41164 34.7286 6.29781 34.6499 6.22751 34.5394C3.70827 30.599 2.61186 25.9171 3.1224 21.2685C3.63127 16.6199 5.71697 12.2863 9.02957 8.98539H7.28536C7.14475 8.99879 7.00582 8.95191 6.90203 8.8565C6.79658 8.76276 6.73799 8.62718 6.73799 8.48657C6.73799 8.34596 6.79658 8.21037 6.90203 8.11663C7.00582 8.02122 7.14475 7.97435 7.28536 7.98774H10.2164C10.357 7.98607 10.4909 8.04633 10.5863 8.14844C10.68 8.25222 10.7269 8.39116 10.7135 8.53176V11.4326C10.6901 11.6904 10.4725 11.8879 10.2147 11.8879C9.95522 11.8879 9.73927 11.6904 9.71416 11.4326V9.68843C6.5689 12.832 4.59204 16.9566 4.11167 21.3772C3.62958 25.7978 4.67247 30.2509 7.06614 33.9987ZM12.3121 6.9166C12.2401 6.80445 12.215 6.66886 12.2435 6.53997C12.2719 6.41108 12.3506 6.29725 12.4611 6.22694C16.4015 3.70771 21.0834 2.61296 25.732 3.12183C30.3789 3.6307 34.7142 5.71306 38.0151 9.02386V7.28466C38.0017 7.14406 38.0486 7.00512 38.144 6.90134C38.2377 6.79588 38.3733 6.7373 38.5139 6.7373C38.6545 6.7373 38.7901 6.79588 38.8839 6.90134C38.9793 7.00512 39.0262 7.14406 39.0128 7.28466V10.2157C39.0144 10.3563 38.9542 10.4902 38.8521 10.5856C38.7483 10.6793 38.6093 10.7262 38.4687 10.7128H35.5679C35.3101 10.6894 35.1126 10.4718 35.1126 10.214C35.1126 9.95452 35.3101 9.73858 35.5679 9.71346H37.3121C34.1685 6.5682 30.0439 4.59135 25.6233 4.11097C21.2027 3.62889 16.7499 4.67174 13.002 7.06542C12.7694 7.2144 12.4611 7.1476 12.3121 6.9166Z" fill="#44ADC1"/>
</svg>
