<svg width="48" height="48" viewBox="0 0 48 48" fill="none" xmlns="http://www.w3.org/2000/svg">
<path d="M26.8851 39.7269V40.5523C26.8851 40.7136 26.7622 40.8369 26.6014 40.8369H21.4081C21.2568 40.8369 21.1243 40.7136 21.1243 40.5523V39.7269H10.7757C9.78243 39.7269 8.97838 40.5428 8.97838 41.5295V43H39.0311V41.5295C39.0311 40.5333 38.2176 39.7269 37.2338 39.7269H26.8851ZM26.3176 36.9472H21.6824V40.2772H26.3176V36.9472ZM4.45676 36.378H43.5432C44.3568 36.378 45 35.7044 45 34.8979V30.8279H3V34.8979C3 35.7044 3.6527 36.378 4.45676 36.378ZM45 30.2587V7.48C45 6.67359 44.3473 6 43.5432 6H4.45676C3.6527 6 3 6.6641 3 7.48V30.2587H45ZM6.48108 33.8923C6.11216 33.8923 6.11216 33.3231 6.48108 33.3231H8.85541C9.23378 33.3231 9.23378 33.8923 8.85541 33.8923H6.48108ZM7.21892 19.1682C8.05135 20.0031 9.47027 19.4054 9.47027 18.2385C9.47027 17.0621 8.05135 16.4738 7.21892 17.2992C6.70811 17.8115 6.70811 18.6559 7.21892 19.1682ZM9.57432 24.851C10.4257 25.7049 11.8446 25.0503 11.8257 23.9213C11.8257 22.7449 10.4068 22.1567 9.57432 22.9821C9.05405 23.4944 9.05405 24.3387 9.57432 24.851ZM10.3405 11.2274C9.16757 11.2274 8.58108 12.66 9.40405 13.4854C10.2365 14.3203 11.6554 13.7226 11.6554 12.5556C11.6554 11.8251 11.0595 11.2274 10.3405 11.2274ZM39.0878 11.6164C38.2649 10.791 36.8365 11.3792 36.8365 12.5556C36.8459 13.7605 38.2743 14.3013 39.0878 13.4854C39.5986 12.9731 39.5986 12.1287 39.0878 11.6164ZM32.75 21.7108C32.0027 22.4603 30.9811 22.9156 29.8554 22.9156H18.5324C17.9176 22.9156 17.3405 22.7828 16.8203 22.5456L15.25 24.1205C15.2027 24.1679 15.127 24.2059 15.0514 24.2059H12.3649C12.1378 25.7238 10.2649 26.3595 9.16757 25.259C7.98514 24.0731 8.82703 22.0333 10.5014 22.0333C11.4378 22.0333 12.2324 22.7259 12.3649 23.6462H14.9378L16.3095 22.2705C15.0797 21.4736 14.3419 20.06 14.4459 18.5326H10.0189C9.79189 20.0505 7.91892 20.6862 6.82162 19.5856C5.63919 18.3997 6.48108 16.36 8.15541 16.36C9.09189 16.36 9.87703 17.0526 10.0189 17.9633H14.5311C14.8243 16.5972 15.7892 15.4777 17.0662 14.9844L14.9378 12.8497H12.2041C11.977 14.3677 10.1041 15.0033 9.00676 13.9028C7.82432 12.7169 8.66622 10.6772 10.3405 10.6772C11.277 10.6772 12.0716 11.3697 12.2041 12.2805H15.0608C15.1365 12.2805 15.2122 12.309 15.2595 12.3659L17.6905 14.8041C18.1162 14.7092 18.5703 14.6903 19.0054 14.7472C19.7905 13.0205 21.7865 12.2141 23.5365 12.9162C24.6716 10.2503 28.1432 9.55769 30.2054 11.6164C30.8959 12.309 31.3405 13.2387 31.3973 14.2728L33.2986 12.3659C33.3459 12.309 33.4216 12.2805 33.4973 12.2805H36.2878C36.5149 10.7626 38.3878 10.1269 39.4851 11.2274C40.6676 12.4133 39.8257 14.4531 38.1514 14.4531C37.2149 14.4531 36.4203 13.7605 36.2878 12.8497H33.6108L31.4351 15.0318C34.1027 16.1513 34.8122 19.6426 32.75 21.7108ZM29.8459 22.3464C32.7216 22.3464 34.377 19.0638 32.7122 16.7395C32.2865 16.1418 31.6716 15.6864 30.9622 15.4492C30.8297 15.4018 30.7446 15.269 30.773 15.1267C31.1608 12.9636 29.5054 10.9618 27.3014 10.9618C25.7784 10.9618 24.4351 11.939 23.9527 13.3621C23.8959 13.5233 23.7068 13.6087 23.5554 13.5233C21.9851 12.7359 20.0554 13.4664 19.4311 15.1267C19.327 15.3923 19.0527 15.2879 18.8162 15.269C16.7541 15.0887 14.9851 16.7205 14.9851 18.7982C14.9851 20.7526 16.5649 22.3369 18.5135 22.3369H29.8459V22.3464ZM32.977 27.3367C33.3459 27.3367 33.3459 27.9059 32.977 27.9059C31.3311 27.9059 30.5081 25.9041 31.6716 24.7372C32.0027 24.4051 32.4662 24.1964 32.977 24.1964C33.3459 24.1964 33.3459 24.7656 32.977 24.7656C31.8324 24.7656 31.2649 26.1603 32.0689 26.9667C32.2959 27.1944 32.6176 27.3367 32.977 27.3367ZM38.9649 27.9059C38.5959 27.9059 38.5959 27.3367 38.9649 27.3367C40.1095 27.3367 40.677 25.9421 39.873 25.1356C39.6365 24.8985 39.3243 24.7562 38.9649 24.7562C38.5959 24.7562 38.5959 24.1869 38.9649 24.1869C40.6108 24.1869 41.4432 26.1887 40.2797 27.3556C39.9392 27.6972 39.4757 27.9059 38.9649 27.9059ZM36.9405 23.7979C37.1297 23.4754 37.6122 23.76 37.4324 24.0826L35.0014 28.2949C34.8122 28.6174 34.3297 28.3328 34.5095 28.0103L36.9405 23.7979Z" fill="#44ADC1"/>
</svg>
