<svg width="48" height="48" viewBox="0 0 48 48" fill="none" xmlns="http://www.w3.org/2000/svg">
<path fill-rule="evenodd" clip-rule="evenodd" d="M24.5 10.9638C30.1508 10.9638 34.7311 9.40386 34.7311 7.48016C34.7311 5.55989 30.1508 4 24.5 4C18.8492 4 14.2689 5.55818 14.2689 7.48188C14.2689 9.40386 18.8492 10.9638 24.5 10.9638ZM34.7311 16.232C34.7311 18.1523 30.1439 19.7156 24.5 19.7156C18.8561 19.7156 14.2689 18.1523 14.2689 16.232V12.0792C14.2706 11.983 14.2948 11.8885 14.3394 11.8033C14.3841 11.7181 14.4481 11.6445 14.5262 11.5884C14.6116 11.5396 14.7083 11.514 14.8067 11.514C14.905 11.514 15.0017 11.5396 15.0872 11.5884C18.0755 12.8325 21.28 13.4246 24.5 13.3285C27.7255 13.4229 30.9341 12.8297 33.9128 11.5884C33.9983 11.5396 34.095 11.514 34.1933 11.514C34.2917 11.514 34.3884 11.5396 34.4738 11.5884C34.5532 11.6433 34.618 11.7167 34.6628 11.8021C34.7076 11.8876 34.7311 11.9827 34.7311 12.0792V16.232ZM34.7311 24.9839C34.7311 26.9042 30.1439 28.4658 24.5 28.4658C18.8561 28.4658 14.2689 26.9042 14.2689 24.9839V20.8311C14.2706 20.7349 14.2948 20.6404 14.3394 20.5552C14.3841 20.47 14.4481 20.3964 14.5262 20.3403C14.6133 20.2968 14.7093 20.2741 14.8067 20.2741C14.904 20.2741 15.0001 20.2968 15.0872 20.3403C18.0721 21.593 21.28 22.1868 24.5 22.0804C27.7263 22.1861 30.9374 21.5925 33.9128 20.3403C33.9999 20.2968 34.096 20.2741 34.1933 20.2741C34.2907 20.2741 34.3867 20.2968 34.4738 20.3403C34.5532 20.3952 34.618 20.4685 34.6628 20.554C34.7076 20.6395 34.7311 20.7346 34.7311 20.8311V24.9839ZM13.2876 32.7062C13.2079 32.626 13.1131 32.5624 13.0088 32.519C12.9044 32.4756 12.7925 32.4532 12.6795 32.4532C12.5664 32.4532 12.4545 32.4756 12.3502 32.519C12.2458 32.5624 12.151 32.626 12.0713 32.7062C9.73142 35.0572 7.45155 35.0709 4.85774 35.0709C4.63025 35.0709 4.41208 35.1613 4.25123 35.3222C4.09037 35.4831 4 35.7014 4 35.9289V39.3851C5.24715 39.3851 6.78766 39.3765 8.30929 39.0933C9.86523 38.8016 11.2633 38.249 12.2549 37.252C12.3745 37.1316 12.5167 37.0361 12.6733 36.9709C12.8299 36.9057 12.9979 36.8722 13.1675 36.8722C13.3372 36.8722 13.5051 36.9057 13.6618 36.9709C13.8184 37.0361 13.9606 37.1316 14.0802 37.252C16.2039 39.3868 18.2659 39.3851 18.8149 39.3851H18.8338H18.8509C19.4016 39.3851 21.4636 39.3851 23.5874 37.252C23.7069 37.1319 23.849 37.0366 24.0055 36.9715C24.1619 36.9065 24.3297 36.873 24.4991 36.873C24.6686 36.873 24.8363 36.9065 24.9928 36.9715C25.1493 37.0366 25.2914 37.1319 25.4109 37.252C27.5364 39.3868 29.5967 39.3851 30.1474 39.3851H30.1834C30.7341 39.3851 32.7961 39.3851 34.9198 37.252C35.0394 37.1319 35.1815 37.0366 35.3379 36.9715C35.4944 36.9065 35.6622 36.873 35.8316 36.873C36.001 36.873 36.1688 36.9065 36.3253 36.9715C36.4818 37.0366 36.6238 37.1319 36.7434 37.252C37.7366 38.249 39.1348 38.8033 40.6907 39.0933C42.2123 39.3765 43.7528 39.3851 45 39.3851V35.9289C45 35.7014 44.9096 35.4831 44.7488 35.3222C44.5879 35.1613 44.3697 35.0709 44.1423 35.0709C41.5485 35.0709 39.2686 35.0572 36.9269 32.7045C36.8473 32.6246 36.7526 32.5612 36.6484 32.5179C36.5442 32.4746 36.4325 32.4524 36.3197 32.4524C36.2068 32.4524 36.0951 32.4746 35.9909 32.5179C35.8867 32.5612 35.7921 32.6246 35.7124 32.7045C33.3553 35.0726 31.0411 35.0726 30.4218 35.0726H30.3978C29.7802 35.0726 27.4643 35.0726 25.1073 32.7045C25.0276 32.6246 24.9329 32.5612 24.8287 32.5179C24.7245 32.4746 24.6128 32.4524 24.5 32.4524C24.3872 32.4524 24.2755 32.4746 24.1713 32.5179C24.067 32.5612 23.9724 32.6246 23.8927 32.7045C21.5356 35.0726 19.2215 35.0726 18.6022 35.0726H18.5782C17.9606 35.0726 15.6447 35.0726 13.2876 32.7045V32.7062ZM4 44.1403V41.9591C5.23515 41.9591 6.99866 41.954 8.77933 41.6228C10.2392 41.3517 11.802 40.8454 13.1418 39.8707C15.6893 41.9386 18.1064 41.9591 18.8338 41.9591C19.5594 41.9591 21.9628 41.9386 24.5 39.8913C27.0389 41.9386 29.4406 41.9591 30.1662 41.9591C30.8936 41.9591 33.3107 41.9386 35.8582 39.8707C37.198 40.8454 38.7608 41.3517 40.2207 41.6228C42.0013 41.9557 43.7631 41.9591 45 41.9591V44.142C45 44.3695 44.9096 44.5878 44.7488 44.7487C44.5879 44.9096 44.3697 45 44.1423 45H4.85774C4.63025 45 4.41208 44.9096 4.25123 44.7487C4.09037 44.5878 4 44.3678 4 44.1403Z" fill="#2F88FF"/>
</svg>
