<svg width="48" height="48" viewBox="0 0 48 48" fill="none" xmlns="http://www.w3.org/2000/svg">
<path fill-rule="evenodd" clip-rule="evenodd" d="M11.7551 28.2583C11.6902 28.2579 11.6257 28.2702 11.5656 28.2945C11.5054 28.3188 11.4508 28.3546 11.4047 28.3999C11.3587 28.4451 11.3222 28.499 11.2973 28.5583C11.2725 28.6175 11.2598 28.6811 11.26 28.7453V40.5121C11.2598 40.5763 11.2724 40.6399 11.2972 40.6993C11.322 40.7587 11.3585 40.8126 11.4045 40.858C11.4506 40.9033 11.5053 40.9392 11.5654 40.9636C11.6256 40.988 11.6901 41.0004 11.7551 41H16.6551C16.7857 40.9997 16.9108 40.9485 17.0032 40.8574C17.0955 40.7663 17.1476 40.6428 17.1479 40.514V28.7453C17.1476 28.6164 17.0955 28.493 17.0031 28.402C16.9108 28.311 16.7856 28.2598 16.6551 28.2597L11.7551 28.2583ZM3.66687 16.2929L5.00014 16.4947C5.0566 16.6403 5.1168 16.7845 5.1826 16.9259L4.38367 17.9998C4.27169 18.1492 4.21801 18.3335 4.2325 18.5188C4.24698 18.7041 4.32866 18.8781 4.46254 19.0087L5.9708 20.4987C6.10304 20.6308 6.27917 20.7113 6.46678 20.7255C6.65438 20.7396 6.84085 20.6864 6.99187 20.5756L8.0806 19.7878C8.2234 19.8532 8.36994 19.9122 8.51694 19.967L8.7218 21.2828C8.74971 21.4666 8.84373 21.6344 8.98666 21.7555C9.12959 21.8765 9.31188 21.9428 9.5002 21.942H11.6333C11.8219 21.9433 12.0046 21.8771 12.1476 21.7558C12.2905 21.6344 12.3842 21.4661 12.4113 21.2819L12.6166 19.9652C12.765 19.9103 12.9097 19.8514 13.0543 19.7859L14.1417 20.5737C14.2927 20.6845 14.4792 20.7378 14.6668 20.7236C14.8544 20.7095 15.0305 20.6289 15.1627 20.4968L16.6733 19.0087C16.8069 18.8778 16.8883 18.7038 16.9025 18.5185C16.9167 18.3332 16.8629 18.1491 16.7508 17.9998L15.9533 16.9259C16.0191 16.7845 16.0793 16.6403 16.1339 16.4947L17.4671 16.2929C17.6535 16.2652 17.8235 16.1721 17.946 16.0307C18.0684 15.8893 18.1352 15.7091 18.134 15.5231V13.4176C18.1347 13.2319 18.0677 13.0521 17.9451 12.9112C17.8226 12.7702 17.6527 12.6775 17.4667 12.6501L16.1334 12.4483C16.0786 12.3018 16.0184 12.1579 15.9528 12.0166L16.7503 10.9432C16.8623 10.7938 16.9162 10.6096 16.9019 10.4243C16.8877 10.2389 16.8064 10.0648 16.6729 9.93379L15.1632 8.44479C15.0311 8.31239 14.855 8.23167 14.6673 8.21752C14.4796 8.20338 14.293 8.25678 14.1421 8.36785L13.0529 9.15566C12.9101 9.09024 12.7655 9.03035 12.6171 8.97691L12.4117 7.66021C12.3848 7.47586 12.2911 7.30739 12.1479 7.18601C12.0048 7.06463 11.822 6.99856 11.6333 7.00002H9.5002C9.312 6.99917 9.12976 7.06523 8.98683 7.18611C8.8439 7.307 8.74983 7.47464 8.7218 7.65837L8.51694 8.97506C8.36994 9.0285 8.2234 9.0884 8.0806 9.15382L6.99187 8.36601C6.84078 8.25541 6.65435 8.2023 6.4668 8.21643C6.27924 8.23056 6.10314 8.31099 5.9708 8.44295L4.46254 9.93379C4.32871 10.0646 4.24708 10.2386 4.2326 10.424C4.21811 10.6094 4.27175 10.7937 4.38367 10.9432L5.1826 12.0166C5.1168 12.1585 5.0566 12.3018 5.002 12.4483L3.66687 12.6501C3.481 12.6779 3.31143 12.7707 3.18903 12.9116C3.06664 13.0525 2.99956 13.232 3 13.4176V15.5231C2.99935 15.7089 3.0664 15.8887 3.18891 16.0298C3.31142 16.1709 3.48122 16.2638 3.66734 16.2915L3.66687 16.2929ZM10.5665 18.2794C9.80366 18.2792 9.058 18.0556 8.42382 17.637C7.78965 17.2184 7.29545 16.6235 7.0037 15.9276C6.71195 15.2318 6.63576 14.4661 6.78476 13.7275C6.93376 12.9889 7.30126 12.3104 7.84079 11.778C8.38032 11.2455 9.06766 10.883 9.8159 10.7362C10.5641 10.5893 11.3397 10.6648 12.0444 10.9531C12.7492 11.2414 13.3516 11.7295 13.7754 12.3557C14.1992 12.9819 14.4254 13.7181 14.4254 14.4713C14.4243 15.4812 14.0173 16.4494 13.2939 17.1633C12.5704 17.8773 11.5895 18.2787 10.5665 18.2794ZM10.5665 11.6356C11.1347 11.6357 11.6901 11.8021 12.1625 12.1139C12.6349 12.4256 13.003 12.8686 13.2204 13.3868C13.4377 13.9051 13.4945 14.4753 13.3836 15.0255C13.2726 15.5756 12.9989 16.0809 12.5971 16.4775C12.1953 16.874 11.6834 17.1441 11.1261 17.2534C10.5688 17.3628 9.99117 17.3065 9.46627 17.0918C8.94137 16.877 8.49276 16.5134 8.17717 16.047C7.86158 15.5805 7.69318 15.0322 7.69327 14.4713C7.69414 13.7193 7.99716 12.9984 8.53584 12.4668C9.07452 11.9352 9.80485 11.6362 10.5665 11.6356ZM41.1887 13.8406L41.2905 11.3067L33.1327 19.3612C33.04 19.4522 32.9146 19.5033 32.7838 19.5033C32.6531 19.5033 32.5277 19.4522 32.435 19.3612L26.3044 13.3084L13.8836 25.6608C13.8383 25.7066 13.7842 25.7429 13.7245 25.7676C13.6648 25.7924 13.6007 25.8051 13.5359 25.805C13.4384 25.8055 13.3429 25.7774 13.2616 25.7242C13.1803 25.671 13.1169 25.5951 13.0794 25.5062C13.0419 25.4173 13.032 25.3195 13.0509 25.225C13.0699 25.1306 13.1169 25.0438 13.1859 24.9758L25.9549 12.2783C26.0004 12.233 26.0546 12.197 26.1143 12.1724C26.174 12.1479 26.2381 12.1352 26.3028 12.1352C26.3675 12.1352 26.4315 12.1479 26.4912 12.1724C26.5509 12.197 26.6051 12.233 26.6507 12.2783L32.785 18.332L40.5947 10.6193L38.028 10.7197C37.899 10.7226 37.7739 10.6753 37.6799 10.588C37.5858 10.5007 37.5303 10.3805 37.5251 10.2532C37.52 10.1259 37.5657 10.0016 37.6524 9.90725C37.7391 9.81288 37.8599 9.7559 37.9888 9.74858L41.8155 9.59793C41.8836 9.59528 41.9515 9.60657 42.015 9.63109C42.0785 9.65562 42.1362 9.69285 42.1844 9.74045C42.2327 9.78805 42.2704 9.84499 42.2952 9.90767C42.3201 9.97036 42.3315 10.0374 42.3288 10.1047L42.1767 13.8825C42.1714 14.0077 42.1174 14.1262 42.026 14.2132C41.9346 14.3002 41.8127 14.349 41.6857 14.3496H41.6652C41.6006 14.3473 41.537 14.3324 41.4783 14.3058C41.4195 14.2791 41.3666 14.2413 41.3228 14.1944C41.2789 14.1475 41.2448 14.0925 41.2225 14.0326C41.2002 13.9726 41.1902 13.909 41.1929 13.8452L41.1887 13.8406ZM44.5081 16.4523H39.6081C39.5434 16.4522 39.4794 16.4647 39.4196 16.489C39.3598 16.5134 39.3055 16.5492 39.2597 16.5944C39.214 16.6395 39.1777 16.6932 39.153 16.7522C39.1283 16.8112 39.1157 16.8745 39.1158 16.9383V40.5121C39.1156 40.576 39.1281 40.6393 39.1526 40.6985C39.1772 40.7576 39.2134 40.8113 39.259 40.8567C39.3046 40.902 39.3589 40.938 39.4186 40.9626C39.4784 40.9872 39.5425 40.9999 39.6072 41H44.5072C44.572 41.0001 44.6363 40.9875 44.6962 40.963C44.7561 40.9384 44.8105 40.9025 44.8563 40.8571C44.9021 40.8118 44.9384 40.758 44.963 40.6988C44.9877 40.6396 45.0002 40.5761 45 40.5121V16.9383C45.0001 16.8745 44.9875 16.8112 44.9628 16.7522C44.9381 16.6932 44.9018 16.6395 44.8561 16.5944C44.8103 16.5492 44.756 16.5134 44.6962 16.489C44.6364 16.4647 44.5728 16.4522 44.5081 16.4523ZM25.9399 20.2531H21.0371C20.9069 20.2535 20.7822 20.3048 20.6902 20.3958C20.5983 20.4868 20.5467 20.6101 20.5467 20.7387V40.5121C20.5464 40.5759 20.5589 40.6392 20.5834 40.6982C20.6079 40.7573 20.644 40.811 20.6895 40.8563C20.7351 40.9016 20.7892 40.9376 20.8489 40.9623C20.9085 40.9869 20.9725 40.9998 21.0371 41H25.9399C26.0046 41.0001 26.0687 40.9875 26.1285 40.9631C26.1883 40.9387 26.2426 40.9029 26.2884 40.8578C26.3341 40.8127 26.3704 40.7591 26.3952 40.7001C26.42 40.6411 26.4327 40.5778 26.4327 40.514V20.7387C26.4327 20.6749 26.4199 20.6117 26.3951 20.5527C26.3703 20.4938 26.334 20.4402 26.2882 20.3951C26.2424 20.35 26.1881 20.3143 26.1284 20.2899C26.0686 20.2656 26.0046 20.253 25.9399 20.2531ZM30.3215 24.105C30.2569 24.1051 30.193 24.1177 30.1333 24.1422C30.0737 24.1667 30.0196 24.2025 29.974 24.2476C29.9284 24.2928 29.8922 24.3463 29.8676 24.4053C29.843 24.4642 29.8304 24.5273 29.8305 24.5911V40.5121C29.8303 40.576 29.8428 40.6393 29.8673 40.6984C29.8919 40.7574 29.928 40.8112 29.9736 40.8565C30.0192 40.9018 30.0734 40.9378 30.1331 40.9624C30.1928 40.987 30.2568 40.9998 30.3215 41H35.2238C35.2885 41.0001 35.3526 40.9875 35.4123 40.9631C35.4721 40.9387 35.5265 40.9029 35.5722 40.8578C35.618 40.8127 35.6543 40.7591 35.6791 40.7001C35.7038 40.6411 35.7166 40.5778 35.7166 40.514V24.5911C35.7167 24.5272 35.7039 24.4639 35.6792 24.4049C35.6544 24.3459 35.6181 24.2923 35.5724 24.2471C35.5266 24.202 35.4722 24.1662 35.4124 24.1418C35.3526 24.1174 35.2885 24.1049 35.2238 24.105H30.3215Z" fill="#44ADC1"/>
</svg>
