<svg width="48" height="48" viewBox="0 0 48 48" fill="none" xmlns="http://www.w3.org/2000/svg">
<path d="M20.5713 20.5713C21.3802 20.5713 22.0349 21.2263 22.0352 22.0352V42.5352C22.0352 43.3442 21.3803 44 20.5713 44H4.46387C3.65503 43.9998 3 43.344 3 42.5352V22.0352C3.00022 21.2264 3.65516 20.5715 4.46387 20.5713H20.5713ZM39.6064 3C42.0279 3 43.9999 4.97113 44 7.39258C44 9.81413 42.028 11.7852 39.6064 11.7852C37.6995 11.785 36.0912 10.5575 35.4834 8.85742H32.2852V11.1797L32.7158 10.751C33.2869 10.1803 34.2152 10.18 34.7861 10.751C35.3571 11.3219 35.3568 12.2502 34.7861 12.8213L32.2852 15.3223V17.8516C34.8037 18.5052 36.6787 20.7781 36.6787 23.5C36.6787 26.2218 34.8037 28.4952 32.2852 29.1504V31.6797L34.7861 34.1797C35.3571 34.7507 35.3569 35.6789 34.7861 36.25C34.4989 36.5355 34.1251 36.6786 33.75 36.6787C33.3748 36.6787 33.0012 36.5354 32.7139 36.248L32.2852 35.8203V38.1426H35.4834C36.0911 36.4424 37.6995 35.214 39.6064 35.2139C42.0279 35.2139 43.9999 37.185 44 39.6064C44 42.028 42.028 43.999 39.6064 43.999C37.6995 43.9989 36.0912 42.7714 35.4834 41.0713H30.8213C30.0123 41.0713 29.3564 40.4155 29.3564 39.6064V35.8193L28.9268 36.248C28.3557 36.8191 27.4275 36.8191 26.8564 36.248C26.2854 35.677 26.2854 34.7488 26.8564 34.1777L29.3564 31.6777V29.1484C27.3084 28.6157 25.7054 27.0119 25.1729 24.9639H23.5V22.0352H25.1729C25.7055 19.9873 27.3086 18.3841 29.3564 17.8496V15.3203L26.8584 12.8213C26.2875 12.2502 26.2874 11.322 26.8584 10.751C27.4294 10.1802 28.3577 10.1801 28.9287 10.751L29.3564 11.1797V7.39258C29.3566 6.58366 30.0123 5.92871 30.8213 5.92871H35.4834C36.091 4.22843 37.6994 3.00014 39.6064 3ZM12.5176 22.0361C12.1132 22.0361 11.7853 22.3632 11.7852 22.7676V24.3057C9.71151 24.6572 8.125 26.4543 8.125 28.625C8.125 30.9709 9.97477 32.8939 12.292 33.0117L12.668 33.0215C14.2127 33.1001 15.4463 34.3824 15.4463 35.9463C15.4463 37.5606 14.1319 38.875 12.5176 38.875C10.9032 38.875 9.58887 37.5606 9.58887 35.9463C9.58883 35.5418 9.26093 35.2139 8.85645 35.2139C8.45215 35.2141 8.12503 35.5419 8.125 35.9463C8.125 38.117 9.71151 39.9141 11.7852 40.2656V41.8037C11.7853 42.2081 12.1132 42.5352 12.5176 42.5352C12.922 42.5351 13.2498 42.2081 13.25 41.8037V40.2656C15.3236 39.914 16.9102 38.1169 16.9102 35.9463C16.9101 33.6004 15.0603 31.6775 12.7432 31.5596L12.3672 31.5498C10.8224 31.4712 9.58887 30.1889 9.58887 28.625C9.58887 27.0107 10.9032 25.6963 12.5176 25.6963C14.1319 25.6963 15.4463 27.0107 15.4463 28.625C15.4463 29.0294 15.7734 29.3572 16.1777 29.3574C16.5822 29.3574 16.9102 29.0295 16.9102 28.625C16.9102 26.4525 15.3236 24.6572 13.25 24.3057V22.7676C13.2498 22.3633 12.9219 22.0362 12.5176 22.0361ZM17.6426 14.7148C18.4515 14.7148 19.1073 15.3698 19.1074 16.1787V19.1074H5.92871V16.1787C5.9288 15.3698 6.58371 14.715 7.39258 14.7148H17.6426ZM14.7148 8.85742C15.5235 8.85764 16.1785 9.51258 16.1787 10.3213V13.25H8.85742V10.3213C8.85764 9.51256 9.51255 8.8576 10.3213 8.85742H14.7148ZM12.5176 3C13.3265 3 13.9822 3.65503 13.9824 4.46387V7.39258H11.0537V4.46387C11.0539 3.65513 11.7088 3.00017 12.5176 3Z" fill="#44ADC1"/>
</svg>
