<svg width="48" height="48" viewBox="0 0 48 48" fill="none" xmlns="http://www.w3.org/2000/svg">
<path d="M29.7236 41.8779C30.673 41.8813 31.4415 42.6584 31.4434 43.6201V45H16.5527V43.6201C16.5546 42.6602 17.3232 41.8815 18.2725 41.8779H29.7236ZM28.0449 38.1807V40.8682H19.9521V38.1807H28.0449ZM43 34.4004V36.625C42.9999 36.9259 42.7576 37.1709 42.459 37.1709H5.54102C5.24403 37.1709 5.00202 36.9259 5.00195 36.625V34.3984L43 34.4004ZM20.5156 35.2822C20.3822 35.2789 20.252 35.3302 20.1553 35.4248C20.0587 35.5194 20.0039 35.651 20.0039 35.7861C20.0039 35.9231 20.0585 36.0538 20.1553 36.1484C20.252 36.2447 20.3823 36.2953 20.5156 36.292C20.6507 36.2954 20.7812 36.2447 20.8779 36.1484C20.9747 36.0538 21.0303 35.9231 21.0303 35.7861C21.0302 35.651 20.9746 35.5194 20.8779 35.4248C20.7811 35.3301 20.6508 35.2788 20.5156 35.2822ZM21.8096 35.2822C21.541 35.2907 21.3272 35.514 21.3271 35.7861C21.3271 36.06 21.5409 36.2835 21.8096 36.292H26.1865C26.3216 36.2953 26.4521 36.2447 26.5488 36.1484C26.6456 36.0538 26.7002 35.9231 26.7002 35.7861C26.7002 35.6511 26.6454 35.5194 26.5488 35.4248C26.4521 35.3302 26.3216 35.2789 26.1865 35.2822H21.8096ZM27.4795 35.2822C27.346 35.2788 27.2143 35.3301 27.1191 35.4248C27.0225 35.5194 26.9668 35.651 26.9668 35.7861C26.9668 35.9231 27.0224 36.0538 27.1191 36.1484C27.2142 36.2446 27.3461 36.2954 27.4795 36.292C27.7481 36.2835 27.9639 36.06 27.9639 35.7861C27.9638 35.514 27.7481 35.2907 27.4795 35.2822ZM16.1133 9.97949C15.9931 10.2111 15.8836 10.4499 15.7852 10.6934C15.6434 11.0431 15.5232 11.4013 15.4248 11.7646H13.7812C13.5744 11.7646 13.3754 11.8461 13.2285 11.9932C13.0817 12.1419 12.9981 12.3414 12.998 12.5527V15.7158L13.0107 15.8545C13.0353 15.9918 13.0953 16.1202 13.1865 16.2266C13.1982 16.2435 13.2115 16.2589 13.2266 16.2725C13.3734 16.4212 13.5724 16.5039 13.7793 16.5039H15.4229C15.6197 17.2341 15.9069 17.9372 16.2773 18.5947L15.1162 19.7715C14.9694 19.9202 14.8868 20.1215 14.8867 20.3311C14.8867 20.5407 14.9694 20.7418 15.1162 20.8906L17.3232 23.1279C17.4701 23.2766 17.6691 23.3594 17.876 23.3594C18.0826 23.3593 18.281 23.2764 18.4277 23.1279L19.5908 21.9561C19.8545 22.1082 20.1273 22.2479 20.4043 22.373C20.6878 22.4981 20.976 22.6104 21.2695 22.7051V23.665H18.9238V23.666C18.7286 23.6643 18.5518 23.7798 18.4717 23.959C18.3899 24.1399 18.4201 24.3493 18.5469 24.498L23.5957 31.5889C23.6724 31.697 23.7879 31.77 23.918 31.792C24.0481 31.8123 24.1823 31.7816 24.2891 31.7021C24.334 31.67 24.3736 31.6273 24.4053 31.5801L29.4746 24.4629C29.5847 24.3107 29.5998 24.1075 29.5146 23.9385C29.4295 23.7715 29.2579 23.6664 29.0713 23.668H26.7266V22.7051C27.0203 22.6104 27.3091 22.4989 27.5928 22.3721C27.8697 22.2487 28.1417 22.1082 28.4053 21.9561L29.5664 23.1338C29.8718 23.4432 30.3675 23.4432 30.6729 23.1338L32.8809 20.8975H32.8789C33.1843 20.5881 33.1843 20.0857 32.8789 19.7764L31.7158 18.5986L31.7178 18.5996C32.0898 17.9421 32.3771 17.2407 32.5723 16.5088H34.2139C34.4208 16.5105 34.6197 16.4263 34.7666 16.2793C34.9133 16.1306 34.997 15.9309 34.9971 15.7197V12.5527C34.997 12.3652 34.9296 12.1847 34.8096 12.041C34.7962 12.0258 34.7826 12.0084 34.7676 11.9932C34.6208 11.8463 34.4226 11.7647 34.2158 11.7646H32.5732C32.4748 11.3997 32.3536 11.0431 32.2119 10.6934C32.1135 10.4499 32.003 10.2128 31.8828 9.97949H42.457C42.7539 9.97949 42.9959 10.2247 42.9961 10.5254V33.3965H5V10.5254C5.00022 10.2247 5.24218 9.97949 5.53906 9.97949H16.1133ZM10.7627 20.9072C10.4491 20.9089 10.1869 21.1457 10.1484 21.46L10.0635 22.1855H10.0645C9.89611 22.2345 9.73104 22.2918 9.56934 22.3594C9.40762 22.4286 9.2491 22.505 9.0957 22.5928L8.52832 22.1396C8.28318 21.9437 7.93098 21.9657 7.70898 22.1885L6.9707 22.9326C6.95236 22.9529 6.93395 22.9732 6.91895 22.9951C6.7454 23.2217 6.74764 23.5401 6.92285 23.7666L7.36914 24.3398C7.19919 24.6489 7.06448 24.9783 6.96777 25.3193L6.25195 25.4062C6.2386 25.4062 6.22457 25.4097 6.21289 25.4131V25.4111C5.91942 25.4654 5.70605 25.7258 5.70605 26.0283V27.0811C5.70605 27.2349 5.76149 27.3841 5.86328 27.499C5.87993 27.5192 5.89997 27.5378 5.91992 27.5547C6.01335 27.6375 6.13019 27.6899 6.25195 27.7051L6.96777 27.791V27.79C7.06455 28.1331 7.19996 28.4615 7.37012 28.7725L6.92285 29.3467V29.3447C6.8294 29.4664 6.78198 29.6176 6.79199 29.7715C6.79199 29.7815 6.7923 29.7917 6.79395 29.8018L6.81445 29.9043C6.84322 30.0065 6.89693 30.1007 6.9707 30.1768L7.70508 30.9238C7.7251 30.9424 7.7456 30.9594 7.76562 30.9746C7.86405 31.0523 7.98399 31.0987 8.10742 31.1055H8.12402C8.26919 31.1122 8.41486 31.063 8.52832 30.9717L9.09473 30.5186C9.24825 30.6065 9.40746 30.6826 9.56934 30.752C9.73102 30.8195 9.89609 30.8768 10.0645 30.9258L10.1484 31.6523C10.1484 31.6658 10.1519 31.6796 10.1553 31.6914C10.2087 31.9889 10.4651 32.2069 10.7637 32.207H11.8037C11.9555 32.207 12.1004 32.1493 12.2139 32.0479C12.2338 32.0293 12.2529 32.0095 12.2695 31.9893C12.3529 31.8946 12.4046 31.7774 12.418 31.6523L12.5029 30.9277C12.8399 30.8297 13.1654 30.6946 13.4707 30.5205L14.0381 30.9727C14.2834 31.1688 14.6355 31.1487 14.8574 30.9238L15.5918 30.1807C15.6102 30.1604 15.6285 30.1392 15.6436 30.1172C15.7185 30.0175 15.7632 29.8974 15.7715 29.7725C15.7798 29.6187 15.733 29.4683 15.6396 29.3467L15.1924 28.7715C15.3639 28.4609 15.4981 28.1336 15.5947 27.791L16.3105 27.7051V27.707C16.6226 27.6698 16.8584 27.4008 16.8584 27.083V26.0303C16.8584 25.7124 16.6226 25.4434 16.3105 25.4062L15.5947 25.3193C15.4996 24.978 15.3645 24.6481 15.1943 24.3389L15.6416 23.7646C15.735 23.6446 15.7815 23.492 15.7715 23.3398C15.7715 23.3299 15.7718 23.3199 15.7686 23.3115L15.7705 23.3096C15.7555 23.1676 15.6912 23.036 15.5928 22.9346L14.8574 22.1885C14.7506 22.0804 14.6069 22.0163 14.4551 22.0078C14.3049 21.9977 14.1546 22.045 14.0361 22.1396L13.4688 22.5928C13.1634 22.4204 12.838 22.2838 12.501 22.1875L12.416 21.4619V21.46C12.3993 21.3079 12.3273 21.1675 12.2139 21.0645C12.1939 21.0493 12.174 21.0337 12.1523 21.0186C12.0489 20.946 11.9268 20.9072 11.8018 20.9072H10.7627ZM36.1953 20.9053C35.8817 20.9053 35.6179 21.144 35.5811 21.46L35.4961 22.1855C35.3276 22.2346 35.1619 22.2918 35 22.3594C34.8382 22.4287 34.6798 22.5049 34.5264 22.5928L33.959 22.1396H33.9609C33.714 21.9436 33.3616 21.9655 33.1396 22.1885L32.4053 22.9326C32.3869 22.9529 32.3702 22.9732 32.3535 22.9951C32.18 23.2217 32.1822 23.5401 32.3574 23.7666L32.8037 24.3398C32.6321 24.6506 32.4991 24.9785 32.4023 25.3213L31.6875 25.4062C31.6743 25.4063 31.661 25.4097 31.6494 25.4131C31.3541 25.4673 31.1406 25.7277 31.1406 26.0303V27.083C31.1406 27.4007 31.3757 27.6677 31.6875 27.7051L32.4033 27.791C32.4984 28.1325 32.6345 28.4631 32.8047 28.7725L32.3574 29.3467H32.3584C32.265 29.4667 32.2182 29.6194 32.2266 29.7715C32.2266 29.7815 32.2272 29.7917 32.2305 29.8018C32.2455 29.9437 32.3072 30.0754 32.4072 30.1768L33.1396 30.9238C33.158 30.9424 33.1782 30.9594 33.1982 30.9746C33.2967 31.0524 33.4168 31.0987 33.542 31.1055H33.5566C33.7035 31.1105 33.8475 31.063 33.9609 30.9717L34.5283 30.5186C34.8353 30.6926 35.1592 30.8278 35.4961 30.9258L35.5811 31.6514C35.5995 31.8034 35.6708 31.9438 35.7842 32.0469C35.8025 32.062 35.8248 32.0766 35.8447 32.0918C35.9481 32.1644 36.0696 32.204 36.1963 32.2041H37.2344C37.5481 32.2024 37.8103 31.9651 37.8486 31.6523L37.9336 30.9277H37.9326C38.2711 30.8297 38.5946 30.6945 38.9014 30.5205L39.4688 30.9727H39.4678C39.7147 31.1687 40.0661 31.1487 40.2881 30.9238L41.0225 30.1807C41.0407 30.1605 41.0593 30.14 41.0742 30.1182C41.1493 30.0184 41.1948 29.8976 41.2031 29.7725C41.2114 29.6188 41.1646 29.4683 41.0713 29.3467L40.624 28.7725C40.7956 28.4617 40.9297 28.1338 41.0264 27.791L41.7422 27.7051V27.707C41.8923 27.6884 42.0311 27.6159 42.1328 27.501C42.1478 27.4807 42.1624 27.4597 42.1758 27.4395C42.2491 27.3347 42.2871 27.2097 42.2871 27.083V26.0303C42.2871 25.7125 42.0522 25.4434 41.7402 25.4062L41.0293 25.3203C40.9325 24.9788 40.7972 24.6482 40.627 24.3389L41.0742 23.7646C41.1677 23.6446 41.2141 23.492 41.2041 23.3398V23.3096C41.189 23.1676 41.1274 23.036 41.0273 22.9346L40.293 22.1904V22.1885C40.1863 22.0806 40.0431 22.0163 39.8916 22.0078C39.7399 21.9977 39.5911 22.0451 39.4727 22.1396L38.9053 22.5928C38.7518 22.5049 38.5912 22.4277 38.4277 22.3584C38.2675 22.2908 38.1021 22.2329 37.9336 22.1855L37.8486 21.46C37.8486 21.4465 37.8451 21.4326 37.8418 21.4209C37.7882 21.1237 37.5318 20.9054 37.2334 20.9053H36.1953ZM11.4668 21.915L11.5537 22.6523H11.5547C11.5798 22.8702 11.7418 23.0472 11.9551 23.0879C12.182 23.1318 12.4046 23.1995 12.6182 23.2891C12.8234 23.3753 13.0186 23.4821 13.2021 23.6055C13.384 23.744 13.634 23.7424 13.8125 23.6006L13.8145 23.6025L14.3896 23.1426L14.6533 23.4092L14.208 23.9805C14.0662 24.1511 14.0534 24.398 14.1768 24.584C14.4337 24.9677 14.612 25.4008 14.7021 25.8555C14.7355 26.0786 14.9128 26.2532 15.1348 26.2803L15.8633 26.3682V26.7471L15.1348 26.833C14.9196 26.86 14.7452 27.0237 14.7051 27.2383C14.6166 27.6997 14.437 28.1396 14.1768 28.5283C14.0566 28.7092 14.0648 28.9494 14.1982 29.1201V29.1221L14.6523 29.7051L14.3887 29.9727L13.8242 29.5205C13.654 29.3771 13.41 29.3635 13.2266 29.4902C12.8478 29.7488 12.4224 29.9302 11.9736 30.0215C11.7519 30.0554 11.5805 30.2343 11.5537 30.459L11.4668 31.1982H11.0928L11.0078 30.459C10.9827 30.241 10.8203 30.065 10.6084 30.0244C10.1532 29.9348 9.7195 29.7527 9.33594 29.4893C9.15748 29.3676 8.92047 29.3757 8.75195 29.5107L8.17383 29.9727L7.91016 29.7051L8.35645 29.1338C8.49813 28.9614 8.50918 28.7142 8.38574 28.5283C8.12887 28.1447 7.95072 27.7115 7.8623 27.2568C7.82881 27.034 7.6503 26.8602 7.42871 26.833L6.70117 26.7471V26.3682L7.42871 26.2783C7.64374 26.2528 7.81671 26.0886 7.8584 25.874C7.94522 25.4126 8.12547 24.9727 8.38574 24.584C8.50572 24.4032 8.49756 24.1638 8.36426 23.9932V23.9893L7.91016 23.4062L8.17383 23.1387L8.73828 23.5908C8.90846 23.736 9.15248 23.7471 9.33594 23.6221C9.52768 23.4904 9.73096 23.3786 9.94434 23.2891C10.1529 23.2012 10.3689 23.1358 10.5908 23.0918C10.8108 23.0579 10.982 22.8769 11.0088 22.6523H11.0078L11.0928 21.915H11.4668ZM36.9014 21.915L36.9863 22.6523H36.9883C37.0134 22.8703 37.1752 23.0456 37.3887 23.0879C37.6155 23.1318 37.8373 23.1995 38.0508 23.2891C38.256 23.3753 38.4515 23.4821 38.6367 23.6055C38.8153 23.7457 39.0676 23.7443 39.2461 23.6006L39.2471 23.6025L39.8232 23.1426L40.0869 23.4092L39.6406 23.9805C39.4989 24.1511 39.4861 24.3981 39.6094 24.584C39.8663 24.9676 40.0446 25.4008 40.1348 25.8555C40.1681 26.0786 40.3454 26.2532 40.5674 26.2803H40.5693L41.2969 26.3682L41.2949 26.7471L40.5674 26.833C40.3523 26.86 40.1789 27.0238 40.1387 27.2383C40.0502 27.6997 39.8696 28.1395 39.6094 28.5283C39.4893 28.7091 39.4975 28.9494 39.6309 29.1201V29.1221L40.085 29.7051L39.8213 29.9727L39.2568 29.5205C39.0868 29.3773 38.8435 29.3638 38.6602 29.4902C38.2814 29.7489 37.8551 29.9302 37.4062 30.0215C37.1846 30.0555 37.0131 30.2344 36.9863 30.459H36.9883L36.9023 31.1982H36.5293L36.4424 30.459C36.4173 30.2411 36.2554 30.065 36.042 30.0244C35.5865 29.9348 35.1523 29.7529 34.7686 29.4893C34.59 29.3676 34.3531 29.3756 34.1846 29.5107L33.6055 29.9707L33.3418 29.7031L33.7871 29.1318C33.9288 28.9595 33.9423 28.7132 33.8174 28.5273C33.5604 28.1436 33.3814 27.7116 33.293 27.2568C33.2594 27.0323 33.083 26.8582 32.8613 26.8311L32.1318 26.7451V26.3662L32.8613 26.2783C33.0748 26.2529 33.25 26.0887 33.29 25.874C33.3785 25.4126 33.5571 24.9727 33.8174 24.584C33.9389 24.4032 33.9302 24.1638 33.7969 23.9932V23.9893L33.3438 23.4062L33.6074 23.1387L34.1709 23.5908C34.3411 23.7361 34.585 23.7488 34.7686 23.6221C35.1472 23.3618 35.5728 23.1814 36.0215 23.0918C36.2433 23.058 36.4153 22.8771 36.4404 22.6523L36.5273 21.915H36.9014ZM25.7305 24.1699H25.7324C25.7324 24.3035 25.7835 24.4327 25.877 24.5273C25.9704 24.622 26.0977 24.6738 26.2295 24.6738H28.1035L23.998 30.4375L19.8945 24.6738L21.7676 24.6729V24.6738C22.0428 24.6737 22.2646 24.4488 22.2646 24.1699V15.0596H25.7305V24.1699ZM36.7158 23.793C35.4142 23.7913 34.2927 24.7233 34.0391 26.0166C33.7856 27.3097 34.468 28.6049 35.6709 29.1104C36.8722 29.6141 38.2591 29.188 38.9834 28.0928C39.7059 26.9957 39.5644 25.5348 38.6436 24.6016C38.1329 24.0826 37.4384 23.7913 36.7158 23.793ZM11.2812 23.793C9.98132 23.793 8.86202 24.7233 8.6084 26.0166C8.35318 27.3098 9.0369 28.6029 10.2383 29.1084C11.4397 29.6122 12.8262 29.1862 13.5488 28.0908C14.273 26.9953 14.1311 25.5348 13.21 24.6016C12.6993 24.0826 12.0054 23.7913 11.2812 23.793ZM10.3184 25.0967C11.0058 24.6301 11.9221 24.7229 12.5078 25.3145C12.8332 25.6441 13.0146 26.0908 13.0146 26.5557C13.013 27.3942 12.4291 28.1143 11.6182 28.2783C10.8072 28.4405 9.99672 28.0008 9.67969 27.2266C9.36436 26.454 9.63091 25.5616 10.3184 25.0967ZM35.75 25.0967C36.4375 24.6303 37.3538 24.7228 37.9395 25.3145C38.2648 25.6441 38.4463 26.0908 38.4463 26.5557C38.4463 27.3942 37.8601 28.1143 37.0508 28.2783C36.2399 28.4404 35.4276 28.0007 35.1123 27.2266C34.7954 26.454 35.0625 25.5615 35.75 25.0967ZM25.3467 5.83887C25.3467 6.09062 25.5284 6.3044 25.7734 6.3418C26.1989 6.43984 26.6167 6.57439 27.0205 6.74512C27.4377 6.91925 27.8386 7.13086 28.2207 7.37598C28.4159 7.50089 28.6705 7.47198 28.834 7.30469L30.1191 6.00293L32.0254 7.93359L30.7402 9.23535V9.2373C30.57 9.40975 30.5468 9.68037 30.6836 9.87988C31.1608 10.6473 31.5043 11.4929 31.7012 12.377C31.7529 12.6068 31.9536 12.7686 32.1855 12.7686H34.002V15.499H32.1855C31.9386 15.499 31.7291 15.6838 31.6924 15.9307C31.4921 16.8096 31.1474 17.6485 30.6719 18.4092C30.5485 18.6069 30.5768 18.8666 30.7402 19.0322L32.0254 20.3359L30.1191 22.2686L28.834 20.9648C28.6604 20.7876 28.3833 20.7673 28.1865 20.916C27.8679 21.1171 27.5341 21.2964 27.1904 21.4502C27.0371 21.5194 26.8823 21.5842 26.7256 21.6416V19.1523C28.9881 17.891 30.119 15.2386 29.4766 12.7061C28.8324 10.1721 26.58 8.40243 23.9971 8.40234C21.4156 8.40234 19.1611 10.172 18.5186 12.7061C17.8761 15.2386 19.0077 17.8908 21.2705 19.1523V21.6416C21.1137 21.5825 20.9598 21.5195 20.8047 21.4502C20.4509 21.2913 20.107 21.1051 19.7783 20.8955C19.5831 20.7704 19.3276 20.7992 19.1641 20.9648L17.8779 22.2686L15.9717 20.3359L17.2568 19.0322C17.4268 18.8598 17.4501 18.59 17.3135 18.3906C16.8363 17.6232 16.4928 16.7776 16.2959 15.8936C16.2442 15.6636 16.0435 15.501 15.8115 15.501H13.9941V12.7686H15.8115C16.0585 12.7702 16.2706 12.5864 16.3057 12.3379C16.5059 11.4588 16.8516 10.6219 17.3271 9.85938C17.4488 9.66164 17.4202 9.40319 17.2568 9.23926L15.9717 7.93359L17.8779 6.00293L19.1621 7.30469V7.30664C19.3322 7.4773 19.5993 7.50265 19.7979 7.36426C20.5537 6.88078 21.3884 6.53053 22.2627 6.33105C22.4896 6.28034 22.6504 6.07554 22.6504 5.83887V4H25.3467V5.83887ZM23.998 9.41309C25.6935 9.41309 27.2561 10.345 28.0771 11.8496C28.8979 13.3523 28.8492 15.1881 27.9482 16.6436C27.6279 17.1592 27.2138 17.6072 26.7266 17.9639V14.8438C26.7266 14.6324 26.6429 14.431 26.4961 14.2822H26.4951C26.3483 14.1335 26.149 14.0488 25.9404 14.0488H22.0557C21.6221 14.049 21.2707 14.4054 21.2705 14.8447V17.9639C20.7833 17.6072 20.3692 17.1592 20.0488 16.6436C19.1478 15.1881 19.0991 13.3525 19.9199 11.8496C20.7409 10.3451 22.3028 9.41322 23.998 9.41309Z" fill="#44ADC1"/>
</svg>
