<svg width="48" height="48" viewBox="0 0 48 48" fill="none" xmlns="http://www.w3.org/2000/svg">
<path d="M27.1338 4C27.7187 4 28.1934 4.46801 28.1934 5.04492C28.1932 5.52181 27.8686 5.92286 27.4258 6.04785V7.8125C27.4258 8.30283 27.0225 8.7002 26.5254 8.7002C26.3207 8.70022 26.1553 8.8645 26.1553 9.06641V15.1562H27.001V12.2266C27.001 11.7506 27.3925 11.3643 27.875 11.3643C28.0648 11.364 28.2186 11.2126 28.2188 11.0254V8.64844C28.2189 8.21595 28.5743 7.86538 29.0127 7.86523H30.2266C30.3615 7.44147 30.7623 7.13389 31.2364 7.13379C31.8212 7.13379 32.2959 7.6018 32.2959 8.17871C32.2957 8.75547 31.8211 9.22266 31.2364 9.22266C30.7243 9.22254 30.2975 8.86419 30.1992 8.3877H29.0127C28.8667 8.38784 28.7482 8.50441 28.7481 8.64844V11.0254C28.7479 11.5011 28.3572 11.8865 27.875 11.8867C27.685 11.8867 27.5303 12.0391 27.5303 12.2266V15.1562H29.8604L35.3145 24.4736L29.8604 33.792H26.1553V39.9336C26.1553 40.1355 26.3207 40.2998 26.5254 40.2998C27.0225 40.2998 27.4258 40.6972 27.4258 41.1875V42.9512C27.8687 43.0761 28.1932 43.4781 28.1934 43.9551C28.1934 44.532 27.7187 45 27.1338 45C26.5491 44.9998 26.0752 44.5319 26.0752 43.9551C26.0754 43.4589 26.4262 43.0439 26.8965 42.9375V41.1875C26.8965 40.9856 26.7301 40.8223 26.5254 40.8223C26.0283 40.8222 25.625 40.424 25.625 39.9336V33.792H24.7783V41.3779C25.2346 41.4941 25.5721 41.9024 25.5723 42.3887C25.5723 42.9656 25.0976 43.4336 24.5127 43.4336C23.9279 43.4335 23.4541 42.9655 23.4541 42.3887C23.4543 41.9018 23.7921 41.4936 24.2491 41.3779V33.792H23.4805V39.9336C23.4805 40.424 23.0772 40.8223 22.5801 40.8223C22.3756 40.8224 22.21 40.9857 22.21 41.1875V42.9375C22.68 43.0441 23.0311 43.4591 23.0313 43.9551C23.0313 44.532 22.5566 45 21.9717 45C21.3869 44.9999 20.9131 44.5319 20.9131 43.9551C20.9133 43.478 21.2376 43.076 21.6807 42.9512V41.1875C21.6807 40.6973 22.0832 40.3 22.5801 40.2998C22.7848 40.2998 22.9512 40.1355 22.9512 39.9336V33.792H18.9532L18.4688 32.9648L17.0196 33.8066C16.8938 33.8799 16.8517 34.0399 16.9258 34.1641L17.4366 35.0195C17.6588 35.3924 17.5322 35.8724 17.1543 36.0918L16.8047 36.2939C16.9356 36.7413 16.7508 37.2353 16.3252 37.4824C15.8212 37.775 15.1727 37.6095 14.876 37.1123C14.5794 36.6152 14.7472 35.9753 15.251 35.6826C15.6757 35.436 16.2031 35.5153 16.5362 35.8438L16.8858 35.6416C17.0117 35.5685 17.0545 35.4084 16.9805 35.2842L16.4698 34.4287C16.2474 34.0559 16.3732 33.576 16.751 33.3564L18.2041 32.5127L17.7803 31.7891L15.25 33.2588C15.0863 33.3539 15.0316 33.5621 15.128 33.7236C15.3725 34.1338 15.2341 34.6619 14.8184 34.9033L12.7422 36.1084C12.6163 36.1815 12.5745 36.3416 12.6485 36.4658L13.2491 37.4746C13.7153 37.3162 14.246 37.4981 14.5059 37.9336C14.8025 38.4308 14.6339 39.0707 14.1299 39.3633C13.6259 39.6559 12.9774 39.4903 12.6807 38.9932C12.4401 38.5899 12.5046 38.0924 12.8067 37.7627L12.1914 36.7314C11.9689 36.3586 12.0957 35.8777 12.4737 35.6582L14.5498 34.4531C14.7135 34.358 14.7682 34.1498 14.6719 33.9883C14.4271 33.5781 14.5657 33.05 14.9815 32.8086L17.5157 31.3359L17.0928 30.6123L11.791 33.6914C11.6146 33.7938 11.5554 34.0184 11.6592 34.1924C11.9111 34.6149 11.7682 35.1585 11.3399 35.4072L9.79886 36.3018C9.91475 36.7418 9.72827 37.2216 9.31155 37.4639C8.80754 37.7565 8.15803 37.5909 7.86136 37.0938C7.56478 36.5967 7.73268 35.9568 8.23636 35.6641C8.66964 35.4125 9.20939 35.5004 9.54104 35.8457L11.0713 34.957C11.2477 34.8546 11.3068 34.631 11.2032 34.457C10.951 34.0344 11.0941 33.49 11.5225 33.2412L16.8272 30.1602L16.4033 29.4355L9.83011 33.2529C9.96066 33.7 9.77582 34.1944 9.35062 34.4414C8.84666 34.734 8.19715 34.5683 7.90042 34.0713C7.60374 33.5741 7.77238 32.9333 8.2764 32.6406C8.70108 32.3943 9.22763 32.4743 9.56058 32.8027L16.1387 28.9834L15.7549 28.3281L10.4336 31.418C10.0052 31.6667 9.45338 31.5261 9.2012 31.1035C9.09736 30.9295 8.86979 30.8712 8.69339 30.9736L7.16409 31.8613C7.30994 32.3152 7.12597 32.8243 6.69241 33.0762C6.18846 33.3688 5.53894 33.2031 5.24222 32.7061C4.94554 32.2089 5.11418 31.568 5.61819 31.2754C6.03449 31.0339 6.54905 31.1057 6.88284 31.418L8.42483 30.5234C8.85325 30.2747 9.40508 30.4163 9.65726 30.8389C9.76113 31.0128 9.98871 31.0702 10.1651 30.9678L15.4903 27.875L15.0537 27.1289L12.4825 28.623C12.0666 28.8645 11.5309 28.7276 11.2862 28.3174C11.1896 28.1563 10.9791 28.1024 10.8155 28.1973L8.73929 29.4033C8.36128 29.6228 7.8739 29.4979 7.6514 29.125L7.03519 28.0928C6.59649 28.1931 6.12442 28.0085 5.88382 27.6055C5.58715 27.1083 5.75486 26.4675 6.25882 26.1748C6.76283 25.8822 7.41234 26.0487 7.70901 26.5459C7.96858 26.9812 7.87134 27.5254 7.50491 27.8506L8.10843 28.8604C8.18264 28.9845 8.34478 29.0263 8.47073 28.9531L10.5469 27.7471C10.9627 27.5059 11.4985 27.6427 11.7432 28.0527C11.8396 28.2143 12.0501 28.268 12.2139 28.1729L14.7891 26.6777L13.5 24.4736L15.4502 21.1406L10.0733 18.0312C9.89668 17.9291 9.66897 17.9879 9.56546 18.1621C9.31405 18.585 8.76282 18.7274 8.33401 18.4795L6.79007 17.5859C6.45677 17.8998 5.94175 17.9737 5.52444 17.7324C5.02005 17.4406 4.85079 16.8004 5.14651 16.3027C5.44225 15.8051 6.09122 15.6381 6.59573 15.9297C7.02958 16.1805 7.2138 16.6886 7.06937 17.1426L8.60159 18.0283C8.77814 18.1304 9.00585 18.0725 9.1094 17.8984C9.3608 17.4754 9.91198 17.3331 10.3408 17.5811L15.7149 20.6885L16.1387 19.9639L9.50589 16.1279C9.17366 16.458 8.64643 16.5398 8.22073 16.2939C7.71628 16.0023 7.54631 15.3619 7.84183 14.8643C8.13755 14.3666 8.78651 14.1996 9.29104 14.4912C9.71664 14.7373 9.90187 15.2305 9.77249 15.6777L16.4033 19.5117L16.7871 18.8555L11.4229 15.7549C10.994 15.5069 10.8502 14.9621 11.1016 14.5391C11.205 14.3649 11.1462 14.1412 10.9698 14.0391L9.43948 13.1533C9.10868 13.4999 8.56886 13.5895 8.13479 13.3389C7.63035 13.0472 7.4604 12.4068 7.75589 11.9092C8.05161 11.4115 8.70058 11.2446 9.20511 11.5361C9.6223 11.7774 9.80897 12.2562 9.69437 12.6963L11.2373 13.5889C11.6661 13.8369 11.81 14.3807 11.5586 14.8037C11.4552 14.9779 11.5149 15.2016 11.6914 15.3037L17.0518 18.4033L18.9532 15.1562H21.5479V12.2266C21.5479 12.0391 21.3941 11.8868 21.2041 11.8867C20.7217 11.8867 20.3303 11.5012 20.3301 11.0254V8.64844C20.33 8.50432 20.2116 8.3877 20.0655 8.3877H18.8789C18.7806 8.86424 18.354 9.22266 17.8418 9.22266C17.2571 9.22265 16.7834 8.75547 16.7832 8.17871C16.7832 7.6018 17.257 7.13379 17.8418 7.13379C18.3161 7.13379 18.7177 7.44129 18.8526 7.86523H20.0655C20.504 7.86523 20.8593 8.21586 20.8594 8.64844V11.0254C20.8595 11.2128 21.0141 11.3643 21.2041 11.3643C21.6865 11.3644 22.0772 11.7507 22.0772 12.2266V15.1562H22.9512V9.06641C22.9512 8.86449 22.7848 8.7002 22.5801 8.7002C22.0832 8.70003 21.6807 8.30273 21.6807 7.8125V6.04785C21.2377 5.92299 20.9133 5.52195 20.9131 5.04492C20.9131 4.46806 21.3869 4.00008 21.9717 4C22.5566 4 23.0313 4.46801 23.0313 5.04492C23.0311 5.54083 22.6799 5.95488 22.21 6.06152V7.8125C22.21 8.01428 22.3756 8.17757 22.5801 8.17773C23.0772 8.17773 23.4805 8.57603 23.4805 9.06641V15.1562H24.2491V7.62109C23.7922 7.50532 23.4543 7.09809 23.4541 6.61133C23.4541 6.03447 23.9279 5.56649 24.5127 5.56641C25.0976 5.56641 25.5723 6.03442 25.5723 6.61133C25.5721 7.09754 25.2344 7.50479 24.7783 7.62109V15.1562H25.625V9.06641C25.625 8.57605 26.0283 8.17776 26.5254 8.17773C26.7301 8.17773 26.8965 8.01438 26.8965 7.8125V6.06152C26.4264 5.95503 26.0754 5.54098 26.0752 5.04492C26.0752 4.46814 26.5491 4.00021 27.1338 4ZM21.9717 43.4336C21.6795 43.4337 21.4426 43.6668 21.4424 43.9551C21.4424 44.2435 21.6794 44.4775 21.9717 44.4775C22.2641 44.4775 22.501 44.2435 22.501 43.9551C22.5008 43.6668 22.264 43.4336 21.9717 43.4336ZM27.1338 43.4336C26.8417 43.4338 26.6047 43.6669 26.6045 43.9551C26.6045 44.2434 26.8416 44.4773 27.1338 44.4775C27.4262 44.4775 27.6641 44.2435 27.6641 43.9551C27.6639 43.6668 27.4261 43.4336 27.1338 43.4336ZM24.5127 41.8672C24.2205 41.8673 23.9836 42.1004 23.9834 42.3887C23.9834 42.6771 24.2204 42.911 24.5127 42.9111C24.8051 42.9111 25.042 42.6771 25.042 42.3887C25.0418 42.1004 24.805 41.8672 24.5127 41.8672ZM22.0772 36.7734C22.0772 37.2493 21.6865 37.6356 21.2041 37.6357C21.0141 37.6357 20.8595 37.7872 20.8594 37.9746V40.3516C20.8593 40.7841 20.504 41.1348 20.0655 41.1348H18.8526C18.7177 41.5587 18.3161 41.8662 17.8418 41.8662C17.257 41.8662 16.7832 41.3982 16.7832 40.8213C16.7834 40.2445 17.2571 39.7773 17.8418 39.7773C18.354 39.7773 18.7806 40.1358 18.8789 40.6123H20.0655C20.2116 40.6123 20.33 40.4957 20.3301 40.3516V37.9746C20.3303 37.4988 20.7217 37.1133 21.2041 37.1133C21.3941 37.1132 21.5479 36.9609 21.5479 36.7734V33.8223H22.0772V36.7734ZM27.5303 36.7734C27.5303 36.9609 27.685 37.1133 27.875 37.1133C28.3572 37.1135 28.7479 37.4989 28.7481 37.9746V40.3516C28.7482 40.4956 28.8667 40.6122 29.0127 40.6123H30.1992C30.2975 40.1358 30.7243 39.7775 31.2364 39.7773C31.8211 39.7773 32.2957 40.2445 32.2959 40.8213C32.2959 41.3982 31.8212 41.8662 31.2364 41.8662C30.7623 41.8661 30.3615 41.5585 30.2266 41.1348H29.0127C28.5743 41.1346 28.2189 40.784 28.2188 40.3516V37.9746C28.2186 37.7874 28.0648 37.636 27.875 37.6357C27.3925 37.6357 27.001 37.2494 27.001 36.7734V33.8223H27.5303V36.7734ZM17.8418 40.2998C17.5495 40.2998 17.3127 40.533 17.3125 40.8213C17.3125 41.1097 17.5494 41.3437 17.8418 41.3438C18.1343 41.3438 18.3711 41.1097 18.3711 40.8213C18.3709 40.533 18.1341 40.2998 17.8418 40.2998ZM31.2364 40.2998C30.9442 40.2999 30.7072 40.5331 30.7071 40.8213C30.7071 41.1097 30.944 41.3436 31.2364 41.3438C31.5288 41.3438 31.7657 41.1097 31.7657 40.8213C31.7655 40.533 31.5287 40.2998 31.2364 40.2998ZM34.1035 32.751C34.5197 32.9916 34.6598 33.5191 34.416 33.9297C34.32 34.0914 34.3743 34.2996 34.5381 34.3945L36.6172 35.5957C36.9956 35.8145 37.1221 36.2947 36.9004 36.668L36.2862 37.7012C36.5886 38.0303 36.6549 38.5271 36.4151 38.9307C36.1193 39.4284 35.4704 39.5954 34.9658 39.3037C34.4613 39.012 34.2922 38.3717 34.5879 37.874C34.8469 37.4384 35.3764 37.256 35.8428 37.4131L36.4434 36.4043C36.5173 36.28 36.4755 36.1199 36.3496 36.0469L34.2705 34.8447C33.8546 34.604 33.7152 34.0765 33.959 33.666C34.0551 33.5043 33.9999 33.296 33.836 33.2012L31.2549 31.709L31.5225 31.2578L34.1035 32.751ZM20.5948 35.5459C20.5948 35.9786 20.2394 36.3301 19.8008 36.3301H18.795C18.6488 36.3301 18.5304 36.4467 18.5303 36.5908V36.9902C18.9869 37.1062 19.3241 37.5144 19.3242 38.001C19.3242 38.5779 18.8505 39.0459 18.2657 39.0459C17.6808 39.0459 17.2071 38.5779 17.2071 38.001C17.2072 37.5144 17.5444 37.1062 18.001 36.9902V36.5908C18.0011 36.1582 18.3564 35.8076 18.795 35.8076H19.8008C19.947 35.8076 20.0655 35.6901 20.0655 35.5459V33.875H20.5948V35.5459ZM28.9073 35.5459C28.9073 35.6901 29.0258 35.8075 29.1719 35.8076H30.1778C30.6164 35.8076 30.9726 36.1582 30.9727 36.5908V36.9902C31.4289 37.1064 31.7665 37.5147 31.7666 38.001C31.7666 38.5779 31.2919 39.0459 30.7071 39.0459C30.1223 39.0458 29.6485 38.5778 29.6485 38.001C29.6486 37.5145 29.9859 37.1063 30.4424 36.9902V36.5908C30.4423 36.4467 30.3239 36.3301 30.1778 36.3301H29.1719C28.7333 36.33 28.378 35.9785 28.378 35.5459V33.875H28.9073V35.5459ZM14.0489 38.1982C13.9004 37.95 13.5761 37.8674 13.3242 38.0137C13.0725 38.1601 12.9885 38.48 13.1367 38.7285C13.2851 38.977 13.6094 39.0594 13.8614 38.9131C14.1134 38.7668 14.1972 38.4468 14.0489 38.1982ZM35.7696 37.9521C35.5173 37.8063 35.1928 37.8898 35.045 38.1387C34.8973 38.3874 34.9815 38.7066 35.2334 38.8525C35.4857 38.9984 35.8102 38.9149 35.958 38.666C36.1056 38.4173 36.0214 38.0981 35.7696 37.9521ZM18.2657 37.4795C17.9733 37.4795 17.7365 37.7127 17.7364 38.001C17.7364 38.2894 17.9732 38.5234 18.2657 38.5234C18.5581 38.5234 18.795 38.2894 18.795 38.001C18.7948 37.7127 18.558 37.4795 18.2657 37.4795ZM30.7071 37.4795C30.4149 37.4796 30.1779 37.7127 30.1778 38.001C30.1778 38.2894 30.4147 38.5233 30.7071 38.5234C30.9995 38.5234 31.2364 38.2894 31.2364 38.001C31.2362 37.7127 30.9994 37.4795 30.7071 37.4795ZM32.2803 33.3906C32.6586 33.6094 32.786 34.0887 32.5645 34.4619L32.0557 35.3184C31.9818 35.4428 32.0243 35.6028 32.1504 35.6758L32.4991 35.877C32.8315 35.5481 33.3591 35.4681 33.7842 35.7139C34.2887 36.0056 34.4579 36.6459 34.1621 37.1436C33.8664 37.6412 33.2175 37.8083 32.7129 37.5166C32.2869 37.2703 32.1004 36.7757 32.2305 36.3281L31.8819 36.126C31.5039 35.9071 31.3772 35.4278 31.5987 35.0547L32.1075 34.1982C32.1814 34.0738 32.1389 33.9138 32.0127 33.8408L30.5508 32.9951L30.8194 32.5449L32.2803 33.3906ZM37.5772 33.1543C38.006 33.4023 38.1497 33.9461 37.8985 34.3691C37.7951 34.5431 37.8542 34.7669 38.0303 34.8691L39.5606 35.7539C39.8916 35.4086 40.4318 35.3207 40.8653 35.5713C41.3696 35.8631 41.5389 36.5033 41.2432 37.001C40.9474 37.4985 40.2985 37.6656 39.794 37.374C39.3764 37.1326 39.1885 36.6523 39.3037 36.2119L37.7627 35.3203C37.3341 35.0723 37.1903 34.5284 37.4414 34.1055C37.5449 33.9313 37.4862 33.7066 37.3096 33.6045L31.919 30.4883L32.1866 30.0381L37.5772 33.1543ZM33.5166 36.165C33.2644 36.0192 32.9399 36.1027 32.792 36.3516C32.6444 36.6003 32.7286 36.9195 32.9805 37.0654C33.2328 37.2113 33.5572 37.1278 33.7051 36.8789C33.8527 36.6302 33.7685 36.311 33.5166 36.165ZM16.2442 36.3174C16.0957 36.0691 15.7714 35.9866 15.5196 36.1328C15.2678 36.2792 15.1838 36.5992 15.3321 36.8477C15.4804 37.0962 15.8047 37.1785 16.0567 37.0322C16.3087 36.8859 16.3925 36.566 16.2442 36.3174ZM9.2305 36.2988C9.08216 36.0502 8.75692 35.9679 8.50491 36.1143C8.25329 36.2607 8.16917 36.5807 8.31741 36.8291C8.46574 37.0775 8.79007 37.1598 9.04202 37.0137C9.29402 36.8674 9.37882 36.5474 9.2305 36.2988ZM40.5967 36.0215C40.3447 35.8761 40.021 35.9597 39.8731 36.208C39.7252 36.4568 39.8094 36.7769 40.0616 36.9229C40.3138 37.0687 40.6383 36.9852 40.7862 36.7363C40.9339 36.4875 40.8489 36.1673 40.5967 36.0215ZM39.4951 32.7793C39.8276 32.4496 40.3558 32.3692 40.7813 32.6152C41.2858 32.907 41.455 33.5472 41.1592 34.0449C40.8634 34.5426 40.2145 34.7097 39.71 34.418C39.2843 34.1718 39.098 33.6778 39.2276 33.2305L32.5752 29.3838L32.8428 28.9336L39.4951 32.7793ZM9.26956 33.2764C9.1213 33.0279 8.7969 32.9448 8.54495 33.0908C8.29309 33.2371 8.20849 33.5571 8.35647 33.8057C8.50481 34.0543 8.83005 34.1375 9.08206 33.9912C9.33379 33.8449 9.41767 33.5248 9.26956 33.2764ZM40.5137 33.0664C40.2614 32.9205 39.937 33.0041 39.7891 33.2529C39.6414 33.5016 39.7256 33.8209 39.9776 33.9668C40.2298 34.1127 40.5543 34.0291 40.7022 33.7803C40.8498 33.5316 40.7656 33.2123 40.5137 33.0664ZM38.9287 30.8779C39.1052 30.9799 39.332 30.9219 39.4356 30.748C39.6869 30.3251 40.2382 30.1829 40.667 30.4307L42.21 31.3223C42.5433 31.0084 43.0593 30.9364 43.4766 31.1777C43.981 31.4695 44.1502 32.1088 43.8545 32.6064C43.5588 33.1042 42.9099 33.2712 42.4053 32.9795C41.9717 32.7285 41.7863 32.2205 41.9307 31.7666L40.3994 30.8809C40.2229 30.779 39.9961 30.8376 39.8926 31.0117C39.6413 31.4346 39.09 31.5767 38.6612 31.3291L33.2705 28.2119L33.5381 27.7617L38.9287 30.8779ZM14.4776 24.4736L19.4424 32.9561H29.3711L34.336 24.4736L29.3711 15.9922H19.4424L14.4776 24.4736ZM6.61136 31.9111C6.4631 31.6627 6.1387 31.5796 5.88675 31.7256C5.63489 31.8718 5.55029 32.1919 5.69827 32.4404C5.84661 32.689 6.17185 32.7723 6.42386 32.626C6.67558 32.4796 6.75946 32.1596 6.61136 31.9111ZM43.209 31.6279C42.9567 31.4821 42.6323 31.5656 42.4844 31.8145C42.3366 32.0633 42.4216 32.3834 42.6739 32.5293C42.9261 32.6749 43.2507 32.5915 43.3985 32.3428C43.5462 32.094 43.4612 31.7738 43.209 31.6279ZM33.6211 24.4736L29.0147 32.3447H19.8018L15.1953 24.4736L19.8018 16.6035H29.0147L33.6211 24.4736ZM41.3614 26.4746C41.6571 25.9769 42.306 25.8098 42.8106 26.1016C43.3151 26.3933 43.4843 27.0335 43.1885 27.5312C42.9486 27.9345 42.4769 28.1201 42.0381 28.0205L41.4248 29.0527C41.203 29.426 40.7163 29.5518 40.3379 29.333L38.2598 28.1309C38.0959 28.0361 37.8853 28.0904 37.7891 28.252C37.5451 28.6626 37.0091 28.8003 36.5928 28.5596L34.0127 27.0674L34.2803 26.6172L36.8614 28.1094C37.0252 28.2039 37.236 28.1498 37.3321 27.9883C37.5761 27.5777 38.1111 27.44 38.5274 27.6807L40.6055 28.8818C40.7315 28.9547 40.8938 28.9133 40.9678 28.7891L41.5674 27.7793C41.2005 27.4547 41.1026 26.9103 41.3614 26.4746ZM24.3672 21.7725C23.98 20.7339 22.7598 20.2624 21.7608 20.7656L21.7666 20.7812C21.3475 20.9795 21.0007 21.3322 20.8252 21.8027L18.8272 27.1602C18.6344 27.6776 18.9033 28.2519 19.4278 28.4424C19.9478 28.631 20.5258 28.3719 20.7237 27.8613L21.2266 26.5635H23.9854L24.5098 27.9297C24.7061 28.4413 25.2833 28.7015 25.8037 28.5127C26.3275 28.3226 26.5958 27.7501 26.4033 27.2334L24.3672 21.7725ZM28.2735 20.7656C27.7179 20.7656 27.2676 21.3221 27.2676 21.8701V27.4512C27.2677 27.9991 27.7179 28.4434 28.2735 28.4434C28.829 28.4433 29.2792 27.9991 29.2793 27.4512V21.8701C29.2793 21.3221 28.829 20.7657 28.2735 20.7656ZM7.25296 26.8105C7.10462 26.562 6.77938 26.4787 6.52737 26.625C6.27547 26.7714 6.19156 27.0923 6.33987 27.3408C6.48824 27.5891 6.81261 27.6714 7.06448 27.5254C7.31642 27.3791 7.40112 27.0591 7.25296 26.8105ZM42.543 26.5518C42.2908 26.4059 41.9663 26.4895 41.8184 26.7383C41.6705 26.9871 41.7556 27.3073 42.0078 27.4531C42.26 27.5987 42.5836 27.5152 42.7315 27.2666C42.8794 27.0177 42.7953 26.6976 42.543 26.5518ZM38.791 25.291C39.1234 24.9607 39.6513 24.8797 40.0772 25.126C40.5817 25.4177 40.7509 26.058 40.4551 26.5557C40.1592 27.0531 39.5103 27.2194 39.0059 26.9277C38.5806 26.6816 38.3942 26.1883 38.5235 25.7412L38.1739 25.5391C38.0478 25.4662 37.8855 25.5075 37.8116 25.6318L37.3028 26.4883C37.0809 26.8615 36.5942 26.9864 36.2158 26.7676L34.7539 25.9229L35.0225 25.4717L36.4834 26.3174C36.6096 26.3903 36.7718 26.3481 36.8457 26.2236L37.3545 25.3682C37.5763 24.995 38.0631 24.8693 38.4414 25.0879L38.791 25.291ZM10.5742 25.0645C10.9521 24.8452 11.4386 24.9692 11.6612 25.3418L12.1719 26.1973C12.2461 26.3215 12.4082 26.3632 12.5342 26.29L13.9942 25.4424L14.2627 25.8926L12.8028 26.7402C12.4248 26.9597 11.9374 26.8348 11.7149 26.4619L11.2051 25.6074C11.131 25.4832 10.9688 25.4416 10.8428 25.5146L10.4922 25.7168C10.623 26.1641 10.4382 26.6582 10.0127 26.9053C9.50881 27.1976 8.86017 27.0321 8.56351 26.5352C8.26684 26.038 8.43454 25.3972 8.93851 25.1045C9.36349 24.8577 9.89063 24.9386 10.2237 25.2676L10.5742 25.0645ZM39.8096 25.5762C39.5574 25.4303 39.2329 25.514 39.085 25.7627C38.9371 26.0115 39.0222 26.3317 39.2744 26.4775C39.5266 26.6231 39.8502 26.5397 39.9981 26.291C40.146 26.0422 40.0619 25.722 39.8096 25.5762ZM9.93265 25.7402C9.78431 25.4916 9.45907 25.4084 9.20706 25.5547C8.95516 25.701 8.87125 26.022 9.01956 26.2705C9.16793 26.5188 9.4923 26.6011 9.74417 26.4551C9.9961 26.3088 10.0808 25.9888 9.93265 25.7402ZM23.3838 24.9961H21.834L22.6123 22.9854L23.3838 24.9961ZM39.0254 22.1309C39.5294 21.8382 40.1789 22.0038 40.4756 22.501C40.7723 22.9982 40.6037 23.639 40.0996 23.9316C39.6742 24.1784 39.1464 24.0975 38.8135 23.7676L38.4659 23.9707C38.088 24.19 37.6015 24.0659 37.3789 23.6934L36.8682 22.8379C36.794 22.7136 36.6319 22.672 36.5059 22.7451L35.0459 23.5928L34.7774 23.1426L36.2373 22.2949C36.6153 22.0755 37.1018 22.2004 37.3242 22.5732L37.835 23.4277C37.9091 23.552 38.0713 23.5936 38.1973 23.5205L38.545 23.3184C38.415 22.8715 38.6005 22.3777 39.0254 22.1309ZM8.5469 22.3545C8.84264 21.8569 9.49161 21.6899 9.99612 21.9814C10.4216 22.2275 10.6067 22.7208 10.4776 23.168L10.8282 23.3701C10.9543 23.4431 11.1165 23.4008 11.1905 23.2764L11.6992 22.4209C11.921 22.0477 12.4078 21.9221 12.7862 22.1406L14.2481 22.9863L13.9805 23.4365L12.5186 22.5918C12.3925 22.5189 12.2303 22.5603 12.1563 22.6846L11.6475 23.541C11.4256 23.9142 10.939 24.0391 10.5606 23.8203L10.211 23.6182C9.87861 23.9486 9.35075 24.0305 8.92483 23.7842C8.42044 23.4924 8.25119 22.8521 8.5469 22.3545ZM40.0186 22.7656C39.8701 22.5175 39.5458 22.4348 39.294 22.5811C39.0421 22.7274 38.9582 23.0474 39.1065 23.2959C39.2547 23.5444 39.5791 23.6275 39.8311 23.4814C40.0831 23.3351 40.1669 23.0142 40.0186 22.7656ZM9.72854 22.4326C9.47627 22.2867 9.15181 22.3703 9.00394 22.6191C8.85624 22.868 8.94119 23.1882 9.19339 23.334C9.44542 23.4793 9.76912 23.3958 9.91702 23.1475C10.0649 22.8987 9.98066 22.5785 9.72854 22.4326ZM40.2998 19.6318C40.6778 19.4126 41.1643 19.5374 41.3867 19.9102L42.002 20.9414C42.4408 20.8409 42.9137 21.0264 43.1543 21.4297C43.451 21.9269 43.2824 22.5677 42.7784 22.8604C42.2744 23.1527 41.6257 22.9863 41.3291 22.4893C41.0693 22.0536 41.1653 21.5078 41.5323 21.1826L40.9307 20.1748C40.8566 20.0506 40.6944 20.009 40.5684 20.082L38.4922 21.2881C38.0764 21.5295 37.5407 21.3925 37.2959 20.9824C37.1995 20.8209 36.989 20.7673 36.8252 20.8623L34.2471 22.3584L33.9785 21.9092L36.5567 20.4121C36.9725 20.1708 37.5073 20.3077 37.752 20.7178C37.8485 20.8792 38.0599 20.933 38.2237 20.8379L40.2998 19.6318ZM7.57522 19.8555C7.79707 19.4824 8.28383 19.3575 8.66214 19.5762L10.7403 20.7783C10.9042 20.8731 11.1158 20.8188 11.2119 20.6572C11.4559 20.2466 11.991 20.1089 12.4073 20.3496L14.9883 21.8418L14.7207 22.292L12.1397 20.7998C11.9757 20.705 11.7641 20.7591 11.668 20.9209C11.424 21.3314 10.8889 21.4692 10.4727 21.2285L8.39456 20.0264C8.26845 19.9536 8.10616 19.9958 8.03226 20.1201L7.43265 21.1289C7.80095 21.4534 7.89902 21.9991 7.63968 22.4355C7.34391 22.9332 6.695 23.1003 6.19046 22.8086C5.68606 22.5168 5.51681 21.8765 5.81253 21.3789C6.05192 20.9761 6.52273 20.7903 6.96097 20.8887L7.57522 19.8555ZM42.6973 21.6943C42.5488 21.4462 42.2245 21.3636 41.9727 21.5098C41.7208 21.6561 41.6369 21.9761 41.7852 22.2246C41.9335 22.4731 42.2578 22.5562 42.5098 22.4102C42.7618 22.2638 42.8456 21.9429 42.6973 21.6943ZM6.99417 21.457C6.74189 21.3112 6.41744 21.3947 6.26956 21.6436C6.12186 21.8924 6.20681 22.2126 6.45901 22.3584C6.71105 22.5037 7.03474 22.4202 7.18265 22.1719C7.33048 21.9231 7.24629 21.603 6.99417 21.457ZM42.3487 15.959C42.8527 15.6663 43.5022 15.8319 43.7989 16.3291C44.0955 16.8263 43.9269 17.4671 43.4229 17.7598C43.0058 18.0017 42.49 17.929 42.1563 17.6152L40.6153 18.5107C40.1869 18.7595 39.635 18.6179 39.3828 18.1953C39.279 18.0213 39.0514 17.964 38.875 18.0664L33.4912 21.1924L33.2217 20.7422L38.6065 17.6162C39.0349 17.3675 39.5867 17.5081 39.8389 17.9307C39.9428 18.1046 40.1703 18.163 40.3467 18.0605L41.876 17.1709C41.7318 16.7177 41.9159 16.2103 42.3487 15.959ZM39.6895 14.5928C40.1934 14.3002 40.8419 14.466 41.1387 14.9629C41.4354 15.4601 41.2677 16.1009 40.7637 16.3936C40.3383 16.6405 39.8105 16.5594 39.4776 16.2295L32.8311 20.0889L32.5625 19.6387L39.209 15.7793C39.0795 15.3326 39.2647 14.8394 39.6895 14.5928ZM39.7285 11.5703C40.2326 11.2777 40.8821 11.4433 41.1787 11.9404C41.4753 12.4376 41.3067 13.0775 40.8028 13.3701C40.3694 13.6216 39.8296 13.534 39.4981 13.1885L37.9678 14.0762C37.7915 14.1786 37.7331 14.4032 37.8369 14.5771C38.0891 14.9997 37.946 15.5442 37.5176 15.793L32.1338 18.9189L31.8653 18.4688L37.2491 15.3428C37.4255 15.2403 37.4847 15.0158 37.3809 14.8418C37.1289 14.4194 37.2713 13.8758 37.6992 13.627L39.2403 12.7314C39.1249 12.2917 39.3121 11.8124 39.7285 11.5703ZM34.9082 9.67188C35.4122 9.37922 36.0618 9.54482 36.3584 10.042C36.5987 10.4449 36.5329 10.9409 36.2315 11.2705L36.8477 12.3018C37.0702 12.6746 36.9435 13.1555 36.5655 13.375L34.4893 14.5801C34.3257 14.6752 34.271 14.8834 34.3672 15.0449C34.612 15.4551 34.4735 15.9832 34.0576 16.2246L31.4795 17.7217L31.211 17.2715L33.7891 15.7744C33.9529 15.6793 34.0076 15.4712 33.9112 15.3096C33.6667 14.8995 33.8052 14.3713 34.2207 14.1299L36.2969 12.9248C36.4229 12.8517 36.4647 12.6917 36.3907 12.5674L35.7901 11.5596C35.3236 11.7183 34.7932 11.5372 34.5332 11.1016C34.2366 10.6045 34.4045 9.96463 34.9082 9.67188ZM12.5869 9.97949C12.8827 9.48185 13.5316 9.31486 14.0362 9.60645C14.5407 9.89819 14.7099 10.5384 14.4141 11.0361C14.155 11.4717 13.6256 11.6535 13.1592 11.4961L12.5596 12.5059C12.4857 12.6303 12.5282 12.7904 12.6543 12.8633L14.7325 14.0654C15.1486 14.3061 15.2887 14.8336 15.045 15.2441C14.9489 15.4058 15.0032 15.6141 15.167 15.709L17.7481 17.2012L17.4805 17.6514L14.8994 16.1592C14.4834 15.9185 14.3441 15.391 14.5879 14.9805C14.684 14.8187 14.6288 14.6105 14.4649 14.5156L12.3867 13.3135C12.0085 13.0948 11.8812 12.6154 12.1026 12.2422L12.7158 11.209C12.4135 10.8799 12.3474 10.3829 12.5869 9.97949ZM43.3418 16.5938C43.1933 16.3456 42.869 16.263 42.6172 16.4092C42.3654 16.5555 42.2815 16.8755 42.4297 17.124C42.578 17.3725 42.9024 17.4556 43.1543 17.3096C43.4063 17.1632 43.4902 16.8423 43.3418 16.5938ZM6.32815 16.3809C6.07588 16.235 5.75142 16.3185 5.60354 16.5674C5.45585 16.8162 5.5408 17.1364 5.793 17.2822C6.04503 17.4276 6.36873 17.344 6.51663 17.0957C6.66447 16.8469 6.58027 16.5268 6.32815 16.3809ZM32.7139 11.5537C33.2179 11.2611 33.8674 11.4267 34.1641 11.9238C34.4606 12.421 34.2921 13.0609 33.7881 13.3535C33.3627 13.6004 32.8349 13.5203 32.502 13.1904L32.1533 13.3936C32.0273 13.4667 31.9854 13.6267 32.0596 13.751L32.5694 14.6064C32.7918 14.9793 32.666 15.4592 32.2881 15.6787L30.8282 16.5264L30.5596 16.0762L32.0196 15.2285C32.1454 15.1553 32.1874 14.9953 32.1133 14.8711L31.6026 14.0156C31.3804 13.6428 31.5069 13.1628 31.8848 12.9434L32.2334 12.7402C32.1038 12.2936 32.2893 11.8005 32.7139 11.5537ZM14.8389 11.7656C15.1346 11.268 15.7836 11.101 16.2881 11.3926C16.7137 11.6387 16.899 12.1319 16.7696 12.5791L17.1192 12.7812C17.4976 13.0001 17.6242 13.4802 17.4024 13.8535L16.8936 14.71C16.8199 14.8343 16.8623 14.9945 16.9883 15.0674L18.4502 15.9121L18.1826 16.3633L16.7207 15.5176C16.3424 15.2987 16.2157 14.8186 16.4375 14.4453L16.9463 13.5898C17.0202 13.4655 16.9776 13.3054 16.8516 13.2324L16.502 13.0293C16.1697 13.359 15.6433 13.441 15.2178 13.1953C14.7134 12.9036 14.5434 12.2633 14.8389 11.7656ZM40.6826 15.2275C40.5342 14.9793 40.2099 14.8967 39.958 15.043C39.706 15.1893 39.6222 15.5092 39.7705 15.7578C39.9189 16.0063 40.2432 16.0896 40.4951 15.9434C40.7472 15.797 40.831 15.4761 40.6826 15.2275ZM9.02347 14.9414C8.77126 14.7957 8.44674 14.8792 8.29886 15.1279C8.15098 15.3768 8.23603 15.6969 8.48831 15.8428C8.74057 15.9885 9.06507 15.9051 9.21292 15.6562C9.36055 15.4074 9.27564 15.0872 9.02347 14.9414ZM18.2657 9.9541C18.8505 9.9541 19.3242 10.4221 19.3242 10.999C19.3241 11.4855 18.9868 11.8928 18.5303 12.0088V12.4092C18.5304 12.5533 18.6488 12.6699 18.795 12.6699H19.8008C20.2394 12.6699 20.5948 13.0214 20.5948 13.4541V15.125H20.0655V13.4541C20.0655 13.3099 19.947 13.1924 19.8008 13.1924H18.795C18.3564 13.1924 18.0011 12.8418 18.001 12.4092V12.0088C17.5445 11.8928 17.2072 11.4855 17.2071 10.999C17.2071 10.4221 17.6808 9.9541 18.2657 9.9541ZM30.7071 9.9541C31.2919 9.9541 31.7666 10.4221 31.7666 10.999C31.7665 11.4853 31.4288 11.8925 30.9727 12.0088V12.4092C30.9726 12.8418 30.6164 13.1924 30.1778 13.1924H29.1719C29.0258 13.1925 28.9073 13.3099 28.9073 13.4541V15.125H28.378V13.4541C28.378 13.0215 28.7333 12.67 29.1719 12.6699H30.1778C30.3239 12.6699 30.4423 12.5533 30.4424 12.4092V12.0088C29.986 11.8927 29.6486 11.4854 29.6485 10.999C29.6485 10.4222 30.1223 9.95423 30.7071 9.9541ZM40.7227 12.2051C40.5743 11.9565 40.2491 11.8742 39.9971 12.0205C39.7454 12.167 39.6614 12.4869 39.8096 12.7354C39.9579 12.9838 40.2823 13.0661 40.5342 12.9199C40.7862 12.7736 40.871 12.4537 40.7227 12.2051ZM33.708 12.1885C33.5597 11.9399 33.2345 11.8576 32.9825 12.0039C32.7308 12.1504 32.6467 12.4703 32.795 12.7188C32.9433 12.9672 33.2676 13.0495 33.5196 12.9033C33.7715 12.757 33.8563 12.4371 33.708 12.1885ZM8.93753 11.9863C8.68532 11.8407 8.36078 11.9242 8.21292 12.1729C8.06504 12.4217 8.15009 12.7418 8.40237 12.8877C8.65463 13.0335 8.97912 12.95 9.12698 12.7012C9.27464 12.4524 9.18972 12.1321 8.93753 11.9863ZM16.0205 11.8428C15.7683 11.6971 15.4438 11.7806 15.2959 12.0293C15.148 12.2782 15.2331 12.5983 15.4854 12.7441C15.7376 12.8899 16.0621 12.8064 16.21 12.5576C16.3576 12.3088 16.2727 11.9886 16.0205 11.8428ZM18.2657 10.4766C17.9732 10.4766 17.7364 10.7106 17.7364 10.999C17.7365 11.2873 17.9733 11.5205 18.2657 11.5205C18.558 11.5205 18.7948 11.2873 18.795 10.999C18.795 10.7106 18.5581 10.4766 18.2657 10.4766ZM30.7071 10.4766C30.4147 10.4767 30.1778 10.7106 30.1778 10.999C30.1779 11.2873 30.4149 11.5204 30.7071 11.5205C30.9994 11.5205 31.2362 11.2873 31.2364 10.999C31.2364 10.7106 30.9995 10.4766 30.7071 10.4766ZM35.9024 10.3066C35.754 10.0581 35.4288 9.97575 35.1768 10.1221C34.9251 10.2685 34.841 10.5885 34.9893 10.8369C35.1376 11.0853 35.462 11.1677 35.7139 11.0215C35.9659 10.8752 36.0507 10.5552 35.9024 10.3066ZM13.7686 10.0566C13.5164 9.91098 13.1918 9.99448 13.044 10.2432C12.8961 10.492 12.9811 10.8121 13.2334 10.958C13.4857 11.1038 13.8102 11.0203 13.958 10.7715C14.1057 10.5227 14.0208 10.2025 13.7686 10.0566ZM17.8418 7.65625C17.5494 7.65625 17.3125 7.89026 17.3125 8.17871C17.3127 8.46701 17.5495 8.70019 17.8418 8.7002C18.1341 8.7002 18.3709 8.46702 18.3711 8.17871C18.3711 7.89025 18.1343 7.65625 17.8418 7.65625ZM31.2364 7.65625C30.944 7.65638 30.7071 7.89033 30.7071 8.17871C30.7072 8.46694 30.9442 8.70007 31.2364 8.7002C31.5287 8.7002 31.7655 8.46702 31.7657 8.17871C31.7657 7.89025 31.5288 7.65625 31.2364 7.65625ZM24.5127 6.08887C24.2204 6.08895 23.9834 6.32292 23.9834 6.61133C23.9836 6.89958 24.2205 7.13273 24.5127 7.13281C24.805 7.13281 25.0418 6.89963 25.042 6.61133C25.042 6.32287 24.8051 6.08887 24.5127 6.08887ZM21.9717 4.52246C21.6794 4.52254 21.4424 4.75652 21.4424 5.04492C21.4426 5.33318 21.6795 5.56632 21.9717 5.56641C22.264 5.56641 22.5008 5.33323 22.501 5.04492C22.501 4.75647 22.2641 4.52246 21.9717 4.52246ZM27.1338 4.52246C26.8416 4.52267 26.6045 4.75659 26.6045 5.04492C26.6047 5.3331 26.8417 5.5662 27.1338 5.56641C27.4261 5.56641 27.6639 5.33323 27.6641 5.04492C27.6641 4.75647 27.4262 4.52246 27.1338 4.52246Z" fill="url(#paint0_linear_761_3767)"/>
<defs>
<linearGradient id="paint0_linear_761_3767" x1="24.5004" y1="4" x2="24.5004" y2="45" gradientUnits="userSpaceOnUse">
<stop stop-color="#014EA6"/>
<stop offset="0.5" stop-color="#7C47AD"/>
<stop offset="1" stop-color="#C842B2"/>
</linearGradient>
</defs>
</svg>
