<svg width="48" height="48" viewBox="0 0 48 48" fill="none" xmlns="http://www.w3.org/2000/svg">
<path d="M26 6.5L28 7L29 6L31 8L30 9L30.5 10.5L32 11V13.5L30.5 14L30 15.5L31 17L29 18.5L27.5 17.5L26 18.5V20H23V18.5L21 17.5L20 18.5L18 17L19 15.5L18.5 14L17 13.5V11H18L19 9L18 8V7.5L20 6L21.5 7L23 6L23.5 4.5H26V6.5ZM24.5 9C22.567 9 21 10.567 21 12.5C21 14.433 22.567 16 24.5 16C26.433 16 28 14.433 28 12.5C28 10.567 26.433 9 24.5 9Z" fill="white"/>
<path d="M10 20.5C10 21.8807 8.88071 23 7.5 23C6.11929 23 5 21.8807 5 20.5C5 19.1193 6.11929 18 7.5 18C8.88071 18 10 19.1193 10 20.5Z" fill="white"/>
<path d="M11.5 12C11.5 13.1046 10.6046 14 9.5 14C8.39543 14 7.5 13.1046 7.5 12C7.5 10.8954 8.39543 10 9.5 10C10.6046 10 11.5 10.8954 11.5 12Z" fill="white"/>
<path d="M8.5 29L6 23.5L9.5 22.5L13.5 29H8.5Z" fill="white"/>
<path d="M6 18L7.50472 13.4145L9.22915 13.9576L9 18.5L6 18Z" fill="white"/>
<path d="M7 29H16V31H7V29Z" fill="white"/>
<path d="M38.9404 20.5C38.9404 21.8807 40.0597 23 41.4404 23C42.8211 23 43.9404 21.8807 43.9404 20.5C43.9404 19.1193 42.8211 18 41.4404 18C40.0597 18 38.9404 19.1193 38.9404 20.5Z" fill="white"/>
<path d="M38 12.5C38 13.6046 39.6716 14 40.5 14C41.3284 14 41.5 13.1046 41.5 12C41.5 10.8954 40.3284 10.5 39.5 10.5C38.6716 10.5 38 11.3954 38 12.5Z" fill="white"/>
<path d="M40.4404 29L42.9404 23.5L39.4404 22.5L35.4404 29H40.4404Z" fill="white"/>
<path d="M42.9404 18L41.4357 13.4145L39.7113 13.9576L39.9404 18.5L42.9404 18Z" fill="white"/>
<path d="M41.9404 29H32.9404V31H41.9404V29Z" fill="white"/>
<path d="M5 32C5 31.4477 5.44772 31 6 31H43C43.5523 31 44 31.4477 44 32V43C44 43.5523 43.5523 44 43 44H6C5.44772 44 5 43.5523 5 43V32Z" fill="white"/>
<path d="M42.7432 30.8249H42.189V29.1641C42.189 28.8827 41.9608 28.6545 41.6794 28.6545H41.1354L43.7401 23.1111C44.4075 22.5569 44.8331 21.7179 44.8331 20.788C44.8331 20.0108 44.5345 19.2988 44.0507 18.7635L42.1083 12.1444C42.0637 10.8834 41.0274 9.87284 39.7576 9.87284C38.6337 9.87284 37.6935 10.6638 37.4601 11.7224L32.728 11.7241V10.9469C32.728 10.6003 32.4552 10.3223 32.1138 10.3104L30.9848 10.276C30.8526 9.8454 30.6811 9.42847 30.47 9.03388L31.2438 8.21206C31.4806 7.96156 31.4772 7.5704 31.2301 7.32505L29.4113 5.50299C29.166 5.25765 28.7782 5.2525 28.5243 5.48926L27.7024 6.26304C27.3077 6.05201 26.8891 5.877 26.4601 5.74832L26.4258 4.61939C26.4172 4.27282 26.1358 4 25.7892 4H23.2155C22.8689 4 22.5909 4.2728 22.5789 4.61939L22.5412 5.7466C22.1105 5.87871 21.6935 6.05028 21.2989 6.26132L20.477 5.48755C20.2265 5.25078 19.8353 5.25421 19.59 5.50128L17.7712 7.31991C17.5258 7.56525 17.5207 7.953 17.7575 8.20692L18.5313 9.02874C18.3202 9.42335 18.1452 9.842 18.0165 10.2709L16.8875 10.3052C16.5409 10.3138 16.2681 10.5952 16.2681 10.9417V11.7189H11.5342C11.3009 10.6655 10.3606 9.86942 9.23673 9.86942C7.96703 9.86942 6.93065 10.88 6.88603 12.141L4.94883 18.7601C4.46152 19.2954 4.16643 20.0074 4.16643 20.7846C4.16643 21.7162 4.59196 22.5552 5.25943 23.1077L7.86407 28.6511H7.32014C7.03875 28.6511 6.81052 28.8793 6.81052 29.1607V30.8214H6.25803C5.01577 30.8214 4 31.8354 4 33.0793V42.7421C4 43.9843 5.01406 45 6.25803 45H42.742C43.9842 45 45 43.986 45 42.7421V33.0793C45.0017 31.8354 43.9906 30.8249 42.7432 30.8249ZM41.1698 30.8249H33.8878V29.6788H41.1698V30.8249ZM40.0099 28.6562H35.8507L39.6598 22.9016C40.2089 23.4592 40.9725 23.8057 41.8167 23.8057C41.9831 23.8057 42.1513 23.792 42.3091 23.7663L40.0099 28.6562ZM41.5267 13.7741L42.738 17.9124C42.4481 17.8198 42.1358 17.7683 41.8115 17.7683C41.144 17.7683 40.5246 17.9879 40.0236 18.3568L39.8692 14.5702C40.528 14.5393 41.1166 14.2357 41.5267 13.7741ZM41.8115 22.7882C40.7082 22.7882 39.8125 21.8926 39.8125 20.7894C39.8125 19.6862 40.7082 18.7906 41.8115 18.7906C42.9148 18.7906 43.8105 19.6862 43.8105 20.7894C43.8139 21.8909 42.9148 22.7882 41.8115 22.7882ZM39.7594 10.8933C40.4937 10.8933 41.0908 11.4904 41.0908 12.2246C41.0908 12.9589 40.4937 13.556 39.7594 13.556C39.025 13.556 38.4279 12.9589 38.4279 12.2246C38.433 11.4903 39.0267 10.8933 39.7594 10.8933ZM17.2924 11.3153L18.3288 11.2845C18.6136 11.2759 18.8556 11.082 18.9259 10.8058C19.0615 10.2739 19.2725 9.76437 19.5505 9.29427C19.6946 9.04893 19.6655 8.74011 19.4664 8.5342L18.7543 7.77927L20.0464 6.48735L20.8013 7.19937C21.0072 7.39667 21.3161 7.4327 21.5615 7.28344C22.0316 7.00206 22.5412 6.79617 23.0731 6.65891C23.3494 6.58856 23.5433 6.34665 23.5518 6.06183L23.5827 5.02554H25.4101L25.441 6.06183C25.4496 6.34664 25.6434 6.58855 25.9197 6.65891C26.4516 6.79445 26.956 7.00548 27.4262 7.28344C27.6715 7.42755 27.9804 7.39839 28.1863 7.19937L28.9413 6.48735L30.2367 7.78269L29.5247 8.53762C29.3273 8.74866 29.2965 9.05235 29.4406 9.2977C29.7168 9.76779 29.9279 10.2722 30.0652 10.8041C30.1355 11.0803 30.3775 11.2742 30.6623 11.2828L31.6987 11.3136V13.146L30.6623 13.1769C30.3775 13.1855 30.1355 13.3794 30.0652 13.6556C29.9296 14.1874 29.7186 14.6919 29.4406 15.162C29.2965 15.4073 29.3256 15.7161 29.5247 15.922L30.2367 16.677L28.9413 17.9723L28.1863 17.2603C27.9753 17.063 27.6715 17.0321 27.4262 17.1762C26.956 17.4524 26.4516 17.6635 25.9197 17.8007C25.6434 17.8711 25.4495 18.113 25.441 18.3978L25.4101 19.4341H23.5776L23.5467 18.3978C23.5381 18.113 23.3442 17.8711 23.068 17.8007C22.5361 17.6652 22.0316 17.4542 21.5615 17.1762C21.3161 17.0321 21.0073 17.0613 20.8013 17.2603L20.0464 17.9723L18.7543 16.6804L19.4664 15.9254C19.6637 15.7144 19.6946 15.4107 19.5505 15.1654C19.2691 14.6953 19.0632 14.1857 18.9259 13.6538C18.8556 13.3776 18.6136 13.1838 18.3288 13.1752L17.2924 13.1443V11.3153ZM11.5343 12.7428H16.2734V13.52C16.2734 13.8666 16.5462 14.1445 16.8928 14.1565L18.0218 14.1908C18.1539 14.6215 18.3255 15.0384 18.5366 15.433L17.7627 16.2548C17.5259 16.5053 17.5294 16.8965 17.7765 17.1418L19.5952 18.9605C19.8406 19.2058 20.2284 19.211 20.4823 18.9742L21.3042 18.2004C21.6988 18.4114 22.1175 18.5865 22.5464 18.7151L22.5808 19.8441C22.5893 20.1906 22.8707 20.4583 23.2173 20.4583H25.7911C26.1377 20.4583 26.4157 20.1855 26.4277 19.8441L26.462 18.7151C26.8926 18.583 27.3096 18.4115 27.7042 18.2004L28.5261 18.9742C28.7766 19.211 29.1678 19.2075 29.4132 18.9605L31.232 17.1418C31.4773 16.8965 31.4825 16.5087 31.2457 16.2548L30.4718 15.433C30.6829 15.0384 30.8579 14.6197 30.9866 14.1908L32.1156 14.1565C32.4622 14.148 32.7299 13.8666 32.7299 13.52V12.7428H37.469C37.6354 13.4857 38.1536 14.0948 38.8434 14.3899L39.0493 19.5679C38.8828 19.9419 38.7902 20.3537 38.7902 20.7894C38.7902 21.2149 38.8777 21.6198 39.0407 21.9887L34.6257 28.6561H33.3784C33.097 28.6561 32.8687 28.8843 32.8687 29.1656V30.8264L16.1323 30.8247V29.1639C16.1323 28.8826 15.9041 28.6543 15.6227 28.6543H14.3753L9.96035 21.9835C10.1182 21.6146 10.2109 21.2097 10.2109 20.7842C10.2109 20.3501 10.1182 19.9366 9.95177 19.5626L10.1577 14.3847C10.844 14.0947 11.3627 13.4857 11.5343 12.7428ZM9.12692 14.5701L8.9725 18.3566C8.47149 17.9877 7.85205 17.7681 7.18461 17.7681C6.86374 17.7681 6.55147 17.8213 6.25805 17.9123L7.47113 13.774C7.88465 14.2355 8.47318 14.5392 9.12692 14.5701ZM9.24188 10.8933C9.97627 10.8933 10.5733 11.4904 10.5733 12.2247C10.5733 12.959 9.97623 13.556 9.24188 13.556C8.50754 13.556 7.91042 12.959 7.91042 12.2247C7.91042 11.4904 8.50754 10.8933 9.24188 10.8933ZM7.18974 18.7856C8.29301 18.7856 9.18869 19.6813 9.18869 20.7844C9.18869 21.8876 8.29301 22.7833 7.18974 22.7833C6.08646 22.7833 5.19078 21.8876 5.19078 20.7844C5.18735 19.683 6.08646 18.7856 7.18974 18.7856ZM6.69729 23.7664C6.85515 23.7921 7.02158 23.8059 7.18974 23.8059C8.03394 23.8059 8.79749 23.4593 9.34656 22.9017L13.1557 28.6563H8.99652L6.69729 23.7664ZM7.83144 29.6752H15.1134V30.8213H7.83144V29.6752ZM43.9824 42.742C43.9824 43.4232 43.4282 43.9808 42.7436 43.9808H6.25834C5.57715 43.9808 5.01952 43.4266 5.01952 42.742V33.0792C5.01952 32.398 5.57372 31.8405 6.25834 31.8405H42.7423C43.4235 31.8405 43.9811 32.3946 43.9811 33.0792L43.9824 42.742ZM24.5007 16.1727C25.5113 16.1727 26.5219 15.7867 27.2906 15.0181C28.828 13.4808 28.828 10.9776 27.2906 9.4404C26.5442 8.69408 25.5559 8.28574 24.5007 8.28574C23.4472 8.28574 22.4588 8.69408 21.7107 9.4404C20.9643 10.1867 20.556 11.175 20.556 12.2302C20.556 13.2836 20.9643 14.2718 21.7107 15.0199C22.4794 15.7868 23.49 16.1727 24.5007 16.1727ZM22.4314 10.1642C22.9856 9.61003 23.7183 9.30807 24.5007 9.30807C25.2831 9.30807 26.0157 9.61175 26.5699 10.1642C27.7127 11.3069 27.7127 13.1598 26.5699 14.2973C25.4272 15.44 23.5741 15.44 22.4365 14.2973C21.8823 13.7432 21.5803 13.0106 21.5803 12.2282C21.5751 11.451 21.8823 10.7132 22.4314 10.1642Z" fill="url(#paint0_linear_748_4013)"/>
<path d="M31.1872 39.7759H28.6786L28.2476 41.0001H27.2217L29.3683 35H30.5062L32.6528 41.0001H31.6183L31.1872 39.7759ZM30.9114 38.9742L29.9372 36.1897L28.9545 38.9742H30.9114Z" fill="url(#paint1_linear_748_4013)"/>
<path d="M26.637 36.7923C26.637 37.0969 26.5651 37.3843 26.4215 37.6544C26.2778 37.9245 26.0479 38.1458 25.7318 38.3182C25.4157 38.4849 25.0105 38.5682 24.5163 38.5682H23.43V40.9993H22.4473V35.0078H24.5163C24.976 35.0078 25.364 35.0883 25.6801 35.2492C26.0019 35.4044 26.2404 35.617 26.3956 35.8871C26.5565 36.1573 26.637 36.459 26.637 36.7923ZM24.5163 37.7665C24.8898 37.7665 25.1686 37.6831 25.3525 37.5165C25.5364 37.3441 25.6283 37.1027 25.6283 36.7923C25.6283 36.1371 25.2576 35.8095 24.5163 35.8095H23.43V37.7665H24.5163Z" fill="url(#paint2_linear_748_4013)"/>
<path d="M20.1121 40.9993L18.7328 38.6027H17.9828V40.9993H17V35.0078H19.069C19.5288 35.0078 19.9167 35.0883 20.2328 35.2492C20.5546 35.4101 20.7932 35.6256 20.9483 35.8958C21.1092 36.1659 21.1897 36.4676 21.1897 36.8009C21.1897 37.1917 21.0748 37.5481 20.8449 37.8699C20.6207 38.186 20.273 38.4015 19.8018 38.5165L21.2845 40.9993H20.1121ZM17.9828 37.8182H19.069C19.4368 37.8182 19.7127 37.7262 19.8966 37.5423C20.0862 37.3584 20.1811 37.1113 20.1811 36.8009C20.1811 36.4906 20.0891 36.2492 19.9052 36.0768C19.7213 35.8986 19.4426 35.8095 19.069 35.8095H17.9828V37.8182Z" fill="url(#paint3_linear_748_4013)"/>
<rect x="6" y="38" width="1" height="1" fill="url(#paint4_linear_748_4013)"/>
<rect x="35" y="38" width="1" height="1" fill="url(#paint5_linear_748_4013)"/>
<rect x="9" y="38" width="1" height="1" fill="url(#paint6_linear_748_4013)"/>
<rect x="38" y="38" width="1" height="1" fill="url(#paint7_linear_748_4013)"/>
<rect x="12" y="38" width="1" height="1" fill="url(#paint8_linear_748_4013)"/>
<rect x="41" y="38" width="1" height="1" fill="url(#paint9_linear_748_4013)"/>
<defs>
<linearGradient id="paint0_linear_748_4013" x1="24.5" y1="4" x2="24.5" y2="45" gradientUnits="userSpaceOnUse">
<stop stop-color="#014EA6"/>
<stop offset="0.5" stop-color="#7C47AD"/>
<stop offset="1" stop-color="#C842B2"/>
</linearGradient>
<linearGradient id="paint1_linear_748_4013" x1="29.9372" y1="35" x2="29.9372" y2="41.0001" gradientUnits="userSpaceOnUse">
<stop offset="0.0240385" stop-color="#7C47AD"/>
<stop offset="1" stop-color="#C842B2"/>
</linearGradient>
<linearGradient id="paint2_linear_748_4013" x1="24.5421" y1="35.0078" x2="24.5421" y2="40.9993" gradientUnits="userSpaceOnUse">
<stop offset="0.0240385" stop-color="#7C47AD"/>
<stop offset="1" stop-color="#C842B2"/>
</linearGradient>
<linearGradient id="paint3_linear_748_4013" x1="19.1423" y1="35.0078" x2="19.1423" y2="40.9993" gradientUnits="userSpaceOnUse">
<stop offset="0.0240385" stop-color="#7C47AD"/>
<stop offset="1" stop-color="#C842B2"/>
</linearGradient>
<linearGradient id="paint4_linear_748_4013" x1="6.5" y1="38" x2="6.5" y2="39" gradientUnits="userSpaceOnUse">
<stop offset="0.0240385" stop-color="#7C47AD"/>
<stop offset="1" stop-color="#C842B2"/>
</linearGradient>
<linearGradient id="paint5_linear_748_4013" x1="35.5" y1="38" x2="35.5" y2="39" gradientUnits="userSpaceOnUse">
<stop offset="0.0240385" stop-color="#7C47AD"/>
<stop offset="1" stop-color="#C842B2"/>
</linearGradient>
<linearGradient id="paint6_linear_748_4013" x1="9.5" y1="38" x2="9.5" y2="39" gradientUnits="userSpaceOnUse">
<stop offset="0.0240385" stop-color="#7C47AD"/>
<stop offset="1" stop-color="#C842B2"/>
</linearGradient>
<linearGradient id="paint7_linear_748_4013" x1="38.5" y1="38" x2="38.5" y2="39" gradientUnits="userSpaceOnUse">
<stop offset="0.0240385" stop-color="#7C47AD"/>
<stop offset="1" stop-color="#C842B2"/>
</linearGradient>
<linearGradient id="paint8_linear_748_4013" x1="12.5" y1="38" x2="12.5" y2="39" gradientUnits="userSpaceOnUse">
<stop offset="0.0240385" stop-color="#7C47AD"/>
<stop offset="1" stop-color="#C842B2"/>
</linearGradient>
<linearGradient id="paint9_linear_748_4013" x1="41.5" y1="38" x2="41.5" y2="39" gradientUnits="userSpaceOnUse">
<stop offset="0.0240385" stop-color="#7C47AD"/>
<stop offset="1" stop-color="#C842B2"/>
</linearGradient>
</defs>
</svg>
