<svg width="48" height="48" viewBox="0 0 48 48" fill="none" xmlns="http://www.w3.org/2000/svg">
<path fill-rule="evenodd" clip-rule="evenodd" d="M3 35H23.9881L44.528 14H3V35Z" fill="url(#paint0_linear_748_2791)"/>
<path fill-rule="evenodd" clip-rule="evenodd" d="M27.6452 18.2003H23.5438L23.5575 28.0609L19.9861 18.197H16.4449L13.3962 26.4351C13.0721 24.3388 10.952 23.6154 9.28386 23.0736C8.18227 22.712 7.01312 22.18 7.02499 21.592C7.03412 21.1094 7.65043 20.6619 8.87527 20.7287C9.69701 20.7739 10.4229 20.8416 11.8669 21.5546L13.2866 19.0253C11.97 18.3402 10.1494 17.9076 8.6566 17.9062H8.64747C6.90675 17.9062 5.4573 18.4826 4.55886 19.4323C3.93251 20.0949 3.59469 20.9377 3.58099 21.8697C3.55817 23.1521 4.01788 24.0611 4.98388 24.7877C5.80014 25.399 6.84421 25.7957 7.7641 26.0869C8.89856 26.4462 9.8253 26.7589 9.81388 27.4244C9.80626 27.6684 9.71028 27.9009 9.54453 28.0768C9.26149 28.3754 8.8278 28.4874 8.22747 28.4996C7.06927 28.5248 6.21101 28.3386 4.84327 27.5121L3.58008 30.0741C4.94645 30.8684 6.39682 31.2669 8.04486 31.2669L8.41556 31.2641C9.84995 31.2375 11.0141 30.8861 11.939 30.1255C11.9919 30.0821 12.0394 30.0382 12.0887 29.9938L11.9335 30.8114L15.3939 30.8003L16.0148 29.1753C16.6676 29.4031 17.4099 29.529 18.1979 29.529C18.9658 29.529 19.688 29.4096 20.3285 29.1949L20.7613 30.8003L26.97 30.8063L26.985 27.1019H28.3062C31.4996 27.1019 33.3873 25.4406 33.3873 22.6546C33.3864 19.5517 31.5512 18.2003 27.6452 18.2003ZM18.1979 26.6292C17.7512 26.6323 17.3077 26.5529 16.8886 26.3949L18.1833 22.2159H18.2084L19.4821 26.4066C19.0986 26.5466 18.6622 26.6292 18.1979 26.6292ZM27.8853 24.2282H26.9841V20.8602H27.8858C29.0864 20.8602 30.0451 21.269 30.0451 22.5225C30.0442 23.8198 29.0864 24.2282 27.8858 24.2282" fill="white"/>
<defs>
<linearGradient id="paint0_linear_748_2791" x1="23.764" y1="14" x2="23.764" y2="35.0005" gradientUnits="userSpaceOnUse">
<stop stop-color="#00AEEF"/>
<stop offset="0.212" stop-color="#0097DC"/>
<stop offset="0.519" stop-color="#007CC5"/>
<stop offset="0.792" stop-color="#006CB8"/>
<stop offset="1" stop-color="#0066B3"/>
</linearGradient>
</defs>
</svg>
