<svg width="48" height="48" viewBox="0 0 48 48" fill="none" xmlns="http://www.w3.org/2000/svg">
<path d="M3.67719 44.8339L23.7866 24.2208C23.8487 24.1595 23.8872 24.0783 23.8954 23.9914C23.9037 23.9045 23.881 23.8175 23.8316 23.7457C22.6087 22.0384 20.3523 21.7424 19.516 20.5952C17.0389 17.1972 16.4104 15.2736 15.3459 15.3929C15.2716 15.4036 15.2033 15.4397 15.1525 15.495L7.88839 22.9416C3.70902 27.2222 3.10847 36.6574 3 44.5584C2.99964 44.637 3.02283 44.7139 3.06657 44.7793C3.1103 44.8446 3.1726 44.8954 3.24542 44.925C3.31825 44.9546 3.39828 44.9617 3.4752 44.9455C3.55213 44.9292 3.62257 44.8905 3.67719 44.8339Z" fill="#017CEE"/>
<path d="M44.8317 44.324L24.2186 24.2133C24.1572 24.151 24.0759 24.1124 23.9888 24.1042C23.9018 24.096 23.8147 24.1187 23.7427 24.1683C22.0355 25.3919 21.7394 27.6476 20.5922 28.484C17.1943 30.961 15.2706 31.5895 15.39 32.6541C15.4009 32.7281 15.4369 32.7961 15.492 32.8467L22.9387 40.1108C27.2193 44.2902 36.6544 44.8907 44.5555 44.9992C44.6337 44.9993 44.7102 44.976 44.7751 44.9324C44.8401 44.8889 44.8906 44.8269 44.9202 44.7545C44.9499 44.6821 44.9573 44.6025 44.9415 44.5259C44.9257 44.4493 44.8875 44.3788 44.8317 44.324Z" fill="#00AD46"/>
<path d="M22.9398 40.1113C20.5998 37.8283 19.5155 33.3125 24 24C16.7094 27.2582 14.1548 31.5409 15.4111 32.7671L22.9398 40.1113Z" fill="#04D659"/>
<path d="M44.322 3.16958L24.2132 23.7827C24.151 23.8439 24.1124 23.9252 24.1042 24.0121C24.096 24.099 24.1187 24.186 24.1683 24.2578C25.3918 25.9651 27.6469 26.2611 28.4839 27.4083C30.9609 30.8062 31.5901 32.7299 32.654 32.6105C32.7283 32.6 32.7967 32.5639 32.8473 32.5085L40.1115 25.0618C44.2908 20.7813 44.8914 11.3461 44.9998 3.44508C45 3.36647 44.9767 3.2896 44.9328 3.22435C44.889 3.15909 44.8267 3.10841 44.7538 3.07882C44.681 3.04923 44.601 3.04207 44.5241 3.05826C44.4471 3.07446 44.3767 3.11314 44.322 3.16958Z" fill="#00C7D4"/>
<path d="M40.1159 25.0611C37.8329 27.4012 33.317 28.4855 24.0039 24.001C27.2621 31.2916 31.5448 33.8462 32.7711 32.5899L40.1159 25.0611Z" fill="#11E1EE"/>
<path d="M3.16773 3.67785L23.7808 23.7866C23.8422 23.8487 23.9234 23.8872 24.0102 23.8954C24.0971 23.9037 24.1841 23.881 24.256 23.8316C25.9632 22.6081 26.2593 20.3523 27.4065 19.516C30.8044 17.0389 32.7281 16.4104 32.6087 15.3459C32.5978 15.2716 32.5618 15.2034 32.5067 15.1525L25.06 7.88839C20.7794 3.70903 11.3443 3.10848 3.44323 3.00001C3.36446 2.9995 3.28734 3.02262 3.22185 3.06639C3.15635 3.11017 3.10549 3.17258 3.07584 3.24556C3.04619 3.31854 3.0391 3.39874 3.05551 3.47579C3.07191 3.55284 3.11092 3.62328 3.16773 3.67785Z" fill="#E43921"/>
<path d="M25.0631 7.88867C27.4031 10.1716 28.4875 14.6875 24.0029 24.0006C31.2935 20.7424 33.8482 16.4591 32.5918 15.2335L25.0631 7.88867Z" fill="#FF7557"/>
<path d="M7.88867 22.9408C10.1716 20.6008 14.6875 19.5164 24.0006 24.001C20.7424 16.7104 16.4597 14.1557 15.2335 15.4121L7.88867 22.9408Z" fill="#0CB6FF"/>
<path d="M24.0034 24.8964C24.4998 24.8964 24.9023 24.494 24.9023 23.9975C24.9023 23.5011 24.4998 23.0986 24.0034 23.0986C23.5069 23.0986 23.1045 23.5011 23.1045 23.9975C23.1045 24.494 23.5069 24.8964 24.0034 24.8964Z" fill="#4A4848"/>
</svg>
