<svg width="48" height="48" viewBox="0 0 48 48" fill="none" xmlns="http://www.w3.org/2000/svg">
<path fill-rule="evenodd" clip-rule="evenodd" d="M41.4217 24.0224C41.3843 23.9456 41.369 23.9061 41.3492 23.8687C40.8222 22.8673 40.2973 21.8682 39.7659 20.869C39.7132 20.768 39.7198 20.7087 39.7922 20.623C40.6289 19.6458 41.4612 18.6642 42.2957 17.6826C42.3242 17.6474 42.3506 17.6123 42.3616 17.5508L41.6303 17.7418C40.6179 18.0098 39.6078 18.2777 38.5976 18.5478C38.5032 18.5719 38.4614 18.5456 38.4131 18.4665C37.8378 17.5069 37.2624 16.5494 36.6849 15.5919C36.6541 15.5414 36.6234 15.4931 36.5597 15.4514C36.5136 15.7061 36.4653 15.9631 36.4213 16.2178L35.9404 18.9255C35.9228 19.0221 35.8987 19.1209 35.8899 19.2176C35.8811 19.3098 35.835 19.3449 35.7494 19.3713C34.5569 19.7446 33.3667 20.1223 32.1764 20.5C32.1237 20.5176 32.0732 20.5374 32.0161 20.5879C32.9912 20.9744 33.964 21.3631 34.9544 21.7562C34.9193 21.7847 34.8951 21.8067 34.8688 21.8242C34.2605 22.2173 33.65 22.6104 33.0417 23.0079C32.9692 23.0562 32.9121 23.0628 32.8287 23.0255C32.1018 22.6982 31.3705 22.3776 30.6414 22.0504C30.3142 21.9055 30.02 21.71 29.7916 21.4311C29.2733 20.7965 29.3765 20.0762 30.0661 19.637C30.2923 19.4921 30.5492 19.3845 30.8039 19.301C31.9722 18.9211 33.1427 18.5544 34.3132 18.1854C34.412 18.1547 34.4559 18.1108 34.4757 18.0054C34.6316 17.1028 34.7941 16.2002 34.9566 15.2977C35.0444 14.8146 35.0906 14.3205 35.3255 13.8791C35.4156 13.71 35.5232 13.5431 35.6527 13.4003C36.1183 12.8843 36.7661 12.8645 37.258 13.3564C37.4249 13.5233 37.5677 13.7187 37.6906 13.9186C38.2331 14.8014 38.7645 15.6908 39.2959 16.5802C39.3574 16.6856 39.4145 16.7075 39.5309 16.6746C40.8375 16.3254 42.1442 15.9806 43.4508 15.6337C43.7209 15.5634 43.9932 15.537 44.2699 15.5876C44.8716 15.6996 45.1351 16.1585 44.9331 16.7405C44.8409 17.0062 44.6805 17.2302 44.5005 17.441C43.5891 18.5148 42.6778 19.5887 41.762 20.6582C41.6874 20.746 41.6852 20.8097 41.7379 20.9063C42.2847 21.9362 42.8249 22.9662 43.3673 23.9983C43.4969 24.2442 43.5957 24.5012 43.6001 24.7845C43.6067 25.4279 43.1346 25.9549 42.4955 26.0494C42.1376 26.1021 41.8038 26.0252 41.4678 25.922C40.6487 25.6695 39.8296 25.4191 39.0082 25.1732C38.9314 25.1512 38.9028 25.1204 38.8897 25.0392C38.7952 24.4616 38.692 23.8863 38.5932 23.3087C38.591 23.2934 38.5954 23.2758 38.5976 23.2407C39.5309 23.4998 40.4576 23.7545 41.4217 24.0224Z" fill="#E25C26"/>
<path fill-rule="evenodd" clip-rule="evenodd" d="M39.8249 32.4332C39.0871 32.431 38.347 32.4288 37.6092 32.431C37.5125 32.431 37.4576 32.4024 37.4027 32.319C36.5287 30.9882 35.6503 29.6574 34.7719 28.3288C34.7434 28.2871 34.7148 28.2454 34.6643 28.1751C34.4755 29.6113 34.291 31.0145 34.1065 32.4222H32.1718C32.1938 32.2333 32.2136 32.0511 32.2377 31.871C32.4266 30.4282 32.6154 28.9876 32.8065 27.5448C32.9866 26.1679 33.1688 24.7888 33.3511 23.4119C33.3555 23.3702 33.384 23.3197 33.417 23.2977C34.0824 22.8629 34.75 22.4347 35.4175 22.0021C35.4263 21.9955 35.4417 21.9955 35.4746 21.9845C35.2726 23.5239 35.0728 25.0524 34.8707 26.5808C34.8795 26.5852 34.8861 26.5918 34.8949 26.5983C35.9424 25.4367 36.9899 24.275 38.0615 23.0891L38.145 23.5722C38.2197 24.0092 38.2921 24.4485 38.3734 24.8855C38.3888 24.9733 38.3668 25.0282 38.3075 25.0897C37.6311 25.799 36.9548 26.5105 36.2806 27.2198C36.252 27.2506 36.2235 27.2835 36.1883 27.3186C36.2103 27.3538 36.2279 27.3867 36.2498 27.4175L39.7459 32.3234C39.7678 32.3519 39.7964 32.3761 39.8227 32.4024C39.8249 32.4156 39.8249 32.4244 39.8249 32.4332ZM16.9008 28.1817C16.8722 28.0301 16.8503 27.8105 16.7844 27.6041C16.4594 26.6049 15.436 26.0559 14.3732 26.3041C13.2093 26.5742 12.377 27.4899 12.2562 28.678C12.1662 29.5564 12.6405 30.404 13.5211 30.7203C14.2304 30.9772 14.9112 30.8696 15.5458 30.4897C16.3847 29.9868 16.8415 29.238 16.9008 28.1817ZM11.7884 31.8973C11.7313 32.3277 11.6764 32.7318 11.6237 33.1381C11.5535 33.6761 11.4832 34.2163 11.4151 34.7543C11.4063 34.818 11.3888 34.8444 11.3207 34.8444C10.7893 34.8422 10.2578 34.8422 9.72639 34.8422C9.71541 34.8422 9.70223 34.8356 9.67368 34.8268C9.70662 34.5721 9.73737 34.3173 9.77031 34.0626C9.8867 33.1688 10.0053 32.275 10.1239 31.3813C10.26 30.3601 10.3676 29.3324 10.5411 28.3178C10.8486 26.5193 12.3748 24.9711 14.1645 24.5846C15.201 24.3606 16.1958 24.4638 17.1006 25.048C18.0032 25.6299 18.5214 26.4754 18.64 27.5382C18.8069 29.0403 18.2535 30.2877 17.1862 31.3198C16.4857 31.9983 15.6468 32.4288 14.6784 32.5737C13.6814 32.723 12.7437 32.5583 11.9048 31.9698C11.8741 31.9478 11.8411 31.9303 11.7884 31.8973ZM10.9232 23.3526C10.3281 23.7962 9.75274 24.2245 9.17738 24.6527C9.08515 24.5055 9.0017 24.3606 8.90288 24.2245C8.65254 23.8753 8.3407 23.614 7.89052 23.581C7.515 23.5547 7.19219 23.6777 6.93745 23.9565C6.70907 24.2047 6.67832 24.5561 6.89134 24.8371C7.12631 25.1446 7.38544 25.4367 7.64676 25.7221C8.08377 26.1943 8.53834 26.6489 8.97316 27.1254C9.36844 27.558 9.68247 28.0433 9.77909 28.6341C9.89548 29.3368 9.75494 30.0066 9.42114 30.6258C8.80626 31.77 7.83562 32.4332 6.55754 32.6396C5.99317 32.7318 5.42879 32.7121 4.87759 32.5517C4.14632 32.3365 3.63684 31.8556 3.30964 31.1792C3.19325 30.9399 3.10541 30.6873 3 30.4304C3.64124 30.0878 4.26271 29.754 4.89516 29.4158C4.91712 29.4685 4.93249 29.5125 4.95226 29.5542C5.05986 29.7694 5.1477 29.9978 5.28166 30.1976C5.67694 30.7861 6.31598 30.964 6.9638 30.6742C7.1307 30.5995 7.29101 30.4941 7.42716 30.3733C7.8444 30.0022 7.92346 29.4861 7.61382 29.0206C7.43595 28.7526 7.21415 28.5133 6.99674 28.2717C6.48068 27.6986 5.94266 27.143 5.43757 26.5588C5.0906 26.1548 4.85344 25.6848 4.77877 25.1446C4.69752 24.5561 4.81391 24.0005 5.12135 23.5042C5.88337 22.2722 6.99016 21.631 8.4549 21.6837C9.28938 21.7144 9.95477 22.1053 10.4708 22.7531C10.6246 22.9442 10.7673 23.144 10.9232 23.3526ZM25.0699 29.9692C24.9733 30.7115 24.8811 31.4164 24.7866 32.1213C24.7823 32.1565 24.7537 32.2048 24.723 32.2201C23.2824 32.8877 21.3828 32.7955 20.1992 31.4493C19.5623 30.7269 19.2966 29.8704 19.3361 28.9173C19.4284 26.7103 21.2577 24.7822 23.4471 24.5143C24.7252 24.3562 25.8473 24.7032 26.7147 25.6958C27.3055 26.3722 27.5778 27.1803 27.5382 28.0719C27.5119 28.6604 27.4197 29.2467 27.345 29.8331C27.2418 30.6632 27.1276 31.4933 27.0178 32.3234C27.0134 32.3519 27.009 32.3826 27.0002 32.42H25.2764C25.2983 32.2289 25.3203 32.0423 25.3444 31.8556C25.4696 30.8959 25.6058 29.9407 25.7156 28.9788C25.7836 28.3815 25.7419 27.7864 25.4674 27.233C25.1775 26.6445 24.6878 26.3326 24.0466 26.2646C22.718 26.124 21.4553 27.0463 21.172 28.353C20.9853 29.216 21.2796 30.0417 21.967 30.5007C22.6367 30.9465 23.3548 30.9465 24.0839 30.6588C24.455 30.5138 24.7691 30.2811 25.0699 29.9692ZM32.33 24.6812C32.2509 25.2785 32.174 25.8671 32.095 26.4688C31.7304 26.4688 31.3725 26.4666 31.0145 26.4688C30.7247 26.471 30.4611 26.6576 30.3733 26.9278C30.3382 27.0332 30.3272 27.1474 30.3118 27.2572C30.1295 28.6297 29.9495 30.0022 29.7694 31.3769C29.7233 31.7238 29.6794 32.0686 29.6332 32.42H27.8391C27.872 32.1565 27.905 31.8995 27.9379 31.6448C28.0543 30.7554 28.1707 29.866 28.2893 28.9766C28.3925 28.208 28.4825 27.435 28.6033 26.6686C28.7636 25.6409 29.787 24.7273 30.8257 24.6834C31.322 24.6637 31.8183 24.6812 32.33 24.6812Z" fill="#3D3B3E"/>
<path d="M41.9419 32.4216V31.664H41.9375L41.641 32.4216H41.5466L41.2501 31.664H41.2457V32.4216H41.0964V31.5146H41.327L41.5971 32.2042L41.8628 31.5146H42.0912V32.4216H41.9419ZM40.6243 31.6354V32.4216H40.4749V31.6354H40.1916V31.5146H40.9097V31.6354H40.6243ZM13.3278 22.0784H13.7736L13.6682 21.4042L13.3278 22.0784ZM13.8417 22.5132H13.1016L12.8666 22.9743H12.3418L13.4991 20.8135H14.0042L14.3973 22.9743H13.9119L13.8417 22.5132ZM16.4923 21.2483H16.2287L16.1409 21.7468H16.4044C16.5625 21.7468 16.6899 21.6414 16.6899 21.4459C16.6899 21.3141 16.6087 21.2483 16.4923 21.2483ZM15.8532 20.8135H16.545C16.9073 20.8135 17.162 21.0287 17.162 21.402C17.162 21.8697 16.8326 22.1838 16.3605 22.1838H16.0618L15.9213 22.9743H15.4711L15.8532 20.8135ZM18.6949 22.0784H19.1407L19.0352 21.4042L18.6949 22.0784ZM19.2109 22.5132H18.4709L18.2359 22.9743H17.711L18.8683 20.8135H19.3734L19.7665 22.9743H19.2812L19.2109 22.5132ZM22.136 22.8975C21.9845 22.9677 21.8154 23.0095 21.6463 23.0095C21.0753 23.0095 20.7152 22.5812 20.7152 22.0432C20.7152 21.3559 21.2927 20.7783 21.9801 20.7783C22.1514 20.7783 22.3073 20.82 22.4347 20.8903L22.371 21.4086C22.2766 21.3032 22.1228 21.2307 21.9318 21.2307C21.5387 21.2307 21.1873 21.5865 21.1873 21.9993C21.1873 22.3133 21.385 22.5593 21.6968 22.5593C21.8879 22.5593 22.0723 22.4868 22.1953 22.3836L22.136 22.8975ZM24.8942 22.1025H23.9543L23.8006 22.9721H23.3504L23.7325 20.8113H24.1827L24.0312 21.6655H24.9711L25.1226 20.8113H25.575L25.1929 22.9721H24.7427L24.8942 22.1025ZM26.55 22.9743L26.9299 20.8135H28.1289L28.0521 21.2483H27.3054L27.2286 21.6677H27.9137L27.8369 22.1025H27.1495L27.0727 22.5373H27.8193L27.7424 22.9721L26.55 22.9743Z" fill="#3D3B3E"/>
</svg>
