<svg width="48" height="48" viewBox="0 0 48 48" fill="none" xmlns="http://www.w3.org/2000/svg">
<path d="M24 35.1131L39.9601 38.9159V9L24 12.8028V35.1131Z" fill="#205B97"/>
<path d="M39.9597 9L42.9998 10.5211V37.3948L39.9597 38.9159V9ZM23.9996 35.1131L8.03955 38.9159V9L23.9996 12.8028V35.1131Z" fill="#5193CE"/>
<path d="M8.04002 9L5 10.5211V37.3948L8.04002 38.9159V9Z" fill="#205B97"/>
<path d="M28.0546 45L34.1347 41.9578V6.04222L28.0546 3L26.1958 22.9439L28.0546 45Z" fill="#5193CE"/>
<path d="M19.9458 45L13.8657 41.9578V6.04222L19.9458 3L21.8046 22.9439L19.9458 45Z" fill="#205B97"/>
<path d="M19.9463 3H28.1369V44.9152H19.9463V3Z" fill="#2E73B7"/>
</svg>
