<svg width="48" height="48" viewBox="0 0 48 48" fill="none" xmlns="http://www.w3.org/2000/svg">
<path fill-rule="evenodd" clip-rule="evenodd" d="M22.791 15.726C22.8103 15.5936 22.826 15.4756 22.8313 15.3976C22.8313 15.3794 22.8313 15.3613 22.833 15.3431C22.8418 15.2325 22.8453 15.1145 22.8453 14.9893C22.8453 13.0986 21.769 11.2277 20.1467 9.7778C18.4947 8.30074 16.2879 7.27372 14.069 7.09953H14.0585C13.8485 7.0832 13.6333 7.07594 13.411 7.07594C10.779 7.07594 8.39557 8.18281 6.66984 9.97017C4.94429 11.7593 3.87852 14.2289 3.87852 16.9599C3.87852 20.1099 5.65304 22.9244 7.37335 25.6535C7.66911 26.1234 7.96311 26.5898 8.29911 27.1414C8.45312 27.3954 8.54237 27.6676 8.56687 27.9453C8.58962 28.2247 8.54937 28.5078 8.44087 28.7836L7.58508 30.9647H17.8422L18.3462 29.5457C18.4757 29.1792 18.705 28.8798 18.999 28.6729C19.2895 28.466 19.6413 28.3554 20.0192 28.3626L21.7623 28.4007C21.806 28.4025 21.8428 28.3953 21.8743 28.3826C21.904 28.3699 21.9338 28.3481 21.9635 28.3172C21.995 28.2864 22.016 28.2537 22.0283 28.2211C22.0405 28.1884 22.0475 28.1503 22.0475 28.1049L22.0388 27.2031C22.0353 26.9618 22.0948 26.7368 22.2068 26.5444C22.2838 26.4101 22.3835 26.2922 22.5025 26.196L22.1193 25.6734C22.1105 25.6607 22.1018 25.648 22.093 25.6353C21.9163 25.3541 21.9933 24.9766 22.2663 24.7934L23.0416 24.2708C23.0451 24.269 23.0468 24.2672 23.0468 24.2653C23.0503 24.2599 23.0503 24.2472 23.0503 24.2327L22.9891 23.2964C22.9698 23.0024 23.0591 22.7248 23.2236 22.5089C23.3881 22.2929 23.6261 22.1369 23.9078 22.0861C24.0951 22.0516 24.2736 22.0099 24.4451 21.9591C24.5816 21.9191 24.7076 21.8756 24.8231 21.8266C22.3835 18.6312 22.644 16.7675 22.791 15.726ZM11.8798 26.1398H15.0473C14.9616 26.3775 14.8286 26.5916 14.6588 26.7676C14.3525 27.0852 13.9308 27.2811 13.4653 27.2811C12.998 27.2811 12.5762 27.0852 12.2717 26.7676C12.0985 26.5916 11.9638 26.3793 11.8798 26.1398ZM16.3038 25.9275C16.2181 26.5898 15.9223 27.1813 15.4901 27.6313C14.9703 28.1703 14.2546 28.5023 13.4636 28.5023C12.6725 28.5023 11.955 28.1703 11.437 27.6313C11.003 27.1813 10.7073 26.5898 10.6233 25.9275C10.499 25.8549 10.3853 25.7641 10.2838 25.6589C9.99851 25.3631 9.81998 24.9531 9.81998 24.503C9.81998 24.1383 9.93548 23.8026 10.1315 23.5286C10.0212 23.2401 9.87773 22.957 9.69573 22.6758C9.47522 22.3383 9.19696 22.0026 8.84698 21.6596C8.1837 21.0118 7.64645 20.2243 7.2772 19.3406C6.92194 18.4878 6.72418 17.5514 6.72418 16.5716C6.72418 14.6428 7.47844 12.8953 8.69819 11.6305C9.91794 10.3656 11.6033 9.58366 13.4637 9.58366C15.3241 9.58366 17.0092 10.3657 18.2291 11.6305C19.4489 12.8952 20.2031 14.6426 20.2031 16.5716C20.2031 17.5515 20.0054 18.4878 19.6501 19.3406C19.2809 20.2243 18.7436 21.0118 18.0803 21.6596C17.7303 22.0026 17.4521 22.3364 17.2316 22.6758C17.0478 22.957 16.9061 23.2401 16.7958 23.5286C16.9901 23.8008 17.1073 24.1383 17.1073 24.503C17.1073 24.953 16.9306 25.3631 16.6436 25.6589C16.5421 25.7641 16.4281 25.8549 16.3038 25.9275ZM11.2637 24.895C11.2077 24.8732 11.157 24.8405 11.115 24.797C11.0415 24.7208 10.9977 24.6173 10.9977 24.5048C10.9977 24.3905 11.0432 24.2871 11.115 24.2127C11.1885 24.1365 11.2882 24.0911 11.3985 24.0911H15.5286C15.6388 24.0911 15.7386 24.1383 15.8121 24.2127C15.8856 24.2889 15.9293 24.3923 15.9293 24.5048C15.9293 24.6191 15.8839 24.7226 15.8121 24.797C15.7701 24.8405 15.7193 24.875 15.6633 24.895H11.2637ZM11.3232 17.1829C11.1377 17.1829 10.968 17.1049 10.8455 16.9779C10.723 16.8508 10.6477 16.6766 10.6477 16.4825C10.6477 16.2901 10.723 16.1141 10.8455 15.9871C10.968 15.8601 11.136 15.7821 11.3232 15.7821C11.5087 15.7821 11.6785 15.8601 11.801 15.9871C11.9235 16.1141 11.9988 16.2883 11.9988 16.4825V17.1829L11.3232 17.1829ZM14.9266 16.4843C14.9266 16.292 15.0018 16.1159 15.1243 15.9889C15.2468 15.8619 15.4148 15.7839 15.6021 15.7839C15.7893 15.7839 15.9573 15.8619 16.0798 15.9889C16.2023 16.1159 16.2776 16.2901 16.2776 16.4843C16.2776 16.6766 16.2023 16.8527 16.0798 16.9797C15.9573 17.1067 15.7893 17.1847 15.6021 17.1847H14.9266L14.9266 16.4843ZM11.997 22.866H11.1342C11.0065 22.5702 10.8542 22.2817 10.667 21.995C10.4009 21.5867 10.0667 21.1839 9.64845 20.7738C9.09718 20.2367 8.65266 19.5852 8.34994 18.8594C8.05943 18.1626 7.89844 17.3896 7.89844 16.5731C7.89844 14.9799 8.52144 13.5392 9.52771 12.4958C10.534 11.4524 11.9253 10.8064 13.46 10.8064C14.9966 10.8064 16.3861 11.4524 17.3923 12.4958C18.3986 13.5392 19.0216 14.9817 19.0216 16.5731C19.0216 17.3896 18.8606 18.1626 18.5701 18.8594C18.2673 19.5852 17.8228 20.2366 17.2716 20.7738C16.8533 21.1821 16.5191 21.5867 16.2531 21.995C16.0676 22.2817 15.9136 22.5702 15.7858 22.866H14.9248V18.404H15.6003C16.1113 18.404 16.5751 18.1898 16.9111 17.8415C17.2471 17.4949 17.4536 17.014 17.4536 16.4823C17.4536 15.9525 17.2471 15.4716 16.9111 15.1232C16.5751 14.7748 16.1131 14.5607 15.6003 14.5607C15.0893 14.5607 14.6255 14.7749 14.2895 15.1232C13.9535 15.4716 13.747 15.9507 13.747 16.4823V17.1828H13.1765V16.4823C13.1765 15.9525 12.97 15.4716 12.634 15.1232C12.298 14.7767 11.836 14.5607 11.3232 14.5607C10.8122 14.5607 10.3485 14.7749 10.0125 15.1232C9.67645 15.4716 9.46996 15.9507 9.46996 16.4823C9.46996 17.0122 9.67647 17.4931 10.0125 17.8415C10.3484 18.1899 10.8105 18.404 11.3232 18.404H11.9987V22.866H11.997ZM13.7488 22.866H13.1766V18.404H13.7506L13.7488 22.866ZM18.2343 39.2224H21.8061V44.9983H18.2343V39.2224ZM25.6318 35.8092H29.2036V44.9998H25.6318V35.8092ZM40.4282 32.1311V44.998H44V32.1311H40.4282ZM36.6026 28.4657H33.0307V45H36.6026V28.4657ZM19.3211 32.3597C19.9826 32.0349 20.7474 32.2109 21.2181 32.7408C21.2409 32.7244 21.2654 32.7099 21.2916 32.699L25.714 30.6577C25.7402 30.645 25.7682 30.6359 25.7945 30.6286C25.7332 29.9427 26.0832 29.2605 26.7167 28.9465C27.1963 28.7106 27.7335 28.7379 28.171 28.9737C28.1885 28.9502 28.206 28.9284 28.227 28.9084L33.2725 23.9004C33.2935 23.8786 33.3163 23.8605 33.3408 23.8441C32.961 23.004 33.3075 22.0024 34.116 21.6032C34.928 21.2021 35.8993 21.5614 36.2861 22.4034C36.4243 22.7028 36.4681 23.024 36.4313 23.3306C36.4576 23.3397 36.4856 23.3488 36.5118 23.3633L40.9727 25.5734C40.9989 25.5861 41.0234 25.6006 41.0462 25.6188C41.1774 25.4791 41.3349 25.3593 41.5152 25.2704C42.3272 24.8694 43.2985 25.2287 43.6853 26.0706C44.072 26.9126 43.7255 27.9197 42.9135 28.3207C42.1014 28.7217 41.1302 28.3624 40.7434 27.5205C40.6052 27.2211 40.5614 26.8999 40.5982 26.5932C40.5719 26.5841 40.5439 26.5751 40.5177 26.5606L36.0568 24.3504C36.0306 24.3377 36.0061 24.3232 35.9833 24.3051C35.8521 24.4448 35.6946 24.5646 35.5143 24.6535C35.0348 24.8894 34.4976 24.8621 34.06 24.6263C34.0425 24.6498 34.025 24.6716 34.004 24.6916L28.9586 29.6996C28.9376 29.7214 28.9148 29.7395 28.8903 29.7559C29.2701 30.596 28.9236 31.5976 28.115 31.9968C27.4535 32.3216 26.6887 32.1456 26.218 31.6158C26.1952 31.6321 26.1707 31.6466 26.1427 31.6575L21.7204 33.6989C21.6941 33.7116 21.6661 33.7207 21.6399 33.7279C21.7011 34.4138 21.3511 35.0961 20.7176 35.41C19.9056 35.811 18.9343 35.4517 18.5476 34.6098C18.1625 33.7678 18.5073 32.7607 19.3211 32.3597ZM13.1923 3.54981C13.1923 3.24678 13.4286 3 13.7226 3C14.0148 3 14.2511 3.24496 14.2511 3.54981V5.17022C14.2511 5.47325 14.0149 5.71822 13.7226 5.71822C13.4303 5.71822 13.1923 5.47326 13.1923 5.17022V3.54981ZM24.4817 9.87897C24.7337 9.72837 25.0575 9.81728 25.2045 10.0786C25.3497 10.3399 25.264 10.6756 25.012 10.828L23.6592 11.6373C23.4072 11.7879 23.0834 11.699 22.9364 11.4377C22.7912 11.1764 22.8769 10.8407 23.1289 10.6883L24.4817 9.87897ZM19.6566 5.14639C19.8019 4.88509 20.1257 4.79618 20.3794 4.94679C20.6314 5.09739 20.7172 5.4331 20.5719 5.6962L19.7914 7.09884C19.6462 7.36014 19.3224 7.44905 19.0686 7.29844C18.8166 7.14783 18.7309 6.81213 18.8761 6.54902L19.6566 5.14639ZM2.26316 10.5228C2.01116 10.3722 1.9254 10.0365 2.07066 9.77339C2.21591 9.51209 2.53968 9.42318 2.79343 9.57379L4.14619 10.3831C4.3982 10.5337 4.48395 10.8694 4.3387 11.1325C4.19344 11.3938 3.86968 11.4827 3.61592 11.3321L2.26316 10.5228ZM6.82747 5.51661C6.68222 5.25532 6.76972 4.92146 7.02173 4.77082C7.27373 4.62017 7.59572 4.71094 7.741 4.97223L8.52152 6.37487C8.66678 6.63616 8.57928 6.97002 8.32727 7.12066C8.07527 7.27127 7.75328 7.18055 7.60799 6.91925L6.82747 5.51661Z" fill="#44ADC1"/>
</svg>
