<svg width="48" height="48" viewBox="0 0 48 48" fill="none" xmlns="http://www.w3.org/2000/svg">
<path d="M11.3006 16.2309L13.8146 18.8117C13.2362 19.2183 12.5336 19.4565 11.7796 19.4565C10.7803 19.4565 9.87542 19.038 9.21916 18.3677C8.5629 17.694 8.15855 16.7651 8.15855 15.7392C8.15855 14.7133 8.56291 13.7844 9.21916 13.1107C9.7213 12.5952 10.3726 12.2294 11.1001 12.0865V15.7391H11.1017C11.1034 15.9144 11.1681 16.0931 11.3006 16.2309ZM45 8.97319V40.0252C45 40.5628 44.5741 40.9983 44.0521 40.9983L3.94959 41C3.42921 41 3.00166 40.5628 3.00166 40.0269L3 8.97315C3 8.43553 3.42755 8 3.94793 8H44.0504C44.5741 7.9983 45 8.43558 45 8.97319ZM11.0804 32.0205C11.0804 31.8776 10.9661 31.7603 10.8269 31.7603H7.73619C7.59699 31.7603 7.48264 31.8776 7.48264 32.0205V37.4102C7.48264 37.5531 7.59698 37.6705 7.73619 37.6705H10.8269C10.9661 37.6705 11.0804 37.5531 11.0804 37.4102V32.0205ZM11.0804 23.4802C11.0804 23.3373 10.9661 23.22 10.8269 23.22H7.73619C7.59699 23.22 7.48264 23.3373 7.48264 23.4802V28.8699C7.48264 29.0128 7.59698 29.1302 7.73619 29.1302H10.8269C10.9661 29.1302 11.0804 29.0128 11.0804 28.8699V23.4802ZM11.7798 20.8449C13.1536 20.8449 14.3948 20.275 15.298 19.3512C16.1979 18.4274 16.753 17.1497 16.753 15.7394C16.753 14.329 16.1979 13.0513 15.298 12.1275C14.3948 11.2037 13.1536 10.6304 11.7798 10.6304C10.4059 10.6304 9.16138 11.2037 8.26152 12.1275C7.36165 13.0513 6.80318 14.329 6.80318 15.7394C6.80318 17.1497 7.36165 18.4274 8.26152 19.3512C9.16138 20.275 10.4059 20.8449 11.7798 20.8449ZM21.5077 36.6072C21.5077 36.2227 21.2044 35.9131 20.8315 35.9131L13.9706 35.9114C13.5961 35.9114 13.2945 36.2227 13.2945 36.6055C13.2945 36.99 13.5978 37.2996 13.9706 37.2996H20.8298C21.2043 37.3013 21.5077 36.9917 21.5077 36.6072ZM21.5077 32.8252C21.5077 32.4407 21.2044 32.1311 20.8315 32.1311H13.9706C13.5961 32.1311 13.2945 32.4424 13.2945 32.8252C13.2945 33.2097 13.5978 33.5194 13.9706 33.5194H20.8298C21.2043 33.5211 21.5077 33.2097 21.5077 32.8252ZM21.5077 28.0649C21.5077 27.6804 21.2044 27.3707 20.8315 27.3707H13.9706C13.5961 27.3707 13.2945 27.6821 13.2945 28.0649C13.2945 28.4494 13.5978 28.7624 13.9706 28.7624H20.8298C21.2043 28.7624 21.5077 28.4494 21.5077 28.0649ZM21.5077 24.2846C21.5077 23.9001 21.2044 23.5905 20.8315 23.5905L13.9706 23.5888C13.5961 23.5888 13.2945 23.9001 13.2945 24.2829C13.2945 24.6674 13.5978 24.9805 13.9706 24.9805H20.8298C21.2043 24.9805 21.5077 24.6691 21.5077 24.2846ZM28.9154 28.7558C28.9154 28.6095 28.801 28.4938 28.6618 28.4938H26.4594C26.3202 28.4938 26.2059 28.6112 26.2059 28.7558V36.3471C26.2059 36.49 26.3202 36.6074 26.4594 36.6074H28.6618C28.801 36.6074 28.9154 36.49 28.9154 36.3471V28.7558ZM34.7174 23.4802C34.7174 23.3373 34.603 23.2199 34.4638 23.2199H32.2614C32.1222 23.2199 32.0078 23.3373 32.0078 23.4802V36.3471C32.0078 36.49 32.1222 36.6074 32.2614 36.6074H34.4638C34.603 36.6074 34.7174 36.49 34.7174 36.3471V23.4802ZM40.5176 26.9287C40.5176 26.7858 40.4033 26.6684 40.2641 26.6684H38.0616C37.9224 26.6684 37.8081 26.7858 37.8081 26.9287V36.3453C37.8081 36.4882 37.9224 36.6056 38.0616 36.6056H40.2641C40.4033 36.6056 40.5176 36.4882 40.5176 36.3453V26.9287ZM41.1954 17.6293C41.1954 17.2448 40.8905 16.9352 40.516 16.9352L26.2075 16.9335C25.833 16.9335 25.5313 17.2448 25.5313 17.6276C25.5313 18.0121 25.8346 18.3217 26.2075 18.3217H40.5172C40.8918 18.3234 41.1954 18.0138 41.1954 17.6293ZM41.1954 13.8473C41.1954 13.4628 40.8905 13.1532 40.516 13.1532H26.2075C25.833 13.1532 25.5313 13.4645 25.5313 13.8473C25.5313 14.2318 25.8346 14.5415 26.2075 14.5415H40.5172C40.8918 14.5415 41.1954 14.2318 41.1954 13.8473ZM14.3404 13.1107C13.8366 12.5952 13.1853 12.2294 12.4561 12.0865V15.45L14.7729 17.8283C15.169 17.2346 15.401 16.515 15.401 15.7391C15.401 14.7116 14.995 13.7827 14.3404 13.1107Z" fill="#44ADC1"/>
</svg>
