<svg width="48" height="48" viewBox="0 0 48 48" fill="none" xmlns="http://www.w3.org/2000/svg">
<path fill-rule="evenodd" clip-rule="evenodd" d="M24.5226 32.8693V37.3911H28.1746C29.2302 37.3911 30.0876 38.2468 30.0876 39.3042V40.1738H43.4783C43.7652 40.1738 44 40.4086 44 40.6955C44 40.9842 43.767 41.2173 43.4783 41.2173H30.0876V42.0869C30.0876 43.1443 29.2302 44 28.1746 44H19.8271C18.7698 44 17.9141 43.1443 17.9124 42.0869V41.2173H4.52347C4.23652 41.2173 4 40.9843 4 40.6955C4 40.4086 4.23651 40.1738 4.52347 40.1738H17.9124V39.3042C17.9141 38.2468 18.7698 37.3911 19.8271 37.3911H23.4774V32.8693H14.9558C14.2654 32.8693 13.6028 32.5945 13.1124 32.1058C12.622 31.6154 12.3472 30.9528 12.3472 30.2606V18.73L24.0008 10.3L35.6525 18.73V30.2606C35.6525 30.9528 35.3795 31.6154 34.8891 32.1058C34.3987 32.5946 33.7361 32.8693 33.044 32.8693H24.5226ZM18.6099 19.4777V25.7385C18.6099 26.4272 19.0203 27.0899 19.7785 27.6064C20.7315 28.2568 22.2671 28.6951 24.001 28.6951C25.7349 28.6951 27.2704 28.2568 28.2234 27.6064C28.9816 27.0898 29.3921 26.4272 29.3921 25.7385V19.4777C29.3921 18.7889 28.9817 18.1263 28.2234 17.6098C27.2704 16.9593 25.7349 16.5211 24.001 16.5211C22.2671 16.5211 20.7315 16.9593 19.7785 17.6098C19.0203 18.1263 18.6099 18.7889 18.6099 19.4777ZM28.3486 22.6082C28.3486 22.9943 28.0617 23.3247 27.6356 23.6151C26.8165 24.1734 25.4896 24.5213 24.0009 24.5213C22.5088 24.5213 21.1854 24.1734 20.3663 23.6151C19.942 23.3264 19.6533 22.9943 19.6533 22.6082V21.2586C19.6933 21.2881 19.735 21.3177 19.7785 21.3473C20.7315 21.9977 22.267 22.436 24.0009 22.436C25.7348 22.436 27.2704 21.9977 28.2234 21.3473C28.2651 21.3177 28.3086 21.2881 28.3486 21.2586L28.3486 22.6082ZM19.6534 24.3891C19.6934 24.4187 19.7352 24.4482 19.7786 24.4778C20.7316 25.1282 22.2672 25.5665 24.0011 25.5665C25.735 25.5665 27.2705 25.1282 28.2235 24.4778C28.2653 24.4482 28.3088 24.4187 28.3488 24.3891V25.7387C28.3488 26.1248 28.0618 26.4552 27.6357 26.7456C26.8166 27.3039 25.4897 27.6518 24.0011 27.6518C22.5089 27.6518 21.1855 27.3039 20.3664 26.7456C19.9421 26.4569 19.6534 26.1248 19.6534 25.7387L19.6534 24.3891ZM28.3486 19.4777C28.3486 19.8638 28.0617 20.1943 27.6356 20.4847C26.8165 21.043 25.4896 21.3909 24.0009 21.3909C22.5088 21.3909 21.1854 21.043 20.3663 20.4847C19.942 20.196 19.6533 19.8638 19.6533 19.4777C19.6533 19.0916 19.9402 18.7612 20.3663 18.4708C21.1854 17.9125 22.5105 17.5646 24.0009 17.5646C25.4896 17.5646 26.8165 17.9125 27.6356 18.4708C28.0599 18.7595 28.3486 19.0916 28.3486 19.4777ZM37.6092 18.8569L24.5106 9.38191C24.2062 9.16277 23.7958 9.16277 23.4914 9.38191L10.3928 18.8569C10.2345 18.9717 10.0259 18.989 9.85019 18.8986C9.67628 18.8082 9.56498 18.6308 9.56498 18.4342V14.2602C9.56498 14.0932 9.64672 13.9367 9.78236 13.8376L22.8792 4.36261C23.5488 3.87913 24.4531 3.87913 25.1226 4.36261L38.2177 13.8376C38.3534 13.9367 38.4334 14.0932 38.4334 14.2602V18.4342C38.4334 18.6308 38.3238 18.8099 38.1482 18.8986C37.9743 18.9873 37.7656 18.9717 37.6073 18.8569H37.6092Z" fill="#44ADC1"/>
</svg>
