<svg width="48" height="48" viewBox="0 0 48 48" fill="none" xmlns="http://www.w3.org/2000/svg">
<path fill-rule="evenodd" clip-rule="evenodd" d="M38.9805 10.0018C38.4136 9.45072 37.6327 9.11114 36.7695 9.11114C35.9062 9.11114 35.1235 9.45071 34.5584 10.0018C33.9915 10.553 33.6422 11.3121 33.6422 12.1513C33.6422 12.9905 33.9915 13.7514 34.5584 14.3008C35.1253 14.8519 35.9062 15.1914 36.7695 15.1914C37.6327 15.1914 38.4154 14.8519 38.9805 14.3008C39.5474 13.7496 39.8967 12.9905 39.8967 12.1513C39.8967 11.3121 39.5474 10.5512 38.9805 10.0018ZM36.7695 8.15108C37.9052 8.15108 38.9348 8.59911 39.6791 9.32269C40.4234 10.0463 40.8843 11.0472 40.8843 12.1512C40.8843 13.2571 40.4234 14.2562 39.6791 14.9798C38.9348 15.7034 37.9051 16.1514 36.7695 16.1514C35.6319 16.1514 34.6042 15.7034 33.8599 14.9798C33.1155 14.2562 32.6547 13.2553 32.6547 12.1512C32.6547 11.0454 33.1155 10.0463 33.8599 9.32269C34.6042 8.59912 35.6338 8.15108 36.7695 8.15108ZM34.9589 12.4677C34.7596 12.2882 34.7486 11.9842 34.9333 11.7904C35.118 11.5966 35.4308 11.5859 35.6301 11.7655L36.3507 12.418L37.8887 10.8819C38.0789 10.6934 38.3898 10.6881 38.5855 10.873C38.7794 11.0579 38.7849 11.3601 38.5947 11.5504L36.7274 13.4154C36.5427 13.6092 36.23 13.6198 36.0307 13.4403L34.9589 12.4677ZM22.6272 37.5961V41.111C22.6272 41.8203 23.5453 42.5083 25.0284 43.0453C26.6561 43.6355 28.9201 44 31.4312 44C33.9422 44 36.2061 43.6355 37.834 43.0453C39.3171 42.5083 40.2352 41.8203 40.2352 41.111V37.5961C39.7194 38.0139 39.0208 38.3837 38.1778 38.6895C36.4404 39.3188 34.0556 39.7082 31.4314 39.7082C28.807 39.7082 26.4224 39.3188 24.685 38.6895C23.8419 38.3837 23.1411 38.0139 22.6272 37.5961ZM22.6272 30.6075C22.6272 31.3169 23.5453 32.0049 25.0284 32.5418C26.6561 33.1321 28.9201 33.4966 31.4312 33.4966C33.9422 33.4966 36.2061 33.1321 37.834 32.5418C39.3171 32.0049 40.2352 31.3169 40.2352 30.6075V27.0927C39.7194 27.5105 39.0208 27.8803 38.1778 28.186C36.4404 28.8154 34.0556 29.2048 31.4314 29.2048C28.807 29.2048 26.4224 28.8154 24.685 28.186C23.8419 27.8803 23.1415 27.5104 22.6276 27.0927L22.6272 30.6075ZM40.2367 32.3445V35.8594C40.2367 36.5687 39.3186 37.2568 37.8354 37.7937C36.2078 38.3839 33.9437 38.7484 31.4327 38.7484C28.9216 38.7484 26.6578 38.3839 25.0299 37.7937C23.5468 37.2568 22.6287 36.5687 22.6287 35.8594V32.3445C23.1445 32.7623 23.8431 33.1321 24.6861 33.4379C26.4235 34.0672 28.8082 34.4566 31.4325 34.4566C34.0568 34.4566 36.4415 34.0672 38.1789 33.4379C39.022 33.1321 39.7228 32.7623 40.2367 32.3445ZM24.3515 30.6271C24.101 30.524 23.9839 30.2431 24.0918 29.9995C24.1979 29.7559 24.4868 29.6422 24.7374 29.7471L25.0757 29.8875C25.3263 29.9906 25.4433 30.2715 25.3354 30.5151C25.2293 30.7587 24.9404 30.8724 24.6898 30.7676L24.3515 30.6271ZM24.3515 35.9235L24.6898 36.0639C24.9404 36.167 25.2293 36.0533 25.3354 35.8115C25.4415 35.5679 25.3244 35.287 25.0757 35.1839L24.7374 35.0434C24.4868 34.9403 24.1979 35.0541 24.0918 35.2959C23.9857 35.5395 24.1028 35.8204 24.3515 35.9235ZM24.3515 41.2199C24.101 41.1168 23.9839 40.8358 24.0918 40.5923C24.1979 40.3487 24.4868 40.2349 24.7374 40.3398L25.0757 40.4803C25.3263 40.5834 25.4433 40.8643 25.3354 41.1079C25.2293 41.3514 24.9404 41.4652 24.6898 41.3603L24.3515 41.2199ZM31.6265 6.00577L36.7689 4.32747L40.4759 5.53821L44 6.68847C43.9817 9.39615 43.7312 12.1947 42.7235 14.5677C41.7085 16.9554 39.9108 18.9324 36.7688 19.9797C34.4955 19.2241 32.9265 17.9779 31.8473 16.4436C31.8418 16.4365 31.8382 16.4293 31.8327 16.4222C31.4267 15.8427 31.092 15.2204 30.814 14.5697C29.8064 12.1963 29.5558 9.39802 29.5375 6.69044L31.5492 6.03263C31.5766 6.02552 31.6022 6.01841 31.626 6.00774L31.6265 6.00577ZM4.69707 8.3259H8.44977V4.67774L4.69707 8.3259ZM27.2607 12.1501C27.5332 12.1501 27.7545 12.3652 27.7545 12.6301C27.7545 12.895 27.5332 13.1101 27.2607 13.1101H7.67606C7.40357 13.1101 7.18228 12.895 7.18228 12.6301C7.18228 12.3652 7.40356 12.1501 7.67606 12.1501H27.2607ZM27.2607 16.1343C27.5332 16.1343 27.7545 16.3494 27.7545 16.6143C27.7545 16.8792 27.5332 17.0943 27.2607 17.0943H7.67606C7.40357 17.0943 7.18228 16.8792 7.18228 16.6143C7.18228 16.3494 7.40356 16.1343 7.67606 16.1343H27.2607ZM27.2607 20.1184C27.5332 20.1184 27.7545 20.3336 27.7545 20.5985C27.7545 20.8634 27.5332 21.0785 27.2607 21.0785H7.67606C7.40357 21.0785 7.18228 20.8634 7.18228 20.5985C7.18228 20.3336 7.40356 20.1184 7.67606 20.1184H27.2607ZM22.835 24.7676C23.1843 24.2716 23.9597 23.8076 25.0296 23.42C26.6573 22.8298 28.9213 22.4653 31.4324 22.4653C33.9434 22.4653 36.2073 22.8298 37.8351 23.42C39.3183 23.9569 40.2363 24.645 40.2363 25.3543C40.2363 26.0637 39.3183 26.7517 37.8351 27.2887C36.2075 27.8789 33.9434 28.2434 31.4324 28.2434C28.9213 28.2434 26.6574 27.8789 25.0296 27.2887C23.5464 26.7517 22.6284 26.0637 22.6284 25.3543C22.6284 25.1979 22.6723 25.0432 22.7582 24.8921C22.7893 24.8548 22.8168 24.8139 22.835 24.7694V24.7676ZM21.6408 33.0292V38.2027H4V9.28218H8.89945C8.91408 9.28396 8.92871 9.28396 8.94334 9.28396C9.21583 9.28396 9.43712 9.06884 9.43712 8.80393L9.43529 4H30.9367V5.2214L28.9232 5.8792C28.7074 5.93076 28.5483 6.11921 28.5483 6.34498C28.5483 9.25711 28.7896 12.3095 29.9034 14.932C30.1887 15.6023 30.5288 16.244 30.9366 16.8467V21.51C28.508 21.5562 26.3116 21.9349 24.6842 22.5234C23.5265 22.943 22.6414 23.4817 22.1312 24.1022H7.67628C7.40379 24.1022 7.18249 24.3173 7.18249 24.5822C7.18249 24.8471 7.40378 25.0622 7.67628 25.0622H21.6649C21.6484 25.1547 21.6393 25.2471 21.6393 25.3414V25.3556V28.0882L7.67642 28.0864C7.40393 28.0864 7.18264 28.3015 7.18264 28.5664C7.18264 28.8313 7.40393 29.0464 7.67642 29.0464H21.6393V32.0706H7.67642C7.40393 32.0706 7.18264 32.2857 7.18264 32.5506C7.18264 32.8155 7.40393 33.0306 7.67642 33.0306H21.6393L21.6408 33.0292Z" fill="#44ADC1"/>
</svg>
