<svg width="48" height="48" viewBox="0 0 48 48" fill="none" xmlns="http://www.w3.org/2000/svg">
<path d="M36.9756 28.6348C41.4874 28.6349 45.1582 32.306 45.1582 36.8174C45.1581 41.3292 41.4874 44.9999 36.9756 45C33.607 45 30.537 42.8885 29.3359 39.7441C28.976 38.8158 28.793 37.8309 28.793 36.8174C28.793 35.1495 29.2924 33.5468 30.2363 32.1816C31.0978 30.9309 32.284 29.9466 33.668 29.335C34.7081 28.8702 35.8206 28.6348 36.9756 28.6348ZM12.2256 30.8242C14.0487 32.4657 18.4439 33.3369 22.6396 33.3369C24.905 33.3369 27.0975 33.0895 28.9453 32.6396C28.2736 33.9226 27.917 35.3467 27.917 36.8184C27.917 37.7705 28.072 38.6973 28.3594 39.584C26.6561 39.9627 24.6924 40.1641 22.6396 40.1641C16.5029 40.164 12.2264 38.401 12.2256 36.8184V30.8242ZM35.0645 34.1006C34.8932 33.9302 34.6171 33.9317 34.4463 34.1025L32.0527 36.5088C32.031 36.531 32.019 36.5587 32.0029 36.584C31.9876 36.6071 31.9666 36.628 31.957 36.6533C31.9459 36.6807 31.9456 36.7106 31.9404 36.7393C31.9352 36.7658 31.9258 36.7908 31.9258 36.8174C31.9258 36.844 31.9352 36.8689 31.9404 36.8955C31.9456 36.9242 31.9458 36.954 31.957 36.9814C31.9671 37.0063 31.9881 37.0267 32.0029 37.0498C32.0191 37.0751 32.0305 37.1027 32.0527 37.125L34.4463 39.5322C34.5314 39.6178 34.6436 39.6611 34.7559 39.6611C34.8673 39.6611 34.9793 39.6189 35.0645 39.5342C35.2355 39.3638 35.2358 39.0872 35.0654 38.916L32.9775 36.8174L35.0654 34.7178C35.2357 34.5466 35.2354 34.271 35.0645 34.1006ZM36.9756 33.9736C36.734 33.9736 36.5381 34.1686 36.5381 34.4102V39.2246C36.5382 39.4661 36.7341 39.6611 36.9756 39.6611C37.217 39.661 37.412 39.466 37.4121 39.2246V34.4102C37.4121 34.1687 37.217 33.9738 36.9756 33.9736ZM39.5088 34.1025C39.3384 33.9313 39.0629 33.9298 38.8916 34.1006C38.7204 34.2709 38.7194 34.5465 38.8896 34.7178L40.9766 36.8174L38.8896 38.916C38.7193 39.0873 38.7204 39.3638 38.8916 39.5342C38.9767 39.6188 39.0879 39.6611 39.1992 39.6611C39.3114 39.6611 39.4236 39.6178 39.5088 39.5322L41.9023 37.125C41.9242 37.1027 41.936 37.0751 41.9521 37.0498C41.9674 37.0268 41.9875 37.0067 41.9971 36.9814C42.0084 36.9539 42.0094 36.9238 42.0146 36.8945C42.0195 36.8685 42.0302 36.8438 42.0303 36.8174C42.0303 36.7907 42.0199 36.7655 42.0146 36.7393C42.0094 36.7101 42.0084 36.6807 41.9971 36.6533C41.987 36.6284 41.967 36.6071 41.9521 36.584C41.9361 36.5587 41.9245 36.531 41.9023 36.5088L39.5088 34.1025ZM33.0508 28.6621C31.6822 29.3204 30.5 30.3127 29.6123 31.5537C27.677 32.1382 25.2102 32.4619 22.6396 32.4619C16.5023 32.4618 12.2256 30.698 12.2256 29.1152V26.5439C12.2257 26.5401 12.2275 26.5366 12.2275 26.5332C12.2274 26.53 12.2257 26.5271 12.2256 26.5234V23.2568C14.0487 24.8984 18.4439 25.7695 22.6396 25.7695C26.834 25.7695 31.2282 24.8981 33.0508 23.2568V28.6621ZM15.9746 26.4727C15.0224 26.4728 14.2482 27.247 14.248 28.1992C14.248 29.1515 15.0223 29.9267 15.9746 29.9268C16.9265 29.9268 17.7021 29.1516 17.7021 28.1992C17.702 27.2469 16.9269 26.4727 15.9746 26.4727ZM15.9766 27.3467C16.4476 27.3469 16.8291 27.7291 16.8291 28.2002C16.8289 28.6711 16.4474 29.0525 15.9766 29.0527C15.5055 29.0527 15.1232 28.6712 15.123 28.2002C15.123 27.729 15.5054 27.3467 15.9766 27.3467ZM19.2207 3C19.9721 3 20.584 3.61144 20.584 4.36328V17.4004C16.4982 17.6677 13.26 18.6917 11.9785 20.1162H5.41602C5.17503 20.1162 4.97975 20.3118 4.97949 20.5527C4.97949 20.7943 5.17487 20.9902 5.41602 20.9902H11.4473C11.3888 21.1727 11.3526 21.3586 11.3525 21.5488V26.0967H4.36328C3.612 26.0967 3.0002 25.4861 3 24.7344V4.36328C3 3.61144 3.61187 3 4.36328 3H19.2207ZM22.6396 18.2021C28.774 18.2021 33.0501 19.9662 33.0508 21.5488C33.0508 23.1316 28.7745 24.8955 22.6396 24.8955C16.5023 24.8954 12.2256 23.1316 12.2256 21.5488C12.2257 21.3069 12.3224 21.0636 12.5176 20.8213C13.5509 19.4924 16.9765 18.458 21.0449 18.2461C21.5427 18.2168 22.0641 18.2022 22.6396 18.2021ZM5.41602 23.1172C5.17498 23.1172 4.97967 23.3131 4.97949 23.5537C4.97949 23.7953 5.17487 23.9912 5.41602 23.9912H9.61816C9.85931 23.9912 10.0557 23.7953 10.0557 23.5537C10.0555 23.3127 9.8592 23.1172 9.61816 23.1172H5.41602ZM5.41602 17.1104C5.17496 17.1104 4.97964 17.3063 4.97949 17.5469C4.97949 17.7885 5.17487 17.9844 5.41602 17.9844H8.8457C9.0867 17.9842 9.28223 17.7884 9.28223 17.5469C9.28208 17.306 9.08661 17.1105 8.8457 17.1104H5.41602ZM5.41602 14.1143C5.17487 14.1143 4.97949 14.3092 4.97949 14.5508C4.97954 14.7919 5.17489 14.9873 5.41602 14.9873H13.8691C14.1103 14.9873 14.3066 14.7919 14.3066 14.5508C14.3066 14.3092 14.1103 14.1143 13.8691 14.1143H5.41602ZM5.41602 11.1084C5.17492 11.1084 4.97957 11.3038 4.97949 11.5449C4.97949 11.7861 5.17487 11.9824 5.41602 11.9824H10.3525C10.5937 11.9824 10.7891 11.7861 10.7891 11.5449C10.789 11.3034 10.5936 11.1084 10.3525 11.1084H5.41602ZM5.41602 8.10742C5.17487 8.10742 4.97949 8.30236 4.97949 8.54395C4.97957 8.78503 5.17491 8.98047 5.41602 8.98047H16.9707C17.2118 8.98047 17.4081 8.78503 17.4082 8.54395C17.4082 8.30236 17.2119 8.10742 16.9707 8.10742H5.41602ZM5.41602 5.11035C5.17488 5.11035 4.97952 5.30531 4.97949 5.54688C4.97949 5.78802 5.17487 5.9834 5.41602 5.9834H12.2793C12.5204 5.98331 12.7158 5.78797 12.7158 5.54688C12.7158 5.30536 12.5204 5.11044 12.2793 5.11035H5.41602Z" fill="#44ADC1"/>
</svg>
