<svg width="48" height="48" viewBox="0 0 48 48" fill="none" xmlns="http://www.w3.org/2000/svg">
<path d="M12.1188 40.8616L3.5055 25.7895C3.17434 25.2101 3 24.5528 3 23.8836C3 23.2145 3.17434 22.5572 3.5055 21.9778L12.1188 6.90605C12.45 6.3265 12.9263 5.84525 13.5 5.51067C14.0737 5.17608 14.7245 4.99996 15.3869 5H32.6134C33.2757 5.00002 33.9264 5.17617 34.5 5.51075C35.0736 5.84533 35.55 6.32655 35.8812 6.90605L44.4944 21.9778C44.8256 22.5573 45 23.2146 45 23.8838C45 24.553 44.8256 25.2104 44.4944 25.7899L35.8812 40.8616C35.5499 41.441 35.0736 41.9222 34.5 42.2567C33.9264 42.5912 33.2757 42.7673 32.6134 42.7673H15.3869C14.7244 42.7674 14.0737 42.5913 13.5 42.2567C12.9263 41.9221 12.4499 41.4412 12.1188 40.8616Z" fill="url(#paint0_linear_608_20643)"/>
<path opacity="0.07" d="M42.1221 31.3356L29.4552 18.5383L24.0002 17.0635L19.1003 18.9032L17.208 23.8838L18.7295 29.4293L32.1623 42.9997L35.0127 42.8717L42.1221 31.3356Z" fill="black"/>
<path d="M24.0015 16.1953C19.7982 16.1953 16.3906 19.6378 16.3906 23.8845C16.3906 28.1308 19.7982 31.5733 24.0015 31.5733C28.2047 31.5733 31.612 28.1308 31.612 23.8845C31.612 19.6378 28.2044 16.1953 24.0015 16.1953ZM24.0015 29.7183C20.8121 29.7183 18.2265 27.1062 18.2265 23.8842C18.2265 20.6621 20.8121 18.0503 24.0015 18.0503C27.1908 18.0503 29.7764 20.6624 29.7764 23.8845C29.7764 27.1065 27.1908 29.7183 24.0015 29.7183Z" fill="white"/>
<path d="M20.3887 23.588V25.978C20.7387 26.5851 21.2326 27.0949 21.8259 27.4614V23.588H20.3887ZM23.2384 21.5732V28.0077C23.4829 28.0531 23.7329 28.0807 23.9898 28.0807C24.2241 28.0807 24.4525 28.0558 24.6766 28.018V21.5732H23.2384ZM26.2214 24.5812V27.4193C26.8241 27.0321 27.3191 26.4959 27.6592 25.8614V24.5815L26.2214 24.5812ZM29.478 28.621L28.6895 29.4182C28.6228 29.4858 28.5853 29.5774 28.5853 29.673C28.5853 29.7685 28.6228 29.8601 28.6895 29.9277L31.6804 32.9482C31.7473 33.0157 31.838 33.0536 31.9326 33.0536C32.0271 33.0536 32.1178 33.0157 32.1847 32.9482L32.9732 32.152C33.0396 32.0842 33.0768 31.9927 33.0768 31.8974C33.0768 31.8021 33.0396 31.7106 32.9732 31.6428L29.982 28.621C29.915 28.5538 29.8244 28.5161 29.73 28.5161C29.6356 28.5161 29.545 28.5538 29.478 28.621Z" fill="white"/>
<defs>
<linearGradient id="paint0_linear_608_20643" x1="24.0001" y1="5.00033" x2="24.0001" y2="42.7086" gradientUnits="userSpaceOnUse">
<stop stop-color="#4387FD"/>
<stop offset="1" stop-color="#4683EA"/>
</linearGradient>
</defs>
</svg>
