<svg width="48" height="48" viewBox="0 0 48 48" fill="none" xmlns="http://www.w3.org/2000/svg">
<path d="M23.9112 3C22.5573 3.0006 21.314 3.74898 20.6776 4.94636C20.0413 6.14375 20.1156 7.5951 20.8708 8.72098L22.4363 7.15468C22.3846 6.99843 22.3585 6.83481 22.359 6.67019C22.359 5.81492 23.051 5.12159 23.9046 5.12159C24.7582 5.12159 25.4502 5.81492 25.4502 6.67019C25.4502 7.52546 24.7582 8.21879 23.9046 8.21879C23.741 8.21915 23.5785 8.193 23.4233 8.14136L21.86 9.70766C23.1618 10.5923 24.882 10.5454 26.1339 9.59122C27.3858 8.637 27.8899 6.98849 27.3864 5.49537C26.8829 4.00225 25.4842 2.99791 23.9112 3Z" fill="#34A853"/>
<path d="M22.4544 13.6967C22.4568 12.4569 22.0561 11.25 21.3129 10.2588L19.2815 12.2919C19.9168 13.4561 19.6882 14.9031 18.7251 15.8138L19.8291 18.5173C21.4648 17.4617 22.4536 15.6461 22.4544 13.6967Z" fill="#FBBC04"/>
<path d="M16.7776 16.6147H16.7246C15.4786 16.6148 14.3704 15.8213 13.9669 14.6402C13.5634 13.4591 13.9538 12.1516 14.9385 11.3867C15.9232 10.6217 17.2843 10.5685 18.3254 11.2543L20.3369 9.23893C18.381 7.65016 15.6188 7.5276 13.5304 8.93693C11.4419 10.3463 10.5171 12.9569 11.2513 15.3701C11.9855 17.7833 14.2067 19.433 16.7246 19.4354C17.1131 19.4355 17.5007 19.397 17.8816 19.3203L16.7776 16.6147Z" fill="#EA4335"/>
<path d="M23.989 18.9524C22.7177 18.9511 21.453 19.1367 20.2354 19.5033L21.845 23.4433C22.5457 23.2694 23.2649 23.1817 23.9868 23.1823C28.1695 23.1835 31.769 26.1448 32.5841 30.2554C33.3992 34.3659 31.2029 38.4809 27.3383 40.0841C23.4737 41.6872 19.017 40.3321 16.6935 36.8473C14.37 33.3625 14.8268 28.7185 17.7845 25.7552C18.4017 25.1387 19.1063 24.6169 19.8755 24.2066L18.2836 20.2776C12.3494 23.1894 9.53984 30.0985 11.7531 36.3364C13.9665 42.5744 20.4983 46.156 26.9353 44.6614C33.3722 43.1667 37.6658 37.0714 36.9149 30.4939C36.164 23.9164 30.6076 18.9499 24.0001 18.9502L23.989 18.9524Z" fill="#4285F4"/>
</svg>
