<svg width="48" height="48" viewBox="0 0 48 48" fill="none" xmlns="http://www.w3.org/2000/svg">
<path d="M24.3672 3.11426L25.496 5.21935C25.7498 5.60783 26.0248 5.95168 26.3486 6.2719C27.2981 7.20283 28.183 8.19639 28.9975 9.24581C30.9102 11.7394 32.2003 14.5086 33.1217 17.5035C33.6742 19.3329 33.9742 21.2097 33.9967 23.1074C34.0892 28.7809 32.1303 33.6526 28.1807 37.7014C27.5382 38.3434 26.8442 38.9324 26.1054 39.4626C25.7141 39.4626 25.5291 39.1647 25.3678 38.8904C25.0741 38.3818 24.8787 37.8232 24.7915 37.2433C24.6527 36.5569 24.5615 35.8706 24.6064 35.1619V34.8416C24.5747 34.7734 24.2297 3.27568 24.3672 3.11426Z" fill="#599636"/>
<path d="M24.3679 3.04515C24.3216 2.95328 24.2754 3.02284 24.2291 3.06746C24.2516 3.5268 24.0903 3.93627 23.8379 4.32737C23.5603 4.71584 23.1928 5.01376 22.824 5.33398C20.7752 7.09523 19.1625 9.22264 17.8711 11.602C16.1527 14.8043 15.2671 18.2362 15.016 21.8493C14.901 23.1525 15.431 27.7512 15.8448 29.078C16.9736 32.6005 19.0013 35.5521 21.6278 38.1139C22.2728 38.7307 22.9628 39.3029 23.6766 39.8528C23.8841 39.8528 23.9066 39.6691 23.9542 39.5326C24.0452 39.2406 24.1145 38.9423 24.1617 38.6402L24.6243 35.2095L24.3679 3.04515Z" fill="#6CAC48"/>
<path d="M25.4974 40.8564C25.5437 40.3315 25.7975 39.8957 26.0737 39.4613C25.7961 39.3472 25.5899 39.1201 25.4287 38.8668C25.2896 38.627 25.1745 38.3743 25.085 38.1122C24.7625 37.1515 24.6937 36.1436 24.6012 35.1619V34.5674C24.4862 34.6593 24.4624 35.4362 24.4624 35.5517C24.3951 36.5892 24.2565 37.621 24.0474 38.6398C23.9786 39.0519 23.9324 39.4627 23.6772 39.8288C23.6772 39.8747 23.6772 39.9207 23.6997 39.9889C24.1148 41.2016 24.2284 42.4366 24.2985 43.6952V44.1545C24.2985 44.7031 24.276 44.5876 24.7347 44.7713C24.9198 44.8396 25.126 44.8632 25.311 44.9997C25.4498 44.9997 25.4723 44.8855 25.4723 44.7936L25.4036 44.039V41.9339C25.3811 41.5664 25.4498 41.2016 25.4961 40.8577L25.4974 40.8564Z" fill="#C2BFBF"/>
</svg>
