<svg width="48" height="48" viewBox="0 0 48 48" fill="none" xmlns="http://www.w3.org/2000/svg">
<path d="M33.1808 31.5963L33.1898 40.8863L25.0083 45V35.7141L33.1808 31.5963ZM42.9998 26.6312V35.9536L36.0217 39.4626L36.0167 30.1828L42.9998 26.6312ZM33.1687 19.1617L33.1777 28.3542L25.0083 32.4446V23.2491L33.1687 19.1617ZM42.9998 14.2372V23.3719L36.0147 26.9498L36.0086 17.7391L42.9998 14.2372ZM23.7645 13.1565L31.0669 16.8705L23.4906 20.7041L16.3262 17.0785L23.7645 13.1565ZM13.6071 7.99048L20.5721 11.5329L13.1167 15.4539L5.96338 11.8343L13.6071 7.99048ZM33.5171 8.04426L41.0189 11.8343L34.3097 15.2296L26.9922 11.5106L33.5171 8.04426ZM23.5349 3L30.2884 6.41155L23.8129 9.89514L16.854 6.35878L23.5349 3Z" fill="#4DABCF"/>
<path d="M22.1204 23.2488L16.6097 20.4573V32.5236C16.6097 32.5236 9.87028 18.0747 9.24589 16.7769C9.16532 16.6094 8.83399 16.4258 8.74939 16.3811C7.5409 15.7418 4 13.9346 4 13.9346V35.2522L8.89844 37.8905V26.7477C8.89844 26.7477 15.5663 39.6582 15.6338 39.7992C15.7013 39.9403 16.371 41.301 17.086 41.779C18.0387 42.4142 22.1214 44.8881 22.1214 44.8881L22.1204 23.2488Z" fill="#4D77CF"/>
</svg>
