<svg width="48" height="48" viewBox="0 0 48 48" fill="none" xmlns="http://www.w3.org/2000/svg">
<path fill-rule="evenodd" clip-rule="evenodd" d="M3 28.3494H7.88234V35.9939H3V28.3494ZM33.3419 18.9661V25.6991C34.1329 25.5059 34.952 25.4057 35.7832 25.4057C36.6144 25.4057 37.4334 25.5059 38.2244 25.6991V18.9661H33.3419ZM28.111 14.1146H23.2287V35.9956H25.4845C25.4827 35.9131 25.481 35.8305 25.481 35.748C25.481 33.187 26.4172 30.7418 28.1113 28.8464L28.111 14.1146ZM13.1132 23.8334H17.9956V35.9956L13.1132 35.9939V23.8334ZM4.48558 17.4521C5.44632 16.9937 6.56983 17.287 7.19636 18.095C7.21386 18.0845 7.23486 18.0739 7.25411 18.0651L13.3004 15.3654C13.3214 15.3566 13.3406 15.3478 13.3616 15.3425C13.1901 14.3764 13.6731 13.377 14.5971 12.9361C15.3129 12.5953 16.1179 12.6708 16.7427 13.0643C16.7567 13.0485 16.7707 13.0309 16.7864 13.0169L23.6834 6.38961C23.6992 6.3738 23.7167 6.35975 23.7359 6.3457C23.7079 6.29651 23.6817 6.24733 23.6572 6.19463C23.1287 5.08098 23.6012 3.74779 24.7107 3.21732C25.8202 2.68684 27.1485 3.16111 27.677 4.27476C27.8922 4.73145 27.9412 5.2233 27.8467 5.68349C27.8677 5.69052 27.887 5.6993 27.908 5.70808L34.0048 8.6327C34.0241 8.64148 34.0433 8.65202 34.0626 8.66432C34.2639 8.42016 34.5193 8.21289 34.8238 8.06886C35.9334 7.53839 37.2616 8.01266 37.7901 9.12631C38.3186 10.24 37.8461 11.5732 36.7366 12.1036C35.6271 12.6341 34.2988 12.1598 33.7703 11.0462C33.5551 10.5895 33.5061 10.0976 33.6006 9.63745C33.5796 9.63043 33.5603 9.62164 33.5393 9.61286L27.4424 6.68824C27.4232 6.67946 27.4039 6.66892 27.3847 6.65663C27.1834 6.90078 26.9279 7.10805 26.6234 7.25208C25.9077 7.59285 25.1027 7.51732 24.4779 7.12385C24.4639 7.14142 24.4499 7.15723 24.4342 7.17128L17.5371 13.7985C17.5214 13.8143 17.5039 13.8302 17.4846 13.8424C17.5126 13.8916 17.5389 13.9408 17.5634 13.9918C18.0919 15.1054 17.6194 16.4386 16.5099 16.9691C15.5491 17.4275 14.4256 17.1342 13.7991 16.3262C13.7798 16.3367 13.7606 16.3473 13.7413 16.356L7.69508 19.0576C7.67408 19.0664 7.65483 19.0751 7.63383 19.0804C7.80533 20.0465 7.32233 21.046 6.39833 21.4869C5.2888 22.0173 3.96056 21.5431 3.43205 20.4294C2.90355 19.3158 3.3743 17.9826 4.48558 17.4521ZM29.2655 29.2052C30.9333 27.5312 33.2381 26.4949 35.7826 26.4949C38.3272 26.4949 40.6318 27.5312 42.2998 29.2052C43.9677 30.8791 45 33.1925 45 35.7483C45 38.3023 43.9675 40.6156 42.3015 42.2897C40.6337 43.9637 38.329 45 35.7844 45C33.2399 45 30.9352 43.9654 29.2673 42.2897C27.5995 40.6157 26.5688 38.3024 26.5688 35.7483C26.5653 33.1926 27.5978 30.8793 29.2655 29.2052ZM35.2401 28.4463V29.1068C35.2401 29.4072 35.4834 29.6513 35.7826 29.6513C36.0818 29.6513 36.3251 29.4072 36.3251 29.1068V28.4463C36.3251 28.146 36.0818 27.9018 35.7826 27.9018C35.4834 27.9018 35.2401 28.146 35.2401 28.4463ZM43.0555 35.2018H42.3975C42.0983 35.2018 41.855 35.4459 41.855 35.7463C41.855 36.0466 42.0983 36.2908 42.3975 36.2908H43.0555C43.3548 36.2908 43.598 36.0466 43.598 35.7463C43.5998 35.4459 43.3565 35.2018 43.0555 35.2018ZM36.3252 43.0481V42.3876C36.3252 42.0872 36.0819 41.8431 35.7827 41.8431C35.4835 41.8431 35.2402 42.0872 35.2402 42.3876V43.0481C35.2402 43.3484 35.4835 43.5926 35.7827 43.5926C36.0837 43.5926 36.3252 43.3484 36.3252 43.0481ZM28.5098 36.2927C28.2105 36.2927 27.9673 36.0485 27.9673 35.7481C27.9673 35.4478 28.2105 35.2036 28.5098 35.2036H29.1678C29.467 35.2036 29.7103 35.4478 29.7103 35.7481C29.7103 36.0485 29.467 36.2927 29.1678 36.2927H28.5098ZM35.2401 32.0401V35.7464C35.2401 35.9326 35.3346 36.0977 35.4764 36.1961L39.9301 39.8163C40.1629 40.006 40.5024 39.9709 40.6914 39.7372C40.8804 39.5036 40.8454 39.1629 40.6126 38.9732L36.3269 35.49V32.0419C36.3269 31.7415 36.0836 31.4974 35.7844 31.4974C35.4834 31.4956 35.2401 31.7398 35.2401 32.0401Z" fill="#44ADC1"/>
</svg>
