<svg width="48" height="48" viewBox="0 0 48 48" fill="none" xmlns="http://www.w3.org/2000/svg">
<path d="M20.9093 17.7708C21.439 17.2375 21.7043 16.6145 21.7043 15.8136V5.58024C21.7043 4.1567 20.556 3 19.1431 3C17.7301 3 16.5821 4.1567 16.5821 5.58024V11.4536L11.637 8.51686C10.4008 7.71635 8.81104 8.07201 8.10494 9.31772C7.31016 10.5638 7.66313 12.1653 8.89937 12.8772C8.9877 12.8772 8.9877 12.966 9.07637 12.966L17.9071 18.127C18.79 18.7499 20.1146 18.5722 20.9093 17.7708ZM17.1121 23.9999C17.1121 23.021 16.6703 22.1312 15.7872 21.686L6.95685 16.525C5.72026 15.7244 4.13088 16.0801 3.42444 17.3258C2.62948 18.5721 2.98297 20.1734 4.21921 20.8853C4.30754 20.8853 4.30754 20.9743 4.39569 20.9743L9.42916 23.9107L4.39569 26.8475C3.15945 27.559 2.62948 29.0721 3.33611 30.407C4.04273 31.7417 5.54378 32.1862 6.86817 31.4743C6.95685 31.4743 6.95685 31.4743 7.04465 31.4743L15.8759 26.3137C16.6703 25.8686 17.1121 24.9788 17.1121 23.9999ZM21.7043 32.0975V42.4198C21.7043 43.8435 20.556 45 19.1431 45C17.7301 45 16.5821 43.8433 16.5821 42.4198V36.6357L11.5487 39.5723C10.3124 40.3728 8.72271 40.0172 8.01661 38.7715C7.22166 37.5256 7.5748 35.9238 8.81104 35.212C8.89919 35.212 8.89919 35.123 8.98752 35.123L17.8187 29.962C19.055 29.2499 20.7329 29.695 21.4391 31.0297C21.6156 31.2963 21.7921 31.7417 21.7043 32.0975ZM26.2959 32.3645V42.4196C26.2959 43.8433 27.4439 44.9998 28.8569 44.9998C30.2697 44.9998 31.4176 43.8431 31.4176 42.4196V36.6355L36.3627 39.4831C37.5989 40.2836 39.1887 39.928 39.8951 38.6823C40.6901 37.436 40.3366 35.8347 39.1003 35.1228C39.012 35.1228 39.012 35.0338 38.9239 35.0338L30.093 29.8728C28.8568 29.1607 27.267 29.6058 26.5606 30.8517C26.3843 31.2963 26.2076 31.9195 26.2959 32.3645ZM30.8881 23.9999C30.8881 23.021 31.3294 22.1312 32.2125 21.686L41.0434 16.525C42.2796 15.7244 43.8694 16.0801 44.5758 17.3258C45.3702 18.5721 45.0173 20.1734 43.7809 20.8853C43.6927 20.8853 43.6927 20.9743 43.6044 20.9743L38.5706 23.9107L43.6044 26.8473C44.8406 27.5588 45.3702 29.0719 44.664 30.4068C43.9575 31.6525 42.4559 32.186 41.1315 31.4742C41.0434 31.4742 41.0434 31.3852 40.9551 31.3852L32.1244 26.2241C31.3294 25.8686 30.7998 24.9788 30.8881 23.9999ZM26.2959 15.6356V5.58024C26.2959 4.1567 27.4439 3 28.8569 3C30.2697 3 31.4176 4.1567 31.4176 5.58024V11.3643L36.3627 8.51668C37.5989 7.71617 39.1887 8.07183 39.8951 9.31754C40.6901 10.5636 40.3366 12.1652 39.1003 12.877C39.012 12.877 39.012 12.9658 38.9239 12.9658L30.093 18.1269C28.8568 18.8389 27.267 18.3939 26.5606 17.1482C26.3843 16.7035 26.2076 16.1693 26.2959 15.6356ZM25.0597 19.3727C24.8832 19.1951 24.7062 19.1057 24.4414 19.1057H23.5583C23.2935 19.1057 23.1168 19.1951 22.9404 19.3727L19.4079 22.9322C19.2315 23.11 19.1431 23.2881 19.1431 23.5547V24.4449C19.1431 24.7119 19.2315 24.8898 19.4079 25.0676L22.9404 28.6271C23.1168 28.8049 23.2935 28.8939 23.5583 28.8939H24.4414C24.7062 28.8939 24.8832 28.8049 25.0597 28.6271L28.5918 25.0676C28.6801 24.8896 28.7686 24.6228 28.7686 24.4449V23.5547C28.7686 23.2879 28.6801 23.1099 28.5034 22.9322L25.0597 19.3727ZM24.5297 22.4875C24.4414 22.3982 24.2649 22.3092 24.0883 22.3092C23.9113 22.3092 23.7348 22.3982 23.6468 22.4875L22.5869 23.5549C22.4985 23.6439 22.4102 23.8223 22.4102 24.0001C22.4102 24.1781 22.4985 24.3563 22.5869 24.4453L23.6468 25.5128C23.7346 25.6016 23.9113 25.691 24.0883 25.691C24.2648 25.691 24.4414 25.6016 24.5297 25.5128L25.5893 24.4453C25.6775 24.3563 25.7662 24.1781 25.7662 24.0001C25.7662 23.8223 25.6775 23.6439 25.5893 23.5549L24.5297 22.4875Z" fill="#31BEF0"/>
</svg>
