<svg width="48" height="48" viewBox="0 0 48 48" fill="none" xmlns="http://www.w3.org/2000/svg">
<path d="M21.4621 44.9701C17.4644 44.6868 13.5132 43.6972 11.09 42.3724C9.70973 41.6178 8.65815 40.6905 8.24551 39.864L8 39.3722V23.9475V8.52271L8.19427 8.13478C9.06244 6.40139 11.8332 4.83873 15.7009 3.90111C17.0139 3.58281 18.9093 3.26584 20.4556 3.106C22.0345 2.94274 26.2197 2.96758 27.7947 3.1498C31.9808 3.63346 35.543 4.71625 37.7381 6.17238C38.5847 6.73392 39.4534 7.63243 39.7477 8.25091L40 8.78118L39.9784 24.1593L39.9568 39.5375L39.7543 39.9421C39.6429 40.1647 39.3064 40.6025 39.0066 40.9151C37.1812 42.818 33.2659 44.2256 28.1303 44.8254C27.0835 44.9477 22.536 45.0463 21.4621 44.9701ZM28.8292 31.7532C28.8138 31.7138 28.2162 31.1902 27.5012 30.5897C26.7861 29.9891 26.1703 29.4695 26.1326 29.435C26.095 29.4005 26.2271 29.2784 26.4262 29.1636C26.6253 29.0489 27.0068 28.7295 27.2739 28.454C28.0552 27.6484 28.4238 26.6533 28.4238 25.3497C28.4238 24.0664 28.0262 23.0311 27.23 22.2407C26.4275 21.444 25.5061 21.1017 24.1642 21.1017C22.0959 21.1017 20.5074 22.2886 20.0004 24.2127C19.826 24.8746 19.827 26.212 20.0023 26.7988C20.4595 28.3297 21.7048 29.4414 23.2545 29.7025C23.779 29.7909 23.85 29.8289 24.2076 30.2134C24.4201 30.4418 24.8561 30.8979 25.1766 31.2268L25.7593 31.8248H27.3082C28.1601 31.8248 28.8446 31.7926 28.8292 31.7532ZM23.5172 27.4881C23.1443 27.2969 23.0034 27.1485 22.7907 26.7234C22.6265 26.3951 22.5984 26.2083 22.5965 25.4322C22.5947 24.6437 22.6202 24.4732 22.7917 24.1308C23.0723 23.5705 23.4589 23.3052 24.057 23.2627C24.8895 23.2033 25.3701 23.6051 25.6219 24.5708C25.9307 25.7547 25.5911 27.0134 24.8503 27.4311C24.4616 27.6503 23.8818 27.6751 23.5172 27.4881ZM16.6516 29.6857C18.2756 29.3828 19.1974 28.4541 19.1974 27.1208C19.1974 25.938 18.6023 25.2487 16.9573 24.5266C16.0157 24.1132 15.6746 23.8537 15.6746 23.5505C15.6746 23.2993 15.9983 23.0239 16.3751 22.9547C16.743 22.8872 17.7188 23.0538 18.295 23.2827L18.7781 23.4746V22.4232V21.3717L18.2538 21.2573C17.9298 21.1867 17.249 21.1442 16.4714 21.1464C15.37 21.1464 15.1544 21.1728 14.7399 21.3347C13.5291 21.8074 12.9546 22.6125 12.9638 23.8238C12.9724 24.9576 13.5806 25.6649 15.0944 26.3012C15.9876 26.6766 16.3457 26.9625 16.3457 27.3003C16.3457 28.0182 15.1293 28.1066 13.8415 27.4822C13.4889 27.3112 13.172 27.1574 13.1374 27.1404C13.1028 27.1233 13.0745 27.6145 13.0745 28.2319C13.0745 29.3493 13.0757 29.3547 13.2814 29.4317C14.0561 29.7214 15.7684 29.8504 16.6516 29.6857ZM35.2178 28.6491V27.7006H33.7499H32.2821V24.4424V21.1842H30.982H29.6819V25.391V29.5977H32.4498H35.2178V28.6491ZM26.1591 12.0262C28.7426 11.85 30.6792 11.5173 32.3834 10.9569C34.0811 10.3987 35.084 9.72323 35.3083 8.98691C35.3947 8.70318 35.3885 8.59555 35.2678 8.28445C34.7261 6.88976 31.7005 5.8182 27.0771 5.38375C25.0994 5.19787 21.5026 5.25813 19.6169 5.50862C16.7396 5.89094 14.4045 6.60108 13.3663 7.40958C11.2659 9.04517 13.487 10.8441 18.6523 11.6908C20.8919 12.058 23.7935 12.1876 26.1591 12.0262Z" fill="#00BCF2"/>
</svg>
