<svg width="48" height="48" viewBox="0 0 48 48" fill="none" xmlns="http://www.w3.org/2000/svg">
<path d="M22.8511 31.4597H25.1496V25.1068H30.9307V22.848H25.1496V16.4951H22.8511V22.848H17.1396V25.1068H22.8511V31.4597Z" fill="#E8762D"/>
<path d="M12.1943 40.6371H14.1445V34.9901H19.2987V33.2254H14.1445V27.5078H12.1943V33.2254H7.04004V34.9901H12.1943V40.6371Z" fill="#C72037"/>
<path d="M33.8554 20.2375H35.8056V14.5904H41.0295V12.8963H35.8056V7.17871H33.8554V12.8963H28.7012V14.5904H33.8554V20.2375Z" fill="#5B879B"/>
<path d="M23.1994 45.084H24.871V41.0605H28.4233V39.5782H24.871V35.5547H23.1994V39.5782H19.7168V41.0605H23.1994V45.084Z" fill="#5C6692"/>
<path d="M12.2639 20.2375H14.0749V14.5198H19.2987V12.8963H14.0749V7.17871H12.2639V12.8963H7.04004V14.5198H12.2639V20.2375Z" fill="#EB9129"/>
<path d="M39.7765 28.7078H41.4482V24.7549H45.0004V23.2019H41.4482V19.249H39.7765V23.2019H36.2939V24.7549H39.7765V28.7078Z" fill="#5C6692"/>
<path fill-rule="evenodd" clip-rule="evenodd" d="M33.8554 40.6371H35.8056V34.9901H41.0295V33.2254H35.8056V27.5078H33.8554V33.2254H28.7012V34.9901H33.8554V40.6371Z" fill="#1F457E"/>
<path d="M28.1443 8.16631V6.96632H24.6617V3.08398H23.408V6.96632H19.9254V8.16631H23.408V12.0486H24.6617V8.16631H28.1443ZM6.48259 28.425H7.73632V24.5427H11.2189V23.3427H7.73632V19.5309H6.48259V23.3427H3V24.6133L6.48259 24.5427V28.425Z" fill="#7199A6"/>
</svg>
