<svg width="48" height="48" viewBox="0 0 48 48" fill="none" xmlns="http://www.w3.org/2000/svg">
<path d="M10.4375 3H37.5625C41.675 3 45 6.41026 45 10.6282V37.3718C45 41.5897 41.675 45 37.5625 45H10.4375C6.325 45 3 41.5897 3 37.3718V10.6282C3 6.41026 6.325 3 10.4375 3Z" fill="#470137"/>
<path d="M25.0841 14.0377L19.8341 22.9223L25.4341 32.3454C25.4691 32.4171 25.4866 32.4889 25.4691 32.5607C25.4516 32.6325 25.3816 32.5787 25.2766 32.5966H21.2691C20.9891 32.5966 20.7966 32.5787 20.6741 32.3992C20.3066 31.6454 19.9216 30.9095 19.5541 30.1556C19.1866 29.4197 18.7841 28.6659 18.3641 27.8941C17.9441 27.1223 17.5241 26.3505 17.1041 25.5607H17.0691C16.7016 26.3325 16.2991 27.1043 15.8966 27.8761C15.4941 28.6479 15.0916 29.4197 14.7066 30.1736C14.3041 30.9274 13.9016 31.6992 13.4991 32.4351C13.4291 32.6146 13.2891 32.6325 13.0966 32.6325H9.24655C9.17655 32.6325 9.12405 32.6684 9.12405 32.5787C9.10655 32.5069 9.12405 32.4351 9.15905 32.3812L14.6016 23.2274L9.29905 14.0197C9.24655 13.9479 9.22905 13.8761 9.26405 13.8402C9.29905 13.7864 9.36905 13.7684 9.43905 13.7684H13.4116C13.4991 13.7684 13.5866 13.7864 13.6566 13.8043C13.7266 13.8402 13.7791 13.8941 13.8316 13.9659C14.1641 14.7377 14.5491 15.5095 14.9516 16.2812C15.3716 17.053 15.7741 17.8069 16.2116 18.5607C16.6316 19.3146 17.0166 20.0684 17.3841 20.8402H17.4191C17.7866 20.0505 18.1716 19.2787 18.5566 18.5248C18.9416 17.771 19.3441 17.0171 19.7466 16.2633C20.1491 15.5095 20.5341 14.7377 20.9191 14.0018C20.9366 13.93 20.9716 13.8582 21.0241 13.8223C21.0941 13.7864 21.1641 13.7684 21.2516 13.7864H24.9441C25.0316 13.7684 25.1191 13.8223 25.1366 13.912C25.1541 13.93 25.1191 14.0018 25.0841 14.0377ZM33.1691 32.9736C31.8741 32.9915 30.5791 32.7223 29.4066 32.1659C28.3041 31.6454 27.3941 30.7838 26.7641 29.7248C26.1166 28.63 25.8016 27.2659 25.8016 25.6325C25.7841 24.3043 26.1166 22.9941 26.7641 21.8454C27.4291 20.6787 28.3916 19.7095 29.5466 19.0633C30.7716 18.3633 32.2416 18.0223 33.9741 18.0223C34.0616 18.0223 34.1841 18.0223 34.3416 18.0402C34.4991 18.0582 34.6741 18.0582 34.8841 18.0761V12.4043C34.8841 12.2787 34.9366 12.2069 35.0591 12.2069H38.6116C38.6991 12.1889 38.7691 12.2607 38.7866 12.3325V29.4556C38.7866 29.7787 38.8041 30.1377 38.8216 30.5325C38.8566 30.9095 38.8741 31.2684 38.8916 31.5736C38.8916 31.6992 38.8391 31.8069 38.7166 31.8607C37.8066 32.2556 36.8441 32.5428 35.8641 32.7223C34.9716 32.8838 34.0791 32.9736 33.1691 32.9736ZM34.8841 29.3838V21.4864C34.7266 21.4505 34.5691 21.4146 34.4116 21.3966C34.2191 21.3787 34.0266 21.3607 33.8341 21.3607C33.1516 21.3607 32.4691 21.5043 31.8566 21.8274C31.2616 22.1325 30.7541 22.5813 30.3691 23.1556C29.9841 23.73 29.7916 24.5018 29.7916 25.4351C29.7741 26.0633 29.8791 26.6915 30.0891 27.2838C30.2641 27.7684 30.5266 28.1992 30.8766 28.5582C31.2091 28.8812 31.6116 29.1325 32.0666 29.2761C32.5391 29.4377 33.0291 29.5095 33.5191 29.5095C33.7816 29.5095 34.0266 29.4915 34.2541 29.4736C34.4816 29.4915 34.6741 29.4556 34.8841 29.3838Z" fill="#FF61F6"/>
</svg>
