<svg width="48" height="48" viewBox="0 0 48 48" fill="none" xmlns="http://www.w3.org/2000/svg">
<path d="M22.5566 1.61175C23.7234 0.796082 25.2754 0.796084 26.4423 1.61175L35.5507 7.97894C37.4815 9.32877 37.4814 12.1876 35.5507 13.5375L30.164 17.3032L35.5507 21.0688C37.4815 22.4186 37.4815 25.2775 35.5507 26.6274L30.163 30.393L35.5507 34.1596C37.4815 35.5095 37.4815 38.3683 35.5507 39.7182L26.4423 46.0854C25.2754 46.9011 23.7234 46.9011 22.5566 46.0854L13.4482 39.7182C11.5173 38.3683 11.5173 35.5095 13.4482 34.1596L18.8349 30.393L13.4482 26.6274C11.5173 25.2775 11.5173 22.4186 13.4482 21.0688L18.8339 17.3032L13.4482 13.5375C11.5174 12.1876 11.5173 9.32877 13.4482 7.97894L22.5566 1.61175ZM26.4423 19.9057C25.2755 20.7214 23.7234 20.7214 22.5566 19.9057L20.8066 18.6821L14.7431 22.9213C14.0995 23.3713 14.0995 24.3249 14.7431 24.7748L20.8075 29.0141L22.5566 27.7914C23.7233 26.9758 25.2754 26.9758 26.4423 27.7914L28.1903 29.0141L34.2558 24.7748C34.8994 24.3249 34.8993 23.3713 34.2558 22.9213L28.1913 18.6821L26.4423 19.9057Z" fill="#44ADC1"/>
</svg>
