<svg width="48" height="48" viewBox="0 0 48 48" fill="none" xmlns="http://www.w3.org/2000/svg">
<path d="M24 24C24 20.1341 27.134 17 31 17C34.8659 17 38 20.1341 38 24C38 27.866 34.8659 31 31 31C27.134 31 24 27.866 24 24Z" fill="#1ABCFE"/>
<path d="M10 38C10 34.1341 13.134 31 17 31H24V38C24 41.866 20.866 45 17 45C13.134 45 10 41.866 10 38Z" fill="#0ACF83"/>
<path d="M24 3V16.9999H31C34.866 16.9999 38 13.8659 38 9.9999C38 6.13388 34.866 3 31 3H24Z" fill="#FF7262"/>
<path d="M10 10C10 13.866 13.134 17 17 17H24V3H17C13.134 3 10 6.13407 10 10Z" fill="#F24E1E"/>
<path d="M10 24C10 27.866 13.134 31 17 31H24V17H17C13.134 17 10 20.1341 10 24Z" fill="#A259FF"/>
</svg>
