<svg width="48" height="48" viewBox="0 0 48 48" fill="none" xmlns="http://www.w3.org/2000/svg">
<path d="M43.0001 39.7441C43.0157 42.6278 40.6864 44.9758 37.7999 44.9914C37.5853 44.9931 37.369 44.981 37.1562 44.9551C34.4773 44.5594 32.5149 42.2321 32.5807 39.5299V8.46111C32.5167 5.75542 34.4843 3.42811 37.1648 3.03591C40.0323 2.70072 42.6298 4.74985 42.9655 7.61277C42.9897 7.82356 43.0018 8.03435 43.0001 8.24686V39.7441Z" fill="#F9AB00"/>
<path d="M10.2106 34.5958C13.0884 34.5958 15.4211 36.9248 15.4211 39.7981C15.4211 42.6714 13.0884 45.0004 10.2106 45.0004C7.33273 45.0004 5 42.6714 5 39.7981C5 36.9248 7.33273 34.5958 10.2106 34.5958ZM23.9197 18.8299C21.028 18.9888 18.7853 21.4094 18.8527 24.3V38.2725C18.8527 42.0649 20.5244 44.3663 22.9731 44.857C25.799 45.4289 28.5523 43.6061 29.1251 40.7846C29.196 40.4391 29.2306 40.0883 29.2289 39.7359V24.0581C29.2341 21.1744 26.8979 18.8333 24.0097 18.8281C23.9802 18.8281 23.9491 18.8281 23.9197 18.8299Z" fill="#E37400"/>
</svg>
