<svg width="48" height="48" viewBox="0 0 48 48" fill="none" xmlns="http://www.w3.org/2000/svg">
<path d="M19.4854 30.457C19.4854 31.3408 18.7627 32.0642 17.8789 32.0645H12.3496V39.0713H36.6494V32.0645H31.1211C30.2372 32.0644 29.5137 31.3409 29.5137 30.457V27.0342H47V30.457C47 31.341 46.2765 32.0645 45.3926 32.0645H39.8643V39.0713C39.8643 40.8391 38.4334 42.2861 36.6494 42.2861H12.3496C10.5658 42.2859 9.13574 40.839 9.13574 39.0713V32.0645H3.60742C2.72347 32.0645 2 31.341 2 30.457V27.0342H19.4854V30.457ZM17.8789 5C18.7627 5.00023 19.4854 5.72361 19.4854 6.60742V23.8193H2V6.60742C2 5.72347 2.72347 5 3.60742 5H17.8789ZM45.3926 5C46.2764 5.00016 46.999 5.72357 46.999 6.60742V23.8193H29.5137V6.60742C29.5137 5.72347 30.2371 5 31.1211 5H45.3926ZM7.78613 16.541C6.89817 16.541 6.17871 17.2605 6.17871 18.1484C6.17886 19.0363 6.89826 19.7549 7.78613 19.7549H13.6914C14.5793 19.7549 15.3006 19.0343 15.3008 18.1484C15.3008 17.2605 14.5813 16.541 13.6934 16.541H7.78613ZM35.3057 16.541C34.4177 16.541 33.6982 17.2605 33.6982 18.1484C33.6984 19.0363 34.4178 19.7549 35.3057 19.7549H41.2139C42.1017 19.7548 42.8211 19.0342 42.8213 18.1484C42.8213 17.2605 42.1018 16.5411 41.2139 16.541H35.3057ZM7.78613 10.6807C6.89817 10.6807 6.17871 11.4001 6.17871 12.2881C6.17881 13.176 6.89823 13.8955 7.78613 13.8955H13.6914C14.5793 13.8955 15.3007 13.176 15.3008 12.2881C15.3008 11.4001 14.5813 10.6807 13.6934 10.6807H7.78613ZM35.3057 10.6807C34.4177 10.6807 33.6982 11.4001 33.6982 12.2881C33.6983 13.176 34.4178 13.8955 35.3057 13.8955H41.2139C42.1017 13.8954 42.8212 13.1759 42.8213 12.2881C42.8213 11.4002 42.1018 10.6807 41.2139 10.6807H35.3057Z" fill="#44ADC1"/>
</svg>
