<svg width="48" height="48" viewBox="0 0 48 48" fill="none" xmlns="http://www.w3.org/2000/svg">
<path d="M24.3311 17.8945C24.9994 17.9016 25.5372 18.4538 25.5352 19.1309L25.7207 32.2119C25.7178 33.2002 25.8413 34.1851 26.0869 35.1416L26.2695 35.8555C26.2695 35.8555 27.1556 30.2229 30.6826 30.0205C31.288 29.9858 31.8501 30.5169 31.1973 31.291C31.1914 31.2981 29.3472 34.0881 29.1826 35.6855C29.111 36.3811 29.0197 37.1714 28.9395 37.8418C28.8203 38.8372 28.3943 39.7684 27.7227 40.5049L26.5596 41.7812C26.4402 41.9123 26.3168 42.04 26.1904 42.1641L25.5273 42.8145C25.0364 43.2965 24.7562 43.9578 24.749 44.6504L24.6943 46H15.3555L15.4307 42.5332C15.4359 42.017 15.3644 41.5025 15.2188 41.0078L15.0039 40.2803C14.5107 38.605 14.189 36.8826 14.0439 35.1406L13.9033 33.4502C13.8808 33.1788 13.8751 32.9049 13.9014 32.6338C14.013 31.4825 14.5623 30.8753 15.8154 31.291C15.8419 31.2997 15.8584 31.2979 15.8584 31.2979C15.8595 31.2849 15.8601 31.2715 15.8613 31.2588C16.0077 29.7211 17.9102 29.0882 18.9219 30.2441C19.0389 30.3779 19.1021 30.4771 19.1055 30.4824C19.1054 30.472 19.0962 28.9697 20.373 28.7637C22.119 28.4822 22.3789 30.6494 22.3789 30.6494L23.1045 19.0557C23.1421 18.399 23.6818 17.8878 24.3311 17.8945ZM24.1094 2C25.4174 2.00002 26.4814 3.07813 26.4814 4.40234C26.4813 5.48162 25.7697 6.38693 24.7998 6.68848V14.5498C25.3399 14.6104 25.8521 14.7527 26.3232 14.9805L29.7021 11.8105L29.7031 8.96289C28.7333 8.6612 28.0215 7.7561 28.0215 6.67676C28.0217 5.35292 29.0858 4.27552 30.3936 4.27539C31.7014 4.27539 32.7654 5.35275 32.7656 6.67676C32.7656 7.75634 32.0542 8.66241 31.084 8.96387L31.082 12.1152C31.082 12.3095 31.0017 12.4958 30.8604 12.6279L27.4971 15.7832C27.7893 16.055 28.0538 16.3543 28.2725 16.6914L37.1328 11.6914V9.73535C36.1629 9.43385 35.4514 8.52853 35.4512 7.44922C35.4512 6.12499 36.5152 5.04785 37.8232 5.04785C39.1312 5.04795 40.1953 6.12506 40.1953 7.44922C40.1951 8.52844 39.4835 9.43377 38.5137 9.73535V12.1006C38.5137 12.3539 38.377 12.5883 38.1582 12.7119L28.8408 17.9697C28.8922 18.1445 28.9448 18.3175 28.9766 18.5H35.5654C35.863 17.5178 36.7567 16.7969 37.8232 16.7969C39.131 16.797 40.1951 17.8743 40.1953 19.1982C40.1953 20.5223 39.1313 21.6004 37.8232 21.6006C36.7567 21.6006 35.863 20.8788 35.5654 19.8965H29.0195C28.8327 21.5678 27.8141 23.0042 26.2969 23.7207L26.2744 22.1133C27.1401 21.4754 27.6797 20.4686 27.6797 19.3418C27.6797 17.4404 26.1533 15.8927 24.2764 15.8926C22.3993 15.8926 20.8721 17.4403 20.8721 19.3418C20.8721 20.4265 21.378 21.4125 22.1963 22.0557L22.0967 23.6426C20.713 22.9227 19.7635 21.5852 19.543 20.04H12.6416C12.3441 21.0225 11.4504 21.7441 10.3838 21.7441C9.07584 21.744 8.01172 20.666 8.01172 19.3418C8.01172 18.0176 9.07574 16.9405 10.3838 16.9404C11.4502 16.9404 12.344 17.6614 12.6416 18.6436H19.5615C19.5809 18.5095 19.5968 18.3754 19.627 18.2451L10.0322 12.7227C9.81669 12.599 9.68164 12.3667 9.68164 12.1152V9.64746C8.71172 9.34583 8 8.44072 8 7.36133C8.00018 6.03726 9.06414 4.96094 10.3721 4.96094C11.68 4.96094 12.744 6.03726 12.7441 7.36133C12.7441 8.44072 12.0324 9.34583 11.0625 9.64746V11.709L20.1465 16.9385C20.3519 16.5779 20.5861 16.2369 20.873 15.9424L17.4463 12.6201C17.3099 12.4879 17.2324 12.3054 17.2324 12.1152L17.2334 9.08789C16.2636 8.78627 15.5519 7.88111 15.5518 6.80176C15.5518 5.47774 16.6159 4.3996 17.9238 4.39941C19.2319 4.39941 20.2959 5.47753 20.2959 6.80176C20.2958 7.88128 19.5844 8.78644 18.6143 9.08789L18.6123 11.8174L22.0029 15.1045C22.4411 14.8623 22.9119 14.6776 23.4189 14.584V6.68848C22.449 6.38696 21.7375 5.48165 21.7373 4.40234C21.7373 3.07822 22.8013 2 24.1094 2Z" fill="#44ADC1"/>
</svg>
