<svg width="48" height="48" viewBox="0 0 48 48" fill="none" xmlns="http://www.w3.org/2000/svg">
<path d="M41.1926 3H6.8074C4.70461 3 3 4.70461 3 6.8074V41.1926C3 43.2954 4.70461 45 6.8074 45H41.1926C43.2954 45 45 43.2954 45 41.1926V6.8074C45 4.70461 43.2954 3 41.1926 3Z" fill="#DC395F"/>
<path d="M17.0364 16.2141C18.4326 16.2141 19.6022 15.1198 19.6022 13.6856C19.6022 12.2523 18.4326 11.1582 17.0364 11.1582C15.6403 11.1582 14.471 12.2523 14.471 13.6856C14.471 15.1197 15.6403 16.2141 17.0364 16.2141ZM11.7166 29.7526C11.5658 30.394 11.4901 31.0867 11.4901 31.6517C11.4901 33.8782 12.6975 35.3563 15.2633 35.3563C17.3911 35.3563 19.1163 34.0927 20.3584 32.0522L19.5999 35.0961H23.8254L26.2404 25.41C26.8441 22.9576 28.0137 21.6846 29.7872 21.6846C31.1832 21.6846 32.051 22.5528 32.051 23.9861C32.051 24.4013 32.0132 24.8536 31.8623 25.3444L30.617 29.7965C30.4284 30.438 30.3532 31.0798 30.3532 31.6831C30.3532 33.7967 31.598 35.3427 34.2015 35.3427C36.4276 35.3427 38.2008 33.9096 39.1819 30.4759L37.5219 29.8351C36.6918 32.1354 35.9748 32.5513 35.4088 32.5513C34.8428 32.5513 34.5409 32.1743 34.5409 31.4201C34.5409 31.0805 34.6167 30.7036 34.7296 30.2498L35.9373 25.9123C36.239 24.8938 36.3523 23.9907 36.3523 23.1609C36.3523 19.916 34.3902 18.2226 32.0132 18.2226C29.7872 18.2226 27.5232 20.2305 26.3915 22.3438L27.2213 18.5507H20.7697L19.8641 21.8917H22.8826L21.0238 29.3335C19.5642 32.5784 16.8829 32.631 16.5464 32.5557C15.9938 32.431 15.6404 32.2212 15.6404 31.5033C15.6404 31.089 15.7159 30.494 15.9046 29.7765L18.7347 18.5507H11.5658L10.6602 21.8917H13.6407L11.7166 29.7526Z" fill="white"/>
</svg>
