<svg width="48" height="48" viewBox="0 0 48 48" fill="none" xmlns="http://www.w3.org/2000/svg">
<path d="M41.5547 3H6.44531C4.54252 3 3 4.54252 3 6.44531V41.5547C3 43.4575 4.54252 45 6.44531 45H41.5547C43.4575 45 45 43.4575 45 41.5547V6.44531C45 4.54252 43.4575 3 41.5547 3Z" fill="url(#paint0_linear_608_21642)"/>
<path d="M35.0045 11.2809C36.1566 11.4514 36.9518 12.5244 36.7817 13.6768C36.6117 14.8298 35.54 15.6269 34.3877 15.4563C32.347 15.1542 29.2899 18.3299 25.8673 24.8597C21.4978 33.1959 17.4309 37.1677 13.1492 36.8508C11.9876 36.7648 11.1165 35.7526 11.2021 34.5907C11.2878 33.4286 12.2984 32.5553 13.4602 32.6414C15.5745 32.7979 18.6802 29.4869 22.1335 22.8985C26.5309 14.5092 30.653 10.6365 35.0045 11.2809Z" fill="white"/>
<defs>
<linearGradient id="paint0_linear_608_21642" x1="2.99994" y1="1402.69" x2="12652.9" y2="9846.22" gradientUnits="userSpaceOnUse">
<stop stop-color="#2BEAED"/>
<stop offset="1" stop-color="#0FCCCE"/>
</linearGradient>
</defs>
</svg>
