<svg width="48" height="48" viewBox="0 0 48 48" fill="none" xmlns="http://www.w3.org/2000/svg">
<path d="M33.279 40.1162H17.407V35.7209H24.2442C25.5907 35.7209 26.686 34.6254 26.686 33.2791C26.686 31.9327 25.5906 30.8372 24.2442 30.8372H14.9651C13.6186 30.8372 12.5233 31.9327 12.5233 33.2791V40.1163H7.88373V26.4417H14.721C16.0674 26.4417 17.1628 25.3463 17.1628 23.9999C17.1628 22.6535 16.0673 21.5581 14.721 21.5581H7.88373V14.7211C7.88373 13.3747 6.78829 12.2793 5.44191 12.2793C4.09553 12.2793 3 13.3746 3 14.721V42.558C3 43.9045 4.09545 44.9999 5.44182 44.9999H33.279C34.6255 44.9999 35.7209 43.9045 35.7209 42.5581C35.7209 41.2117 34.6256 40.1162 33.279 40.1162Z" fill="white"/>
<path d="M42.5582 3H5.44182C4.09545 3 3 4.09545 3 5.44182C3 6.7882 4.09545 7.88365 5.44182 7.88365H12.279V14.7209C12.279 16.0673 13.3745 17.1627 14.7209 17.1627C16.0672 17.1627 17.1627 16.0672 17.1627 14.7209V7.88373H30.8371V14.721C30.8371 16.0674 31.9326 17.1628 33.279 17.1628H40.1162V21.5578H26.4418V15.1823C26.4418 13.8358 25.3464 12.7405 24 12.7405C22.6536 12.7405 21.5582 13.8359 21.5582 15.1823V23.9997C21.5582 25.3461 22.6536 26.4415 24 26.4415H30.8372V33.2787C30.8372 34.6252 31.9327 35.7205 33.279 35.7205C34.6254 35.7205 35.7209 34.6251 35.7209 33.2787V26.4415H40.1162V42.5582C40.1162 43.9046 41.2116 45 42.558 45C43.9044 45 45 43.9046 45 42.5582V5.44182C45 4.09545 43.9046 3 42.5582 3ZM40.1163 12.279H35.721V7.88373H40.1163V12.279Z" fill="white"/>
</svg>
