<svg width="48" height="48" viewBox="0 0 48 48" fill="none" xmlns="http://www.w3.org/2000/svg">
<path d="M12.0986 3H35.9014C40.9231 3 45 7.07695 45 12.0986V35.9015C45 40.9231 40.9231 45 35.9014 45H12.0986C7.07695 45 3 40.9231 3 35.9015V12.0986C3 7.07695 7.07695 3 12.0986 3Z" fill="#FFD02F"/>
<path d="M32.185 8.24512H27.5736L31.4144 14.9945L22.9622 8.24512H18.3508L22.5769 16.4984L13.7394 8.24512H9.12793L13.7394 18.7482L9.12793 39.7544H13.7394L22.5769 17.2442L18.3508 39.7544H22.9622L31.4144 15.7527L27.5736 39.7544H32.185L40.6373 13.4905L32.185 8.24512Z" fill="#050038"/>
</svg>
