<svg width="48" height="48" viewBox="0 0 48 48" fill="none" xmlns="http://www.w3.org/2000/svg">
<path fill-rule="evenodd" clip-rule="evenodd" d="M11.5054 18.5518L23.9982 43.004L3 18.5518H11.5054Z" fill="#EA6C00"/>
<path fill-rule="evenodd" clip-rule="evenodd" d="M36.4946 18.5518L24.0018 43.004L45 18.5518H36.4946Z" fill="#EA6C00"/>
<path fill-rule="evenodd" clip-rule="evenodd" d="M11.5049 18.5518H36.4906L23.9977 43.004L11.5049 18.5518Z" fill="#FDAD00"/>
<path fill-rule="evenodd" clip-rule="evenodd" d="M23.9977 5L12.1624 6.25106L11.5049 18.5514L23.9977 5Z" fill="#FDD231"/>
<path fill-rule="evenodd" clip-rule="evenodd" d="M23.9974 5L35.8327 6.25106L36.4902 18.5514L23.9974 5Z" fill="#FDD231"/>
<path fill-rule="evenodd" clip-rule="evenodd" d="M45 18.5513L35.8371 6.25098L36.4946 18.5513H45Z" fill="#FDAD00"/>
<path fill-rule="evenodd" clip-rule="evenodd" d="M3 18.5513L12.1629 6.25098L11.5054 18.5513H3Z" fill="#FDAD00"/>
<path fill-rule="evenodd" clip-rule="evenodd" d="M23.9977 5L11.5049 18.5514H36.4906L23.9977 5Z" fill="#FEEEB7"/>
</svg>
