<svg width="48" height="48" viewBox="0 0 48 48" fill="none" xmlns="http://www.w3.org/2000/svg">
<path fill-rule="evenodd" clip-rule="evenodd" d="M2.53159 12.6767V7.87875C2.53159 7.11491 2.83342 6.38177 3.3702 5.8425C3.90702 5.30319 4.63671 5 5.39702 5H43.6033C44.3636 5 45.0914 5.30323 45.6282 5.8425C46.1669 6.38182 46.4688 7.11491 46.4688 7.87875V12.6767H2.53159ZM11.5099 8.26256C10.8775 8.26256 10.3637 8.77883 10.3637 9.4141C10.3637 10.0494 10.8775 10.5656 11.5099 10.5656C12.1422 10.5656 12.6561 10.0494 12.6561 9.4141C12.6561 8.77883 12.1422 8.26256 11.5099 8.26256ZM16.0946 8.26256C15.4623 8.26256 14.9484 8.77883 14.9484 9.4141C14.9484 10.0494 15.4623 10.5656 16.0946 10.5656C16.727 10.5656 17.2408 10.0494 17.2408 9.4141C17.2408 8.77883 16.727 8.26256 16.0946 8.26256ZM6.92513 8.26256C6.2928 8.26256 5.77892 8.77883 5.77892 9.4141C5.77892 10.0494 6.2928 10.5656 6.92513 10.5656C7.55746 10.5656 8.07134 10.0494 8.07134 9.4141C8.07134 8.77883 7.55746 8.26256 6.92513 8.26256ZM46.4684 13.8282V40.1213C46.4684 40.8851 46.1666 41.6182 45.6278 42.1575C45.091 42.6968 44.3632 43 43.6029 43H5.39668C4.63637 43 3.90663 42.6968 3.36986 42.1575C2.83304 41.6182 2.53125 40.8851 2.53125 40.1213V13.8282H46.4684ZM31.117 39.8677C31.3328 39.9771 31.5926 39.9387 31.7684 39.7737C31.9441 39.6086 31.9976 39.3495 31.904 39.1269L25.0252 23.006C24.9354 22.7949 24.7291 22.6567 24.4998 22.6567C24.2706 22.6567 24.0624 22.7949 23.9726 23.006L17.0957 39.1269C17.0002 39.3496 17.0537 39.6086 17.2294 39.7737C17.4052 39.9387 17.6669 39.9771 17.8808 39.8677L24.5 36.4938L31.117 39.8677ZM30.2268 38.1213L24.7593 35.3346C24.595 35.2521 24.4021 35.2521 24.2397 35.3346L18.7703 38.1213L24.4994 24.6927L30.2268 38.1213ZM12.7666 19.2018H18.8776C13.905 21.3379 10.3747 26.2182 10.18 31.9455C9.29365 32.195 8.64415 33.0106 8.64415 33.9798C8.64415 35.1447 9.58594 36.0909 10.7455 36.0909C11.9051 36.0909 12.8469 35.1447 12.8469 33.9798C12.8469 33.0183 12.2031 32.2045 11.3262 31.9512C11.5593 25.5833 16.2778 20.3572 22.3986 19.3711V20.1619C22.3986 20.4805 22.6546 20.7376 22.9717 20.7376H26.0282C26.3453 20.7376 26.6013 20.4805 26.6013 20.1619V19.3711C32.7221 20.3576 37.4384 25.5838 37.6717 31.9512C36.7949 32.2045 36.153 33.0183 36.153 33.9798C36.153 35.1447 37.0929 36.0909 38.2543 36.0909C39.4139 36.0909 40.3557 35.1447 40.3557 33.9798C40.3557 33.0106 39.7043 32.195 38.8179 31.9455C38.625 26.2187 35.0928 21.338 30.1203 19.2018H36.2314C36.4816 20.0865 37.2935 20.7371 38.2544 20.7371C39.414 20.7371 40.3558 19.791 40.3558 18.626C40.3558 17.4611 39.414 16.5149 38.2544 16.5149C37.2935 16.5149 36.4816 17.1636 36.2314 18.0503H26.6017V17.0907C26.6017 16.7721 26.3457 16.5149 26.0286 16.5149H22.9721C22.655 16.5149 22.399 16.7721 22.399 17.0907V18.0503H12.7673C12.519 17.1636 11.7071 16.5149 10.7462 16.5149C9.58668 16.5149 8.64488 17.4611 8.64488 18.626C8.64488 19.791 9.58668 20.7371 10.7462 20.7371C11.7071 20.7371 12.519 20.0865 12.7673 19.2018H12.7666ZM37.2988 18.626C37.2988 18.0963 37.7267 17.6664 38.2539 17.6664C38.7811 17.6664 39.2091 18.0963 39.2091 18.626C39.2091 19.1557 38.7811 19.5856 38.2539 19.5856C37.7267 19.5856 37.2988 19.1557 37.2988 18.626ZM10.7454 33.02C11.2726 33.02 11.7005 33.4499 11.7005 33.9796C11.7005 34.5093 11.2726 34.9392 10.7454 34.9392C10.2181 34.9392 9.79022 34.5093 9.79022 33.9796C9.79022 33.4499 10.2181 33.02 10.7454 33.02ZM38.2539 33.02C38.7811 33.02 39.209 33.4499 39.209 33.9796C39.209 34.5093 38.7811 34.9392 38.2539 34.9392C37.7266 34.9392 37.2987 34.5093 37.2987 33.9796C37.2987 33.4499 37.7266 33.02 38.2539 33.02ZM11.7005 18.626C11.7005 19.1557 11.2725 19.5856 10.7453 19.5856C10.2181 19.5856 9.79017 19.1557 9.79017 18.626C9.79017 18.0963 10.2181 17.6664 10.7453 17.6664C11.2725 17.6664 11.7005 18.0963 11.7005 18.626ZM23.5445 17.6664H25.4548V19.5856H23.5445V17.6664Z" fill="#44ADC1"/>
</svg>
