<svg width="48" height="48" viewBox="0 0 48 48" fill="none" xmlns="http://www.w3.org/2000/svg">
<path d="M43.998 12.9709C43.9968 10.9301 43.2995 8.95084 42.0214 7.35994C40.7432 5.76903 38.9607 4.6617 36.9681 4.22086C34.9755 3.78001 32.8922 4.03203 31.0622 4.93529C29.2323 5.83854 27.7651 7.33899 26.9032 9.18879C24.663 8.69241 22.3414 8.69241 20.1012 9.18879C19.5829 8.07283 18.8405 7.0755 17.9201 6.2589C16.9997 5.4423 15.9211 4.82391 14.7514 4.44222C13.5816 4.06054 12.3459 3.92374 11.121 4.04034C9.89609 4.15694 8.70831 4.52445 7.63161 5.11997C6.5549 5.7155 5.61232 6.5263 4.86254 7.50189C4.11276 8.47747 3.57183 9.59697 3.27345 10.7907C2.97506 11.9844 2.9256 13.2267 3.12814 14.4403C3.33068 15.654 3.78089 16.8129 4.45074 17.845C5.37207 19.2552 6.66705 20.3816 8.19122 21.0987C7.68309 23.3376 7.68309 25.6619 8.19122 27.9008C6.88285 28.5085 5.74043 29.423 4.86095 30.5666C3.98147 31.7101 3.39088 33.049 3.13933 34.4695C2.88777 35.8901 2.98268 37.3503 3.41598 38.7264C3.84928 40.1024 4.6082 41.3536 5.6283 42.3737C6.6484 43.3938 7.89957 44.1527 9.27559 44.586C10.6516 45.0193 12.1119 45.1142 13.5324 44.8626C14.953 44.6111 16.2918 44.0205 17.4354 43.141C18.5789 42.2615 19.4934 41.1191 20.1012 39.8107C22.3401 40.3189 24.6643 40.3189 26.9032 39.8107C27.511 41.1191 28.4254 42.2615 29.569 43.141C30.7126 44.0205 32.0514 44.6111 33.472 44.8626C34.8925 45.1142 36.3528 45.0193 37.7288 44.586C39.1048 44.1527 40.356 43.3938 41.3761 42.3737C42.3962 41.3536 43.1551 40.1024 43.5884 38.7264C44.0217 37.3503 44.1166 35.8901 43.8651 34.4695C43.6135 33.049 43.0229 31.7101 42.1434 30.5666C41.264 29.423 40.1215 28.5085 38.8132 27.9008C39.3213 25.6619 39.3213 23.3376 38.8132 21.0987C40.3606 20.3769 41.6702 19.229 42.5885 17.7894C43.5068 16.3499 43.9957 14.6784 43.998 12.9709ZM15.6081 10.0919C17.166 10.7921 18.5849 11.7674 19.7969 12.9709C18.5868 14.1774 17.1675 15.154 15.6081 15.8531C16.2612 15.035 16.6169 14.0193 16.6169 12.9725C16.6169 11.9257 16.2612 10.91 15.6081 10.0919ZM4.14971 12.9709C5.35987 11.7644 6.77919 10.7878 8.33853 10.0887C7.68546 10.9068 7.32977 11.9225 7.32977 12.9693C7.32977 14.0161 7.68546 15.0318 8.33853 15.8499C6.78065 15.1497 5.3617 14.1744 4.14971 12.9709ZM18.1092 41.1654C17.8923 40.0688 17.3877 39.0496 16.6471 38.2122C15.9065 37.3749 14.9567 36.7495 13.8948 36.4001C14.4285 35.9973 14.8221 35.437 15.02 34.7983C15.218 34.1597 15.2102 33.475 14.9978 32.841C14.7854 32.207 14.3791 31.6557 13.8364 31.2652C13.2937 30.8746 12.642 30.6645 11.9733 30.6645C11.3047 30.6645 10.653 30.8746 10.1103 31.2652C9.56754 31.6557 9.16127 32.207 8.94888 32.841C8.73648 33.475 8.72869 34.1597 8.92661 34.7983C9.12453 35.437 9.51815 35.9973 10.0518 36.4001C8.98999 36.7495 8.0401 37.3749 7.29954 38.2122C6.55897 39.0496 6.05436 40.0688 5.8374 41.1654C4.85868 39.9977 4.23347 38.5749 4.03523 37.0642C3.83698 35.5536 4.07392 34.0177 4.71822 32.637C5.36252 31.2563 6.38742 30.0881 7.67255 29.2696C8.95769 28.4511 10.4497 28.0164 11.9733 28.0164C13.497 28.0164 14.989 28.4511 16.2741 29.2696C17.5592 30.0881 18.5841 31.2563 19.2284 32.637C19.8727 34.0177 20.1097 35.5536 19.9114 37.0642C19.7132 38.5749 19.088 39.9977 18.1092 41.1654ZM26.0642 36.0286C26.0642 37.008 26.2254 37.9806 26.5413 38.9076C24.537 39.3272 22.4674 39.3272 20.4631 38.9076C21.0018 37.3234 21.0862 35.6199 20.7067 33.9902C20.3272 32.3605 19.4989 30.8695 18.3156 29.6863C17.1324 28.5031 15.6415 27.6748 14.0118 27.2953C12.382 26.9157 10.6786 27.0001 9.09431 27.5389C8.66304 25.5358 8.66304 23.4638 9.09431 21.4606C10.6786 21.9994 12.382 22.0838 14.0118 21.7043C15.6415 21.3247 17.1324 20.4965 18.3156 19.3132C19.4989 18.13 20.3272 16.6391 20.7067 15.0093C21.0862 13.3796 21.0018 11.6761 20.4631 10.0919C22.4674 9.67235 24.537 9.67235 26.5413 10.0919C26.0026 11.6761 25.9182 13.3796 26.2977 15.0093C26.6772 16.6391 27.5055 18.13 28.6887 19.3132C29.872 20.4965 31.3629 21.3247 32.9926 21.7043C34.6224 22.0838 36.3258 21.9994 37.9101 21.4606C38.3413 23.4638 38.3413 25.5358 37.9101 27.5389C36.561 27.0801 35.122 26.9497 33.7124 27.1584C32.3028 27.3671 30.9633 27.909 29.8051 28.7391C28.6468 29.5692 27.7033 30.6635 27.0527 31.9313C26.4021 33.199 26.0632 34.6037 26.0642 36.0286ZM37.9133 43.4968C36.057 44.2045 34.0051 44.2045 32.1488 43.4968V43.0484H37.9133V43.4968ZM39.9244 36.1023C39.9974 36.1808 40.0419 36.2817 40.0506 36.3886C40.0593 36.4955 40.0318 36.6022 39.9725 36.6915C38.5954 38.8244 38.0158 40.3391 37.9261 42.0877H32.136C32.0464 40.3391 31.4667 38.8244 30.0897 36.6915C30.0303 36.6022 30.0028 36.4955 30.0115 36.3886C30.0202 36.2817 30.0647 36.1808 30.1377 36.1023C31.7969 34.3232 33.2751 32.3837 34.5507 30.3122V35.7628C34.1858 35.8776 33.874 36.1192 33.6718 36.444C33.4696 36.7687 33.3903 37.1552 33.4484 37.5333C33.5064 37.9114 33.698 38.2563 33.9883 38.5054C34.2786 38.7546 34.6485 38.8915 35.0311 38.8915C35.4136 38.8915 35.7835 38.7546 36.0739 38.5054C36.3642 38.2563 36.5557 37.9114 36.6137 37.5333C36.6718 37.1552 36.5926 36.7687 36.3904 36.444C36.1882 36.1192 35.8764 35.8776 35.5114 35.7628V30.3122C36.787 32.3837 38.2653 34.3232 39.9244 36.1023ZM35.409 13.6114L30.3138 19.4367C30.0544 19.2477 29.8073 19.0423 29.5741 18.8218L34.4706 13.2271L28.0945 8.97742C28.2542 8.699 28.4306 8.43056 28.6229 8.17361L34.7108 12.2343V4.97114C35.0312 4.95777 35.3521 4.96526 35.6716 4.99356V12.6506H43.0308C43.0442 12.971 43.0367 13.292 43.0084 13.6114H35.409Z" fill="#44ADC1"/>
</svg>
