<svg width="48" height="48" viewBox="0 0 48 48" fill="none" xmlns="http://www.w3.org/2000/svg">
<path fill-rule="evenodd" clip-rule="evenodd" d="M3 9.31818C3 9.31818 3 34.9109 3 38.6818C3 39.2969 3.22895 39.8865 3.63686 40.3208C4.04404 40.7558 4.59685 41 5.17358 41C11.482 41 36.518 41 42.8264 41C43.4024 41 43.9552 40.7558 44.3631 40.3208C44.771 39.8865 45 39.2969 45 38.6818V9.31818C45 8.70309 44.771 8.1135 44.3631 7.67923C43.9552 7.24418 43.4024 7 42.8264 7C36.518 7 11.482 7 5.17358 7C4.59685 7 4.04404 7.24418 3.63686 7.67923C3.22895 8.1135 3 8.70309 3 9.31818ZM41.3998 19.3636C41.3998 18.7485 41.1709 18.159 40.763 17.7247C40.3558 17.2896 39.803 17.0455 39.2263 17.0455C33.6547 17.0455 13.6433 17.0455 8.07168 17.0455C7.49495 17.0455 6.94214 17.2896 6.53496 17.7247C6.12705 18.159 5.8981 18.7485 5.8981 19.3636C5.8981 22.8564 5.8981 31.3255 5.8981 34.8182C5.8981 35.4333 6.12705 36.0229 6.53496 36.4571C6.94214 36.8922 7.49495 37.1364 8.07168 37.1364C13.6433 37.1364 33.6547 37.1364 39.2263 37.1364C39.803 37.1364 40.3558 36.8922 40.763 36.4571C41.1709 36.0229 41.3998 35.4333 41.3998 34.8182V19.3636ZM39.9508 19.3636V34.8182C39.9508 35.023 39.8747 35.22 39.7385 35.3645C39.603 35.5098 39.4183 35.5909 39.2263 35.5909H8.07168C7.87968 35.5909 7.69492 35.5098 7.55944 35.3645C7.42323 35.22 7.34715 35.023 7.34715 34.8182V19.3636C7.34715 19.1589 7.42323 18.9618 7.55944 18.8173C7.69492 18.672 7.87968 18.5909 8.07168 18.5909H39.2263C39.4183 18.5909 39.603 18.672 39.7385 18.8173C39.8747 18.9618 39.9508 19.1589 39.9508 19.3636ZM25.1147 20.6162C25.0516 20.6525 24.9922 20.6997 24.9393 20.7584L24.9285 20.7708C24.922 20.7777 24.9162 20.7855 24.9096 20.7932L24.9053 20.7986C24.8741 20.838 24.8481 20.879 24.8256 20.9222L24.822 20.9292C24.7669 21.0381 24.7358 21.1625 24.7358 21.2955V32.8864C24.7358 33.0193 24.7669 33.1437 24.822 33.2526L24.8256 33.2596C24.8481 33.3029 24.8741 33.3438 24.9053 33.3832L24.9096 33.3886C24.9162 33.3964 24.922 33.4041 24.9285 33.411L24.9393 33.4234C24.9922 33.4821 25.0516 33.5293 25.1147 33.5656C25.2176 33.6251 25.3349 33.6591 25.4603 33.6591H37.0527C37.178 33.6591 37.2954 33.6251 37.3983 33.5656C37.4613 33.5293 37.5207 33.4821 37.5736 33.4234L37.5845 33.411C37.591 33.4041 37.5968 33.3964 37.6033 33.3886L37.6077 33.3832C37.6388 33.3438 37.6649 33.3029 37.6874 33.2596L37.691 33.2526C37.7461 33.1437 37.7772 33.0193 37.7772 32.8864V21.2955C37.7772 21.1625 37.7461 21.0381 37.691 20.9292L37.6874 20.9222C37.6649 20.879 37.6388 20.838 37.6077 20.7986L37.6033 20.7932C37.5968 20.7855 37.591 20.7777 37.5845 20.7708L37.5736 20.7584C37.5207 20.6997 37.4613 20.6525 37.3983 20.6162C37.2954 20.5567 37.178 20.5227 37.0527 20.5227H25.4603C25.3349 20.5227 25.2176 20.5567 25.1147 20.6162ZM10.2453 33.2727H18.9396C19.3395 33.2727 19.6641 32.9265 19.6641 32.5C19.6641 32.0735 19.3395 31.7273 18.9396 31.7273H10.2453C9.84531 31.7273 9.52073 32.0735 9.52073 32.5C9.52073 32.9265 9.84531 33.2727 10.2453 33.2727ZM35.2204 32.1136L31.2565 28.1503L27.2926 32.1136H31.2565H35.2204ZM32.3157 27.0909L36.3282 31.1029V23.0789L32.3157 27.0909ZM26.1848 31.1029L30.1972 27.0909L26.1848 23.0789V31.1029ZM10.2453 30.1818H18.9396C19.3395 30.1818 19.6641 29.8356 19.6641 29.4091C19.6641 28.9825 19.3395 28.6364 18.9396 28.6364H10.2453C9.84531 28.6364 9.52073 28.9825 9.52073 29.4091C9.52073 29.8356 9.84531 30.1818 10.2453 30.1818ZM10.2453 27.0909H18.9396C19.3395 27.0909 19.6641 26.7447 19.6641 26.3182C19.6641 25.8916 19.3395 25.5455 18.9396 25.5455H10.2453C9.84531 25.5455 9.52073 25.8916 9.52073 26.3182C9.52073 26.7447 9.84531 27.0909 10.2453 27.0909ZM31.2565 26.0315L35.2204 22.0682H27.2926L31.2565 26.0315ZM10.2453 24H18.9396C19.3395 24 19.6641 23.6538 19.6641 23.2273C19.6641 22.8007 19.3395 22.4545 18.9396 22.4545H10.2453C9.84531 22.4545 9.52073 22.8007 9.52073 23.2273C9.52073 23.6538 9.84531 24 10.2453 24ZM43.5509 13.1818V9.31818C43.5509 9.11341 43.4741 8.91636 43.3387 8.77186C43.2024 8.62659 43.0184 8.54545 42.8264 8.54545H5.17358C4.98158 8.54545 4.79682 8.62659 4.66134 8.77186C4.52513 8.91636 4.44905 9.11341 4.44905 9.31818V13.1818H43.5509ZM6.62263 10.0909C7.02256 10.0909 7.34715 10.4371 7.34715 10.8636C7.34715 11.2902 7.02256 11.6364 6.62263 11.6364C6.22269 11.6364 5.8981 11.2902 5.8981 10.8636C5.8981 10.4371 6.22269 10.0909 6.62263 10.0909ZM9.52073 10.0909C9.92066 10.0909 10.2453 10.4371 10.2453 10.8636C10.2453 11.2902 9.92066 11.6364 9.52073 11.6364C9.12079 11.6364 8.7962 11.2902 8.7962 10.8636C8.7962 10.4371 9.12079 10.0909 9.52073 10.0909ZM12.4188 10.0909C12.8188 10.0909 13.1434 10.4371 13.1434 10.8636C13.1434 11.2902 12.8188 11.6364 12.4188 11.6364C12.0189 11.6364 11.6943 11.2902 11.6943 10.8636C11.6943 10.4371 12.0189 10.0909 12.4188 10.0909ZM28.3584 11.6364H41.3998C41.7998 11.6364 42.1244 11.2902 42.1244 10.8636C42.1244 10.4371 41.7998 10.0909 41.3998 10.0909H28.3584C27.9584 10.0909 27.6339 10.4371 27.6339 10.8636C27.6339 11.2902 27.9584 11.6364 28.3584 11.6364Z" fill="#44ADC1"/>
</svg>
