<svg width="48" height="48" viewBox="0 0 48 48" fill="none" xmlns="http://www.w3.org/2000/svg">
<path d="M9.47419 30.4443L7.27708 31.2573L7.16016 37.876L14.7654 35.0624C12.1547 34.1769 10.2508 32.6164 9.47419 30.4443Z" fill="#FDBD39"/>
<path d="M10.6245 23.4434L3 26.264L7.27731 31.2585L9.47442 30.4455C8.69958 28.2806 9.17775 25.8363 10.6245 23.4434Z" fill="#F69833"/>
<path d="M23.4527 13.8912C13.7445 17.4824 7.48476 24.8946 9.47421 30.4441L44.6298 17.4382C42.6403 11.8888 33.1608 10.3 23.4527 13.8912Z" fill="#FECF33"/>
<path d="M30.6498 33.9923C40.3579 30.4011 46.6281 23.0225 44.6282 17.4395L9.47266 30.4435C11.4726 36.0283 20.9416 37.5835 30.6498 33.9923Z" fill="#EE6723"/>
<path d="M44.6284 17.4375L9.47461 30.4433C10.1622 32.3662 12.7886 33.3135 16.4708 33.3135C20.0623 33.3135 24.659 32.4139 29.4511 30.6413C39.1592 27.05 45.9879 21.2337 44.6284 17.4375Z" fill="#F69833"/>
<path d="M37.6318 14.5693C34.0421 14.5693 29.4437 15.4689 24.6516 17.2415C14.9434 20.8328 8.11475 26.6473 9.4742 30.4435L44.6298 17.4377C43.9404 15.5149 41.3158 14.5693 37.6318 14.5693Z" fill="#FDBD39"/>
<path d="M35.6883 38.2269C34.6534 38.2269 33.1282 37.2814 31.1527 35.4151C28.816 33.2077 26.1407 29.9735 23.6155 26.3098C21.092 22.6461 19.0188 18.9842 17.7763 15.9956C16.4238 12.7402 16.2301 10.7396 17.2021 10.0468C17.4273 9.89125 17.6943 9.81172 17.9665 9.81879C18.7571 9.81879 20.2997 10.4144 23.1495 13.2563L23.2124 13.3181L23.2036 13.4065C23.1844 13.6115 23.167 13.8165 23.1513 14.0197L23.1199 14.4209L22.8406 14.1364C19.7692 11.0029 18.4185 10.6653 17.9787 10.6653C17.8531 10.6653 17.7536 10.6901 17.6821 10.7413C17.2597 11.0418 17.2318 12.5122 18.5441 15.6669C19.764 18.6007 21.8075 22.2078 24.2978 25.8238C26.7899 29.4415 29.425 32.6263 31.7216 34.7948C34.1962 37.133 35.3113 37.3857 35.6761 37.3857C35.8017 37.3857 35.9029 37.3592 35.9797 37.3044C36.4247 36.988 36.4247 35.4133 34.9623 32.0165L34.8942 31.861L35.0408 31.7797C35.1874 31.6984 35.3305 31.6189 35.4631 31.5411L35.6394 31.4404L35.7214 31.6277C36.758 34.0348 37.7283 37.0941 36.4561 37.999C36.231 38.1545 35.9623 38.234 35.6883 38.2269Z" fill="#EE6723"/>
<path d="M30.884 33.89L30.8701 34.0738C30.624 37.149 29.9783 40.8462 28.2925 40.9965C28.2576 41 28.2227 41 28.1895 41C27.0447 41 25.961 39.3387 24.9715 36.0638C24.0326 32.9639 23.3049 28.8036 22.9227 24.3482C22.5388 19.8927 22.5441 15.667 22.9385 12.4487C23.3678 8.9423 24.1845 7.11134 25.3677 7.0053C25.4026 7.00177 25.4392 7 25.4741 7C26.3048 7 27.5561 7.95259 28.837 12.3886L28.0011 12.5512C27.5735 11.0702 27.1076 9.86485 26.6451 9.0342C26.2175 8.26895 25.8005 7.84655 25.4741 7.84655C25.4636 7.84655 25.4532 7.84655 25.441 7.84832C24.9279 7.89427 24.181 9.15261 23.7656 12.553C23.3782 15.713 23.373 19.8768 23.7517 24.2739C24.1304 28.6728 24.8459 32.7713 25.7673 35.8146C26.1792 37.1773 26.6311 38.3013 27.0761 39.063C27.4845 39.7664 27.8806 40.1534 28.1895 40.1534C28.2 40.1534 28.2105 40.1534 28.2209 40.1517C28.7113 40.1093 29.6362 38.7979 30.0254 34.1869L30.884 33.89Z" fill="#EE6723"/>
</svg>
