<svg width="140" height="44" viewBox="0 0 140 44" fill="none" xmlns="http://www.w3.org/2000/svg">
<path d="M0 7.88423C0 3.52989 3.24208 0 7.24138 0H132.759C136.758 0 140 3.52989 140 7.88424V36.1158C140 40.4701 136.758 44 132.759 44H7.24138C3.24208 44 0 40.4701 0 36.1158V7.88423Z" fill="black"/>
<path d="M30.4293 21.2931C30.399 17.8312 33.1859 16.147 33.3134 16.0686C31.735 13.7024 29.2886 13.3791 28.4289 13.3533C26.3742 13.1309 24.3812 14.6175 23.3345 14.6175C22.2669 14.6175 20.6551 13.3748 18.918 13.4113C16.6826 13.4467 14.5913 14.7775 13.4444 16.8441C11.0774 21.0578 12.8427 27.25 15.1105 30.656C16.2449 32.3241 17.5705 34.1866 19.3055 34.1211C21.003 34.0491 21.637 33.0083 23.6855 33.0083C25.7151 33.0083 26.3105 34.1211 28.08 34.0792C29.9018 34.0491 31.0487 32.4036 32.1434 30.7205C33.4544 28.8086 33.9809 26.9257 34.0018 26.829C33.9589 26.8139 30.4638 25.4423 30.4293 21.2931Z" fill="white"/>
<path d="M27.0866 11.1127C27.9996 9.93872 28.6242 8.34152 28.4508 6.7207C27.1295 6.78085 25.4769 7.66054 24.5253 8.80876C23.6834 9.82056 22.9313 11.479 23.1256 13.0386C24.6099 13.1524 26.134 12.2684 27.0866 11.1127Z" fill="white"/>
<path d="M62.3564 23.3633C63.5389 23.3633 64.5267 23.8434 65.3164 24.8047C66.1081 25.767 66.5029 27.0325 66.5029 28.6016C66.5029 30.3545 66.0424 31.7406 65.1211 32.7578C64.296 33.6632 63.2709 34.1151 62.0479 34.1152C60.7276 34.1152 59.7788 33.6275 59.2012 32.6523H59.1592V38.082H56.9326V26.9678C56.9326 25.8659 56.9039 24.735 56.8496 23.5752H58.8086L58.9326 25.209H58.9746C59.7173 23.9781 60.844 23.3633 62.3564 23.3633ZM73.8877 23.3594C75.0691 23.3594 76.0568 23.8395 76.8486 24.8008C77.6372 25.7631 78.0332 27.0285 78.0332 28.5977C78.0332 30.3506 77.5718 31.7367 76.6494 32.7539C75.8254 33.659 74.8009 34.1112 73.5781 34.1113C72.2579 34.1113 71.309 33.6236 70.7324 32.6484H70.6904V38.0781H68.4639V26.9639C68.4639 25.862 68.4352 24.7311 68.3809 23.5713H70.3398L70.4639 25.2051H70.5059C71.2475 23.9742 72.3742 23.3594 73.8877 23.3594ZM104.535 23.3633C106.006 23.3633 107.189 23.865 108.082 24.8691C108.937 25.8434 109.363 27.1012 109.363 28.6426C109.363 30.2268 108.922 31.5278 108.043 32.5449C107.121 33.5921 105.896 34.1142 104.37 34.1143C102.899 34.1143 101.728 33.6126 100.854 32.6094C99.9813 31.6062 99.545 30.3397 99.5449 28.8135C99.5449 27.2163 99.994 25.9078 100.896 24.8906C101.795 23.8724 103.009 23.3633 104.535 23.3633ZM87.2324 19.377C88.4972 19.377 89.548 19.6036 90.3867 20.0557L89.8301 21.9229C89.0467 21.4847 88.1611 21.2657 87.1699 21.2656C86.3865 21.2656 85.7737 21.4641 85.335 21.8594C84.9644 22.2127 84.7784 22.6434 84.7783 23.1533C84.7783 23.7183 84.9909 24.1854 85.417 24.5527C85.7878 24.8922 86.4617 25.2599 87.4395 25.6562C88.6354 26.1514 89.514 26.7308 90.0791 27.3945C90.6419 28.0561 90.9229 28.8841 90.9229 29.8721C90.9228 31.0879 90.5125 32.0772 89.6885 32.8408C88.7828 33.6754 87.5215 34.0918 85.9014 34.0918C84.4057 34.0918 83.2065 33.796 82.2988 33.2021L82.8145 31.293C83.7922 31.9009 84.8653 32.206 86.0342 32.2061C86.8729 32.2061 87.5261 32.0109 87.9951 31.6221C88.462 31.2332 88.6943 30.7105 88.6943 30.0596C88.6942 29.4797 88.5025 28.991 88.1172 28.5947C87.7338 28.1984 87.0933 27.8297 86.1992 27.4893C83.7655 26.5559 82.5498 25.1886 82.5498 23.3906C82.5499 22.2158 82.9759 21.2526 83.8291 20.5029C84.6794 19.7521 85.8139 19.377 87.2324 19.377ZM95.8311 23.5703H98.2861V25.291H95.8311V30.2949C95.8311 31.5677 96.2639 32.2031 97.1309 32.2031C97.5288 32.2031 97.859 32.1685 98.1201 32.0977L98.1816 33.8359C97.743 34.0045 97.1656 34.0898 96.4502 34.0898C95.5707 34.0898 94.8829 33.8137 94.3867 33.2627C93.8927 32.7107 93.6446 31.7849 93.6445 30.4844V25.2881H92.1816V23.5703H93.6445V21.6826L95.8311 21.0039V23.5703ZM122.396 23.3398C123.84 23.3398 124.934 23.8911 125.677 24.9932C126.265 25.8684 126.56 26.9509 126.561 28.2363C126.561 28.6466 126.535 28.9929 126.479 29.2754H119.798C119.824 30.2936 120.147 31.0723 120.768 31.6094C121.33 32.0893 122.058 32.33 122.952 32.3301C123.941 32.3301 124.845 32.1682 125.656 31.8428L126.005 33.4316C125.056 33.857 123.937 34.0693 122.645 34.0693C121.09 34.0693 119.87 33.5988 118.982 32.6592C118.097 31.7194 117.652 30.4571 117.652 28.874C117.652 27.3198 118.065 26.0254 118.892 24.9932C119.756 23.8912 120.925 23.3399 122.396 23.3398ZM116.044 23.3633C116.25 23.3633 116.437 23.3784 116.602 23.4053V25.5889C116.381 25.547 116.146 25.5254 115.899 25.5254C115.116 25.5254 114.51 25.8295 114.084 26.4385C113.713 26.9755 113.527 27.6542 113.527 28.4736V33.8818H111.301L111.322 26.8213C111.322 25.6334 111.294 24.5514 111.238 23.5762H113.178L113.26 25.5479H113.321C113.556 24.8702 113.927 24.3242 114.435 23.915C114.931 23.5468 115.466 23.3634 116.044 23.3633ZM54.9961 33.8799H52.623L51.3242 29.6816H46.8076L45.5693 33.8799H43.2598L47.7344 19.5859H50.499L54.9961 33.8799ZM104.455 25.0381C103.56 25.0382 102.88 25.4491 102.413 26.2705C102.013 26.9515 101.815 27.7802 101.815 28.7598C101.815 29.7102 102.013 30.5254 102.413 31.2041C102.895 32.0268 103.568 32.4375 104.436 32.4375C105.286 32.4375 105.953 32.0182 106.435 31.1826C106.845 30.4899 107.053 29.6662 107.053 28.7168C107.053 27.7662 106.855 26.9504 106.455 26.2705C105.988 25.4479 105.32 25.0381 104.455 25.0381ZM61.6348 25.1855C61.0853 25.1856 60.5857 25.3753 60.1396 25.748C59.6928 26.1239 59.4005 26.6149 59.2637 27.2227C59.1947 27.5062 59.1602 27.7383 59.1602 27.9209V29.6396C59.1602 30.3892 59.3841 31.0215 59.8311 31.5381C60.2781 32.0547 60.8587 32.3125 61.5732 32.3125C62.412 32.3125 63.0653 31.9801 63.5322 31.3164C64.0002 30.6516 64.2334 29.7746 64.2334 28.6855C64.2334 27.6823 64.0141 26.855 63.5732 26.2041C63.0917 25.5255 62.4452 25.1855 61.6348 25.1855ZM73.165 25.1816C72.6145 25.1816 72.116 25.3714 71.6689 25.7441C71.222 26.12 70.9308 26.6109 70.7939 27.2188C70.7261 27.5023 70.6904 27.7344 70.6904 27.917V29.6357C70.6905 30.3853 70.9145 31.0176 71.3594 31.5342C71.8064 32.0497 72.387 32.3086 73.1035 32.3086C73.942 32.3086 74.5946 31.9759 75.0615 31.3125C75.5295 30.6476 75.7637 29.7707 75.7637 28.6816C75.7637 27.6784 75.5434 26.8511 75.1025 26.2002C74.621 25.5215 73.9766 25.1816 73.165 25.1816ZM49.0146 21.4941C48.8778 22.1021 48.6574 23.0006 48.3545 24.1875L47.2002 27.9199H50.9326L49.7568 24.1875C49.6325 23.8062 49.3993 22.9077 49.0557 21.4941H49.0146ZM122.229 24.9277C121.502 24.9278 120.909 25.2376 120.457 25.8604C120.086 26.3555 119.866 26.9499 119.798 27.6416H124.437C124.451 26.9632 124.307 26.3767 124.005 25.8818C123.619 25.245 123.026 24.9277 122.229 24.9277Z" fill="white"/>
<path d="M91.1387 13.1064C91.1387 13.5995 91.1506 14.054 91.1768 14.4707H90.2061L90.1543 13.6572H90.124C89.8138 14.2758 89.2855 14.5859 88.543 14.5859C87.9497 14.5859 87.4552 14.3462 87.0635 13.8672C86.6718 13.3881 86.4766 12.7656 86.4766 12.002C86.4766 11.1826 86.6891 10.5186 87.1152 10.0117C87.5278 9.53936 88.0332 9.30273 88.6348 9.30273C89.2957 9.30276 89.7582 9.53186 90.0215 9.99023H90.043V7.08398H91.1387V13.1064ZM53.9453 9.30273C54.6682 9.30273 55.2497 9.54898 55.6895 10.042C56.1071 10.521 56.3174 11.1395 56.3174 11.8955C56.3174 12.6742 56.1004 13.312 55.668 13.8125C55.2146 14.327 54.6143 14.584 53.8643 14.584C53.1414 14.584 52.566 14.3378 52.1367 13.8438C51.7085 13.3508 51.4942 12.7291 51.4941 11.9795C51.4941 11.1955 51.7145 10.5522 52.1572 10.0527C52.6 9.55338 53.1955 9.30284 53.9453 9.30273ZM77.29 9.30273C78.0139 9.30273 78.5943 9.54898 79.0352 10.042C79.4528 10.521 79.6631 11.1395 79.6631 11.8955C79.6631 12.6742 79.4461 13.312 79.0137 13.8125C78.5603 14.327 77.9589 14.584 77.21 14.584C76.4861 14.584 75.9107 14.3378 75.4824 13.8438C75.0542 13.3508 74.8399 12.7291 74.8398 11.9795C74.8398 11.1955 75.0602 10.5522 75.5029 10.0527C75.9458 9.55336 76.5413 9.30282 77.29 9.30273ZM82.9551 9.30273C84.242 9.30275 84.8877 10.0011 84.8877 11.3975V13.2617C84.8877 13.7674 84.912 14.1702 84.959 14.4688H83.9756L83.8945 13.8857H83.8643C83.528 14.3507 83.0482 14.5839 82.4258 14.584C81.9609 14.584 81.5848 14.43 81.3018 14.125C81.0449 13.848 80.9161 13.5037 80.916 13.0947C80.916 12.4762 81.1666 12.0043 81.6709 11.6777C82.1744 11.3512 82.883 11.1907 83.7949 11.1982V11.1045C83.7949 10.4375 83.4544 10.1046 82.7725 10.1045C82.2868 10.1045 81.8581 10.2293 81.4883 10.4785L81.2656 9.74023C81.7232 9.44915 82.2886 9.30273 82.9551 9.30273ZM98.1699 9.30273C98.8915 9.30284 99.4735 9.54908 99.9121 10.042C100.33 10.521 100.54 11.1395 100.54 11.8955C100.54 12.6742 100.323 13.312 99.8906 13.8125C99.4373 14.327 98.838 14.584 98.0869 14.584C97.3651 14.584 96.7897 14.3378 96.3594 13.8438C95.9312 13.3508 95.7168 12.7291 95.7168 11.9795C95.7168 11.1955 95.9371 10.5522 96.3799 10.0527C96.8228 9.55328 97.4189 9.30273 98.1699 9.30273ZM112.59 9.40625H113.795V10.251H112.591V12.71C112.591 13.335 112.805 13.6484 113.229 13.6484C113.425 13.6484 113.588 13.6311 113.717 13.5957L113.745 14.4492C113.529 14.533 113.244 14.5752 112.895 14.5752C112.462 14.5752 112.125 14.4396 111.882 14.1689C111.638 13.8982 111.517 13.4426 111.517 12.8037V10.251H110.797V9.40723H111.517V8.47949L112.59 8.14648V9.40625ZM123.522 9.29297C124.231 9.29297 124.769 9.56412 125.133 10.1055C125.426 10.535 125.571 11.0669 125.571 11.6982C125.571 11.9 125.556 12.0695 125.53 12.208H122.247C122.262 12.7085 122.419 13.0903 122.723 13.3545C123 13.5907 123.359 13.709 123.798 13.709C124.283 13.7089 124.726 13.6287 125.125 13.4688L125.297 14.251C124.83 14.4594 124.28 14.5635 123.644 14.5635C122.881 14.5634 122.281 14.3326 121.847 13.8711C121.41 13.4093 121.193 12.7893 121.193 12.0117C121.193 11.2481 121.395 10.6124 121.802 10.1055C122.226 9.5642 122.799 9.29305 123.522 9.29297ZM46.4678 7.39453C47.6637 7.39458 48.565 7.66241 49.1729 8.19727C49.8538 8.80198 50.1953 9.6664 50.1953 10.792C50.1953 12.0559 49.8269 13.0074 49.0908 13.6465C48.4088 14.2361 47.4391 14.5322 46.1836 14.5322C45.561 14.5322 45.0281 14.5041 44.582 14.4482V7.54102C45.1639 7.44435 45.7909 7.39453 46.4678 7.39453ZM68.4824 9.30273C68.9418 9.30283 69.3241 9.45569 69.6279 9.76172C70.0059 10.1366 70.1953 10.6963 70.1953 11.4395V14.4727H69.1006V11.5723C69.1006 10.6788 68.7704 10.2316 68.1084 10.2314C67.7835 10.2314 67.5211 10.3546 67.3174 10.6006C67.1159 10.8464 67.0137 11.1361 67.0137 11.4678V14.4717H65.9189V10.8555C65.9189 10.411 65.905 9.92896 65.8789 9.40723H66.8408L66.8926 10.1982H66.9229C67.0503 9.95247 67.2398 9.74901 67.4893 9.58691C67.7859 9.39787 68.1189 9.30273 68.4824 9.30273ZM104.717 9.30273C105.175 9.30283 105.557 9.45569 105.861 9.76172C106.24 10.1366 106.429 10.6963 106.429 11.4395V14.4727H105.335V11.5723C105.335 10.6788 105.005 10.2316 104.342 10.2314C104.017 10.2314 103.754 10.3546 103.552 10.6006C103.349 10.8464 103.248 11.1361 103.248 11.4678V14.4717H102.152V10.8555C102.152 10.411 102.139 9.92896 102.113 9.40723H103.074L103.125 10.1982H103.156C103.285 9.95247 103.474 9.74901 103.723 9.58691C104.02 9.39787 104.352 9.30273 104.717 9.30273ZM73.2168 14.4707H72.123V7.08398H73.2168V14.4707ZM116.41 10.1357H116.431C116.775 9.58043 117.27 9.30273 117.91 9.30273C118.363 9.30274 118.738 9.45562 119.036 9.76172C119.407 10.143 119.593 10.7102 119.593 11.46V14.4707H118.497V11.5918C118.497 10.6843 118.167 10.2305 117.506 10.2305C116.998 10.2305 116.651 10.4932 116.461 11.0195C116.429 11.1301 116.41 11.2659 116.41 11.4248V14.4697H115.316V7.08398H116.41V10.1357ZM59.0684 11.8135C59.2031 12.3827 59.3136 12.9251 59.4023 13.4385H59.4229C59.5043 13.0153 59.639 12.4761 59.8291 11.8242L60.5273 9.40723H61.4199L62.0898 11.7725C62.2517 12.3492 62.3831 12.9046 62.4844 13.4395H62.5146C62.5888 12.9185 62.7003 12.3632 62.8486 11.7725L63.4463 9.40723H64.5205L62.9805 14.4697H61.9775L61.3398 12.2705C61.178 11.7217 61.0457 11.176 60.9434 10.6348H60.9238C60.8288 11.1911 60.6965 11.7357 60.5273 12.2705L59.8496 14.4697H58.8359L57.3867 9.40625H58.5117L59.0684 11.8135ZM53.9062 10.124C53.4665 10.124 53.1322 10.3266 52.9023 10.7305C52.7061 11.0644 52.6085 11.4712 52.6084 11.9521C52.6084 12.4193 52.707 12.8203 52.9023 13.1543C53.1394 13.5581 53.4694 13.7607 53.8955 13.7607C54.3133 13.7607 54.6419 13.5549 54.8779 13.1436C55.0804 12.8032 55.1816 12.3995 55.1816 11.9326C55.1816 11.4654 55.083 11.0645 54.8877 10.7305C54.6579 10.3267 54.3313 10.1241 53.9062 10.124ZM77.252 10.124C76.8111 10.124 76.4768 10.3266 76.248 10.7305C76.0518 11.0644 75.9542 11.4712 75.9541 11.9521C75.9541 12.4193 76.0527 12.8203 76.248 13.1543C76.4851 13.5581 76.8151 13.7607 77.2412 13.7607C77.659 13.7607 77.9866 13.5549 78.2227 13.1436C78.4261 12.8032 78.5263 12.3995 78.5264 11.9326C78.5264 11.4654 78.4277 11.0645 78.2324 10.7305C78.0037 10.3267 77.676 10.1241 77.252 10.124ZM83.8223 11.9482C82.6147 11.9268 82.0107 12.2674 82.0107 12.9688C82.0108 13.2329 82.0797 13.4304 82.2207 13.5625C82.3617 13.6946 82.5417 13.7607 82.7559 13.7607C82.9959 13.7607 83.2202 13.6819 83.4248 13.5264C83.6306 13.3695 83.7577 13.1706 83.8047 12.9268C83.8161 12.8721 83.8222 12.8056 83.8223 12.7295V11.9482ZM98.1289 10.124C97.6902 10.124 97.3559 10.3266 97.125 10.7305C96.9287 11.0644 96.8311 11.4712 96.8311 11.9521C96.8311 12.4193 96.9297 12.8203 97.125 13.1543C97.3621 13.5581 97.692 13.7607 98.1182 13.7607C98.536 13.7607 98.8655 13.5549 99.1016 13.1436C99.303 12.8032 99.4052 12.3995 99.4053 11.9326C99.4053 11.4654 99.3067 11.0645 99.1113 10.7305C98.8805 10.3267 98.555 10.1241 98.1289 10.124ZM88.8848 10.1787C88.4764 10.1787 88.1559 10.3447 87.9209 10.6787C87.688 11.0127 87.5704 11.4392 87.5703 11.96C87.5703 12.4605 87.6817 12.8671 87.9062 13.1797C88.1433 13.5126 88.4633 13.6787 88.8633 13.6787C89.2225 13.6787 89.5102 13.5407 89.7285 13.2627C89.9395 13.006 90.043 12.6959 90.043 12.335V11.4912C90.043 11.3452 90.0325 11.2269 90.0127 11.1367C89.9511 10.866 89.8178 10.6378 89.6162 10.4541C89.4127 10.2708 89.1675 10.1788 88.8848 10.1787ZM46.5586 8.28027C46.2139 8.28027 45.9201 8.30412 45.6768 8.35352V13.6055C45.8115 13.6269 46.058 13.6357 46.416 13.6357C47.2538 13.6357 47.901 13.397 48.3564 12.918C48.8119 12.4389 49.041 11.7405 49.041 10.8232C49.041 10.0037 48.8302 9.37476 48.4082 8.93652C47.9862 8.49961 47.3699 8.28032 46.5586 8.28027ZM123.443 10.0732C123.086 10.0732 122.795 10.2252 122.572 10.5312C122.391 10.7751 122.283 11.0667 122.247 11.4072H124.526C124.535 11.0732 124.463 10.7847 124.314 10.542C124.124 10.2295 123.835 10.0732 123.443 10.0732Z" fill="white"/>
</svg>
