<svg width="36" height="36" viewBox="0 0 36 36" fill="none" xmlns="http://www.w3.org/2000/svg">
<circle cx="18" cy="18.5" r="16.5" stroke="white"/>
<path d="M14.64 11H21.36C23.92 11 26 13.08 26 15.64V22.36C26 23.5906 25.5111 24.7708 24.641 25.641C23.7708 26.5111 22.5906 27 21.36 27H14.64C12.08 27 10 24.92 10 22.36V15.64C10 14.4094 10.4889 13.2292 11.359 12.359C12.2292 11.4889 13.4094 11 14.64 11ZM14.48 12.6C13.7162 12.6 12.9836 12.9034 12.4435 13.4435C11.9034 13.9836 11.6 14.7162 11.6 15.48V22.52C11.6 24.112 12.888 25.4 14.48 25.4H21.52C22.2838 25.4 23.0164 25.0966 23.5565 24.5565C24.0966 24.0164 24.4 23.2838 24.4 22.52V15.48C24.4 13.888 23.112 12.6 21.52 12.6H14.48ZM22.2 13.8C22.4652 13.8 22.7196 13.9054 22.9071 14.0929C23.0946 14.2804 23.2 14.5348 23.2 14.8C23.2 15.0652 23.0946 15.3196 22.9071 15.5071C22.7196 15.6946 22.4652 15.8 22.2 15.8C21.9348 15.8 21.6804 15.6946 21.4929 15.5071C21.3054 15.3196 21.2 15.0652 21.2 14.8C21.2 14.5348 21.3054 14.2804 21.4929 14.0929C21.6804 13.9054 21.9348 13.8 22.2 13.8ZM18 15C19.0609 15 20.0783 15.4214 20.8284 16.1716C21.5786 16.9217 22 17.9391 22 19C22 20.0609 21.5786 21.0783 20.8284 21.8284C20.0783 22.5786 19.0609 23 18 23C16.9391 23 15.9217 22.5786 15.1716 21.8284C14.4214 21.0783 14 20.0609 14 19C14 17.9391 14.4214 16.9217 15.1716 16.1716C15.9217 15.4214 16.9391 15 18 15ZM18 16.6C17.3635 16.6 16.753 16.8529 16.3029 17.3029C15.8529 17.753 15.6 18.3635 15.6 19C15.6 19.6365 15.8529 20.247 16.3029 20.6971C16.753 21.1471 17.3635 21.4 18 21.4C18.6365 21.4 19.247 21.1471 19.6971 20.6971C20.1471 20.247 20.4 19.6365 20.4 19C20.4 18.3635 20.1471 17.753 19.6971 17.3029C19.247 16.8529 18.6365 16.6 18 16.6Z" fill="white"/>
</svg>
