<svg width="36" height="36" viewBox="0 0 36 36" fill="none" xmlns="http://www.w3.org/2000/svg">
<circle cx="18" cy="18" r="16.5" stroke="white"/>
<path fill-rule="evenodd" clip-rule="evenodd" d="M16.4574 16.1814H18.6858V17.2914C19.0068 16.653 19.83 16.0794 21.0666 16.0794C23.4372 16.0794 24 17.3502 24 19.6818V24H21.6V20.2128C21.6 18.885 21.279 18.1362 20.4618 18.1362C19.3284 18.1362 18.8574 18.9432 18.8574 20.2122V24H16.4574V16.1814ZM12.342 23.898H14.742V16.0794H12.342V23.898ZM15.0858 13.53C15.0859 13.7312 15.046 13.9303 14.9684 14.116C14.8909 14.3016 14.7772 14.4699 14.634 14.6112C14.4904 14.7541 14.32 14.8672 14.1327 14.9442C13.9453 15.0213 13.7446 15.0606 13.542 15.06C13.1338 15.0591 12.7421 14.8982 12.4512 14.6118C12.3086 14.47 12.1953 14.3014 12.1179 14.1158C12.0405 13.9302 12.0004 13.7311 12 13.53C12 13.1238 12.162 12.735 12.4518 12.4482C12.742 12.1607 13.1341 11.9996 13.5426 12C13.9518 12 14.3442 12.1614 14.634 12.4482C14.9238 12.735 15.0858 13.1238 15.0858 13.53Z" fill="white"/>
</svg>
