<svg width="67" height="65" viewBox="0 0 67 65" fill="none" xmlns="http://www.w3.org/2000/svg">
<path d="M30.3057 48.2012C34.4547 48.2014 37.6503 51.4656 37.6504 56.2207C37.6504 60.9759 34.4548 64.9997 30.3057 65C26.1566 64.9998 22.962 61.3138 22.9619 56.5586C22.962 51.8034 26.1566 48.2014 30.3057 48.2012ZM51.6631 48.2861C58.9225 48.2862 59.6845 53.2623 59.7666 56.3018C59.9013 61.2984 56.6433 63.477 54.9551 64.1523C52.4228 65.1651 48.4836 65.0526 46.6826 64.7432V49.126C48.2358 48.4476 50.6501 48.2835 51.6631 48.2861ZM15.502 48.3701C15.6123 48.3702 15.7021 48.4599 15.7021 48.5703V49.6895C15.7021 49.7998 15.6123 49.8895 15.502 49.8896H10.6338C10.6354 49.8998 10.6367 49.9103 10.6367 49.9209V64.3779C10.6367 64.4884 10.547 64.5781 10.4365 64.5781H9.31738C9.20693 64.5781 9.11719 64.4884 9.11719 64.3779V49.9209C9.11719 49.9103 9.11853 49.8998 9.12012 49.8896H4.25195C4.14169 49.8894 4.05273 49.7998 4.05273 49.6895V48.5703C4.05273 48.46 4.14169 48.3703 4.25195 48.3701H15.502ZM30.2217 49.7207C27.1143 49.7207 24.7218 52.7225 24.7217 56.6855C24.7217 60.6487 27.1143 63.7207 30.2217 63.7207C33.3288 63.7203 35.7216 60.3672 35.7217 56.4043C35.7216 52.4414 33.3288 49.721 30.2217 49.7207ZM51.4844 49.8896C50.7027 49.8876 49.6536 50.0189 48.4551 50.5615V63.0537C49.8447 63.3012 52.0704 63.391 54.0244 62.5811C55.3273 62.0408 57.8423 60.2976 57.7383 56.3008C57.6749 53.8696 57.0859 49.8898 51.4844 49.8896ZM55.1201 31.9092C56.3019 30.6711 59.5781 28.55 63.2246 29.9678C67.7827 31.7408 67.8669 40.4347 63.3086 40.6035H21.6914C21.185 42.7983 19.0917 46.766 13.4189 44.4023V41.6172C14.6851 42.2081 17.4538 42.8492 18.3994 40.6885C16.4859 40.829 12.7305 39.9112 12.3252 35.1172C12.1614 33.1756 13.1327 29.3937 17.0488 29.4609C21.9446 29.5453 21.8602 33.2596 21.6914 37.5645H51.7441L52.0811 37.1426V26.7598L55.1201 25.3242V31.9092ZM5.40332 29.8828C6.89467 30.5301 9.8429 32.7364 9.70801 36.3828C9.57294 40.0296 7.25994 40.6885 6.07812 40.6885H0L1.43555 37.5645H5.65625C6.75364 37.7333 7.34467 34.357 3.88379 32.3311L5.40332 29.8828ZM60.3574 32.499C57.4035 32.4159 54.9844 36.2711 55.04 37.6494L62.5527 37.7354C63.6494 37.7353 63.5656 37.479 63.5654 35.792C63.5647 32.8611 61.1162 32.499 60.3574 32.499ZM17.1357 32.416C15.8694 32.4162 15.5325 33.8515 15.5322 34.6113C15.4478 37.3124 17.3908 37.7066 18.4883 37.6504V34.6113C18.4882 33.7658 18.4117 32.4163 17.1357 32.416ZM44.9023 14.2793C46.0454 14.402 46.9355 15.3703 46.9355 16.5459C46.9351 17.8043 45.9147 18.8242 44.6562 18.8242C43.3978 18.8242 42.3774 17.8043 42.377 16.5459C42.377 15.992 42.5747 15.4839 42.9033 15.0889L36.8896 5.2334L30.626 15.3379C31.002 15.7443 31.2342 16.2857 31.2344 16.8828C31.2344 18.1416 30.2138 19.162 28.9551 19.1621C27.6963 19.1621 26.6758 18.1416 26.6758 16.8828C26.6761 15.7427 27.514 14.8004 28.6074 14.6328L36.4678 0L44.9023 14.2793ZM31.2344 7.93555L29.7148 9.37012L28.1953 6.92188L22.8457 15.3643C23.127 15.6781 23.2997 16.0915 23.2998 16.5459C23.2996 17.5247 22.5052 18.3182 21.5264 18.3184C20.5476 18.3182 19.7541 17.5247 19.7539 16.5459C19.754 15.6411 20.4319 14.895 21.3076 14.7871L21.2734 14.7725L27.9424 2.44824L31.2344 7.93555ZM28.9551 15.7861C28.3492 15.7861 27.8578 16.277 27.8574 16.8828C27.8574 17.4889 28.349 17.9805 28.9551 17.9805C29.5611 17.9804 30.0527 17.4889 30.0527 16.8828C30.0524 16.2771 29.5609 15.7862 28.9551 15.7861ZM44.6562 15.4482C44.0502 15.4483 43.5586 15.9398 43.5586 16.5459C43.559 17.1516 44.0505 17.6425 44.6562 17.6426C45.262 17.6425 45.7535 17.1516 45.7539 16.5459C45.7539 15.9398 45.2623 15.4483 44.6562 15.4482ZM21.5264 15.6924C21.0551 15.6925 20.673 16.0747 20.6729 16.5459C20.6731 17.017 21.0552 17.3993 21.5264 17.3994C21.9975 17.3993 22.3796 17.017 22.3799 16.5459C22.3797 16.0747 21.9976 15.6925 21.5264 15.6924Z" fill="black"/>
</svg>
