<svg width="171" height="66" viewBox="0 0 171 66" fill="none" xmlns="http://www.w3.org/2000/svg">
<g clip-path="url(#clip0_1_144)">
<path d="M32.5392 65.2414C50.51 65.2414 65.0783 50.6366 65.0783 32.6207C65.0783 14.6048 50.51 0 32.5392 0C14.5683 0 0 14.6048 0 32.6207C0 50.6366 14.5683 65.2414 32.5392 65.2414Z" fill="#A31D1D"/>
<path d="M32.5392 65.2414C50.51 65.2414 65.0783 50.6366 65.0783 32.6207C65.0783 14.6048 50.51 0 32.5392 0C14.5683 0 0 14.6048 0 32.6207C0 50.6366 14.5683 65.2414 32.5392 65.2414Z" fill="url(#paint0_linear_1_144)"/>
<path d="M48.7482 23.0971L43.103 26.3342L32.5104 20.2408L21.9812 26.3977L16.3359 23.0971L32.5104 13.7031L48.7482 23.0971Z" fill="white"/>
<path d="M32.5113 32.5512L16.3369 23.0938L16.2734 29.6314L26.9296 35.6613L32.5113 32.5512Z" fill="url(#paint1_linear_1_144)"/>
<path d="M16.3359 41.949L21.9811 38.712L32.5738 44.8053L43.103 38.6484L48.7482 41.949L32.5738 51.343L16.3359 41.949Z" fill="white"/>
<path d="M32.5703 32.4852L48.7448 41.9426L48.8081 35.4049L38.1521 29.375L32.5703 32.4852Z" fill="url(#paint2_linear_1_144)"/>
<path d="M158.677 19.6641V25.0498C158.677 25.5822 158.637 26.5677 158.558 28.0061L158.439 29.5522H158.71C159.863 27.6833 161.694 26.7489 164.202 26.7489C166.417 26.7489 168.1 27.3492 169.252 28.5498C170.415 29.7504 170.998 31.4721 170.998 33.7148V46.1004H165.828V35.006C165.828 32.2649 164.812 30.8944 162.779 30.8944C161.332 30.8944 160.287 31.3871 159.643 32.3726C158.999 33.3579 158.677 34.955 158.677 37.1637V46.1004H153.508V19.6641H158.677Z" fill="white"/>
<path d="M137.153 46.1004H131.984V19.6641H137.153V31.4551L136.882 35.7705H136.949L139.204 32.8822L144.508 27.1057H150.338L142.814 35.3457L150.796 46.1004H144.83L139.373 38.4039L137.153 40.1879V46.1004Z" fill="white"/>
<path d="M126.801 26.75C127.513 26.75 128.095 26.801 128.547 26.9029L128.157 31.7621C127.75 31.6488 127.242 31.5922 126.632 31.5922C124.983 31.5922 123.694 32.0169 122.768 32.8664C121.852 33.7159 121.395 34.9052 121.395 36.4343V46.1015H116.227V27.1068H120.141L120.903 30.3009H121.158C121.768 29.2136 122.559 28.3584 123.531 27.7355C124.525 27.0785 125.615 26.75 126.801 26.75Z" fill="white"/>
<path d="M110.802 46.1041H106.836L106.142 43.6745H105.871C105.317 44.5581 104.532 45.2433 103.514 45.7304C102.498 46.2061 101.34 46.4439 100.04 46.4439C97.826 46.4439 96.1485 45.8493 95.0071 44.66C93.8768 43.4707 93.3125 41.749 93.3125 39.495V27.1094H98.481V38.2038C98.481 39.5856 98.7238 40.6164 99.2103 41.2959C99.707 41.9756 100.481 42.3153 101.532 42.3153C102.978 42.3153 104.023 41.834 104.667 40.8712C105.311 39.9085 105.633 38.3001 105.633 36.046V27.1094H110.802V46.1041Z" fill="white"/>
<path d="M73.1641 40.0539C74.8814 40.8128 76.3106 41.3451 77.4518 41.6509C78.6042 41.9454 79.7057 42.0927 80.7565 42.0927C81.8185 42.0927 82.6546 41.8718 83.2648 41.4301C83.8748 40.9883 84.1799 40.3314 84.1799 39.4592C84.1799 38.9722 84.05 38.5474 83.7901 38.185C83.5303 37.8112 83.1292 37.4431 82.5868 37.0806C82.0558 36.7068 81.0051 36.1518 79.4346 35.4156C77.8642 34.6681 76.7061 33.9715 75.9603 33.3259C74.2995 31.8874 73.4691 30.0864 73.4691 27.9231C73.4691 25.7597 74.2091 24.0494 75.6892 22.7921C77.1806 21.5349 79.2369 20.9062 81.8581 20.9062C84.0613 20.9062 86.5133 21.4895 89.2134 22.6562L87.5187 26.7508C86.2422 26.2297 85.1629 25.856 84.2816 25.6295C83.4003 25.4029 82.5021 25.2896 81.5869 25.2896C80.6831 25.2896 79.9599 25.5218 79.4177 25.9862C78.8754 26.4393 78.6042 27.0453 78.6042 27.8041C78.6042 28.2685 78.7058 28.6762 78.9092 29.0274C79.1239 29.3672 79.4628 29.7013 79.9261 30.0299C80.4006 30.347 81.5191 30.9246 83.2817 31.7628C85.5864 32.8615 87.1682 33.9772 88.0266 35.1098C88.897 36.1972 89.3322 37.562 89.3322 39.2044C89.3322 41.4244 88.5242 43.197 86.9083 44.5223C85.2927 45.8021 83.1066 46.4421 80.3497 46.4421C77.593 46.4421 75.1978 45.9437 73.1641 44.947V40.0539Z" fill="white"/>
</g>
<defs>
<linearGradient id="paint0_linear_1_144" x1="12.7974" y1="15.2912" x2="36.3473" y2="46.5309" gradientUnits="userSpaceOnUse">
<stop stop-color="#FF2A2A"/>
<stop offset="1" stop-color="#D02525" stop-opacity="0"/>
</linearGradient>
<linearGradient id="paint1_linear_1_144" x1="19.8255" y1="27.6003" x2="16.3858" y2="25.8997" gradientUnits="userSpaceOnUse">
<stop stop-color="white"/>
<stop offset="1" stop-color="#E0E0E0"/>
</linearGradient>
<linearGradient id="paint2_linear_1_144" x1="45.2561" y1="37.4361" x2="48.6958" y2="39.1367" gradientUnits="userSpaceOnUse">
<stop stop-color="white"/>
<stop offset="1" stop-color="#E0E0E0"/>
</linearGradient>
<clipPath id="clip0_1_144">
<rect width="171" height="66" fill="white"/>
</clipPath>
</defs>
</svg>
