<svg width="60" height="60" viewBox="0 0 60 60" fill="none" xmlns="http://www.w3.org/2000/svg">
<circle cx="30" cy="30" r="29" stroke="white" stroke-width="2"/>
<path d="M41.6313 37.3852C41.6313 37.8052 41.538 38.2368 41.3397 38.6568C41.1413 39.0768 40.8847 39.4735 40.5463 39.8468C39.9747 40.4768 39.3447 40.9318 38.633 41.2235C37.933 41.5152 37.1747 41.6668 36.358 41.6668C35.168 41.6668 33.8963 41.3868 32.5547 40.8152C31.213 40.2435 29.8713 39.4735 28.5413 38.5052C27.1997 37.5252 25.928 36.4402 24.7147 35.2385C23.513 34.0252 22.428 32.7535 21.4597 31.4235C20.503 30.0935 19.733 28.7635 19.173 27.4452C18.613 26.1152 18.333 24.8435 18.333 23.6302C18.333 22.8368 18.473 22.0785 18.753 21.3785C19.033 20.6668 19.4763 20.0135 20.0947 19.4302C20.8413 18.6952 21.658 18.3335 22.5213 18.3335C22.848 18.3335 23.1747 18.4035 23.4663 18.5435C23.7697 18.6835 24.038 18.8935 24.248 19.1968L26.9547 23.0118C27.1647 23.3035 27.3163 23.5718 27.4213 23.8285C27.5263 24.0735 27.5847 24.3185 27.5847 24.5402C27.5847 24.8202 27.503 25.1002 27.3397 25.3685C27.188 25.6368 26.9663 25.9168 26.6863 26.1968L25.7997 27.1185C25.6713 27.2468 25.613 27.3985 25.613 27.5852C25.613 27.6785 25.6247 27.7602 25.648 27.8535C25.683 27.9468 25.718 28.0168 25.7413 28.0868C25.9513 28.4718 26.313 28.9735 26.8263 29.5802C27.3513 30.1868 27.9113 30.8052 28.518 31.4235C29.148 32.0418 29.7547 32.6135 30.373 33.1385C30.9797 33.6518 31.4813 34.0018 31.878 34.2118C31.9363 34.2352 32.0063 34.2702 32.088 34.3052C32.1813 34.3402 32.2747 34.3518 32.3797 34.3518C32.578 34.3518 32.7297 34.2818 32.858 34.1535L33.7447 33.2785C34.0363 32.9868 34.3163 32.7652 34.5847 32.6252C34.853 32.4618 35.1213 32.3802 35.413 32.3802C35.6347 32.3802 35.868 32.4268 36.1247 32.5318C36.3813 32.6368 36.6497 32.7885 36.9413 32.9868L40.803 35.7285C41.1063 35.9385 41.3163 36.1835 41.4447 36.4752C41.5613 36.7668 41.6313 37.0585 41.6313 37.3852Z" fill="white"/>
</svg>
