<svg width="140" height="44" viewBox="0 0 140 44" fill="none" xmlns="http://www.w3.org/2000/svg">
<path d="M0 7.88417C0 3.52983 3.24208 -6.10352e-05 7.24138 -6.10352e-05H132.759C136.758 -6.10352e-05 140 3.52983 140 7.88418V36.1157C140 40.4701 136.758 43.9999 132.759 43.9999H7.24138C3.24208 43.9999 0 40.47 0 36.1157V7.88417Z" fill="black"/>
<path d="M45.7632 14.4735C46.7224 14.4735 47.5125 14.1599 48.1191 13.5323C48.6496 12.9995 48.915 12.288 48.915 11.412C48.915 11.2579 48.9044 11.0954 48.8662 10.9261L48.8491 10.848H45.6643V11.7867H47.9043C47.8552 12.1859 47.728 12.5068 47.5247 12.7548L47.4246 12.8646C46.9857 13.2991 46.4298 13.5213 45.7632 13.5214C45.1386 13.5212 44.5977 13.3009 44.136 12.8683H44.1372C43.6846 12.4332 43.455 11.8643 43.4548 11.163C43.4548 10.4617 43.6833 9.89661 44.136 9.4613L44.1372 9.46252C44.5984 9.0254 45.138 8.80957 45.7632 8.80945C46.4607 8.80948 46.997 9.04017 47.3904 9.50037L47.46 9.58215L47.5369 9.50403L48.0776 8.96448L48.1423 8.901L48.0837 8.83264C47.8339 8.53402 47.4916 8.29388 47.0767 8.11853H47.0754C46.6594 7.94477 46.222 7.84999 45.7632 7.84998C44.9588 7.85008 44.2552 8.09611 43.6599 8.5824L43.4097 8.80579C42.7632 9.44007 42.4404 10.2273 42.4404 11.163C42.4406 12.0988 42.7632 12.8858 43.4097 13.525H43.4109C44.0555 14.1544 44.8438 14.4734 45.7632 14.4735ZM73.6343 14.4735C74.5639 14.4735 75.3482 14.1549 75.9792 13.514C76.6086 12.8747 76.9215 12.0879 76.9216 11.163C76.9216 10.2426 76.6075 9.46112 75.9731 8.81677H75.9744C75.3433 8.17044 74.559 7.85002 73.6343 7.84998C72.8162 7.85001 72.1142 8.09643 71.5286 8.58728L71.2832 8.81189C70.6541 9.45127 70.3408 10.2381 70.3408 11.163C70.3409 12.0879 70.6539 12.8747 71.2832 13.514C71.9144 14.1552 72.6993 14.4735 73.6343 14.4735ZM53.6831 13.381H50.8608V11.6305H53.406V10.693H50.8608V8.94373H53.6831V7.99036H49.8611V14.3331H53.6831V13.381ZM56.9473 14.2343H57.0474V8.94373H58.7795V7.99036H54.3154V8.94373H56.0476V14.3331H56.9473V14.2343ZM62.6638 7.99036H61.6653V14.3331H62.6638V7.99036ZM66.199 8.94373H67.9373V7.99036H63.4683V8.94373H65.2053V14.3331H66.199V8.94373ZM78.8369 10.4037L78.8101 9.526L81.8093 14.2867L81.8386 14.3331H82.8274V7.99036H81.8289V11.6903L81.8545 12.5643L78.998 8.03796L78.9688 7.99036H77.8433V14.2343H77.9434V14.3331H78.8369V10.4037ZM73.6343 13.5214C73.0737 13.5213 72.5943 13.3522 72.1877 13.0148L72.0181 12.8597C71.5797 12.4204 71.3553 11.8555 71.3552 11.163C71.3552 10.4703 71.5798 9.90556 72.0181 9.46619C72.4593 9.02539 72.9936 8.8046 73.6343 8.80457C74.2698 8.80461 74.8087 9.02493 75.2444 9.46497L75.2456 9.46619C75.6838 9.90555 75.9072 10.4703 75.9072 11.163C75.9071 11.8556 75.6839 12.4204 75.2456 12.8597H75.2444C74.8087 13.2999 74.2699 13.5213 73.6343 13.5214Z" fill="white"/>
<path d="M49.1536 31.9265C51.1901 31.9265 52.7203 31.2659 53.9229 30.0258C55.155 28.8051 55.539 27.0882 55.5391 25.7021C55.5391 25.2717 55.5024 24.8754 55.4377 24.5449H49.1536V26.3967H53.6189C53.4883 27.4318 53.1386 28.1929 52.6033 28.7233C51.9516 29.3639 50.9367 30.0746 49.1536 30.0746C46.4058 30.0746 44.2537 27.8776 44.2537 25.1552C44.2539 22.4331 46.406 20.2358 49.1536 20.2358C50.6391 20.2358 51.72 20.8111 52.5178 21.5566L53.8362 20.2516C52.7203 19.196 51.2354 18.3852 49.1536 18.3852C45.3857 18.3852 42.219 21.4223 42.2188 25.1552C42.2188 28.8884 45.3856 31.9265 49.1536 31.9265ZM87.1736 18.8503H85.2388V31.6616H87.1736V18.8503ZM102.381 26.8068H105.079C107.221 26.8068 109.323 25.2704 109.323 22.8273C109.323 20.3859 107.216 18.8503 105.079 18.8503H100.452V31.6616H102.381V26.8068ZM112.318 18.8503H110.383V31.6616H112.318V18.8503ZM102.381 20.6325H105.129C106.569 20.6325 107.392 21.8167 107.392 22.8273C107.392 23.8189 106.569 25.0246 105.129 25.0246H102.381V20.6325ZM116.591 31.9057C117.889 31.9057 118.606 31.3259 119.056 30.6508H119.122V31.6408H120.985V26.7263C120.985 24.4549 119.273 23.1838 117.055 23.1838C115.661 23.1838 114.211 23.7939 113.615 25.1454L115.328 25.8559C115.696 25.1453 116.374 24.9147 117.091 24.9147C118.091 24.9149 119.106 25.511 119.122 26.5627V26.697C118.773 26.4971 118.025 26.2014 117.105 26.2014C115.262 26.2016 113.383 27.2069 113.383 29.0834C113.383 30.8001 114.894 31.9057 116.591 31.9057ZM60.6147 31.9265C63.0482 31.9265 65.0298 30.0755 65.03 27.5685C65.03 25.0409 63.0483 23.2082 60.6147 23.2082C58.1802 23.2085 56.2007 25.0411 56.2007 27.5685C56.2009 30.0753 58.1803 31.9261 60.6147 31.9265ZM70.2473 31.9265C72.682 31.9265 74.6672 30.0755 74.6675 27.5685C74.6675 25.0409 72.6822 23.2082 70.2473 23.2082C67.8177 23.2083 65.8333 25.0409 65.8333 27.5685C65.8335 30.0754 67.8178 31.9264 70.2473 31.9265ZM79.7236 35.84C81.9914 35.8398 83.9045 34.518 83.9045 31.3015V23.4731H82.071V24.1799H82.0063C81.5719 23.67 80.7431 23.2082 79.6931 23.2082C77.4899 23.2083 75.4757 25.125 75.4756 27.582C75.4756 30.025 77.4898 31.9263 79.6931 31.9265C80.7429 31.9265 81.5718 31.4616 82.0063 30.9365H82.071V31.5615C82.071 33.2279 81.1728 34.1235 79.7236 34.1237C78.5419 34.1237 77.8083 33.2783 77.5056 32.5673L75.8235 33.2631C76.3085 34.4186 77.5929 35.84 79.7236 35.84ZM92.4714 31.9265C94.4925 31.9265 95.6587 30.7051 96.1384 29.9941L94.6382 29.0041C94.1378 29.7291 93.4567 30.2101 92.4714 30.2101C91.4927 30.2101 90.7901 29.7655 90.3401 28.8893L96.2251 26.476L96.0225 25.9804C95.659 25.0054 94.5375 23.2082 92.2542 23.2082C89.9913 23.2082 88.1074 24.9756 88.1074 27.5685C88.1077 30.0101 89.9721 31.9264 92.4714 31.9265ZM129.92 23.4645H127.774L125.556 29.0187H125.49L123.198 23.4645H121.116L124.561 31.2258L122.596 35.5446H124.613L129.92 23.4645ZM90.0227 27.4318C89.9725 25.7514 91.34 24.8904 92.3201 24.8903C93.0882 24.8903 93.7398 25.2711 93.957 25.8156L90.0227 27.4318ZM60.6147 30.2101C59.2807 30.2098 58.1308 29.1195 58.1306 27.5685C58.1306 25.9968 59.2805 24.926 60.6147 24.9257C61.9479 24.9257 63.0952 25.9966 63.0952 27.5685C63.095 29.1197 61.9478 30.2101 60.6147 30.2101ZM70.2473 30.2101C68.9143 30.2101 67.7671 29.1197 67.7668 27.5685C67.7668 25.9967 68.9142 24.9258 70.2473 24.9257C71.5805 24.9257 72.7327 25.9966 72.7327 27.5685C72.7324 29.1197 71.5803 30.2101 70.2473 30.2101ZM79.8591 30.2101C78.526 30.2101 77.4092 29.1039 77.4092 27.582C77.4093 26.046 78.526 24.9257 79.8591 24.9257C81.1727 24.9259 82.2077 26.0461 82.2078 27.582C82.2078 29.1038 81.1728 30.21 79.8591 30.2101ZM116.822 30.204C116.191 30.2038 115.312 29.8945 115.312 29.1201C115.312 28.1285 116.409 27.748 117.358 27.748C118.207 27.748 118.606 27.933 119.122 28.1777C118.971 29.364 117.939 30.204 116.822 30.204Z" fill="white"/>
<path d="M10.5598 8.64056C10.2559 8.95571 10.0801 9.44639 10.0801 10.0818V32.7475C10.0801 33.3829 10.2559 33.8736 10.5598 34.1888L10.6348 34.2579L23.4543 21.562V21.2622L10.6348 8.56625L10.5598 8.64056Z" fill="url(#paint0_linear_239_17825)"/>
<path d="M27.7235 25.797L23.4551 21.5629V21.2631L27.7287 17.029L27.8244 17.0841L32.8855 19.9371C34.3298 20.7468 34.3298 22.0792 32.8855 22.894L27.8244 25.7419L27.7235 25.797Z" fill="url(#paint1_linear_239_17825)"/>
<path d="M27.8205 25.7419L23.4512 21.413L10.5566 34.1896C11.0364 34.6893 11.8187 34.7495 12.7083 34.2498L27.8205 25.7419Z" fill="url(#paint2_linear_239_17825)"/>
<path d="M27.8205 17.0853L12.7083 8.57732C11.8187 8.0828 11.0364 8.14301 10.5566 8.64265L23.4512 21.4142L27.8205 17.0853Z" fill="url(#paint3_linear_239_17825)"/>
<defs>
<linearGradient id="paint0_linear_239_17825" x1="22.3161" y1="32.9835" x2="5.11657" y2="15.6236" gradientUnits="userSpaceOnUse">
<stop stop-color="#00A0FF"/>
<stop offset="0.0066" stop-color="#00A1FF"/>
<stop offset="0.2601" stop-color="#00BEFF"/>
<stop offset="0.5122" stop-color="#00D2FF"/>
<stop offset="0.7604" stop-color="#00DFFF"/>
<stop offset="1" stop-color="#00E3FF"/>
</linearGradient>
<linearGradient id="paint1_linear_239_17825" x1="34.7663" y1="21.4116" x2="9.73558" y2="21.4116" gradientUnits="userSpaceOnUse">
<stop stop-color="#FFE000"/>
<stop offset="0.4087" stop-color="#FFBD00"/>
<stop offset="0.7754" stop-color="#FFA500"/>
<stop offset="1" stop-color="#FF9C00"/>
</linearGradient>
<linearGradient id="paint2_linear_239_17825" x1="25.4446" y1="19.0597" x2="2.12059" y2="-4.48179" gradientUnits="userSpaceOnUse">
<stop stop-color="#FF3A44"/>
<stop offset="1" stop-color="#C31162"/>
</linearGradient>
<linearGradient id="paint3_linear_239_17825" x1="7.31082" y1="41.7316" x2="17.726" y2="31.2194" gradientUnits="userSpaceOnUse">
<stop stop-color="#32A071"/>
<stop offset="0.0685" stop-color="#2DA771"/>
<stop offset="0.4762" stop-color="#15CF74"/>
<stop offset="0.8009" stop-color="#06E775"/>
<stop offset="1" stop-color="#00F076"/>
</linearGradient>
</defs>
</svg>
