<svg width="36" height="36" viewBox="0 0 36 36" fill="none" xmlns="http://www.w3.org/2000/svg">
<path opacity="0.5" d="M29.6255 9.25503C31.1705 10.8083 32 12.5504 32 15.3745C32 20.3439 28.3145 24.7979 22.955 27L21.6155 25.0435C26.618 22.4821 27.596 19.1583 27.986 17.0626C27.1805 17.4574 26.126 17.5951 25.0925 17.5042C22.3865 17.2671 20.2535 15.1643 20.2535 12.5504C20.2535 11.2325 20.8066 9.9685 21.7912 9.03656C22.7758 8.10462 24.1111 7.58106 25.5035 7.58106C26.2735 7.58735 27.0345 7.7386 27.7422 8.02599C28.4499 8.31338 29.0901 8.73117 29.6255 9.25503ZM14.6255 9.25503C16.1705 10.8083 17 12.5504 17 15.3745C17 20.3439 13.3145 24.7979 7.955 27L6.6155 25.0435C11.618 22.4821 12.596 19.1583 12.986 17.0626C12.1805 17.4574 11.126 17.5951 10.0925 17.5042C7.3865 17.2671 5.2535 15.1643 5.2535 12.5504C5.2535 11.2325 5.80662 9.9685 6.79119 9.03656C7.77575 8.10462 9.11111 7.58106 10.5035 7.58106C11.2735 7.58735 12.0345 7.7386 12.7422 8.02599C13.4499 8.31338 14.0901 8.73117 14.6255 9.25503Z" fill="black"/>
</svg>
