<svg width="60" height="60" viewBox="0 0 60 60" fill="none" xmlns="http://www.w3.org/2000/svg">
<circle cx="30" cy="30" r="29" stroke="white" stroke-width="2"/>
<path d="M23.625 40.75C25.5 41.875 27.75 42.5 30 42.5C36.875 42.5 42.5 36.875 42.5 30C42.5 23.125 36.875 17.5 30 17.5C23.125 17.5 17.5 23.125 17.5 30C17.5 32.25 18.125 34.375 19.125 36.25L17.9404 40.806C17.7457 41.5549 18.4389 42.2317 19.183 42.0191L23.625 40.75Z" stroke="white" stroke-width="1.5" stroke-miterlimit="10" stroke-linecap="round" stroke-linejoin="round"/>
<path d="M35.625 33.5606C35.625 33.7631 35.5799 33.9713 35.4842 34.1738C35.3884 34.3763 35.2645 34.5675 35.1011 34.7475C34.8251 35.0513 34.5208 35.2706 34.1772 35.4113C33.8392 35.5519 33.473 35.625 33.0787 35.625C32.5041 35.625 31.89 35.49 31.2422 35.2144C30.5943 34.9388 29.9465 34.5675 29.3043 34.1006C28.6564 33.6281 28.0424 33.105 27.4565 32.5256C26.8763 31.9406 26.3523 31.3275 25.8848 30.6863C25.4228 30.045 25.051 29.4038 24.7806 28.7681C24.5102 28.1269 24.375 27.5137 24.375 26.9287C24.375 26.5462 24.4426 26.1806 24.5778 25.8431C24.713 25.5 24.9271 25.185 25.2257 24.9038C25.5862 24.5494 25.9805 24.375 26.3974 24.375C26.5551 24.375 26.7129 24.4088 26.8537 24.4763C27.0002 24.5438 27.1298 24.645 27.2312 24.7913L28.5381 26.6306C28.6395 26.7713 28.7128 26.9006 28.7635 27.0244C28.8142 27.1425 28.8423 27.2606 28.8423 27.3675C28.8423 27.5025 28.8029 27.6375 28.724 27.7669C28.6508 27.8962 28.5438 28.0312 28.4086 28.1662L27.9804 28.6106C27.9184 28.6725 27.8903 28.7456 27.8903 28.8356C27.8903 28.8806 27.8959 28.92 27.9072 28.965C27.9241 29.01 27.941 29.0437 27.9522 29.0775C28.0536 29.2631 28.2283 29.505 28.4762 29.7975C28.7297 30.09 29.0001 30.3881 29.293 30.6863C29.5972 30.9844 29.8901 31.26 30.1887 31.5131C30.4817 31.7606 30.7239 31.9294 30.9154 32.0306C30.9436 32.0419 30.9774 32.0587 31.0168 32.0756C31.0619 32.0925 31.107 32.0981 31.1577 32.0981C31.2534 32.0981 31.3267 32.0644 31.3886 32.0025L31.8168 31.5806C31.9576 31.44 32.0928 31.3331 32.2224 31.2656C32.352 31.1869 32.4815 31.1475 32.6224 31.1475C32.7294 31.1475 32.8421 31.17 32.966 31.2206C33.0899 31.2713 33.2195 31.3444 33.3604 31.44L35.225 32.7619C35.3715 32.8631 35.4729 32.9812 35.5349 33.1219C35.5912 33.2625 35.625 33.4031 35.625 33.5606Z" fill="white" stroke="white" stroke-width="0.5" stroke-miterlimit="10"/>
</svg>
