<svg width="78" height="78" viewBox="0 0 78 78" fill="none" xmlns="http://www.w3.org/2000/svg">
<path d="M7.41008 38.7131C7.40853 44.2768 8.86878 49.7093 11.6454 54.4976L7.14453 70.8578L23.9622 66.4678C28.6137 68.9887 33.8254 70.3097 39.1215 70.3101H39.1355C56.619 70.3101 70.851 56.1466 70.8585 38.738C70.8619 30.3023 67.565 22.3699 61.5749 16.4019C55.586 10.4345 47.6208 7.14643 39.1342 7.14258C21.6485 7.14258 7.41755 21.3052 7.41034 38.7131" fill="url(#paint0_linear_224_1118)"/>
<path d="M6.27586 38.7029C6.27405 44.4668 7.78664 50.0936 10.6623 55.0533L6 72L23.4206 67.4527C28.2206 70.0581 33.6249 71.4317 39.124 71.4338H39.1382C57.249 71.4338 71.9923 56.7609 72 38.7291C72.0031 29.9902 68.5876 21.7727 62.3836 15.591C56.1788 9.41002 47.9288 6.00359 39.1382 6C21.0243 6 6.28308 20.6708 6.27586 38.7029ZM16.6505 54.1992L16 53.1712C13.2657 48.8429 11.8224 43.841 11.8245 38.705C11.8302 23.7172 24.0825 11.5234 39.1485 11.5234C46.4446 11.5265 53.3014 14.358 58.4587 19.4953C63.6157 24.6332 66.4534 31.463 66.4516 38.727C66.4449 53.7148 54.1924 65.9102 39.1382 65.9102H39.1274C34.2256 65.9076 29.4181 64.5971 25.2256 62.1205L24.2279 61.5315L13.8901 64.2298L16.6505 54.1992Z" fill="url(#paint1_linear_224_1118)"/>
<path d="M30.926 25.033C30.3109 23.6719 29.6635 23.6445 29.0785 23.6206C28.5995 23.6 28.0519 23.6016 27.5048 23.6016C26.9572 23.6016 26.0675 23.8067 25.3155 24.6241C24.5627 25.4424 22.4414 27.4197 22.4414 31.4413C22.4414 35.463 25.3838 39.3499 25.794 39.8958C26.2047 40.4407 31.4744 48.9578 39.8203 52.2343C46.7565 54.9573 48.168 54.4157 49.6734 54.2792C51.179 54.1431 54.5316 52.3024 55.2156 50.3936C55.9 48.485 55.9001 46.8491 55.6948 46.5072C55.4896 46.1666 54.942 45.962 54.1209 45.5534C53.2998 45.1448 49.2627 43.167 48.5101 42.8941C47.7573 42.6216 47.21 42.4855 46.6624 43.304C46.1148 44.1212 44.5424 45.962 44.0631 46.5072C43.5843 47.0536 43.1051 47.1216 42.2842 46.7128C41.4625 46.3026 38.8182 45.4405 35.6809 42.656C33.2399 40.4892 31.5919 37.8135 31.1129 36.995C30.6339 36.1778 31.0616 35.7348 31.4734 35.3275C31.8423 34.9612 32.2947 34.3729 32.7057 33.8958C33.1151 33.4184 33.2517 33.0778 33.5255 32.5327C33.7996 31.987 33.6624 31.5096 33.4575 31.1008C33.2517 30.6919 31.6561 26.6492 30.926 25.033Z" fill="white"/>
<defs>
<linearGradient id="paint0_linear_224_1118" x1="3192.84" y1="6378.66" x2="3192.84" y2="7.14258" gradientUnits="userSpaceOnUse">
<stop stop-color="#1FAF38"/>
<stop offset="1" stop-color="#60D669"/>
</linearGradient>
<linearGradient id="paint1_linear_224_1118" x1="3306" y1="6606" x2="3306" y2="6" gradientUnits="userSpaceOnUse">
<stop stop-color="#F9F9F9"/>
<stop offset="1" stop-color="white"/>
</linearGradient>
</defs>
</svg>
