<svg width="36" height="36" viewBox="0 0 36 36" fill="none" xmlns="http://www.w3.org/2000/svg">
<circle cx="18" cy="18.5" r="16.5" stroke="white"/>
<path d="M14.4434 9.5L14.5605 9.51367C14.6753 9.54136 14.778 9.60931 14.8486 9.70703L19.3516 15.9414L25.6465 9.64648C25.8417 9.45124 26.1582 9.45126 26.3535 9.64648C26.5488 9.84173 26.5487 10.1582 26.3535 10.3535L19.9453 16.7617L26.4053 25.707C26.5152 25.8592 26.5307 26.0604 26.4453 26.2275C26.3598 26.3947 26.1878 26.5 26 26.5H21.5557C21.3951 26.5 21.2434 26.4231 21.1494 26.293L16.6475 20.0596L10.3535 26.3535C10.1582 26.5487 9.84173 26.5488 9.64649 26.3535C9.45126 26.1582 9.45124 25.8417 9.64649 25.6465L16.0547 19.2383L9.59473 10.293C9.48482 10.1408 9.46928 9.93962 9.55469 9.77246C9.64017 9.60528 9.81224 9.5 10 9.5H14.4434ZM21.8115 25.5H25.0215L18.8838 17.002C18.8818 16.9993 18.8808 16.9959 18.8789 16.9932L14.1875 10.5H10.9785L21.8115 25.5Z" fill="white"/>
</svg>
