<svg width="64" height="64" viewBox="0 0 64 64" fill="none" xmlns="http://www.w3.org/2000/svg">
<path d="M33.5713 12C35.478 12 36.6933 12.8316 37.3526 14.0117C37.8298 14.8664 37.9888 15.8545 37.9844 16.7363H40.2363L40.3711 16.749C40.6741 16.8076 40.91 17.062 40.9385 17.3799L41.4863 23.5039H60.2295C60.4542 23.504 60.6651 23.6118 60.7979 23.793C60.9306 23.9742 60.97 24.2077 60.9024 24.4219L57.9024 33.8965C57.874 33.986 57.828 34.0647 57.7715 34.1328L62.8154 36.0713C63.0964 36.1793 63.2783 36.4541 63.2676 36.7549C63.2566 37.0555 63.0554 37.3166 62.7676 37.4043L60.4444 38.1104L63.1074 41.3574C63.336 41.636 63.3179 42.0418 63.0654 42.2988L60.7324 44.668C60.4736 44.9307 60.056 44.9501 59.7744 44.7119L56.5528 41.9844L55.5625 44.75C55.4626 45.0286 55.1984 45.2149 54.9024 45.2168C54.6066 45.2185 54.3408 45.0358 54.2373 44.7588L51.8604 38.3789C51.7871 38.4136 51.7076 38.4397 51.6221 38.4473L24.9649 40.8164L24.9639 40.8154C24.0389 40.9274 22.7897 41.1697 21.8555 41.8311C21.3981 42.155 21.0253 42.5737 20.7949 43.1279C20.564 43.6837 20.4565 44.4244 20.6074 45.4219C20.7927 46.6449 21.7367 47.4274 22.9873 47.5205L23.2412 47.5293L23.2539 47.5303C23.5894 45.2393 25.537 43.4678 27.9072 43.4678C30.2767 43.4678 32.2232 45.2384 32.5596 47.5283H44.5811C44.9174 45.2383 46.8639 43.4678 49.2334 43.4678C51.6029 43.4678 53.5494 45.2384 53.8858 47.5283H58.2295L58.3731 47.543C58.6941 47.609 58.9356 47.8938 58.9356 48.2344C58.9354 48.5748 58.694 48.8588 58.3731 48.9248L58.2295 48.9395H53.8858C53.5497 51.2296 51.6031 52.9999 49.2334 53C46.8637 53 44.9172 51.2297 44.5811 48.9395H32.5596C32.2235 51.2296 30.2769 53 27.9072 53C25.5368 53 23.5892 51.2287 23.2539 48.9375L23.2412 48.9395L22.8779 48.9258C21.073 48.7861 19.5107 47.6065 19.2119 45.6328C19.0301 44.4312 19.1447 43.4233 19.4922 42.5869C19.7369 41.9981 20.0888 41.519 20.4971 41.1289L20.419 40.9033C19.5585 38.33 17.8693 32.1665 14.291 25.5605C10.8431 19.1956 4.92715 19.1646 1.31447 19.498C0.926728 19.5337 0.582702 19.2481 0.546893 18.8604C0.511218 18.4726 0.796889 18.1286 1.18459 18.0928C4.57667 17.7797 10.4882 17.7293 14.4473 23.165H26.2246L26.8731 17.3633C26.9132 17.0068 27.2146 16.7367 27.5733 16.7363H29.8272C29.8391 15.993 29.9888 15.0932 30.3428 14.2842C30.8535 13.1173 31.8598 12.0002 33.5713 12ZM27.9072 44.8799C26.0986 44.8799 24.6145 46.3712 24.6143 48.2344C24.6145 50.0975 26.0986 51.5898 27.9072 51.5898C29.7158 51.5898 31.2 50.0975 31.2002 48.2344C31.2 46.3713 29.7159 44.8799 27.9072 44.8799ZM49.2334 44.8799C47.4248 44.8799 45.9406 46.3712 45.9404 48.2344C45.9406 50.0975 47.4248 51.5898 49.2334 51.5898C51.042 51.5898 52.5262 50.0975 52.5264 48.2344C52.5262 46.3713 51.042 44.8799 49.2334 44.8799ZM54.8848 42.4551L55.5674 40.5518L55.6006 40.4727C55.6902 40.2945 55.8528 40.162 56.0479 40.1094C56.2711 40.0494 56.51 40.1018 56.6865 40.251L60.1856 43.2129L61.6133 41.7607L58.6856 38.1914C58.5364 38.0096 58.4867 37.7652 58.5547 37.54C58.6229 37.3149 58.7995 37.138 59.0244 37.0693L60.3955 36.6504L51.4404 33.21L54.8848 42.4551ZM15.5322 24.8887C19.0941 31.4643 20.8547 37.6985 21.7002 40.2803C22.8045 39.7092 24.0205 39.5084 24.8184 39.4131L24.8399 39.4111L51.3662 37.0527L49.5723 32.2373C49.4759 31.9778 49.5406 31.6861 49.7373 31.4912C49.9344 31.2962 50.2276 31.2346 50.4863 31.334L56.5283 33.6553C56.5308 33.594 56.5383 33.5319 56.5576 33.4707L59.2676 24.915H41.6133L42.2715 32.2676C42.289 32.4645 42.2232 32.6607 42.0899 32.8066C41.9564 32.9525 41.7671 33.0351 41.5694 33.0352H25.9082C25.7077 33.0352 25.5166 32.9502 25.3828 32.8008C25.2491 32.6512 25.1858 32.4513 25.208 32.252L26.0664 24.5771H15.3584C15.4168 24.6795 15.4751 24.7832 15.5322 24.8887ZM47.7315 33.5273C48.0048 33.2502 48.4511 33.2473 48.7285 33.5205C49.0058 33.7938 49.0095 34.2401 48.7363 34.5176L46.7363 36.5479C46.463 36.825 46.0167 36.8279 45.7393 36.5547C45.4622 36.2814 45.4593 35.835 45.7324 35.5576L47.7315 33.5273ZM48.042 31.3008C48.3634 31.3665 48.6065 31.6514 48.6065 31.9922C48.6064 32.3329 48.3634 32.6169 48.042 32.6826L47.9004 32.6973H45.2344C44.8451 32.6971 44.5294 32.3815 44.5293 31.9922C44.5293 31.6028 44.845 31.2863 45.2344 31.2861H47.9004L48.042 31.3008ZM26.6963 31.625H40.7979L39.5908 18.1475H28.2051L26.6963 31.625ZM46.4063 27.7676C46.6838 27.4945 47.1301 27.4981 47.4033 27.7754L49.4024 29.8057C49.6754 30.0831 49.6718 30.5295 49.3946 30.8027C49.1516 31.0416 48.7791 31.0688 48.5069 30.8857L48.3985 30.7949L46.3985 28.7646C46.1254 28.4872 46.1289 28.0408 46.4063 27.7676ZM54.3955 27.0986C54.6688 26.8213 55.1151 26.8177 55.3926 27.0908C55.67 27.3641 55.6737 27.8104 55.4004 28.0879L53.4014 30.1182C53.1281 30.3956 52.6818 30.3982 52.4043 30.125C52.127 29.8517 52.1233 29.4054 52.3965 29.1279L54.3955 27.0986ZM50.8994 25.873C51.2889 25.873 51.6054 26.1887 51.6055 26.5781V29.2852C51.6054 29.6746 51.2889 29.9902 50.8994 29.9902C50.5101 29.9901 50.1944 29.6745 50.1944 29.2852V26.5781C50.1944 26.1888 50.5101 25.8732 50.8994 25.873ZM37.2373 19.1045C37.6267 19.1047 37.9424 19.4212 37.9424 19.8105C37.9424 20.9648 37.9503 22.7037 37.4424 24.1104C37.1829 24.8289 36.7694 25.5186 36.1016 25.998C35.4231 26.4851 34.5585 26.7006 33.5069 26.6035C32.5252 26.5129 31.7406 26.1956 31.1426 25.6846C30.5477 25.176 30.1875 24.5179 29.9785 23.8291C29.57 22.482 29.7075 20.9029 29.875 19.7119C29.9295 19.3266 30.2855 19.0583 30.6709 19.1123C31.0565 19.1667 31.3258 19.5235 31.2715 19.9092C31.1059 21.0864 31.0161 22.3938 31.3272 23.4199C31.4782 23.9177 31.7158 24.3192 32.0586 24.6123C32.3984 24.9027 32.8933 25.1305 33.6367 25.1992C34.4173 25.2712 34.927 25.1054 35.2793 24.8525C35.6424 24.5919 35.9166 24.1811 36.1153 23.6309C36.5235 22.4999 36.5322 21.0247 36.5322 19.8105C36.5323 19.4212 36.848 19.1047 37.2373 19.1045ZM33.5713 13.4111C32.6179 13.4113 32.0136 13.9873 31.6358 14.8506C31.3614 15.4778 31.2493 16.1838 31.2373 16.7363H36.5733C36.578 16.0281 36.4513 15.2903 36.1221 14.7002C35.7261 13.9911 34.9965 13.4111 33.5713 13.4111Z" fill="white"/>
</svg>
