<svg width="64" height="64" viewBox="0 0 64 64" fill="none" xmlns="http://www.w3.org/2000/svg">
<path d="M33.0521 33.13L31.3141 19.8979" stroke="white" stroke-width="1.5"/>
<path d="M57.8358 19.6929L53.491 57.037C53.4464 57.4187 53.1281 57.7066 52.7495 57.7068H38.266V56.1895H52.0849L56.3519 19.5151L57.8358 19.6929Z" fill="white"/>
<path d="M58.2527 14.1401C58.6654 14.1401 59 14.4798 59 14.8988V19.6037C58.9999 20.0226 58.6653 20.3623 58.2527 20.3623H29.8656C29.4529 20.3623 29.1184 20.0226 29.1183 19.6037V14.8988C29.1183 14.4798 29.4529 14.1401 29.8656 14.1401H58.2527ZM30.613 18.8451H57.5053V15.6574H30.613V18.8451Z" fill="white"/>
<path d="M56.5831 7.33157L50.4156 10.7454L48.2038 15.238L47.5353 14.8992L46.8668 14.5594L49.2888 9.64205L49.4951 9.52845L55.8669 6L56.5831 7.33157Z" fill="white"/>
<path d="M29.9761 41.9036C31.0317 41.8022 31.7751 42.0852 32.4487 42.4647C33.1447 42.8567 33.5877 43.2182 34.3891 43.5582C35.1344 43.8743 36.1425 44.1331 37.6869 44.1331C39.1451 44.1331 40.2271 44.4229 40.9643 44.9599C41.7312 45.5186 42.055 46.2958 42.0551 47.0599C42.0551 47.7913 41.7619 48.4846 41.3545 48.9773C40.9888 49.4194 40.3775 49.8651 39.6633 49.7675H6.40297C5.51548 49.7675 4.86982 49.2754 4.48696 48.6464C4.11787 48.04 3.97226 47.2882 4.0043 46.6006C4.03599 45.9216 4.24833 45.1813 4.73607 44.6596C5.27396 44.0843 6.05523 43.8763 6.92844 44.1716C7.673 44.4235 8.42661 44.4533 9.05951 44.3711C9.71508 44.286 10.1591 44.0929 10.3109 43.9819C12.2101 42.5939 13.8204 42.0419 15.2941 42.0103C16.7522 41.979 17.9842 42.4622 19.0833 42.9457C20.2174 43.4446 21.1752 43.9225 22.2692 44.0965C23.3153 44.2629 24.5119 44.1482 26.0439 43.3369C27.7379 42.4397 28.9709 42.0002 29.9761 41.9036ZM30.1172 43.4139C29.4008 43.4828 28.3727 43.8153 26.7357 44.6823C24.9366 45.6351 23.4175 45.8145 22.0376 45.595C20.7058 45.3831 19.5272 44.7953 18.4888 44.3385C17.4155 43.8664 16.4388 43.5038 15.3262 43.5275C14.2292 43.5511 12.9063 43.9555 11.1847 45.2137C10.7571 45.5263 10.0419 45.7736 9.24927 45.8766C8.43402 45.9824 7.44956 45.9478 6.45649 45.6118C6.09363 45.489 5.93035 45.5859 5.82009 45.7037C5.65962 45.8753 5.51929 46.2172 5.498 46.6717C5.47718 47.1179 5.57853 47.553 5.75879 47.8492C5.92527 48.1225 6.13197 48.2503 6.40297 48.2503H39.7878L39.8608 48.2641C39.8301 48.2578 39.9767 48.2836 40.2101 48.0013C40.4182 47.7497 40.5604 47.3944 40.5604 47.0599C40.5603 46.7584 40.4485 46.4515 40.0934 46.1927C39.7082 45.912 38.9799 45.6504 37.6869 45.6503C35.9637 45.6504 34.7576 45.3585 33.813 44.9579C32.925 44.5812 32.2011 44.0607 31.7228 43.7913C31.2221 43.5092 30.783 43.35 30.1172 43.4139Z" fill="white"/>
<path d="M14.2487 37.1046C14.006 37.4435 13.5384 37.519 13.2046 37.2725C12.8709 37.0261 12.7975 36.5515 13.0402 36.2126L14.2487 37.1046ZM20.0873 31.8169C20.4817 31.6939 20.9001 31.9183 21.0215 32.3187C21.1428 32.7191 20.9206 33.1438 20.5262 33.267C16.8842 34.4046 14.9085 36.1837 14.2487 37.1046L13.6444 36.6581L13.0402 36.2126C13.9252 34.9772 16.1983 33.0316 20.0873 31.8169Z" fill="white"/>
<path d="M10.4169 33.7227C13.2215 30.148 17.8256 27.6366 24.4635 28.5555C30.3888 29.3758 33.9658 32.1939 36.0141 35.4869C38.0423 38.7479 38.5342 42.4115 38.4332 44.9225C38.4164 45.341 38.069 45.6665 37.6567 45.6495C37.2444 45.6324 36.9239 45.2797 36.9405 44.8612C37.0326 42.5696 36.5755 39.2319 34.7501 36.2969C32.9444 33.3939 29.762 30.8204 24.2611 30.0589C18.1541 29.2136 14.0675 31.5044 11.5856 34.668C9.06685 37.8787 8.18718 42.0067 8.59044 44.7812C8.65057 45.1955 8.3689 45.5813 7.96085 45.6426C7.55254 45.7037 7.17258 45.417 7.11231 45.0025C6.64659 41.7982 7.64928 37.2506 10.4169 33.7227Z" fill="white"/>
<path d="M38.9029 48.5457C39.3143 48.578 39.6226 48.943 39.5909 49.3607C39.3453 52.6022 38.1044 54.7509 36.5938 56.0985C35.1033 57.4281 33.3891 57.9424 32.2188 57.9991C32.2069 57.9996 32.1946 58 32.1828 58H15.0933C11.4046 58 9.09161 56.5811 7.75329 54.7097C6.44433 52.879 6.13077 50.7048 6.23721 49.2461C6.26783 48.8285 6.62575 48.515 7.03709 48.5457C7.44871 48.5767 7.75848 48.9409 7.72799 49.3587C7.64138 50.5462 7.90655 52.3415 8.96284 53.8186C9.99011 55.2552 11.8301 56.4828 15.0933 56.4828H32.1613C33.0197 56.4377 34.3958 56.0391 35.6071 54.9586C36.8048 53.8901 37.8823 52.1187 38.1001 49.2441C38.1318 48.8264 38.4914 48.5136 38.9029 48.5457Z" fill="white"/>
</svg>
