<svg width="64" height="64" viewBox="0 0 64 64" fill="none" xmlns="http://www.w3.org/2000/svg">
<path d="M10.5277 35.0055C11.3674 34.5124 12.4488 34.7993 12.933 35.6442L21.1986 50.07C21.6689 50.8911 21.4009 51.9368 20.5941 52.4313L15.1957 55.7409C14.3629 56.2512 13.2736 55.9805 12.7758 55.1403L4.2445 40.7331C3.75083 39.8993 4.02817 38.8224 4.86365 38.3317L10.5277 35.0055ZM11.6312 36.3903C11.5621 36.2696 11.4074 36.2281 11.2875 36.2985L5.62341 39.6256C5.50423 39.6958 5.46416 39.8494 5.53454 39.9684L14.0658 54.3756C14.1369 54.4957 14.2925 54.5343 14.4115 54.4616L19.8109 51.153C19.9262 51.0823 19.9641 50.9324 19.8968 50.8151L11.6312 36.3903Z" fill="white"/>
<path d="M27.9867 13.7173C27.9867 11.3832 26.1081 9.49951 23.8021 9.49951C21.4963 9.49974 19.6185 11.3833 19.6185 13.7173C19.6186 16.0511 21.4964 17.9348 23.8021 17.9351C26.108 17.9351 27.9866 16.0513 27.9867 13.7173ZM29.4867 13.7173C29.4866 16.8701 26.946 19.4351 23.8021 19.4351C20.6584 19.4348 18.1186 16.87 18.1185 13.7173C18.1185 10.5645 20.6583 7.99974 23.8021 7.99951C26.9461 7.99951 29.4867 10.5644 29.4867 13.7173Z" fill="white"/>
<path d="M39.7074 13.7173C39.7074 11.3832 37.8288 9.49951 35.5228 9.49951C33.217 9.49974 31.3392 11.3833 31.3392 13.7173C31.3393 16.0511 33.2171 17.9348 35.5228 17.9351C37.8287 17.9351 39.7073 16.0513 39.7074 13.7173ZM41.2074 13.7173C41.2073 16.8701 38.6667 19.4351 35.5228 19.4351C32.3791 19.4348 29.8393 16.87 29.8392 13.7173C29.8392 10.5645 32.379 7.99974 35.5228 7.99951C38.6668 7.99951 41.2074 10.5644 41.2074 13.7173Z" fill="white"/>
<path d="M51.4242 13.7173C51.4242 11.3832 49.5456 9.49951 47.2396 9.49951C44.9338 9.49974 43.056 11.3833 43.056 13.7173C43.0561 16.0511 44.9339 17.9348 47.2396 17.9351C49.5455 17.9351 51.4241 16.0513 51.4242 13.7173ZM52.9242 13.7173C52.9241 16.8701 50.3835 19.4351 47.2396 19.4351C44.0959 19.4348 41.5561 16.87 41.556 13.7173C41.556 10.5645 44.0958 7.99974 47.2396 7.99951C50.3836 7.99951 52.9242 10.5644 52.9242 13.7173Z" fill="white"/>
<path d="M47.8773 18.2121C49.8446 18.26 51.5189 18.9544 52.8656 19.9924C55.5249 22.0423 56.9359 25.4486 56.9359 27.9992V28.7492H14.9232C14.509 28.7492 14.1732 28.4134 14.1732 27.9992C14.1732 27.9442 14.1805 27.8908 14.1918 27.8391C14.179 27.7767 14.1704 27.7123 14.1742 27.6457C14.3595 24.4423 15.4172 21.0619 18.5482 19.5607C23.8517 17.0183 27.8696 18.7503 29.4369 20.1916L29.5804 20.3303L29.6322 20.3869C29.8714 20.6823 29.852 21.1172 29.5765 21.3908C29.2826 21.6824 28.8078 21.6807 28.516 21.3869C27.5024 20.3667 24.0831 18.5716 19.1967 20.9143C16.9535 21.9897 15.9576 24.4132 15.7084 27.2492H55.3871C55.1443 25.2345 53.9658 22.7344 51.9506 21.1809C50.8303 20.3174 49.4586 19.7505 47.8412 19.7111C46.22 19.6717 44.2968 20.1607 42.0795 21.5002C41.725 21.7143 41.2644 21.6007 41.0502 21.2463C40.836 20.8917 40.9495 20.4302 41.3041 20.216C43.7121 18.7614 45.9137 18.1644 47.8773 18.2121Z" fill="white"/>
<path d="M35.5257 18.2451C37.2281 18.2451 39.4947 18.8715 41.3792 20.3994C43.2291 21.8992 44.6853 24.2481 44.8939 27.6396L44.9095 27.9717L44.9085 28.0479C44.8841 28.4273 44.576 28.7338 44.1878 28.748C43.7739 28.7633 43.4257 28.4403 43.4105 28.0264C43.2951 24.8909 42.01 22.8416 40.4349 21.5645C38.8435 20.2741 36.9279 19.7507 35.5482 19.7451C32.0698 19.9854 29.9102 21.4103 28.596 23.0635C27.2587 24.7461 26.7628 26.7117 26.7162 28.0254C26.7015 28.4393 26.3537 28.7626 25.9398 28.748C25.526 28.7334 25.2017 28.3864 25.2162 27.9727C25.2724 26.3886 25.8559 24.1004 27.4222 22.1299C29.0085 20.1343 31.5697 18.5093 35.4759 18.2471L35.5003 18.2451H35.5257Z" fill="white"/>
<path d="M17.2689 32.9345C18.3229 32.2892 20.984 31.5852 24.3461 32.8739L39.4828 37.2274L39.5306 37.2489C40.1126 37.5093 40.8865 38.0703 41.4154 38.9423C41.9608 39.8415 42.2258 41.0425 41.7933 42.494C41.256 44.2974 40.132 45.1882 38.8812 45.5272C37.6996 45.8475 36.4727 45.6575 35.6849 45.4989C35.0596 45.373 33.5855 45.0353 31.9994 44.664L27.64 43.6308L27.5668 43.6093C27.2077 43.4839 26.9948 43.1042 27.0853 42.7265C27.1819 42.3237 27.5869 42.0753 27.9896 42.1718C30.1565 42.6912 34.7645 43.7843 35.9808 44.0292C36.7349 44.181 37.6662 44.3019 38.4886 44.079C39.2422 43.8747 39.9681 43.3675 40.3558 42.0663C40.6634 41.0343 40.4666 40.2692 40.1332 39.7196C39.7954 39.1628 39.2972 38.7984 38.9545 38.6356L23.9066 34.3075L23.8744 34.2987L23.8431 34.286C20.8414 33.1238 18.6451 33.8393 18.0375 34.2216L18.0228 34.2313L18.0082 34.2392L13.0736 37.0341C12.7133 37.2378 12.2562 37.111 12.0521 36.7509C11.848 36.3904 11.9749 35.9325 12.3353 35.7284L17.2689 32.9345Z" fill="white"/>
<path d="M54.9174 34.0497C56.3126 33.826 57.8807 34.0911 58.9593 35.6424C60.9271 38.4726 59.7241 41.1186 58.4535 41.9715L58.4291 41.9881L58.4037 42.0018L39.9662 52.3846L39.6927 52.3299L23.0257 48.9725L20.8129 50.3661C20.4623 50.5867 19.9993 50.4813 19.7787 50.1307C19.5581 49.7801 19.6635 49.3171 20.014 49.0965L22.4808 47.5438L22.7347 47.3846L23.0287 47.4442L39.7142 50.8036L57.6273 40.7166C58.2087 40.3135 59.2043 38.6225 57.7279 36.4989C57.0796 35.5665 56.1802 35.3657 55.1547 35.5301C54.0909 35.7007 53.0044 36.2602 52.2552 36.7127L52.2416 36.7205L41.4486 42.9305C41.0896 43.1369 40.6307 43.0131 40.4242 42.6541C40.2177 42.2951 40.3416 41.8363 40.7006 41.6297L51.4935 35.4207C52.2871 34.9424 53.5682 34.266 54.9174 34.0497Z" fill="white"/>
</svg>
