<svg width="64" height="64" viewBox="0 0 64 64" fill="none" xmlns="http://www.w3.org/2000/svg">
<path d="M40.1201 23.2715C43.6908 18.845 47.5191 17.7872 50.8281 18.5381C54.1458 19.2911 56.766 21.8301 57.8945 24.0918L58 24.3105L58.0107 24.3359C60.5224 30.3861 57.9204 36.4712 53.9189 41.4717C49.9014 46.4923 44.3251 50.622 40.4111 52.8975C40.1879 53.0272 39.9133 53.0337 39.6846 52.9141C28.4101 47.0026 22.7704 36.6227 21.3418 32.1045L22.0596 31.876L22.7773 31.6465C24.0986 35.8249 29.4126 45.6554 40.0127 51.374C43.7938 49.1228 48.9956 45.2088 52.7441 40.5244C56.6225 35.6777 58.8014 30.2084 56.6309 24.9443L56.4473 24.5762C55.4441 22.717 53.2251 20.6342 50.4951 20.0146C47.6837 19.3768 44.1362 20.2542 40.6426 25.0723C40.4879 25.2855 40.2326 25.4034 39.9707 25.3818C39.7091 25.3601 39.4782 25.2023 39.3604 24.9668C38.6643 23.5766 37.2097 21.7127 35.1543 20.6582C33.1464 19.6283 30.5028 19.3352 27.2656 21.1455L27.1963 21.1797C26.8456 21.3316 26.4301 21.1947 26.2402 20.8525C26.0379 20.4877 26.169 20.0276 26.5322 19.8242L26.875 19.6377C30.405 17.7867 33.4592 18.09 35.8389 19.3105C37.7643 20.2982 39.2084 21.8651 40.1201 23.2715ZM37.2471 27.7939C37.5539 27.8049 37.8228 28.0033 37.9277 28.293L41.2832 37.5566L44.252 30.6416L44.2998 30.5469C44.4272 30.3372 44.6507 30.2002 44.8994 30.1855C45.1838 30.1689 45.4532 30.3158 45.5957 30.5635L47.0967 33.1729H50.3789L50.4551 33.1768C50.8351 33.2154 51.1328 33.538 51.1328 33.9297C51.1327 34.3213 50.8351 34.643 50.4551 34.6816L50.3789 34.6855H46.6592C46.3903 34.6853 46.1413 34.5415 46.0068 34.3076L45.041 32.624L41.917 39.9062C41.7948 40.1908 41.5117 40.3722 41.2031 40.3633C40.8948 40.3542 40.6233 40.1571 40.5176 39.8662L37.1494 30.5674L34.1904 37.2266C34.0708 37.4955 33.8051 37.6697 33.5117 37.6738C33.2185 37.6778 32.9493 37.5105 32.8223 37.2451L31.5967 34.6855H28.3525C27.9365 34.6855 27.5997 34.3473 27.5996 33.9297C27.5996 33.512 27.9365 33.1729 28.3525 33.1729H32.0713L32.1787 33.1807C32.4248 33.2163 32.6412 33.3724 32.751 33.6016L33.4756 35.1172L36.5322 28.2422L36.5859 28.1416C36.7281 27.9194 36.9787 27.7844 37.2471 27.7939ZM14.9805 12C21.044 12.0004 25.9597 16.9351 25.96 23.0225C25.9598 26.2584 24.5695 29.1681 22.3574 31.1846C22.5504 31.2683 22.7085 31.4296 22.7773 31.6465L21.3418 32.1045C21.3328 32.0759 21.3258 32.0473 21.3203 32.0186C19.5292 33.2932 17.343 34.0448 14.9805 34.0449C8.91664 34.0449 4.00025 29.11 4 23.0225C4.00023 16.9349 8.91663 12 14.9805 12ZM14.9805 13.5127C9.74889 13.5127 5.50707 17.7704 5.50684 23.0225C5.50709 28.2745 9.7489 32.5322 14.9805 32.5322C20.2117 32.5319 24.4519 28.2743 24.4521 23.0225C24.4519 17.7706 20.2117 13.5131 14.9805 13.5127ZM17.3848 16.9902C17.6617 16.9907 17.8865 17.2161 17.8867 17.4941V20.4453H21.0547C21.3319 20.4454 21.5564 20.6709 21.5566 20.9492V24.75C21.5564 25.0283 21.3319 25.2548 21.0547 25.2549H17.8867V28.5508C17.8865 28.8288 17.6616 29.0542 17.3848 29.0547H13.3799C13.1026 29.0547 12.8772 28.8291 12.877 28.5508V25.5996H10.042C9.76457 25.5996 9.54004 25.3732 9.54004 25.0947V20.9492C9.54025 20.6709 9.7647 20.4453 10.042 20.4453H12.543V17.4941C12.5431 17.216 12.7679 16.9905 13.0449 16.9902H17.3848ZM13.5469 20.9492C13.5468 21.2277 13.3223 21.4541 13.0449 21.4541H10.5439V24.5908H13.3799C13.6567 24.5912 13.8814 24.8169 13.8818 25.0947V28.0459H16.8818V24.75C16.8821 24.4717 17.1075 24.2461 17.3848 24.2461H20.5527V21.4541H17.3848C17.1074 21.4541 16.8819 21.2277 16.8818 20.9492V17.999H13.5469V20.9492Z" fill="white"/>
</svg>
