<svg width="64" height="64" viewBox="0 0 64 64" fill="none" xmlns="http://www.w3.org/2000/svg">
<path d="M48.1157 38.3164L48.2109 38.3213C48.6817 38.3673 49.0496 38.7515 49.0496 39.2183C49.0496 39.6852 48.6817 40.0693 48.2109 40.1154L48.1157 40.1203H16.1897C15.6742 40.1203 15.2559 39.7162 15.2559 39.2183C15.2559 38.7204 15.6742 38.3164 16.1897 38.3164H48.1157Z" fill="white"/>
<path d="M20.4805 39.2187V21.7906C20.4805 21.2927 20.8988 20.8887 21.4143 20.8887C21.9298 20.8887 22.3482 21.2927 22.3482 21.7906V39.2187C22.348 39.7165 21.9298 40.1197 21.4143 40.1197C20.8989 40.1197 20.4806 39.7165 20.4805 39.2187Z" fill="white"/>
<path d="M41.957 39.2187V21.7906C41.957 21.2927 42.3754 20.8887 42.8909 20.8887C43.4064 20.8887 43.8247 21.2927 43.8247 21.7906V39.2187C43.8246 39.7165 43.4063 40.1197 42.8909 40.1197C42.3754 40.1197 41.9572 39.7165 41.957 39.2187Z" fill="white"/>
<path d="M48.3934 24.6173L48.4653 24.677C48.8088 24.9917 48.8564 25.5128 48.5605 25.8822C48.2647 26.2515 47.7305 26.3383 47.3289 26.0964L47.2509 26.0436L32.1493 14.7607L17.0477 26.0436C16.64 26.3482 16.0536 26.276 15.7381 25.8822C15.4227 25.4884 15.4975 24.922 15.9053 24.6173L32.1493 12.4814L48.3934 24.6173Z" fill="white"/>
<path d="M35.2814 38.9455V30.1444C35.2814 30.0892 35.2352 30.0448 35.1781 30.0446H29.1253C29.068 30.0446 29.022 30.089 29.022 30.1444V38.9455C29.022 39.4434 28.6037 39.8474 28.0881 39.8474C27.5726 39.8474 27.1543 39.4434 27.1543 38.9455V30.1444C27.1543 29.0932 28.037 28.2407 29.1253 28.2407H35.1781C36.2662 28.241 37.1481 29.0934 37.1481 30.1444V38.9455C37.1481 39.4432 36.7306 39.8472 36.2152 39.8474C35.6997 39.8474 35.2814 39.4434 35.2814 38.9455Z" fill="white"/>
<path d="M52.9928 7C54.6621 7.00015 56.0117 8.31365 55.9999 9.92588L55.7396 45.6527C55.7277 47.2624 54.3625 48.5557 52.696 48.5366L31.6561 48.292L22.9537 56.4583C21.7043 57.6304 19.6103 56.775 19.6103 55.0927V48.2881H11.0082C9.34708 48.2881 8.00008 46.988 8 45.3837V9.90534C8 8.30098 9.34702 7 11.0082 7H52.9928ZM9.86769 45.3837C9.86778 45.9922 10.3781 46.4852 11.0082 46.4852H20.5431C21.0586 46.4852 21.477 46.8892 21.477 47.3871C21.477 47.4334 21.4718 47.4787 21.4648 47.5231C21.4718 47.5675 21.477 47.6128 21.477 47.6591V55.0927C21.477 55.1271 21.4857 55.1419 21.4911 55.1494C21.4995 55.1608 21.5153 55.1756 21.5398 55.1856C21.5642 55.1955 21.5862 55.1965 21.6005 55.1944C21.6099 55.1929 21.6276 55.189 21.6532 55.165L30.6321 46.7405L30.9076 46.4813L31.2935 46.4852L52.7183 46.7337C53.3503 46.7409 53.8683 46.2504 53.8729 45.64L54.1332 9.91316C54.1377 9.30168 53.6259 8.804 52.9928 8.80385H11.0082C10.3781 8.80385 9.86769 9.29679 9.86769 9.90534V45.3837Z" fill="white"/>
</svg>
