<svg width="64" height="64" viewBox="0 0 64 64" fill="none" xmlns="http://www.w3.org/2000/svg">
<path d="M21.8281 27.2949C22.2425 27.295 22.5781 27.6335 22.5781 28.0517V29.8457H23.6191C25.1386 29.8458 26.3701 31.0886 26.3701 32.6221V48.5644C26.3701 50.0979 25.1386 51.3407 23.6191 51.3408H23.4766L24.0605 53.2578C24.1857 53.3931 24.2637 53.5737 24.2637 53.7734C24.2637 53.8127 24.2587 53.851 24.2529 53.8887L25.2842 57.2695C25.406 57.6691 25.1838 58.0936 24.7881 58.2168C24.392 58.3398 23.9716 58.1154 23.8496 57.7158L22.8779 54.5303H10.5635L9.5918 57.7158C9.46989 58.1153 9.05018 58.3394 8.6543 58.2168C8.25835 58.0937 8.03538 57.6692 8.15723 57.2695L9.96484 51.3408H9.50684C7.98731 51.3408 6.75491 50.0979 6.75488 48.5644V32.6221C6.75488 31.0885 7.9873 29.8457 9.50684 29.8457H10.7568V28.0517C10.7568 27.6335 11.0934 27.2949 11.5078 27.2949H21.8281ZM52.2646 28.5703C53.7841 28.5704 55.0156 29.8132 55.0156 31.3467V36.3047C56.5822 36.6509 57.7549 38.0594 57.7549 39.7441V43.0381C57.7549 43.1083 57.7447 43.1785 57.7256 43.2461C57.5923 43.7169 57.2137 44.0273 56.8672 44.1924C56.499 44.3676 56.0447 44.4436 55.582 44.3603C55.3844 44.3247 55.195 44.262 55.0156 44.1738V51.1162C55.0155 52.3869 54.1691 53.4553 53.0146 53.7851V55.6865C53.0144 56.1045 52.6788 56.4432 52.2646 56.4433H49.4209C49.0068 56.4431 48.6711 56.1044 48.6709 55.6865V53.8926H39.9561V55.6865C39.9558 56.1045 39.6194 56.4433 39.2051 56.4433H36.3623C35.948 56.4433 35.6125 56.1045 35.6123 55.6865V53.7539C34.5119 53.3907 33.7159 52.348 33.7158 51.1162V44.1738C33.5367 44.2618 33.3478 44.3248 33.1504 44.3603C32.6877 44.4436 32.2334 44.3676 31.8652 44.1924C31.5188 44.0273 31.1401 43.7168 31.0068 43.2461C30.9877 43.1785 30.9775 43.1083 30.9775 43.0381V39.7441C30.9775 38.0598 32.1499 36.6513 33.7158 36.3047V31.3467C33.7158 29.8131 34.9482 28.5703 36.4678 28.5703H52.2646ZM37.1123 54.9287H38.4551V53.8926H37.1123V54.9287ZM50.1719 54.9287H51.5137V53.8926H50.1719V54.9287ZM11.0254 53.0156H22.416L21.9053 51.3408H19.2344C19.2217 51.3414 19.2091 51.3427 19.1963 51.3428C19.1833 51.3428 19.17 51.3415 19.1572 51.3408H14.1797C14.1667 51.3415 14.1537 51.3428 14.1406 51.3428C14.1275 51.3428 14.1145 51.3415 14.1016 51.3408H11.5361L11.0254 53.0156ZM36.4678 30.0849C35.7771 30.0849 35.2168 30.6496 35.2168 31.3467V51.1162C35.2169 51.8131 35.7772 52.3779 36.4678 52.3779H52.2646C52.9552 52.3778 53.5145 51.8131 53.5146 51.1162V31.3467C53.5146 30.6497 52.9553 30.085 52.2646 30.0849H36.4678ZM45.7354 48.1269C46.7895 48.1271 47.6445 48.9898 47.6445 50.0537C47.6443 51.1174 46.7893 51.9793 45.7354 51.9795H42.9971C41.9431 51.9793 41.0881 51.1173 41.0879 50.0537C41.0879 48.9899 41.943 48.1271 42.9971 48.1269H45.7354ZM42.9971 49.6416C42.7718 49.6418 42.5889 49.8263 42.5889 50.0537C42.5891 50.2809 42.772 50.4646 42.9971 50.4648H45.7354C45.9605 50.4647 46.1433 50.2809 46.1436 50.0537C46.1436 49.8263 45.9606 49.6417 45.7354 49.6416H42.9971ZM9.50684 31.3594C8.81614 31.3594 8.25586 31.925 8.25586 32.6221V48.5644C8.25589 49.2615 8.81615 49.8262 9.50684 49.8262H13.3906V47.8213C13.3906 47.403 13.7262 47.0635 14.1406 47.0635H19.1963C19.6105 47.0637 19.9463 47.4032 19.9463 47.8213V49.8262H23.6191C24.3097 49.8261 24.8701 49.2614 24.8701 48.5644V45.8926C24.6751 47.0483 23.6722 47.9294 22.4609 47.9297C21.1099 47.9297 20.014 46.8344 20.0137 45.4834C20.0137 44.1321 21.1097 43.0361 22.4609 43.0361C23.6721 43.0364 24.675 43.9175 24.8701 45.0732V32.6221C24.8701 31.925 24.3098 31.3594 23.6191 31.3594H9.50684ZM14.8906 49.8262H18.4453V48.5781H14.8906V49.8262ZM38.2578 44.7363C39.6089 44.7365 40.7041 45.8325 40.7041 47.1836C40.7038 48.5344 39.6087 49.6287 38.2578 49.6289C36.9069 49.6287 35.8118 48.5344 35.8115 47.1836C35.8115 45.8325 36.9067 44.7365 38.2578 44.7363ZM50.2646 44.7363C51.6155 44.7367 52.71 45.8326 52.71 47.1836C52.7097 48.5343 51.6154 49.6285 50.2646 49.6289C48.9136 49.6289 47.8177 48.5346 47.8174 47.1836C47.8174 45.8323 48.9134 44.7363 50.2646 44.7363ZM38.2578 46.2441C37.7394 46.2443 37.3184 46.6651 37.3184 47.1836C37.3187 47.7018 37.7396 48.1219 38.2578 48.1221C38.7761 48.1219 39.196 47.7018 39.1963 47.1836C39.1963 46.6651 38.7762 46.2443 38.2578 46.2441ZM50.2646 46.2441C49.7461 46.2441 49.3252 46.665 49.3252 47.1836C49.3255 47.7019 49.7463 48.1221 50.2646 48.1221C50.7827 48.1217 51.2019 47.7017 51.2021 47.1836C51.2021 46.6652 50.7829 46.2445 50.2646 46.2441ZM10.876 43.0361C12.227 43.0363 13.3223 44.1323 13.3223 45.4834C13.322 46.8342 12.2269 47.9295 10.876 47.9297C9.52498 47.9296 8.429 46.8343 8.42871 45.4834C8.42871 44.1322 9.5248 43.0362 10.876 43.0361ZM10.876 44.5439C10.3574 44.544 9.93652 44.9648 9.93652 45.4834C9.93681 46.0017 10.3576 46.4218 10.876 46.4219C11.3942 46.4217 11.8142 46.0016 11.8145 45.4834C11.8145 44.9649 11.3944 44.5441 10.876 44.5439ZM22.4609 44.5439C21.9424 44.5439 21.5215 44.9648 21.5215 45.4834C21.5218 46.0017 21.9425 46.4219 22.4609 46.4219C22.9791 46.4216 23.3991 46.0016 23.3994 45.4834C23.3994 44.965 22.9793 44.5442 22.4609 44.5439ZM51.5273 31.2265C51.9417 31.2267 52.2783 31.5662 52.2783 31.9844V35.9697C52.2783 40.4675 48.6647 44.1141 44.208 44.1142C39.7514 44.114 36.1387 40.4675 36.1387 35.9697V31.9844C36.1387 31.5661 36.4743 31.2265 36.8887 31.2265H51.5273ZM33.7158 37.8867C32.9902 38.1859 32.4785 38.9044 32.4785 39.7441V42.8056C32.4868 42.8103 32.4952 42.8172 32.5059 42.8222C32.605 42.8694 32.7439 42.8957 32.8867 42.8701C33.0874 42.834 33.5341 42.6407 33.7158 41.5888V37.8867ZM55.0156 41.583C55.1967 42.6396 55.6445 42.8338 55.8457 42.8701C55.9885 42.8958 56.1284 42.8695 56.2275 42.8222C56.238 42.8172 56.2467 42.8102 56.2549 42.8056V39.7441C56.2549 38.9038 55.742 38.1845 55.0156 37.8857V41.583ZM37.6387 35.9697C37.6387 39.631 40.5802 42.5994 44.208 42.5996C47.8359 42.5994 50.7773 39.631 50.7773 35.9697V32.7412H37.6387V35.9697ZM23.0918 32.6094C23.5062 32.6094 23.8417 32.948 23.8418 33.3662V39.956C23.8418 40.3743 23.5062 40.7138 23.0918 40.7138H10.2441C9.82973 40.7138 9.49318 40.3743 9.49316 39.956V33.3662C9.49326 32.948 9.82978 32.6094 10.2441 32.6094H23.0918ZM10.9941 39.1992H22.3418V34.124H10.9941V39.1992ZM12.2578 29.8457H21.0781V28.8086H12.2578V29.8457ZM29.6182 6.28123C29.7894 6.22986 29.9735 6.24228 30.1367 6.31541L39.3604 10.4521L43.3252 9.35936C43.3318 9.35753 43.339 9.35516 43.3457 9.3535C44.0827 9.17258 45.2828 9.06009 46.4785 9.21873C47.6544 9.3748 48.9993 9.81721 49.8115 10.9101C50.2555 11.5075 50.5374 12.1167 50.5811 12.7304C50.6267 13.3724 50.4045 13.9315 50.0078 14.3799C49.6277 14.8091 49.0987 15.1269 48.5186 15.3681C47.9385 15.6093 47.2611 15.7923 46.5273 15.9306L42.6484 16.834L34.1699 25.914C34.0725 26.0184 33.9472 26.0924 33.8096 26.1279L28.8594 27.4043C28.5631 27.4805 28.2504 27.3668 28.0693 27.1181C27.8885 26.8693 27.8753 26.534 28.0361 26.2715L32.0088 19.7871L27.1738 21.0273C27.1686 21.0287 27.1625 21.03 27.1572 21.0312C25.7586 21.3569 24.2438 21.5687 22.7842 21.167C21.2852 20.7543 19.9518 19.7265 18.8604 17.7988C18.8573 17.7933 18.8536 17.7877 18.8506 17.7822L16.6396 13.6367C16.53 13.431 16.5198 13.1853 16.6133 12.9717C16.7069 12.7581 16.8937 12.5996 17.1182 12.5429L19.6455 11.9062L19.7197 11.8916C19.8935 11.8662 20.072 11.9029 20.2227 11.9971L24.3672 14.5859L30.5098 12.8916L25.4629 8.76463C25.2469 8.58768 25.146 8.30375 25.2002 8.0283C25.2546 7.75309 25.4552 7.5313 25.7217 7.45115L29.6182 6.28123ZM46.2822 10.7207C45.2755 10.5872 44.2631 10.6873 43.7012 10.8252L43.7002 10.8242L39.6016 11.9541C39.5422 11.9793 39.4801 11.9966 39.416 12.0058L24.4492 16.1347C24.2483 16.1901 24.0326 16.1585 23.8555 16.0478L19.7012 13.4521L18.418 13.7754L20.1709 17.0615C21.0993 18.6949 22.1322 19.4179 23.1787 19.706C24.2676 20.0057 25.4809 19.8666 26.8203 19.5547L33.4385 17.8584C33.7349 17.7824 34.0486 17.8957 34.2295 18.1445C34.4101 18.3934 34.4235 18.7288 34.2627 18.9912L30.29 25.4717L33.2275 24.7138L41.7139 15.6289L41.7959 15.5537C41.8825 15.4849 41.9835 15.4344 42.0918 15.4092L46.1982 14.4531C46.2088 14.4506 46.2198 14.4483 46.2305 14.4463C46.9089 14.3195 47.4871 14.159 47.9473 13.9678C48.4134 13.7739 48.7149 13.5662 48.8877 13.3711C49.0434 13.1952 49.0976 13.0302 49.084 12.8388C49.0733 12.6887 49.0165 12.4858 48.8721 12.2236L44.6846 13.4736C44.2873 13.592 43.8695 13.3627 43.752 12.9619C43.6346 12.5609 43.8616 12.1392 44.2588 12.0205L47.5361 11.0429C47.1666 10.8907 46.743 10.7818 46.2822 10.7207ZM27.5146 8.49217L32.293 12.4004L37.0723 11.083L29.7793 7.8115L27.5146 8.49217Z" fill="white"/>
</svg>
