<svg width="48" height="48" viewBox="0 0 48 48" fill="none" xmlns="http://www.w3.org/2000/svg">
<path d="M23.7139 3.61304C24.0852 3.59337 33.5199 3.31072 39.6396 6.87769C40.7159 7.50516 41.3857 8.68003 41.3857 9.94897L41.3877 24.4548C41.3877 28.6206 39.8414 32.5588 37.0312 35.5369C33.8482 38.9108 30.0302 41.7349 25.6895 43.9265V43.9285C25.0655 44.2431 24.3793 44.4001 23.6953 44.4001C23.0096 44.4001 22.324 44.243 21.7002 43.9285C17.3579 41.7349 13.5416 38.9126 10.3584 35.5369C7.54819 32.5569 6.00003 28.6224 6 24.4548V9.94897C6.00003 8.6801 6.66817 7.50516 7.74609 6.87769C13.8702 3.30922 23.3144 3.59536 23.7139 3.61304ZM23.0771 4.80933C20.8536 4.80933 13.3026 5.02879 8.34863 7.91675C7.64188 8.32865 7.2002 9.10782 7.2002 9.94897V24.4529C7.20021 28.3129 8.63349 31.9561 11.2334 34.7097C14.3174 37.9846 18.0222 40.7228 22.2393 42.8542C23.1511 43.3119 24.2346 43.3116 25.1465 42.8523C29.3616 40.7226 33.0664 37.9829 36.1523 34.7097C38.7523 31.9578 40.1846 28.3112 40.1846 24.4529V9.94897C40.1846 9.10766 39.7421 8.33033 39.0352 7.91675C33.2147 4.52693 23.8141 4.81408 23.7119 4.81616C23.6943 4.81616 23.466 4.80933 23.0771 4.80933ZM24.3926 7.1394C28.4155 7.1394 33.98 7.82579 37.5361 9.74878C37.732 9.85309 37.8522 10.0572 37.8506 10.2761V24.4548C37.8506 27.7157 36.6451 30.7896 34.457 33.1121C31.5585 36.1875 28.0725 38.7644 24.0957 40.7722C24.0499 40.7933 24.0026 40.8114 23.9551 40.822C23.9109 40.8326 23.7378 40.8639 23.6934 40.864C23.6033 40.864 23.3842 40.815 23.3027 40.7761C19.3188 38.7649 15.8319 36.1872 12.9297 33.1101C10.7417 30.7877 9.53621 27.7146 9.53613 24.4539V10.2771C9.53613 10.0579 9.6562 9.85307 9.85059 9.74878C13.4065 7.82404 18.9705 7.13941 22.9932 7.1394C23.3307 7.1394 23.6774 7.14838 23.7109 7.15015C23.7183 7.14992 24.0606 7.13941 24.3926 7.1394ZM23.7119 8.35229C23.6678 8.35223 23.3261 8.34156 22.9932 8.34155C19.239 8.34155 14.1078 8.95185 10.7373 10.6433L10.7393 24.4539C10.7393 27.4056 11.8299 30.1878 13.8076 32.2839C16.5788 35.2249 19.9034 37.6923 23.6943 39.6257C27.4854 37.6919 30.8125 35.2231 33.582 32.2839C35.5597 30.1895 36.6503 27.4054 36.6504 24.4539L36.6484 10.6433C33.278 8.9519 28.1484 8.34155 24.3926 8.34155C24.0586 8.34156 23.7154 8.35229 23.7119 8.35229ZM28.0869 16.9529C29.0643 15.9808 30.6521 15.979 31.626 16.9529C32.5994 17.9285 32.5989 19.5173 31.627 20.491L23.3604 28.7585C22.8885 29.2303 22.2598 29.4909 21.5918 29.491C20.9219 29.491 20.2922 29.2305 19.8203 28.7585L15.7656 24.7039C14.7922 23.7283 14.792 22.1395 15.7656 21.1658C16.7412 20.1902 18.3273 20.1937 19.3047 21.1658L21.5918 23.4509L28.0869 16.9529ZM30.7734 17.8044C30.2645 17.3008 29.4391 17.3021 28.9336 17.8054L22.0137 24.7332C21.7857 24.9558 21.3873 24.9558 21.1611 24.7332L18.4502 22.0212C18.2064 21.7757 17.8795 21.6394 17.5332 21.6394C17.1852 21.6394 16.8599 21.7757 16.6143 22.0212C16.3686 22.2634 16.2324 22.5928 16.2324 22.9392C16.2325 23.2855 16.3687 23.6124 16.6143 23.8562L20.6689 27.9109C21.1586 28.4019 22.0174 28.4038 22.5068 27.9109L30.7734 19.6443C31.2788 19.1371 31.2787 18.3117 30.7734 17.8044Z" fill="white"/>
<path d="M23.7139 3.61304L23.7072 3.76289L23.7145 3.76321L23.7218 3.76283L23.7139 3.61304ZM39.6396 6.87769L39.7152 6.7481L39.7152 6.74809L39.6396 6.87769ZM41.3857 9.94897L41.2357 9.94898L41.2357 9.94899L41.3857 9.94897ZM41.3877 24.4548L41.5377 24.4548L41.5377 24.4548L41.3877 24.4548ZM37.0312 35.5369L36.9222 35.4339L36.9221 35.4339L37.0312 35.5369ZM25.6895 43.9265L25.6218 43.7926L25.5395 43.8342V43.9265H25.6895ZM25.6895 43.9285L25.757 44.0624L25.8395 44.0208V43.9285H25.6895ZM23.6953 44.4001L23.6953 44.5501H23.6953V44.4001ZM21.7002 43.9285L21.6326 44.0624L21.6327 44.0624L21.7002 43.9285ZM10.3584 35.5369L10.4675 35.434L10.4675 35.434L10.3584 35.5369ZM6 24.4548L5.85 24.4548L5.85 24.4548L6 24.4548ZM6 9.94897L5.85 9.94897V9.94897H6ZM7.74609 6.87769L7.82156 7.00732L7.82161 7.00729L7.74609 6.87769ZM23.0771 4.80933L23.0771 4.65933L23.0771 4.65933L23.0771 4.80933ZM8.34863 7.91675L8.42416 8.04634L8.42418 8.04634L8.34863 7.91675ZM7.2002 24.4529L7.0502 24.4529L7.0502 24.4529L7.2002 24.4529ZM11.2334 34.7097L11.3426 34.6069L11.3425 34.6067L11.2334 34.7097ZM22.2393 42.8542L22.1716 42.9881L22.172 42.9883L22.2393 42.8542ZM25.1465 42.8523L25.214 42.9863L25.2141 42.9862L25.1465 42.8523ZM36.1523 34.7097L36.0433 34.6067L36.0432 34.6068L36.1523 34.7097ZM40.1846 24.4529L40.3346 24.4529V24.4529H40.1846ZM40.1846 9.94897L40.3346 9.94897L40.3346 9.94897L40.1846 9.94897ZM39.0352 7.91675L39.1109 7.78727L39.1106 7.78713L39.0352 7.91675ZM23.7119 4.81616V4.96619L23.715 4.96613L23.7119 4.81616ZM24.3926 7.1394L24.3926 6.9894L24.3926 6.9894L24.3926 7.1394ZM37.5361 9.74878L37.4648 9.88073L37.4656 9.88118L37.5361 9.74878ZM37.8506 10.2761L37.7006 10.275V10.2761H37.8506ZM34.457 33.1121L34.5662 33.2149L34.5662 33.2149L34.457 33.1121ZM24.0957 40.7722L24.1586 40.9085L24.1633 40.9061L24.0957 40.7722ZM23.9551 40.822L23.9225 40.6756L23.9201 40.6762L23.9551 40.822ZM23.6934 40.864L23.6934 41.014L23.6936 41.014L23.6934 40.864ZM23.3027 40.7761L23.2351 40.9101L23.2382 40.9115L23.3027 40.7761ZM12.9297 33.1101L12.8205 33.213L12.8206 33.213L12.9297 33.1101ZM9.53613 24.4539L9.38613 24.4539L9.38613 24.4539L9.53613 24.4539ZM9.85059 9.74878L9.9215 9.88096L9.92199 9.88069L9.85059 9.74878ZM22.9932 7.1394L22.9932 6.9894L22.9932 6.9894L22.9932 7.1394ZM23.7109 7.15015L23.703 7.30046L23.7155 7.30008L23.7109 7.15015ZM23.7119 8.35229L23.7117 8.50229H23.7119V8.35229ZM22.9932 8.34155L22.9932 8.19155H22.9932V8.34155ZM10.7373 10.6433L10.67 10.5092L10.5873 10.5508L10.5873 10.6433L10.7373 10.6433ZM10.7393 24.4539L10.8893 24.4539L10.8893 24.4538L10.7393 24.4539ZM13.8076 32.2839L13.9168 32.1811L13.9167 32.181L13.8076 32.2839ZM23.6943 39.6257L23.6262 39.7594L23.6943 39.7941L23.7625 39.7594L23.6943 39.6257ZM33.582 32.2839L33.473 32.181L33.4729 32.1811L33.582 32.2839ZM36.6504 24.4539L36.8004 24.4539L36.8004 24.4538L36.6504 24.4539ZM36.6484 10.6433L36.7984 10.6433L36.7984 10.5508L36.7157 10.5092L36.6484 10.6433ZM24.3926 8.34155L24.3926 8.19155L24.3926 8.19155L24.3926 8.34155ZM28.0869 16.9529L27.9811 16.8465L27.9808 16.8468L28.0869 16.9529ZM31.626 16.9529L31.7322 16.8469L31.732 16.8468L31.626 16.9529ZM31.627 20.491L31.733 20.597L31.7331 20.5969L31.627 20.491ZM23.3604 28.7585L23.4664 28.8646L23.4664 28.8646L23.3604 28.7585ZM21.5918 29.491L21.5918 29.641L21.5918 29.641L21.5918 29.491ZM19.8203 28.7585L19.7142 28.8646L19.7142 28.8646L19.8203 28.7585ZM15.7656 24.7039L15.6594 24.8098L15.6596 24.8099L15.7656 24.7039ZM15.7656 21.1658L15.6596 21.0597L15.6596 21.0597L15.7656 21.1658ZM19.3047 21.1658L19.4107 21.0597L19.4105 21.0594L19.3047 21.1658ZM21.5918 23.4509L21.4858 23.557L21.5919 23.663L21.6979 23.557L21.5918 23.4509ZM30.7734 17.8044L30.8797 17.6986L30.8789 17.6978L30.7734 17.8044ZM28.9336 17.8054L28.8278 17.6991L28.8275 17.6994L28.9336 17.8054ZM22.0137 24.7332L22.1185 24.8405L22.1198 24.8392L22.0137 24.7332ZM21.1611 24.7332L21.055 24.8392L21.0559 24.8401L21.1611 24.7332ZM18.4502 22.0212L18.3438 22.1269L18.3441 22.1273L18.4502 22.0212ZM17.5332 21.6394L17.5332 21.4894H17.5332V21.6394ZM16.6143 22.0212L16.7195 22.1281L16.7203 22.1273L16.6143 22.0212ZM16.2324 22.9392L16.0824 22.9392L16.0824 22.9393L16.2324 22.9392ZM16.6143 23.8562L16.7203 23.7501L16.7199 23.7498L16.6143 23.8562ZM20.6689 27.9109L20.7752 27.805L20.775 27.8048L20.6689 27.9109ZM22.5068 27.9109L22.4008 27.8048L22.4004 27.8052L22.5068 27.9109ZM30.7734 19.6443L30.8795 19.7504L30.8797 19.7502L30.7734 19.6443ZM23.7139 3.61304L23.7218 3.76283C23.9003 3.75337 26.3432 3.67773 29.5036 4.04935C32.6665 4.42125 36.5308 5.23927 39.5641 7.00728L39.6396 6.87769L39.7152 6.74809C36.6288 4.94913 32.7158 4.12499 29.5386 3.7514C26.3589 3.37751 23.8987 3.45303 23.7059 3.46325L23.7139 3.61304ZM39.6396 6.87769L39.5641 7.00727C40.5934 7.60738 41.2357 8.73242 41.2357 9.94898L41.3857 9.94897L41.5357 9.94897C41.5357 8.62764 40.8384 7.40294 39.7152 6.7481L39.6396 6.87769ZM41.3857 9.94897L41.2357 9.94899L41.2377 24.4549L41.3877 24.4548L41.5377 24.4548L41.5357 9.94895L41.3857 9.94897ZM41.3877 24.4548L41.2377 24.4548C41.2377 28.5832 39.7055 32.4842 36.9222 35.4339L37.0312 35.5369L37.1403 35.6398C39.9773 32.6333 41.5377 28.6581 41.5377 24.4548L41.3877 24.4548ZM37.0312 35.5369L36.9221 35.4339C33.7516 38.7947 29.9479 41.6084 25.6218 43.7926L25.6895 43.9265L25.7571 44.0604C30.1126 41.8613 33.9448 39.027 37.1404 35.6398L37.0312 35.5369ZM25.6895 43.9265H25.5395V43.9285H25.6895H25.8395V43.9265H25.6895ZM25.6895 43.9285L25.6219 43.7945C25.0195 44.0983 24.3565 44.2501 23.6953 44.2501V44.4001V44.5501C24.4021 44.5501 25.1116 44.3879 25.757 44.0624L25.6895 43.9285ZM23.6953 44.4001L23.6953 44.2501C23.0324 44.2501 22.37 44.0982 21.7677 43.7945L21.7002 43.9285L21.6327 44.0624C22.278 44.3878 22.9868 44.5501 23.6953 44.5501L23.6953 44.4001ZM21.7002 43.9285L21.7678 43.7946C17.4403 41.6085 13.6382 38.7964 10.4675 35.434L10.3584 35.5369L10.2493 35.6398C13.445 39.0288 17.2755 41.8614 21.6326 44.0624L21.7002 43.9285ZM10.3584 35.5369L10.4675 35.434C7.68406 32.4824 6.15003 28.5849 6.15 24.4548L6 24.4548L5.85 24.4548C5.85003 28.66 7.41233 32.6315 10.2493 35.6398L10.3584 35.5369ZM6 24.4548H6.15V9.94897H6H5.85V24.4548H6ZM6 9.94897L6.15 9.94898C6.15003 8.73238 6.79074 7.60737 7.82156 7.00732L7.74609 6.87769L7.67063 6.74805C6.5456 7.40294 5.85003 8.62782 5.85 9.94897L6 9.94897ZM7.74609 6.87769L7.82161 7.00729C10.8571 5.23854 14.7249 4.42101 17.8942 4.04954C21.0607 3.6784 23.5133 3.75431 23.7072 3.76289L23.7139 3.61304L23.7205 3.46318C23.515 3.45409 21.0458 3.37809 17.8593 3.75158C14.6756 4.12473 10.7592 4.94836 7.67058 6.74808L7.74609 6.87769ZM23.0771 4.80933L23.0771 4.65933C21.9611 4.65933 19.5095 4.71436 16.7146 5.1317C13.9222 5.54868 10.7741 6.32915 8.27309 7.78716L8.34863 7.91675L8.42418 8.04634C10.8771 6.61639 13.9815 5.84315 16.759 5.42841C19.534 5.01403 21.9696 4.95933 23.0771 4.95933L23.0771 4.80933ZM8.34863 7.91675L8.2731 7.78715C7.51888 8.22671 7.0502 9.05603 7.0502 9.94897H7.2002H7.3502C7.3502 9.15961 7.76487 8.43058 8.42416 8.04634L8.34863 7.91675ZM7.2002 9.94897H7.0502V24.4529H7.2002H7.3502V9.94897H7.2002ZM7.2002 24.4529L7.0502 24.4529C7.05021 28.3504 8.49759 32.0306 11.1243 34.8127L11.2334 34.7097L11.3425 34.6067C8.76938 31.8815 7.35021 28.2754 7.3502 24.4529L7.2002 24.4529ZM11.2334 34.7097L11.1242 34.8126C14.2208 38.1008 17.9399 40.8492 22.1716 42.9881L22.2393 42.8542L22.3069 42.7204C18.1045 40.5963 14.414 37.8684 11.3426 34.6069L11.2334 34.7097ZM22.2393 42.8542L22.172 42.9883C23.1262 43.4672 24.2597 43.467 25.214 42.9863L25.1465 42.8523L25.079 42.7183C24.2095 43.1563 23.176 43.1565 22.3065 42.7202L22.2393 42.8542ZM25.1465 42.8523L25.2141 42.9862C29.4439 40.849 33.163 38.0991 36.2615 34.8126L36.1523 34.7097L36.0432 34.6068C32.9698 37.8667 29.2792 40.5961 25.0788 42.7184L25.1465 42.8523ZM36.1523 34.7097L36.2614 34.8127C38.8882 32.0324 40.3346 28.3486 40.3346 24.4529L40.1846 24.4529L40.0346 24.4529C40.0346 28.2738 38.6163 31.8833 36.0433 34.6067L36.1523 34.7097ZM40.1846 24.4529H40.3346V9.94897H40.1846H40.0346V24.4529H40.1846ZM40.1846 9.94897L40.3346 9.94897C40.3346 9.05559 39.8649 8.22837 39.1109 7.78728L39.0352 7.91675L38.9594 8.04622C39.6194 8.43229 40.0346 9.15973 40.0346 9.94898L40.1846 9.94897ZM39.0352 7.91675L39.1106 7.78713C36.1731 6.07634 32.3428 5.29784 29.2461 4.94545C26.1456 4.59263 23.7619 4.66511 23.7089 4.66619L23.7119 4.81616L23.715 4.96613C23.7641 4.96513 26.1318 4.893 29.2122 5.24353C32.2965 5.5945 36.0767 6.36734 38.9597 8.04637L39.0352 7.91675ZM23.7119 4.81616V4.66616C23.7124 4.66616 23.7118 4.66616 23.7089 4.66611C23.7064 4.66607 23.7031 4.666 23.6987 4.6659C23.6906 4.66573 23.6778 4.66544 23.6632 4.66513C23.633 4.66448 23.5904 4.66362 23.5361 4.66276C23.4275 4.66104 23.2725 4.65933 23.0771 4.65933V4.80933V4.95933C23.2707 4.95933 23.4242 4.96103 23.5314 4.96273C23.635 4.96437 23.7019 4.96616 23.7119 4.96616V4.81616ZM24.3926 7.1394V7.2894C28.4079 7.2894 33.942 7.97574 37.4648 9.88072L37.5361 9.74878L37.6075 9.61684C34.0181 7.67584 28.423 6.9894 24.3926 6.9894V7.1394ZM37.5361 9.74878L37.4656 9.88118C37.612 9.95915 37.7018 10.1118 37.7006 10.275L37.8506 10.2761L38.0006 10.2773C38.0026 10.0027 37.8519 9.74702 37.6066 9.61638L37.5361 9.74878ZM37.8506 10.2761H37.7006V24.4548H37.8506H38.0006V10.2761H37.8506ZM37.8506 24.4548H37.7006C37.7006 27.6784 36.509 30.7153 34.3479 33.0092L34.457 33.1121L34.5662 33.2149C36.7811 30.864 38.0006 27.753 38.0006 24.4548H37.8506ZM34.457 33.1121L34.3479 33.0092C31.462 36.0712 27.9902 38.6379 24.0281 40.6383L24.0957 40.7722L24.1633 40.9061C28.1548 38.8909 31.6551 36.3037 34.5662 33.2149L34.457 33.1121ZM24.0957 40.7722L24.0329 40.636C23.9926 40.6546 23.9558 40.6682 23.9225 40.6756L23.9551 40.822L23.9877 40.9684C24.0494 40.9547 24.1073 40.932 24.1585 40.9084L24.0957 40.7722ZM23.9551 40.822L23.9201 40.6762C23.9033 40.6802 23.8532 40.69 23.7994 40.699C23.7732 40.7035 23.7478 40.7074 23.7268 40.7102C23.703 40.7134 23.693 40.714 23.6931 40.714L23.6934 40.864L23.6936 41.014C23.731 41.014 23.7994 41.0033 23.8493 40.9949C23.9042 40.9856 23.9627 40.9744 23.9901 40.9679L23.9551 40.822ZM23.6934 40.864V40.714C23.6659 40.714 23.6022 40.705 23.5277 40.6883C23.4531 40.6715 23.3919 40.6525 23.3673 40.6407L23.3027 40.7761L23.2382 40.9115C23.295 40.9386 23.3842 40.9635 23.462 40.981C23.5399 40.9985 23.6308 41.014 23.6934 41.014V40.864ZM23.3027 40.7761L23.3703 40.6422C19.401 38.6384 15.9284 36.071 13.0388 33.0072L12.9297 33.1101L12.8206 33.213C15.7353 36.3035 19.2365 38.8914 23.2351 40.91L23.3027 40.7761ZM12.9297 33.1101L13.0389 33.0072C10.8777 30.7133 9.68621 27.6773 9.68613 24.4539L9.53613 24.4539L9.38613 24.4539C9.38621 27.752 10.6057 30.8621 12.8205 33.213L12.9297 33.1101ZM9.53613 24.4539H9.68613V10.2771H9.53613H9.38613V24.4539H9.53613ZM9.53613 10.2771H9.68613C9.68613 10.1122 9.77667 9.95866 9.9215 9.88096L9.85059 9.74878L9.77967 9.6166C9.53573 9.74748 9.38613 10.0037 9.38613 10.2771H9.53613ZM9.85059 9.74878L9.92199 9.88069C13.4446 7.97401 18.978 7.28941 22.9932 7.2894L22.9932 7.1394L22.9932 6.9894C18.9629 6.98941 13.3685 7.67407 9.77918 9.61686L9.85059 9.74878ZM22.9932 7.1394V7.2894C23.3299 7.2894 23.6734 7.29838 23.7031 7.29994L23.7109 7.15015L23.7188 7.00035C23.6813 6.99838 23.3316 6.9894 22.9932 6.9894V7.1394ZM23.7109 7.15015L23.7155 7.30008C23.7227 7.29986 24.063 7.28941 24.3926 7.2894L24.3926 7.1394L24.3926 6.9894C24.0581 6.98941 23.714 6.99998 23.7064 7.00022L23.7109 7.15015ZM23.7119 8.35229L23.7121 8.2023C23.6919 8.20227 23.5997 8.19967 23.4639 8.19693C23.3309 8.19425 23.1611 8.19155 22.9932 8.19155L22.9932 8.34155L22.9932 8.49155C23.1582 8.49155 23.3257 8.4942 23.4578 8.49687C23.5872 8.49948 23.6879 8.50226 23.7117 8.50229L23.7119 8.35229ZM22.9932 8.34155V8.19155C19.2313 8.19155 14.0719 8.80203 10.67 10.5092L10.7373 10.6433L10.8046 10.7774C14.1437 9.10167 19.2468 8.49155 22.9932 8.49155V8.34155ZM10.7373 10.6433L10.5873 10.6433L10.5893 24.4539L10.7393 24.4539L10.8893 24.4538L10.8873 10.6433L10.7373 10.6433ZM10.7393 24.4539L10.5893 24.4539C10.5893 27.4429 11.6939 30.2622 13.6985 32.3869L13.8076 32.2839L13.9167 32.181C11.966 30.1134 10.8893 27.3684 10.8893 24.4539L10.7393 24.4539ZM13.8076 32.2839L13.6984 32.3868C16.4821 35.341 19.8208 37.8185 23.6262 39.7594L23.6943 39.6257L23.7625 39.4921C19.9861 37.566 16.6756 35.1088 13.9168 32.1811L13.8076 32.2839ZM23.6943 39.6257L23.7625 39.7594C27.5681 37.8182 30.9092 35.3392 33.6912 32.3868L33.582 32.2839L33.4729 32.1811C30.7158 35.107 27.4028 37.5657 23.6262 39.4921L23.6943 39.6257ZM33.582 32.2839L33.6911 32.3869C35.6958 30.2639 36.8003 27.4426 36.8004 24.4539L36.6504 24.4539L36.5004 24.4539C36.5003 27.3681 35.4236 30.1152 33.473 32.181L33.582 32.2839ZM36.6504 24.4539L36.8004 24.4538L36.7984 10.6433L36.6484 10.6433L36.4984 10.6433L36.5004 24.4539L36.6504 24.4539ZM36.6484 10.6433L36.7157 10.5092C33.3139 8.80208 28.1562 8.19155 24.3926 8.19155V8.34155V8.49155C28.1407 8.49155 33.2421 9.10171 36.5812 10.7774L36.6484 10.6433ZM24.3926 8.34155L24.3926 8.19155C24.2241 8.19155 24.0537 8.19426 23.9252 8.19696C23.7926 8.19974 23.7119 8.20229 23.7119 8.20229V8.35229V8.50229C23.7155 8.50229 23.8081 8.49948 23.9315 8.49689C24.0589 8.49422 24.227 8.49155 24.3926 8.49155L24.3926 8.34155ZM28.0869 16.9529L28.1927 17.0592C29.1118 16.1451 30.6049 16.1439 31.5199 17.0589L31.626 16.9529L31.732 16.8468C30.6994 15.8142 29.0168 15.8165 27.9811 16.8465L28.0869 16.9529ZM31.626 16.9529L31.5198 17.0588C32.4348 17.976 32.4342 19.4699 31.5208 20.385L31.627 20.491L31.7331 20.5969C32.7635 19.5647 32.7639 17.8811 31.7322 16.8469L31.626 16.9529ZM31.627 20.491L31.5209 20.3849L23.2543 28.6525L23.3604 28.7585L23.4664 28.8646L31.733 20.597L31.627 20.491ZM23.3604 28.7585L23.2543 28.6525C22.8106 29.0961 22.22 29.3409 21.5918 29.341L21.5918 29.491L21.5918 29.641C22.2995 29.6409 22.9664 29.3645 23.4664 28.8646L23.3604 28.7585ZM21.5918 29.491V29.341C20.9616 29.341 20.3701 29.0962 19.9264 28.6525L19.8203 28.7585L19.7142 28.8646C20.2144 29.3648 20.8823 29.641 21.5918 29.641V29.491ZM19.8203 28.7585L19.9264 28.6525L15.8717 24.5978L15.7656 24.7039L15.6596 24.8099L19.7142 28.8646L19.8203 28.7585ZM15.7656 24.7039L15.8718 24.5979C14.9567 23.6808 14.9567 22.1869 15.8717 21.2718L15.7656 21.1658L15.6596 21.0597C14.6273 22.0921 14.6276 23.7757 15.6594 24.8098L15.7656 24.7039ZM15.7656 21.1658L15.8717 21.2718C16.7884 20.3551 18.2797 20.3579 19.1989 21.2721L19.3047 21.1658L19.4105 21.0594C18.3748 20.0294 16.694 20.0252 15.6596 21.0597L15.7656 21.1658ZM19.3047 21.1658L19.1987 21.2719L21.4858 23.557L21.5918 23.4509L21.6978 23.3448L19.4107 21.0597L19.3047 21.1658ZM21.5918 23.4509L21.6979 23.557L28.193 17.0589L28.0869 16.9529L27.9808 16.8468L21.4857 23.3449L21.5918 23.4509ZM30.7734 17.8044L30.8789 17.6978C30.3116 17.1364 29.3918 17.1375 28.8278 17.6991L28.9336 17.8054L29.0394 17.9117C29.4864 17.4666 30.2175 17.4653 30.6679 17.9111L30.7734 17.8044ZM28.9336 17.8054L28.8275 17.6994L21.9075 24.6271L22.0137 24.7332L22.1198 24.8392L29.0397 17.9114L28.9336 17.8054ZM22.0137 24.7332L21.9089 24.6258C21.7389 24.7918 21.4339 24.7912 21.2664 24.6263L21.1611 24.7332L21.0559 24.8401C21.3407 25.1204 21.8324 25.1197 22.1185 24.8405L22.0137 24.7332ZM21.1611 24.7332L21.2672 24.6271L18.5563 21.9152L18.4502 22.0212L18.3441 22.1273L21.055 24.8392L21.1611 24.7332ZM18.4502 22.0212L18.5566 21.9155C18.2847 21.6417 17.9195 21.4895 17.5332 21.4894L17.5332 21.6394L17.5332 21.7894C17.8394 21.7894 18.1281 21.9098 18.3438 22.1269L18.4502 22.0212ZM17.5332 21.6394V21.4894C17.1449 21.4894 16.7817 21.6419 16.5082 21.9151L16.6143 22.0212L16.7203 22.1273C16.9381 21.9096 17.2254 21.7894 17.5332 21.7894V21.6394ZM16.6143 22.0212L16.509 21.9144C16.2343 22.1851 16.0824 22.5532 16.0824 22.9392H16.2324H16.3824C16.3824 22.6323 16.5029 22.3416 16.7195 22.1281L16.6143 22.0212ZM16.2324 22.9392L16.0824 22.9393C16.0825 23.3255 16.2346 23.6907 16.5086 23.9626L16.6143 23.8562L16.7199 23.7498C16.5027 23.5341 16.3825 23.2455 16.3824 22.9392L16.2324 22.9392ZM16.6143 23.8562L16.5082 23.9623L20.5629 28.017L20.6689 27.9109L20.775 27.8048L16.7203 23.7501L16.6143 23.8562ZM20.6689 27.9109L20.5627 28.0168C21.1107 28.5663 22.0649 28.5689 22.6133 28.0166L22.5068 27.9109L22.4004 27.8052C21.9699 28.2388 21.2064 28.2374 20.7752 27.805L20.6689 27.9109ZM22.5068 27.9109L22.6129 28.017L30.8795 19.7504L30.7734 19.6443L30.6674 19.5382L22.4008 27.8048L22.5068 27.9109ZM30.7734 19.6443L30.8797 19.7502C31.4435 19.1844 31.4432 18.2644 30.8797 17.6986L30.7734 17.8044L30.6672 17.9103C31.1141 18.3591 31.1142 19.0898 30.6672 19.5384L30.7734 19.6443Z" fill="white"/>
</svg>
