<svg width="48" height="48" viewBox="0 0 48 48" fill="none" xmlns="http://www.w3.org/2000/svg">
<path fill-rule="evenodd" clip-rule="evenodd" d="M24.313 3.68272L44.0772 14.6663C44.5103 14.906 44.5052 15.5273 44.0772 15.7652L37.1636 19.6079L44.0772 23.4506C44.5103 23.6902 44.5052 24.3115 44.0772 24.5495L37.1636 28.3921L44.0772 32.2331C44.5103 32.4727 44.5052 33.0941 44.0772 33.332L24.3065 44.3209C24.1062 44.4321 23.8734 44.4218 23.6885 44.3174L3.92298 33.3338C3.48991 33.0942 3.49504 32.4729 3.92298 32.2349L10.8366 28.3923L3.92298 24.5496C3.48991 24.3099 3.49504 23.6886 3.92298 23.4507L10.8366 19.608L3.92298 15.7653C3.48991 15.5257 3.49504 14.9044 3.92298 14.6664L23.6937 3.67934C23.894 3.56808 24.1281 3.57831 24.313 3.68272ZM35.8691 29.1112L24.306 35.5367C24.1057 35.648 23.8729 35.6377 23.688 35.5333L12.1302 29.1112L5.52289 32.7845L23.9996 43.053L42.4763 32.7845L35.8691 29.1112ZM35.8691 20.3286L24.306 26.7542C24.1057 26.8654 23.8729 26.8551 23.688 26.7507L12.1302 20.3269L5.52289 24.0001L23.9996 34.2686L42.4763 24.0001L35.8691 20.3286ZM42.4764 15.2158L23.9997 4.94908L5.52298 15.2158L23.9997 25.4843L42.4764 15.2158Z" fill="white" stroke="white" stroke-width="0.5"/>
</svg>
