<svg width="48" height="48" viewBox="0 0 48 48" fill="none" xmlns="http://www.w3.org/2000/svg">
<path d="M20.9266 19.2727L19.5623 23.4888C19.4797 23.7464 19.5643 24.0309 19.7739 24.195C19.9835 24.3611 20.2717 24.3694 20.4913 24.2178L24.6023 21.3932L28.7132 24.2178C28.818 24.2884 28.9369 24.3238 29.0558 24.3238C29.1888 24.3238 29.3198 24.2801 29.4306 24.1929C29.6402 24.0288 29.7248 23.7443 29.6422 23.4868L28.278 19.2706L30.9763 16.4896C31.1536 16.3068 31.206 16.0347 31.1093 15.7958C31.0126 15.5591 30.7889 15.4033 30.539 15.4033H26.5308L25.1867 11.2494C25.1021 10.9898 24.8663 10.8154 24.6023 10.8154C24.3363 10.8154 24.1005 10.9898 24.0179 11.2494L22.6738 15.4033H18.6656C18.4157 15.4033 18.1921 15.5591 18.0953 15.7958C18.0006 16.0326 18.053 16.3068 18.2283 16.4896L20.9266 19.2706L20.9266 19.2727ZM23.1171 16.6786C23.3831 16.6786 23.6188 16.5041 23.7014 16.2445L24.6002 13.4655L25.499 16.2445C25.5836 16.5041 25.8194 16.6786 26.0834 16.6786H29.0457L27.1313 18.6516C26.9661 18.8219 26.9076 19.0733 26.9822 19.3017L27.897 22.1326L24.9408 20.1014C24.838 20.0307 24.7171 19.9954 24.5982 19.9954C24.4793 19.9954 24.3604 20.0307 24.2556 20.1014L21.2994 22.1326L22.2142 19.3017C22.2888 19.0733 22.2303 18.822 22.0651 18.6516L20.1507 16.6786H23.1171ZM24.6002 28.6002C30.5009 28.6002 35.3007 23.653 35.3007 17.5718C35.3007 11.4907 30.5005 6.5434 24.6002 6.5434C18.6999 6.5434 13.8998 11.4907 13.8998 17.5718C13.8998 23.653 18.6999 28.6002 24.6002 28.6002ZM24.6002 7.81415C29.8194 7.81415 34.0677 12.1903 34.0677 17.5718C34.0677 22.951 29.8217 27.3295 24.6002 27.3295C19.381 27.3295 15.1327 22.9534 15.1327 17.5718C15.1327 12.1927 19.3787 7.81415 24.6002 7.81415ZM40.7174 39.66L34.5831 28.7082C37.493 25.9355 39.3207 21.9684 39.3207 17.5718C39.3207 9.20613 32.7169 2.3999 24.6 2.3999C16.4831 2.3999 9.87929 9.20613 9.87929 17.5718C9.87929 21.9707 11.7071 25.9354 14.617 28.7082L8.48259 39.66C8.35765 39.8823 8.37579 40.1606 8.52692 40.3662C8.68008 40.5697 8.93399 40.659 9.1758 40.5925L15.1889 38.931L16.8011 45.1284C16.8656 45.3777 17.0691 45.5604 17.317 45.5937C17.3431 45.5978 17.3714 45.5999 17.3976 45.5999C17.6152 45.5999 17.8207 45.4794 17.9316 45.2821L24.5999 33.3791L31.2682 45.2821C31.379 45.4815 31.5846 45.5999 31.8023 45.5999C31.8284 45.5999 31.8567 45.5978 31.8829 45.5937C32.1307 45.5604 32.3343 45.3756 32.3987 45.1284L34.0109 38.931L40.024 40.5925C40.2658 40.659 40.5218 40.5697 40.6729 40.3662C40.824 40.1626 40.8424 39.8843 40.7174 39.66ZM11.1125 17.5718C11.1125 9.90797 17.1622 3.67065 24.6002 3.67065C32.0362 3.67065 38.088 9.90584 38.088 17.5718C38.088 25.2357 32.0382 31.473 24.6002 31.473C17.1643 31.473 11.1125 25.2378 11.1125 17.5718ZM15.572 29.5435C16.5191 30.3036 17.555 30.9454 18.6653 31.4521L15.2173 37.606L10.2923 38.9664L15.5697 29.5453L15.572 29.5435ZM17.6073 43.3154L16.2874 38.2394L19.828 31.9191C21.009 32.3387 22.2583 32.6045 23.5541 32.698L17.6075 43.3132L17.6073 43.3154ZM31.5903 43.3154L25.6437 32.7001C26.9395 32.6067 28.1869 32.3387 29.3698 31.9213L32.9105 38.2416L31.5905 43.3176L31.5903 43.3154ZM33.9783 37.604L30.5303 31.4501C31.6407 30.9433 32.6785 30.3015 33.6236 29.5414L38.9011 38.9625L33.976 37.6021L33.9783 37.604Z" fill="white" stroke="white" stroke-width="0.3"/>
</svg>
