<svg width="48" height="48" viewBox="0 0 48 48" fill="none" xmlns="http://www.w3.org/2000/svg">
<path d="M45.5926 20.7766C45.1598 17.1035 43.0794 14.0985 40.3275 12.7542C41.411 11.8025 42.1009 10.3846 42.1009 8.80296C42.1009 5.93427 39.8552 3.60282 37.098 3.60282C34.3382 3.60282 32.0952 5.93706 32.0952 8.80296C32.0952 10.3845 32.7851 11.8025 33.8686 12.7542C32.9766 13.1851 32.1476 13.7905 31.421 14.5567C30.7022 13.8014 29.8784 13.1905 28.9812 12.7542C30.0647 11.8025 30.7546 10.3873 30.7546 8.80296C30.7546 5.93427 28.5089 3.60282 25.7518 3.60282C22.9919 3.60282 20.7489 5.93706 20.7489 8.80296C20.7489 10.3873 21.4388 11.8025 22.5223 12.7542C21.6278 13.1933 20.8014 13.8014 20.0825 14.5567C19.3533 13.7904 18.5242 13.1851 17.6323 12.7515C18.7158 11.7998 19.4057 10.3819 19.4057 8.80024C19.4057 5.93155 17.16 3.6001 14.4029 3.6001C11.643 3.6001 9.4 5.93434 9.4 8.80024C9.4 10.3845 10.0899 11.7998 11.1734 12.7515C8.4188 14.0986 6.34109 17.1009 5.90824 20.7739C5.87414 21.0575 5.96071 21.3438 6.14173 21.5565C6.32537 21.7719 6.58509 21.8946 6.86054 21.8946H33.2731L44.6405 21.8973C44.916 21.8973 45.1783 21.7746 45.3593 21.5592C45.5429 21.3465 45.6267 21.0602 45.5926 20.7766ZM34.0184 8.8031C34.0184 7.03612 35.4009 5.59905 37.1009 5.59905C38.8008 5.59905 40.1833 7.03612 40.1833 8.8031C40.1833 10.5592 38.8008 11.9881 37.1009 11.9881C35.3982 11.9854 34.0184 10.5565 34.0184 8.8031ZM22.6697 8.8031C22.6697 7.03612 24.0523 5.59905 25.7522 5.59905C27.4522 5.59905 28.8347 7.03612 28.8347 8.8031C28.8347 10.5592 27.4522 11.9881 25.7522 11.9881C24.0523 11.9854 22.6697 10.5565 22.6697 8.8031ZM11.3231 8.8031C11.3231 7.03612 12.7057 5.59905 14.4056 5.59905C16.1056 5.59905 17.4881 7.03612 17.4881 8.8031C17.4881 10.5592 16.1056 11.9881 14.4056 11.9881C12.703 11.9854 11.3231 10.5565 11.3231 8.8031ZM14.403 13.9842C16.0557 13.9842 17.6534 14.7586 18.8733 16.1275C18.1807 17.2319 17.6639 18.5053 17.3937 19.8988H8.01484C8.83338 16.4574 11.4333 13.9842 14.403 13.9842ZM29.577 19.8988H19.3614C20.1799 16.4575 22.7824 13.9815 25.752 13.9815C28.7296 13.9815 31.3242 16.4575 32.1269 19.8988H29.577ZM34.092 19.8988C33.827 18.5081 33.3155 17.2347 32.6255 16.1276C33.848 14.7587 35.443 13.9815 37.0984 13.9815C40.0682 13.9815 42.668 16.4576 43.4891 19.8989L34.092 19.8988ZM39.1812 23.8747L27.2919 30.9156L19.6948 26.7816C17.339 25.4863 14.9464 25.1973 12.3912 25.9063L10.888 26.3044L10.8854 24.93C10.8854 24.3792 10.4551 23.932 9.92519 23.932H4.56028C4.03035 23.932 3.6001 24.3792 3.6001 24.93V40.9259C3.6001 41.4767 4.03033 41.9239 4.56028 41.9239H9.92519C10.4551 41.9239 10.8854 41.4767 10.8854 40.9259V39.3334L13.5639 39.1316L25.3168 42.9383C25.8625 43.1128 26.4108 43.2001 26.9538 43.2001C28.2052 43.2001 29.4225 42.7365 30.4351 41.8394L30.4377 41.8367L43.8542 29.9281C45.6434 28.3329 45.528 26.2714 44.6202 24.9325C43.584 23.4109 41.3829 22.5601 39.1819 23.8745L39.1812 23.8747ZM8.96474 39.9306H5.52019V25.9306H8.96474V39.9306ZM42.6023 28.4123L29.1885 40.318C28.2336 41.1579 27.0661 41.4115 25.8908 41.0297L13.962 37.1685C13.8701 37.1385 13.7731 37.1221 13.676 37.1221C13.6524 37.1221 13.6288 37.1221 13.6078 37.1249L10.8847 37.3294V28.3632L12.8706 27.837C14.9484 27.2643 16.8844 27.4961 18.7943 28.5486L26.8642 32.9389C26.8799 32.9471 26.8983 32.9499 26.914 32.958L27.9529 33.5416C28.328 33.7461 28.6087 34.0979 28.7373 34.5287C28.8685 34.9623 28.8318 35.4177 28.635 35.8076C28.2126 36.6393 27.2236 36.9666 26.434 36.5385L16.7717 31.2619C16.3021 31.0056 15.7224 31.1938 15.4731 31.6819C15.2265 32.17 15.4076 32.7753 15.8771 33.0317L25.5421 38.3082C26.0615 38.5891 26.6177 38.7227 27.1686 38.7227C28.4488 38.7227 29.695 38 30.3377 36.7348C30.7706 35.8703 30.8546 34.875 30.5738 33.9343C30.3404 33.1544 29.8708 32.5054 29.2569 32.05L40.1334 25.6091C41.4005 24.8538 42.5312 25.3255 43.048 26.0863C43.5596 26.8389 43.3919 27.7087 42.6023 28.4123Z" fill="white" stroke="black" stroke-width="0.2"/>
</svg>
