<svg width="48" height="48" viewBox="0 0 48 48" fill="none" xmlns="http://www.w3.org/2000/svg">
<path d="M41.9028 36.2988C42.1856 36.0101 42.6457 36.0101 42.9302 36.2988L45.7075 39.1191L45.7056 39.1211C45.9901 39.4082 45.9901 39.877 45.7056 40.1641L42.9282 42.9834C42.7869 43.1269 42.6006 43.2002 42.4146 43.2002C42.2285 43.2001 42.0422 43.1268 41.9009 42.9834C41.6166 42.6963 41.6165 42.2274 41.9009 41.9404L43.4331 40.3857H33.0981C32.6956 40.3857 32.3696 40.0543 32.3696 39.6455C32.3698 39.2369 32.6974 38.9063 33.0981 38.9062H43.4438L41.9028 37.3418C41.6184 37.0547 41.6183 36.5858 41.9028 36.2988ZM39.3442 18.3252C39.5375 18.3252 39.7221 18.4012 39.8599 18.541L42.6353 21.3613C42.9179 21.6502 42.9177 22.1164 42.6333 22.4053C42.4919 22.5488 42.3057 22.6221 42.1196 22.6221C41.9336 22.622 41.7463 22.5487 41.605 22.4053L40.0708 20.8467V22.6289L40.0688 22.6328C40.0688 32.4203 32.2276 40.3816 22.5874 40.3818H3.50342C3.10085 40.3818 2.775 40.0513 2.7749 39.6426C2.7749 39.2338 3.10256 38.9033 3.50342 38.9033H22.5874C31.4259 38.9031 38.6157 31.6006 38.6157 22.6289V20.8447L37.0806 22.4043C36.7978 22.6929 36.3377 22.693 36.0532 22.4043C35.7688 22.1173 35.7689 21.6484 36.0532 21.3613L38.8306 18.541C38.9665 18.4012 39.151 18.3252 39.3442 18.3252ZM6.85205 28.4844C7.22058 28.3248 7.64834 28.5061 7.80225 28.8838H7.80518C8.96465 31.7328 10.9105 34.1804 13.4302 35.9609C13.7592 36.1936 13.8416 36.6532 13.6108 36.9893C13.4695 37.1963 13.2439 37.3046 13.0132 37.3047C12.8702 37.3047 12.7251 37.2635 12.5981 37.1729C9.84951 35.231 7.72631 32.5597 6.45752 29.4492C6.30369 29.0731 6.48164 28.6406 6.85205 28.4844ZM23.645 10.6172C24.6328 10.6172 25.4812 11.3643 25.6226 12.3545L25.812 13.6826L26.5786 14.0039L27.6372 13.2012C28.4262 12.6017 29.5485 12.6852 30.2446 13.3916L31.687 14.8564C32.385 15.5632 32.4661 16.7008 31.8755 17.5039L31.0845 18.5771L31.4028 19.3564L32.7075 19.5498C33.6827 19.6934 34.4183 20.5557 34.4185 21.5566V23.626C34.4185 24.6252 33.6828 25.4902 32.7075 25.6338L32.7095 25.6357L31.4009 25.8281L31.0845 26.6064L31.8755 27.6816C32.466 28.4829 32.3849 29.6223 31.687 30.3291L30.2446 31.793C29.5521 32.5052 28.43 32.5876 27.6372 31.9844L26.5796 31.1807L25.814 31.5029L25.6245 32.8311C25.483 33.8211 24.6329 34.5674 23.647 34.5674H21.6089C20.6212 34.5674 19.7728 33.8211 19.6313 32.8311L19.4399 31.4971L18.6792 31.1777L17.6147 31.9824C16.8257 32.5873 15.7015 32.5002 15.0054 31.79L13.5659 30.3271C12.8699 29.6204 12.7896 28.4809 13.3765 27.6797L14.1675 26.6045L13.8511 25.8271L12.5444 25.6338C11.5692 25.4902 10.8335 24.627 10.8335 23.626V21.5566C10.8337 20.5539 11.5693 19.6934 12.5444 19.5498L13.8491 19.3564L14.1675 18.5791L13.3765 17.5049C13.3762 17.5035 13.3745 17.5039 13.3745 17.5039C12.7858 16.7008 12.8688 15.5632 13.5649 14.8564L15.0054 13.3916C15.7033 12.6833 16.8256 12.6017 17.6147 13.2012L18.6733 14.0039L19.4399 13.6826L19.6294 12.3545C19.7708 11.3643 20.6209 10.6172 21.6069 10.6172H23.645ZM21.6069 12.0928C21.3385 12.0928 21.1074 12.2965 21.0698 12.5654L20.8198 14.3096C20.7822 14.5693 20.6135 14.7868 20.3774 14.8867L18.8452 15.5303C18.6073 15.6301 18.3372 15.5957 18.1333 15.4395L16.7427 14.3857C16.5279 14.2259 16.2234 14.2439 16.0337 14.4365L14.5913 15.9014C14.402 16.0939 14.3807 16.4024 14.5415 16.6221L15.5776 18.0322C15.7315 18.2411 15.7657 18.5171 15.6675 18.7568L15.0317 20.3145C14.9332 20.5541 14.7184 20.7244 14.4644 20.7607L12.7505 21.0137C12.4857 21.0518 12.2848 21.2862 12.2847 21.5586V23.6279C12.2847 23.9059 12.4822 24.1348 12.7524 24.1748L14.4663 24.4277C14.7221 24.4659 14.9372 24.6363 15.0356 24.876L15.6694 26.4316C15.7678 26.6713 15.7333 26.9474 15.5796 27.1562L14.5415 28.5664C14.3823 28.7826 14.4036 29.0935 14.5933 29.2861L16.0337 30.75C16.2252 30.9444 16.5279 30.9644 16.7427 30.8027L18.1382 29.7461C18.2652 29.648 18.4198 29.5986 18.5737 29.5986C18.6685 29.5987 18.7636 29.617 18.853 29.6533L20.3774 30.2939C20.6154 30.3939 20.784 30.6122 20.8198 30.8701L21.0698 32.6201C21.1075 32.889 21.3385 33.0928 21.6069 33.0928H23.645C23.9134 33.0928 24.1445 32.889 24.1821 32.6201L24.4321 30.876C24.4697 30.6162 24.6383 30.3978 24.8745 30.2979L26.4067 29.6553C26.6429 29.5554 26.9166 29.5899 27.1206 29.7461L28.5093 30.7998C28.7222 30.9613 29.0267 30.9415 29.2163 30.749L30.6587 29.2842C30.8465 29.0916 30.8677 28.7824 30.7085 28.5645L29.6704 27.1514V27.1553C29.5165 26.9482 29.4849 26.6715 29.5815 26.4316L30.2144 24.877C30.3128 24.6353 30.5296 24.4641 30.7837 24.4277L32.5005 24.1748C32.7686 24.1346 32.9653 23.9039 32.9653 23.6279V21.5586C32.9652 21.2863 32.765 21.052 32.5005 21.0137L30.7856 20.7617C30.5316 20.7254 30.3167 20.5542 30.2183 20.3145L29.5835 18.7568C29.4852 18.5171 29.5186 18.2413 29.6724 18.0342L30.7104 16.6221C30.8713 16.4024 30.8482 16.0939 30.6606 15.9014L29.2183 14.4365C29.0286 14.244 28.726 14.2241 28.5112 14.3857L27.1187 15.4395C26.9165 15.5956 26.6429 15.6301 26.4067 15.5303L24.8745 14.8867C24.6367 14.7867 24.4679 14.5674 24.4321 14.3096L24.1821 12.5654C24.1445 12.2965 23.9135 12.0928 23.645 12.0928H21.6069ZM22.6235 16.5186C25.9217 16.5187 28.6039 19.2424 28.604 22.5908C28.604 25.9394 25.9217 28.6629 22.6235 28.6631C19.3252 28.6631 16.6421 25.9393 16.6421 22.5908C16.6422 19.2422 19.3254 16.5186 22.6235 16.5186ZM22.6235 17.9961C20.1289 17.9961 18.0973 20.0582 18.0972 22.5908C18.0972 25.1236 20.1271 27.1855 22.6235 27.1855C25.1181 27.1854 27.1489 25.1235 27.1489 22.5908C27.1488 20.0582 25.118 17.9962 22.6235 17.9961ZM22.6255 4.7998C29.7103 4.7998 36.0561 9.08552 38.7925 15.7207C38.9481 16.0967 38.7732 16.5294 38.4028 16.6875C38.0325 16.8437 37.6065 16.6697 37.4507 16.292C34.942 10.2093 29.1244 6.2775 22.6265 6.27734C13.77 6.27734 6.56112 13.5933 6.56104 22.5869C6.56104 23.1592 6.59883 23.7353 6.65967 24.3076L8.16455 22.7773C8.4491 22.4886 8.90935 22.4912 9.19385 22.7764C9.47808 23.0652 9.47819 23.5315 9.1958 23.8203L6.42041 26.6406C6.28266 26.7805 6.09799 26.8564 5.90479 26.8564V26.8584C5.7116 26.8584 5.5271 26.7824 5.39111 26.6426L2.61377 23.8232C2.32923 23.5362 2.32923 23.0673 2.61377 22.7803C2.89653 22.4914 3.35561 22.4914 3.64014 22.7803L5.19873 24.3604C5.14148 23.77 5.10596 23.1773 5.10596 22.5869C5.10615 12.7796 12.9639 4.80005 22.6255 4.7998Z" fill="white"/>
<path d="M41.9028 36.2988L42.0094 36.4044L42.01 36.4038L41.9028 36.2988ZM42.9302 36.2988L43.0371 36.1936L43.037 36.1935L42.9302 36.2988ZM45.7075 39.1191L45.8136 39.2252L45.9188 39.12L45.8144 39.0139L45.7075 39.1191ZM45.7056 39.1211L45.5995 39.015L45.4939 39.1206L45.599 39.2267L45.7056 39.1211ZM45.7056 40.1641L45.599 40.0585L45.5987 40.0588L45.7056 40.1641ZM42.9282 42.9834L43.0351 43.0887L43.0351 43.0887L42.9282 42.9834ZM42.4146 43.2002L42.4145 43.3502H42.4146V43.2002ZM41.9009 42.9834L42.0077 42.8781L42.0075 42.8779L41.9009 42.9834ZM41.9009 41.9404L42.0074 42.046L42.0077 42.0457L41.9009 41.9404ZM43.4331 40.3857L43.5399 40.491L43.7915 40.2357H43.4331V40.3857ZM33.0981 40.3857L33.0981 40.5357H33.0981V40.3857ZM32.3696 39.6455L32.2196 39.6454V39.6455H32.3696ZM33.0981 38.9062L33.0981 38.7562L33.0981 38.7562L33.0981 38.9062ZM43.4438 38.9062V39.0563H43.8021L43.5507 38.801L43.4438 38.9062ZM41.9028 37.3418L42.0097 37.2365L42.0094 37.2362L41.9028 37.3418ZM39.3442 18.3252L39.3442 18.1752L39.3442 18.1752L39.3442 18.3252ZM39.8599 18.541L39.9668 18.4358L39.9667 18.4357L39.8599 18.541ZM42.6353 21.3613L42.7425 21.2564L42.7422 21.2561L42.6353 21.3613ZM42.6333 22.4053L42.7402 22.5105L42.7402 22.5105L42.6333 22.4053ZM42.1196 22.6221L42.1195 22.7721H42.1196V22.6221ZM41.605 22.4053L41.4981 22.5105L41.4981 22.5105L41.605 22.4053ZM40.0708 20.8467L40.1777 20.7415L39.9208 20.4805V20.8467H40.0708ZM40.0708 22.6289L40.205 22.696L40.2208 22.6643V22.6289H40.0708ZM40.0688 22.6328L39.9347 22.5657L39.9188 22.5974L39.9188 22.6328L40.0688 22.6328ZM22.5874 40.3818L22.5874 40.5318L22.5874 40.5318L22.5874 40.3818ZM2.7749 39.6426L2.6249 39.6426L2.6249 39.6426L2.7749 39.6426ZM22.5874 38.9033L22.5874 39.0533L22.5874 39.0533L22.5874 38.9033ZM38.6157 20.8447H38.7657V20.4785L38.5088 20.7395L38.6157 20.8447ZM37.0806 22.4043L36.9737 22.2991L36.9734 22.2993L37.0806 22.4043ZM36.0532 22.4043L36.1601 22.299L36.1598 22.2987L36.0532 22.4043ZM36.0532 21.3613L36.1598 21.4669L36.1601 21.4666L36.0532 21.3613ZM38.8306 18.541L38.9374 18.6463L38.9381 18.6456L38.8306 18.541ZM6.85205 28.4844L6.91035 28.6226L6.91165 28.622L6.85205 28.4844ZM7.80225 28.8838L7.66334 28.9404L7.70139 29.0338H7.80225V28.8838ZM7.80518 28.8838L7.94411 28.8272L7.90608 28.7338H7.80518V28.8838ZM13.4302 35.9609L13.5168 35.8385L13.5167 35.8384L13.4302 35.9609ZM13.6108 36.9893L13.4872 36.9043L13.487 36.9047L13.6108 36.9893ZM13.0132 37.3047L13.0132 37.4547L13.0132 37.4547L13.0132 37.3047ZM12.5981 37.1729L12.6853 37.0508L12.6847 37.0503L12.5981 37.1729ZM6.45752 29.4492L6.59641 29.3926L6.59635 29.3924L6.45752 29.4492ZM25.6226 12.3545L25.7711 12.3333L25.7711 12.3333L25.6226 12.3545ZM25.812 13.6826L25.6635 13.7038L25.6755 13.7881L25.754 13.821L25.812 13.6826ZM26.5786 14.0039L26.5206 14.1422L26.6004 14.1757L26.6692 14.1234L26.5786 14.0039ZM27.6372 13.2012L27.7278 13.3207L27.7279 13.3206L27.6372 13.2012ZM30.2446 13.3916L30.3515 13.2864L30.3515 13.2863L30.2446 13.3916ZM31.687 14.8564L31.5801 14.9617L31.5803 14.9618L31.687 14.8564ZM31.8755 17.5039L31.9962 17.5929L31.9963 17.5928L31.8755 17.5039ZM31.0845 18.5771L30.9637 18.4882L30.9138 18.5559L30.9456 18.6339L31.0845 18.5771ZM31.4028 19.3564L31.264 19.4132L31.2963 19.4923L31.3808 19.5048L31.4028 19.3564ZM32.7075 19.5498L32.6855 19.6982L32.6857 19.6982L32.7075 19.5498ZM34.4185 21.5566L34.5685 21.5566L34.5685 21.5566L34.4185 21.5566ZM32.7075 25.6338L32.6857 25.4854L32.3904 25.5288L32.6015 25.7399L32.7075 25.6338ZM32.7095 25.6357L32.7313 25.7841L33.0266 25.7407L32.8155 25.5297L32.7095 25.6357ZM31.4009 25.8281L31.3791 25.6797L31.2942 25.6922L31.2619 25.7716L31.4009 25.8281ZM31.0845 26.6064L30.9455 26.55L30.9139 26.6277L30.9636 26.6953L31.0845 26.6064ZM31.8755 27.6816L31.7547 27.7705L31.7547 27.7706L31.8755 27.6816ZM31.687 30.3291L31.5803 30.2237L31.5802 30.2238L31.687 30.3291ZM30.2446 31.793L30.1378 31.6877L30.1371 31.6884L30.2446 31.793ZM27.6372 31.9844L27.728 31.865L27.728 31.8649L27.6372 31.9844ZM26.5796 31.1807L26.6703 31.0612L26.6013 31.0088L26.5214 31.0424L26.5796 31.1807ZM25.814 31.5029L25.7558 31.3647L25.6775 31.3976L25.6655 31.4817L25.814 31.5029ZM25.6245 32.8311L25.773 32.8523L25.773 32.8522L25.6245 32.8311ZM23.647 34.5674L23.647 34.7174L23.647 34.7174L23.647 34.5674ZM19.6313 32.8311L19.7798 32.8098L19.7798 32.8098L19.6313 32.8311ZM19.4399 31.4971L19.5884 31.4758L19.5764 31.3917L19.498 31.3588L19.4399 31.4971ZM18.6792 31.1777L18.7373 31.0394L18.6576 31.006L18.5887 31.0581L18.6792 31.1777ZM17.6147 31.9824L17.5243 31.8628L17.5235 31.8634L17.6147 31.9824ZM15.0054 31.79L15.1125 31.685L15.1123 31.6848L15.0054 31.79ZM13.5659 30.3271L13.6728 30.2219L13.6728 30.2219L13.5659 30.3271ZM13.3765 27.6797L13.2556 27.5908L13.2555 27.591L13.3765 27.6797ZM14.1675 26.6045L14.2883 26.6934L14.3381 26.6257L14.3064 26.5479L14.1675 26.6045ZM13.8511 25.8271L13.99 25.7706L13.9577 25.6913L13.873 25.6788L13.8511 25.8271ZM12.5444 25.6338L12.5664 25.4854L12.5663 25.4854L12.5444 25.6338ZM10.8335 21.5566L10.6835 21.5566V21.5566H10.8335ZM12.5444 19.5498L12.5663 19.6982L12.5664 19.6982L12.5444 19.5498ZM13.8491 19.3564L13.8711 19.5048L13.9556 19.4923L13.9879 19.4133L13.8491 19.3564ZM14.1675 18.5791L14.3063 18.636L14.3382 18.558L14.2883 18.4902L14.1675 18.5791ZM13.3765 17.5049L13.2295 17.5351L13.2362 17.5673L13.2557 17.5938L13.3765 17.5049ZM13.3745 17.5039L13.2535 17.5926L13.3114 17.6715L13.407 17.6503L13.3745 17.5039ZM13.5649 14.8564L13.6718 14.9617L13.6719 14.9616L13.5649 14.8564ZM15.0054 13.3916L14.8985 13.2863L14.8984 13.2864L15.0054 13.3916ZM17.6147 13.2012L17.524 13.3206L17.5241 13.3207L17.6147 13.2012ZM18.6733 14.0039L18.5827 14.1234L18.6516 14.1757L18.7313 14.1422L18.6733 14.0039ZM19.4399 13.6826L19.4979 13.821L19.5764 13.7881L19.5884 13.7038L19.4399 13.6826ZM19.6294 12.3545L19.4809 12.3333L19.4809 12.3333L19.6294 12.3545ZM21.0698 12.5654L21.2183 12.5867L21.2184 12.5862L21.0698 12.5654ZM20.8198 14.3096L20.9683 14.3311L20.9683 14.3309L20.8198 14.3096ZM20.3774 14.8867L20.4355 15.025L20.4359 15.0248L20.3774 14.8867ZM18.8452 15.5303L18.9032 15.6686L18.9033 15.6686L18.8452 15.5303ZM18.1333 15.4395L18.2245 15.3204L18.2239 15.3199L18.1333 15.4395ZM16.7427 14.3857L16.8333 14.2662L16.8322 14.2654L16.7427 14.3857ZM16.0337 14.4365L15.9268 14.3313L15.9268 14.3313L16.0337 14.4365ZM14.5913 15.9014L14.4844 15.7961L14.4843 15.7962L14.5913 15.9014ZM14.5415 16.6221L14.4205 16.7107L14.4206 16.7109L14.5415 16.6221ZM15.5776 18.0322L15.4568 18.121L15.4569 18.1212L15.5776 18.0322ZM15.6675 18.7568L15.5287 18.7L15.5286 18.7002L15.6675 18.7568ZM15.0317 20.3145L15.1705 20.3715L15.1706 20.3711L15.0317 20.3145ZM14.4644 20.7607L14.4431 20.6123L14.4425 20.6123L14.4644 20.7607ZM12.7505 21.0137L12.7719 21.1621L12.7724 21.1621L12.7505 21.0137ZM12.2847 21.5586L12.1347 21.5585V21.5586H12.2847ZM12.7524 24.1748L12.7305 24.3232L12.7305 24.3232L12.7524 24.1748ZM14.4663 24.4277L14.4884 24.2794L14.4882 24.2793L14.4663 24.4277ZM15.0356 24.876L15.1746 24.8194L15.1744 24.819L15.0356 24.876ZM15.6694 26.4316L15.5305 26.4882L15.5307 26.4886L15.6694 26.4316ZM15.5796 27.1562L15.7004 27.2452L15.7004 27.2451L15.5796 27.1562ZM14.5415 28.5664L14.6623 28.6554L14.6623 28.6553L14.5415 28.5664ZM14.5933 29.2861L14.7002 29.1809L14.7001 29.1809L14.5933 29.2861ZM16.0337 30.75L15.9268 30.8552L15.9268 30.8553L16.0337 30.75ZM16.7427 30.8027L16.8329 30.9226L16.8332 30.9223L16.7427 30.8027ZM18.1382 29.7461L18.2287 29.8657L18.2299 29.8648L18.1382 29.7461ZM18.5737 29.5986L18.5738 29.4486H18.5737V29.5986ZM18.853 29.6533L18.9111 29.515L18.9095 29.5143L18.853 29.6533ZM20.3774 30.2939L20.3193 30.4322L20.3194 30.4322L20.3774 30.2939ZM20.8198 30.8701L20.6713 30.8908L20.6713 30.8913L20.8198 30.8701ZM21.0698 32.6201L21.2184 32.5993L21.2183 32.5989L21.0698 32.6201ZM24.1821 32.6201L24.0336 32.5988L24.0336 32.5993L24.1821 32.6201ZM24.4321 30.876L24.2837 30.8545L24.2836 30.8547L24.4321 30.876ZM24.8745 30.2979L24.8165 30.1595L24.8161 30.1597L24.8745 30.2979ZM26.4067 29.6553L26.4647 29.7936L26.4652 29.7934L26.4067 29.6553ZM27.1206 29.7461L27.0294 29.8652L27.0299 29.8656L27.1206 29.7461ZM28.5093 30.7998L28.4186 30.9193L28.4186 30.9193L28.5093 30.7998ZM29.2163 30.749L29.3232 30.8543L29.3232 30.8543L29.2163 30.749ZM30.6587 29.2842L30.7656 29.3894L30.7661 29.3889L30.6587 29.2842ZM30.7085 28.5645L30.8296 28.476L30.8294 28.4756L30.7085 28.5645ZM29.6704 27.1514L29.7913 27.0626L29.5204 26.6938V27.1514H29.6704ZM29.6704 27.1553L29.55 27.2447L29.8204 27.6086V27.1553H29.6704ZM29.5815 26.4316L29.4426 26.3751L29.4424 26.3756L29.5815 26.4316ZM30.2144 24.877L30.0754 24.8204L30.0754 24.8204L30.2144 24.877ZM30.7837 24.4277L30.805 24.5762L30.8056 24.5761L30.7837 24.4277ZM32.5005 24.1748L32.5224 24.3232L32.5227 24.3231L32.5005 24.1748ZM32.9653 21.5586L33.1153 21.5586L33.1153 21.5585L32.9653 21.5586ZM32.5005 21.0137L32.4787 21.1621L32.479 21.1621L32.5005 21.0137ZM30.7856 20.7617L30.8074 20.6133L30.8069 20.6132L30.7856 20.7617ZM30.2183 20.3145L30.0794 20.3711L30.0795 20.3714L30.2183 20.3145ZM29.5835 18.7568L29.7224 18.7002L29.7223 18.6999L29.5835 18.7568ZM29.6724 18.0342L29.7928 18.1236L29.7932 18.123L29.6724 18.0342ZM30.7104 16.6221L30.8313 16.7109L30.8315 16.7107L30.7104 16.6221ZM30.6606 15.9014L30.7681 15.7967L30.7675 15.7961L30.6606 15.9014ZM29.2183 14.4365L29.3251 14.3313L29.3251 14.3313L29.2183 14.4365ZM28.5112 14.3857L28.421 14.2659L28.4207 14.2661L28.5112 14.3857ZM27.1187 15.4395L27.0281 15.3198L27.0269 15.3208L27.1187 15.4395ZM26.4067 15.5303L26.4651 15.3921L26.4648 15.392L26.4067 15.5303ZM24.8745 14.8867L24.8164 15.025L24.8164 15.025L24.8745 14.8867ZM24.4321 14.3096L24.5807 14.2889L24.5806 14.2883L24.4321 14.3096ZM24.1821 12.5654L24.0336 12.5862L24.0336 12.5867L24.1821 12.5654ZM22.6235 16.5186L22.6235 16.3686H22.6235V16.5186ZM28.604 22.5908L28.754 22.5908L28.754 22.5908L28.604 22.5908ZM22.6235 28.6631L22.6235 28.8131L22.6235 28.8131L22.6235 28.6631ZM16.6421 22.5908L16.4921 22.5908V22.5908H16.6421ZM22.6235 17.9961L22.6235 17.8461H22.6235V17.9961ZM18.0972 22.5908L17.9472 22.5908V22.5908H18.0972ZM22.6235 27.1855L22.6235 27.3355L22.6235 27.3355L22.6235 27.1855ZM27.1489 22.5908L27.2989 22.5908L27.2989 22.5908L27.1489 22.5908ZM22.6255 4.7998L22.6255 4.6498L22.6255 4.6498L22.6255 4.7998ZM38.7925 15.7207L38.6538 15.7779L38.6539 15.7781L38.7925 15.7207ZM38.4028 16.6875L38.4611 16.8257L38.4617 16.8255L38.4028 16.6875ZM37.4507 16.292L37.312 16.3492L37.312 16.3492L37.4507 16.292ZM22.6265 6.27734L22.6265 6.12734H22.6265V6.27734ZM6.56104 22.5869L6.41104 22.5869V22.5869H6.56104ZM6.65967 24.3076L6.51051 24.3235L6.54406 24.6391L6.76662 24.4128L6.65967 24.3076ZM8.16455 22.7773L8.05771 22.6721L8.0576 22.6722L8.16455 22.7773ZM9.19385 22.7764L9.30076 22.6711L9.30005 22.6704L9.19385 22.7764ZM9.1958 23.8203L9.30272 23.9255L9.30306 23.9252L9.1958 23.8203ZM6.42041 26.6406L6.52728 26.7459L6.52732 26.7458L6.42041 26.6406ZM5.90479 26.8564L5.90474 26.7064L5.75479 26.7065V26.8564H5.90479ZM5.90479 26.8584V27.0084H6.05479V26.8584H5.90479ZM5.39111 26.6426L5.49863 26.538L5.49797 26.5373L5.39111 26.6426ZM2.61377 23.8232L2.72063 23.718L2.7203 23.7176L2.61377 23.8232ZM2.61377 22.7803L2.72031 22.8859L2.72096 22.8852L2.61377 22.7803ZM3.64014 22.7803L3.53327 22.8855L3.53335 22.8856L3.64014 22.7803ZM5.19873 24.3604L5.09194 24.4657L5.38883 24.7667L5.34803 24.3459L5.19873 24.3604ZM5.10596 22.5869L4.95596 22.5869V22.5869H5.10596ZM41.9028 36.2988L42.01 36.4038C42.2337 36.1753 42.5974 36.1748 42.8233 36.4041L42.9302 36.2988L43.037 36.1935C42.6939 35.8454 42.1374 35.8449 41.7957 36.1939L41.9028 36.2988ZM42.9302 36.2988L42.8233 36.4041L45.6006 39.2244L45.7075 39.1191L45.8144 39.0139L43.0371 36.1936L42.9302 36.2988ZM45.7075 39.1191L45.6015 39.0131L45.5995 39.015L45.7056 39.1211L45.8116 39.2272L45.8136 39.2252L45.7075 39.1191ZM45.7056 39.1211L45.599 39.2267C45.8256 39.4553 45.8256 39.8299 45.599 40.0585L45.7056 40.1641L45.8121 40.2697C46.1546 39.9241 46.1546 39.361 45.8121 39.0155L45.7056 39.1211ZM45.7056 40.1641L45.5987 40.0588L42.8214 42.8781L42.9282 42.9834L43.0351 43.0887L45.8124 40.2693L45.7056 40.1641ZM42.9282 42.9834L42.8214 42.8781C42.7087 42.9925 42.5612 43.0502 42.4146 43.0502V43.2002V43.3502C42.6401 43.3502 42.865 43.2613 43.0351 43.0887L42.9282 42.9834ZM42.4146 43.2002L42.4146 43.0502C42.2679 43.0501 42.1203 42.9924 42.0077 42.8781L41.9009 42.9834L41.794 43.0887C41.9641 43.2613 42.1892 43.3501 42.4145 43.3502L42.4146 43.2002ZM41.9009 42.9834L42.0075 42.8779C41.7811 42.6492 41.781 42.2745 42.0074 42.046L41.9009 41.9404L41.7943 41.8349C41.452 42.1803 41.4522 42.7435 41.7943 43.0889L41.9009 42.9834ZM41.9009 41.9404L42.0077 42.0457L43.5399 40.491L43.4331 40.3857L43.3263 40.2805L41.794 41.8351L41.9009 41.9404ZM43.4331 40.3857V40.2357H33.0981V40.3857V40.5357H43.4331V40.3857ZM33.0981 40.3857L33.0982 40.2357C32.7807 40.2357 32.5196 39.9737 32.5196 39.6455H32.3696H32.2196C32.2196 40.1348 32.6104 40.5357 33.0981 40.5357L33.0981 40.3857ZM32.3696 39.6455L32.5196 39.6456C32.5198 39.3179 32.7821 39.0563 33.0982 39.0563L33.0981 38.9062L33.0981 38.7562C32.6127 38.7563 32.2199 39.1559 32.2196 39.6454L32.3696 39.6455ZM33.0981 38.9062V39.0563H43.4438V38.9062V38.7562H33.0981V38.9062ZM43.4438 38.9062L43.5507 38.801L42.0097 37.2365L41.9028 37.3418L41.796 37.4471L43.337 39.0115L43.4438 38.9062ZM41.9028 37.3418L42.0094 37.2362C41.7829 37.0076 41.7829 36.6329 42.0094 36.4044L41.9028 36.2988L41.7963 36.1932C41.4538 36.5388 41.454 37.1018 41.7963 37.4474L41.9028 37.3418ZM39.3442 18.3252V18.4752C39.4977 18.4752 39.6437 18.5353 39.753 18.6463L39.8599 18.541L39.9667 18.4357C39.8005 18.267 39.5773 18.1752 39.3442 18.1752V18.3252ZM39.8599 18.541L39.7529 18.6462L42.5283 21.4665L42.6353 21.3613L42.7422 21.2561L39.9668 18.4358L39.8599 18.541ZM42.6353 21.3613L42.528 21.4662C42.7536 21.6967 42.7535 22.0695 42.5264 22.3L42.6333 22.4053L42.7402 22.5105C43.082 22.1634 43.0823 21.6037 42.7425 21.2564L42.6353 21.3613ZM42.6333 22.4053L42.5264 22.3C42.4138 22.4144 42.2663 22.4721 42.1196 22.4721V22.6221V22.7721C42.3451 22.7721 42.5701 22.6832 42.7402 22.5105L42.6333 22.4053ZM42.1196 22.6221L42.1197 22.4721C41.9728 22.472 41.8242 22.4141 41.7118 22.3L41.605 22.4053L41.4981 22.5105C41.6683 22.6833 41.8945 22.7719 42.1195 22.7721L42.1196 22.6221ZM41.605 22.4053L41.7119 22.3L40.1777 20.7415L40.0708 20.8467L39.9639 20.9519L41.4981 22.5105L41.605 22.4053ZM40.0708 20.8467H39.9208V22.6289H40.0708H40.2208V20.8467H40.0708ZM40.0708 22.6289L39.9366 22.5618L39.9347 22.5657L40.0688 22.6328L40.203 22.6999L40.205 22.696L40.0708 22.6289ZM40.0688 22.6328L39.9188 22.6328C39.9188 32.3396 32.1426 40.2316 22.5874 40.2318L22.5874 40.3818L22.5874 40.5318C32.3126 40.5316 40.2188 32.5009 40.2188 22.6328L40.0688 22.6328ZM22.5874 40.3818V40.2318H3.50342V40.3818V40.5318H22.5874V40.3818ZM3.50342 40.3818V40.2318C3.18575 40.2318 2.92498 39.9705 2.9249 39.6425L2.7749 39.6426L2.6249 39.6426C2.62502 40.1321 3.01594 40.5318 3.50342 40.5318V40.3818ZM2.7749 39.6426H2.9249C2.9249 39.3148 3.1872 39.0533 3.50342 39.0533V38.9033V38.7533C3.01791 38.7533 2.6249 39.1528 2.6249 39.6426H2.7749ZM3.50342 38.9033V39.0533H22.5874V38.9033V38.7533H3.50342V38.9033ZM22.5874 38.9033L22.5874 39.0533C31.5109 39.0531 38.7657 31.6812 38.7657 22.6289H38.6157H38.4657C38.4657 31.5199 31.3409 38.7531 22.5874 38.7533L22.5874 38.9033ZM38.6157 22.6289H38.7657V20.8447H38.6157H38.4657V22.6289H38.6157ZM38.6157 20.8447L38.5088 20.7395L36.9737 22.2991L37.0806 22.4043L37.1875 22.5095L38.7226 20.95L38.6157 20.8447ZM37.0806 22.4043L36.9734 22.2993C36.7497 22.5278 36.386 22.5283 36.1601 22.299L36.0532 22.4043L35.9464 22.5096C36.2894 22.8577 36.846 22.8581 37.1877 22.5093L37.0806 22.4043ZM36.0532 22.4043L36.1598 22.2987C35.9333 22.0702 35.9333 21.6956 36.1598 21.4669L36.0532 21.3613L35.9466 21.2558C35.6045 21.6013 35.6042 22.1644 35.9467 22.5099L36.0532 22.4043ZM36.0532 21.3613L36.1601 21.4666L38.9374 18.6463L38.8306 18.541L38.7237 18.4358L35.9463 21.2561L36.0532 21.3613ZM38.8306 18.541L38.9381 18.6456C39.0452 18.5354 39.1907 18.4752 39.3443 18.4752L39.3442 18.3252L39.3442 18.1752C39.1114 18.1752 38.8878 18.2669 38.723 18.4365L38.8306 18.541ZM6.85205 28.4844L6.91165 28.622C7.20006 28.4971 7.53995 28.6376 7.66334 28.9404L7.80225 28.8838L7.94116 28.8272C7.75673 28.3746 7.2411 28.1525 6.79245 28.3467L6.85205 28.4844ZM7.80225 28.8838V29.0338H7.80518V28.8838V28.7338H7.80225V28.8838ZM7.80518 28.8838L7.66624 28.9403C8.83656 31.8159 10.8006 34.2864 13.3436 36.0834L13.4302 35.9609L13.5167 35.8384C11.0203 34.0744 9.09275 31.6496 7.94411 28.8272L7.80518 28.8838ZM13.4302 35.9609L13.3436 36.0834C13.6052 36.2684 13.6718 36.6355 13.4872 36.9043L13.6108 36.9893L13.7345 37.0742C14.0114 36.6709 13.9132 36.1187 13.5168 35.8385L13.4302 35.9609ZM13.6108 36.9893L13.487 36.9047C13.3749 37.0688 13.1968 37.1546 13.0131 37.1547L13.0132 37.3047L13.0132 37.4547C13.2911 37.4546 13.5641 37.3237 13.7347 37.0738L13.6108 36.9893ZM13.0132 37.3047V37.1547C12.8992 37.1547 12.7851 37.122 12.6853 37.0508L12.5981 37.1729L12.511 37.2949C12.6651 37.405 12.8411 37.4547 13.0132 37.4547V37.3047ZM12.5981 37.1729L12.6847 37.0503C9.9594 35.1249 7.85438 32.4766 6.59641 29.3926L6.45752 29.4492L6.31863 29.5059C7.59824 32.6429 9.73961 35.337 12.5116 37.2954L12.5981 37.1729ZM6.45752 29.4492L6.59635 29.3924C6.47334 29.0917 6.61642 28.7466 6.91035 28.6226L6.85205 28.4844L6.79375 28.3462C6.34686 28.5347 6.13403 29.0546 6.31869 29.506L6.45752 29.4492ZM23.645 10.6172V10.7672C24.5564 10.7672 25.343 11.4576 25.4741 12.3757L25.6226 12.3545L25.7711 12.3333C25.6194 11.2709 24.7093 10.4672 23.645 10.4672V10.6172ZM25.6226 12.3545L25.4741 12.3757L25.6635 13.7038L25.812 13.6826L25.9605 13.6614L25.7711 12.3333L25.6226 12.3545ZM25.812 13.6826L25.754 13.821L26.5206 14.1422L26.5786 14.0039L26.6366 13.8656L25.87 13.5443L25.812 13.6826ZM26.5786 14.0039L26.6692 14.1234L27.7278 13.3207L27.6372 13.2012L27.5466 13.0816L26.488 13.8844L26.5786 14.0039ZM27.6372 13.2012L27.7279 13.3206C28.4565 12.7671 29.4942 12.8439 30.1378 13.4969L30.2446 13.3916L30.3515 13.2863C29.6027 12.5265 28.3959 12.4364 27.5465 13.0817L27.6372 13.2012ZM30.2446 13.3916L30.1377 13.4968L31.5801 14.9617L31.687 14.8564L31.7939 14.7512L30.3515 13.2864L30.2446 13.3916ZM31.687 14.8564L31.5803 14.9618C32.2261 15.6159 32.3017 16.6711 31.7546 17.415L31.8755 17.5039L31.9963 17.5928C32.6304 16.7306 32.5438 15.5105 31.7937 14.751L31.687 14.8564ZM31.8755 17.5039L31.7547 17.4149L30.9637 18.4882L31.0845 18.5771L31.2052 18.6661L31.9962 17.5929L31.8755 17.5039ZM31.0845 18.5771L30.9456 18.6339L31.264 19.4132L31.4028 19.3564L31.5417 19.2997L31.2233 18.5204L31.0845 18.5771ZM31.4028 19.3564L31.3808 19.5048L32.6855 19.6982L32.7075 19.5498L32.7295 19.4014L31.4248 19.2081L31.4028 19.3564ZM32.7075 19.5498L32.6857 19.6982C33.5856 19.8307 34.2683 20.6285 34.2685 21.5567L34.4185 21.5566L34.5685 21.5566C34.5683 20.483 33.7798 19.556 32.7294 19.4014L32.7075 19.5498ZM34.4185 21.5566H34.2685V23.626H34.4185H34.5685V21.5566H34.4185ZM34.4185 23.626H34.2685C34.2685 24.5526 33.5856 25.3529 32.6857 25.4854L32.7075 25.6338L32.7294 25.7822C33.78 25.6275 34.5685 24.6978 34.5685 23.626H34.4185ZM32.7075 25.6338L32.6015 25.7399L32.6034 25.7418L32.7095 25.6357L32.8155 25.5297L32.8136 25.5277L32.7075 25.6338ZM32.7095 25.6357L32.6877 25.4873L31.3791 25.6797L31.4009 25.8281L31.4227 25.9765L32.7313 25.7841L32.7095 25.6357ZM31.4009 25.8281L31.2619 25.7716L30.9455 26.55L31.0845 26.6064L31.2234 26.6629L31.5398 25.8846L31.4009 25.8281ZM31.0845 26.6064L30.9636 26.6953L31.7547 27.7705L31.8755 27.6816L31.9963 27.5928L31.2053 26.5176L31.0845 26.6064ZM31.8755 27.6816L31.7547 27.7706C32.3016 28.5126 32.2262 29.5696 31.5803 30.2237L31.687 30.3291L31.7937 30.4345C32.5437 29.6751 32.6304 28.4531 31.9962 27.5926L31.8755 27.6816ZM31.687 30.3291L31.5802 30.2238L30.1378 31.6877L30.2446 31.793L30.3515 31.8982L31.7939 30.4344L31.687 30.3291ZM30.2446 31.793L30.1371 31.6884C29.4976 32.346 28.4607 32.4225 27.728 31.865L27.6372 31.9844L27.5464 32.1037C28.3993 32.7527 29.6065 32.6643 30.3522 31.8975L30.2446 31.793ZM27.6372 31.9844L27.728 31.8649L26.6703 31.0612L26.5796 31.1807L26.4888 31.3001L27.5465 32.1038L27.6372 31.9844ZM26.5796 31.1807L26.5214 31.0424L25.7558 31.3647L25.814 31.5029L25.8722 31.6412L26.6378 31.3189L26.5796 31.1807ZM25.814 31.5029L25.6655 31.4817L25.476 32.8099L25.6245 32.8311L25.773 32.8522L25.9625 31.5241L25.814 31.5029ZM25.6245 32.8311L25.476 32.8098C25.3449 33.7276 24.5567 34.4174 23.647 34.4174L23.647 34.5674L23.647 34.7174C24.7092 34.7174 25.6212 33.9146 25.773 32.8523L25.6245 32.8311ZM23.647 34.5674V34.4174H21.6089V34.5674V34.7174H23.647V34.5674ZM21.6089 34.5674V34.4174C20.6975 34.4174 19.911 33.7277 19.7798 32.8098L19.6313 32.8311L19.4829 32.8523C19.6347 33.9145 20.5448 34.7174 21.6089 34.7174V34.5674ZM19.6313 32.8311L19.7798 32.8098L19.5884 31.4758L19.4399 31.4971L19.2915 31.5184L19.4829 32.8524L19.6313 32.8311ZM19.4399 31.4971L19.498 31.3588L18.7373 31.0394L18.6792 31.1777L18.6211 31.316L19.3819 31.6354L19.4399 31.4971ZM18.6792 31.1777L18.5887 31.0581L17.5243 31.8628L17.6147 31.9824L17.7052 32.1021L18.7697 31.2974L18.6792 31.1777ZM17.6147 31.9824L17.5235 31.8634C16.7955 32.4215 15.7563 32.3418 15.1125 31.685L15.0054 31.79L14.8983 31.895C15.6467 32.6585 16.8559 32.7532 17.706 32.1015L17.6147 31.9824ZM15.0054 31.79L15.1123 31.6848L13.6728 30.2219L13.5659 30.3271L13.459 30.4324L14.8985 31.8952L15.0054 31.79ZM13.5659 30.3271L13.6728 30.2219C13.0287 29.5679 12.9538 28.5105 13.4975 27.7683L13.3765 27.6797L13.2555 27.591C12.6253 28.4513 12.7111 29.6729 13.459 30.4324L13.5659 30.3271ZM13.3765 27.6797L13.4973 27.7686L14.2883 26.6934L14.1675 26.6045L14.0467 26.5156L13.2556 27.5908L13.3765 27.6797ZM14.1675 26.6045L14.3064 26.5479L13.99 25.7706L13.8511 25.8271L13.7121 25.8837L14.0285 26.661L14.1675 26.6045ZM13.8511 25.8271L13.873 25.6788L12.5664 25.4854L12.5444 25.6338L12.5225 25.7822L13.8291 25.9755L13.8511 25.8271ZM12.5444 25.6338L12.5663 25.4854C11.6663 25.3529 10.9835 24.5544 10.9835 23.626H10.8335H10.6835C10.6835 24.6997 11.472 25.6275 12.5226 25.7822L12.5444 25.6338ZM10.8335 23.626H10.9835V21.5566H10.8335H10.6835V23.626H10.8335ZM10.8335 21.5566L10.9835 21.5567C10.9837 20.6268 11.6663 19.8307 12.5663 19.6982L12.5444 19.5498L12.5226 19.4014C11.4723 19.556 10.6837 20.4811 10.6835 21.5566L10.8335 21.5566ZM12.5444 19.5498L12.5664 19.6982L13.8711 19.5048L13.8491 19.3564L13.8271 19.2081L12.5224 19.4014L12.5444 19.5498ZM13.8491 19.3564L13.9879 19.4133L14.3063 18.636L14.1675 18.5791L14.0287 18.5223L13.7103 19.2996L13.8491 19.3564ZM14.1675 18.5791L14.2883 18.4902L13.4973 17.4159L13.3765 17.5049L13.2557 17.5938L14.0467 18.668L14.1675 18.5791ZM13.3765 17.5049L13.5234 17.4746C13.5164 17.4409 13.4979 17.4092 13.469 17.3864C13.4428 17.3658 13.4162 17.3586 13.4001 17.3559C13.3836 17.3532 13.37 17.3537 13.362 17.3544C13.3576 17.3548 13.3538 17.3553 13.3505 17.3558C13.3489 17.3561 13.3474 17.3564 13.346 17.3566C13.3453 17.3568 13.3446 17.3569 13.3439 17.3571C13.3436 17.3571 13.3433 17.3572 13.343 17.3573C13.3428 17.3573 13.3427 17.3573 13.3425 17.3574C13.3424 17.3574 13.3423 17.3574 13.3423 17.3574C13.3422 17.3574 13.3422 17.3574 13.3421 17.3574C13.3421 17.3575 13.342 17.3575 13.3745 17.5039C13.407 17.6503 13.4069 17.6504 13.4069 17.6504C13.4069 17.6504 13.4068 17.6504 13.4068 17.6504C13.4067 17.6504 13.4066 17.6504 13.4065 17.6504C13.4064 17.6505 13.4062 17.6505 13.4061 17.6506C13.4057 17.6506 13.4054 17.6507 13.4051 17.6508C13.4044 17.6509 13.4038 17.651 13.4031 17.6512C13.4017 17.6514 13.4002 17.6517 13.3986 17.652C13.3955 17.6525 13.3918 17.653 13.3875 17.6533C13.3799 17.654 13.3667 17.6545 13.3507 17.6518C13.335 17.6492 13.3089 17.6422 13.2831 17.6219C13.2546 17.5994 13.2364 17.5682 13.2295 17.5351L13.3765 17.5049ZM13.3745 17.5039L13.4955 17.4152C12.9502 16.6714 13.0274 15.6159 13.6718 14.9617L13.5649 14.8564L13.4581 14.7512C12.7102 15.5105 12.6213 16.7303 13.2535 17.5926L13.3745 17.5039ZM13.5649 14.8564L13.6719 14.9616L15.1123 13.4968L15.0054 13.3916L14.8984 13.2864L13.458 14.7513L13.5649 14.8564ZM15.0054 13.3916L15.1122 13.4969C15.7574 12.842 16.7952 12.7669 17.524 13.3206L17.6147 13.2012L17.7055 13.0817C16.8561 12.4364 15.6492 12.5245 14.8985 13.2863L15.0054 13.3916ZM17.6147 13.2012L17.5241 13.3207L18.5827 14.1234L18.6733 14.0039L18.764 13.8844L17.7054 13.0816L17.6147 13.2012ZM18.6733 14.0039L18.7313 14.1422L19.4979 13.821L19.4399 13.6826L19.382 13.5443L18.6154 13.8656L18.6733 14.0039ZM19.4399 13.6826L19.5884 13.7038L19.7779 12.3757L19.6294 12.3545L19.4809 12.3333L19.2914 13.6614L19.4399 13.6826ZM19.6294 12.3545L19.7779 12.3757C19.909 11.4577 20.6972 10.7672 21.6069 10.7672V10.6172V10.4672C20.5446 10.4672 19.6326 11.2709 19.4809 12.3333L19.6294 12.3545ZM21.6069 10.6172V10.7672H23.645V10.6172V10.4672H21.6069V10.6172ZM21.6069 12.0928V11.9428C21.2621 11.9428 20.969 12.2032 20.9213 12.5447L21.0698 12.5654L21.2184 12.5862C21.2458 12.3898 21.4149 12.2428 21.6069 12.2428V12.0928ZM21.0698 12.5654L20.9213 12.5441L20.6713 14.2883L20.8198 14.3096L20.9683 14.3309L21.2183 12.5867L21.0698 12.5654ZM20.8198 14.3096L20.6714 14.2881C20.6412 14.4962 20.5064 14.6692 20.319 14.7486L20.3774 14.8867L20.4359 15.0248C20.7207 14.9043 20.9232 14.6424 20.9683 14.3311L20.8198 14.3096ZM20.3774 14.8867L20.3194 14.7484L18.7871 15.392L18.8452 15.5303L18.9033 15.6686L20.4355 15.025L20.3774 14.8867ZM18.8452 15.5303L18.7872 15.392C18.5986 15.4711 18.3855 15.4437 18.2245 15.3204L18.1333 15.4395L18.0421 15.5585C18.289 15.7476 18.616 15.7891 18.9032 15.6686L18.8452 15.5303ZM18.1333 15.4395L18.2239 15.3199L16.8333 14.2662L16.7427 14.3857L16.6521 14.5053L18.0427 15.559L18.1333 15.4395ZM16.7427 14.3857L16.8322 14.2654C16.5593 14.0623 16.1707 14.0837 15.9268 14.3313L16.0337 14.4365L16.1406 14.5418C16.2761 14.4042 16.4965 14.3895 16.6531 14.5061L16.7427 14.3857ZM16.0337 14.4365L15.9268 14.3313L14.4844 15.7961L14.5913 15.9014L14.6982 16.0066L16.1406 14.5418L16.0337 14.4365ZM14.5913 15.9014L14.4843 15.7962C14.2429 16.0419 14.2168 16.4324 14.4205 16.7107L14.5415 16.6221L14.6625 16.5335C14.5446 16.3724 14.5612 16.146 14.6983 16.0065L14.5913 15.9014ZM14.5415 16.6221L14.4206 16.7109L15.4568 18.121L15.5776 18.0322L15.6985 17.9434L14.6624 16.5333L14.5415 16.6221ZM15.5776 18.0322L15.4569 18.1212C15.5797 18.288 15.607 18.5087 15.5287 18.7L15.6675 18.7568L15.8063 18.8137C15.9244 18.5254 15.8832 18.1942 15.6984 17.9433L15.5776 18.0322ZM15.6675 18.7568L15.5286 18.7002L14.8929 20.2578L15.0317 20.3145L15.1706 20.3711L15.8064 18.8135L15.6675 18.7568ZM15.0317 20.3145L14.893 20.2574C14.8142 20.4493 14.6432 20.5836 14.4431 20.6123L14.4644 20.7607L14.4856 20.9092C14.7936 20.8652 15.0523 20.659 15.1705 20.3715L15.0317 20.3145ZM14.4644 20.7607L14.4425 20.6123L12.7286 20.8653L12.7505 21.0137L12.7724 21.1621L14.4863 20.9091L14.4644 20.7607ZM12.7505 21.0137L12.7291 20.8652C12.3889 20.9143 12.1348 21.2132 12.1347 21.5585L12.2847 21.5586L12.4347 21.5587C12.4347 21.3591 12.5825 21.1894 12.7719 21.1621L12.7505 21.0137ZM12.2847 21.5586H12.1347V23.6279H12.2847H12.4347V21.5586H12.2847ZM12.2847 23.6279H12.1347C12.1347 23.9795 12.3859 24.2722 12.7305 24.3232L12.7524 24.1748L12.7744 24.0264C12.5785 23.9974 12.4347 23.8324 12.4347 23.6279H12.2847ZM12.7524 24.1748L12.7305 24.3232L14.4444 24.5761L14.4663 24.4277L14.4882 24.2793L12.7743 24.0264L12.7524 24.1748ZM14.4663 24.4277L14.4442 24.5761C14.647 24.6063 14.8182 24.7415 14.8969 24.933L15.0356 24.876L15.1744 24.819C15.0561 24.5312 14.7972 24.3254 14.4884 24.2794L14.4663 24.4277ZM15.0356 24.876L14.8967 24.9326L15.5305 26.4882L15.6694 26.4316L15.8083 26.375L15.1746 24.8194L15.0356 24.876ZM15.6694 26.4316L15.5307 26.4886C15.609 26.6796 15.5816 26.9004 15.4588 27.0674L15.5796 27.1562L15.7004 27.2451C15.885 26.9943 15.9265 26.663 15.8082 26.3747L15.6694 26.4316ZM15.5796 27.1562L15.4588 27.0673L14.4207 28.4775L14.5415 28.5664L14.6623 28.6553L15.7004 27.2452L15.5796 27.1562ZM14.5415 28.5664L14.4207 28.4774C14.2178 28.7529 14.2449 29.1461 14.4864 29.3914L14.5933 29.2861L14.7001 29.1809C14.5623 29.0409 14.5467 28.8123 14.6623 28.6554L14.5415 28.5664ZM14.5933 29.2861L14.4863 29.3913L15.9268 30.8552L16.0337 30.75L16.1406 30.6448L14.7002 29.1809L14.5933 29.2861ZM16.0337 30.75L15.9268 30.8553C16.1715 31.1036 16.5585 31.1292 16.8329 30.9226L16.7427 30.8027L16.6524 30.6829C16.4973 30.7997 16.2789 30.7852 16.1406 30.6447L16.0337 30.75ZM16.7427 30.8027L16.8332 30.9223L18.2287 29.8657L18.1382 29.7461L18.0476 29.6265L16.6521 30.6831L16.7427 30.8027ZM18.1382 29.7461L18.2299 29.8648C18.3295 29.7879 18.4515 29.7486 18.5737 29.7486V29.5986V29.4486C18.3881 29.4486 18.201 29.5081 18.0465 29.6274L18.1382 29.7461ZM18.5737 29.5986L18.5737 29.7486C18.6492 29.7487 18.7252 29.7633 18.7966 29.7923L18.853 29.6533L18.9095 29.5143C18.8021 29.4707 18.6878 29.4487 18.5738 29.4486L18.5737 29.5986ZM18.853 29.6533L18.7949 29.7916L20.3193 30.4322L20.3774 30.2939L20.4356 30.1557L18.9111 29.515L18.853 29.6533ZM20.3774 30.2939L20.3194 30.4322C20.5085 30.5117 20.6427 30.6853 20.6713 30.8908L20.8198 30.8701L20.9684 30.8495C20.9253 30.5391 20.7223 30.2761 20.4355 30.1556L20.3774 30.2939ZM20.8198 30.8701L20.6713 30.8913L20.9213 32.6413L21.0698 32.6201L21.2183 32.5989L20.9683 30.8489L20.8198 30.8701ZM21.0698 32.6201L20.9213 32.6409C20.9691 32.9822 21.2621 33.2428 21.6069 33.2428V33.0928V32.9428C21.4149 32.9428 21.2459 32.7957 21.2184 32.5993L21.0698 32.6201ZM21.6069 33.0928V33.2428H23.645V33.0928V32.9428H21.6069V33.0928ZM23.645 33.0928V33.2428C23.9899 33.2428 24.2829 32.9823 24.3307 32.6409L24.1821 32.6201L24.0336 32.5993C24.0061 32.7957 23.837 32.9428 23.645 32.9428V33.0928ZM24.1821 32.6201L24.3306 32.6414L24.5806 30.8973L24.4321 30.876L24.2836 30.8547L24.0336 32.5988L24.1821 32.6201ZM24.4321 30.876L24.5806 30.8974C24.6107 30.689 24.7457 30.5152 24.933 30.436L24.8745 30.2979L24.8161 30.1597C24.5309 30.2803 24.3287 30.5434 24.2837 30.8545L24.4321 30.876ZM24.8745 30.2979L24.9325 30.4362L26.4647 29.7936L26.4067 29.6553L26.3487 29.5169L24.8165 30.1595L24.8745 30.2979ZM26.4067 29.6553L26.4652 29.7934C26.6518 29.7145 26.8683 29.7418 27.0294 29.8652L27.1206 29.7461L27.2118 29.627C26.9649 29.4379 26.6341 29.3963 26.3483 29.5171L26.4067 29.6553ZM27.1206 29.7461L27.0299 29.8656L28.4186 30.9193L28.5093 30.7998L28.5999 30.6803L27.2113 29.6266L27.1206 29.7461ZM28.5093 30.7998L28.4186 30.9193C28.6912 31.126 29.0802 31.1009 29.3232 30.8543L29.2163 30.749L29.1095 30.6437C28.9731 30.7821 28.7533 30.7966 28.5999 30.6803L28.5093 30.7998ZM29.2163 30.749L29.3232 30.8543L30.7656 29.3894L30.6587 29.2842L30.5518 29.1789L29.1094 30.6438L29.2163 30.749ZM30.6587 29.2842L30.7661 29.3889C31.0053 29.1435 31.0317 28.7527 30.8296 28.476L30.7085 28.5645L30.5874 28.6529C30.7037 28.8122 30.6876 29.0396 30.5513 29.1795L30.6587 29.2842ZM30.7085 28.5645L30.8294 28.4756L29.7913 27.0626L29.6704 27.1514L29.5495 27.2402L30.5876 28.6533L30.7085 28.5645ZM29.6704 27.1514H29.5204V27.1553H29.6704H29.8204V27.1514H29.6704ZM29.6704 27.1553L29.7908 27.0658C29.6692 26.9021 29.6429 26.6808 29.7207 26.4877L29.5815 26.4316L29.4424 26.3756C29.327 26.6621 29.3638 26.9942 29.55 27.2447L29.6704 27.1553ZM29.5815 26.4316L29.7205 26.4882L30.3533 24.9335L30.2144 24.877L30.0754 24.8204L29.4426 26.3751L29.5815 26.4316ZM30.2144 24.877L30.3533 24.9335C30.432 24.7402 30.6048 24.6049 30.805 24.5762L30.7837 24.4277L30.7624 24.2792C30.4545 24.3233 30.1935 24.5305 30.0754 24.8204L30.2144 24.877ZM30.7837 24.4277L30.8056 24.5761L32.5224 24.3232L32.5005 24.1748L32.4786 24.0264L30.7618 24.2793L30.7837 24.4277ZM32.5005 24.1748L32.5227 24.3231C32.8659 24.2717 33.1153 23.9766 33.1153 23.6279H32.9653H32.8153C32.8153 23.8313 32.6714 23.9975 32.4782 24.0265L32.5005 24.1748ZM32.9653 23.6279H33.1153V21.5586H32.9653H32.8153V23.6279H32.9653ZM32.9653 21.5586L33.1153 21.5585C33.1152 21.2136 32.8622 20.9145 32.522 20.8652L32.5005 21.0137L32.479 21.1621C32.6679 21.1895 32.8152 21.359 32.8153 21.5587L32.9653 21.5586ZM32.5005 21.0137L32.5223 20.8653L30.8074 20.6133L30.7856 20.7617L30.7638 20.9101L32.4787 21.1621L32.5005 21.0137ZM30.7856 20.7617L30.8069 20.6132C30.6071 20.5847 30.4359 20.4496 30.357 20.2575L30.2183 20.3145L30.0795 20.3714C30.1975 20.6588 30.456 20.8661 30.7644 20.9102L30.7856 20.7617ZM30.2183 20.3145L30.3572 20.2578L29.7224 18.7002L29.5835 18.7568L29.4446 18.8134L30.0794 20.3711L30.2183 20.3145ZM29.5835 18.7568L29.7223 18.6999C29.6436 18.5082 29.6707 18.288 29.7928 18.1236L29.6724 18.0342L29.5519 17.9447C29.3664 18.1946 29.3267 18.526 29.4447 18.8138L29.5835 18.7568ZM29.6724 18.0342L29.7932 18.123L30.8313 16.7109L30.7104 16.6221L30.5896 16.5332L29.5515 17.9453L29.6724 18.0342ZM30.7104 16.6221L30.8315 16.7107C31.0357 16.4317 31.0066 16.0416 30.7681 15.7967L30.6606 15.9014L30.5532 16.006C30.6897 16.1462 30.7069 16.373 30.5894 16.5335L30.7104 16.6221ZM30.6606 15.9014L30.7675 15.7961L29.3251 14.3313L29.2183 14.4365L29.1114 14.5418L30.5538 16.0066L30.6606 15.9014ZM29.2183 14.4365L29.3251 14.3313C29.0819 14.0844 28.695 14.0597 28.421 14.2659L28.5112 14.3857L28.6014 14.5056C28.757 14.3885 28.9752 14.4035 29.1114 14.5418L29.2183 14.4365ZM28.5112 14.3857L28.4207 14.2661L27.0281 15.3198L27.1187 15.4395L27.2092 15.5591L28.6017 14.5054L28.5112 14.3857ZM27.1187 15.4395L27.0269 15.3208C26.8681 15.4435 26.652 15.4711 26.4651 15.3921L26.4067 15.5303L26.3483 15.6684C26.6339 15.7891 26.9649 15.7478 27.2104 15.5582L27.1187 15.4395ZM26.4067 15.5303L26.4648 15.392L24.9326 14.7484L24.8745 14.8867L24.8164 15.025L26.3487 15.6686L26.4067 15.5303ZM24.8745 14.8867L24.9326 14.7484C24.7438 14.669 24.6093 14.4946 24.5807 14.2889L24.4321 14.3096L24.2836 14.3302C24.3266 14.6403 24.5295 14.9044 24.8164 15.025L24.8745 14.8867ZM24.4321 14.3096L24.5806 14.2883L24.3306 12.5441L24.1821 12.5654L24.0336 12.5867L24.2836 14.3309L24.4321 14.3096ZM24.1821 12.5654L24.3307 12.5446C24.2829 12.2033 23.9899 11.9428 23.645 11.9428V12.0928V12.2428C23.837 12.2428 24.0061 12.3898 24.0336 12.5862L24.1821 12.5654ZM23.645 12.0928V11.9428H21.6069V12.0928V12.2428H23.645V12.0928ZM22.6235 16.5186L22.6235 16.6686C25.8367 16.6687 28.4539 19.3231 28.454 22.5908L28.604 22.5908L28.754 22.5908C28.7539 19.1618 26.0067 16.3687 22.6235 16.3686L22.6235 16.5186ZM28.604 22.5908H28.454C28.454 25.8587 25.8367 28.5129 22.6235 28.5131L22.6235 28.6631L22.6235 28.8131C26.0067 28.8129 28.754 26.0201 28.754 22.5908H28.604ZM22.6235 28.6631V28.5131C19.4102 28.5131 16.7921 25.8586 16.7921 22.5908H16.6421H16.4921C16.4921 26.02 19.2403 28.8131 22.6235 28.8131V28.6631ZM16.6421 22.5908L16.7921 22.5908C16.7922 19.3229 19.4104 16.6686 22.6235 16.6686V16.5186V16.3686C19.2405 16.3686 16.4922 19.1615 16.4921 22.5908L16.6421 22.5908ZM22.6235 17.9961V17.8461C20.044 17.8461 17.9473 19.9774 17.9472 22.5908L18.0972 22.5908L18.2472 22.5908C18.2473 20.1389 20.2139 18.1461 22.6235 18.1461V17.9961ZM18.0972 22.5908H17.9472C17.9472 25.2042 20.0421 27.3355 22.6235 27.3355V27.1855V27.0355C20.2121 27.0355 18.2472 25.0429 18.2472 22.5908H18.0972ZM22.6235 27.1855L22.6235 27.3355C25.203 27.3354 27.2989 25.2042 27.2989 22.5908H27.1489H26.9989C26.9989 25.0428 25.0331 27.0354 22.6235 27.0355L22.6235 27.1855ZM27.1489 22.5908L27.2989 22.5908C27.2988 19.9776 25.203 17.8462 22.6235 17.8461L22.6235 17.9961L22.6235 18.1461C25.033 18.1462 26.9988 20.1389 26.9989 22.5908L27.1489 22.5908ZM22.6255 4.7998V4.9498C29.6485 4.9498 35.9402 9.19792 38.6538 15.7779L38.7925 15.7207L38.9312 15.6635C36.172 8.97311 29.7721 4.6498 22.6255 4.6498V4.7998ZM38.7925 15.7207L38.6539 15.7781C38.7785 16.0792 38.6377 16.4241 38.3439 16.5495L38.4028 16.6875L38.4617 16.8255C38.9087 16.6346 39.1178 16.1143 38.9311 15.6633L38.7925 15.7207ZM38.4028 16.6875L38.3445 16.5493C38.0514 16.6729 37.7136 16.5359 37.5893 16.2348L37.4507 16.292L37.312 16.3492C37.4994 16.8034 38.0136 17.0145 38.4611 16.8257L38.4028 16.6875ZM37.4507 16.292L37.5894 16.2348C35.0579 10.0969 29.1862 6.1275 22.6265 6.12734L22.6265 6.27734L22.6265 6.42734C29.0626 6.4275 34.8261 10.3216 37.312 16.3492L37.4507 16.292ZM22.6265 6.27734V6.12734C13.685 6.12734 6.41112 13.5126 6.41104 22.5869L6.56104 22.5869L6.71104 22.5869C6.71111 13.6741 13.8549 6.42734 22.6265 6.42734V6.27734ZM6.56104 22.5869H6.41104C6.41104 23.1657 6.44925 23.7472 6.51051 24.3235L6.65967 24.3076L6.80883 24.2918C6.7484 23.7234 6.71104 23.1527 6.71104 22.5869H6.56104ZM6.65967 24.3076L6.76662 24.4128L8.2715 22.8825L8.16455 22.7773L8.0576 22.6722L6.55272 24.2024L6.65967 24.3076ZM8.16455 22.7773L8.27139 22.8826C8.49662 22.6541 8.86118 22.6553 9.08765 22.8823L9.19385 22.7764L9.30005 22.6704C8.95751 22.327 8.40158 22.3231 8.05771 22.6721L8.16455 22.7773ZM9.19385 22.7764L9.08694 22.8816C9.3138 23.1121 9.31386 23.485 9.08854 23.7155L9.1958 23.8203L9.30306 23.9252C9.64251 23.578 9.64237 23.0183 9.30076 22.6712L9.19385 22.7764ZM9.1958 23.8203L9.08889 23.7151L6.3135 26.5354L6.42041 26.6406L6.52732 26.7458L9.30271 23.9255L9.1958 23.8203ZM6.42041 26.6406L6.31354 26.5354C6.20427 26.6463 6.0582 26.7064 5.90474 26.7064L5.90479 26.8564L5.90483 27.0064C6.13778 27.0064 6.36106 26.9146 6.52728 26.7459L6.42041 26.6406ZM5.90479 26.8564H5.75479V26.8584H5.90479H6.05479V26.8564H5.90479ZM5.90479 26.8584V26.7084C5.75131 26.7084 5.60583 26.6482 5.49863 26.538L5.39111 26.6426L5.2836 26.7472C5.44838 26.9165 5.67189 27.0084 5.90479 27.0084V26.8584ZM5.39111 26.6426L5.49797 26.5373L2.72063 23.718L2.61377 23.8232L2.50691 23.9285L5.28425 26.7478L5.39111 26.6426ZM2.61377 23.8232L2.7203 23.7176C2.49372 23.489 2.49372 23.1145 2.7203 22.8859L2.61377 22.7803L2.50723 22.6747C2.16474 23.0202 2.16474 23.5833 2.50723 23.9288L2.61377 23.8232ZM2.61377 22.7803L2.72096 22.8852C2.94472 22.6566 3.30732 22.6561 3.53327 22.8855L3.64014 22.7803L3.747 22.675C3.4039 22.3267 2.84834 22.3262 2.50658 22.6753L2.61377 22.7803ZM3.64014 22.7803L3.53335 22.8856L5.09194 24.4657L5.19873 24.3604L5.30552 24.255L3.74693 22.6749L3.64014 22.7803ZM5.19873 24.3604L5.34803 24.3459C5.29113 23.7591 5.25596 23.1714 5.25596 22.5869H5.10596H4.95596C4.95596 23.1832 4.99183 23.7809 5.04943 24.3748L5.19873 24.3604ZM5.10596 22.5869L5.25596 22.5869C5.25615 12.8603 13.0489 4.95005 22.6255 4.9498L22.6255 4.7998L22.6255 4.6498C12.8789 4.65005 4.95615 12.6989 4.95596 22.5869L5.10596 22.5869Z" fill="white"/>
</svg>
