<svg width="48" height="48" viewBox="0 0 48 48" fill="none" xmlns="http://www.w3.org/2000/svg">
<path d="M24.716 17.9913L22.5653 17.4965C22.505 17.3321 22.4378 17.1678 22.3655 17.0052L23.5433 15.1135C23.6914 14.8757 23.657 14.5645 23.4607 14.3652L21.3272 12.2026C21.1309 12.0033 20.8244 11.9683 20.5902 12.1187L18.7271 13.3128C18.5669 13.2393 18.4051 13.1712 18.2432 13.11L17.7576 10.9281C17.6956 10.6536 17.4563 10.4578 17.179 10.4578H14.1639C13.8867 10.4578 13.6456 10.6536 13.5854 10.9281L13.0998 13.11C12.9379 13.1712 12.7743 13.2393 12.6141 13.3145L10.7493 12.1222C10.5151 11.9718 10.2086 12.0068 10.0123 12.2061L7.88225 14.3687C7.68595 14.568 7.65151 14.8792 7.7996 15.117L8.97742 17.0087C8.9051 17.1695 8.83794 17.3339 8.77595 17.5017L6.62525 17.9965C6.35491 18.0594 6.16204 18.3024 6.16204 18.5839V21.6434C6.16204 21.9249 6.3549 22.1697 6.62525 22.2309L8.77595 22.7256C8.83794 22.8935 8.9051 23.0578 8.97742 23.2169L7.7996 25.1104C7.65151 25.3481 7.68595 25.6593 7.88225 25.8586L10.0123 28.0213C10.2086 28.2206 10.5151 28.2556 10.7493 28.1052L12.6141 26.9093C12.7708 26.9828 12.9344 27.051 13.0998 27.1139L13.5854 29.2975C13.6473 29.572 13.8867 29.7678 14.1639 29.7678H17.179C17.4563 29.7678 17.6973 29.572 17.7576 29.2975L18.2432 27.1139C18.4085 27.051 18.5704 26.9828 18.7271 26.9093L20.5902 28.1052C20.8244 28.2556 21.1309 28.2206 21.3272 28.0213L23.4607 25.8586C23.657 25.6593 23.6914 25.3482 23.5433 25.1104L22.3655 23.2169C22.4378 23.0543 22.505 22.8918 22.5653 22.7274L24.716 22.2326C24.9863 22.1697 25.1792 21.9267 25.1792 21.6452V18.5857C25.1792 18.2989 24.9863 18.0542 24.716 17.9913ZM23.991 21.1574L21.9815 21.619C21.7766 21.6662 21.6113 21.82 21.5476 22.0246C21.4477 22.3445 21.3169 22.6627 21.1602 22.9739C21.0637 23.1645 21.0741 23.3917 21.186 23.5718L22.2863 25.3411L20.8261 26.8219L19.0853 25.7047C18.9062 25.5893 18.6823 25.5806 18.4946 25.6785C18.2019 25.8323 17.8851 25.9669 17.5562 26.0753C17.3564 26.1418 17.2066 26.3079 17.1601 26.5159L16.7073 28.5544H14.6427L14.1898 26.5159C14.1433 26.3079 13.9918 26.14 13.7921 26.0753C13.4615 25.9669 13.1464 25.8341 12.8553 25.6802C12.6676 25.5806 12.4421 25.5911 12.263 25.7047L10.5204 26.8219L9.0619 25.3411L10.1622 23.5718C10.2759 23.39 10.2845 23.1609 10.1863 22.9704C10.0348 22.6766 9.90393 22.3567 9.79717 22.021C9.73173 21.8182 9.56815 21.6661 9.36324 21.6189L7.35373 21.1574V19.0612L9.36324 18.5996C9.56815 18.5524 9.73173 18.4003 9.79717 18.1975C9.90393 17.8636 10.0348 17.5419 10.188 17.2447C10.2845 17.0541 10.2759 16.8269 10.1622 16.6451L9.0619 14.8775L10.5204 13.3967L12.263 14.5121C12.4403 14.6258 12.6642 14.6363 12.8519 14.5384C13.1584 14.3775 13.4735 14.2464 13.7869 14.145C13.9883 14.0803 14.1416 13.9125 14.1881 13.7027L14.6409 11.6642H16.7055L17.1584 13.7027C17.2049 13.9125 17.3564 14.0803 17.5579 14.145C17.8713 14.2464 18.1864 14.3793 18.4963 14.5401C18.6823 14.6363 18.9062 14.6258 19.0835 14.5139L20.8244 13.3985L22.2846 14.881L21.1843 16.6486C21.0723 16.8286 21.062 17.0559 21.1567 17.2447C21.3151 17.5594 21.446 17.8811 21.5459 18.1975C21.6096 18.4021 21.7749 18.5559 21.9798 18.6031L23.9893 19.0647L23.991 21.1574ZM15.6724 15.7464C13.303 15.7464 11.3762 17.7027 11.3762 20.1084C11.3762 22.514 13.303 24.4704 15.6724 24.4704C18.0418 24.4704 19.9686 22.514 19.9686 20.1084C19.9686 17.7027 18.0418 15.7464 15.6724 15.7464ZM15.6724 23.2641C13.9574 23.2641 12.5626 21.848 12.5626 20.1067C12.5626 18.3654 13.9574 16.951 15.6724 16.951C17.3874 16.951 18.7805 18.3671 18.7805 20.1067C18.7805 21.848 17.3857 23.2641 15.6724 23.2641ZM41.1194 22.2711C41.3811 23.2553 42.2679 23.9826 43.32 23.9826C44.5771 23.9826 45.5999 22.9441 45.5999 21.6679C45.5999 20.3916 44.5771 19.3531 43.32 19.3531C42.2679 19.3531 41.3812 20.0804 41.1194 21.0647H28.7854C28.8732 20.5157 28.9266 19.9562 28.9386 19.3881H32.5771C32.9042 19.3881 33.1712 19.1188 33.1712 18.7849V13.6835H37.4846C37.7464 14.6678 38.6332 15.3951 39.6853 15.3951C40.9423 15.3951 41.9651 14.3566 41.9651 13.0804C41.9651 11.8041 40.9423 10.7656 39.6853 10.7656C38.6332 10.7656 37.7464 11.4929 37.4846 12.4772H32.577C32.2499 12.4772 31.9829 12.7464 31.9829 13.0804V18.1817H28.9058C28.8128 16.86 28.5304 15.5907 28.0879 14.4001V7.71799H41.1193C41.381 8.70228 42.2678 9.42957 43.3199 9.42957C44.577 9.42957 45.5998 8.39108 45.5998 7.11481C45.5998 5.83853 44.577 4.80005 43.3199 4.80005C42.2678 4.80005 41.381 5.52734 41.1193 6.51163L27.4954 6.51337C27.1683 6.51337 26.9013 6.78261 26.9013 7.11656V11.982C24.5475 8.19872 20.394 5.68122 15.6724 5.68122C8.35401 5.68122 2.3999 11.7251 2.3999 19.1538C2.3999 22.9756 4.32675 26.3341 6.19163 29.5825C6.58939 30.2749 6.96477 30.9287 7.32294 31.5896C7.32466 31.5931 7.32638 31.5966 7.32982 31.6001L8.4577 33.5809C7.63976 33.9935 7.07671 34.8484 7.07671 35.8362C7.07671 37.2244 8.18906 38.352 9.55458 38.352H10.3363C10.6325 41.0759 12.9124 43.2 15.6711 43.2C18.4382 43.2 20.7233 41.0636 21.0089 38.3292H21.8182C23.1906 38.3292 24.2651 37.233 24.2651 35.8344C24.2651 34.8466 23.702 33.9917 22.8841 33.5791L24.012 31.5982C24.0137 31.5947 24.0154 31.5912 24.0171 31.5895C24.1032 31.4321 24.1911 31.2748 24.2789 31.1157H26.8979V36.217C26.8979 36.5492 27.1631 36.8202 27.492 36.8202H41.1177C41.3794 37.8045 42.2662 38.5318 43.3183 38.5318C44.5753 38.5318 45.5982 37.4933 45.5982 36.217C45.5982 34.9408 44.5753 33.9023 43.3183 33.9023C42.2662 33.9023 41.3794 34.6296 41.1177 35.6139L28.0876 35.6156V30.5143C28.0876 30.1821 27.8224 29.9111 27.4935 29.9111H24.9674C25.0208 29.8184 25.0724 29.7275 25.1275 29.6331C25.9678 28.1733 26.8219 26.6907 27.5072 25.1503H31.9824V30.2552C31.9824 30.5874 32.2476 30.8584 32.5765 30.8584H37.4841C37.7458 31.8427 38.6326 32.57 39.6847 32.57C40.9418 32.57 41.9646 31.5315 41.9646 30.2552C41.9646 28.9789 40.9418 27.9405 39.6847 27.9405C38.6326 27.9405 37.7458 28.6678 37.4841 29.652H33.1706V24.5489C33.1706 24.2167 32.9054 23.9457 32.5765 23.9457H28.0031C28.208 23.3967 28.3871 22.839 28.5334 22.2708L41.1194 22.2711ZM43.32 20.5595C43.9227 20.5595 44.4118 21.056 44.4118 21.6679C44.4118 22.2781 43.9227 22.7764 43.32 22.7764C42.7174 22.7764 42.2283 22.2798 42.2283 21.6679C42.2283 21.0578 42.7191 20.5595 43.32 20.5595ZM39.685 11.9716C40.2877 11.9716 40.7768 12.4681 40.7768 13.08C40.7768 13.6902 40.2877 14.1885 39.685 14.1885C39.0823 14.1885 38.5933 13.692 38.5933 13.08C38.5933 12.4681 39.0823 11.9716 39.685 11.9716ZM43.32 6.00825C43.9227 6.00825 44.4118 6.50478 44.4118 7.11669C44.4118 7.72685 43.9227 8.22513 43.32 8.22513C42.7174 8.22513 42.2283 7.7286 42.2283 7.11669C42.2283 6.50478 42.7191 6.00825 43.32 6.00825ZM43.32 35.112C43.9227 35.112 44.4118 35.6086 44.4118 36.2205C44.4118 36.8306 43.9227 37.3289 43.32 37.3289C42.7174 37.3289 42.2283 36.8324 42.2283 36.2205C42.2283 35.6086 42.7191 35.112 43.32 35.112ZM39.685 29.1469C40.2877 29.1469 40.7768 29.6434 40.7768 30.2553C40.7768 30.8655 40.2877 31.3638 39.685 31.3638C39.0823 31.3638 38.5933 30.8673 38.5933 30.2553C38.5933 29.6452 39.0823 29.1469 39.685 29.1469ZM21.8201 37.1261H15.1148C14.7876 37.1261 14.5207 37.3953 14.5207 37.7293C14.5207 38.0614 14.7859 38.3325 15.1148 38.3325H19.8139C19.5332 40.3989 17.7837 41.9969 15.6727 41.9969C13.5685 41.9969 11.8241 40.4112 11.5349 38.3552H13.3825C13.7097 38.3552 13.9766 38.086 13.9766 37.752C13.9766 37.4198 13.7114 37.1488 13.3825 37.1488H9.55635C8.84518 37.1488 8.26489 36.5614 8.26489 35.8376C8.26489 35.1155 8.84346 34.5264 9.55635 34.5264H21.7908C22.5019 34.5264 23.0822 35.1138 23.0822 35.8376C23.0805 36.5596 22.5261 37.1261 21.8201 37.1261ZM24.1034 29.0261C23.883 29.4089 23.6591 29.7971 23.4387 30.187C23.4267 30.2044 23.4163 30.2237 23.4077 30.2429C23.2648 30.4964 23.1219 30.7499 22.9858 31.0017L21.6668 33.3199H9.6806L8.36159 31.0017C7.99653 30.3286 7.60047 29.6415 7.2182 28.9754C5.43426 25.8652 3.58834 22.65 3.58834 19.1536C3.58834 12.3895 9.00906 6.88763 15.6729 6.88763C22.3349 6.88763 27.7539 12.3913 27.7539 19.1536C27.7539 22.6834 25.8976 25.907 24.1034 29.0261Z" fill="white" stroke="white" stroke-width="0.2"/>
</svg>
