<svg width="160" height="80" viewBox="0 0 160 80" fill="none" xmlns="http://www.w3.org/2000/svg">
<path d="M69.5304 36.5368C70.6042 33.6733 71.6184 34.1502 72.215 34.7468C72.5729 35.4626 72.2151 35.642 71.7677 36.5368C69.5306 41.4585 70.4476 45.3541 72.6622 45.0378C75.7942 44.5903 80.2687 40.7121 82.9532 38.3259C83.0571 38.2636 83.1478 38.2136 83.2257 38.1735C83.4212 37.9347 83.6283 37.6873 83.8478 37.4313C85.9952 34.9261 88.471 34.8968 89.6642 35.195C91.3235 35.6102 91.0071 37.432 90.1124 38.3269L89.6642 46.8278L100.402 37.8796C101.744 34.3009 102.491 34.4486 103.087 34.7468C103.802 35.4626 103.087 36.6857 102.64 37.4313C100.403 41.4581 101.251 41.5054 101.298 41.4587C104.877 37.8794 108.457 35.1947 109.352 36.0895C109.984 36.7239 110.145 40.1361 109.799 43.2477C109.352 47.2741 113.826 41.9062 118.3 38.3269C120.704 36.4035 120.238 37.8793 119.642 38.7741C118.299 40.5639 110.932 46.9835 109.352 45.9323C108.01 45.0376 109.35 37.8809 108.456 37.4313C107.889 37.1496 103.534 40.117 99.5079 45.4851C98.6131 46.3799 97.8976 45.7532 98.6134 43.2477L99.5079 39.6686L89.2169 49.0651C88.7647 52.6446 86.9406 58.9081 86.0851 61.5925C81.4324 72.3294 78.9265 70.5412 78.0314 68.3044C76.6891 60.6982 84.2956 51.8982 88.3224 48.1696L88.7697 39.6686C86.0853 44.1426 82.282 46.3797 81.1632 44.1433C80.772 43.3609 80.7219 42.5779 81.0148 41.6833C79.6556 43.6505 75.676 46.8278 72.6622 46.8278C67.7203 46.8278 68.1881 40.1163 69.5304 36.5368ZM87.4279 50.4069C78.9268 58.908 78.0317 68.3042 79.8214 68.7517C82.059 69.6437 87.875 57.1177 87.4279 50.4069ZM55.6603 11.0339C61.3871 8.17053 65.2055 8.94541 66.3986 9.69111C71.0515 11.481 71.3196 18.193 70.8722 21.3249C70.8721 23.8302 69.6787 24.4567 69.0822 24.4567C68.009 24.4561 68.3367 22.3689 68.6349 21.3249C70.0666 16.6717 68.6352 13.4197 67.7404 12.3757C63.803 8.43867 57.4493 11.6305 54.7648 13.7185C49.7541 17.6556 52.0806 23.7103 53.8702 26.2458C55.6599 29.2285 60.5965 36.454 63.2657 42.8005C66.0388 49.3941 65.2807 54.9175 64.3702 56.739C60.3434 64.7925 51.6329 66.2463 46.2638 62.488C41.7896 59.356 40.0001 54.881 40.0001 50.8542C40.0002 46.845 42.2181 43.2797 42.2374 43.2487C42.2374 43.2487 46.2645 38.3264 47.1593 39.6686C47.7559 40.5635 45.3688 42.801 44.0265 44.1433C41.1633 47.0069 41.6409 52.7935 42.2374 55.3288C44.6739 61.7464 50.2416 63.2288 52.5275 63.0817C58.8704 62.6731 61.4762 58.4606 62.8185 55.7761C65.9504 49.0647 57.4491 36.0896 52.5275 27.5886C46.8006 18.6402 52.23 12.8236 55.6603 11.0339ZM88.3224 36.9841C86.1334 36.9841 81.5971 40.5147 82.6915 43.6091C83.8492 44.1404 88.7683 38.7742 88.3224 36.9841ZM71.3195 28.4831C71.3195 28.0356 72.6619 25.7988 74.004 26.2458C75.0598 26.5977 75.0487 27.7374 74.8995 28.4831C74.5416 30.2726 73.1538 31.7864 72.2589 31.3395C70.8728 31.1677 71.3195 28.9305 71.3195 28.4831Z" fill="#808080"/>
</svg>
