<svg width="160" height="80" viewBox="0 0 160 80" fill="none" xmlns="http://www.w3.org/2000/svg">
<path d="M98.7417 77.2441L84.0076 47.1273C83.7557 46.5911 83.1546 46.2437 82.4762 46.2437C81.7979 46.2437 81.1949 46.5894 80.9467 47.1173L66.7917 76.8699L66.4387 77.6166C66.2935 77.9223 66.3284 78.2765 66.5306 78.5538C66.7328 78.8327 67.0766 78.9998 67.4424 78.9998H68.7348C69.2054 78.9998 69.6227 78.7275 69.7697 78.3216L82.4744 51.5307L95.2912 77.6283L95.4088 77.9474C95.5577 78.3533 95.9732 78.6256 96.4456 78.6256H97.738C98.1056 78.6256 98.4476 78.4586 98.6498 78.1796C98.852 77.9023 98.8869 77.5482 98.7417 77.2425" fill="#808080"/>
<path d="M58.5872 43.7266C58.5872 43.7266 58.8758 54.0651 69.6612 56.0028C69.6612 56.0028 71.415 48.3604 58.5872 43.7266Z" fill="#808080"/>
<path d="M42 43.7183C42 43.7183 47.4837 51.6781 56.8959 48.6679C56.8959 48.6679 54.3848 41.9593 42 43.7183Z" fill="#808080"/>
<path d="M119 48.6777C119 48.6777 109.336 45.5456 104.051 53.1646C104.051 53.1646 110.553 56.9816 119 48.6777Z" fill="#808080"/>
<path d="M107.663 42.7427C107.663 42.7427 94.7103 43.2822 92.5337 54.4877C92.5337 54.4877 102.152 56.1281 107.663 42.7427Z" fill="#808080"/>
<path d="M61.2859 32.2554C61.2859 32.2554 60.5671 41.331 69.8267 43.8634C69.8267 43.8634 72.0842 37.3085 61.2859 32.2554Z" fill="#808080"/>
<path d="M101.42 29.0518C101.42 29.0518 91.0372 29.2856 89.0867 38.2293C89.0867 38.2293 96.7599 39.6893 101.42 29.0518Z" fill="#808080"/>
<path d="M105.262 19.084C105.262 19.084 96.7048 19.1007 95.304 27.2208C95.304 27.2208 101.663 28.6975 105.262 19.084Z" fill="#808080"/>
<path d="M72.1908 22.2227C72.1908 22.2227 66.1151 30.5449 73.4592 37.5074C73.4592 37.5074 79.5091 32.3524 72.1908 22.2227Z" fill="#808080"/>
<path d="M64.183 10.4478C64.183 10.4478 63.159 18.5528 71.3506 21.1454C71.3506 21.1454 73.6503 15.3522 64.183 10.4478Z" fill="#808080"/>
<path d="M92.0741 10.668C92.0741 10.668 87.2338 17.2947 93.0833 22.8406C93.0833 22.8406 97.9016 18.7363 92.0741 10.668Z" fill="#808080"/>
<path d="M77.2756 9.35498C77.2756 9.35498 71.1999 17.6772 78.544 24.6397C78.544 24.6397 84.5921 19.4863 77.2756 9.35498Z" fill="#808080"/>
<path d="M84.763 30.9678C84.763 30.9678 75.314 34.5342 77.0108 43.381C77.0108 43.381 84.6325 42.2484 84.763 30.9678Z" fill="#808080"/>
<path d="M82.7777 2C82.7777 2 78.2425 9.58558 85.1473 15.0731C85.1473 15.0731 89.9269 10.2187 82.7777 2Z" fill="#808080"/>
<path d="M109.047 28.9365C109.047 28.9365 99.5984 32.503 101.295 41.3497C101.295 41.3497 108.917 40.2188 109.047 28.9365Z" fill="#808080"/>
<path d="M84.7981 18.6279C84.7981 18.6279 81.9395 27.5549 90.5924 31.8948C90.5924 31.8948 94.3959 25.7875 84.7981 18.6279Z" fill="#808080"/>
<path d="M55.0594 19.3711C55.0594 19.3711 56.8812 28.5219 66.7548 28.8978C66.7548 28.8978 67.1611 21.8918 55.0594 19.3711Z" fill="#808080"/>
<path d="M50.3277 29.8799C50.3277 29.8799 49.3368 39.1343 58.727 41.9406C58.727 41.9406 61.2179 35.3005 50.3277 29.8799Z" fill="#808080"/>
<path d="M98.4787 40.8151C98.4787 40.8151 91.8994 37.5644 87.1363 42.5106C87.1363 42.5106 91.3479 45.9317 98.4787 40.8151Z" fill="#808080"/>
</svg>
