<svg width="160" height="80" viewBox="0 0 160 80" fill="none" xmlns="http://www.w3.org/2000/svg">
<g clip-path="url(#clip0_705_11736)">
<path fill-rule="evenodd" clip-rule="evenodd" d="M62.7496 30.5688C65.7818 30.5353 68.6227 31.1161 71.0498 33.0659C73.1459 34.7487 74.2303 37.0049 74.51 39.7282C75.0394 44.8713 72.6722 48.7782 69.4003 52.2516C67.7009 54.0555 65.8003 55.6609 63.9896 57.3538C63.6771 57.6457 63.3532 57.9245 62.7511 58.4644H75.105V64.956H51.8839C51.9053 63.4615 51.8839 61.9685 51.8968 60.3953L63.9525 48.2411C65.1026 47.0254 65.943 45.3617 66.5195 43.749C67.768 40.2682 65.973 36.5963 60.9289 36.9422C58.5318 37.1056 56.4642 38.1725 54.3781 39.6392C53.6746 37.8354 52.9641 36.1278 52.3833 34.3736C52.3833 34.3736 55.1472 30.8301 62.7468 30.5674L62.7496 30.5688Z" fill="#808080"/>
<path d="M84.9733 65.051V14H99.6431L110.054 52.3101L120.38 14H135.134V65.051H125.052V36.1308L117.595 65.051H102.433L95.137 36.2155V65.051H84.9733Z" fill="#808080"/>
<path d="M47.8672 14H55.0587L42.3338 65.051H34.2819L47.8672 14Z" fill="#808080"/>
<path d="M28.9339 47.7611H36.1268V14H29.7958L25 16.4518V22.6136L28.8726 20.979L28.9339 47.7611Z" fill="#808080"/>
</g>
<defs>
<clipPath id="clip0_705_11736">
<rect width="110.134" height="51.051" fill="white" transform="translate(25 14)"/>
</clipPath>
</defs>
</svg>
