<svg width="160" height="80" viewBox="0 0 160 80" fill="none" xmlns="http://www.w3.org/2000/svg">
<g clip-path="url(#clip0_705_11794)">
<path d="M64.3929 43.2879C64.3929 44.9249 65.8126 46.0515 67.9953 46.0515C71.1984 46.0515 73.0526 44.4146 73.0526 40.302V39.3926C71.7441 39.721 70.6174 39.8675 69.5968 40.0494C65.9945 40.595 64.3929 41.5045 64.3929 43.2879Z" fill="#808080"/>
<path d="M46.2804 32.5518C44.1331 32.5518 41.4807 33.7542 41.1876 37.21H51.1559C51.0447 34.2645 48.9379 32.5518 46.2804 32.5518Z" fill="#808080"/>
<path d="M112.814 32.5518C110.667 32.5518 108.015 33.7542 107.722 37.21H117.69C117.579 34.2645 115.472 32.5518 112.814 32.5518Z" fill="#808080"/>
<path d="M129.366 20.749L31.9373 15.0096C27.7085 14.762 24.3588 18.5361 25.1065 22.7043L31.8463 60.2936C32.4475 63.6534 35.5295 65.9875 38.9246 65.6541L129.614 56.8428C132.969 56.5144 135.53 53.6952 135.53 50.3253V27.2867C135.53 23.8208 132.827 20.9511 129.366 20.749ZM55.5569 40.3773H41.1881C41.2992 43.9038 43.8456 45.6873 46.4981 45.6873C48.7918 45.6873 50.4995 44.8132 51.2624 42.9237L55.2285 43.7219C54.1018 46.8493 51.227 49.2896 46.5334 49.2896C40.1321 49.2896 36.7824 44.596 36.7824 39.0688C36.7824 33.5415 40.602 29.1712 46.2758 29.1712C52.3891 29.1712 55.9156 33.8295 55.5518 40.3773H55.5569ZM73.816 48.8147C73.6695 47.976 73.523 47.3596 73.4522 46.0157C72.2498 48.1983 69.9257 49.2896 67.0509 49.2896C62.7969 49.2896 59.8109 46.8898 59.8109 43.3935C59.8109 39.5033 63.2667 37.937 68.4706 37.2449L70.7644 36.9165C72.5479 36.6234 72.9824 36.007 72.9824 34.9157C72.9824 33.1323 71.4566 32.2229 69.0516 32.2229C66.5053 32.2229 64.8683 33.3849 64.7572 35.7494L60.5385 35.3149C61.0488 31.5661 64.3227 29.0197 68.9809 29.0197C73.6392 29.0197 77.4233 30.9497 77.3122 37.2044C77.3122 38.1846 77.2415 40.3318 77.2415 42.1153C77.2415 44.5909 77.4587 47.1727 77.8225 48.8096H73.821L73.816 48.8147ZM90.807 49.2896C86.0426 49.2896 82.8748 46.7079 82.1826 43.2117L86.2194 42.373C86.6539 44.7375 88.1848 46.0106 90.9484 46.0106C93.3483 46.0106 94.9499 45.0659 94.9499 43.5754C94.9499 42.085 93.5302 41.3928 91.4587 40.9583L88.5132 40.3419C85.1281 39.6498 82.5818 38.2301 82.5818 34.7035C82.5818 31.177 86.2194 29.1763 90.5847 29.1763C94.3335 29.1763 97.7539 31.0659 98.7341 34.5217L94.8034 35.3199C94.3689 33.5011 92.7319 32.4805 90.2916 32.4805C88.3263 32.4805 86.6539 33.2434 86.6539 34.4812C86.6539 35.7191 87.5987 36.4112 89.4934 36.8104L92.1509 37.356C96.0816 38.1543 99.1736 39.3567 99.1736 43.0702C99.1736 47.0716 95.354 49.2896 90.807 49.2896ZM122.091 40.3773H107.722C107.833 43.9038 110.38 45.6873 113.032 45.6873C115.326 45.6873 117.034 44.8132 117.796 42.9237L121.763 43.7219C120.636 46.8493 117.761 49.2896 113.068 49.2896C106.666 49.2896 103.317 44.596 103.317 39.0688C103.317 33.5415 107.136 29.1712 112.81 29.1712C118.923 29.1712 122.45 33.8295 122.086 40.3773H122.091ZM129.376 48.8147H126.214V45.6519H129.376V48.8147Z" fill="#808080"/>
<path d="M92.1505 37.3565L89.493 36.8108C87.6034 36.4117 86.6536 35.6842 86.6536 34.4817C86.6536 33.2792 88.3259 32.481 90.2912 32.481C92.7265 32.481 94.3634 33.5015 94.803 35.3204L98.7337 34.5221C97.7535 31.0663 94.3331 29.1768 90.5843 29.1768C86.2191 29.1768 82.5814 31.324 82.5814 34.704C82.5814 38.084 85.1278 39.6502 88.5128 40.3424L91.4583 40.9588C93.5298 41.3933 94.9495 42.0854 94.9495 43.5759C94.9495 45.0663 93.3479 46.0111 90.948 46.0111C88.1844 46.0111 86.6536 44.7379 86.2191 42.3734L82.1823 43.2121C82.8744 46.7033 86.0372 49.2901 90.8066 49.2901C95.576 49.2901 99.1732 47.0721 99.1732 43.0706C99.1732 39.3622 96.0812 38.1598 92.1505 37.3565Z" fill="black"/>
<path d="M129.376 45.6523H126.213V48.8151H129.376V45.6523Z" fill="black"/>
</g>
<defs>
<clipPath id="clip0_705_11794">
<rect width="110.53" height="50.6849" fill="white" transform="translate(25 15)"/>
</clipPath>
</defs>
</svg>
