<svg width="160" height="80" viewBox="0 0 160 80" fill="none" xmlns="http://www.w3.org/2000/svg">
<path d="M83.5717 41.2095V43.8993H75.7964V41.2095H83.5717ZM77.5616 38.1162H81.1424V50.1531C81.1424 50.4837 81.1929 50.7415 81.2937 50.9264C81.3946 51.1058 81.5347 51.2318 81.714 51.3047C81.899 51.3775 82.1119 51.414 82.3529 51.414C82.521 51.414 82.6891 51.4 82.8572 51.3719C83.0253 51.3383 83.1542 51.3131 83.2439 51.2963L83.8071 53.9609C83.6277 54.0169 83.3756 54.0814 83.0505 54.1542C82.7255 54.2327 82.3305 54.2803 81.8653 54.2971C81.0023 54.3307 80.2458 54.2159 79.5958 53.9525C78.9513 53.6891 78.4498 53.28 78.0912 52.7252C77.7325 52.1705 77.556 51.47 77.5616 50.6238V38.1162Z" fill="#808080"/>
<path d="M74.155 44.8908L70.8767 45.0925C70.8207 44.8124 70.7002 44.5602 70.5153 44.336C70.3303 44.1063 70.0866 43.9242 69.784 43.7897C69.487 43.6496 69.1311 43.5795 68.7164 43.5795C68.1617 43.5795 67.6937 43.6972 67.3127 43.9326C66.9316 44.1623 66.7411 44.4705 66.7411 44.8572C66.7411 45.1654 66.8644 45.426 67.1109 45.6389C67.3575 45.8519 67.7806 46.0228 68.3802 46.1517L70.717 46.6224C71.9723 46.8801 72.9081 47.2948 73.5245 47.8664C74.141 48.438 74.4492 49.1889 74.4492 50.1191C74.4492 50.9653 74.1998 51.7078 73.7011 52.3466C73.2079 52.9855 72.5299 53.4842 71.6669 53.8428C70.8095 54.1959 69.8204 54.3724 68.6996 54.3724C66.9905 54.3724 65.6287 54.0166 64.6144 53.3049C63.6057 52.5876 63.0145 51.6125 62.8408 50.3797L66.3628 50.1948C66.4693 50.7159 66.7271 51.1138 67.1362 51.3884C67.5452 51.6574 68.0692 51.7919 68.708 51.7919C69.3357 51.7919 69.84 51.6714 70.2211 51.4304C70.6077 51.1838 70.8039 50.8672 70.8095 50.4806C70.8039 50.1556 70.6666 49.8894 70.3976 49.682C70.1286 49.4691 69.7139 49.3066 69.1535 49.1945L66.9176 48.749C65.6567 48.4968 64.7181 48.0597 64.1017 47.4377C63.4909 46.8157 63.1855 46.0228 63.1855 45.0589C63.1855 44.2296 63.4096 43.5151 63.8579 42.9155C64.3118 42.3159 64.9479 41.8536 65.766 41.5285C66.5898 41.2035 67.5536 41.041 68.6576 41.041C70.2883 41.041 71.5716 41.3856 72.5074 42.0749C73.4489 42.7642 73.9981 43.7028 74.155 44.8908Z" fill="#808080"/>
<path d="M55.1496 54.3724C53.8215 54.3724 52.6783 54.1034 51.72 53.5654C50.7674 53.0219 50.0333 52.2542 49.5177 51.2623C49.0022 50.2648 48.7444 49.0852 48.7444 47.7235C48.7444 46.3954 49.0022 45.2298 49.5177 44.2268C50.0333 43.2237 50.759 42.442 51.6948 41.8816C52.6362 41.3212 53.7402 41.041 55.0067 41.041C55.8585 41.041 56.6514 41.1783 57.3855 41.4529C58.1252 41.7219 58.7696 42.1281 59.3188 42.6717C59.8736 43.2153 60.3051 43.8989 60.6133 44.7227C60.9215 45.5408 61.0756 46.4991 61.0756 47.5974V48.5809H50.1734V46.3618H57.7049C57.7049 45.8463 57.5928 45.3895 57.3687 44.9917C57.1445 44.5938 56.8335 44.2828 56.4356 44.0586C56.0434 43.8289 55.5867 43.714 55.0655 43.714C54.5219 43.714 54.04 43.8401 53.6197 44.0923C53.205 44.3388 52.88 44.6723 52.6447 45.0925C52.4093 45.5072 52.2888 45.9695 52.2832 46.4795V48.5893C52.2832 49.2281 52.4009 49.7801 52.6362 50.2452C52.8772 50.7103 53.2162 51.069 53.6533 51.3211C54.0904 51.5733 54.6088 51.6994 55.2084 51.6994C55.6063 51.6994 55.9705 51.6434 56.3012 51.5313C56.6318 51.4192 56.9148 51.2511 57.1501 51.0269C57.3855 50.8028 57.5648 50.5282 57.6881 50.2032L61 50.4217C60.8319 51.2175 60.4872 51.9123 59.9661 52.5063C59.4505 53.0947 58.7837 53.5542 57.9655 53.8849C57.1529 54.2099 56.2143 54.3724 55.1496 54.3724Z" fill="#808080"/>
<path d="M47.8492 41.2095L43.3353 54.1206H39.3005L34.7866 41.2095H38.5692L41.2506 50.4473H41.3851L44.0582 41.2095H47.8492Z" fill="#808080"/>
<path d="M29.363 54.1201V41.209H32.9439V54.1201H29.363ZM31.1618 39.5447C30.6295 39.5447 30.1728 39.3682 29.7917 39.0152C29.4162 38.6565 29.2285 38.2278 29.2285 37.7291C29.2285 37.236 29.4162 36.8129 29.7917 36.4598C30.1728 36.1012 30.6295 35.9219 31.1618 35.9219C31.6942 35.9219 32.1481 36.1012 32.5236 36.4598C32.9046 36.8129 33.0952 37.236 33.0952 37.7291C33.0952 38.2278 32.9046 38.6565 32.5236 39.0152C32.1481 39.3682 31.6942 39.5447 31.1618 39.5447Z" fill="#808080"/>
<path d="M15.9998 54.1206V36.9058H19.6394V51.1197H27.0197V54.1206H15.9998Z" fill="#808080"/>
<path d="M100.539 26C103.346 26.0001 105.767 26.6029 107.803 27.8076C109.851 29.0004 111.43 30.6745 112.539 32.8311C113.647 34.9756 114.201 37.4822 114.201 40.3496C114.201 43.1928 113.647 45.6931 112.539 47.8496C111.43 49.9941 109.851 51.6683 107.803 52.873C105.767 54.0658 103.346 54.6621 100.539 54.6621C97.7315 54.6621 95.3037 54.0658 93.2555 52.873C91.2195 51.6683 89.6471 49.994 88.5387 47.8496C87.4303 45.6931 86.8757 43.1928 86.8756 40.3496C86.8756 37.4822 87.4303 34.9756 88.5387 32.8311C89.6471 30.6746 91.2195 29.0003 93.2555 27.8076C95.3037 26.6028 97.7315 26 100.539 26ZM123.38 41.041C124.507 41.041 125.493 41.2452 126.339 41.6543C127.186 42.0634 127.855 42.6382 128.348 43.3779C128.841 44.1176 129.113 44.986 129.164 45.9834H125.785C125.69 45.3391 125.437 44.8209 125.028 44.4287C124.624 44.0308 124.095 43.832 123.439 43.832C122.884 43.8321 122.4 43.9836 121.985 44.2861C121.576 44.5831 121.257 45.0174 121.027 45.5889C120.797 46.1604 120.682 46.8526 120.682 47.665C120.682 48.4887 120.794 49.1895 121.018 49.7666C121.248 50.3436 121.57 50.7834 121.985 51.0859C122.4 51.3885 122.884 51.54 123.439 51.54C123.848 51.54 124.216 51.4552 124.541 51.2871C124.871 51.119 125.143 50.8759 125.356 50.5566C125.575 50.2316 125.718 49.8416 125.785 49.3877H129.164C129.108 50.374 128.839 51.2432 128.357 51.9941C127.881 52.7393 127.222 53.3219 126.381 53.7422C125.541 54.1625 124.546 54.3721 123.397 54.3721C122.075 54.372 120.937 54.0924 119.985 53.5322C119.038 52.9663 118.309 52.1816 117.799 51.1787C117.295 50.1756 117.043 49.0205 117.043 47.7148C117.043 46.3926 117.297 45.2327 117.807 44.2354C118.323 43.2323 119.055 42.45 120.002 41.8896C120.949 41.3238 122.075 41.041 123.38 41.041ZM135.037 46.1094H135.23L139.366 41.209H143.476L138.687 46.8018L143.72 54.1201H139.526L136.006 48.9121L135.037 50.0215V54.1201H131.457V36.9053H135.037V46.1094ZM93.1403 32.4004C93.1557 32.6637 93.3726 33.3903 94.1158 34.1895C94.263 34.3521 94.762 34.7194 95.5797 34.8867C95.9746 34.9719 96.7131 35.1979 96.5094 35.4209C96.3003 35.6765 95.7283 36.1458 95.1149 35.9785C94.348 35.7695 92.8146 35.793 92.2106 36.6758C91.8698 37.094 91.2444 38.1169 91.4674 38.8604C91.7468 39.7894 94.6276 39.9754 95.7428 38.5352C95.8047 39.2325 95.6961 40.9331 94.9528 41.8809C94.5035 42.1364 93.6888 42.9961 93.8375 44.6689C93.6516 44.7991 93.6051 45.0949 93.6051 45.2266C93.661 45.8767 94.2629 45.9928 94.5573 45.9697C94.7989 47.2895 96.548 47.1856 97.3922 46.9688C97.671 47.1732 98.0665 47.2403 98.2291 47.248C98.935 47.8795 99.6531 48.3625 99.9244 48.5254C100.807 48.8274 101.458 49.13 101.621 49.3623C101.751 49.5482 101.861 50.245 101.9 50.5703C102.755 48.8045 102.163 47.9759 101.76 47.7822C101.505 47.426 100.919 46.6674 100.622 46.4814C100.324 46.2956 99.9868 46.5894 99.8551 46.7598C99.3904 47.0572 98.7316 46.8837 98.4606 46.7598C97.8288 46.4625 97.4851 46.3573 97.3922 46.3418C97.1691 46.4718 96.6175 46.4421 96.3698 46.4111L95.65 46.1328C94.8879 46.0399 94.6351 45.9077 94.6041 45.8535C94.8086 45.8907 95.3867 45.9004 95.65 45.9004C96.3376 46.2719 97.0362 46.2407 97.2994 46.1787C97.5969 46.1788 98.1208 46.3808 98.3453 46.4814C99.0885 46.7227 99.4908 46.38 99.5992 46.1787L100.808 44.5762C100.491 44.9169 99.7621 45.6858 99.3903 46.0391C98.9257 46.4804 98.2292 45.8538 97.9967 45.6445C97.7644 45.4354 98.2756 45.0634 98.3453 44.9473C98.4154 44.83 98.6698 44.1337 98.5074 43.4375C98.3448 42.7405 97.8568 42.8566 97.7174 42.8799C97.5783 42.9031 97.7635 42.8794 96.7184 43.042C95.6728 43.2046 95.2084 42.554 95.069 42.3682C94.9579 42.22 94.9755 42.1212 94.9987 42.0898C95.0684 41.9969 95.3008 41.7455 95.6725 41.4854C96.0441 41.2252 96.0912 40.5875 96.068 40.3008C96.0866 39.7061 96.3386 39.1389 96.4625 38.9297C97.0665 37.6057 96.1143 37.0715 95.9977 36.8623C95.9047 36.695 95.9285 36.5749 95.9518 36.5361C96.3605 36.2015 96.695 35.4679 96.8112 35.1426C97.0528 33.9158 97.7872 33.7254 98.5074 33.7021C99.5296 33.6325 100.087 33.5161 100.064 33.3535C100.041 33.1909 99.7392 33.33 99.5533 33.1445C99.4047 32.9958 100.869 32.8962 101.621 32.8652C101.892 32.8807 102.378 32.8886 102.156 32.7959C101.933 32.703 101.226 32.664 100.901 32.6562C99.7485 32.6191 97.6323 33.1675 96.7184 33.4463C96.2614 33.5392 95.1941 33.5947 94.5807 33.0742C94.2166 32.8418 93.419 32.3818 93.1403 32.4004ZM108.359 31.6338C108.25 31.6963 107.852 32.1036 107.128 33.2363C106.942 33.5771 106.254 34.1521 104.99 33.7246C103.41 33.1903 102.597 32.7256 101.691 33.2598C102.682 33.2675 104.595 33.5391 104.479 34.5381C104.479 34.5381 102.342 34.4449 103.062 36.3037L103.248 36.5361C102.992 36.4974 102.3 36.5918 101.575 37.2793C101.559 37.1707 101.608 36.9074 101.923 36.7217C102.239 36.5359 102.271 36.3271 102.202 36.3271C101.876 36.3272 101.133 36.4205 100.645 37.9072C100.568 38.2092 100.366 38.6549 100.18 38.0234C100.118 37.7911 99.9434 37.3165 99.7389 37.2793C99.4833 37.2336 99.1114 38.349 98.2985 40.5322C98.1281 40.873 98.0197 41.573 98.9489 41.6475C99.3903 41.6165 100.208 41.6429 99.9479 41.9961C99.6227 42.4375 99.4371 42.9947 99.9479 42.9717C100.459 42.9484 101.365 42.6236 101.551 43.0186C101.737 43.4135 101.784 44.4828 101.668 45.6445C101.683 45.7919 101.831 46.1414 102.295 46.3643C102.875 46.6431 103.526 48.084 103.666 48.874C103.782 48.3861 104.094 47.2705 104.41 46.7129C104.766 46.0699 105.468 44.3845 105.431 42.7861C105.377 42.1201 105.241 40.6583 105.13 40.1377C105.06 39.8821 105.097 39.4778 105.803 39.9053C105.927 39.9905 106.57 40.0864 108.15 39.7891C108.669 39.6884 109.874 39.115 110.544 37.6279C110.706 36.8613 109.986 36.35 108.638 36.1406C107.841 36.0167 106.064 35.9459 105.246 36.7451C105.153 36.7993 104.971 36.8195 104.99 36.4668C105.021 36.3352 105.055 36.0531 104.944 35.9785C104.833 35.9043 104.681 35.8084 104.619 35.7695C104.666 35.7617 104.796 35.7275 104.944 35.6533C105.13 35.5604 105.13 35.4445 105.92 35.3516C106.871 35.2396 107.967 34.2077 108.173 33.4229C108.406 32.54 108.46 31.8972 108.359 31.6338Z" fill="#808080"/>
</svg>
