<svg width="160" height="80" viewBox="0 0 160 80" fill="none" xmlns="http://www.w3.org/2000/svg">
<path d="M94.0038 59.281C92.5717 59.7011 92.2851 60.6182 92.2851 64.8191V72.4372L81.0761 60.7702V64.5515C81.0761 70.2607 81.2866 71.1006 82.9286 71.7116V71.9031C82.1076 71.8458 81.6111 71.8269 80.9237 71.8269C80.2555 71.8269 79.759 71.8458 78.8427 71.9031V71.7116C79.5298 71.4635 79.8543 71.1769 80.1025 70.6042C80.5034 69.6305 80.5605 68.8857 80.5605 64.5515V62.1452C80.5605 60.3506 80.5228 60.1022 80.1982 59.7585C79.9881 59.5294 79.7206 59.3955 79.1669 59.281V59.0906C80.198 59.1478 80.7332 59.1667 81.3251 59.1667C81.9357 59.1667 82.3748 59.1478 82.9091 59.0906L91.7694 68.3132V64.8191C91.7694 60.7519 91.4258 59.7202 89.9364 59.281V59.0906C90.9484 59.1478 91.5025 59.1667 92.1708 59.1667C92.839 59.1667 93.3547 59.1478 94.0038 59.0906V59.281ZM59.0185 58.7273C60.985 58.7273 62.9323 59.1287 64.7079 59.8923L63.9257 62.2029L63.7538 62.1452C63.6201 61.1525 63.0847 60.4846 62.0155 59.9118C61.2136 59.4727 60.1637 59.2243 59.1708 59.2243C56.9942 59.2243 55.6574 60.2169 55.6571 61.8015C55.6571 63.0999 56.5169 63.7879 58.5409 64.1316L60.87 64.4939C62.4358 64.7612 63.1235 64.9716 63.83 65.449C64.6701 66.0217 65.1278 66.881 65.1278 67.8738C65.1278 69.3822 64.2116 70.7188 62.665 71.5017C61.5957 72.0363 60.5265 72.2654 58.9989 72.2654C56.7649 72.2654 54.3402 71.769 52.5644 70.948L53.4618 68.2175L53.6337 68.2937C53.7483 69.4394 54.3779 70.2992 55.6191 70.9675C56.5165 71.464 57.6814 71.7507 58.8271 71.7507C61.3476 71.7507 62.9706 70.6042 62.9706 68.8093C62.9705 68.1604 62.7225 67.607 62.2646 67.3015C61.8254 66.9769 61.2905 66.8235 60.0878 66.6325L57.8534 66.2888C56.4595 66.0597 55.5615 65.754 54.8359 65.2575C53.996 64.6847 53.4999 63.7108 53.4999 62.699C53.5001 61.4198 54.2637 60.2165 55.5429 59.4909C56.4975 58.9564 57.5292 58.7273 59.0185 58.7273ZM78.0234 61.9743L77.8319 62.031C76.6481 60.3317 74.8915 59.6443 71.7411 59.6443H69.0487V64.9333H71.6454C74.2995 64.9333 75.2737 64.5515 75.8847 63.2722H76.0751V67.2058H75.8847C75.35 65.831 74.4333 65.449 71.5693 65.449H69.0487V66.9197C69.0488 67.3783 69.1253 69.2492 69.1825 70.032C69.2589 71.1202 69.7168 71.3689 71.5878 71.3689C75.254 71.3689 76.6863 70.8715 78.9013 68.8093L79.0732 68.8865L78.0234 71.865H72.1796L69.2773 71.8454C68.6855 71.8264 68.2842 71.8269 68.036 71.8269C67.3869 71.8269 66.5083 71.8458 65.0956 71.9031V71.7126C66.0885 71.5026 66.4517 71.1203 66.5663 70.2038C66.7 69.1918 66.7568 67.3201 66.7568 64.5896V62.1648C66.7568 60.4272 66.7188 60.1212 66.4706 59.7966C66.2797 59.5677 66.0693 59.4536 65.6112 59.32V59.1286H77.2206L78.0234 61.9743ZM101.142 59.1286C103.51 59.1286 104.827 59.5107 106.202 60.5798C107.73 61.7637 108.494 63.3489 108.494 65.2966C108.494 67.2631 107.673 69.0962 106.241 70.28C104.79 71.4638 103.224 71.903 100.341 71.9031C99.8635 71.9031 99.5386 71.9031 98.8515 71.865C97.2284 71.8077 95.3374 71.8076 93.6952 71.9031V71.7126C94.6881 71.5026 95.0513 71.1203 95.1659 70.2038C95.2996 69.1918 95.3564 67.3201 95.3564 64.5896V62.1648C95.3564 60.4272 95.3185 60.1403 95.0702 59.7966C94.8984 59.5677 94.688 59.4536 94.2109 59.32V59.1286H101.142ZM97.6484 64.6277C97.6484 69.1905 97.7242 70.2799 98.0868 70.8337C98.335 71.2156 99.0228 71.3874 100.397 71.3874C104.178 71.3874 105.954 69.459 105.954 65.3728C105.954 63.3297 105.515 61.955 104.56 60.9812C103.568 59.9692 102.441 59.6443 99.997 59.6443H97.6484V64.6277ZM104.99 49.7497L100.522 51.0115V49.9519L104.781 48.5398L104.99 49.7497ZM58.4569 36.7536C58.754 39.5908 59.7931 45.2524 61.5751 45.2019H83.8066C84.443 45.2017 85.3788 44.8473 85.0966 40.3357L85.8954 39.8669H86.3691V44.1657C86.4771 44.5611 86.97 45.322 88.0761 45.2019H94.9735C95.3574 45.1594 96.1249 44.8924 96.1249 44.1657V40.9548L97.4501 40.3357V44.1657C97.5832 45.0047 98.6039 45.5544 99.8398 45.5544C101.076 45.5544 102.184 44.9179 102.184 44.1657V40.9548L103.555 40.3357V44.1657C103.688 44.9527 104.353 45.7107 106.211 45.5544C106.715 45.5541 108.088 44.8391 107.57 43.113L106.929 39.3454L108.3 38.8249L109.335 40.9548L108.82 41.4753C109.046 43.4484 109.26 47.2553 105.841 47.3425C105.202 47.3251 103.729 47.0068 102.953 45.8728C102.392 46.4417 101.541 47.1052 99.8398 47.1052C98.1389 47.1051 97.0972 45.8731 96.9003 45.2019C96.7747 45.7575 96.1073 46.973 94.4413 47.1628H88.0761C87.4646 47.1241 86.1733 46.6317 85.8954 45.2019C85.6234 45.8365 84.6711 47.1051 83.0419 47.1052H61.286C60.7248 47.1052 59.5005 46.3682 59.3476 45.2019C58.7014 46.0389 56.9834 47.6847 55.2802 47.574C53.689 47.6955 51.022 45.9583 51.9062 42.8523H52.6933C52.5679 43.8282 52.9815 45.7273 55.6386 45.5144C58.2955 45.3014 58.6247 43.6508 58.4569 42.8523L56.8593 37.3034L58.4569 36.7536ZM85.455 36.9158L83.9628 38.3738L82.4521 36.9158L83.9628 35.5154L85.455 36.9158ZM90.6152 21.2029C90.9504 21.2031 91.2224 21.4751 91.2226 21.8103V28.324C91.2225 29.8028 90.0231 31.0013 88.5439 31.0017H85.8935C85.7305 31.0017 85.5986 30.8697 85.5985 30.7068V21.4978C85.5988 21.3351 85.7306 21.2029 85.8935 21.2029H90.6152ZM84.3485 21.198C84.5113 21.1982 84.6435 21.3301 84.6435 21.4929V30.7019C84.6432 30.8645 84.5112 30.9966 84.3485 30.9968H72.4745C70.9951 30.9966 69.7958 29.7971 69.7958 28.3181V21.8054C69.7958 21.47 70.0678 21.1981 70.4032 21.198H84.3485ZM84.3193 16.2634C84.4821 16.2635 84.6141 16.3955 84.6142 16.5583V19.9187C84.6142 20.0815 84.4821 20.2145 84.3193 20.2146H69.8593V18.4792C69.8593 17.2557 70.8521 16.2634 72.0761 16.2634H84.3193ZM88.5839 16.1999C90.0632 16.2 91.2624 17.3988 91.2626 18.8777V20.1452H85.8642C85.7014 20.1452 85.5695 20.013 85.5693 19.8503V16.4949C85.5693 16.332 85.7013 16.2 85.8642 16.1999H88.5839ZM88.5556 5.7302H88.5605V5.73509C88.7203 8.72646 87.402 10.93 85.6396 12.3601C83.8773 13.7899 81.6705 14.4467 80.0546 14.3484C77.666 14.0676 76.1047 12.7786 75.1708 11.3054C74.2371 9.83227 73.93 8.17455 74.0487 7.15794L74.0497 7.15306H74.0546C75.5885 7.11842 76.9092 7.77941 77.9364 8.61888C78.9582 9.45395 79.6907 10.4661 80.0546 11.1482C81.9355 6.69277 86.4718 5.67992 88.5312 5.72923L88.5556 5.7302Z" fill="#808080"/>
</svg>
