<svg width="48" height="48" viewBox="0 0 48 48" fill="none" xmlns="http://www.w3.org/2000/svg">
<path d="M5.52246 34.9907C13.0462 29.9658 21.5878 33.5911 25.8586 36.0003C19.9503 33.5681 11.3201 33.0174 5.52246 34.9907Z" fill="#5FB0E2"/>
<path d="M18.7555 12C22.3846 12 25.4826 14.2027 26.8767 17.3921H24.0443C22.8051 15.7859 20.8799 14.7763 18.7113 14.7763C16.5869 14.7763 14.706 15.763 13.4447 17.3232C13.5111 17.2774 13.5774 17.2085 13.6438 17.1626C16.6091 14.9829 20.5479 17.3921 20.5479 17.3921C20.5479 17.3921 16.8082 16.2678 14.2634 18.1034C11.7187 19.939 12.1391 23.6331 12.1391 23.6331C12.1391 23.6331 12.117 23.5872 12.0948 23.4954C12.0948 23.5413 12.117 23.5872 12.117 23.6331C11.5195 23.1742 10.7671 22.8759 9.9705 22.7842C9.88198 22.2564 9.8156 21.7057 9.8156 21.1321C9.83772 16.0842 13.8209 12 18.7555 12ZM7.35933 32.857V32.0769C9.70495 30.2642 14.0421 27.9238 19.2645 29.6218C27.1865 32.1916 32.2097 35.7022 38.3393 34.119C44.4468 32.5358 45 29.0711 45 29.0711C45 29.0711 43.9157 33.9584 37.8967 35.0368C31.8778 36.1152 26.3235 34.8991 19.2424 32.1687C14.4626 30.3331 9.85985 31.7556 7.35933 32.857ZM7.35933 31.2738C7.8019 30.9755 8.24447 30.6772 8.64278 30.4478C8.44362 30.3101 8.2666 30.1724 8.08957 29.9889C7.77977 29.6677 7.53635 29.3005 7.35933 28.9334V30.6313L7.40358 30.6772C7.4921 30.7461 7.55848 30.8149 7.647 30.8837C7.53635 30.8378 7.44784 30.792 7.35933 30.7231V31.2738ZM7.35933 23.3578V20.4667C7.93467 20.2602 8.55427 20.1455 9.17387 20.0996C9.15174 20.4208 9.12961 20.765 9.12961 21.1092C9.12961 21.6828 9.17387 22.2335 9.26238 22.7842C8.5764 22.83 7.93467 23.0365 7.35933 23.3578ZM7.35933 20.4667V23.3578C6.12013 24.092 5.27924 25.4687 5.27924 27.0519C5.27924 28.6351 6.12013 30.0118 7.35933 30.7461V31.2738C6.85037 31.618 6.36354 32.008 5.96523 32.3293C4.17281 31.1361 3 29.094 3 26.7536C3 23.8396 4.81454 21.3616 7.35933 20.4667ZM7.35933 28.9564C6.5627 27.3732 6.82824 25.5605 6.82824 25.5605C6.82824 25.5605 5.50053 28.7499 7.35933 30.6543V28.9564ZM7.35933 32.0539C6.14226 32.9947 5.45627 33.7748 5.45627 33.7748C5.45627 33.7978 6.16438 33.3618 7.35933 32.8341V32.0539Z" fill="url(#paint0_radial_608_24055)"/>
<path d="M27.2738 30.8151C27.2738 30.8151 31.0578 32.8113 34.5984 32.49C38.1611 32.1688 39.2233 30.8609 39.2233 30.8609C39.2233 30.8609 37.9177 33.3619 34.5099 33.4996C31.1021 33.6373 27.2738 30.9068 27.2738 30.8151ZM24.375 18.1494H27.5615V21.4535H24.375V18.1494Z" fill="#5FB0E2"/>
<path d="M36.9893 27.2588H39.4455V29.8057H36.9893V27.2588Z" fill="#0088CF"/>
<path d="M28.2041 15.1211H32.4307V19.5036H28.2041V15.1211Z" fill="#5FB0E2"/>
<path d="M40.5078 22.7148H44.7344V27.0973H40.5078V22.7148Z" fill="#0088CF"/>
<path d="M32.8516 19.8477H35.2193V22.3028H32.8516V19.8477ZM34.4227 24.6661H36.7904V27.1212H34.4227V24.6661Z" fill="#5FB0E2"/>
<path d="M29.4434 24.9175H31.8111V27.3727H29.4434V24.9175ZM37.7416 19.9385H40.1093V22.3936H37.7416V19.9385Z" fill="#0088CF"/>
<defs>
<radialGradient id="paint0_radial_608_24055" cx="0" cy="0" r="1" gradientUnits="userSpaceOnUse" gradientTransform="translate(758.874 621.027) scale(2745.46 1531.42)">
<stop stop-color="#5FB0E2"/>
<stop offset="0.09123" stop-color="#45A1D7"/>
<stop offset="0.208" stop-color="#2C93CD"/>
<stop offset="0.3383" stop-color="#1888C4"/>
<stop offset="0.4876" stop-color="#0B80BE"/>
<stop offset="0.6724" stop-color="#027BBB"/>
<stop offset="1" stop-color="#007ABA"/>
</radialGradient>
</defs>
</svg>
