<svg width="48" height="48" viewBox="0 0 48 48" fill="none" xmlns="http://www.w3.org/2000/svg">
<path d="M36.8398 27.5915C36.8446 28.5868 37.4512 29.4815 38.374 29.8532L38.4023 29.8639C39.3157 30.2514 40.3722 30.0481 41.0762 29.3473L41.0742 29.3463L41.1123 29.3083L42.3945 30.5905L42.3564 30.6286C41.6559 31.3325 41.453 32.3902 41.8418 33.3034L41.8525 33.3317C42.2226 34.2545 43.1171 34.8607 44.1123 34.8639H44.1641V36.6754H44.1113C43.116 36.6802 42.2223 37.2862 41.8506 38.2106L41.8398 38.2379C41.4526 39.1512 41.6573 40.2095 42.3564 40.9118H42.3584L42.3955 40.9499L41.1143 42.2311L41.0762 42.194C40.3738 41.4932 39.3167 41.288 38.4033 41.6754L38.374 41.6881C37.4512 42.0598 36.8446 42.9526 36.8398 43.9479H36.8418V43.9997H35.0293V43.9479C35.0246 42.9543 34.4198 42.0608 33.4971 41.6891L33.4668 41.6774C32.5536 41.2885 31.4953 41.4925 30.793 42.193L30.7549 42.2311L29.4746 40.9499L29.5127 40.9118C30.2117 40.2095 30.4164 39.1512 30.0293 38.2379L29.9404 38.0397C29.5324 37.213 28.6897 36.68 27.7568 36.6754V36.6774H27.7041V34.8639H27.7568C28.7535 34.8591 29.646 34.2531 30.0176 33.3288V33.3307L30.0293 33.3034C30.4164 32.3887 30.2115 31.3324 29.5127 30.6286V30.6296L29.4746 30.5915L30.7549 29.3102L30.793 29.3473C31.4953 30.0481 32.5534 30.2529 33.4668 29.8639L33.4648 29.8659L33.4951 29.8532C34.4179 29.4815 35.0246 28.5867 35.0293 27.5915V27.5397H36.8398V27.5915ZM20.8789 23.2301V41.8854L4.3877 32.7575C4.14854 32.6252 4.00106 32.3735 4.00098 32.1012L4 13.8883L20.8789 23.2301ZM38.5439 29.0651C37.985 28.7864 37.6312 28.2176 37.6279 27.5924V26.7526H34.2402V27.5924C34.237 28.2663 33.8261 28.8707 33.2012 29.1227L33.1631 29.1383C32.9569 29.2249 32.7349 29.2711 32.5098 29.2712C32.072 29.2712 31.6528 29.096 31.3457 28.7858L30.749 28.2018L28.3604 30.5924L28.9551 31.1862C29.4291 31.6618 29.5667 32.3785 29.3037 32.9958L29.2891 33.0299C29.0387 33.6583 28.434 34.073 27.7568 34.0778H26.917V37.4635L27.7568 37.4626C28.1678 37.4642 28.5645 37.6208 28.8652 37.901L21.667 41.8844V23.2301L38.5439 13.8883V29.0651ZM37.5312 31.9167C35.9725 31.2711 34.179 31.6282 32.9854 32.82C31.7916 34.0135 31.4354 35.8078 32.0811 37.3669C32.7268 38.9243 34.248 39.9421 35.9346 39.9421C38.237 39.9388 40.1029 38.0725 40.1045 35.7702C40.1061 34.0836 39.0887 32.5624 37.5312 31.9167ZM35.9326 32.3864C37.8003 32.3895 39.3138 33.9025 39.3154 35.7702C39.3154 37.1386 38.492 38.3733 37.2275 38.8962C35.963 39.4205 34.5076 39.1311 33.5391 38.1628C32.5721 37.1958 32.2822 35.7382 32.8066 34.4753C33.3311 33.211 34.5643 32.3865 35.9326 32.3864ZM20.9082 4.0944C21.1333 3.9686 21.4091 3.96847 21.6357 4.0944L38.124 13.2204L21.2715 22.5485L4.41992 13.2204L20.9082 4.0944Z" fill="#44ADC1"/>
</svg>
