<svg width="48" height="48" viewBox="0 0 48 48" fill="none" xmlns="http://www.w3.org/2000/svg">
<path d="M44.208 22.1319L25.8704 3.795C24.8149 2.73891 23.1021 2.73891 22.0454 3.795L18.2375 7.60296L23.068 12.4335C24.1905 12.0542 25.4778 12.3087 26.3726 13.2035C27.2716 14.1041 27.5243 15.4023 27.1358 16.5285L31.7911 21.184C32.9173 20.796 34.2169 21.047 35.1164 21.948C36.3737 23.2048 36.3737 25.2416 35.1164 26.4992C33.8589 27.7569 31.8221 27.7569 30.5639 26.4992C29.6182 25.5525 29.3846 24.1637 29.8633 22.9987L25.5219 18.6572L25.5214 30.0822C25.8361 30.2378 26.1236 30.4434 26.3726 30.6909C27.6298 31.9477 27.6298 33.9847 26.3726 35.2432C25.115 36.5003 23.0772 36.5003 21.8214 35.2432C20.5642 33.9847 20.5642 31.9478 21.8214 30.6911C22.1227 30.3896 22.4808 30.1509 22.8749 29.9887V18.4572C22.4802 18.2961 22.122 18.0572 21.8214 17.7548C20.8689 16.8036 20.6399 15.4059 21.128 14.2363L16.3662 9.47396L3.79242 22.0471C2.73586 23.1042 2.73586 24.8172 3.79242 25.8735L22.1304 44.2107C23.1861 45.267 24.8986 45.267 25.9557 44.2107L44.2078 25.9586C45.2641 24.902 45.2642 23.188 44.208 22.1319Z" fill="#DE4C36"/>
</svg>
