<svg width="48" height="48" viewBox="0 0 48 48" fill="none" xmlns="http://www.w3.org/2000/svg">
<g clip-path="url(#clip0_608_24025)">
<path d="M0 0H48V48H0V0Z" fill="#F7DF1E"/>
<path d="M12.6213 40.1119L16.2944 37.8889C17.0032 39.1453 17.6478 40.2084 19.1941 40.2084C20.6763 40.2084 21.611 39.6287 21.611 37.3734V22.0363H26.1217V37.4372C26.1217 42.1091 23.383 44.2358 19.3874 44.2358C15.779 44.2358 13.6844 42.3669 12.6211 40.1115M28.5717 39.6285L32.2445 37.5021C33.2114 39.081 34.468 40.2409 36.691 40.2409C38.5602 40.2409 39.752 39.3064 39.752 38.0175C39.752 36.471 38.5276 35.9231 36.4655 35.0213L35.338 34.5375C32.0836 33.1524 29.9249 31.4124 29.9249 27.7393C29.9249 24.3561 32.5025 21.7783 36.5302 21.7783C39.3978 21.7783 41.4599 22.7773 42.9419 25.3871L39.4297 27.6428C38.6562 26.2573 37.8188 25.7096 36.53 25.7096C35.2088 25.7096 34.3711 26.5474 34.3711 27.6428C34.3711 28.9959 35.2088 29.544 37.142 30.3818L38.2696 30.8649C42.104 32.5084 44.2627 34.1837 44.2627 37.9532C44.2627 42.0133 41.0729 44.2363 36.7876 44.2363C32.599 44.2363 29.8925 42.2387 28.5715 39.6287" fill="black"/>
</g>
<defs>
<clipPath id="clip0_608_24025">
<rect width="48" height="48" fill="white"/>
</clipPath>
</defs>
</svg>
