<svg width="48" height="48" viewBox="0 0 48 48" fill="none" xmlns="http://www.w3.org/2000/svg">
<path d="M22.1092 40.21V43.3682C22.1092 43.7049 21.8151 43.9999 21.4783 44H15.6258C15.2889 44 14.9939 43.705 14.9939 43.3682V40.21H22.1092ZM32.1727 43.3682C32.1727 43.7049 31.8785 43.9999 31.5418 44H25.6893C25.3524 44 25.0574 43.705 25.0574 43.3682V40.21H32.1727V43.3682ZM40.9734 21.3047C41.3523 21.3468 41.7316 21.5998 41.9422 21.9365C42.1947 22.3153 42.2372 22.6944 42.1531 23.1152L39.3738 33.4316C39.1212 34.4 38.4894 35.2417 37.6053 35.7891L32.6365 38.8213H25.1844L27.2898 32.042C27.5424 31.3263 28.0051 30.6525 28.6365 30.2314L34.2791 26.3154C34.5316 26.1051 34.8683 26.0635 35.2049 26.1055C35.5417 26.1476 35.7951 26.3156 36.0057 26.6104C36.3424 27.0735 36.2996 27.705 35.9207 28.126L35.7527 28.3369C34.7422 29.4737 33.6475 30.5267 32.4686 31.4951L31.4578 32.3369C31.1633 32.5895 31.1215 33.01 31.3738 33.3047C31.6265 33.5994 32.0478 33.6423 32.3426 33.3896L33.3523 32.5469C34.6155 31.5363 35.7528 30.4418 36.8055 29.2207L36.9734 29.0107C37.7313 28.1266 37.8159 26.779 37.1424 25.8105C37.0582 25.7263 37.0157 25.6418 36.9314 25.5576L39.5418 21.8945C39.8786 21.4315 40.4262 21.2206 40.9734 21.3047ZM6.44804 21.3057C6.91102 21.3058 7.3742 21.5157 7.62676 21.8945L10.2791 25.5576C10.1949 25.6418 10.1524 25.7263 10.0682 25.8105C9.39463 26.779 9.43716 28.1266 10.2371 29.0107L10.4051 29.2207C11.4577 30.4418 12.6371 31.5373 13.8582 32.5479L14.8689 33.3896C15.1635 33.6419 15.5841 33.6 15.8367 33.3057C16.0893 33.0109 16.0475 32.5895 15.7527 32.3369L14.742 31.4951C13.5631 30.5267 12.4683 29.4737 11.4578 28.3369L11.2898 28.126C10.911 27.7049 10.869 27.0735 11.2059 26.6104C11.3743 26.3579 11.669 26.1476 12.0057 26.1055C12.3002 26.0634 12.6369 26.1052 12.9314 26.3154L18.532 30.2314C19.1635 30.6525 19.6681 31.3263 19.8787 32.042L21.9842 38.7793H14.532L9.60527 35.7471C8.72123 35.1997 8.08933 34.4 7.83672 33.3896L5.0584 23.0732C4.93224 22.6944 5.0159 22.2733 5.22637 21.9365C5.4369 21.5998 5.77414 21.3899 6.19511 21.3057H6.44804ZM25.3103 4C25.7734 4.00006 26.1101 4.37886 26.1102 4.7998V6.48438C26.868 6.6949 27.5419 6.98922 28.2156 7.36816L29.4783 6.10547C29.773 5.81076 30.2783 5.81081 30.573 6.10547L32.9734 8.50488C33.2681 8.79955 33.268 9.30484 32.9734 9.59961L31.7098 10.8633C32.0887 11.537 32.384 12.2109 32.5945 12.9688H34.3631C34.8261 12.9689 35.1629 13.3476 35.1629 13.7686V17.1787C35.1629 17.6418 34.7841 17.9784 34.3631 17.9785H32.5945C32.384 18.7364 32.0887 19.4103 31.7098 20.084L32.9734 21.3477C33.268 21.6424 33.2681 22.1477 32.9734 22.4424L30.573 24.8418C30.2783 25.1365 29.773 25.1365 29.4783 24.8418L28.2156 23.5791C27.5419 23.958 26.868 24.2524 26.1102 24.4629V26.2314C26.1102 26.6946 25.7314 27.0312 25.3103 27.0312H21.9002C21.437 27.0312 21.0994 26.6525 21.0994 26.2314V24.4629C20.3418 24.2524 19.6684 23.9579 18.9949 23.5791L17.7312 24.8418C17.4365 25.1365 16.9313 25.1365 16.6365 24.8418L14.2361 22.4424C13.9416 22.1478 13.9418 21.6424 14.2361 21.3477L15.4998 20.084C15.1209 19.4103 14.8255 18.7364 14.615 17.9785H12.8475C12.4264 17.9785 12.0888 17.6416 12.0467 17.2627V13.8525C12.0467 13.3894 12.4264 13.0527 12.8475 13.0527H14.615C14.8256 12.2948 15.1209 11.6209 15.4998 10.9473L14.2361 9.68457C13.9416 9.38996 13.9418 8.88463 14.2361 8.58984L16.6365 6.18945C16.9312 5.89473 17.4365 5.89475 17.7312 6.18945L18.9949 7.45215C19.6683 7.0734 20.3418 6.77882 21.0994 6.56836V4.7998C21.0995 4.33675 21.4792 4 21.9002 4H25.3103ZM24.5945 15.3682L25.6473 14.3154C26.0262 13.9367 26.6161 13.9366 26.9949 14.3154C27.3737 14.6943 27.3736 15.2841 26.9949 15.6631L24.2996 18.3574C23.9207 18.7364 23.3309 18.7364 22.952 18.3574L20.2576 15.6631C20.0471 15.4947 19.9627 15.2419 19.9627 14.9893C19.9628 14.7367 20.0892 14.4838 20.2576 14.3154C20.6366 13.9367 21.2264 13.9366 21.6053 14.3154L22.615 15.3262V10.0215C20.0048 10.4849 17.9841 12.7585 18.0262 15.4951C18.0264 18.6106 20.5523 21.0946 23.6258 21.0947C26.7414 21.0947 29.2262 18.5686 29.2264 15.4951C29.2264 12.7583 27.205 10.4847 24.5945 10.0215V15.3682Z" fill="#44ADC1"/>
</svg>
