<svg width="48" height="48" viewBox="0 0 48 48" fill="none" xmlns="http://www.w3.org/2000/svg">
<path d="M39.9238 15.0203C40.8283 15.0203 41.5075 15.6988 41.5527 16.6033V32.8846C41.5525 37.9949 37.3913 42.1102 32.3262 42.1102H16.1807V44.326C16.1807 44.9139 15.864 45.5019 15.3213 45.7732C15.0501 45.9088 14.779 45.9997 14.5078 45.9998C14.1912 45.9998 13.8739 45.9092 13.6025 45.7283L7.76855 41.9744C7.27122 41.6578 7 41.1599 7 40.5721C7.00013 39.9844 7.27138 39.4872 7.76855 39.1707L13.6025 35.4168C14.1452 35.1002 14.7786 35.1005 15.3213 35.3719C15.864 35.6432 16.1807 36.186 16.1807 36.8191V38.99H32.2812C35.6279 38.99 38.3417 36.2761 38.3418 32.9295V16.6033C38.3418 15.7442 39.0647 15.0206 39.9238 15.0203ZM25.4062 14.0252C25.8132 14.0253 26.1745 14.3419 26.2197 14.7488L26.4912 17.326C26.5364 17.4164 26.5816 17.4624 26.6719 17.5076C26.9883 17.598 27.26 17.7333 27.5312 17.8689C27.6216 17.9141 27.7124 17.8692 27.8027 17.824L29.8379 16.1961C30.1545 15.9247 30.6072 15.9244 30.9238 16.241L32.5068 17.824C32.7779 18.0954 32.8229 18.5925 32.5518 18.909L30.8779 20.9441C30.7876 21.0345 30.7878 21.1252 30.833 21.2156C30.9687 21.487 31.1049 21.8036 31.1953 22.075C31.1953 22.1654 31.2855 22.2557 31.376 22.2557L33.9541 22.5271C34.3609 22.5726 34.6777 22.9347 34.6777 23.3416V25.6023C34.6777 26.0092 34.3609 26.3714 33.9541 26.4168L31.376 26.6883C31.2855 26.6883 31.1953 26.7333 31.1953 26.8689C31.1049 27.1855 30.9687 27.457 30.833 27.7283C30.7879 27.8187 30.8327 27.9094 30.8779 27.9998L32.5518 30.035C32.8229 30.3514 32.8231 30.8034 32.5068 31.1199L30.9238 32.7029C30.6525 32.9743 30.1545 33.0192 29.8379 32.7478L27.8027 31.1199C27.7124 31.0297 27.6216 31.0298 27.5312 31.075C27.26 31.2106 26.9431 31.3459 26.6719 31.4363C26.5816 31.4366 26.4912 31.5277 26.4912 31.618L26.2197 34.1951C26.1745 34.6021 25.8132 34.9186 25.4062 34.9187H23.1445C22.7376 34.9186 22.3763 34.6021 22.3311 34.1951L22.0596 31.618C22.0143 31.5275 21.9684 31.4816 21.8779 31.4363C21.5617 31.3459 21.2906 31.2105 21.0195 31.075C20.9292 31.0298 20.8384 31.0747 20.748 31.1199L18.7129 32.7478C18.3963 33.0192 17.9435 33.0195 17.627 32.7029L16.0439 31.1199C15.7729 30.8486 15.7279 30.3514 15.999 30.035L17.6729 27.9998C17.7632 27.9094 17.7629 27.8187 17.7178 27.7283C17.5821 27.457 17.4459 27.1403 17.3555 26.8689C17.3555 26.7785 17.2653 26.6883 17.1748 26.6883L14.5967 26.4168C14.1898 26.3714 13.873 26.0092 13.873 25.6023V23.3416C13.873 22.9347 14.1898 22.5726 14.5967 22.5271L17.1748 22.2557C17.2652 22.2105 17.3103 22.1653 17.3555 22.075C17.4459 21.7584 17.5821 21.487 17.7178 21.2156C17.7629 21.1252 17.7181 21.0346 17.6729 20.9441L15.999 18.909C15.7279 18.5925 15.7277 18.1405 16.0439 17.824L17.627 16.241C17.8983 15.9697 18.3963 15.9247 18.7129 16.1961L20.748 17.824C20.8384 17.9142 20.9292 17.9141 21.0195 17.8689C21.2906 17.7334 21.6068 17.598 21.8779 17.5076C21.9684 17.5076 22.0596 17.4164 22.0596 17.326L22.3311 14.7488C22.3763 14.3419 22.7376 14.0253 23.1445 14.0252H25.4062ZM33.2305 3.21562C33.7731 2.89925 34.4518 2.94501 34.9492 3.26152L40.8281 6.96953C41.3256 7.28611 41.5967 7.78394 41.5967 8.37187C41.5966 8.95963 41.3254 9.45669 40.8281 9.77324L34.9941 13.5271C34.7229 13.708 34.4063 13.7986 34.0898 13.7986C33.8185 13.7986 33.5467 13.7087 33.2754 13.573C32.7328 13.3017 32.4161 12.7588 32.416 12.1258V9.95488H16.2705C12.924 9.95492 10.2101 12.6679 10.21 16.0145V32.3416C10.2098 33.2007 9.48613 33.9246 8.62695 33.9246C7.7228 33.9244 7.04509 33.2458 7.04492 32.3416V16.0145C7.0451 10.9494 11.1602 6.83382 16.2705 6.83379H32.3711V4.66289C32.3712 4.07504 32.6878 3.48694 33.2305 3.21562ZM24.2754 20.4471C22.0595 20.4471 20.2502 22.2556 20.25 24.4715C20.25 26.6875 22.0593 28.4969 24.2754 28.4969C26.4914 28.4969 28.3008 26.6875 28.3008 24.4715C28.3005 22.2556 26.4913 20.4471 24.2754 20.4471Z" fill="#44ADC1"/>
</svg>
