<svg width="48" height="48" viewBox="0 0 48 48" fill="none" xmlns="http://www.w3.org/2000/svg">
<path d="M8.08781 20.3828C8.77154 20.3828 9.41725 20.5254 10.0245 20.8105C10.6317 21.0957 11.1655 21.4797 11.6262 21.9622C12.0868 22.4448 12.4533 23.008 12.7254 23.6513C12.9976 24.2951 13.1337 24.9823 13.1337 25.7134C13.1337 26.4449 13.0009 27.1283 12.7359 27.7645C12.4705 28.4006 12.1111 28.96 11.6576 29.4426C11.2038 29.9252 10.6699 30.3057 10.0559 30.5833C9.44149 30.8614 8.7787 31.0002 8.06681 31.0002C7.36869 31.0002 6.71278 30.8686 6.09873 30.6053C5.48435 30.342 4.94721 29.973 4.48657 29.4975C4.026 29.0224 3.66287 28.4631 3.39784 27.8193C3.13255 27.176 3 26.4739 3 25.7134C3 24.9823 3.1289 24.2984 3.38731 23.6623C3.64545 23.0262 4.00493 22.4705 4.46564 21.9952C4.92621 21.52 5.467 21.1396 6.08827 20.8545C6.7092 20.5693 7.37592 20.4122 8.08781 20.3828ZM8.06688 22.5545C7.66188 22.5545 7.27457 22.6351 6.90488 22.7958C6.53493 22.9569 6.21399 23.1797 5.94174 23.4649C5.66956 23.75 5.45302 24.0829 5.29272 24.463C5.13208 24.8435 5.05194 25.2603 5.05194 25.7134C5.05194 26.1377 5.13215 26.5436 5.29272 26.9309C5.45302 27.3185 5.66956 27.6586 5.94174 27.951C6.21393 28.2436 6.53486 28.474 6.90488 28.6419C7.27457 28.8102 7.66188 28.8942 8.06688 28.8942C8.47154 28.8942 8.85891 28.8102 9.22893 28.6419C9.59862 28.474 9.91982 28.2436 10.1921 27.951C10.4643 27.6586 10.6805 27.3186 10.8411 26.9309C11.0014 26.5436 11.0818 26.1377 11.0818 25.7134C11.04 24.8507 10.7468 24.123 10.2025 23.5306C9.65811 22.9384 8.9531 22.6131 8.08787 22.5544H8.06688V22.5545Z" fill="#A24689"/>
<path d="M22.6597 17.0043C22.8969 16.9899 23.1203 17.0885 23.3298 17.3004C23.5391 17.5126 23.6437 17.7429 23.6437 17.9915V25.6912C23.6437 26.4079 23.5041 27.0879 23.225 27.7313C22.9456 28.3751 22.5688 28.9379 22.0944 29.4204C21.6198 29.9031 21.079 30.287 20.4718 30.5721C19.8646 30.8573 19.226 30.9999 18.5561 30.9999C17.872 30.9999 17.223 30.8611 16.6089 30.5831C15.9945 30.3054 15.4573 29.9249 14.9967 29.4424C14.5361 28.9598 14.1697 28.397 13.8975 27.7532C13.6253 27.1099 13.4893 26.4226 13.4893 25.6912C13.4893 24.9015 13.6113 24.207 13.8556 23.6072C14.0997 23.0077 14.4661 22.4446 14.9548 21.9181V21.9401C15.4711 21.4284 16.04 21.0406 16.6612 20.7774C17.2821 20.5141 17.9207 20.3825 18.5769 20.3825C18.9675 20.3825 19.4318 20.4483 19.9692 20.58C20.5064 20.7116 21.0403 20.9676 21.571 21.3478V18.1011C21.571 17.9551 21.5988 17.816 21.6547 17.6843C21.7103 17.5527 21.7836 17.432 21.8746 17.3224C21.9652 17.2126 22.0734 17.1287 22.1991 17.0701C22.3247 17.0119 22.4504 16.9899 22.576 17.0043H22.6597ZM21.571 25.6912C21.571 25.2964 21.4905 24.909 21.3302 24.5285C21.1696 24.1484 20.9497 23.8084 20.6707 23.5085C20.3913 23.2089 20.0703 22.971 19.7075 22.7955C19.3444 22.6201 18.9607 22.5323 18.556 22.5323C18.151 22.5323 17.7637 22.6165 17.3939 22.7845C17.024 22.9528 16.7031 23.1794 16.4308 23.4646C16.1587 23.7497 15.9421 24.0863 15.7818 24.4736C15.6211 24.8613 15.5411 25.2672 15.5411 25.6911C15.5411 26.1298 15.6212 26.5395 15.7818 26.9196C15.9421 27.3 16.1587 27.6325 16.4308 27.9177C16.703 28.2028 17.0239 28.4297 17.3939 28.5977C17.7637 28.766 18.151 28.8499 18.556 28.8499C18.9607 28.8499 19.3444 28.7659 19.7075 28.5977C20.0703 28.4297 20.3913 28.2028 20.6707 27.9177C20.9497 27.6325 21.1696 27.3 21.3302 26.9196C21.4905 26.5395 21.571 26.1299 21.571 25.6912Z" fill="#8F8F8F"/>
<path d="M29.3183 20.3828C30.002 20.3828 30.6477 20.5254 31.255 20.8105C31.8622 21.0957 32.396 21.4797 32.8567 21.9622C33.3173 22.4448 33.6837 23.008 33.9559 23.6513C34.2281 24.2951 34.3642 24.9823 34.3642 25.7134C34.3642 26.4449 34.2313 27.1283 33.9664 27.7645C33.701 28.4006 33.3415 28.96 32.888 29.4426C32.4343 29.9252 31.9004 30.3057 31.2863 30.5833C30.672 30.8614 30.0092 31.0002 29.2973 31.0002C28.5992 31.0002 27.9433 30.8686 27.3292 30.6053C26.7148 30.342 26.1777 29.973 25.717 29.4975C25.2565 29.0224 24.8933 28.4631 24.6283 27.8193C24.363 27.176 24.2305 26.4739 24.2305 25.7134C24.2305 24.9823 24.3594 24.2984 24.6178 23.6623C24.8759 23.0262 25.2354 22.4705 25.6961 21.9952C26.1567 21.52 26.6975 21.1396 27.3187 20.8545C27.9397 20.5693 28.6064 20.4122 29.3183 20.3828ZM29.2973 22.5545C28.8923 22.5545 28.505 22.6351 28.1354 22.7958C27.7654 22.9569 27.4445 23.1797 27.1722 23.4649C26.9 23.75 26.6835 24.0829 26.5232 24.463C26.3626 24.8435 26.2824 25.2603 26.2824 25.7134C26.2824 26.1377 26.3626 26.5436 26.5232 26.9309C26.6835 27.3185 26.9 27.6586 27.1722 27.951C27.4444 28.2436 27.7653 28.474 28.1354 28.6419C28.505 28.8102 28.8923 28.8942 29.2973 28.8942C29.702 28.8942 30.0894 28.8102 30.4594 28.6419C30.8291 28.474 31.1503 28.2436 31.4225 27.951C31.6947 27.6586 31.9109 27.3186 32.0716 26.9309C32.2319 26.5436 32.3123 26.1377 32.3123 25.7134C32.2704 24.8507 31.9773 24.123 31.433 23.5306C30.8886 22.9384 30.1836 22.6131 29.3183 22.5544H29.2973V22.5545Z" fill="#8F8F8F"/>
<path d="M39.954 20.3828C40.6378 20.3828 41.2835 20.5254 41.8908 20.8105C42.4979 21.0957 43.0318 21.4797 43.4925 21.9622C43.953 22.4448 44.3195 23.008 44.5917 23.6513C44.8638 24.2951 44.9999 24.9823 44.9999 25.7134C44.9999 26.4449 44.8671 27.1283 44.6021 27.7645C44.3368 28.4006 43.9773 28.96 43.5238 29.4426C43.07 29.9252 42.5361 30.3057 41.9221 30.5833C41.3077 30.8614 40.6449 31.0002 39.933 31.0002C39.2349 31.0002 38.579 30.8686 37.9649 30.6053C37.3506 30.342 36.8134 29.973 36.3528 29.4975C35.8922 29.0224 35.5291 28.4631 35.2641 27.8193C34.9988 27.176 34.8662 26.4739 34.8662 25.7134C34.8662 24.9823 34.9951 24.2984 35.2535 23.6623C35.5117 23.0262 35.8711 22.4705 36.3319 21.9952C36.7924 21.52 37.3332 21.1396 37.9545 20.8545C38.5754 20.5693 39.2421 20.4122 39.954 20.3828ZM39.933 22.5545C39.528 22.5545 39.1407 22.6351 38.771 22.7958C38.4011 22.9569 38.0801 23.1797 37.8079 23.4649C37.5357 23.75 37.3192 24.0829 37.1589 24.463C36.9982 24.8435 36.9181 25.2603 36.9181 25.7134C36.9181 26.1377 36.9983 26.5436 37.1589 26.9309C37.3192 27.3185 37.5357 27.6586 37.8079 27.951C38.0801 28.2436 38.401 28.474 38.771 28.6419C39.1407 28.8102 39.528 28.8942 39.933 28.8942C40.3377 28.8942 40.7251 28.8102 41.0951 28.6419C41.4648 28.474 41.786 28.2436 42.0582 27.951C42.3304 27.6586 42.5466 27.3186 42.7072 26.9309C42.8675 26.5436 42.948 26.1377 42.948 25.7134C42.9061 24.8507 42.613 24.123 42.0686 23.5306C41.5243 22.9384 40.8193 22.6131 39.954 22.5544H39.933V22.5545Z" fill="#8F8F8F"/>
</svg>
