<svg width="48" height="48" viewBox="0 0 48 48" fill="none" xmlns="http://www.w3.org/2000/svg">
<path d="M3 8H45V39.5H3V8Z" fill="#A24689"/>
<path d="M11.7254 21.1732C12.257 21.1732 12.7591 21.2791 13.2313 21.4907C13.7033 21.7022 14.1184 21.9872 14.4767 22.3453C14.8348 22.7034 15.1197 23.1213 15.3313 23.5987C15.5429 24.0766 15.6487 24.5864 15.6487 25.129C15.6487 25.6718 15.5455 26.179 15.3394 26.6511C15.1331 27.1232 14.8536 27.5383 14.501 27.8965C14.1482 28.2546 13.7331 28.5369 13.2556 28.743C12.7779 28.9493 12.2626 29.0523 11.7091 29.0523C11.1663 29.0523 10.6563 28.9547 10.1789 28.7593C9.70116 28.5639 9.28353 28.29 8.92537 27.9372C8.56732 27.5847 8.28492 27.1696 8.07886 26.6918C7.87259 26.2144 7.76953 25.6934 7.76953 25.129C7.76953 24.5864 7.86975 24.079 8.07067 23.6069C8.27133 23.1348 8.55084 22.7225 8.9091 22.3698C9.2672 22.0171 9.68767 21.7348 10.1707 21.5233C10.6535 21.3116 11.1719 21.1951 11.7254 21.1732ZM11.7091 22.7848C11.3942 22.7848 11.0931 22.8447 10.8057 22.9639C10.518 23.0835 10.2685 23.2488 10.0567 23.4605C9.84517 23.672 9.6768 23.9191 9.55217 24.2011C9.42727 24.4835 9.36495 24.7928 9.36495 25.129C9.36495 25.4439 9.42732 25.7451 9.55217 26.0325C9.6768 26.3202 9.84517 26.5726 10.0567 26.7895C10.2684 27.0068 10.5179 27.1777 10.8057 27.3024C11.0931 27.4273 11.3942 27.4895 11.7091 27.4895C12.02 27.4903 12.3277 27.4266 12.6127 27.3024C12.9001 27.1777 13.1498 27.0068 13.3615 26.7895C13.5731 26.5726 13.7412 26.3203 13.8661 26.0325C13.9903 25.7475 14.054 25.4399 14.0533 25.129C14.0208 24.4889 13.7928 23.9489 13.3697 23.5092C12.9463 23.0697 12.3982 22.8283 11.7255 22.7847L11.7091 22.7848ZM23.0556 18.6663C23.2401 18.6556 23.4137 18.7287 23.5766 18.886C23.7394 19.0435 23.8207 19.2144 23.8207 19.3989V25.1128C23.8207 25.6447 23.7122 26.1493 23.4952 26.6267C23.2779 27.1045 22.9849 27.5221 22.6161 27.8802C22.247 28.2384 21.8266 28.5233 21.3545 28.7349C20.8824 28.9465 20.3859 29.0523 19.865 29.0523C19.3331 29.0523 18.8284 28.9493 18.351 28.743C17.8733 28.5369 17.4556 28.2546 17.0975 27.8965C16.7394 27.5384 16.4544 27.1207 16.2428 26.643C16.0312 26.1655 15.9254 25.6555 15.9254 25.1128C15.9254 24.5267 16.0203 24.0114 16.2103 23.5663C16.4 23.1213 16.6849 22.7034 17.0649 22.3128V22.3291C17.4663 21.9494 17.9086 21.6616 18.3916 21.4663C18.8744 21.2708 19.3709 21.1732 19.8812 21.1732C20.1848 21.1732 20.5458 21.2221 20.9637 21.3198C21.3814 21.4174 21.7965 21.6074 22.2091 21.8896V19.4802C22.2091 19.3719 22.2307 19.2686 22.2742 19.1708C22.3174 19.0732 22.375 18.9827 22.4452 18.9023C22.5143 18.8219 22.6005 18.7579 22.6975 18.7151C22.7951 18.6719 22.8929 18.6556 22.9905 18.6663H23.0556ZM22.2091 25.1128C22.2091 24.8198 22.1466 24.5323 22.0219 24.2499C21.8977 23.9689 21.724 23.7125 21.5091 23.493C21.2941 23.2721 21.0402 23.0927 20.7602 22.9639C20.4778 22.8337 20.1795 22.7685 19.8648 22.7685C19.554 22.7678 19.2463 22.8315 18.9613 22.9556C18.6737 23.0806 18.4242 23.2487 18.2125 23.4603C18.0009 23.6719 17.8325 23.9217 17.7078 24.2092C17.5829 24.4968 17.5207 24.7981 17.5207 25.1127C17.5207 25.4382 17.583 25.7422 17.7078 26.0243C17.8325 26.3066 18.0009 26.5533 18.2125 26.7649C18.4241 26.9765 18.6736 27.1449 18.9613 27.2695C19.2489 27.3944 19.55 27.4567 19.8648 27.4567C20.1795 27.4567 20.4778 27.3943 20.7602 27.2695C21.0423 27.1449 21.2919 26.9765 21.5091 26.7649C21.7261 26.5533 21.897 26.3066 22.0219 26.0243C22.1465 25.7424 22.2091 25.4384 22.2091 25.1128ZM28.2323 21.1732C28.764 21.1732 29.266 21.2791 29.7383 21.4907C30.2103 21.7022 30.6254 21.9872 30.9836 22.3453C31.3417 22.7034 31.6266 23.1213 31.8383 23.5987C32.0499 24.0766 32.1557 24.5864 32.1557 25.129C32.1557 25.6718 32.0524 26.179 31.8463 26.6511C31.64 27.1232 31.3605 27.5383 31.0079 27.8965C30.6551 28.2546 30.24 28.5369 29.7626 28.743C29.2849 28.9493 28.7695 29.0523 28.216 29.0523C27.6732 29.0523 27.1632 28.9547 26.6859 28.7593C26.2081 28.5639 25.7905 28.29 25.4323 27.9372C25.0743 27.5847 24.7919 27.1696 24.5858 26.6918C24.3795 26.2144 24.2765 25.6934 24.2765 25.129C24.2765 24.5864 24.3767 24.079 24.5776 23.6069C24.7783 23.1348 25.0578 22.7225 25.416 22.3698C25.7741 22.0171 26.1946 21.7348 26.6777 21.5233C27.1605 21.3116 27.6788 21.1951 28.2323 21.1732ZM28.2161 22.7848C27.9012 22.7848 27.6001 22.8447 27.3126 22.9639C27.025 23.0835 26.7755 23.2488 26.5637 23.4605C26.3521 23.672 26.1837 23.9191 26.0591 24.2011C25.9342 24.4835 25.8719 24.7928 25.8719 25.129C25.8719 25.4439 25.9343 25.7451 26.0591 26.0325C26.1837 26.3202 26.3521 26.5726 26.5637 26.7895C26.7753 27.0068 27.0249 27.1777 27.3126 27.3024C27.6001 27.4273 27.9012 27.4895 28.2161 27.4895C28.527 27.4903 28.8346 27.4266 29.1196 27.3024C29.407 27.1777 29.6568 27.0068 29.8685 26.7895C30.0801 26.5726 30.2482 26.3203 30.3731 26.0325C30.4973 25.7476 30.561 25.4399 30.5603 25.129C30.5277 24.4889 30.2998 23.9489 29.8766 23.5092C29.4533 23.0697 28.9051 22.8283 28.2325 22.7847L28.2161 22.7848ZM36.5021 21.1732C37.0337 21.1732 37.5358 21.2791 38.008 21.4907C38.48 21.7022 38.8951 21.9872 39.2534 22.3453C39.6114 22.7034 39.8964 23.1213 40.108 23.5987C40.3196 24.0766 40.4254 24.5864 40.4254 25.129C40.4254 25.6718 40.3221 26.179 40.1161 26.6511C39.9098 27.1232 39.6303 27.5383 39.2777 27.8965C38.9249 28.2546 38.5098 28.5369 38.0323 28.743C37.5546 28.9493 37.0393 29.0523 36.4858 29.0523C35.9429 29.0523 35.4329 28.9547 34.9556 28.7593C34.4779 28.5639 34.0602 28.29 33.7021 27.9372C33.344 27.5847 33.0616 27.1696 32.8556 26.6918C32.6493 26.2144 32.5462 25.6934 32.5462 25.129C32.5462 24.5864 32.6464 24.079 32.8473 23.6069C33.048 23.1348 33.3275 22.7225 33.6857 22.3698C34.0438 22.0171 34.4643 21.7348 34.9474 21.5233C35.4302 21.3116 35.9486 21.1951 36.5021 21.1732ZM36.4858 22.7848C36.1709 22.7848 35.8698 22.8447 35.5823 22.9639C35.2947 23.0835 35.0452 23.2488 34.8334 23.4605C34.6219 23.672 34.4535 23.9191 34.3288 24.2011C34.2039 24.4835 34.1416 24.7928 34.1416 25.129C34.1416 25.4439 34.204 25.7451 34.3288 26.0325C34.4535 26.3202 34.6219 26.5726 34.8334 26.7895C35.0451 27.0068 35.2946 27.1777 35.5823 27.3024C35.8698 27.4273 36.1709 27.4895 36.4858 27.4895C36.7967 27.4903 37.1043 27.4266 37.3893 27.3024C37.6768 27.1777 37.9265 27.0068 38.1382 26.7895C38.3498 26.5726 38.5179 26.3203 38.6428 26.0325C38.767 25.7475 38.8307 25.4399 38.8299 25.129C38.7974 24.4889 38.5695 23.9489 38.1462 23.5092C37.723 23.0697 37.1749 22.8283 36.5022 22.7847L36.4858 22.7848Z" fill="white"/>
</svg>
