<svg width="48" height="48" viewBox="0 0 48 48" fill="none" xmlns="http://www.w3.org/2000/svg">
<path d="M10.1202 18.3944C10.6927 9.97018 17.9721 3.42743 26.6416 4.04084C34.4522 4.57258 40.7086 11.1561 40.9131 19.0076C41.0358 23.0152 39.5641 26.6957 37.1514 29.5174V36.4695C37.1514 37.1238 36.7423 37.6967 36.1289 37.9012L18.3399 43.9529C17.6856 44.1574 16.9903 43.6667 16.9903 42.9715V39.2498H12.7373C11.2653 39.2498 10.0383 38.0645 10.0381 36.5516V29.1492H8.03422C7.0121 29.1489 6.35827 28.0039 6.93071 27.1043C7.50317 26.2047 8.1985 24.9371 8.8936 23.6287C9.54784 22.3611 10.0791 20.1939 10.0791 18.8035L10.1202 18.3944ZM24.4737 8.37482C24.065 8.37501 23.7384 8.70243 23.7383 9.11115V10.7879C22.5933 10.9924 21.4885 11.4422 20.5479 12.0965L19.3623 10.911C19.0761 10.6247 18.6261 10.6247 18.3399 10.911L16.9493 12.3016C16.6635 12.5877 16.6635 13.0369 16.9493 13.3231L18.1358 14.5096C17.5224 15.4501 17.0726 16.5541 16.8272 17.699H15.1504C14.7415 17.699 14.4141 18.0264 14.4141 18.4354V20.4393C14.4142 20.8481 14.7416 21.1746 15.1504 21.1746H16.8272C17.0317 22.3197 17.4815 23.4245 18.1358 24.3651L16.9493 25.5506C16.6631 25.8368 16.6632 26.2868 16.9493 26.5731L18.3399 27.9637C18.6261 28.2499 19.0761 28.2499 19.3623 27.9637L20.5479 26.7772C21.4885 27.3906 22.5933 27.8404 23.7383 28.0858V29.7625C23.7383 30.1713 24.0649 30.4987 24.4737 30.4988H26.4776C26.8865 30.4988 27.2139 30.1715 27.2139 29.7625V28.0858C28.3589 27.8813 29.4628 27.4315 30.4034 26.7772L31.5899 27.9637C31.8762 28.2497 32.3262 28.2499 32.6123 27.9637L34.002 26.5731C34.2883 26.2868 34.2883 25.8369 34.002 25.5506L32.8164 24.3651C33.4299 23.4245 33.8797 22.3197 34.125 21.1746H35.8018C36.2106 21.1746 36.538 20.8481 36.5381 20.4393V18.4354C36.5381 18.0265 36.2107 17.6991 35.8018 17.699H34.125C33.9206 16.5541 33.4707 15.4501 32.8164 14.5096L34.002 13.3231C34.2882 13.0368 34.2882 12.5878 34.002 12.3016L32.6123 10.911C32.3261 10.6247 31.8761 10.6247 31.5899 10.911L30.4034 12.0965C29.4629 11.4832 28.3588 11.0332 27.2139 10.7879V9.11115C27.2138 8.70231 26.8864 8.37482 26.4776 8.37482H24.4737ZM25.4961 13.6502C28.6859 13.6502 31.3038 16.2681 31.3038 19.4578C31.3036 22.6474 28.6858 25.2645 25.4961 25.2645C22.2657 25.2643 19.6896 22.6473 19.6895 19.4168C19.6895 16.2272 22.3065 13.6503 25.4961 13.6502ZM24.5557 19.6619L23.1651 18.2713L21.7344 19.7029L23.1241 21.0936L24.5557 22.5242L25.9873 21.0936L29.2588 17.8221L27.8272 16.3904L24.5557 19.6619Z" fill="#44ADC1"/>
</svg>
