<svg width="48" height="48" viewBox="0 0 48 48" fill="none" xmlns="http://www.w3.org/2000/svg">
<path d="M44.6301 28.1589C44.3853 27.4173 43.7439 26.9008 42.9144 26.7769C42.5232 26.7185 42.0753 26.7434 41.5453 26.8526C40.6214 27.0433 39.9359 27.1158 39.4357 27.1299C41.3239 23.942 42.8592 20.3066 43.7431 16.8846C45.1723 11.3512 44.4086 8.83035 43.5161 7.69014C41.1541 4.67212 37.7081 3.05081 33.5509 3.0012C31.3331 2.97408 29.3863 3.41195 28.3706 3.72683C27.425 3.55998 26.4083 3.46682 25.3414 3.4496C23.3416 3.41769 21.5747 3.85365 20.0648 4.74964C19.229 4.46698 17.8875 4.06851 16.3383 3.81425C12.6946 3.21607 9.75796 3.68217 7.60994 5.19963C5.00889 7.03692 3.80312 10.2291 4.02612 14.6876C4.09694 16.1031 4.88878 20.41 6.13554 24.4945C6.85208 26.8423 7.61616 28.7919 8.40655 30.2897C9.52746 32.4136 10.7269 33.6644 12.0733 34.1136C12.828 34.365 14.1992 34.5411 15.6413 33.3399C15.8242 33.5614 16.068 33.7813 16.3917 33.9857C16.8028 34.2449 17.3054 34.4567 17.8074 34.5823C19.6165 35.0345 21.311 34.9214 22.7567 34.2875C22.7656 34.5446 22.7725 34.7903 22.7782 35.0024C22.7878 35.3465 22.7973 35.6839 22.8099 35.9994C22.8956 38.1327 23.0408 39.7915 23.4708 40.9522C23.4944 41.016 23.5262 41.1133 23.5597 41.2165C23.7742 41.8734 24.133 42.973 25.0457 43.8343C25.9908 44.7264 27.1341 45 28.1811 45C28.7062 45 29.2073 44.9311 29.6467 44.837C31.2132 44.5012 32.9922 43.9898 34.2792 42.1573C35.496 40.425 36.0875 37.8158 36.1945 33.7046C36.2084 33.5883 36.2211 33.4773 36.2334 33.3715L36.2589 33.1543L36.5456 33.1795L36.6194 33.1844C38.2149 33.2572 40.1658 32.9188 41.3639 32.3623C42.3106 31.923 45.3444 30.3213 44.6301 28.1589Z" fill="black"/>
<path d="M41.9019 28.5798C37.1579 29.5584 36.8317 27.9522 36.8317 27.9522C41.8405 20.52 43.9344 11.0858 42.1276 8.7768C37.198 2.47836 28.6647 5.45714 28.5223 5.53435L28.4765 5.54264C27.5392 5.34803 26.4904 5.23223 25.3114 5.21292C23.165 5.17783 21.5367 5.77569 20.3011 6.71268C20.3011 6.71268 5.07857 0.441519 5.78665 14.5997C5.93724 17.6117 10.1038 37.3901 15.0733 31.4161C16.8897 29.2315 18.6448 27.3845 18.6448 27.3845C19.5164 27.9636 20.56 28.259 21.6539 28.1529L21.7389 28.0808C21.7124 28.352 21.7246 28.6172 21.7729 28.9313C20.4926 30.3617 20.8689 30.6128 18.3097 31.1397C15.72 31.6734 17.2413 32.6235 18.2345 32.872C19.4387 33.173 22.2245 33.5995 24.1068 30.9645L24.0318 31.2652C24.5333 31.667 24.8855 33.8785 24.8265 35.8835C24.7675 37.8882 24.7281 39.2647 25.1232 40.3398C25.5186 41.415 25.9125 43.834 29.277 43.1132C32.0881 42.5107 33.5449 40.9495 33.7477 38.3453C33.8914 36.4939 34.217 36.7677 34.2374 35.1124L34.4985 34.3288C34.7995 31.8192 34.5464 31.0095 36.2782 31.3861L36.6993 31.4231C37.9739 31.481 39.6424 31.218 40.6216 30.7629C42.7301 29.7844 43.9807 28.1505 41.9016 28.5798H41.9019Z" fill="#336791"/>
<path d="M21.1925 15.9465C20.765 15.887 20.3779 15.942 20.182 16.0903C20.072 16.1738 20.0378 16.2704 20.0286 16.337C20.004 16.5132 20.1275 16.7082 20.2034 16.8086C20.4181 17.0932 20.7317 17.2888 21.0421 17.3319C21.0871 17.3382 21.1319 17.3411 21.1764 17.3411C21.6941 17.3411 22.1648 16.938 22.2063 16.6405C22.2581 16.2679 21.7172 16.0194 21.1925 15.9465ZM35.3549 15.9583C35.3141 15.6662 34.7944 15.5829 34.3012 15.6515C33.8086 15.7201 33.331 15.9425 33.3709 16.2352C33.4028 16.4628 33.8138 16.8514 34.3004 16.8514C34.3415 16.8514 34.383 16.8487 34.4248 16.8428C34.7496 16.7978 34.9879 16.5915 35.1011 16.4727C35.2734 16.2915 35.3733 16.0896 35.3549 15.9583Z" fill="white"/>
<path d="M43.4808 28.4684C43.2999 27.9214 42.7177 27.7454 41.7504 27.9452C38.8783 28.5379 37.8498 28.1273 37.5121 27.8786C39.7445 24.4778 41.581 20.3668 42.5717 16.5312C43.041 14.7144 43.3002 13.027 43.3214 11.6517C43.3449 10.1422 43.0877 9.03293 42.5575 8.35532C40.4197 5.62363 37.282 4.15832 33.484 4.11812C30.8729 4.08877 28.6668 4.75698 28.2392 4.94489C27.3385 4.72093 26.3567 4.58343 25.2878 4.56588C23.3277 4.53414 21.6333 5.00343 20.2306 5.96004C19.6212 5.73321 18.0465 5.19262 16.1207 4.88236C12.7913 4.34639 10.1456 4.75252 8.25753 6.09005C6.00471 7.68615 4.96467 10.5392 5.16614 14.5698C5.23393 15.9259 6.00662 20.0975 7.22595 24.0926C8.83099 29.3508 10.5758 32.3275 12.4115 32.9399C12.6263 33.0115 12.8741 33.0616 13.1473 33.0616C13.8169 33.0616 14.638 32.7598 15.4922 31.7328C16.534 30.483 17.6118 29.2634 18.7241 28.0758C19.4457 28.4631 20.2385 28.6794 21.0493 28.7011C21.0509 28.7223 21.053 28.7435 21.0549 28.7646C20.9154 28.931 20.7787 29.0999 20.645 29.271C20.0832 29.9842 19.9662 30.1327 18.1578 30.5051C17.6434 30.6113 16.2771 30.8928 16.257 31.8506C16.2353 32.897 17.8721 33.3364 18.0586 33.383C18.7085 33.5457 19.3346 33.626 19.9316 33.626C21.3837 33.626 22.6616 33.1487 23.6828 32.2253C23.6513 35.9557 23.8069 39.6315 24.2548 40.7515C24.6217 41.6684 25.5178 43.9091 28.3486 43.9089C28.764 43.9089 29.2211 43.8606 29.7241 43.7528C32.6784 43.1195 33.9614 41.8137 34.4577 38.9349C34.7233 37.3964 35.179 33.7226 35.3934 31.752C35.8458 31.8932 36.4282 31.9578 37.0578 31.9576C38.3709 31.9576 39.8861 31.6786 40.8363 31.2375C41.9038 30.7418 43.8301 29.5253 43.4808 28.4684ZM36.4452 15.1521C36.4355 15.7338 36.3554 16.262 36.2706 16.8133C36.1792 17.4062 36.0847 18.0192 36.061 18.7633C36.0375 19.4875 36.128 20.2404 36.2154 20.9686C36.3921 22.4394 36.5735 23.9535 35.8715 25.4475C35.7548 25.2409 35.651 25.0273 35.5604 24.808C35.4731 24.5965 35.2836 24.2567 35.0212 23.7865C34.0005 21.9559 31.6102 17.6691 32.8338 15.9198C33.1983 15.3992 34.1233 14.8638 36.4452 15.1521ZM33.6308 5.29614C37.0338 5.37127 39.7258 6.64436 41.6317 9.07983C43.0935 10.9479 41.4838 19.448 36.8239 26.781C36.7771 26.7214 36.7299 26.662 36.6826 26.6028L36.6236 26.5291C37.8277 24.5405 37.5923 22.5729 37.3827 20.8284C37.2966 20.1125 37.2152 19.4363 37.2359 18.8011C37.2573 18.128 37.3463 17.5505 37.4325 16.9922C37.5382 16.3043 37.6459 15.5923 37.6162 14.7531C37.6384 14.6651 37.6473 14.5611 37.6357 14.4376C37.5599 13.6329 36.6411 11.2243 34.7684 9.04442C33.744 7.85205 32.2502 6.51771 30.2104 5.61772C31.0878 5.43588 32.2875 5.26631 33.6308 5.29614ZM14.5882 30.9812C13.6471 32.1128 12.9972 31.8959 12.7834 31.8247C11.3909 31.3602 9.775 28.4168 8.35037 23.7494C7.11764 19.7108 6.39727 15.6498 6.34017 14.511C6.16023 10.9095 7.03326 8.3995 8.93515 7.05064C12.0304 4.85572 17.1192 6.16948 19.164 6.83578C19.1347 6.86481 19.1041 6.89193 19.075 6.92144C15.7195 10.3102 15.7991 16.0999 15.8074 16.4539C15.807 16.5904 15.8185 16.7838 15.8342 17.0497C15.8919 18.0235 15.9994 19.8359 15.7123 21.8884C15.4456 23.7957 16.0336 25.6625 17.3252 27.0102C17.4577 27.1483 17.597 27.2797 17.7426 27.4039C17.1677 28.0197 15.9182 29.3813 14.5882 30.9812ZM18.1739 26.1969C17.1329 25.1106 16.6601 23.5997 16.8766 22.0511C17.1797 19.883 17.0679 17.9946 17.0077 16.9801C16.9993 16.8381 16.9918 16.7137 16.9875 16.6156C17.4776 16.1809 19.7493 14.9639 21.3693 15.335C22.1085 15.5043 22.559 16.0077 22.7463 16.8736C23.7155 21.3564 22.8745 23.2248 22.1988 24.7263C22.0595 25.0356 21.9279 25.328 21.8157 25.6304L21.7286 25.8643C21.5081 26.4555 21.303 27.0051 21.1758 27.5271C20.0691 27.5239 18.9926 27.0511 18.1739 26.1967V26.1969ZM18.3438 32.2425C18.0206 32.1618 17.73 32.0216 17.5595 31.9053C17.7019 31.8383 17.9554 31.747 18.395 31.6564C20.5225 31.2186 20.8511 30.9094 21.5686 29.9984C21.733 29.7895 21.9195 29.5527 22.1777 29.2643L22.1781 29.264C22.5627 28.8333 22.7386 28.9064 23.0576 29.0388C23.3162 29.1457 23.5681 29.4698 23.6702 29.8265C23.7185 29.9949 23.7727 30.3146 23.5952 30.5634C22.0964 32.662 19.9123 32.6351 18.3438 32.2425ZM29.4778 42.6033C26.8751 43.1609 25.9536 41.833 25.3464 40.3149C24.9544 39.3348 24.7617 34.9153 24.8984 30.0346C24.9002 29.9697 24.8909 29.907 24.8731 29.848C24.8571 29.7315 24.8328 29.6162 24.8003 29.5031C24.5971 28.793 24.1018 28.1989 23.5076 27.9527C23.2715 27.8549 22.8383 27.6754 22.3176 27.8086C22.4287 27.3511 22.6212 26.8345 22.83 26.275L22.9176 26.0398C23.0162 25.7745 23.1399 25.4996 23.2707 25.2087C23.9779 23.6378 24.9463 21.4861 23.8952 16.6252C23.5016 14.8045 22.1868 13.9154 20.1939 14.1219C18.9991 14.2456 17.9059 14.7276 17.3607 15.004C17.2435 15.0634 17.1363 15.1208 17.0361 15.1766C17.1883 13.3422 17.7632 9.91393 19.9138 7.74485C21.2679 6.37941 23.0712 5.70498 25.2683 5.74135C29.5976 5.81217 32.3738 8.03389 33.9405 9.88538C35.2907 11.4807 36.0217 13.0878 36.3135 13.9546C34.1193 13.7314 32.6271 14.1645 31.8707 15.246C30.225 17.5986 32.771 22.1645 33.9946 24.3589C34.219 24.7611 34.4127 25.1087 34.4736 25.2564C34.8721 26.2221 35.388 26.8668 35.7646 27.3374C35.8801 27.4816 35.992 27.6215 36.0772 27.7437C35.4127 27.9353 34.219 28.3779 34.3278 30.5906C34.2401 31.7008 33.6162 36.8987 33.2993 38.7352C32.8809 41.1614 31.9881 42.0651 29.4778 42.6034V42.6033ZM40.3414 30.1713C39.6618 30.4867 38.5247 30.7233 37.4444 30.7742C36.2513 30.83 35.6438 30.6405 35.5009 30.5239C35.4339 29.145 35.9471 29.001 36.4902 28.8485C36.5756 28.8246 36.6588 28.8011 36.7392 28.773C36.7891 28.8137 36.8439 28.8541 36.9038 28.8936C37.8628 29.5266 39.5733 29.5949 41.9882 29.0964L42.0147 29.0911C41.689 29.3956 41.1316 29.8043 40.3414 30.1713Z" fill="white"/>
</svg>
