<svg width="48" height="48" viewBox="0 0 48 48" fill="none" xmlns="http://www.w3.org/2000/svg">
<path d="M24.2647 2.70312C13.6025 2.70312 14.2682 7.35107 14.2682 7.35107L14.28 12.1665H24.4548V13.6122H10.2388C10.2388 13.6122 3.41602 12.8344 3.41602 23.6487C3.41602 34.4634 9.37109 34.0798 9.37109 34.0798H12.9251V29.0614C12.9251 29.0614 12.7335 23.0752 18.7851 23.0752H28.8766C28.8766 23.0752 34.5464 23.1673 34.5464 17.5669V8.3071C34.5464 8.3071 35.4075 2.70312 24.2647 2.70312ZM18.6543 5.94139C18.8948 5.94117 19.1329 5.98862 19.3551 6.08101C19.5772 6.1734 19.7791 6.30893 19.9491 6.47983C20.1192 6.65073 20.254 6.85366 20.3459 7.077C20.4378 7.30033 20.485 7.5397 20.4848 7.78139C20.485 8.02308 20.4378 8.26245 20.3459 8.48579C20.254 8.70912 20.1192 8.91205 19.9491 9.08295C19.7791 9.25385 19.5772 9.38938 19.3551 9.48177C19.1329 9.57416 18.8948 9.62161 18.6543 9.62139C18.4139 9.62161 18.1758 9.57416 17.9536 9.48177C17.7314 9.38938 17.5296 9.25385 17.3595 9.08295C17.1895 8.91205 17.0547 8.70912 16.9628 8.48579C16.8709 8.26245 16.8237 8.02308 16.8239 7.78139C16.8237 7.5397 16.8709 7.30033 16.9628 7.077C17.0547 6.85366 17.1895 6.65073 17.3595 6.47983C17.5296 6.30893 17.7314 6.1734 17.9536 6.08101C18.1758 5.98862 18.4139 5.94117 18.6543 5.94139Z" fill="url(#paint0_linear_608_24005)"/>
<path d="M24.5678 44.7036C35.23 44.7036 34.5643 40.0556 34.5643 40.0556L34.5524 35.2404H24.3775V33.7947H38.5935C38.5935 33.7947 45.4163 34.5725 45.4163 23.7578C45.4163 12.9433 39.4612 13.3269 39.4612 13.3269H35.9073V18.3451C35.9073 18.3451 36.0989 24.3313 30.0472 24.3313H19.9557C19.9557 24.3313 14.2859 24.2392 14.2859 29.8398V39.0998C14.2859 39.0998 13.425 44.7036 24.5676 44.7036H24.5678ZM30.1782 41.4656C29.9377 41.4659 29.6996 41.4184 29.4774 41.326C29.2552 41.2336 29.0534 41.0981 28.8834 40.9272C28.7133 40.7563 28.5785 40.5534 28.4866 40.33C28.3947 40.1067 28.3475 39.8673 28.3477 39.6256C28.3475 39.3839 28.3947 39.1445 28.4866 38.9212C28.5785 38.6978 28.7133 38.4949 28.8833 38.324C29.0533 38.153 29.2552 38.0175 29.4774 37.9251C29.6996 37.8327 29.9377 37.7853 30.1782 37.7855C30.4186 37.7853 30.6567 37.8327 30.8789 37.9251C31.1011 38.0175 31.3029 38.153 31.4729 38.3239C31.643 38.4948 31.7778 38.6977 31.8697 38.9211C31.9616 39.1444 32.0088 39.3838 32.0086 39.6255C32.0088 39.8672 31.9616 40.1065 31.8697 40.3299C31.7778 40.5532 31.643 40.7561 31.4729 40.927C31.3029 41.0979 31.1011 41.2335 30.8789 41.3259C30.6567 41.4182 30.4186 41.4659 30.1782 41.4656Z" fill="url(#paint1_linear_608_24005)"/>
<defs>
<linearGradient id="paint0_linear_608_24005" x1="407.035" y1="380.467" x2="2499.17" y2="2440.96" gradientUnits="userSpaceOnUse">
<stop stop-color="#387EB8"/>
<stop offset="1" stop-color="#366994"/>
</linearGradient>
<linearGradient id="paint1_linear_608_24005" x1="610.027" y1="659.061" x2="2856.2" y2="2771.4" gradientUnits="userSpaceOnUse">
<stop stop-color="#FFE052"/>
<stop offset="1" stop-color="#FFC331"/>
</linearGradient>
</defs>
</svg>
