<svg width="48" height="48" viewBox="0 0 48 48" fill="none" xmlns="http://www.w3.org/2000/svg">
<path d="M39.4211 20.9056C39.2979 19.6293 38.9829 18.4089 38.505 17.2719C36.58 12.6914 32.0128 9.46973 26.6834 9.46973C24.197 9.46973 21.8768 10.1711 19.9135 11.3842C16.8797 13.2589 14.6981 16.3569 14.0723 19.9791H12.613C7.56179 19.9795 3.4668 24.0281 3.4668 29.0225C3.4668 34.0169 7.56179 38.0659 12.613 38.0659H35.3877C40.4384 38.0659 44.5334 34.0169 44.5334 29.0225C44.5334 25.4599 42.4488 22.3799 39.4211 20.9056Z" fill="#69E3FF"/>
<path d="M22.8052 15.3628C23.2862 15.1654 23.3225 14.7274 23.3225 14.5964C23.3225 14.4672 23.2862 14.0274 22.8052 13.83C22.5637 13.7312 22.3749 13.5446 22.2751 13.3058C22.1752 13.0671 22.1752 12.8033 22.2751 12.5645L22.9141 11.0406C23.121 10.547 23.6947 10.3119 24.1957 10.5165C24.6768 10.714 25.0162 10.4286 25.1088 10.337C25.2014 10.2455 25.49 9.90804 25.2903 9.43418C25.1905 9.19545 25.1905 8.9316 25.2903 8.69287C25.3902 8.45414 25.579 8.26747 25.8204 8.16875L27.3616 7.53693C27.8609 7.33231 28.4345 7.56745 28.6433 8.06105C28.8429 8.53491 29.2859 8.57261 29.4184 8.57261C29.5491 8.57261 29.9939 8.53671 30.1936 8.06105C30.2934 7.82233 30.4822 7.63565 30.7236 7.53693C30.9651 7.43821 31.2319 7.43821 31.4734 7.53693L33.0146 8.16875C33.256 8.26747 33.4448 8.45414 33.5447 8.69287C33.6445 8.9316 33.6445 9.19545 33.5447 9.43418C33.345 9.90983 33.6336 10.2455 33.7262 10.337C33.8188 10.4286 34.1601 10.714 34.6393 10.5165C34.8807 10.4178 35.1476 10.4178 35.389 10.5165C35.6305 10.6152 35.8193 10.8019 35.9191 11.0406L36.5581 12.5645C36.658 12.8033 36.658 13.0671 36.5581 13.3058C36.4583 13.5446 36.2695 13.7312 36.028 13.83C35.5488 14.0274 35.5107 14.4654 35.5107 14.5964C35.5107 14.7274 35.5488 15.1654 36.028 15.3628C36.5272 15.5675 36.7651 16.1365 36.5581 16.6301L35.9191 18.154C35.8193 18.3927 35.6305 18.5794 35.389 18.6781C35.1476 18.7768 34.8807 18.7768 34.6393 18.6781C34.1601 18.4824 33.8188 18.766 33.7262 18.8576C33.6336 18.9491 33.345 19.2866 33.5447 19.7604C33.7516 20.254 33.5138 20.823 33.0146 21.0277L31.4734 21.6595C31.3517 21.7097 31.2247 21.7331 31.0976 21.7331C30.9705 21.7331 30.8434 21.7079 30.7218 21.6595C30.4804 21.5608 30.2916 21.3741 30.1917 21.1354C29.9921 20.6597 29.5491 20.6238 29.4166 20.6238C29.2859 20.6238 28.8411 20.6597 28.6414 21.1354C28.4345 21.629 27.859 21.8641 27.3598 21.6595L25.8186 21.0277C25.3194 20.823 25.0816 20.254 25.2885 19.7604C25.4882 19.2848 25.1996 18.9491 25.107 18.8576C25.0144 18.766 24.6749 18.4806 24.1939 18.6781C23.6947 18.8809 23.121 18.6458 22.9141 18.1522L22.2751 16.6283C22.0681 16.1347 22.3059 15.5675 22.8052 15.3628ZM29.4184 17.2727C30.9106 17.2727 32.1251 16.0718 32.1251 14.5964C32.1251 13.121 30.9106 11.9202 29.4184 11.9202C27.9262 11.9202 26.7117 13.121 26.7117 14.5964C26.7117 16.0718 27.9262 17.2727 29.4184 17.2727Z" fill="#F9F9F9"/>
<path d="M22.6029 32.2115H19.3983C19.1407 32.2115 18.9316 32.0053 18.9316 31.7501V25.4858C18.9316 25.2307 19.1407 25.0244 19.3983 25.0244H22.6029C22.8605 25.0244 23.0696 25.2307 23.0696 25.4858C23.0696 25.741 22.8605 25.9473 22.6029 25.9473H19.865V31.2887H22.6029C22.8605 31.2887 23.0696 31.4949 23.0696 31.7501C23.0696 32.0053 22.861 32.2115 22.6029 32.2115Z" fill="white"/>
<path d="M21.6313 29.0801H19.3983C19.1407 29.0801 18.9316 28.8738 18.9316 28.6186C18.9316 28.3635 19.1407 28.1572 19.3983 28.1572H21.6313C21.8889 28.1572 22.098 28.3635 22.098 28.6186C22.098 28.8738 21.8894 29.0801 21.6313 29.0801Z" fill="white"/>
<path d="M14.9916 29.0794H12.8104C12.5528 29.0794 12.3438 28.8731 12.3438 28.618V25.4858C12.3438 25.2307 12.5528 25.0244 12.8104 25.0244H14.9916C15.917 25.0244 16.6697 25.7687 16.6697 26.6837V27.4206C16.6697 28.3347 15.917 29.0794 14.9916 29.0794ZM13.2771 28.1565H14.9916C15.4023 28.1565 15.7364 27.8262 15.7364 27.4201V26.6832C15.7364 26.2772 15.4023 25.9468 14.9916 25.9468H13.2771V28.1565Z" fill="white"/>
<path d="M16.2031 32.2122C15.9455 32.2122 15.7364 32.006 15.7364 31.7508V29.8165C15.7364 29.4105 15.4023 29.0801 14.9916 29.0801H13.2771V31.7508C13.2771 32.006 13.068 32.2122 12.8104 32.2122C12.5528 32.2122 12.3438 32.006 12.3438 31.7508V28.6186C12.3438 28.3635 12.5528 28.1572 12.8104 28.1572H14.9916C15.917 28.1572 16.6697 28.9015 16.6697 29.8165V31.7508C16.6697 32.006 16.4607 32.2122 16.2031 32.2122Z" fill="white"/>
<path d="M35.1898 25.9473H31.1932C30.9352 25.9473 30.7266 25.741 30.7266 25.4858C30.7266 25.2307 30.9352 25.0244 31.1932 25.0244H35.1898C35.4478 25.0244 35.6564 25.2307 35.6564 25.4858C35.6564 25.741 35.4474 25.9473 35.1898 25.9473Z" fill="white"/>
<path d="M33.1903 32.2115C32.9322 32.2115 32.7236 32.0053 32.7236 31.7501V25.4858C32.7236 25.2307 32.9322 25.0244 33.1903 25.0244C33.4484 25.0244 33.657 25.2307 33.657 25.4858V31.7501C33.657 32.0053 33.4484 32.2115 33.1903 32.2115Z" fill="white"/>
<path d="M27.1341 32.2116H26.5465C25.5833 32.2116 24.7998 31.4585 24.7998 30.5329C24.7998 30.2778 25.0084 30.0715 25.2665 30.0715C25.5245 30.0715 25.7331 30.2778 25.7331 30.5329C25.7331 30.9496 26.0981 31.2887 26.5465 31.2887H27.1341C27.6199 31.2887 28.0151 30.921 28.0151 30.4688V29.8999C28.0151 29.4477 27.6199 29.0799 27.1341 29.0799H26.6147C25.6137 29.0799 24.7998 28.2983 24.7998 27.3371V26.7682C24.7998 25.807 25.6137 25.0254 26.6147 25.0254H27.2022C28.1649 25.0254 28.9485 25.7784 28.9485 26.7036C28.9485 26.9588 28.7399 27.165 28.4818 27.165C28.2237 27.165 28.0151 26.9588 28.0151 26.7036C28.0151 26.2874 27.6507 25.9482 27.2022 25.9482H26.6147C26.1289 25.9482 25.7331 26.316 25.7331 26.7682V27.3371C25.7331 27.7893 26.1289 28.1571 26.6147 28.1571H27.1341C28.1346 28.1571 28.9485 28.9387 28.9485 29.8999V30.4688C28.9485 31.4299 28.1341 32.2116 27.1341 32.2116Z" fill="white"/>
<path d="M20.6117 41.9991C20.3541 41.9991 20.145 41.7928 20.145 41.5377V36.624C20.145 36.1335 19.7414 35.7344 19.2458 35.7344H18.0455C17.5494 35.7344 17.1462 36.1335 17.1462 36.624V41.5372C17.1462 41.7924 16.9372 41.9986 16.6796 41.9986C16.422 41.9986 16.2129 41.7924 16.2129 41.5372V36.624C16.2129 35.6246 17.0352 34.8115 18.0455 34.8115H19.2458C20.2566 34.8115 21.0784 35.6246 21.0784 36.624V41.5372C21.0784 41.7924 20.8693 41.9991 20.6117 41.9991Z" fill="white"/>
<path d="M20.6112 38.8682H16.6786C16.421 38.8682 16.2119 38.6619 16.2119 38.4067C16.2119 38.1516 16.421 37.9453 16.6786 37.9453H20.6112C20.8688 37.9453 21.0778 38.1516 21.0778 38.4067C21.0778 38.6619 20.8688 38.8682 20.6112 38.8682Z" fill="white"/>
<path d="M30.5292 41.9996C30.2711 41.9996 30.0625 41.7934 30.0625 41.5382V35.2739C30.0625 35.0188 30.2711 34.8125 30.5292 34.8125C30.7872 34.8125 30.9958 35.0188 30.9958 35.2739V41.5382C30.9958 41.7929 30.7872 41.9996 30.5292 41.9996Z" fill="white"/>
<path d="M26.285 39.2491H23.9657C23.7081 39.2491 23.499 39.0428 23.499 38.7877V35.2739C23.499 35.0188 23.7081 34.8125 23.9657 34.8125H26.285C27.223 34.8125 27.986 35.5674 27.986 36.4948V37.5672C27.9856 38.4942 27.2226 39.2491 26.285 39.2491ZM24.4319 38.3262H26.2846C26.7078 38.3262 27.0522 37.9857 27.0522 37.5667V36.4944C27.0522 36.0759 26.7083 35.7349 26.2846 35.7349H24.4319V38.3262Z" fill="white"/>
<path d="M23.9647 41.9996C23.7071 41.9996 23.498 41.7933 23.498 41.5381V38.7876C23.498 38.5324 23.7071 38.3262 23.9647 38.3262C24.2223 38.3262 24.4314 38.5324 24.4314 38.7876V41.5381C24.4314 41.7928 24.2228 41.9996 23.9647 41.9996Z" fill="white"/>
<path d="M35.3876 38.5268C35.1295 38.5268 34.9209 38.3206 34.9209 38.0654C34.9209 37.8103 35.1295 37.604 35.3876 37.604C40.1732 37.604 44.0671 33.7548 44.0671 29.0229C44.0671 25.7284 42.2084 22.7767 39.2156 21.3199C39.07 21.2493 38.9725 21.1091 38.9571 20.9499C38.84 19.7428 38.5432 18.5652 38.0742 17.4491C37.9752 17.2137 38.0882 16.9438 38.3262 16.846C38.5656 16.7482 38.8376 16.8598 38.9366 17.0952C39.4079 18.2178 39.7178 19.3981 39.8592 20.6084C43.0372 22.2589 45.0004 25.4594 45.0004 29.0225C45.0004 34.2633 40.6884 38.5268 35.3876 38.5268Z" fill="white"/>
<path d="M12.6129 38.5263C7.31246 38.5263 3 34.2628 3 29.0224C3 23.7815 7.31246 19.5175 12.6129 19.5175H13.6843C14.4025 15.9992 16.5655 12.9086 19.6661 10.9928C19.8845 10.858 20.1724 10.924 20.3091 11.1395C20.4454 11.3554 20.3791 11.6401 20.1607 11.7753C17.1741 13.621 15.1226 16.6396 14.5323 20.0565C14.494 20.278 14.2994 20.4404 14.0721 20.4404H12.6129C7.82673 20.4404 3.93333 24.29 3.93333 29.0219C3.93333 33.7538 7.82673 37.6039 12.6129 37.6039C12.8705 37.6039 13.0795 37.8102 13.0795 38.0653C13.0795 38.3205 12.8705 38.5263 12.6129 38.5263Z" fill="white"/>
<path d="M31.0981 22.1943C30.9074 22.1943 30.7205 22.1566 30.5444 22.0848C30.1868 21.9395 29.909 21.663 29.762 21.3112C29.6839 21.1228 29.5314 21.0833 29.4189 21.0833C29.3045 21.0833 29.1538 21.1228 29.0758 21.3112C28.7708 22.0382 27.923 22.3864 27.186 22.0848L25.643 21.453C24.906 21.1515 24.5556 20.3115 24.8606 19.5845C24.9441 19.3871 24.8461 19.2489 24.7807 19.1842C24.699 19.1035 24.5629 19.0263 24.3741 19.1035C23.637 19.4032 22.7893 19.0568 22.4825 18.3298L21.8435 16.8059C21.5385 16.0772 21.8889 15.239 22.6259 14.9374C22.8165 14.8602 22.8565 14.7095 22.8565 14.5982C22.8565 14.4851 22.8165 14.3361 22.6277 14.2589C22.2701 14.1135 21.9924 13.8371 21.8453 13.4853C21.6965 13.1317 21.6965 12.744 21.8453 12.3904L22.4843 10.8665C22.7911 10.1378 23.6389 9.79135 24.3759 10.0929C24.5665 10.1701 24.7008 10.0929 24.7807 10.0139C24.8624 9.93315 24.9405 9.80032 24.8624 9.61185C24.7154 9.25825 24.7154 8.87055 24.8624 8.51694C25.0113 8.16334 25.289 7.88872 25.6448 7.74333L27.186 7.11151C27.923 6.80996 28.7708 7.15818 29.0776 7.88513C29.1557 8.0718 29.3081 8.11129 29.4207 8.11129C29.5351 8.11129 29.6857 8.0718 29.7638 7.88513C29.9126 7.53153 30.1904 7.2569 30.548 7.10972C30.9056 6.96253 31.2977 6.96433 31.6554 7.10972L33.1966 7.74153C33.5542 7.88872 33.8319 8.16334 33.9808 8.51515C34.1297 8.86875 34.1297 9.25825 33.9808 9.61006C33.9027 9.79673 33.9808 9.93135 34.0607 10.0103C34.1424 10.0911 34.2767 10.1683 34.4655 10.0911C34.8231 9.94571 35.217 9.94571 35.5729 10.0911C35.9305 10.2383 36.2082 10.5129 36.3571 10.8665L36.9943 12.3904C37.1431 12.744 37.1431 13.1317 36.9943 13.4853C36.8454 13.8389 36.5677 14.1135 36.21 14.2607C36.0212 14.3379 35.9813 14.4887 35.9813 14.6C35.9813 14.7113 36.0212 14.862 36.2118 14.9392C36.5695 15.0846 36.8472 15.361 36.9943 15.7146C37.1431 16.0682 37.1431 16.4559 36.9943 16.8095L36.3553 18.3334C36.2082 18.687 35.9305 18.9617 35.5729 19.1071C35.2152 19.2524 34.8213 19.2524 34.4655 19.1071C34.2749 19.0281 34.1406 19.1071 34.0607 19.186C33.9808 19.265 33.9009 19.3996 33.9808 19.5863C34.2858 20.315 33.9354 21.1533 33.1984 21.4548L31.6572 22.0866C31.4756 22.1584 31.2887 22.1943 31.0981 22.1943ZM29.4189 20.1607C29.84 20.1607 30.3792 20.3707 30.6243 20.9576C30.6769 21.0833 30.7749 21.1802 30.902 21.2323C31.0291 21.2843 31.1689 21.2843 31.2959 21.2323L32.8371 20.6004C33.0986 20.4927 33.2238 20.1948 33.1149 19.9363C32.868 19.3476 33.1004 18.8235 33.3981 18.5291C33.6958 18.2347 34.2259 18.0068 34.8195 18.2491C34.9484 18.3011 35.0845 18.3011 35.2134 18.2491C35.3405 18.197 35.4385 18.1001 35.4912 17.9745L36.1302 16.4506C36.1828 16.3249 36.1828 16.1885 36.1302 16.0628C36.0775 15.9372 35.9795 15.8403 35.8524 15.7882C35.2588 15.5441 35.0464 15.0128 35.0464 14.5964C35.0464 14.18 35.257 13.6469 35.8524 13.4045C35.9795 13.3525 36.0775 13.2556 36.1302 13.1299C36.1828 13.0043 36.1828 12.8661 36.1302 12.7404L35.4912 11.2165C35.4385 11.0909 35.3405 10.994 35.2134 10.9419C35.0863 10.8898 34.9466 10.8898 34.8195 10.9419C34.2277 11.186 33.6958 10.9581 33.3963 10.6619C33.0986 10.3693 32.868 9.8434 33.1149 9.25646C33.1675 9.13081 33.1675 8.9926 33.1149 8.86696C33.0622 8.74131 32.9642 8.64438 32.8371 8.59233L31.2959 7.96051C31.167 7.90846 31.0309 7.90846 30.902 7.96051C30.7749 8.01257 30.6751 8.10949 30.6243 8.23514C30.3792 8.82208 29.84 9.03209 29.4189 9.03209C28.9977 9.03209 28.4586 8.82388 28.2135 8.23693C28.1046 7.97846 27.8032 7.85461 27.5418 7.96231L26.0006 8.59233C25.8735 8.64438 25.7755 8.74131 25.7229 8.86696C25.6702 8.9926 25.6702 9.13081 25.7229 9.25646C25.9697 9.8452 25.7374 10.3693 25.4379 10.6637C25.142 10.9581 24.6119 11.186 24.0164 10.9419C23.755 10.8342 23.4537 10.9581 23.3448 11.2165L22.7058 12.7404C22.6531 12.8661 22.6531 13.0043 22.7058 13.1281C22.7584 13.2538 22.8565 13.3525 22.9835 13.4028C23.579 13.6469 23.7895 14.1782 23.7895 14.5964C23.7895 15.0128 23.5771 15.5441 22.9835 15.7882C22.7221 15.8959 22.5969 16.1939 22.7058 16.4523L23.3448 17.9762C23.4537 18.2347 23.7569 18.3586 24.0164 18.2509C24.6101 18.0086 25.1401 18.2365 25.4379 18.5309C25.7356 18.8235 25.9679 19.3476 25.721 19.9363C25.6121 20.1948 25.7374 20.4927 25.9988 20.6004L27.54 21.2323C27.8014 21.34 28.1028 21.2161 28.2117 20.9576C28.4586 20.3707 28.9959 20.1607 29.4189 20.1607ZM29.4189 17.7339C27.6689 17.7339 26.2457 16.3267 26.2457 14.5964C26.2457 12.8661 27.6689 11.4588 29.4189 11.4588C31.1689 11.4588 32.5921 12.8661 32.5921 14.5964C32.5921 16.3267 31.1689 17.7339 29.4189 17.7339ZM29.4189 12.3814C28.1826 12.3814 27.1788 13.3758 27.1788 14.5964C27.1788 15.8169 28.1845 16.8113 29.4189 16.8113C30.6533 16.8113 31.659 15.8169 31.659 14.5964C31.659 13.3758 30.6533 12.3814 29.4189 12.3814Z" fill="white"/>
</svg>
