<svg width="48" height="48" viewBox="0 0 48 48" fill="none" xmlns="http://www.w3.org/2000/svg">
<path d="M39.0822 24.4978C39.0822 24.7906 38.8484 25.0248 38.6146 25.0833L35.6916 25.6103C35.5162 26.1958 35.3408 26.7228 35.107 27.3083C35.0485 27.4839 34.8731 27.601 34.6977 27.6596C34.5224 27.7181 34.2885 27.6596 34.1716 27.4839L31.5409 24.8491C31.3655 24.732 31.307 24.4978 31.3655 24.3221C32.8855 18.1742 28.2087 12.319 22.0119 12.319C13.5352 12.319 9.15067 22.6827 15.2305 28.7721C17.6274 31.1727 21.0765 32.1095 24.3503 31.2898C24.5257 31.2313 24.7595 31.2898 24.9349 31.4655L27.5656 34.1003C27.6825 34.2174 27.741 34.4516 27.741 34.6273C27.6825 34.8029 27.5656 34.9786 27.3902 35.0371C26.8641 35.2713 26.3379 35.447 25.8118 35.5641L25.2857 38.4917C25.2272 38.7845 24.9934 38.9601 24.7011 38.9601H19.5566C19.2643 38.9601 19.0304 38.7845 18.972 38.4917L18.4458 35.5641C17.2182 35.2713 16.1074 34.8029 15.0551 34.1589L12.5998 35.8569C12.366 36.0325 12.0737 35.974 11.8398 35.7983L8.21531 32.2852C8.03993 32.1095 7.98147 31.7582 8.15685 31.524L9.85219 29.0648C9.26759 28.0695 8.74145 26.8984 8.44915 25.7274L5.46768 25.2004C5.17538 25.1419 5 24.9077 5 24.6149V19.4623C5 19.1696 5.23384 18.9354 5.46768 18.8768L8.39069 18.3498C8.68299 17.1788 9.15067 16.0078 9.79373 14.9538L8.09839 12.4946C7.92301 12.2604 7.98147 11.9677 8.15685 11.7335L11.7814 8.1618C11.9568 7.98615 12.3075 7.9276 12.5414 8.10325L14.9967 9.80126C16.049 9.21574 17.1597 8.68877 18.3289 8.39601L18.855 5.46842C18.9135 5.17566 19.1473 5 19.4396 5H24.5841C24.8764 5 25.1103 5.17566 25.1687 5.46842L25.6949 8.39601C26.8641 8.68877 28.0333 9.15719 29.0856 9.80126L31.5409 8.10325C31.7747 7.9276 32.067 7.98615 32.3009 8.1618L35.9254 11.792C36.1592 11.9677 36.1592 12.319 35.9839 12.5532L34.2885 15.0124C34.8731 16.0663 35.3993 17.1788 35.6916 18.4084L38.6146 18.9354C38.9069 18.9939 39.0822 19.2281 39.0822 19.5209V24.4978Z" fill="#44ADC1"/>
<path d="M37.9141 33.047C35.4003 33.3398 33.2958 35.3305 33.0035 37.9654L24.936 29.7681C24.2929 29.124 23.416 28.7727 22.5976 28.8313C17.7454 29.2411 13.9455 24.4399 15.6408 19.6386C15.8162 19.2287 16.2839 19.1116 16.5762 19.4044L20.1422 22.9761C20.4345 23.2688 20.8437 23.2688 21.136 22.9761L23.1237 20.9853C23.416 20.6925 23.416 20.2827 23.1237 19.9899L19.5576 16.4183C19.2653 16.1255 19.3822 15.5985 19.7915 15.4814C24.3514 13.842 29.262 17.5307 28.8528 22.5077C28.7943 23.3859 29.1451 24.2057 29.7881 24.8497L37.9141 33.047Z" fill="#44ADC1"/>
<path d="M43.0012 38.5505C43.0012 36.0914 41.0135 34.1591 38.5582 34.1006C36.1029 34.1006 34.1737 36.0914 34.1152 38.5505C34.1152 41.0097 36.1029 43.0005 38.5582 43.0005C41.0135 43.0005 43.0012 41.0097 43.0012 38.5505ZM38.6167 40.19C37.7398 40.19 36.9798 39.4874 36.9798 38.5505C36.9798 37.6723 37.6813 36.9111 38.6167 36.9111C39.4936 36.9111 40.1951 37.6137 40.2535 38.5505C40.1951 39.4874 39.4936 40.19 38.6167 40.19Z" fill="#44ADC1"/>
</svg>
