<svg width="48" height="48" viewBox="0 0 48 48" fill="none" xmlns="http://www.w3.org/2000/svg">
<path d="M38.4938 16.5048C37.0151 16.5048 35.6843 17.0171 34.5753 17.8222L26.4426 7.94138L26.5165 7.86818C27.0341 7.20946 26.8862 6.25798 26.2208 5.74564C25.5554 5.2333 24.5943 5.37968 24.0767 6.0384C23.5592 6.69712 23.707 7.64861 24.3725 8.16095C24.89 8.52691 25.5554 8.52691 26.0729 8.30733L34.2057 18.1882C33.6142 18.7005 33.0967 19.3592 32.727 20.0179L9.58568 9.4052C9.73355 8.89286 9.80748 8.38052 9.73355 7.86818C9.58568 6.98989 9.14208 6.18478 8.40274 5.67244C7.6634 5.16011 6.77619 4.94053 5.88899 5.01372C5.00178 5.16011 4.18851 5.59925 3.67097 6.33117C2.56196 7.79499 2.8577 9.91754 4.33638 11.0154C4.92785 11.4546 5.66719 11.6741 6.33259 11.6741C6.48046 11.6741 6.62833 11.6741 6.77619 11.6741C7.6634 11.5277 8.47667 11.0886 8.99421 10.3567C9.06814 10.2103 9.21601 10.0639 9.28995 9.91754L32.4312 20.4571C32.1355 21.1158 31.9876 21.8477 31.9137 22.6528H12.3212C12.2473 22.1405 11.9516 21.6281 11.508 21.2622C10.6208 20.6035 9.28995 20.7498 8.62454 21.6281C7.95914 22.5064 8.107 23.8239 9.06814 24.4826C9.95535 25.1413 11.2862 24.9949 11.9516 24.1166C12.1734 23.8239 12.3212 23.4579 12.3212 23.1652H31.9876C31.9876 23.9703 32.2094 24.7754 32.5791 25.5073L27.5516 27.9226C27.4037 27.703 27.108 27.4834 26.6644 27.4103C25.8511 27.1907 24.9639 27.7762 24.8161 28.5813C24.5943 29.3864 25.1857 30.2647 25.999 30.4111C26.8123 30.6307 27.6995 30.0451 27.8473 29.24C27.9213 28.9473 27.9213 28.7277 27.8473 28.4349L32.8748 26.0196C33.3185 26.7515 33.9099 27.4834 34.5753 27.9958L28.0691 36.8519C27.4037 36.4128 26.5905 36.1932 25.7033 36.3396C24.8161 36.486 24.0028 36.9251 23.4852 37.657C22.3762 39.1209 22.672 41.2434 24.1507 42.3413C24.7421 42.7804 25.4815 43 26.1469 43C26.2947 43 26.4426 43 26.5905 43C27.4777 42.8536 28.291 42.4145 28.8085 41.6826C29.326 40.9506 29.5478 40.0723 29.4739 39.1941C29.4 38.389 29.0303 37.7302 28.4388 37.2179L34.945 28.3617C35.9801 29.0205 37.163 29.3864 38.4938 29.3864C42.0426 29.3864 45 26.532 45 22.9456C45 19.3592 42.0426 16.5048 38.4938 16.5048ZM8.62454 10.0639C8.18094 10.6495 7.51553 11.0154 6.77619 11.1618C6.03686 11.235 5.29752 11.0886 4.70605 10.6495C3.44917 9.69797 3.22737 7.94137 4.11458 6.69712C4.55818 6.0384 5.22358 5.67244 5.96292 5.52606C6.11079 5.52606 6.25866 5.52606 6.33259 5.52606C6.92406 5.52606 7.51553 5.74564 8.03307 6.11159C8.69848 6.55074 9.06814 7.20946 9.21601 7.94138C9.28995 8.67329 9.06814 9.47839 8.62454 10.0639ZM28.4388 41.2434C27.9952 41.8289 27.3298 42.2681 26.5905 42.3413C25.8511 42.4145 25.1118 42.2681 24.5203 41.8289C23.2634 40.8775 23.0416 39.1209 23.9289 37.8766C24.3725 37.2911 25.0379 36.9251 25.7772 36.7787C25.9251 36.7787 26.0729 36.7787 26.1469 36.7787C26.7383 36.7787 27.3298 36.9983 27.8473 37.3643C28.4388 37.8034 28.8085 38.4621 28.9564 39.1941C29.1042 39.926 28.8824 40.6579 28.4388 41.2434Z" fill="#82BD41"/>
</svg>
