<svg width="48" height="48" viewBox="0 0 48 48" fill="none" xmlns="http://www.w3.org/2000/svg">
<path d="M13.6299 24.7402C18.948 24.7404 23.2587 29.052 23.2588 34.3701C23.2588 39.6883 18.9481 43.9999 13.6299 44C8.31158 44 4 39.6884 4 34.3701C4.00011 29.0519 8.31165 24.7402 13.6299 24.7402ZM42.5186 24.7402C43.3332 24.7402 43.9997 25.4071 44 26.2217V42.5186C44 43.3333 43.3333 44 42.5186 44H26.2227C25.4079 44 24.7413 43.3333 24.7412 42.5186V24.7402H42.5186ZM21.7773 4C22.5921 4 23.2588 4.66665 23.2588 5.48145V23.2588H5.48145C4.66665 23.2588 4 22.5921 4 21.7773V5.48145C4.00002 4.66666 4.66666 4.00002 5.48145 4H21.7773ZM34.3711 4C39.6893 4.00015 44 8.31168 44 13.6299C43.9999 18.948 39.6892 23.2586 34.3711 23.2588C29.0529 23.2588 24.7413 18.9481 24.7412 13.6299C24.7412 8.31158 29.0528 4 34.3711 4Z" fill="#44ADC1"/>
</svg>
