<svg width="48" height="48" viewBox="0 0 48 48" fill="none" xmlns="http://www.w3.org/2000/svg">
<path d="M31.3955 3H9.12277C8.50267 3 8 3.49125 8 4.44449V44.2496C8 44.5083 8.50267 44.9996 9.12277 44.9996H39.8772C40.4973 44.9996 41 44.5083 41 44.2496V12.7334C41 12.2114 40.9286 12.0434 40.8028 11.9197L31.8728 3.19275C31.7462 3.06975 31.5743 3 31.3955 3Z" fill="#E9E9E0"/>
<path d="M31.791 3.11328V11.9999H40.8844L31.791 3.11328Z" fill="#D9D7CA"/>
<path d="M39.8772 44.9999H9.12277C8.50267 44.9999 8 44.5086 8 43.9026V32.25H41V43.9026C41 44.5086 40.4973 44.9999 39.8772 44.9999Z" fill="#F29C1F"/>
<path d="M17.8826 39.0788L19.8449 42.7501H18.3868L17.1589 39.8993H17.0538L15.7315 42.7501H14.2733L16.2357 39.0788L14.1475 35.1924H15.5849L16.9486 38.2689H17.0538L18.5334 35.1924H19.9708L17.8826 39.0788Z" fill="white"/>
<path d="M27.5677 35.1934H28.8478V42.7503H27.5677V37.5513L25.8364 41.755H24.7243L22.9822 37.5513V42.7503H21.7021V35.1934H22.9822L25.28 40.3616L27.5677 35.1934Z" fill="white"/>
<path d="M32.0682 35.1934V41.8173H35.6253V42.7503H30.7881V35.1934H32.0682Z" fill="white"/>
<path d="M14.9073 21.0001C14.7108 21.0001 14.5144 20.9266 14.3647 20.7804C14.0646 20.4871 14.0646 20.0131 14.3647 19.7199L18.9694 15.2199C19.2694 14.9267 19.7544 14.9267 20.0545 15.2199C20.3546 15.5132 20.3546 15.9872 20.0545 16.2804L15.4499 20.7804C15.3002 20.9266 15.1037 21.0001 14.9073 21.0001Z" fill="#F29C1F"/>
<path d="M19.5119 25.5001C19.3155 25.5001 19.119 25.4266 18.9694 25.2804L14.3647 20.7804C14.0646 20.4872 14.0646 20.0132 14.3647 19.7199C14.6648 19.4267 15.1498 19.4267 15.4499 19.7199L20.0545 24.2199C20.3546 24.5131 20.3546 24.9871 20.0545 25.2804C19.9049 25.4266 19.7084 25.5001 19.5119 25.5001Z" fill="#F29C1F"/>
<path d="M28.7208 25.5001C28.5243 25.5001 28.3278 25.4266 28.1782 25.2804C27.8781 24.9871 27.8781 24.5131 28.1782 24.2199L32.7828 19.7199C33.0829 19.4267 33.5679 19.4267 33.868 19.7199C34.1681 20.0132 34.1681 20.4872 33.868 20.7804L29.2633 25.2804C29.1137 25.4266 28.9172 25.5001 28.7208 25.5001Z" fill="#F29C1F"/>
<path d="M33.3254 21.0001C33.1289 21.0001 32.9325 20.9266 32.7828 20.7804L28.1782 16.2804C27.8781 15.9872 27.8781 15.5132 28.1782 15.2199C28.4782 14.9267 28.9633 14.9267 29.2633 15.2199L33.868 19.7199C34.1681 20.0131 34.1681 20.4871 33.868 20.7804C33.7183 20.9266 33.5219 21.0001 33.3254 21.0001Z" fill="#F29C1F"/>
<path d="M21.8146 27.0002C21.7302 27.0002 21.6435 26.986 21.5591 26.9567C21.1592 26.8187 20.9497 26.3905 21.0909 25.9997L25.6956 13.2499C25.8376 12.8591 26.2735 12.6536 26.6748 12.7924C27.0747 12.9304 27.2842 13.3586 27.143 13.7494L22.5383 26.4992C22.427 26.8082 22.1308 27.0002 21.8146 27.0002Z" fill="#F29C1F"/>
</svg>
