<svg width="64" height="64" viewBox="0 0 64 64" fill="none" xmlns="http://www.w3.org/2000/svg">
<path fill-rule="evenodd" clip-rule="evenodd" d="M41.5202 6.53069L35.5738 26.8105H47.0511C48.7049 26.8105 49.6126 28.7796 48.5283 30.0613L23.8249 59.3075C22.4695 60.9115 19.888 59.4913 20.4824 57.4694L26.4287 37.1895L14.9489 37.192C13.2951 37.192 12.3874 35.223 13.4717 33.9413L38.1751 4.69248C39.5305 3.08851 42.1121 4.50872 41.5202 6.53069ZM33.4695 27.4777L39.7641 5.92605L39.5651 5.89583L14.8292 35.2027L14.9486 35.3336H28.8808L22.2352 58.0758L22.4342 58.1035L47.1701 28.7967L47.0507 28.6658H33.1185L33.4695 27.4777Z" fill="white" stroke="white" stroke-width="0.8"/>
</svg>
