<svg width="64" height="64" viewBox="0 0 64 64" fill="none" xmlns="http://www.w3.org/2000/svg">
<mask id="path-1-outside-1_1_591" maskUnits="userSpaceOnUse" x="4" y="3" width="55" height="58" fill="black">
<rect fill="white" x="4" y="3" width="55" height="58"/>
<path d="M24.2612 33.6028H38.7274C39.2373 33.6028 39.6513 33.1899 39.6513 32.6813V27.9697C39.6513 27.4611 39.2373 27.0482 38.7274 27.0482H24.2612C23.7513 27.0482 23.3373 27.4611 23.3373 27.9697V32.6813C23.3373 33.1899 23.7513 33.6028 24.2612 33.6028ZM25.185 28.8913H37.8034V31.7571H25.185V28.8913ZM11.8592 30.6058V27.7127C11.8592 27.2041 12.2732 26.7912 12.7831 26.7912H15.6835C16.1934 26.7912 16.6073 27.2041 16.6073 27.7127C16.6073 28.2213 16.1934 28.6342 15.6835 28.6342H13.7069V30.6058C13.7069 31.1144 13.293 31.5273 12.7831 31.5273C12.2732 31.5273 11.8592 31.1144 11.8592 30.6058ZM24.2615 24.259H38.7277C39.2376 24.259 39.6516 23.8461 39.6516 23.3375V18.6232C39.6516 18.1146 39.2376 17.7017 38.7277 17.7017H24.2615C23.7516 17.7017 23.3376 18.1146 23.3376 18.6232V23.3375C23.3376 23.8461 23.7516 24.259 24.2615 24.259ZM25.1853 19.5475H37.8037V22.4187H25.1853V19.5475ZM11.8595 37.8799V34.9895C11.8595 34.4809 12.2734 34.068 12.7833 34.068H15.6838C16.1937 34.068 16.6076 34.4809 16.6076 34.9895C16.6076 35.4981 16.1937 35.911 15.6838 35.911H13.7072V37.8799C13.7072 38.3885 13.2932 38.8014 12.7833 38.8014C12.2734 38.8014 11.8595 38.3885 11.8595 37.8799ZM46.3819 27.7133C46.3819 27.2047 46.7958 26.7918 47.3057 26.7918H50.2034C50.7133 26.7918 51.1272 27.2047 51.1272 27.7133V30.6064C51.1272 31.115 50.7133 31.5279 50.2034 31.5279C49.6935 31.5279 49.2795 31.115 49.2795 30.6064V28.6348H47.3057C46.7958 28.6348 46.3819 28.2219 46.3819 27.7133ZM51.13 34.9901V37.8805C51.13 38.3891 50.716 38.802 50.2061 38.802C49.6962 38.802 49.2823 38.3891 49.2823 37.8805V35.9117H47.3085C46.7985 35.9117 46.3846 35.4988 46.3846 34.9901C46.3846 34.4815 46.7985 34.0686 47.3085 34.0686H50.2061C50.716 34.0686 51.13 34.4815 51.13 34.9901ZM57.0706 58.1569H55.4641V23.3822C55.4641 22.8736 55.0502 22.4607 54.5403 22.4607H43.8953V13.6445C43.8953 13.1359 43.4814 12.723 42.9715 12.723H40.2986V8.41348C40.2986 7.90487 39.8846 7.49196 39.3747 7.49196H32.4197V4.92152C32.4197 4.41291 32.0058 4 31.4959 4C30.986 4 30.572 4.41291 30.572 4.92152V7.49196H23.6143C23.1044 7.49196 22.6904 7.90487 22.6904 8.41348V12.723H20.023C19.5131 12.723 19.0991 13.1359 19.0991 13.6445V22.4607H8.4542C7.9443 22.4607 7.53035 22.8736 7.53035 23.3822V58.1569H5.92385C5.41395 58.1569 5 58.5699 5 59.0785C5 59.5871 5.41395 60 5.92385 60H57.0761C57.586 60 58 59.5871 58 59.0785C58 58.5699 57.586 58.1569 57.0761 58.1569H57.0706ZM53.6164 24.3042V58.1569H51.3465V53.7599C51.3465 51.1047 49.0465 48.9445 46.2173 48.9445H45.9377C47.2069 47.7659 47.8758 45.8053 47.8758 43.9185C47.8758 43.6696 47.8566 43.4263 47.821 43.1883H49.2822V45.1599C49.2822 45.6685 49.6961 46.0814 50.206 46.0814C50.7159 46.0814 51.1299 45.6685 51.1299 45.1599V42.2668C51.1299 41.7582 50.7159 41.3453 50.206 41.3453H47.3083C47.2563 41.3453 47.2069 41.3508 47.1576 41.359C46.4475 40.194 45.2687 39.3628 43.8953 39.144V24.3069H53.6167L53.6164 24.3042ZM43.1715 40.9271C44.745 40.9271 46.0253 42.2698 46.0253 43.9186C46.0253 45.6961 45.1398 48.1981 43.1715 48.1981C41.2031 48.1981 40.3122 45.6961 40.3122 43.9186C40.3122 42.2697 41.5951 40.9271 43.1715 40.9271ZM24.5379 9.33262H38.4504V12.7234H24.5379V9.33262ZM42.0444 14.5665V39.2236C39.991 39.7432 38.4613 41.6491 38.4613 43.9188C38.4613 45.4692 38.9109 47.0689 39.7772 48.2447C38.6724 47.572 37.3538 47.1783 35.9364 47.1783H34.8974C36.4217 45.7236 37.2221 43.3309 37.2221 41.0284C37.2221 37.7771 34.6507 35.1328 31.4898 35.1328C28.329 35.1328 25.7575 37.777 25.7575 41.0284C25.7575 43.3309 26.558 45.7262 28.0822 47.1783H27.0405C25.6259 47.1783 24.31 47.5693 23.2053 48.242C24.0688 47.0662 24.5184 45.4665 24.5184 43.9188C24.5184 41.6518 22.9887 39.7432 20.9353 39.2236L20.9436 14.5665H42.0444ZM27.6139 41.0283C27.6139 38.7942 29.3547 36.9758 31.4957 36.9758C33.6367 36.9758 35.3775 38.7942 35.3775 41.0283C35.3775 43.3882 34.1713 46.7133 31.4957 46.7133C28.8174 46.7133 27.6139 43.3882 27.6139 41.0283ZM19.8204 40.9272C21.3967 40.9272 22.6797 42.2698 22.6797 43.9187C22.6797 45.6961 21.7942 48.1982 19.8204 48.1982C17.8493 48.1982 16.9611 45.6961 16.9611 43.9187C16.9611 42.2697 18.2441 40.9272 19.8204 40.9272ZM9.37546 24.3042H19.0968V39.1414C17.7207 39.3601 16.5418 40.1941 15.8318 41.3563C15.7852 41.3481 15.7359 41.3427 15.6838 41.3427H12.7834C12.2735 41.3427 11.8595 41.7556 11.8595 42.2642V45.1573C11.8595 45.6659 12.2735 46.0788 12.7834 46.0788C13.2933 46.0788 13.7072 45.6659 13.7072 45.1573V43.1857H15.1684C15.1328 43.4236 15.1136 43.667 15.1136 43.9158C15.1136 45.8026 15.7797 47.7633 17.0517 48.9419H16.7748C13.9457 48.9419 11.6429 51.1021 11.6429 53.7573V58.1543H9.37574V24.3015L9.37546 24.3042ZM13.4931 53.7601C13.4931 52.1222 14.9652 50.7877 16.7773 50.7877H20.7606C20.2699 51.6874 19.9902 52.7019 19.9902 53.7792V58.1571H13.4903V53.7601H13.4931ZM38.1383 58.1571V54.8183C38.1383 54.3097 37.7243 53.8968 37.2144 53.8968C36.7045 53.8968 36.2906 54.3097 36.2906 54.8183V58.1571H26.7039V54.8183C26.7039 54.3097 26.29 53.8968 25.7801 53.8968C25.2702 53.8968 24.8562 54.3097 24.8562 54.8183V58.1571H21.8407V53.7792C21.8407 51.1568 24.1763 49.0212 27.0494 49.0212H35.9398C38.8156 49.0212 41.154 51.1568 41.154 53.7792V58.1571H38.1383ZM43.0016 58.1571V53.7792C43.0016 52.7018 42.7219 51.6873 42.2312 50.7877H46.2172C48.0265 50.7877 49.4987 52.1194 49.4987 53.7601V58.1571H43.0016Z"/>
</mask>
<path d="M24.2612 33.6028H38.7274C39.2373 33.6028 39.6513 33.1899 39.6513 32.6813V27.9697C39.6513 27.4611 39.2373 27.0482 38.7274 27.0482H24.2612C23.7513 27.0482 23.3373 27.4611 23.3373 27.9697V32.6813C23.3373 33.1899 23.7513 33.6028 24.2612 33.6028ZM25.185 28.8913H37.8034V31.7571H25.185V28.8913ZM11.8592 30.6058V27.7127C11.8592 27.2041 12.2732 26.7912 12.7831 26.7912H15.6835C16.1934 26.7912 16.6073 27.2041 16.6073 27.7127C16.6073 28.2213 16.1934 28.6342 15.6835 28.6342H13.7069V30.6058C13.7069 31.1144 13.293 31.5273 12.7831 31.5273C12.2732 31.5273 11.8592 31.1144 11.8592 30.6058ZM24.2615 24.259H38.7277C39.2376 24.259 39.6516 23.8461 39.6516 23.3375V18.6232C39.6516 18.1146 39.2376 17.7017 38.7277 17.7017H24.2615C23.7516 17.7017 23.3376 18.1146 23.3376 18.6232V23.3375C23.3376 23.8461 23.7516 24.259 24.2615 24.259ZM25.1853 19.5475H37.8037V22.4187H25.1853V19.5475ZM11.8595 37.8799V34.9895C11.8595 34.4809 12.2734 34.068 12.7833 34.068H15.6838C16.1937 34.068 16.6076 34.4809 16.6076 34.9895C16.6076 35.4981 16.1937 35.911 15.6838 35.911H13.7072V37.8799C13.7072 38.3885 13.2932 38.8014 12.7833 38.8014C12.2734 38.8014 11.8595 38.3885 11.8595 37.8799ZM46.3819 27.7133C46.3819 27.2047 46.7958 26.7918 47.3057 26.7918H50.2034C50.7133 26.7918 51.1272 27.2047 51.1272 27.7133V30.6064C51.1272 31.115 50.7133 31.5279 50.2034 31.5279C49.6935 31.5279 49.2795 31.115 49.2795 30.6064V28.6348H47.3057C46.7958 28.6348 46.3819 28.2219 46.3819 27.7133ZM51.13 34.9901V37.8805C51.13 38.3891 50.716 38.802 50.2061 38.802C49.6962 38.802 49.2823 38.3891 49.2823 37.8805V35.9117H47.3085C46.7985 35.9117 46.3846 35.4988 46.3846 34.9901C46.3846 34.4815 46.7985 34.0686 47.3085 34.0686H50.2061C50.716 34.0686 51.13 34.4815 51.13 34.9901ZM57.0706 58.1569H55.4641V23.3822C55.4641 22.8736 55.0502 22.4607 54.5403 22.4607H43.8953V13.6445C43.8953 13.1359 43.4814 12.723 42.9715 12.723H40.2986V8.41348C40.2986 7.90487 39.8846 7.49196 39.3747 7.49196H32.4197V4.92152C32.4197 4.41291 32.0058 4 31.4959 4C30.986 4 30.572 4.41291 30.572 4.92152V7.49196H23.6143C23.1044 7.49196 22.6904 7.90487 22.6904 8.41348V12.723H20.023C19.5131 12.723 19.0991 13.1359 19.0991 13.6445V22.4607H8.4542C7.9443 22.4607 7.53035 22.8736 7.53035 23.3822V58.1569H5.92385C5.41395 58.1569 5 58.5699 5 59.0785C5 59.5871 5.41395 60 5.92385 60H57.0761C57.586 60 58 59.5871 58 59.0785C58 58.5699 57.586 58.1569 57.0761 58.1569H57.0706ZM53.6164 24.3042V58.1569H51.3465V53.7599C51.3465 51.1047 49.0465 48.9445 46.2173 48.9445H45.9377C47.2069 47.7659 47.8758 45.8053 47.8758 43.9185C47.8758 43.6696 47.8566 43.4263 47.821 43.1883H49.2822V45.1599C49.2822 45.6685 49.6961 46.0814 50.206 46.0814C50.7159 46.0814 51.1299 45.6685 51.1299 45.1599V42.2668C51.1299 41.7582 50.7159 41.3453 50.206 41.3453H47.3083C47.2563 41.3453 47.2069 41.3508 47.1576 41.359C46.4475 40.194 45.2687 39.3628 43.8953 39.144V24.3069H53.6167L53.6164 24.3042ZM43.1715 40.9271C44.745 40.9271 46.0253 42.2698 46.0253 43.9186C46.0253 45.6961 45.1398 48.1981 43.1715 48.1981C41.2031 48.1981 40.3122 45.6961 40.3122 43.9186C40.3122 42.2697 41.5951 40.9271 43.1715 40.9271ZM24.5379 9.33262H38.4504V12.7234H24.5379V9.33262ZM42.0444 14.5665V39.2236C39.991 39.7432 38.4613 41.6491 38.4613 43.9188C38.4613 45.4692 38.9109 47.0689 39.7772 48.2447C38.6724 47.572 37.3538 47.1783 35.9364 47.1783H34.8974C36.4217 45.7236 37.2221 43.3309 37.2221 41.0284C37.2221 37.7771 34.6507 35.1328 31.4898 35.1328C28.329 35.1328 25.7575 37.777 25.7575 41.0284C25.7575 43.3309 26.558 45.7262 28.0822 47.1783H27.0405C25.6259 47.1783 24.31 47.5693 23.2053 48.242C24.0688 47.0662 24.5184 45.4665 24.5184 43.9188C24.5184 41.6518 22.9887 39.7432 20.9353 39.2236L20.9436 14.5665H42.0444ZM27.6139 41.0283C27.6139 38.7942 29.3547 36.9758 31.4957 36.9758C33.6367 36.9758 35.3775 38.7942 35.3775 41.0283C35.3775 43.3882 34.1713 46.7133 31.4957 46.7133C28.8174 46.7133 27.6139 43.3882 27.6139 41.0283ZM19.8204 40.9272C21.3967 40.9272 22.6797 42.2698 22.6797 43.9187C22.6797 45.6961 21.7942 48.1982 19.8204 48.1982C17.8493 48.1982 16.9611 45.6961 16.9611 43.9187C16.9611 42.2697 18.2441 40.9272 19.8204 40.9272ZM9.37546 24.3042H19.0968V39.1414C17.7207 39.3601 16.5418 40.1941 15.8318 41.3563C15.7852 41.3481 15.7359 41.3427 15.6838 41.3427H12.7834C12.2735 41.3427 11.8595 41.7556 11.8595 42.2642V45.1573C11.8595 45.6659 12.2735 46.0788 12.7834 46.0788C13.2933 46.0788 13.7072 45.6659 13.7072 45.1573V43.1857H15.1684C15.1328 43.4236 15.1136 43.667 15.1136 43.9158C15.1136 45.8026 15.7797 47.7633 17.0517 48.9419H16.7748C13.9457 48.9419 11.6429 51.1021 11.6429 53.7573V58.1543H9.37574V24.3015L9.37546 24.3042ZM13.4931 53.7601C13.4931 52.1222 14.9652 50.7877 16.7773 50.7877H20.7606C20.2699 51.6874 19.9902 52.7019 19.9902 53.7792V58.1571H13.4903V53.7601H13.4931ZM38.1383 58.1571V54.8183C38.1383 54.3097 37.7243 53.8968 37.2144 53.8968C36.7045 53.8968 36.2906 54.3097 36.2906 54.8183V58.1571H26.7039V54.8183C26.7039 54.3097 26.29 53.8968 25.7801 53.8968C25.2702 53.8968 24.8562 54.3097 24.8562 54.8183V58.1571H21.8407V53.7792C21.8407 51.1568 24.1763 49.0212 27.0494 49.0212H35.9398C38.8156 49.0212 41.154 51.1568 41.154 53.7792V58.1571H38.1383ZM43.0016 58.1571V53.7792C43.0016 52.7018 42.7219 51.6873 42.2312 50.7877H46.2172C48.0265 50.7877 49.4987 52.1194 49.4987 53.7601V58.1571H43.0016Z" fill="white"/>
<path d="M24.2612 33.6028H38.7274C39.2373 33.6028 39.6513 33.1899 39.6513 32.6813V27.9697C39.6513 27.4611 39.2373 27.0482 38.7274 27.0482H24.2612C23.7513 27.0482 23.3373 27.4611 23.3373 27.9697V32.6813C23.3373 33.1899 23.7513 33.6028 24.2612 33.6028ZM25.185 28.8913H37.8034V31.7571H25.185V28.8913ZM11.8592 30.6058V27.7127C11.8592 27.2041 12.2732 26.7912 12.7831 26.7912H15.6835C16.1934 26.7912 16.6073 27.2041 16.6073 27.7127C16.6073 28.2213 16.1934 28.6342 15.6835 28.6342H13.7069V30.6058C13.7069 31.1144 13.293 31.5273 12.7831 31.5273C12.2732 31.5273 11.8592 31.1144 11.8592 30.6058ZM24.2615 24.259H38.7277C39.2376 24.259 39.6516 23.8461 39.6516 23.3375V18.6232C39.6516 18.1146 39.2376 17.7017 38.7277 17.7017H24.2615C23.7516 17.7017 23.3376 18.1146 23.3376 18.6232V23.3375C23.3376 23.8461 23.7516 24.259 24.2615 24.259ZM25.1853 19.5475H37.8037V22.4187H25.1853V19.5475ZM11.8595 37.8799V34.9895C11.8595 34.4809 12.2734 34.068 12.7833 34.068H15.6838C16.1937 34.068 16.6076 34.4809 16.6076 34.9895C16.6076 35.4981 16.1937 35.911 15.6838 35.911H13.7072V37.8799C13.7072 38.3885 13.2932 38.8014 12.7833 38.8014C12.2734 38.8014 11.8595 38.3885 11.8595 37.8799ZM46.3819 27.7133C46.3819 27.2047 46.7958 26.7918 47.3057 26.7918H50.2034C50.7133 26.7918 51.1272 27.2047 51.1272 27.7133V30.6064C51.1272 31.115 50.7133 31.5279 50.2034 31.5279C49.6935 31.5279 49.2795 31.115 49.2795 30.6064V28.6348H47.3057C46.7958 28.6348 46.3819 28.2219 46.3819 27.7133ZM51.13 34.9901V37.8805C51.13 38.3891 50.716 38.802 50.2061 38.802C49.6962 38.802 49.2823 38.3891 49.2823 37.8805V35.9117H47.3085C46.7985 35.9117 46.3846 35.4988 46.3846 34.9901C46.3846 34.4815 46.7985 34.0686 47.3085 34.0686H50.2061C50.716 34.0686 51.13 34.4815 51.13 34.9901ZM57.0706 58.1569H55.4641V23.3822C55.4641 22.8736 55.0502 22.4607 54.5403 22.4607H43.8953V13.6445C43.8953 13.1359 43.4814 12.723 42.9715 12.723H40.2986V8.41348C40.2986 7.90487 39.8846 7.49196 39.3747 7.49196H32.4197V4.92152C32.4197 4.41291 32.0058 4 31.4959 4C30.986 4 30.572 4.41291 30.572 4.92152V7.49196H23.6143C23.1044 7.49196 22.6904 7.90487 22.6904 8.41348V12.723H20.023C19.5131 12.723 19.0991 13.1359 19.0991 13.6445V22.4607H8.4542C7.9443 22.4607 7.53035 22.8736 7.53035 23.3822V58.1569H5.92385C5.41395 58.1569 5 58.5699 5 59.0785C5 59.5871 5.41395 60 5.92385 60H57.0761C57.586 60 58 59.5871 58 59.0785C58 58.5699 57.586 58.1569 57.0761 58.1569H57.0706ZM53.6164 24.3042V58.1569H51.3465V53.7599C51.3465 51.1047 49.0465 48.9445 46.2173 48.9445H45.9377C47.2069 47.7659 47.8758 45.8053 47.8758 43.9185C47.8758 43.6696 47.8566 43.4263 47.821 43.1883H49.2822V45.1599C49.2822 45.6685 49.6961 46.0814 50.206 46.0814C50.7159 46.0814 51.1299 45.6685 51.1299 45.1599V42.2668C51.1299 41.7582 50.7159 41.3453 50.206 41.3453H47.3083C47.2563 41.3453 47.2069 41.3508 47.1576 41.359C46.4475 40.194 45.2687 39.3628 43.8953 39.144V24.3069H53.6167L53.6164 24.3042ZM43.1715 40.9271C44.745 40.9271 46.0253 42.2698 46.0253 43.9186C46.0253 45.6961 45.1398 48.1981 43.1715 48.1981C41.2031 48.1981 40.3122 45.6961 40.3122 43.9186C40.3122 42.2697 41.5951 40.9271 43.1715 40.9271ZM24.5379 9.33262H38.4504V12.7234H24.5379V9.33262ZM42.0444 14.5665V39.2236C39.991 39.7432 38.4613 41.6491 38.4613 43.9188C38.4613 45.4692 38.9109 47.0689 39.7772 48.2447C38.6724 47.572 37.3538 47.1783 35.9364 47.1783H34.8974C36.4217 45.7236 37.2221 43.3309 37.2221 41.0284C37.2221 37.7771 34.6507 35.1328 31.4898 35.1328C28.329 35.1328 25.7575 37.777 25.7575 41.0284C25.7575 43.3309 26.558 45.7262 28.0822 47.1783H27.0405C25.6259 47.1783 24.31 47.5693 23.2053 48.242C24.0688 47.0662 24.5184 45.4665 24.5184 43.9188C24.5184 41.6518 22.9887 39.7432 20.9353 39.2236L20.9436 14.5665H42.0444ZM27.6139 41.0283C27.6139 38.7942 29.3547 36.9758 31.4957 36.9758C33.6367 36.9758 35.3775 38.7942 35.3775 41.0283C35.3775 43.3882 34.1713 46.7133 31.4957 46.7133C28.8174 46.7133 27.6139 43.3882 27.6139 41.0283ZM19.8204 40.9272C21.3967 40.9272 22.6797 42.2698 22.6797 43.9187C22.6797 45.6961 21.7942 48.1982 19.8204 48.1982C17.8493 48.1982 16.9611 45.6961 16.9611 43.9187C16.9611 42.2697 18.2441 40.9272 19.8204 40.9272ZM9.37546 24.3042H19.0968V39.1414C17.7207 39.3601 16.5418 40.1941 15.8318 41.3563C15.7852 41.3481 15.7359 41.3427 15.6838 41.3427H12.7834C12.2735 41.3427 11.8595 41.7556 11.8595 42.2642V45.1573C11.8595 45.6659 12.2735 46.0788 12.7834 46.0788C13.2933 46.0788 13.7072 45.6659 13.7072 45.1573V43.1857H15.1684C15.1328 43.4236 15.1136 43.667 15.1136 43.9158C15.1136 45.8026 15.7797 47.7633 17.0517 48.9419H16.7748C13.9457 48.9419 11.6429 51.1021 11.6429 53.7573V58.1543H9.37574V24.3015L9.37546 24.3042ZM13.4931 53.7601C13.4931 52.1222 14.9652 50.7877 16.7773 50.7877H20.7606C20.2699 51.6874 19.9902 52.7019 19.9902 53.7792V58.1571H13.4903V53.7601H13.4931ZM38.1383 58.1571V54.8183C38.1383 54.3097 37.7243 53.8968 37.2144 53.8968C36.7045 53.8968 36.2906 54.3097 36.2906 54.8183V58.1571H26.7039V54.8183C26.7039 54.3097 26.29 53.8968 25.7801 53.8968C25.2702 53.8968 24.8562 54.3097 24.8562 54.8183V58.1571H21.8407V53.7792C21.8407 51.1568 24.1763 49.0212 27.0494 49.0212H35.9398C38.8156 49.0212 41.154 51.1568 41.154 53.7792V58.1571H38.1383ZM43.0016 58.1571V53.7792C43.0016 52.7018 42.7219 51.6873 42.2312 50.7877H46.2172C48.0265 50.7877 49.4987 52.1194 49.4987 53.7601V58.1571H43.0016Z" stroke="black" stroke-width="2" mask="url(#path-1-outside-1_1_591)"/>
</svg>
