<svg width="64" height="64" viewBox="0 0 64 64" fill="none" xmlns="http://www.w3.org/2000/svg">
<path d="M10.6828 20.6939L11.5255 20.8502C11.6644 21.3433 11.8575 21.8243 12.0976 22.2759L11.6103 23.0083C11.3396 23.4136 11.3867 23.9653 11.7257 24.3144L12.858 25.4887C13.1947 25.8379 13.7267 25.8891 14.1175 25.6084L14.8237 25.103C15.2569 25.352 15.7207 25.5522 16.1985 25.6963L16.3492 26.5703C16.434 27.0585 16.8436 27.4076 17.3192 27.4076H18.9224C19.3979 27.4076 19.8076 27.0512 19.8923 26.5703L20.043 25.6963C20.5185 25.5522 20.9823 25.352 21.4178 25.103L22.1241 25.6084C22.5149 25.8891 23.0469 25.8403 23.3835 25.4887L24.5159 24.3144C24.8525 23.9653 24.902 23.4136 24.6312 23.0083L24.1439 22.2759C24.384 21.8267 24.5771 21.3457 24.716 20.8502L25.5588 20.6939C26.0296 20.606 26.3733 20.1812 26.3733 19.6881V18.0255C26.3733 17.5323 26.0296 17.1075 25.5659 17.0196L24.7231 16.8633C24.5842 16.3702 24.3912 15.8892 24.151 15.4376L24.6383 14.7052C24.9091 14.2999 24.862 13.7482 24.523 13.3991L23.3906 12.2248C23.054 11.8757 22.5219 11.8244 22.1312 12.1051L21.4249 12.6105C20.9917 12.3615 20.5279 12.1613 20.0501 12.0173L19.8994 11.1433C19.8147 10.655 19.405 10.2985 18.9295 10.2985H17.3263C16.8507 10.2985 16.4411 10.655 16.3563 11.1359L16.2057 12.0099C15.7301 12.1539 15.2663 12.3541 14.8309 12.6031L14.1246 12.0978C13.7338 11.817 13.2018 11.8658 12.8651 12.2174L11.7328 13.3917C11.3961 13.7408 11.3467 14.2926 11.6174 14.6978L12.1047 15.4302C11.8646 15.8795 11.6716 16.3604 11.5327 16.856L10.6899 17.0122C10.219 17.1001 9.87532 17.5249 9.87532 18.0181V19.6807C9.86825 20.1812 10.212 20.6061 10.6828 20.6939ZM10.9723 18.1256L11.7916 17.9693C12.1659 17.901 12.4602 17.6202 12.5637 17.2369C12.6838 16.7804 12.8651 16.336 13.0887 15.9234C13.2747 15.5792 13.2582 15.1617 13.0416 14.837L12.5661 14.1241L13.5595 13.0939L14.2469 13.587C14.5601 13.8117 14.9579 13.8312 15.2946 13.6359C15.6924 13.4039 16.1209 13.216 16.5611 13.0915C16.9284 12.984 17.1991 12.6789 17.2674 12.2907L17.4181 11.4411H18.8282L18.9789 12.2907C19.0448 12.6789 19.3155 12.9841 19.6851 13.0915C20.1254 13.216 20.5538 13.4039 20.9517 13.6359C21.2836 13.8287 21.6862 13.8117 21.9993 13.587L22.6867 13.0939L23.6802 14.1241L23.2046 14.837C22.988 15.1617 22.9692 15.5743 23.1575 15.9234C23.3812 16.336 23.5625 16.7803 23.6825 17.2369C23.7861 17.6178 24.0804 17.8985 24.4547 17.9693L25.2739 18.1256V19.5879L24.4547 19.7442C24.0804 19.8126 23.7861 20.0933 23.6825 20.4766C23.5625 20.9332 23.3812 21.3775 23.1575 21.7901C22.9716 22.1343 22.988 22.5518 23.2046 22.8765L23.6802 23.5894L22.6867 24.6196L21.9993 24.1265C21.6862 23.9019 21.2813 23.8823 20.9517 24.0777C20.5538 24.3096 20.1254 24.4976 19.6851 24.6221C19.3179 24.7295 19.0471 25.0347 18.9789 25.4228L18.8282 26.2724H17.4181L17.2674 25.4228C17.2015 25.0346 16.9308 24.7294 16.5611 24.6221C16.1209 24.4976 15.6924 24.3096 15.2946 24.0777C14.9626 23.8848 14.56 23.9019 14.2469 24.1265L13.5595 24.6196L12.5661 23.5894L13.0416 22.8765C13.2582 22.5518 13.2771 22.1392 13.0887 21.7901C12.8651 21.3775 12.6838 20.9332 12.5637 20.4766C12.4602 20.0958 12.1659 19.815 11.7916 19.7442L10.9723 19.5879V18.1256ZM18.1194 22.774C20.2052 22.774 21.8978 21.0186 21.8978 18.8556C21.8978 16.6925 20.2052 14.9372 18.1194 14.9372C16.0336 14.9372 14.341 16.6925 14.341 18.8556C14.341 21.0186 16.0336 22.774 18.1194 22.774ZM18.1194 16.0822C19.5955 16.0822 20.7961 17.3248 20.7961 18.858C20.7961 20.3887 19.5978 21.6339 18.1194 21.6339C16.6433 21.6339 15.4427 20.3912 15.4427 18.858C15.4427 17.3248 16.6433 16.0822 18.1194 16.0822ZM56.8036 32.5688H53.8868L52.2224 5.2573C52.18 4.55174 51.6009 4 50.9017 4H45.8826C45.1905 4 44.6043 4.54931 44.5619 5.2573L42.8975 32.5688H38.5399L37.2192 10.9429C37.1768 10.2934 36.6471 9.78562 36.0068 9.78562H32.638C32 9.78562 31.468 10.291 31.4256 10.9429L30.1049 32.5688H7.20589C5.9888 32.5688 5 33.5942 5 34.8564V59.4312C5 59.751 5.24719 60 5.54853 60H58.4515C58.7599 60 59 59.7436 59 59.4312L58.9976 34.8564C59.0047 33.5992 58.0159 32.5688 56.8036 32.5688ZM45.885 5.1373H50.9041C51.0194 5.1373 51.116 5.22519 51.1207 5.32528L51.2172 6.93658H45.5648L45.6613 5.32528C45.6731 5.22519 45.7696 5.1373 45.885 5.1373ZM45.4989 8.08158H51.2902L52.7781 32.5688H44.0038L45.4989 8.08158ZM32.6428 10.9307H36.0116C36.0657 10.9307 36.1199 10.9673 36.1199 11.0186L36.1975 12.3174H32.4497L32.5274 11.0186C32.5415 10.9697 32.5886 10.9307 32.6428 10.9307ZM32.3838 13.4624H36.2705L37.4335 32.5684H31.2206L32.3838 13.4624ZM24.4527 58.8625H11.1777V49.4632C11.1777 49.1507 11.4249 48.8944 11.7262 48.8944H23.8995C24.2008 48.8944 24.448 49.1507 24.448 49.4632V58.8625H24.4527ZM57.9081 58.8625H25.5568V49.4632C25.5568 48.5184 24.8152 47.7518 23.9065 47.7518H11.7331C10.8221 47.7518 10.0828 48.5208 10.0828 49.4632V58.8625H6.10192V34.864C6.10192 34.2317 6.59629 33.7215 7.20366 33.7215H56.7967C57.4065 33.7215 57.8985 34.2341 57.8985 34.864L57.9008 58.8625H57.9081ZM14.7678 38.1133H11.3918C10.6621 38.1133 10.0712 38.7261 10.0712 39.483V42.9839C10.0712 43.7407 10.6621 44.3535 11.3918 44.3535H14.7678C15.4975 44.3535 16.0885 43.7407 16.0885 42.9839V39.483C16.0955 38.731 15.4976 38.1133 14.7678 38.1133ZM14.9914 42.9815C14.9914 43.106 14.8949 43.2134 14.7678 43.2134H11.3918C11.2718 43.2134 11.1682 43.1133 11.1682 42.9815V39.4805C11.1682 39.356 11.2647 39.2486 11.3918 39.2486H14.7678C14.8878 39.2486 14.9914 39.3487 14.9914 39.4805V42.9815ZM24.2315 38.1133H20.8556C20.1259 38.1133 19.5349 38.7261 19.5349 39.483V42.9839C19.5349 43.7407 20.1258 44.3535 20.8556 44.3535H24.2315C24.9613 44.3535 25.5522 43.7407 25.5522 42.9839V39.483C25.5569 38.731 24.959 38.1133 24.2315 38.1133ZM24.4528 42.9815C24.4528 43.106 24.3563 43.2134 24.2292 43.2134H20.8533C20.7332 43.2134 20.6296 43.1133 20.6296 42.9815V39.4805C20.6296 39.356 20.7262 39.2486 20.8533 39.2486H24.2292C24.3493 39.2486 24.4528 39.3487 24.4528 39.4805V42.9815ZM33.693 38.1133H30.3171C29.5873 38.1133 28.9964 38.7261 28.9964 39.483V42.9839C28.9964 43.7407 29.5873 44.3535 30.3171 44.3535H33.693C34.4227 44.3535 35.0137 43.7407 35.0137 42.9839V39.483C35.0113 38.731 34.4228 38.1133 33.693 38.1133ZM33.9096 42.9815C33.9096 43.106 33.813 43.2134 33.6859 43.2134H30.31C30.1899 43.2134 30.0863 43.1133 30.0863 42.9815V39.4805C30.0863 39.356 30.1829 39.2486 30.31 39.2486H33.6859C33.806 39.2486 33.9096 39.3487 33.9096 39.4805V42.9815ZM43.1545 38.1133H39.7786C39.0488 38.1133 38.4579 38.7261 38.4579 39.483V42.9839C38.4579 43.7407 39.0488 44.3535 39.7786 44.3535H43.1545C43.8843 44.3535 44.4752 43.7407 44.4752 42.9839V39.483C44.4752 38.731 43.8843 38.1133 43.1545 38.1133ZM43.3711 42.9815C43.3711 43.106 43.2746 43.2134 43.1475 43.2134H39.7715C39.6515 43.2134 39.5479 43.1133 39.5479 42.9815V39.4805C39.5479 39.356 39.6444 39.2486 39.7715 39.2486H43.1475C43.2675 39.2486 43.3711 39.3487 43.3711 39.4805V42.9815ZM52.6112 38.1133H49.2353C48.5055 38.1133 47.9146 38.7261 47.9146 39.483V42.9839C47.9146 43.7407 48.5055 44.3535 49.2353 44.3535H52.6112C53.341 44.3535 53.9319 43.7407 53.9319 42.9839V39.483C53.9366 38.731 53.3387 38.1133 52.6112 38.1133ZM52.8325 42.9815C52.8325 43.106 52.736 43.2134 52.6089 43.2134H49.233C49.1129 43.2134 49.0093 43.1133 49.0093 42.9815V39.4805C49.0093 39.356 49.1058 39.2486 49.233 39.2486H52.6089C52.7289 39.2486 52.8325 39.3487 52.8325 39.4805V42.9815ZM33.6929 47.0757H30.317C29.5872 47.0757 28.9963 47.6885 28.9963 48.4453V51.9462C28.9963 52.703 29.5872 53.3159 30.317 53.3159H33.6929C34.4227 53.3159 35.0136 52.7031 35.0136 51.9462V48.4453C35.0113 47.6934 34.4227 47.0757 33.6929 47.0757ZM33.9095 51.9438C33.9095 52.0683 33.813 52.1757 33.6859 52.1757H30.31C30.1899 52.1757 30.0863 52.0756 30.0863 51.9438V48.4428C30.0863 48.3183 30.1828 48.2109 30.31 48.2109H33.6859C33.8059 48.2109 33.9095 48.311 33.9095 48.4428V51.9438ZM43.1545 47.0757H39.7786C39.0488 47.0757 38.4579 47.6885 38.4579 48.4453V51.9462C38.4579 52.703 39.0488 53.3159 39.7786 53.3159H43.1545C43.8843 53.3159 44.4752 52.7031 44.4752 51.9462V48.4453C44.4752 47.6934 43.8843 47.0757 43.1545 47.0757ZM43.3711 51.9438C43.3711 52.0683 43.2745 52.1757 43.1474 52.1757H39.7715C39.6514 52.1757 39.5479 52.0756 39.5479 51.9438V48.4428C39.5479 48.3183 39.6444 48.2109 39.7715 48.2109H43.1474C43.2675 48.2109 43.3711 48.311 43.3711 48.4428V51.9438ZM52.6112 47.0757H49.2353C48.5055 47.0757 47.9146 47.6885 47.9146 48.4453V51.9462C47.9146 52.703 48.5055 53.3159 49.2353 53.3159H52.6112C53.341 53.3159 53.9319 52.7031 53.9319 51.9462V48.4453C53.9366 47.6934 53.3386 47.0757 52.6112 47.0757ZM52.8325 51.9438C52.8325 52.0683 52.736 52.1757 52.6088 52.1757H49.2329C49.1129 52.1757 49.0093 52.0756 49.0093 51.9438V48.4428C49.0093 48.3183 49.1058 48.2109 49.2329 48.2109H52.6088C52.7289 48.2109 52.8325 48.311 52.8325 48.4428V51.9438Z" fill="white" stroke="white" stroke-width="0.8"/>
</svg>
