<svg width="64" height="64" viewBox="0 0 64 64" fill="none" xmlns="http://www.w3.org/2000/svg">
<mask id="path-1-outside-1_1_584" maskUnits="userSpaceOnUse" x="7" y="5" width="50" height="54" fill="black">
<rect fill="white" x="7" y="5" width="50" height="54"/>
<path d="M37.4195 12.5291C37.2453 12.3384 37.1549 12.087 37.166 11.8266C37.177 11.5663 37.285 11.3239 37.4746 11.1466C38.2462 10.4217 39.1942 10.0558 40.2986 10.0558C40.6359 10.0558 40.9931 10.0917 41.3568 10.1591C43.2506 10.5159 44.6946 12.0129 45.0318 13.9722C45.1244 14.5042 44.7739 15.0114 44.2514 15.1057C44.1963 15.1147 44.139 15.1214 44.0839 15.1214C43.6165 15.1214 43.2197 14.7825 43.1381 14.3134C42.9397 13.1666 42.102 12.2913 41.0041 12.0848C40.7484 12.0377 40.5081 12.013 40.2899 12.013C39.6814 12.013 39.1854 12.2015 38.7753 12.5875C38.5967 12.7559 38.3653 12.8479 38.125 12.8479C37.8582 12.8479 37.6003 12.7334 37.4195 12.5337L37.4195 12.5291ZM26.7252 22.862C26.0815 22.3772 25.7133 21.6994 25.7133 21.0036C25.7133 20.3662 26.0154 19.7535 26.5621 19.28C26.7561 19.1094 26.8751 18.8737 26.895 18.6134C26.9148 18.353 26.8354 18.0994 26.6679 17.9019C26.4849 17.6842 26.2182 17.5585 25.9382 17.5585C25.7089 17.5585 25.4884 17.6415 25.3143 17.7919C24.3332 18.6448 23.7931 19.7849 23.7931 21.0036C23.7931 22.3255 24.4456 23.5756 25.5854 24.433C25.753 24.5587 25.9492 24.6238 26.1564 24.6238C26.4606 24.6238 26.7494 24.4756 26.928 24.2265C27.0801 24.0155 27.1441 23.7597 27.1066 23.4993C27.0691 23.2412 26.9346 23.0123 26.7274 22.8575L26.7252 22.862ZM53.5813 38.0855C54.1237 38.954 54.3022 39.9865 54.084 40.9942C53.8657 42.0019 53.2749 42.8615 52.4217 43.4136L37.5365 53.0713C36.7891 53.5561 35.9338 53.812 35.0608 53.812C34.7257 53.812 34.3906 53.7738 34.0621 53.6998L23.4847 51.314C23.2113 51.2647 23.0261 51.2377 22.8784 51.2377C22.6778 51.2377 22.5456 51.2871 22.2854 51.4532L21.4851 51.9739L22.0054 52.8043C22.3427 53.3407 22.4529 53.9804 22.3163 54.6065C22.1796 55.2304 21.8158 55.7646 21.2867 56.1058L18.9455 57.6252C18.5685 57.8698 18.132 58 17.6867 58C16.8776 58 16.1369 57.587 15.7026 56.8958L8.36802 45.1799C8.03072 44.6435 7.92049 44.0039 8.05718 43.3777C8.19386 42.7538 8.55762 42.2196 9.0867 41.8785L11.4279 40.3591C11.8049 40.1144 12.2392 39.9842 12.6824 39.9842C12.8543 39.9842 13.0263 40.0044 13.196 40.0426C13.8089 40.1817 14.3336 40.5521 14.6687 41.0907L15.189 41.9211L22.0912 37.4436C22.6931 37.0531 23.4492 36.8376 24.2186 36.8376C24.5669 36.8376 24.902 36.8825 25.2085 36.9678L35.8192 39.3603C36.7142 39.5623 37.4814 40.1099 37.9752 40.8999C38.4294 41.6248 38.6035 42.4732 38.4779 43.3104L48.3476 36.9069C48.956 36.5119 49.6549 36.3032 50.3713 36.3032C50.6491 36.3032 50.9291 36.3346 51.2025 36.3974C52.1923 36.6219 53.0367 37.2211 53.579 38.0874L53.5813 38.0855ZM36.3568 41.9481C36.1363 41.5979 35.799 41.3556 35.4044 41.2658L24.7717 38.8688C24.754 38.8643 24.7342 38.8598 24.7166 38.8553C24.5644 38.8104 24.3947 38.788 24.2161 38.788C23.8215 38.788 23.4136 38.9002 23.1227 39.0887L16.2204 43.5663L20.451 50.3242L21.2513 49.8035C21.8068 49.4422 22.3051 49.2806 22.8672 49.2806C23.1648 49.2806 23.4691 49.3255 23.835 49.3905L23.8747 49.3995L34.4764 51.7898C34.6682 51.8324 34.8622 51.8549 35.0561 51.8549C35.5654 51.8549 36.0659 51.7045 36.5023 51.4217L51.3876 41.764C52.2562 41.2006 52.5141 40.0201 51.9586 39.1358C51.6918 38.7094 51.2752 38.4154 50.7858 38.3032C50.6491 38.2718 50.5102 38.2561 50.3735 38.2561C50.0208 38.2561 49.6768 38.3593 49.377 38.5523L38.4576 45.6378C37.5383 46.2348 36.985 46.5175 36.3192 46.5175C36.1163 46.5175 35.8937 46.4906 35.6424 46.4345L34.3681 46.1517L26.3767 44.3741C26.1253 44.318 25.9115 44.1676 25.7726 43.9477C25.6337 43.7277 25.5874 43.4674 25.6425 43.2116C25.7373 42.7649 26.132 42.4418 26.5795 42.4418C26.6479 42.4418 26.7184 42.4485 26.7845 42.4642L34.7805 44.2418C34.893 44.2665 35.0076 44.2799 35.12 44.2799C35.8189 44.2799 36.4097 43.8019 36.5596 43.1151C36.6478 42.7134 36.5751 42.2982 36.3546 41.9481L36.3568 41.9481ZM12.783 41.9503C12.7522 41.9436 12.7191 41.9391 12.6882 41.9391C12.6089 41.9391 12.5295 41.9615 12.4612 42.0064L10.1199 43.5258C10.0252 43.5864 9.95901 43.6852 9.93477 43.7996C9.91052 43.9141 9.93036 44.0308 9.98988 44.1273L17.3244 55.8431C17.4016 55.9666 17.5405 56.0429 17.6904 56.0429C17.772 56.0429 17.8491 56.0204 17.9153 55.9778L20.2565 54.4584C20.3513 54.3978 20.4174 54.299 20.4417 54.1846C20.4659 54.0701 20.4461 53.9534 20.3866 53.8569L13.052 42.1411C12.9925 42.0446 12.8955 41.9772 12.7831 41.9526L12.783 41.9503ZM19.9393 21.0755C19.9393 17.1523 22.9287 13.963 26.7625 13.7722C27.5495 11.3843 29.7298 9.78849 32.2166 9.78849C32.9507 9.78849 33.6672 9.92765 34.344 10.2015C35.6226 7.64513 38.2505 6 41.0792 6C44.9791 6 48.2619 9.06578 48.6056 13.0044C52.6951 13.092 56 16.5146 56 20.696C56 23.7933 54.2077 26.5583 51.4233 27.7683V28.2261C51.4233 29.0723 50.8237 29.7591 49.8956 29.9723L48.6875 30.2528C48.5861 30.5424 48.4714 30.8296 48.3391 31.1057L48.9983 32.1718C49.5054 32.991 49.4525 33.9067 48.8638 34.5059L47.7329 35.6573C47.4199 35.976 47.0142 36.1443 46.5645 36.1443C46.1875 36.1443 45.7995 36.0231 45.4402 35.792L44.393 35.1209C44.1196 35.2533 43.8396 35.3722 43.5552 35.4755L43.2818 36.7031C43.0702 37.648 42.3978 38.2585 41.5667 38.2585H39.9684C39.1372 38.2585 38.4626 37.648 38.2532 36.7031L37.9776 35.4732C37.6932 35.3722 37.4133 35.2533 37.1399 35.1186L36.0927 35.7897C35.7333 36.0209 35.3453 36.1421 34.9683 36.1421C34.5186 36.1421 34.113 35.9738 33.7999 35.6551L32.669 34.5037C32.0804 33.9044 32.0297 32.9888 32.5345 32.1696L33.1937 31.1035C33.0636 30.8252 32.9468 30.5401 32.8454 30.2506L31.6395 29.9723C30.7753 29.7725 30.1933 29.1598 30.1205 28.39H27.1223C23.1607 28.39 19.9396 25.1088 19.9396 21.0776L19.9393 21.0755ZM35.7371 11.8624C35.6423 12.1519 35.424 12.3741 35.1419 12.4729C35.0404 12.5088 34.9346 12.5268 34.8266 12.5268C34.6414 12.5268 34.4584 12.4729 34.3041 12.3696C33.6824 11.9589 32.9615 11.7412 32.2186 11.7412C30.369 11.7412 28.7839 13.0811 28.4488 14.9282C28.365 15.3905 27.9682 15.7272 27.5052 15.7272C27.4854 15.7272 27.4655 15.7272 27.4457 15.7249C27.3333 15.7182 27.2274 15.7137 27.1238 15.7137C24.2226 15.7137 21.8615 18.1174 21.8615 21.071C21.8615 24.0246 24.2226 26.4283 27.1238 26.4283H30.122C30.1948 25.6585 30.7768 25.0458 31.641 24.846L32.8469 24.5655C32.9483 24.276 33.0629 23.9887 33.1952 23.7126L32.536 22.6465C32.029 21.8273 32.0819 20.9116 32.6705 20.3124L33.8014 19.161C34.1145 18.8423 34.5179 18.674 34.9698 18.674C35.3468 18.674 35.7348 18.7952 36.0942 19.0264L37.1414 19.6974C37.4147 19.565 37.6947 19.4461 37.9791 19.3428L38.2547 18.1129C38.4663 17.1681 39.1387 16.5576 39.9699 16.5576H41.5682C42.3993 16.5576 43.0739 17.1681 43.2833 18.1129L43.5589 19.3428C43.8433 19.4461 44.1255 19.5628 44.3967 19.6974L45.4439 19.0264C45.8032 18.7952 46.1912 18.674 46.5682 18.674C47.0179 18.674 47.4235 18.8423 47.7366 19.161L48.8675 20.3124C49.4562 20.9116 49.5069 21.8273 49.002 22.6465L48.3428 23.7126C48.4729 23.9909 48.5897 24.276 48.6912 24.5655L49.8971 24.8438C50.4636 24.974 50.9134 25.2815 51.1757 25.7101C52.9702 24.7024 54.0791 22.7925 54.0791 20.6895C54.0791 17.5249 51.5504 14.9528 48.4442 14.9528C48.2259 14.9528 48.0011 14.9663 47.7784 14.9932C47.7409 14.9977 47.7034 15 47.666 15C47.4213 15 47.1898 14.9057 47.009 14.7374C46.8018 14.5399 46.6915 14.2616 46.7048 13.9743C46.7092 13.8778 46.7114 13.7813 46.7114 13.687C46.7114 10.5225 44.1827 7.95041 41.0765 7.95041C38.6536 7.95041 36.5064 9.52148 35.7348 11.8579L35.7371 11.8624ZM47.7254 28.4683L49.4692 28.0643C49.4803 28.0621 49.4913 28.0598 49.5023 28.0553V26.7626C49.4935 26.7603 49.4825 26.7581 49.4692 26.7536L47.7254 26.3496C47.3793 26.2688 47.1059 26.004 47.0134 25.6561C46.8723 25.1332 46.6651 24.6259 46.4005 24.1524C46.2242 23.8382 46.233 23.4544 46.4226 23.1469L47.3749 21.605C47.3816 21.5938 47.386 21.5848 47.3926 21.5759L46.4953 20.6624C46.4865 20.6669 46.4777 20.6736 46.4667 20.6804L44.9521 21.6522C44.7978 21.7509 44.6215 21.8026 44.4407 21.8026C44.2753 21.8026 44.11 21.7577 43.9667 21.6746C43.5015 21.4053 43.0055 21.1943 42.4918 21.0507C42.1501 20.9542 41.8878 20.6759 41.8106 20.3258L41.4138 18.5482C41.4116 18.537 41.4094 18.5258 41.405 18.5146H40.1352C40.133 18.5235 40.1286 18.5348 40.1264 18.5482L39.7295 20.3235C39.6502 20.6759 39.39 20.9542 39.0483 21.0484C38.5347 21.1921 38.0386 21.403 37.5735 21.6723C37.428 21.7554 37.2648 21.8003 37.0995 21.8003C36.9187 21.8003 36.7423 21.7486 36.588 21.6499L35.0735 20.6781C35.0625 20.6713 35.0536 20.6669 35.0448 20.6601L34.1476 21.5736C34.152 21.5825 34.1586 21.5915 34.1652 21.6027L35.1198 23.1446C35.3094 23.4499 35.3182 23.8359 35.1418 24.1501C34.8773 24.6237 34.6723 25.1286 34.529 25.6538C34.4342 26.0017 34.1608 26.2688 33.8169 26.3473L32.0731 26.7513C32.0621 26.7536 32.0511 26.7558 32.0401 26.7603V28.053C32.0489 28.0553 32.0599 28.0575 32.0731 28.062L33.8169 28.466C34.163 28.5468 34.4364 28.8116 34.529 29.1595C34.6701 29.6824 34.8773 30.1897 35.1418 30.6632C35.3182 30.9774 35.3094 31.3612 35.1198 31.6687L34.1674 33.2106C34.1608 33.2218 34.1564 33.2308 34.1498 33.2398L35.047 34.1532C35.0558 34.1487 35.0647 34.142 35.0757 34.1352L36.5902 33.1634C36.7445 33.0647 36.9209 33.0131 37.1017 33.0131C37.267 33.0131 37.4324 33.058 37.5757 33.141C38.0408 33.4103 38.5368 33.6213 39.0505 33.7649C39.3922 33.8614 39.6546 34.1397 39.7317 34.4898L40.1285 36.2674C40.1307 36.2786 40.133 36.2898 40.1374 36.3011H41.4072C41.4094 36.2921 41.4138 36.2809 41.416 36.2696L41.8128 34.4944C41.8922 34.142 42.1523 33.8637 42.494 33.7695C43.0099 33.6258 43.5059 33.4148 43.9711 33.1455C44.1166 33.0625 44.2797 33.0176 44.4451 33.0176C44.6259 33.0176 44.8022 33.0692 44.9565 33.168L46.4711 34.1375C46.4821 34.1443 46.4909 34.1488 46.4997 34.1555L47.397 33.2421C47.3926 33.2331 47.386 33.2241 47.3793 33.2129L46.4248 31.671C46.2352 31.3658 46.2264 30.9798 46.4027 30.6678C46.6673 30.1942 46.8745 29.6892 47.0156 29.1663C47.1104 28.8184 47.3837 28.5513 47.7276 28.4728L47.7254 28.4683ZM45.0469 27.4089C45.0469 29.8104 43.1267 31.7652 40.7678 31.7652C38.4089 31.7652 36.4888 29.8104 36.4888 27.4089C36.4888 25.0074 38.4089 23.0526 40.7678 23.0526C43.1267 23.0526 45.0469 25.0074 45.0469 27.4089ZM40.7678 25.0074C39.4671 25.0074 38.4089 26.0847 38.4089 27.4089C38.4089 28.7331 39.4671 29.8104 40.7678 29.8104C42.0685 29.8104 43.1267 28.7331 43.1267 27.4089C43.1267 26.0847 42.0685 25.0074 40.7678 25.0074Z"/>
</mask>
<path d="M37.4195 12.5291C37.2453 12.3384 37.1549 12.087 37.166 11.8266C37.177 11.5663 37.285 11.3239 37.4746 11.1466C38.2462 10.4217 39.1942 10.0558 40.2986 10.0558C40.6359 10.0558 40.9931 10.0917 41.3568 10.1591C43.2506 10.5159 44.6946 12.0129 45.0318 13.9722C45.1244 14.5042 44.7739 15.0114 44.2514 15.1057C44.1963 15.1147 44.139 15.1214 44.0839 15.1214C43.6165 15.1214 43.2197 14.7825 43.1381 14.3134C42.9397 13.1666 42.102 12.2913 41.0041 12.0848C40.7484 12.0377 40.5081 12.013 40.2899 12.013C39.6814 12.013 39.1854 12.2015 38.7753 12.5875C38.5967 12.7559 38.3653 12.8479 38.125 12.8479C37.8582 12.8479 37.6003 12.7334 37.4195 12.5337L37.4195 12.5291ZM26.7252 22.862C26.0815 22.3772 25.7133 21.6994 25.7133 21.0036C25.7133 20.3662 26.0154 19.7535 26.5621 19.28C26.7561 19.1094 26.8751 18.8737 26.895 18.6134C26.9148 18.353 26.8354 18.0994 26.6679 17.9019C26.4849 17.6842 26.2182 17.5585 25.9382 17.5585C25.7089 17.5585 25.4884 17.6415 25.3143 17.7919C24.3332 18.6448 23.7931 19.7849 23.7931 21.0036C23.7931 22.3255 24.4456 23.5756 25.5854 24.433C25.753 24.5587 25.9492 24.6238 26.1564 24.6238C26.4606 24.6238 26.7494 24.4756 26.928 24.2265C27.0801 24.0155 27.1441 23.7597 27.1066 23.4993C27.0691 23.2412 26.9346 23.0123 26.7274 22.8575L26.7252 22.862ZM53.5813 38.0855C54.1237 38.954 54.3022 39.9865 54.084 40.9942C53.8657 42.0019 53.2749 42.8615 52.4217 43.4136L37.5365 53.0713C36.7891 53.5561 35.9338 53.812 35.0608 53.812C34.7257 53.812 34.3906 53.7738 34.0621 53.6998L23.4847 51.314C23.2113 51.2647 23.0261 51.2377 22.8784 51.2377C22.6778 51.2377 22.5456 51.2871 22.2854 51.4532L21.4851 51.9739L22.0054 52.8043C22.3427 53.3407 22.4529 53.9804 22.3163 54.6065C22.1796 55.2304 21.8158 55.7646 21.2867 56.1058L18.9455 57.6252C18.5685 57.8698 18.132 58 17.6867 58C16.8776 58 16.1369 57.587 15.7026 56.8958L8.36802 45.1799C8.03072 44.6435 7.92049 44.0039 8.05718 43.3777C8.19386 42.7538 8.55762 42.2196 9.0867 41.8785L11.4279 40.3591C11.8049 40.1144 12.2392 39.9842 12.6824 39.9842C12.8543 39.9842 13.0263 40.0044 13.196 40.0426C13.8089 40.1817 14.3336 40.5521 14.6687 41.0907L15.189 41.9211L22.0912 37.4436C22.6931 37.0531 23.4492 36.8376 24.2186 36.8376C24.5669 36.8376 24.902 36.8825 25.2085 36.9678L35.8192 39.3603C36.7142 39.5623 37.4814 40.1099 37.9752 40.8999C38.4294 41.6248 38.6035 42.4732 38.4779 43.3104L48.3476 36.9069C48.956 36.5119 49.6549 36.3032 50.3713 36.3032C50.6491 36.3032 50.9291 36.3346 51.2025 36.3974C52.1923 36.6219 53.0367 37.2211 53.579 38.0874L53.5813 38.0855ZM36.3568 41.9481C36.1363 41.5979 35.799 41.3556 35.4044 41.2658L24.7717 38.8688C24.754 38.8643 24.7342 38.8598 24.7166 38.8553C24.5644 38.8104 24.3947 38.788 24.2161 38.788C23.8215 38.788 23.4136 38.9002 23.1227 39.0887L16.2204 43.5663L20.451 50.3242L21.2513 49.8035C21.8068 49.4422 22.3051 49.2806 22.8672 49.2806C23.1648 49.2806 23.4691 49.3255 23.835 49.3905L23.8747 49.3995L34.4764 51.7898C34.6682 51.8324 34.8622 51.8549 35.0561 51.8549C35.5654 51.8549 36.0659 51.7045 36.5023 51.4217L51.3876 41.764C52.2562 41.2006 52.5141 40.0201 51.9586 39.1358C51.6918 38.7094 51.2752 38.4154 50.7858 38.3032C50.6491 38.2718 50.5102 38.2561 50.3735 38.2561C50.0208 38.2561 49.6768 38.3593 49.377 38.5523L38.4576 45.6378C37.5383 46.2348 36.985 46.5175 36.3192 46.5175C36.1163 46.5175 35.8937 46.4906 35.6424 46.4345L34.3681 46.1517L26.3767 44.3741C26.1253 44.318 25.9115 44.1676 25.7726 43.9477C25.6337 43.7277 25.5874 43.4674 25.6425 43.2116C25.7373 42.7649 26.132 42.4418 26.5795 42.4418C26.6479 42.4418 26.7184 42.4485 26.7845 42.4642L34.7805 44.2418C34.893 44.2665 35.0076 44.2799 35.12 44.2799C35.8189 44.2799 36.4097 43.8019 36.5596 43.1151C36.6478 42.7134 36.5751 42.2982 36.3546 41.9481L36.3568 41.9481ZM12.783 41.9503C12.7522 41.9436 12.7191 41.9391 12.6882 41.9391C12.6089 41.9391 12.5295 41.9615 12.4612 42.0064L10.1199 43.5258C10.0252 43.5864 9.95901 43.6852 9.93477 43.7996C9.91052 43.9141 9.93036 44.0308 9.98988 44.1273L17.3244 55.8431C17.4016 55.9666 17.5405 56.0429 17.6904 56.0429C17.772 56.0429 17.8491 56.0204 17.9153 55.9778L20.2565 54.4584C20.3513 54.3978 20.4174 54.299 20.4417 54.1846C20.4659 54.0701 20.4461 53.9534 20.3866 53.8569L13.052 42.1411C12.9925 42.0446 12.8955 41.9772 12.7831 41.9526L12.783 41.9503ZM19.9393 21.0755C19.9393 17.1523 22.9287 13.963 26.7625 13.7722C27.5495 11.3843 29.7298 9.78849 32.2166 9.78849C32.9507 9.78849 33.6672 9.92765 34.344 10.2015C35.6226 7.64513 38.2505 6 41.0792 6C44.9791 6 48.2619 9.06578 48.6056 13.0044C52.6951 13.092 56 16.5146 56 20.696C56 23.7933 54.2077 26.5583 51.4233 27.7683V28.2261C51.4233 29.0723 50.8237 29.7591 49.8956 29.9723L48.6875 30.2528C48.5861 30.5424 48.4714 30.8296 48.3391 31.1057L48.9983 32.1718C49.5054 32.991 49.4525 33.9067 48.8638 34.5059L47.7329 35.6573C47.4199 35.976 47.0142 36.1443 46.5645 36.1443C46.1875 36.1443 45.7995 36.0231 45.4402 35.792L44.393 35.1209C44.1196 35.2533 43.8396 35.3722 43.5552 35.4755L43.2818 36.7031C43.0702 37.648 42.3978 38.2585 41.5667 38.2585H39.9684C39.1372 38.2585 38.4626 37.648 38.2532 36.7031L37.9776 35.4732C37.6932 35.3722 37.4133 35.2533 37.1399 35.1186L36.0927 35.7897C35.7333 36.0209 35.3453 36.1421 34.9683 36.1421C34.5186 36.1421 34.113 35.9738 33.7999 35.6551L32.669 34.5037C32.0804 33.9044 32.0297 32.9888 32.5345 32.1696L33.1937 31.1035C33.0636 30.8252 32.9468 30.5401 32.8454 30.2506L31.6395 29.9723C30.7753 29.7725 30.1933 29.1598 30.1205 28.39H27.1223C23.1607 28.39 19.9396 25.1088 19.9396 21.0776L19.9393 21.0755ZM35.7371 11.8624C35.6423 12.1519 35.424 12.3741 35.1419 12.4729C35.0404 12.5088 34.9346 12.5268 34.8266 12.5268C34.6414 12.5268 34.4584 12.4729 34.3041 12.3696C33.6824 11.9589 32.9615 11.7412 32.2186 11.7412C30.369 11.7412 28.7839 13.0811 28.4488 14.9282C28.365 15.3905 27.9682 15.7272 27.5052 15.7272C27.4854 15.7272 27.4655 15.7272 27.4457 15.7249C27.3333 15.7182 27.2274 15.7137 27.1238 15.7137C24.2226 15.7137 21.8615 18.1174 21.8615 21.071C21.8615 24.0246 24.2226 26.4283 27.1238 26.4283H30.122C30.1948 25.6585 30.7768 25.0458 31.641 24.846L32.8469 24.5655C32.9483 24.276 33.0629 23.9887 33.1952 23.7126L32.536 22.6465C32.029 21.8273 32.0819 20.9116 32.6705 20.3124L33.8014 19.161C34.1145 18.8423 34.5179 18.674 34.9698 18.674C35.3468 18.674 35.7348 18.7952 36.0942 19.0264L37.1414 19.6974C37.4147 19.565 37.6947 19.4461 37.9791 19.3428L38.2547 18.1129C38.4663 17.1681 39.1387 16.5576 39.9699 16.5576H41.5682C42.3993 16.5576 43.0739 17.1681 43.2833 18.1129L43.5589 19.3428C43.8433 19.4461 44.1255 19.5628 44.3967 19.6974L45.4439 19.0264C45.8032 18.7952 46.1912 18.674 46.5682 18.674C47.0179 18.674 47.4235 18.8423 47.7366 19.161L48.8675 20.3124C49.4562 20.9116 49.5069 21.8273 49.002 22.6465L48.3428 23.7126C48.4729 23.9909 48.5897 24.276 48.6912 24.5655L49.8971 24.8438C50.4636 24.974 50.9134 25.2815 51.1757 25.7101C52.9702 24.7024 54.0791 22.7925 54.0791 20.6895C54.0791 17.5249 51.5504 14.9528 48.4442 14.9528C48.2259 14.9528 48.0011 14.9663 47.7784 14.9932C47.7409 14.9977 47.7034 15 47.666 15C47.4213 15 47.1898 14.9057 47.009 14.7374C46.8018 14.5399 46.6915 14.2616 46.7048 13.9743C46.7092 13.8778 46.7114 13.7813 46.7114 13.687C46.7114 10.5225 44.1827 7.95041 41.0765 7.95041C38.6536 7.95041 36.5064 9.52148 35.7348 11.8579L35.7371 11.8624ZM47.7254 28.4683L49.4692 28.0643C49.4803 28.0621 49.4913 28.0598 49.5023 28.0553V26.7626C49.4935 26.7603 49.4825 26.7581 49.4692 26.7536L47.7254 26.3496C47.3793 26.2688 47.1059 26.004 47.0134 25.6561C46.8723 25.1332 46.6651 24.6259 46.4005 24.1524C46.2242 23.8382 46.233 23.4544 46.4226 23.1469L47.3749 21.605C47.3816 21.5938 47.386 21.5848 47.3926 21.5759L46.4953 20.6624C46.4865 20.6669 46.4777 20.6736 46.4667 20.6804L44.9521 21.6522C44.7978 21.7509 44.6215 21.8026 44.4407 21.8026C44.2753 21.8026 44.11 21.7577 43.9667 21.6746C43.5015 21.4053 43.0055 21.1943 42.4918 21.0507C42.1501 20.9542 41.8878 20.6759 41.8106 20.3258L41.4138 18.5482C41.4116 18.537 41.4094 18.5258 41.405 18.5146H40.1352C40.133 18.5235 40.1286 18.5348 40.1264 18.5482L39.7295 20.3235C39.6502 20.6759 39.39 20.9542 39.0483 21.0484C38.5347 21.1921 38.0386 21.403 37.5735 21.6723C37.428 21.7554 37.2648 21.8003 37.0995 21.8003C36.9187 21.8003 36.7423 21.7486 36.588 21.6499L35.0735 20.6781C35.0625 20.6713 35.0536 20.6669 35.0448 20.6601L34.1476 21.5736C34.152 21.5825 34.1586 21.5915 34.1652 21.6027L35.1198 23.1446C35.3094 23.4499 35.3182 23.8359 35.1418 24.1501C34.8773 24.6237 34.6723 25.1286 34.529 25.6538C34.4342 26.0017 34.1608 26.2688 33.8169 26.3473L32.0731 26.7513C32.0621 26.7536 32.0511 26.7558 32.0401 26.7603V28.053C32.0489 28.0553 32.0599 28.0575 32.0731 28.062L33.8169 28.466C34.163 28.5468 34.4364 28.8116 34.529 29.1595C34.6701 29.6824 34.8773 30.1897 35.1418 30.6632C35.3182 30.9774 35.3094 31.3612 35.1198 31.6687L34.1674 33.2106C34.1608 33.2218 34.1564 33.2308 34.1498 33.2398L35.047 34.1532C35.0558 34.1487 35.0647 34.142 35.0757 34.1352L36.5902 33.1634C36.7445 33.0647 36.9209 33.0131 37.1017 33.0131C37.267 33.0131 37.4324 33.058 37.5757 33.141C38.0408 33.4103 38.5368 33.6213 39.0505 33.7649C39.3922 33.8614 39.6546 34.1397 39.7317 34.4898L40.1285 36.2674C40.1307 36.2786 40.133 36.2898 40.1374 36.3011H41.4072C41.4094 36.2921 41.4138 36.2809 41.416 36.2696L41.8128 34.4944C41.8922 34.142 42.1523 33.8637 42.494 33.7695C43.0099 33.6258 43.5059 33.4148 43.9711 33.1455C44.1166 33.0625 44.2797 33.0176 44.4451 33.0176C44.6259 33.0176 44.8022 33.0692 44.9565 33.168L46.4711 34.1375C46.4821 34.1443 46.4909 34.1488 46.4997 34.1555L47.397 33.2421C47.3926 33.2331 47.386 33.2241 47.3793 33.2129L46.4248 31.671C46.2352 31.3658 46.2264 30.9798 46.4027 30.6678C46.6673 30.1942 46.8745 29.6892 47.0156 29.1663C47.1104 28.8184 47.3837 28.5513 47.7276 28.4728L47.7254 28.4683ZM45.0469 27.4089C45.0469 29.8104 43.1267 31.7652 40.7678 31.7652C38.4089 31.7652 36.4888 29.8104 36.4888 27.4089C36.4888 25.0074 38.4089 23.0526 40.7678 23.0526C43.1267 23.0526 45.0469 25.0074 45.0469 27.4089ZM40.7678 25.0074C39.4671 25.0074 38.4089 26.0847 38.4089 27.4089C38.4089 28.7331 39.4671 29.8104 40.7678 29.8104C42.0685 29.8104 43.1267 28.7331 43.1267 27.4089C43.1267 26.0847 42.0685 25.0074 40.7678 25.0074Z" fill="white"/>
<path d="M37.4195 12.5291C37.2453 12.3384 37.1549 12.087 37.166 11.8266C37.177 11.5663 37.285 11.3239 37.4746 11.1466C38.2462 10.4217 39.1942 10.0558 40.2986 10.0558C40.6359 10.0558 40.9931 10.0917 41.3568 10.1591C43.2506 10.5159 44.6946 12.0129 45.0318 13.9722C45.1244 14.5042 44.7739 15.0114 44.2514 15.1057C44.1963 15.1147 44.139 15.1214 44.0839 15.1214C43.6165 15.1214 43.2197 14.7825 43.1381 14.3134C42.9397 13.1666 42.102 12.2913 41.0041 12.0848C40.7484 12.0377 40.5081 12.013 40.2899 12.013C39.6814 12.013 39.1854 12.2015 38.7753 12.5875C38.5967 12.7559 38.3653 12.8479 38.125 12.8479C37.8582 12.8479 37.6003 12.7334 37.4195 12.5337L37.4195 12.5291ZM26.7252 22.862C26.0815 22.3772 25.7133 21.6994 25.7133 21.0036C25.7133 20.3662 26.0154 19.7535 26.5621 19.28C26.7561 19.1094 26.8751 18.8737 26.895 18.6134C26.9148 18.353 26.8354 18.0994 26.6679 17.9019C26.4849 17.6842 26.2182 17.5585 25.9382 17.5585C25.7089 17.5585 25.4884 17.6415 25.3143 17.7919C24.3332 18.6448 23.7931 19.7849 23.7931 21.0036C23.7931 22.3255 24.4456 23.5756 25.5854 24.433C25.753 24.5587 25.9492 24.6238 26.1564 24.6238C26.4606 24.6238 26.7494 24.4756 26.928 24.2265C27.0801 24.0155 27.1441 23.7597 27.1066 23.4993C27.0691 23.2412 26.9346 23.0123 26.7274 22.8575L26.7252 22.862ZM53.5813 38.0855C54.1237 38.954 54.3022 39.9865 54.084 40.9942C53.8657 42.0019 53.2749 42.8615 52.4217 43.4136L37.5365 53.0713C36.7891 53.5561 35.9338 53.812 35.0608 53.812C34.7257 53.812 34.3906 53.7738 34.0621 53.6998L23.4847 51.314C23.2113 51.2647 23.0261 51.2377 22.8784 51.2377C22.6778 51.2377 22.5456 51.2871 22.2854 51.4532L21.4851 51.9739L22.0054 52.8043C22.3427 53.3407 22.4529 53.9804 22.3163 54.6065C22.1796 55.2304 21.8158 55.7646 21.2867 56.1058L18.9455 57.6252C18.5685 57.8698 18.132 58 17.6867 58C16.8776 58 16.1369 57.587 15.7026 56.8958L8.36802 45.1799C8.03072 44.6435 7.92049 44.0039 8.05718 43.3777C8.19386 42.7538 8.55762 42.2196 9.0867 41.8785L11.4279 40.3591C11.8049 40.1144 12.2392 39.9842 12.6824 39.9842C12.8543 39.9842 13.0263 40.0044 13.196 40.0426C13.8089 40.1817 14.3336 40.5521 14.6687 41.0907L15.189 41.9211L22.0912 37.4436C22.6931 37.0531 23.4492 36.8376 24.2186 36.8376C24.5669 36.8376 24.902 36.8825 25.2085 36.9678L35.8192 39.3603C36.7142 39.5623 37.4814 40.1099 37.9752 40.8999C38.4294 41.6248 38.6035 42.4732 38.4779 43.3104L48.3476 36.9069C48.956 36.5119 49.6549 36.3032 50.3713 36.3032C50.6491 36.3032 50.9291 36.3346 51.2025 36.3974C52.1923 36.6219 53.0367 37.2211 53.579 38.0874L53.5813 38.0855ZM36.3568 41.9481C36.1363 41.5979 35.799 41.3556 35.4044 41.2658L24.7717 38.8688C24.754 38.8643 24.7342 38.8598 24.7166 38.8553C24.5644 38.8104 24.3947 38.788 24.2161 38.788C23.8215 38.788 23.4136 38.9002 23.1227 39.0887L16.2204 43.5663L20.451 50.3242L21.2513 49.8035C21.8068 49.4422 22.3051 49.2806 22.8672 49.2806C23.1648 49.2806 23.4691 49.3255 23.835 49.3905L23.8747 49.3995L34.4764 51.7898C34.6682 51.8324 34.8622 51.8549 35.0561 51.8549C35.5654 51.8549 36.0659 51.7045 36.5023 51.4217L51.3876 41.764C52.2562 41.2006 52.5141 40.0201 51.9586 39.1358C51.6918 38.7094 51.2752 38.4154 50.7858 38.3032C50.6491 38.2718 50.5102 38.2561 50.3735 38.2561C50.0208 38.2561 49.6768 38.3593 49.377 38.5523L38.4576 45.6378C37.5383 46.2348 36.985 46.5175 36.3192 46.5175C36.1163 46.5175 35.8937 46.4906 35.6424 46.4345L34.3681 46.1517L26.3767 44.3741C26.1253 44.318 25.9115 44.1676 25.7726 43.9477C25.6337 43.7277 25.5874 43.4674 25.6425 43.2116C25.7373 42.7649 26.132 42.4418 26.5795 42.4418C26.6479 42.4418 26.7184 42.4485 26.7845 42.4642L34.7805 44.2418C34.893 44.2665 35.0076 44.2799 35.12 44.2799C35.8189 44.2799 36.4097 43.8019 36.5596 43.1151C36.6478 42.7134 36.5751 42.2982 36.3546 41.9481L36.3568 41.9481ZM12.783 41.9503C12.7522 41.9436 12.7191 41.9391 12.6882 41.9391C12.6089 41.9391 12.5295 41.9615 12.4612 42.0064L10.1199 43.5258C10.0252 43.5864 9.95901 43.6852 9.93477 43.7996C9.91052 43.9141 9.93036 44.0308 9.98988 44.1273L17.3244 55.8431C17.4016 55.9666 17.5405 56.0429 17.6904 56.0429C17.772 56.0429 17.8491 56.0204 17.9153 55.9778L20.2565 54.4584C20.3513 54.3978 20.4174 54.299 20.4417 54.1846C20.4659 54.0701 20.4461 53.9534 20.3866 53.8569L13.052 42.1411C12.9925 42.0446 12.8955 41.9772 12.7831 41.9526L12.783 41.9503ZM19.9393 21.0755C19.9393 17.1523 22.9287 13.963 26.7625 13.7722C27.5495 11.3843 29.7298 9.78849 32.2166 9.78849C32.9507 9.78849 33.6672 9.92765 34.344 10.2015C35.6226 7.64513 38.2505 6 41.0792 6C44.9791 6 48.2619 9.06578 48.6056 13.0044C52.6951 13.092 56 16.5146 56 20.696C56 23.7933 54.2077 26.5583 51.4233 27.7683V28.2261C51.4233 29.0723 50.8237 29.7591 49.8956 29.9723L48.6875 30.2528C48.5861 30.5424 48.4714 30.8296 48.3391 31.1057L48.9983 32.1718C49.5054 32.991 49.4525 33.9067 48.8638 34.5059L47.7329 35.6573C47.4199 35.976 47.0142 36.1443 46.5645 36.1443C46.1875 36.1443 45.7995 36.0231 45.4402 35.792L44.393 35.1209C44.1196 35.2533 43.8396 35.3722 43.5552 35.4755L43.2818 36.7031C43.0702 37.648 42.3978 38.2585 41.5667 38.2585H39.9684C39.1372 38.2585 38.4626 37.648 38.2532 36.7031L37.9776 35.4732C37.6932 35.3722 37.4133 35.2533 37.1399 35.1186L36.0927 35.7897C35.7333 36.0209 35.3453 36.1421 34.9683 36.1421C34.5186 36.1421 34.113 35.9738 33.7999 35.6551L32.669 34.5037C32.0804 33.9044 32.0297 32.9888 32.5345 32.1696L33.1937 31.1035C33.0636 30.8252 32.9468 30.5401 32.8454 30.2506L31.6395 29.9723C30.7753 29.7725 30.1933 29.1598 30.1205 28.39H27.1223C23.1607 28.39 19.9396 25.1088 19.9396 21.0776L19.9393 21.0755ZM35.7371 11.8624C35.6423 12.1519 35.424 12.3741 35.1419 12.4729C35.0404 12.5088 34.9346 12.5268 34.8266 12.5268C34.6414 12.5268 34.4584 12.4729 34.3041 12.3696C33.6824 11.9589 32.9615 11.7412 32.2186 11.7412C30.369 11.7412 28.7839 13.0811 28.4488 14.9282C28.365 15.3905 27.9682 15.7272 27.5052 15.7272C27.4854 15.7272 27.4655 15.7272 27.4457 15.7249C27.3333 15.7182 27.2274 15.7137 27.1238 15.7137C24.2226 15.7137 21.8615 18.1174 21.8615 21.071C21.8615 24.0246 24.2226 26.4283 27.1238 26.4283H30.122C30.1948 25.6585 30.7768 25.0458 31.641 24.846L32.8469 24.5655C32.9483 24.276 33.0629 23.9887 33.1952 23.7126L32.536 22.6465C32.029 21.8273 32.0819 20.9116 32.6705 20.3124L33.8014 19.161C34.1145 18.8423 34.5179 18.674 34.9698 18.674C35.3468 18.674 35.7348 18.7952 36.0942 19.0264L37.1414 19.6974C37.4147 19.565 37.6947 19.4461 37.9791 19.3428L38.2547 18.1129C38.4663 17.1681 39.1387 16.5576 39.9699 16.5576H41.5682C42.3993 16.5576 43.0739 17.1681 43.2833 18.1129L43.5589 19.3428C43.8433 19.4461 44.1255 19.5628 44.3967 19.6974L45.4439 19.0264C45.8032 18.7952 46.1912 18.674 46.5682 18.674C47.0179 18.674 47.4235 18.8423 47.7366 19.161L48.8675 20.3124C49.4562 20.9116 49.5069 21.8273 49.002 22.6465L48.3428 23.7126C48.4729 23.9909 48.5897 24.276 48.6912 24.5655L49.8971 24.8438C50.4636 24.974 50.9134 25.2815 51.1757 25.7101C52.9702 24.7024 54.0791 22.7925 54.0791 20.6895C54.0791 17.5249 51.5504 14.9528 48.4442 14.9528C48.2259 14.9528 48.0011 14.9663 47.7784 14.9932C47.7409 14.9977 47.7034 15 47.666 15C47.4213 15 47.1898 14.9057 47.009 14.7374C46.8018 14.5399 46.6915 14.2616 46.7048 13.9743C46.7092 13.8778 46.7114 13.7813 46.7114 13.687C46.7114 10.5225 44.1827 7.95041 41.0765 7.95041C38.6536 7.95041 36.5064 9.52148 35.7348 11.8579L35.7371 11.8624ZM47.7254 28.4683L49.4692 28.0643C49.4803 28.0621 49.4913 28.0598 49.5023 28.0553V26.7626C49.4935 26.7603 49.4825 26.7581 49.4692 26.7536L47.7254 26.3496C47.3793 26.2688 47.1059 26.004 47.0134 25.6561C46.8723 25.1332 46.6651 24.6259 46.4005 24.1524C46.2242 23.8382 46.233 23.4544 46.4226 23.1469L47.3749 21.605C47.3816 21.5938 47.386 21.5848 47.3926 21.5759L46.4953 20.6624C46.4865 20.6669 46.4777 20.6736 46.4667 20.6804L44.9521 21.6522C44.7978 21.7509 44.6215 21.8026 44.4407 21.8026C44.2753 21.8026 44.11 21.7577 43.9667 21.6746C43.5015 21.4053 43.0055 21.1943 42.4918 21.0507C42.1501 20.9542 41.8878 20.6759 41.8106 20.3258L41.4138 18.5482C41.4116 18.537 41.4094 18.5258 41.405 18.5146H40.1352C40.133 18.5235 40.1286 18.5348 40.1264 18.5482L39.7295 20.3235C39.6502 20.6759 39.39 20.9542 39.0483 21.0484C38.5347 21.1921 38.0386 21.403 37.5735 21.6723C37.428 21.7554 37.2648 21.8003 37.0995 21.8003C36.9187 21.8003 36.7423 21.7486 36.588 21.6499L35.0735 20.6781C35.0625 20.6713 35.0536 20.6669 35.0448 20.6601L34.1476 21.5736C34.152 21.5825 34.1586 21.5915 34.1652 21.6027L35.1198 23.1446C35.3094 23.4499 35.3182 23.8359 35.1418 24.1501C34.8773 24.6237 34.6723 25.1286 34.529 25.6538C34.4342 26.0017 34.1608 26.2688 33.8169 26.3473L32.0731 26.7513C32.0621 26.7536 32.0511 26.7558 32.0401 26.7603V28.053C32.0489 28.0553 32.0599 28.0575 32.0731 28.062L33.8169 28.466C34.163 28.5468 34.4364 28.8116 34.529 29.1595C34.6701 29.6824 34.8773 30.1897 35.1418 30.6632C35.3182 30.9774 35.3094 31.3612 35.1198 31.6687L34.1674 33.2106C34.1608 33.2218 34.1564 33.2308 34.1498 33.2398L35.047 34.1532C35.0558 34.1487 35.0647 34.142 35.0757 34.1352L36.5902 33.1634C36.7445 33.0647 36.9209 33.0131 37.1017 33.0131C37.267 33.0131 37.4324 33.058 37.5757 33.141C38.0408 33.4103 38.5368 33.6213 39.0505 33.7649C39.3922 33.8614 39.6546 34.1397 39.7317 34.4898L40.1285 36.2674C40.1307 36.2786 40.133 36.2898 40.1374 36.3011H41.4072C41.4094 36.2921 41.4138 36.2809 41.416 36.2696L41.8128 34.4944C41.8922 34.142 42.1523 33.8637 42.494 33.7695C43.0099 33.6258 43.5059 33.4148 43.9711 33.1455C44.1166 33.0625 44.2797 33.0176 44.4451 33.0176C44.6259 33.0176 44.8022 33.0692 44.9565 33.168L46.4711 34.1375C46.4821 34.1443 46.4909 34.1488 46.4997 34.1555L47.397 33.2421C47.3926 33.2331 47.386 33.2241 47.3793 33.2129L46.4248 31.671C46.2352 31.3658 46.2264 30.9798 46.4027 30.6678C46.6673 30.1942 46.8745 29.6892 47.0156 29.1663C47.1104 28.8184 47.3837 28.5513 47.7276 28.4728L47.7254 28.4683ZM45.0469 27.4089C45.0469 29.8104 43.1267 31.7652 40.7678 31.7652C38.4089 31.7652 36.4888 29.8104 36.4888 27.4089C36.4888 25.0074 38.4089 23.0526 40.7678 23.0526C43.1267 23.0526 45.0469 25.0074 45.0469 27.4089ZM40.7678 25.0074C39.4671 25.0074 38.4089 26.0847 38.4089 27.4089C38.4089 28.7331 39.4671 29.8104 40.7678 29.8104C42.0685 29.8104 43.1267 28.7331 43.1267 27.4089C43.1267 26.0847 42.0685 25.0074 40.7678 25.0074Z" stroke="black" stroke-width="2" mask="url(#path-1-outside-1_1_584)"/>
</svg>
